<svg width="50" height="46" viewBox="0 0 50 46" fill="none" xmlns="http://www.w3.org/2000/svg">
<mask id="path-1-inside-1_640_3927" fill="white">
<path fill-rule="evenodd" clip-rule="evenodd" d="M44.5589 29.0524C45.1398 27.044 45.4512 24.9212 45.4512 22.7256C45.4512 10.1746 35.2766 0 22.7256 0C10.1746 0 0 10.1746 0 22.7256C0 35.2766 10.1746 45.4512 22.7256 45.4512C29.1965 45.4512 35.0358 42.7466 39.1746 38.4062H49.9593L44.5589 29.0524Z"/>
</mask>
<path fill-rule="evenodd" clip-rule="evenodd" d="M44.5589 29.0524C45.1398 27.044 45.4512 24.9212 45.4512 22.7256C45.4512 10.1746 35.2766 0 22.7256 0C10.1746 0 0 10.1746 0 22.7256C0 35.2766 10.1746 45.4512 22.7256 45.4512C29.1965 45.4512 35.0358 42.7466 39.1746 38.4062H49.9593L44.5589 29.0524Z" fill="white"/>
<path d="M44.5589 29.0524L42.8124 28.5472L42.5973 29.2909L42.9844 29.9614L44.5589 29.0524ZM39.1746 38.4062V36.5882H38.3961L37.8589 37.1516L39.1746 38.4062ZM49.9593 38.4062V40.2243H53.1082L51.5338 37.4972L49.9593 38.4062ZM43.6331 22.7256C43.6331 24.7485 43.3464 26.7014 42.8124 28.5472L46.3053 29.5576C46.9333 27.3867 47.2692 25.0938 47.2692 22.7256H43.6331ZM22.7256 1.81805C34.2725 1.81805 43.6331 11.1787 43.6331 22.7256H47.2692C47.2692 9.17051 36.2807 -1.81805 22.7256 -1.81805V1.81805ZM1.81805 22.7256C1.81805 11.1787 11.1787 1.81805 22.7256 1.81805V-1.81805C9.17051 -1.81805 -1.81805 9.17051 -1.81805 22.7256H1.81805ZM22.7256 43.6331C11.1787 43.6331 1.81805 34.2725 1.81805 22.7256H-1.81805C-1.81805 36.2807 9.17051 47.2692 22.7256 47.2692V43.6331ZM37.8589 37.1516C34.0489 41.1471 28.6791 43.6331 22.7256 43.6331V47.2692C29.714 47.2692 36.0227 44.3461 40.4904 39.6609L37.8589 37.1516ZM49.9593 36.5882H39.1746V40.2243H49.9593V36.5882ZM42.9844 29.9614L48.3848 39.3153L51.5338 37.4972L46.1333 28.1434L42.9844 29.9614Z" fill="#2C4D13" mask="url(#path-1-inside-1_640_3927)"/>
<path fill-rule="evenodd" clip-rule="evenodd" d="M22.7145 31.1632C20.4463 25.0951 17.9691 16.1336 20.036 12.1801C21.1307 10.0864 22.5612 9.86055 23.8235 10.2681C26.0861 10.9987 26.8756 13.6381 26.8609 16.0157C26.8382 19.6843 26.5416 25.5631 25.1351 31.0599C24.8095 32.3325 23.1744 32.3937 22.7145 31.1632ZM23.8802 36.4107C24.8161 36.4434 25.5982 35.7988 25.6271 34.9709C25.656 34.1431 24.9208 33.4455 23.9849 33.4128C23.049 33.3801 22.2669 34.0247 22.238 34.8526C22.2091 35.6804 22.9443 36.378 23.8802 36.4107Z" fill="#2C4D13"/>
</svg>
