<svg xmlns="http://www.w3.org/2000/svg" width="460" height="460" fill="none"><g clip-path="url(#a)"><path fill="#fff" d="M0 0h460v460H0z"/><g fill="#20380E" opacity=".15"><path d="M198.61 34.035c-.98.092-1.978-.41-2.453-1.244-.401-.704-.73-2.182.584-3.247.827-.672 2.482-.68 3.279-.018.772.64 1.109 1.71.837 2.66-.272.948-1.154 1.703-2.144 1.838a2.482 2.482 0 0 1-.101.012h-.002Zm1.201-2.15c.152-.533-.048-1.16-.486-1.524-.234-.193-.704-.268-1.137-.227-.304.028-.59.114-.762.253-.922.748-.388 1.753-.325 1.865.274.48.889.77 1.463.694.568-.077 1.092-.523 1.247-1.06Z"/><path d="m208.026 56.931-.104.01c-5.251.373-10.881.771-16.478 1.157a4.453 4.453 0 0 1-3.307-1.139 4.467 4.467 0 0 1-1.49-3.174 115.322 115.322 0 0 1-.081-2.904.544.544 0 0 1-.338-.147 18.7 18.7 0 0 1-5.315-9.453 18.694 18.694 0 0 1 .896-10.808.542.542 0 0 1 .331-.31c-.344-.645-.42-1.435-.123-2.123.512-1.196 2.012-1.797 3.209-1.286.571.243 1.04.737 1.285 1.354.247.617.246 1.299-.001 1.869-.357.828-1.19 1.368-2.065 1.45a2.357 2.357 0 0 1-1.149-.175 2.274 2.274 0 0 1-.504-.304 17.604 17.604 0 0 0-.816 10.103 17.609 17.609 0 0 0 4.589 8.49 4.489 4.489 0 0 1 3.659-4.188 96.747 96.747 0 0 1 6.746-.995l-.289-2.303c-3.282-.519-6.304-2.52-7.921-5.438-1.736-3.133-3.174-9.691 2.448-14.393 3.44-2.877 10.856-2.916 14.17-.077 3.335 2.86 4.8 7.602 3.645 11.8-1.014 3.683-4.053 6.707-7.67 7.8l.193 2.202c1.861-.122 3.734-.197 5.616-.217a4.5 4.5 0 0 1 4.474 3.797c.246 1.587.399 3.19.457 4.767a4.475 4.475 0 0 1-4.067 4.638v-.002Zm-24.299-26.68c.641.275 1.509-.068 1.786-.708.132-.306.129-.683-.012-1.035-.139-.349-.395-.624-.703-.755-.19-.08-.4-.108-.609-.088-.495.046-.98.351-1.175.803-.275.641.071 1.509.712 1.786l.001-.003Zm24.249 3.405c1.029-3.74-.329-8.134-3.304-10.685-1.369-1.174-3.748-1.86-6.363-1.835-.406.003-.807.025-1.2.062-2.125.198-4.015.864-5.202 1.858-5.077 4.247-3.768 10.19-2.195 13.032 1.875 3.384 6.044 5.453 9.914 4.925 3.868-.53 7.302-3.555 8.348-7.357h.002Zm-7.69 8.349a9.927 9.927 0 0 1-.95.136 10.48 10.48 0 0 1-1.544.028l.259 2.07c.8-.08 1.604-.153 2.411-.215l-.178-2.02h.002Zm10.277 5.688a3.41 3.41 0 0 0-3.389-2.877c-5.706.064-11.341.604-16.752 1.602a3.403 3.403 0 0 0-2.776 3.355c.001 1.177.03 2.474.088 3.967a3.392 3.392 0 0 0 1.13 2.408c.69.621 1.58.927 2.506.864 5.597-.386 11.226-.784 16.475-1.157l.08-.007a3.393 3.393 0 0 0 3.083-3.516 40.006 40.006 0 0 0-.445-4.64Z"/><path d="M207.41 49.403a1.397 1.397 0 0 1-.13.007 1.672 1.672 0 0 1-1.177-.502 1.7 1.7 0 0 1-.509-1.199c.004-.542.287-1.073.723-1.354.255-.163.537-.22.799-.165.383-.05.782.06 1.119.303.388.28.634.698.673 1.145.038.432-.12.877-.433 1.22a1.663 1.663 0 0 1-1.065.546v-.001Zm.188-2.03a.516.516 0 0 0-.343-.106c-.015.002-.031.003-.047.009a.543.543 0 0 1-.296-.013c-.084.047-.229.23-.231.453a.617.617 0 0 0 .191.423.584.584 0 0 0 .402.183.57.57 0 0 0 .399-.197.541.541 0 0 0 .153-.393.521.521 0 0 0-.226-.358h-.002ZM207.902 54.66a1.432 1.432 0 0 1-.13.007 1.672 1.672 0 0 1-1.177-.502 1.7 1.7 0 0 1-.509-1.199c.004-.542.287-1.073.723-1.354.255-.165.537-.22.799-.165.38-.047.782.06 1.119.303.389.28.634.698.673 1.146.038.431-.12.876-.433 1.22a1.659 1.659 0 0 1-1.065.545v-.001Zm.188-2.03a.514.514 0 0 0-.342-.106c-.016.002-.032.003-.048.008a.543.543 0 0 1-.296-.013c-.084.047-.229.23-.231.453a.62.62 0 0 0 .191.423.584.584 0 0 0 .402.183.578.578 0 0 0 .399-.197.54.54 0 0 0 .153-.394.519.519 0 0 0-.226-.358l-.002.002ZM191.31 50.91a1.415 1.415 0 0 1-.13.008 1.67 1.67 0 0 1-1.177-.503 1.7 1.7 0 0 1-.509-1.198c.004-.542.287-1.073.722-1.354a1.07 1.07 0 0 1 .8-.165c.383-.05.782.06 1.118.302a1.6 1.6 0 0 1 .674 1.146c.037.432-.121.877-.433 1.22a1.66 1.66 0 0 1-1.065.546v-.001Zm.188-2.029a.518.518 0 0 0-.343-.106.199.199 0 0 0-.047.008.547.547 0 0 1-.297-.012c-.083.047-.228.23-.23.453a.617.617 0 0 0 .191.423.578.578 0 0 0 .402.183.565.565 0 0 0 .398-.197.538.538 0 0 0 .154-.394.52.52 0 0 0-.227-.358h-.001ZM191.802 56.167a1.429 1.429 0 0 1-.129.007 1.672 1.672 0 0 1-1.178-.502 1.7 1.7 0 0 1-.509-1.198c.004-.541.287-1.074.723-1.354.255-.165.537-.221.799-.166.384-.048.782.06 1.119.303.39.28.634.698.673 1.146.038.432-.12.877-.433 1.22a1.663 1.663 0 0 1-1.065.544Zm.188-2.029a.514.514 0 0 0-.342-.106c-.016.001-.032.003-.048.007a.542.542 0 0 1-.296-.012c-.084.046-.229.23-.231.453a.616.616 0 0 0 .192.422.574.574 0 0 0 .401.184.578.578 0 0 0 .399-.197.54.54 0 0 0 .153-.394.519.519 0 0 0-.226-.358l-.002.001ZM201.51 22.209c2.758.655 4.98 3.175 5.286 5.992a.543.543 0 0 1-.481.6h-.008a.543.543 0 0 1-.591-.482c-.259-2.375-2.132-4.5-4.457-5.052a.545.545 0 0 1 .251-1.058ZM210.449 35.051a.544.544 0 0 1-.582-.656 13.299 13.299 0 0 0-.416-7.118.544.544 0 0 1 1.028-.354c.85 2.478 1.005 5.141.451 7.701a.543.543 0 0 1-.481.426v.001Z"/><path d="M209.894 24.81a.544.544 0 1 1 .871-.652c2.668 3.572 3.289 8.542 1.58 12.66a.544.544 0 0 1-1.004-.417c1.564-3.772.997-8.323-1.447-11.593v.001ZM185.904 25.75a.543.543 0 0 1-.461-.615c.255-1.783 1.395-3.43 2.973-4.298a.543.543 0 1 1 .523.953 4.856 4.856 0 0 0-2.422 3.499.542.542 0 0 1-.614.46h.001ZM184.861 23.315a.543.543 0 0 1-.575-.682 6.582 6.582 0 0 1 4.092-4.443.544.544 0 1 1 .366 1.024 5.48 5.48 0 0 0-3.407 3.698.542.542 0 0 1-.475.401l-.001.002ZM185.963 34.686a.545.545 0 0 1 .619.454 6.506 6.506 0 0 0 2.296 4.01.543.543 0 1 1-.686.844 7.6 7.6 0 0 1-2.685-4.686.543.543 0 0 1 .455-.62l.001-.002ZM187.419 40.926a.541.541 0 0 1-.765.073 9.298 9.298 0 0 1-3.325-6.38.543.543 0 0 1 .491-.585h.006a.544.544 0 0 1 .586.497c.174 2.151 1.271 4.256 2.934 5.63a.542.542 0 0 1 .072.765h.001ZM148.402 363.19a2.117 2.117 0 0 1-.113.404l1.06.486a.727.727 0 1 1-.605 1.319l-1.021-.468-.003.007-.181.406a2.236 2.236 0 0 1-2.159 1.336c-3.314-.144-6.9-1.626-12.328-3.868-1.573-.649-3.358-1.387-5.333-2.173l-.002-.002s-.001-.002-.004-.002c-12.007-4.91-23.063-10.694-34.767-16.819a1.961 1.961 0 0 1-.415-.227c-.238.522-.106 1.254.217 1.753.486.753 1.309 1.257 2.254 1.792 5.829 3.293 12.08 6.033 18.123 8.684a.726.726 0 0 1 .372.955.723.723 0 0 1-.955.372c-6.077-2.665-12.36-5.42-18.253-8.748-1.075-.608-2.094-1.238-2.76-2.268-.699-1.082-.867-2.77.151-3.833a3.754 3.754 0 0 1-.102-.477 4.745 4.745 0 0 1-.046-.733c-.396-.258-.858-.451-1.342-.653-.33-.138-.672-.28-1.006-.45-1.365-.69-2.164-1.742-2.196-2.883-.031-1.108.68-2.021 1.15-2.626.506-.651 1.199-1.545 2.272-1.843.853-.237 1.815-.062 2.858.519.283.157.55.329.81.496.286.183.563.359.841.505l.007-.006c1.346-.991 2.808-1.158 4.231-.48 11.408 5.429 22.455 11.279 32.841 17.388a.695.695 0 0 1 .118.042c5.485 2.55 10.532 6.285 15.412 9.897a2.25 2.25 0 0 1 .873 2.199l.001-.001Zm-17.305-10.985c-9.973-5.86-20.557-11.479-31.485-16.716-1.48 1.447-2.501 3.341-3.486 5.176-.459.856-.926 1.832-.627 2.581a.707.707 0 0 1 .05.293c10.819 5.659 21.156 10.998 32.271 15.571 2.212-2.178 2.905-3.406 3.276-6.907l.001.002Zm-37.609-9.734c.03.011.061.023.09.04.127.066.25.132.376.196.01-1.082.558-2.106.893-2.728.912-1.696 1.93-3.592 3.367-5.135-.817-.277-1.632-.121-2.43.466-1.844 1.36-3.023 4.556-2.77 6.298.047.333.17.75.476.862l-.001.001Zm-.196-7.608a12.997 12.997 0 0 0-.733-.449c-.48-.267-1.175-.551-1.762-.388-.564.157-1.02.698-1.514 1.336-.454.585-.86 1.153-.845 1.698.023.865 1.077 1.465 1.4 1.628.286.145.588.27.908.404.323.134.652.27.974.433.324-1.492 1.06-3.111 2.098-4.332a17.593 17.593 0 0 1-.525-.329l-.001-.001Zm39.187 18.014c-.049.4-.103.776-.165 1.13-.421 2.389-1.2 3.796-3.036 5.693 1.58.636 3.024 1.233 4.326 1.77 5.285 2.183 8.777 3.627 11.837 3.759a.796.796 0 0 0 .768-.472c.061-.136.122-.275.185-.413.187-.42.381-.853.538-1.259a.802.802 0 0 0-.268-.928c-4.529-3.351-9.202-6.808-14.186-9.279l.001-.001ZM15.846 350.02c4.45-1.572 8.581-2.753 14.278-3.396a.473.473 0 0 1 .502.317l17.125 50.526a.47.47 0 0 1-.303.601c-4.824 1.564-9.529 2.346-14.325 3.072a1.988 1.988 0 0 1-2.18-1.323 3229.939 3229.939 0 0 0-6.158-17.709c-3.384-9.676-6.885-19.683-10.168-29.58a2.004 2.004 0 0 1 1.23-2.507v-.001Zm-.333 2.209c3.281 9.891 6.78 19.893 10.164 29.565a3257.83 3257.83 0 0 1 6.159 17.715 1.044 1.044 0 0 0 1.146.694c4.603-.697 9.12-1.444 13.718-2.89l-1.507-4.447a.464.464 0 0 1-.28.115 2.05 2.05 0 0 0-1.387.673.473.473 0 0 1-.708-.628 2.976 2.976 0 0 1 2.04-.99c.017-.001.036.001.054.001l-.626-1.847a.476.476 0 0 1-.156.101l-1.774.705a.473.473 0 0 1-.35-.878l1.775-.705a.465.465 0 0 1 .231-.029l-.533-1.573a.475.475 0 0 1-.27.234l-1.551.518a.473.473 0 1 1-.3-.897l1.551-.518a.464.464 0 0 1 .354.022l-.496-1.463-3.86 1.316a.473.473 0 0 1-.306-.895l3.862-1.317-.665-1.959a.481.481 0 0 1-.144.083l-1.245.436a.473.473 0 0 1-.314-.892l1.245-.436a.48.48 0 0 1 .174-.025l-.46-1.359a.47.47 0 0 1-.323.202c-.435.062-.85.232-1.203.492a.473.473 0 1 1-.563-.76 3.592 3.592 0 0 1 1.634-.67.458.458 0 0 1 .182.01l.03.011-.518-1.53a3.324 3.324 0 0 0-1.587.534.473.473 0 1 1-.517-.793 4.288 4.288 0 0 1 1.794-.659l-.433-1.279a.469.469 0 0 1-.258.163l-1.594.37a.474.474 0 0 1-.215-.921l1.594-.371a.472.472 0 0 1 .214 0l-.712-2.102a16.244 16.244 0 0 1-3.663 1.225.473.473 0 0 1-.192-.927 15.29 15.29 0 0 0 3.55-1.202l-.517-1.524a.472.472 0 0 1-.319.288l-1.26.338a.474.474 0 0 1-.245-.914l1.26-.338a.468.468 0 0 1 .367.054l-.36-1.061a.48.48 0 0 1-.219.123l-1.247.296a.473.473 0 1 1-.217-.921l1.247-.296a.485.485 0 0 1 .165-.009l-.392-1.159a.473.473 0 0 1-.175.111l-1.454.507a.472.472 0 1 1-.31-.892l1.452-.508a.473.473 0 0 1 .213-.022l-.601-1.774a4.225 4.225 0 0 1-1.745.66.472.472 0 1 1-.13-.937 3.279 3.279 0 0 0 1.425-.558.452.452 0 0 1 .143-.066l-.516-1.522a.5.5 0 0 1-.096.062l-2.987 1.398a.473.473 0 0 1-.4-.857l2.986-1.398a.475.475 0 0 1 .214-.044l-.548-1.618-1.242.507a.474.474 0 0 1-.617-.258.474.474 0 0 1 .258-.617l1.272-.519.024-.007-.346-1.019a.477.477 0 0 1-.189.098l-1.454.368a.473.473 0 0 1-.232-.917l1.454-.368a.443.443 0 0 1 .14-.013l-.554-1.631c-.012.006-.023.013-.036.016l-1.55.523a.473.473 0 0 1-.301-.896l1.55-.523.037-.011-.551-1.626a.494.494 0 0 1-.135.087l-1.7.705a.473.473 0 1 1-.364-.873l1.7-.705a.454.454 0 0 1 .219-.034l-.47-1.384-3.5 1.391a.473.473 0 0 1-.349-.878l3.546-1.409-.771-2.274c-5.414.643-9.4 1.789-13.69 3.305a1.053 1.053 0 0 0-.648 1.317l.004.003Z"/><path d="M31.798 387.722a.472.472 0 0 1 .623.242 45.731 45.731 0 0 1 2.832 8.736.473.473 0 0 1-.925.199 44.938 44.938 0 0 0-2.773-8.555.473.473 0 0 1 .242-.623v.001ZM19.79 353.428a.473.473 0 0 1 .605.286l11.44 32.003a.473.473 0 1 1-.89.318l-11.44-32.003a.471.471 0 0 1 .286-.604h-.001ZM344.113 187.706l-.596-4.302c-.054-.393-.146-1.051.248-1.58.385-.518 1.033-.629 1.379-.688a29.35 29.35 0 0 1 3.054-.356c.398-.026 1.328-.084 1.874.572.328.395.379.897.412 1.228l.423 4.203c1.19.611 2.189 1.599 2.748 2.825.747 1.638.659 3.592-.129 5.195l11.967 21.115a.515.515 0 0 1 .088-.009l.335-.002a718.702 718.702 0 0 0-1.008-6.086c-.364-2.15-.74-4.372-1.102-6.653a.58.58 0 0 1 .319-.61 4.628 4.628 0 0 1 3.897-.075.58.58 0 0 1 .324.358c1.166 3.716 1.825 7.644 2.137 12.722.152-.023.306-.045.458-.069a.579.579 0 0 1 .656.436c.181.759.325 1.528.477 2.342.148.792.303 1.609.509 2.54a.568.568 0 0 1-.09.456.588.588 0 0 1-.199.179.603.603 0 0 1-.199.064l-.6.079c.115.525.201 1.056.182 1.579a.6.6 0 0 1-.051.22c-.575 1.261-1.171 2.564-2.025 3.728a.572.572 0 0 1-.468.236.575.575 0 0 1-.467-.241c-.658-.912-1.338-1.857-2.017-2.965a.576.576 0 0 1-.082-.241c-.096-.901-.088-1.299-.083-1.562l.001-.105a1.305 1.305 0 0 1-.562-.112c-.015.014-.029.029-.046.041a.578.578 0 0 1-.81-.12 293.46 293.46 0 0 1-16.017-23.976c-.014-.023-.023-.048-.034-.071a6.302 6.302 0 0 1-1.046.055c-.686 8.777-3.412 31.211-3.44 31.441a.575.575 0 0 1-.595.509.58.58 0 0 1-.556-.551c-.468-10.078-.812-25.038-.25-34.212-.77-1.256-1.099-2.785-.828-4.243.234-1.261.895-2.399 1.817-3.261l-.009-.034.004.001Zm5.071-5.613c-.153-.184-.594-.178-.913-.158-.98.061-1.965.176-2.933.342-.174.029-.537.092-.645.237-.111.149-.061.513-.031.731l.513 3.7a5.856 5.856 0 0 1 2.379-.81 5.78 5.78 0 0 1 2.144.179l-.363-3.616c-.022-.215-.049-.483-.151-.605Zm18.142 21.358a3.482 3.482 0 0 0-2.304-.015 722.91 722.91 0 0 0 1.027 6.192c.341 2.023.695 4.113 1.036 6.253.752-.03 1.503-.087 2.251-.169-.296-4.898-.918-8.695-2.01-12.261Zm3.615 15.036a67.887 67.887 0 0 0-.348-1.769 33.266 33.266 0 0 1-4.402.345l.207 3.711c.01.183.028.269.043.309.066.005.194-.012.241-.018l3.899-.518a.56.56 0 0 1 .271-.036l.473-.063c-.147-.7-.267-1.338-.384-1.96v-.001Zm-1.817 7.277c.536-.856.962-1.779 1.404-2.746 0-.399-.077-.827-.179-1.274l-2.708.359c.004.083.004.166.002.26-.004.223-.01.553.063 1.289.471.762.949 1.451 1.418 2.111v.001Zm-3.912-5.473-.162-2.926a.556.556 0 0 1-.167-.183l-12.059-21.275a5.718 5.718 0 0 1-.546.588 5.73 5.73 0 0 1-2.083 1.228 291.846 291.846 0 0 0 15.018 22.569l-.001-.001Zm-20.959 1.786c.87-7.42 2.14-18.601 2.572-24.161a5.699 5.699 0 0 1-1.519-.568 5.655 5.655 0 0 1-1.088-.784c-.352 7.05-.238 16.95.035 25.515v-.002Zm-.812-30.866c-.226 1.216.068 2.492.734 3.526.023.028.042.06.059.092a4.732 4.732 0 0 0 1.631 1.507c1.774.978 4.14.688 5.626-.689 1.486-1.377 1.955-3.715 1.113-5.558-.84-1.843-2.911-3.023-4.926-2.805-2.074.225-3.856 1.876-4.238 3.928l.001-.001ZM395.395 284.496c-2.436-2.439-3.976-5.664-4.457-9.327-.457-3.479.112-7.107 1.606-10.215 2.182-4.543 7.012-7.759 12.302-8.195 4.941-.406 10.144 1.564 13.921 5.268 1.745 1.711 3.871 4.483 4.091 7.972.207 3.272-1.35 6.366-2.825 9.009-.3.536-.607 1.078-.93 1.618-.276.462-.562.922-.864 1.375.47.235.944.519 1.346.922.648.653.945 1.502.814 2.277 1.439 1.341 4.287 4.101 7.049 6.777 2.929 2.839 5.959 5.776 7.279 6.99.503.462 1.837 1.689 1.386 3.135a2.002 2.002 0 0 1-.182.41c-.484.81-1.512 1.169-2.357 1.09-.778-.072-1.812-.658-2.359-1.002l-.014-.009c-2.947-1.837-11.394-10.14-14.27-13.328a2.35 2.35 0 0 1-.52.239c-.808.252-1.775.006-2.522-.643-.519-.45-.88-1.016-1.19-1.551-5.382 2.79-12.749 1.75-17.304-2.812Zm36.511 17.001c.741.464 1.427.775 1.789.808.462.043 1.041-.168 1.174-.591.138-.442-.197-1.026-1.023-1.787-1.335-1.226-4.369-4.169-7.305-7.013-2.588-2.509-5.253-5.093-6.751-6.498a7.664 7.664 0 0 1-.35.384l-1.525 1.609c2.799 3.095 11.174 11.332 13.973 13.077l.017.009.001.002Zm-17.165-13.622c.403.349.906.5 1.28.384.15-.047.296-.139.435-.252a.632.632 0 0 1 .119-.14.605.605 0 0 1 .135-.086c.089-.087.175-.177.255-.263l1.53-1.612c.249-.262.506-.533.595-.816.133-.428-.121-.933-.43-1.244-.316-.319-.74-.553-1.179-.762-.729.975-1.544 1.895-2.494 2.698-.372.316-.762.604-1.167.869.266.457.549.905.92 1.225l.001-.001Zm-.597-3.088c2.051-1.738 3.472-4.12 4.75-6.413 1.448-2.595 2.847-5.372 2.663-8.291-.152-2.401-1.467-4.931-3.702-7.125-3.511-3.444-8.335-5.275-12.902-4.899-4.464.367-8.562 2.886-10.73 6.52-.182.305-.351.619-.505.939-2.951 6.143-1.882 13.569 2.599 18.057 4.784 4.791 12.949 5.347 17.829 1.211l-.002.001Z"/><path d="M394.966 266.177c1.722-3.678 5.619-6.234 9.933-6.515 4.011-.26 8.268 1.408 11.386 4.463 1.443 1.414 3.212 3.698 3.44 6.547.215 2.674-1.008 5.166-2.171 7.293a43.88 43.88 0 0 1-.852 1.5c-.852 1.428-1.841 2.816-3.161 3.926-4.325 3.637-11.646 3.041-15.99-1.301-4.024-4.025-5.087-10.569-2.586-15.914l.001.001Zm17.738 16.218c1.61-1.355 2.715-3.24 3.707-5.055 1.122-2.051 2.202-4.247 2.016-6.564-.153-1.909-1.238-3.94-3.055-5.72-2.858-2.8-6.743-4.33-10.389-4.093-3.524.229-6.73 2.148-8.414 4.97a8.895 8.895 0 0 0-.423.796c-2.273 4.859-1.316 10.796 2.328 14.441 3.885 3.885 10.401 4.446 14.228 1.226l.002-.001Z"/><path d="M403.75 263.508c1.919-.942 4.387-.83 6.601.301 2.182 1.112 3.8 2.999 4.829 4.32a.648.648 0 0 1-.115.915.653.653 0 0 1-.915-.115c-1.511-1.944-2.908-3.202-4.391-3.96-1.852-.945-3.883-1.054-5.435-.292a.651.651 0 0 1-.574-1.169ZM173.448 379.89c1.801 1.233 2.757 3.439 2.378 5.488-.425 2.293-2.643 4.095-4.746 3.859-.76-.086-1.408-.39-2.031-.683-.247-.117-.48-.225-.714-.32-.374-.15-1.312-.448-1.903.01-.699.541-.553 1.857.024 2.746.242.372.534.722.843 1.093.581.697 1.183 1.416 1.505 2.365.623 1.83-.145 4.041-1.698 5.214 1.244.726 2.291 1.67 2.879 2.666 2.333 3.95 1.044 10.152-3.94 18.961a.768.768 0 0 1-.365.325c-2.249.946-7.375-.885-11.004-2.981a20.132 20.132 0 0 1-2.27-1.501c-1.426-1.109-2.058-2.062-1.93-2.913.31-2.063 6.232-14.134 10.148-15.612 1.441-.544 3.232-.341 4.891.291a.776.776 0 0 1 .231-.174c1.307-.632 2.082-2.437 1.622-3.787-.233-.681-.719-1.265-1.235-1.881-.325-.389-.662-.793-.952-1.243-.959-1.481-1.1-3.672.323-4.771.864-.668 2.07-.746 3.394-.219.276.111.541.236.797.356.536.252 1.043.491 1.555.549 1.33.151 2.799-1.102 3.081-2.628.269-1.445-.448-3.073-1.742-3.959-1.19-.815-2.828-1.095-4.61-.789a.757.757 0 0 1-.875-.619.757.757 0 0 1 .619-.876c2.173-.374 4.207-.007 5.723 1.033h.002Zm-12.285 20.138c-2.952 1.115-8.864 12.303-9.182 14.408.003.177.451.966 2.408 2.241 3.626 2.363 8.643 4.071 10.483 3.613 4.576-8.159 5.822-13.783 3.81-17.19-.458-.776-1.33-1.536-2.363-2.13-.005.012-.006.025-.012.036l-3.424 7.951a.758.758 0 1 1-1.393-.6l3.423-7.951c.013-.029.032-.054.047-.081-1.332-.509-2.74-.696-3.795-.296l-.002-.001ZM372.993 323.185a.643.643 0 0 1-.018-.252l.355-2.695a15.85 15.85 0 0 0-2.857-.197.64.64 0 1 1-.028-1.279 17.155 17.155 0 0 1 3.399.266c.092-.033.191-.047.297-.033a.646.646 0 0 1 .346.163c.597.13 1.188.289 1.771.483a.641.641 0 0 1-.296 1.24.68.68 0 0 1-.108-.026c-.417-.14-.839-.259-1.265-.364l-.345 2.61a.571.571 0 0 1-.025.105c.069.004.137.005.205.01 4.432.276 8.179 2.183 11.139 5.668 1.899 2.237 3.071 5.366 3.582 9.565.493 4.054.038 7.278-1.393 9.856-1.316 2.372-3.359 3.968-5.176 5.001a10.41 10.41 0 0 1 1.476 3.224c.125.474.227 1.09-.1 1.637-.494.831-1.561.845-2.017.851a5.905 5.905 0 0 1-.973-.051c-.594-.088-1.259-.325-1.649-.943-.245-.388-.303-.802-.355-1.169-.014-.098-.027-.197-.045-.292a2.697 2.697 0 0 0-.665-1.326.613.613 0 0 1-.413-.056 19.199 19.199 0 0 1-7.412.357 17.747 17.747 0 0 1-4.599-1.33 17.016 17.016 0 0 1-2.01-1.069.633.633 0 0 1-.324.457 2.682 2.682 0 0 0-1.116 1.193 7.147 7.147 0 0 0-.121.269c-.144.334-.308.713-.624 1.014-.528.503-1.187.546-1.742.463-.36-.053-.673-.16-.879-.23-.367-.125-1.343-.457-1.539-1.403-.123-.596.129-1.145.364-1.556a10.523 10.523 0 0 1 2.509-2.971l.042-.028c-2.141-2.245-3.673-5.038-4.301-8.027-1.117-5.304.675-11.037 4.562-14.609 2.022-1.858 6.834-4.432 12.35-4.53l-.002.004Zm7.177 33.143c.023.115.038.233.055.35.037.261.071.508.169.663.232.367.938.406 1.525.398.536-.007.85-.083.936-.228.095-.157-.005-.535-.038-.66a9.135 9.135 0 0 0-1.385-2.952l-.19.092c-.583.269-1.178.505-1.783.712.354.481.602 1.036.711 1.625Zm-19.026-4.953a9.26 9.26 0 0 0-2.202 2.607c-.066.114-.263.463-.222.663.033.158.255.302.699.452.714.242 1.112.257 1.329.052.129-.123.228-.353.334-.595.045-.107.093-.215.143-.319a3.968 3.968 0 0 1 1.623-1.74 17.629 17.629 0 0 1-1.57-1.27.646.646 0 0 1-.133.15h-.001Zm-2.481-5.602.708-.45a.64.64 0 0 1 .685 1.079l-.759.481a16.171 16.171 0 0 0 2.794 3.356l.749-1.113a.638.638 0 1 1 1.06.714l-.827 1.229c1.003.78 2.1 1.447 3.272 1.971 1.029.46 2.108.807 3.217 1.044a3.929 3.929 0 0 0 .183-1.75.638.638 0 1 1 1.267-.159c.09.717.028 1.442-.177 2.129 2.126.289 4.325.187 6.45-.307l-.463-1.638a.64.64 0 0 1 1.23-.348l.467 1.653a17.516 17.516 0 0 0 2.184-.834 15.591 15.591 0 0 0 2.716-1.593l-1.022-.828a.638.638 0 1 1 .804-.993l1.137.921a.716.716 0 0 1 .084.081c.834-.751 1.611-1.654 2.211-2.736.749-1.351 1.199-2.917 1.357-4.727l-1.727.018a.638.638 0 1 1-.012-1.279l1.803-.019c.013-.96-.046-1.983-.179-3.073a26.05 26.05 0 0 0-.68-3.596l-1.403.546a.637.637 0 0 1-.827-.365.638.638 0 0 1 .365-.827l1.49-.58c-.561-1.624-1.301-2.974-2.231-4.07-.23-.27-.466-.527-.704-.776l-.949 1.409a.637.637 0 0 1-.887.173.639.639 0 0 1-.173-.887l.963-1.431a.63.63 0 0 1 .135-.142c-1.922-1.71-4.133-2.817-6.608-3.307l-.215 2.243a.64.64 0 0 1-.698.575l-.034-.005a.64.64 0 0 1-.541-.693l.223-2.312c-.25-.028-.502-.052-.755-.066-3.219-.199-6.29.593-8.704 1.645l.537.953a.639.639 0 1 1-1.113.627l-.582-1.033c-1.288.662-2.316 1.371-2.974 1.974-.145.133-.287.271-.424.411.07.049.131.111.18.19l.664 1.073a.64.64 0 0 1-1.088.673l-.611-.986c-1.552 1.902-2.581 4.238-2.994 6.698l1.874-.025a.641.641 0 0 1 .017 1.28l-1.951.025a.822.822 0 0 1-.099-.006 14.321 14.321 0 0 0 .254 4.074 14.716 14.716 0 0 0 1.331 3.71v-.001Z"/><path d="M372.369 337.069c.145-.052.292-.084.434-.097a.644.644 0 0 1-.065-.483c.417-1.577.627-3.205.624-4.837a.64.64 0 0 1 1.279-.003 20.026 20.026 0 0 1-.667 5.167.633.633 0 0 1-.25.358c.069.042.136.087.199.14l1.4 1.178a.64.64 0 0 1 .224.426c.027.265-.002.534-.076.794a.631.631 0 0 1 .18-.034 18.77 18.77 0 0 1 5.555.678.64.64 0 0 1-.342 1.233 17.552 17.552 0 0 0-5.178-.634.64.64 0 0 1-.622-.438 2.745 2.745 0 0 1-.166.194c-.476.501-1.117.773-1.757.743a1.72 1.72 0 0 1-.215-.021 2.325 2.325 0 0 1-1.469-.878c-.43-.542-.607-1.215-.487-1.847a2.206 2.206 0 0 1 1.398-1.643l.001.004Zm.091 2.696c.196.247.471.402.737.414.267.012.555-.117.773-.346.155-.164.259-.363.295-.561l-1.164-.98c-.07-.059-.172-.065-.303-.019a.946.946 0 0 0-.571.678c-.051.262.036.567.233.814ZM390.912 329.479a3.507 3.507 0 0 1-2.435.541 3.518 3.518 0 0 1-1.69-.748c-1.805-1.447-3.593-2.965-5.33-4.438-.615-.523-1.379-1.171-1.719-2.104-.319-.877-.182-1.834.388-2.691.708-1.071 1.98-1.803 3.237-1.868 1.719-.086 3.504.699 5.459 2.404 1.927 1.682 3.091 3.336 3.557 5.054l.018.067c.381 1.471-.202 2.956-1.483 3.785l-.002-.002Zm.245-3.464-.013-.051c-.398-1.469-1.432-2.916-3.163-4.427-1.377-1.2-2.619-1.878-3.774-2.051-.264-.039-.524-.053-.779-.039-.854.045-1.751.565-2.236 1.296-.24.362-.479.925-.252 1.549.224.614.82 1.12 1.351 1.572 1.723 1.462 3.505 2.974 5.296 4.41.931.748 1.97.558 2.631.13.646-.418 1.231-1.263.939-2.389ZM355.255 321.887c.903-1.516 2.412-2.772 4.613-3.839 2.246-1.088 4.082-1.335 5.613-.758 1.088.412 1.991 1.407 2.353 2.6.309 1.016.176 2.002-.376 2.779-.567.798-1.438 1.205-2.138 1.533-1.963.917-3.994 1.866-6.018 2.743a3.221 3.221 0 0 1-1.764.245c-.718-.107-1.392-.471-1.925-1.071-1.036-1.166-1.191-2.805-.393-4.177l.032-.055h.003Zm1.315 3.383c.59.662 1.42.851 2.224.503 2.008-.87 4.03-1.815 5.985-2.729.593-.277 1.264-.592 1.637-1.114.428-.602.307-1.301.195-1.665-.246-.809-.867-1.506-1.582-1.777a3.275 3.275 0 0 0-.691-.178c-1.064-.16-2.353.135-3.911.891-1.997.967-3.291 2.031-4.072 3.342l-.027.045a2.265 2.265 0 0 0 .244 2.684l-.002-.002ZM342.133 441.929c.37-.289.832-.466 1.301-.494a2.37 2.37 0 0 1 1.268.293c-.59 2.546.722 5.47 3.113 6.672.811.408 1.714.6 2.624.6 1.968 0 3.968-.902 5.145-2.497 1.073-1.454 1.44-3.322 1.019-5.009a8.628 8.628 0 0 0 1.376-5.295c-.142-2.023-.993-3.802-2.402-5.038a1.464 1.464 0 0 0-1.19-1.145 1.46 1.46 0 0 0-1.588.988.54.54 0 0 0 1.029.318.39.39 0 0 1 .395-.246.39.39 0 0 1 .303.353c0 .161.071.314.196.416 1.281 1.05 2.055 2.623 2.183 4.428a7.557 7.557 0 0 1-.801 3.936c-.863-1.581-2.456-2.59-4.094-2.548-2.633-.874-5.774.521-6.955 3.043a3.497 3.497 0 0 0-1.684-.34c-.538.032-1.07.2-1.536.475-.738-1.901-2.471-3.18-4.286-3.18h-.101c-2.116-.702-4.561.062-6.053 1.699a11.566 11.566 0 0 1 4.141-7.548.536.536 0 0 0 .11-.123.279.279 0 0 1 .291-.1.278.278 0 0 1 .165.257.54.54 0 0 0 1.072.102 1.35 1.35 0 0 0-.883-1.371 1.364 1.364 0 0 0-1.493.452 12.637 12.637 0 0 0-4.552 10.213c0 .024.005.046.009.068-.845 2.636.476 5.824 2.999 7.091.81.407 1.713.6 2.624.6 1.967 0 3.967-.902 5.144-2.498a6.079 6.079 0 0 0 1.111-4.574v.002Zm8.25-3.453c.466 0 .928.074 1.367.23a.56.56 0 0 0 .212.031c1.418-.08 2.869.988 3.45 2.535.025.065.046.133.067.2a.52.52 0 0 0 .052.178c.38 1.395.078 3.009-.814 4.217-1.424 1.93-4.301 2.636-6.416 1.575-2.144-1.078-3.233-3.844-2.375-6.041.684-1.753 2.596-2.926 4.457-2.926v.001Zm-10.229 7.393c-1.424 1.929-4.301 2.635-6.416 1.574-2.144-1.078-3.233-3.844-2.376-6.041.685-1.753 2.597-2.926 4.458-2.926.465 0 .928.074 1.367.23a.558.558 0 0 0 .211.031c1.417-.079 2.87.988 3.45 2.535.552 1.472.28 3.276-.694 4.597ZM31.505 309.092c.684.572 1.245.787 1.711.658a72.198 72.198 0 0 0 5.322-1.232 24.571 24.571 0 0 1 1.012 4.095.656.656 0 0 0 1.216.226 11.622 11.622 0 0 1 2.512-3.014c1.173.515 2.387.961 3.612 1.33a.655.655 0 0 0 .786-.893 31.327 31.327 0 0 1-1.506-4.153c6.01-2.161 11.593-4.771 16.177-7.567l.016-.01a.656.656 0 0 0 .276-.719c-.316-1.183-7.787-29.044-12.176-36.311-.642-1.254-1.96-1.989-4.542-2.529-.03-.007-.06-.007-.089-.009a.658.658 0 0 0-.364-.023c-8.825 1.992-17.557 5.145-25.95 9.369a4.107 4.107 0 0 0-2.076 4.927c2.568 8.13 6.18 19.078 11.366 31.673a.643.643 0 0 0 .197.26c.077 1.353 1.608 3.177 2.505 3.927l-.005-.005Zm1.422-.622c-.668-.165-2.414-2.24-2.605-3.21.63-.039 1.256-.087 1.879-.147a12.504 12.504 0 0 0 2.122 3.077c-.47.1-.933.193-1.386.279-.002.002-.007.001-.012.002l.002-.001Zm12.991.989a29.894 29.894 0 0 1-2.474-.996.654.654 0 0 0-.678.084 12.798 12.798 0 0 0-2.223 2.264 27.471 27.471 0 0 0-1.5-4.662c1.43-.422 4.097-1.102 5.428-1.383.364 1.597.85 3.168 1.448 4.692l-.001.001Zm3.382-47.346.026.045c3.986 6.569 10.891 31.734 11.916 35.516-4.4 2.639-9.705 5.102-15.41 7.16-.076-.32-.149-.64-.217-.962a.654.654 0 0 0-.735-.515c-1.079.155-5.686 1.329-6.945 1.768a.656.656 0 0 0-.384.885c.19.428.364.85.53 1.273-.767.205-1.52.395-2.256.568-.018-.022-.034-.044-.056-.064a11.184 11.184 0 0 1-2.174-2.821c8.44-.978 16.319-3.663 24.49-8.317l.032-.021a.654.654 0 0 0 .272-.733c-4.005-13.741-7.846-25.336-11.725-35.398 1.469.405 2.277.907 2.632 1.615l.004.001Zm-30.612 10.724a2.8 2.8 0 0 1 1.414-3.359c8.124-4.089 16.567-7.161 25.1-9.135 3.901 10.05 7.761 21.651 11.787 35.422-9.003 5.055-17.657 7.671-27.15 8.212-5.073-12.369-8.62-23.127-11.152-31.139l.001-.001Z"/><path d="M26.132 282.95c6.447-.938 12.836-3.122 18.988-6.494l.043-.026a.652.652 0 0 0 .292-.635 24.03 24.03 0 0 0-3.337-9.365.657.657 0 0 0-.695-.298c-6.257 1.335-12.647 3.462-18.992 6.321a.659.659 0 0 0-.375.717c.647 3.505 1.796 6.689 3.415 9.462a.654.654 0 0 0 .66.318Zm-2.691-9.514c5.95-2.644 11.933-4.637 17.798-5.923a22.762 22.762 0 0 1 2.852 8.01c-5.75 3.098-11.702 5.136-17.707 6.064-1.352-2.417-2.34-5.154-2.94-8.15l-.003-.001ZM48.363 283.127l-17.816 6.328a.655.655 0 1 0 .437 1.234l17.816-6.327a.656.656 0 0 0-.439-1.236l.002.001ZM50.785 287.31l-19.377 7.289a.654.654 0 0 0-.382.845c.127.339.505.51.845.381l19.377-7.289a.657.657 0 0 0 .383-.843.653.653 0 0 0-.845-.382v-.001ZM244.628 190.581c6.05-3.544 11.984-6.62 18.265-9.874l.616-.319c2.762-1.432 5.955-1.949 8.989-1.46 3.033.49 5.867 1.05 8.61 1.589 2.844.561 5.785 1.14 8.941 1.642 1.071.17 1.882.865 2.119 1.815.233.933-.147 1.908-.989 2.545l-.168.127c-.933.704-1.844 1.391-2.745 2.067l1.725 11.442c.172 1.138.385 2.552-.241 3.926-.881 1.928-3.216 3.288-4.921 4.281l-.235.136c.468.215.888.533 1.216.936.637.779.898 1.834.698 2.821-.047.233-.116.447-.182.653-.073.228-.143.444-.165.645-.1.846.554 1.693 1.235 2.488a.663.663 0 0 1 .119.663.663.663 0 0 1-.487.423l-.03.007c-2.073.339-4.286-.764-5.265-2.621-.708-1.343-.723-2.993-.129-4.38-.352.185-.72.378-1.107.578a29.627 29.627 0 0 1-7.473 2.666 29.58 29.58 0 0 1-9.605.457c-.915-.108-1.826-.224-2.737-.34-1.863-.236-4.413-.56-5.936-1.984-1.077-1.007-1.451-2.384-1.753-3.489l-3.101-11.398a.63.63 0 0 1-.01-.292l-4.713-1.257c-1.019-.272-1.733-1.033-1.861-1.99-.133-.985.373-1.942 1.324-2.5l-.004-.003Zm38.283 23.307c.51.969 1.519 1.671 2.606 1.894-.464-.711-.785-1.503-.68-2.386.038-.328.135-.63.22-.895.058-.181.112-.35.145-.51a2.114 2.114 0 0 0-.424-1.713 2.118 2.118 0 0 0-1.225-.721.733.733 0 0 1-.044.051c-1.049 1.098-1.307 2.939-.6 4.282l.002-.002Zm5.627-10.361c.461-1.013.296-2.112.137-3.174l-1.62-10.736c-2.223 1.653-4.398 3.227-6.655 4.746.553 2.977 2.224 9.999 3.112 13.216.232-.131.448-.255.648-.371 1.551-.903 3.675-2.138 4.378-3.681Zm-34.26 4.139c.283 1.041.576 2.116 1.378 2.866 1.208 1.13 3.511 1.422 5.193 1.635.908.114 1.815.231 2.726.338 5.536.658 11.328-.4 16.307-2.982.907-.47 1.718-.899 2.43-1.283-.835-2.959-2.447-9.681-3.116-13.079a101.896 101.896 0 0 1-5.229 3.212 14.707 14.707 0 0 1-4.25 1.621 14.278 14.278 0 0 1-6.623-.145l-11.796-3.145 2.983 10.962h-.003Zm-8.768-13.885 17.925 4.78c3.262.87 6.858.38 9.867-1.344a103.524 103.524 0 0 0 5.397-3.324c-3.357-1.898-6.784-3.622-10.104-5.293l-.003.001a.669.669 0 0 1 .601-1.193c3.523 1.773 7.168 3.606 10.737 5.649a.018.018 0 0 1 .008.007c3.441-2.33 6.704-4.793 10.268-7.484l.167-.127c.416-.313.602-.747.5-1.158-.108-.427-.494-.734-1.034-.819-3.179-.505-6.134-1.088-8.99-1.65-2.731-.539-5.556-1.094-8.565-1.582-2.754-.445-5.654.026-8.163 1.328l-.617.319c-6.265 3.246-12.184 6.313-18.204 9.841-.485.284-.738.721-.677 1.17.057.419.386.748.883.88l.004-.001ZM108.63 239.336a2.672 2.672 0 0 1-1.509 1.701c-1.091.448-2.302.226-3.22.037l-.133-.027-44.204-9.18c-1.116-.231-2.503-.52-3.545-1.405-1.103-.936-1.685-2.722-.7-3.976a.621.621 0 0 1 .28-.201c1.275-1.954 5.826-8.889 7.938-11.725l4.614-22.387a3.82 3.82 0 0 1 4.508-2.967l35.041 7.223a3.82 3.82 0 0 1 2.967 4.507l-4.654 22.58c.379 1.712.708 3.729 1.054 5.864.495 3.042 1.006 6.189 1.678 8.407a.63.63 0 0 1-.089.546c.075.315.069.657-.026 1.003Zm-51.794-9.835c.797.676 1.96.917 2.986 1.131l44.204 9.179c1 .205 1.889.357 2.616.058a1.38 1.38 0 0 0 .771-.868c.056-.204.039-.379-.045-.522a737.462 737.462 0 0 1-25.212-4.741 750.093 750.093 0 0 1-26.067-5.869c-.043.575.28 1.235.747 1.632Zm22.12-2.771a26.429 26.429 0 0 1-2.361 4.546c4.132.886 8.273 1.738 12.418 2.553l-1.278-5.297a391.478 391.478 0 0 0-8.78-1.8v-.002Zm30.473-26.049a2.555 2.555 0 0 0-1.985-3.016l-35.041-7.223a2.556 2.556 0 0 0-3.017 1.985l-4.558 22.115 40.043 8.254 4.558-22.115Zm-3.609 28.902c-.324-1.995-.634-3.888-.978-5.504l-40.587-8.366c-2.111 2.899-6.073 8.926-7.45 11.033a738.77 738.77 0 0 0 18.464 4.246 25.257 25.257 0 0 0 2.423-4.505 392.864 392.864 0 0 0-12.189-2.117l-.03-.006a.63.63 0 0 1 .226-1.242 393.094 393.094 0 0 1 32.624 6.56.63.63 0 0 1-.301 1.225 397.115 397.115 0 0 0-8.914-2.078l1.27 5.263a729.6 729.6 0 0 0 16.888 3.085c-.564-2.181-1.011-4.93-1.445-7.598l-.001.004Z"/><path d="m71.61 191.727 35.187 7.253a1.512 1.512 0 0 1 1.175 1.784l-3.742 18.153a1.512 1.512 0 0 1-1.784 1.174l-35.187-7.253a.632.632 0 0 1-.491-.746l4.097-19.876a.631.631 0 0 1 .746-.49v.001Zm-3.479 20.004 34.569 7.125a.247.247 0 0 0 .293-.192l3.742-18.153a.247.247 0 0 0-.193-.293l-34.569-7.126-3.842 18.64v-.001ZM23.264 32.448l-4.504 2.353.872-4.997L16 26.259l5.027-.726L23.264 21l2.237 4.533 4.998.726-3.603 3.545.842 4.997-4.474-2.353ZM23.264 442.448l-4.504 2.353.872-4.997L16 436.259l5.027-.726L23.264 431l2.237 4.533 4.998.726-3.603 3.545.842 4.997-4.474-2.353ZM434.487 229.375c-4.227-1.103-8.23-2.115-12.102-3.095-6.154-1.555-11.967-3.026-18.49-4.806-.04-.013-.08-.023-.121-.036a3.734 3.734 0 0 1-2.578-2.785 3.742 3.742 0 0 1 1.221-3.716c1.834-1.587 3.679-3.152 5.461-4.665 2.487-2.109 4.88-4.142 7.233-6.214l-.023-.036c.055-.036.114-.065.172-.097a201.888 201.888 0 0 0 3.18-2.858c1.335-3.677 2.901-9.736 3.893-14.048l-.048-.015a2.036 2.036 0 0 1 1.194-3.891l12.678 3.892a2.038 2.038 0 0 1 1.349 2.543 2.042 2.042 0 0 1-1.938 1.438 387.377 387.377 0 0 0-.97 3.68c-.838 3.211-1.876 7.192-2.893 10.533.726 1.962 1.381 3.797 2.017 5.573 1.589 4.445 3.09 8.643 5.194 13.383a3.778 3.778 0 0 1-.576 4.007 3.765 3.765 0 0 1-3.85 1.213h-.003Zm1.315-41.216-12.679-3.892a.83.83 0 0 0-1.036.549.83.83 0 0 0 .55 1.036l12.678 3.892a.83.83 0 0 0 .487-1.585Zm-5.301 17.267-.07-.191.06-.195c1.029-3.354 2.088-7.415 2.939-10.679.357-1.368.678-2.597.96-3.641l-10.902-3.347c-1.014 4.397-2.611 10.556-3.967 14.246l-.05.137-.107.099a182.57 182.57 0 0 1-1.859 1.687c.788.11 1.541.461 2.094 1.034.423.437.703.946.977 1.438.097.176.189.341.287.503.395.657.797 1.028 1.228 1.141.635.166 1.376-.231 2.094-.613l.128-.069c1.348-.718 2.452-.811 3.281-.28.526.339.816.857 1.073 1.315.117.21.227.407.35.576.33.445.873.746 1.49.824a2.28 2.28 0 0 0 1.363-.235 407.882 407.882 0 0 0-1.366-3.749l-.003-.001Zm7.31 19.218c-2.123-4.78-3.631-9-5.227-13.466l-.308-.861c-.58.27-1.249.377-1.924.29-.943-.121-1.782-.597-2.306-1.305a6.476 6.476 0 0 1-.435-.704c-.213-.382-.398-.713-.67-.887-.435-.278-1.128-.168-2.062.33l-.127.067c-.835.446-1.873 1.001-2.966.718-.034-.009-.067-.017-.101-.028-.707-.217-1.315-.76-1.855-1.657a16.077 16.077 0 0 1-.309-.542c-.245-.443-.477-.862-.789-1.185-.7-.724-1.877-.916-2.784-.487-2.374 2.091-4.785 4.139-7.291 6.266-1.78 1.511-3.623 3.074-5.453 4.658a2.553 2.553 0 0 0-.833 2.537 2.557 2.557 0 0 0 1.841 1.923c6.512 1.779 12.32 3.247 18.468 4.802 3.874.98 7.88 1.993 12.112 3.098a2.536 2.536 0 0 0 2.627-.827 2.543 2.543 0 0 0 .392-2.737v-.003Z"/><path d="M414.976 213.949a2.566 2.566 0 0 1-1.697-3.202 2.566 2.566 0 0 1 3.202-1.698 2.566 2.566 0 0 1 1.697 3.202 2.565 2.565 0 0 1-3.202 1.698Zm1.15-3.746a1.358 1.358 0 1 0 .899 1.696 1.358 1.358 0 0 0-.899-1.696ZM427.36 219.799a1.969 1.969 0 0 1 1.155-3.763 1.967 1.967 0 0 1-1.155 3.763Zm.801-2.61a.763.763 0 0 0-.447 1.458.763.763 0 0 0 .447-1.458ZM424.348 201.121a1.97 1.97 0 0 1-1.304-2.458 1.972 1.972 0 0 1 2.459-1.305 1.97 1.97 0 0 1-1.155 3.763Zm.801-2.61a.762.762 0 1 0-.446 1.458.762.762 0 0 0 .446-1.458ZM430.5 195.127a1.968 1.968 0 1 1 1.158-3.762 1.968 1.968 0 0 1-1.158 3.762Zm.801-2.61a.764.764 0 0 0-.447 1.458.765.765 0 0 0 .953-.504.766.766 0 0 0-.506-.954ZM417.284 403.943c-4.886 2.875-8.433 7.616-9.73 13.006-1.207 5.012-.426 10.174 2.195 14.537a19.224 19.224 0 0 0 1.422 2.048c3.832 4.831 9.714 7.466 15.79 7.466 3.648 0 7.369-.95 10.755-2.944 4.886-2.875 8.433-7.616 9.73-13.006 1.207-5.012.426-10.174-2.195-14.537-5.64-9.379-18.186-12.326-27.967-6.57Zm29.453 15.063a.573.573 0 0 0-.606.031l-4.957 3.42c-1.03-.199-2.376-.595-3.824-1.127a.58.58 0 0 0-.503.055 72.34 72.34 0 0 0-1.107-3.234 70.043 70.043 0 0 1-1.116-3.262c1.435-1.421 2.92-2.89 4.039-4.334a.653.653 0 0 0 .135-.39l4.682.159h.019a.536.536 0 0 0 .156-.024 17.858 17.858 0 0 1 3.082 8.706Zm-15.369 8.825c-1.079-.276-2.366-.511-3.614-.739-1.441-.263-2.928-.536-4.115-.869-.007-.012-.017-.023-.026-.034l-.25-.679c-.868-2.358-1.365-3.704-2.194-6.364a176.131 176.131 0 0 0 3.601-3.644c.637-.657 1.294-1.335 1.954-2.005.361.064.721.123 1.072.18 1.922.314 3.743.612 5.642 1.495.358 1.181.772 2.324 1.172 3.433.392 1.082.796 2.197 1.141 3.334-.822 1.221-1.549 2.144-2.254 3.04-.669.849-1.357 1.724-2.13 2.854l.001-.002Zm11.33-18.806-4.214-.143a.7.7 0 0 0-.081.006l-1.556-4.538a18.245 18.245 0 0 1 5.849 4.675h.002Zm-14.647-6.76c2.548 0 5.058.493 7.377 1.438a.673.673 0 0 0 .025.317l2.059 6.005c-1.043 1.292-2.394 2.631-3.704 3.928-2.008-.908-3.946-1.226-5.825-1.534-.373-.06-.756-.126-1.138-.192a34.252 34.252 0 0 0-1.844-5.347l2.76-4.339a.627.627 0 0 0 .094-.274c.065 0 .131-.004.196-.004v.002Zm-3.959 3.762c-1.531-.78-2.964-1.401-4.607-1.827a20.012 20.012 0 0 1 6.957-1.867l-2.348 3.694h-.002Zm-6.22-.975c.047-.028.094-.053.141-.08a.601.601 0 0 0 .387.275c2 .419 3.644 1.133 5.467 2.076.785 1.768 1.35 3.413 1.862 5.421-.61.62-1.215 1.244-1.801 1.85a178.408 178.408 0 0 1-3.675 3.714 69.55 69.55 0 0 0-6.71-.237c-1.06-1.859-1.986-3.663-2.883-5.409a.602.602 0 0 0-.103-.142c1.675-3.048 4.173-5.62 7.315-7.468Zm-7.977 8.792a129.496 129.496 0 0 0 2.45 4.595l-4.132 2.709c.031-1.294.2-2.594.51-3.884a19.167 19.167 0 0 1 1.172-3.418v-.002Zm-1.66 8.738a.572.572 0 0 0 .19-.08l4.818-3.158c2.256-.04 4.537.034 6.788.219.835 2.677 1.335 4.034 2.208 6.406l.239.649c-.93 2.217-2.5 4.084-4.356 5.172-.848.079-2.056.21-3.226.339-1.078.118-2.188.238-3.013.317a17.856 17.856 0 0 1-3.65-9.864h.002Zm4.629 11.042c.667-.07 1.42-.152 2.157-.232 1.003-.11 2.034-.222 2.836-.301l-.111 4.346a18.266 18.266 0 0 1-4.882-3.813Zm14.085 6.109c-2.814 0-5.584-.6-8.099-1.748a.654.654 0 0 0 .096-.324l.129-4.987c1.848-1.187 3.367-2.999 4.357-5.196 1.22.335 2.689.606 4.116.866 1.383.252 2.813.514 3.917.824a.571.571 0 0 0 .141.02 89.913 89.913 0 0 1 1.182 3.999 90.093 90.093 0 0 1-2.221 5.749.662.662 0 0 0-.019.467c-1.197.22-2.402.33-3.599.33Zm10.179-2.787a20.158 20.158 0 0 1-5.325 2.182 90.386 90.386 0 0 0 1.947-5.025 16.754 16.754 0 0 0 4.879 1.868c-.482.342-.982.668-1.5.973l-.001.002Zm2.503-1.733a.613.613 0 0 0-.462-.424 15.569 15.569 0 0 1-5.245-2.044c-.412-1.54-.836-2.886-1.244-4.189l-.384.13-.034.013.032-.011.383-.135-.413.144c.783-1.154 1.485-2.046 2.163-2.909.754-.958 1.533-1.951 2.435-3.305a.55.55 0 0 0 .091.045c.998.367 2.394.833 3.688 1.111.02.101.063.198.132.282a26.728 26.728 0 0 1 3.412 5.272c.06.124.154.215.263.274a19.375 19.375 0 0 1-4.819 5.746h.002Zm6.647-10.476a19.14 19.14 0 0 1-1.21 3.502 28.039 28.039 0 0 0-3.107-4.808l4.831-3.331a18.51 18.51 0 0 1-.512 4.637h-.002ZM420.666 337.129a.637.637 0 0 1 .439.128 512.304 512.304 0 0 1 18.819 14.982c.129.108.183.248.14.362-.043.114-.176.182-.343.174-.811-.036-1.937-.045-3.129-.055-2.038-.016-4.345-.035-5.907-.194-.356.58-.519 1.193-.688 1.839-.181.695-.37 1.414-.82 2.091a.214.214 0 0 1-.06.06c-.026.088-.104.158-.227.181a.6.6 0 0 1-.396-.07.549.549 0 0 1-.207-.186c-.35-.559-.676-1.093-1.023-1.659-.376-.613-.765-1.248-1.214-1.968-2.329.181-6.729-.075-8.226-.222a.654.654 0 0 1-.375-.169c-.098-.093-.144-.205-.124-.304.508-2.538 1.044-5.075 1.562-7.529.503-2.387 1.025-4.855 1.505-7.257.023-.112.126-.19.273-.207l.001.003Zm7.392 17.506.569.926c.228-.474.358-.97.493-1.487.181-.695.369-1.414.819-2.091.004-.005.009-.008.012-.014a112.552 112.552 0 0 1-5.584-7.419c.322 1.074.623 2.015.918 2.936.468 1.462.952 2.973 1.496 4.96a.24.24 0 0 1-.001.138c.021.023.04.046.055.071.453.725.843 1.362 1.221 1.978l.002.002Zm-8.288-9.772c-.489 2.318-.994 4.709-1.476 7.104 2.023.164 5.649.323 7.537.16-.508-1.827-.947-3.198-1.41-4.646-.484-1.51-.984-3.07-1.565-5.188-.046-.169.071-.307.277-.325a.627.627 0 0 1 .546.251c2.457 3.682 4.529 6.494 7.113 9.649 1.504.133 3.663.15 5.581.166.819.007 1.607.013 2.29.029a510.598 510.598 0 0 0-17.495-13.927 803.762 803.762 0 0 1-1.399 6.726l.001.001ZM435.82 360.207c.99-.336 2.281-.157 3.211.441.624.401 1.082.983 1.257 1.596a2.176 2.176 0 0 1-.143 1.547c-.487 1.019-1.699 1.657-3.085 1.623-.802-.019-1.564-.241-2.174-.491.1.269.23.534.39.793.75 1.213 2.206 2.266 3.712 2.681 1.588.437 3.203.155 3.928-.688.118-.137.388-.144.605-.014.216.129.296.347.178.484-.894 1.038-2.871 1.39-4.808.857a7.937 7.937 0 0 1-1.654-.668c-1.148-.619-2.137-1.504-2.752-2.501a5.04 5.04 0 0 1-.615-1.444 12.71 12.71 0 0 1-1.853-1.327c-1.123-.946-1.934-1.84-2.481-2.73-.662-1.078-.912-2.161-.704-3.05.039-.173.27-.25.512-.172.243.077.408.28.367.452-.176.755.042 1.686.616 2.62.494.805 1.239 1.622 2.275 2.495.405.342.782.629 1.145.873a3.833 3.833 0 0 1 .344-1.784c.361-.783.958-1.335 1.728-1.595l.001.002Zm-.877 1.959a3.442 3.442 0 0 0-.266 1.963c.543.27 1.343.58 2.182.601 1.087.026 2.044-.488 2.436-1.309.19-.397.232-.813.121-1.202-.119-.42-.436-.829-.847-1.094a1.786 1.786 0 0 0-.143-.083c-.611-.33-1.444-.412-2.086-.196-.774.262-1.186.863-1.398 1.32h.001ZM14.736 174.289c.147.034.296.063.446.084 2.167.328 4.466-.543 5.858-2.219 1.234-1.486 1.67-3.329 2.056-4.954.79-3.333 1.404-5.968 1.899-8.085.948-4.058 1.423-6.096 1.755-7.164.268-.859.374-.939.635-1.082.323-.094 1.936-.169 3.498-.242 2.897-.135 6.78-.316 9.851-.811-.205 1.506-.443 3.321-.674 5.084-.245 1.856-.495 3.768-.707 5.316-5.087-.3-7.604 2.008-8.825 4.037-1.503 2.495-1.59 5.546-.986 6.469.663 1.014 2.105 1.734 3.857 1.925 2.929.318 6.006-.77 8.03-2.836 1.617-1.652 2.537-10.6 3.489-21.249.117-1.302.227-2.533.325-3.553a.568.568 0 0 0-.629-.616c-6.38.761-13.425 1.097-20.938.998a.564.564 0 0 0-.566.487c-.108.778-.196 1.572-.283 2.339-.175 1.563-.356 3.181-.706 4.804-.592 2.748-1.203 5.585-1.82 8.108-2.286.609-4.624 1.26-6.59 2.437-2.398 1.437-3.731 3.463-3.661 5.561.079 2.341 2.14 4.571 4.688 5.159l-.002.003Zm-.445-9.752c1.922-1.151 4.311-1.787 6.622-2.4a.564.564 0 0 0 .404-.411c.649-2.621 1.29-5.592 1.909-8.465.362-1.679.547-3.325.725-4.918.067-.597.135-1.211.213-1.817 7.103.076 13.79-.238 19.89-.931-.082.868-.168 1.844-.26 2.865-.344 3.851-.772 8.644-1.316 12.692-.81 6.024-1.51 7.514-1.854 7.866-1.787 1.826-4.507 2.783-7.1 2.503-1.095-.118-2.469-.553-3.033-1.419-.28-.429-.368-2.98 1.009-5.268 1.096-1.822 3.427-3.901 8.293-3.454.3.027.57-.186.611-.485.224-1.63.507-3.775.78-5.849.271-2.073.554-4.218.777-5.844a.564.564 0 0 0-.665-.631c-3.09.582-7.35.781-10.464.926-2.918.136-3.634.186-3.961.365-.67.365-1.661 3.363-2.976 8.994-.495 2.116-1.11 4.75-1.898 8.08-.375 1.578-.761 3.211-1.827 4.494-.868 1.046-2.651 2.152-4.82 1.824-2.425-.366-4.114-2.45-4.172-4.165-.057-1.675 1.078-3.334 3.112-4.553v.001ZM32.684 204.668c-1.713-1.21-3.672-1.696-5.52-1.37-3.363-.167-6.736 1.532-8.603 4.335-1.875 2.815-2.137 6.602-.668 9.647.934 1.937 2.538 3.511 4.448 4.474a.35.35 0 0 0 .243.12 9.588 9.588 0 0 0 3.257.888l.018.001c2.447.207 4.977-.55 6.943-2.076 3.267-2.536 4.714-7.232 3.442-11.167a9.572 9.572 0 0 0-3.56-4.852Zm-14.156 12.305c-1.363-2.825-1.119-6.338.62-8.949.982-1.473 2.412-2.617 4.035-3.304.525.4 1.593 1.214 1.942 1.816.283.49.413 1.245.028 1.743-.068.088-.156.177-.25.272-.26.264-.585.592-.57 1.07.012.35.203.606.37.832.092.122.179.238.22.348.128.346-.181.778-.538.951-.398.191-.87.205-1.37.219l-.174.005c-.57.019-1.231.076-1.83.346-.685.309-1.175.871-1.31 1.501-.166.781.271 1.595.977 1.813.16.05.326.068.471.083.199.022.37.04.457.123.116.11.09.305.011.694-.062.301-.132.642-.05.977.12.482.496.764.828 1.014.194.145.377.283.495.444.203.279.244.703.11 1.134-.104.332-.292.643-.496.943-1.706-.899-3.134-2.328-3.976-4.073v-.002Zm7.39 5.086-.017-.001a8.869 8.869 0 0 1-2.753-.703c.209-.315.408-.659.527-1.042.201-.643.121-1.301-.213-1.76-.18-.246-.414-.422-.642-.592-.272-.204-.507-.381-.565-.619-.045-.18.006-.427.055-.665.088-.426.196-.956-.215-1.347-.26-.248-.598-.284-.868-.314-.125-.014-.243-.026-.34-.056-.352-.109-.583-.572-.494-.99.089-.412.428-.787.91-1.005.485-.219 1.038-.266 1.563-.284l.172-.005c.552-.016 1.123-.033 1.656-.288.656-.317 1.17-1.089.893-1.834-.077-.206-.203-.375-.315-.524-.122-.163-.226-.304-.23-.433-.006-.162.134-.316.366-.55.104-.105.211-.214.307-.336.588-.762.436-1.819.023-2.53-.32-.552-1.016-1.16-1.773-1.751a8.893 8.893 0 0 1 3.205-.425.456.456 0 0 0 .083-.005 5.743 5.743 0 0 1 1.526-.069c.476.042.95.14 1.416.288-.503.491-.761 1.377-.66 2.037l.03.195c.09.547.181 1.111-.084 1.479-.17.238-.48.379-.835.527-.375.156-.84.349-1.143.744-.201.263-.293.611-.246.933a.947.947 0 0 0 .374.639c.394.285.86.186 1.237.107l.07-.016c.274-.057.517-.025.568.072.02.039.029.115.037.195.012.107.024.228.072.354a.894.894 0 0 0 .561.543c.462.163 1.05.007 1.429-.219l.141-.085c.392-.239.797-.486 1.088-.348.132.063.186.195.207.295a.832.832 0 0 1-.163.672c-.304.359-.822.507-1.37.64-.597.144-1.275.307-1.754.806-.31.322-.47.799-.418 1.245.043.359.22.655.5.835.202.129.433.185.637.235.252.06.406.104.447.198.04.091-.056.272-.215.404-.07.058-.15.112-.235.171-.184.126-.393.27-.55.485a1.336 1.336 0 0 0-.226 1.007c.074.464.349.906.736 1.183.594.426 1.334.512 1.946.572l-.006.005c-1.827 1.418-4.178 2.122-6.45 1.93h-.002Zm6.918-2.323a.35.35 0 0 0-.316-.307c-.57-.055-1.216-.117-1.68-.451a1.157 1.157 0 0 1-.45-.72.631.631 0 0 1 .096-.478c.087-.119.23-.217.381-.322.094-.064.19-.131.284-.208.322-.266.624-.747.413-1.231-.183-.421-.596-.521-.927-.601-.164-.041-.32-.078-.422-.144-.127-.081-.168-.22-.18-.323a.873.873 0 0 1 .225-.672c.336-.35.883-.481 1.411-.609.64-.155 1.3-.349 1.742-.87.286-.337.41-.839.315-1.277-.078-.36-.289-.638-.595-.784-.637-.301-1.26.078-1.76.383l-.135.082c-.271.162-.63.231-.833.159-.088-.031-.116-.079-.132-.123a.844.844 0 0 1-.032-.183c-.014-.128-.03-.286-.11-.443-.21-.406-.71-.571-1.34-.439l-.074.015c-.263.056-.535.114-.675.012-.049-.034-.079-.092-.09-.168a.556.556 0 0 1 .108-.401c.188-.245.527-.386.854-.521.352-.147.835-.348 1.137-.767.437-.606.315-1.349.209-2.005l-.03-.189c-.081-.525.203-1.362.639-1.554a.368.368 0 0 0 .106-.074c2.05.926 3.823 2.83 4.595 5.218 1.12 3.467-.03 7.569-2.736 9.999l.002-.004Z"/><path d="M35.498 229.466a2.285 2.285 0 0 0-2.274-2.134 75.067 75.067 0 0 0-4.474.139 20.43 20.43 0 0 1-.029-1.384c.005-.566.008-.908-.193-2.123a.354.354 0 0 0-.598-.192c-.772.112-1.552.132-2.326.065-3.033-.263-5.954-1.844-7.744-4.325-2.281-3.161-2.6-7.606-.79-11.059 1.81-3.453 5.643-5.723 9.541-5.647a.353.353 0 0 0 .014-.706c-4.159-.081-8.25 2.341-10.18 6.026-1.93 3.685-1.592 8.427.843 11.8 1.91 2.647 5.026 4.334 8.263 4.614.78.067 1.568.053 2.347-.049.125.825.122 1.115.118 1.59-.002.327-.005.733.03 1.437a69.612 69.612 0 0 0-3.83.376 2.265 2.265 0 0 0-1.64 1.053 2.234 2.234 0 0 0-.223 1.912l.01.028a.354.354 0 0 0 .358.238c4.121-.278 8.381-.567 12.487-.952a.356.356 0 0 0 .318-.387 9.85 9.85 0 0 1-.026-.32h-.002Zm-12.537.935a1.561 1.561 0 0 1 1.34-1.806 71.488 71.488 0 0 1 8.923-.557 1.578 1.578 0 0 1 1.568 1.463c-3.894.36-7.923.635-11.832.9h.001Z"/></g><path fill="#fff" d="m230.904 457.906 9.704-84.588 75.997 37.351 28.378 11.219c32.447 12.831 65.024-18.252 53.733-51.264l-6.127-17.923-146.83-65.694-74.702-18.028-61.966 25.52a53.446 53.446 0 0 0-31.777 37.551l-16.147 70.739a46.407 46.407 0 0 0 7.891 37.881c13.513 18.335 38.327 24.168 58.591 13.76l12.501-6.421"/><path stroke="#20380E" stroke-linecap="round" stroke-linejoin="round" stroke-width="2.95" d="m230.904 457.906 9.704-84.588 75.997 37.351 28.378 11.219c32.447 12.831 65.024-18.252 53.733-51.264l-6.127-17.923-146.83-65.694-74.702-18.028-61.966 25.52a53.446 53.446 0 0 0-31.777 37.551l-16.147 70.739a46.407 46.407 0 0 0 7.891 37.881c13.513 18.335 38.327 24.168 58.591 13.76l12.501-6.421"/><path fill="#fff" stroke="#20380E" stroke-linecap="round" stroke-linejoin="round" stroke-width="2.95" d="M180.394 314.422h-.105c12.325 0 22.309-9.984 22.309-22.309v-81.077c0-12.325-9.984-22.31-22.309-22.31h.105c-12.325 0-22.309 9.985-22.309 22.31v81.077c0 12.325 9.984 22.309 22.309 22.309Z"/><path fill="#fff" d="M209.137 312.808c6.774-21.569 23.38-38.88 44.655-46.477a71.98 71.98 0 0 1 20.934-4.128l-.835-29.06c-10.667.423-19.676 2.175-29.86 5.809a125.437 125.437 0 0 0-5.104 1.976c-27.014 11.149-46.431 31.553-56.145 59.026a102.947 102.947 0 0 0-1.54 4.669l27.907 8.185h-.012Z"/><path fill="#20380E" d="M272.632 234.482c-9.973.506-18.534 2.246-28.19 5.681a122.22 122.22 0 0 0-5.033 1.952c-26.661 11.008-45.831 31.153-55.416 58.261a123.822 123.822 0 0 0-1.14 3.364l25.438 7.468c7.126-21.393 23.803-38.516 45.066-46.113a73.51 73.51 0 0 1 20.04-4.128l-.765-26.497m3.387-2.681h-.517.517Zm-.87 0h.353-.376l.917 31.636a70.462 70.462 0 0 0-21.816 4.092c-22.227 7.939-38.033 25.826-44.219 46.866l-30.378-8.914c.6-2.023 1.247-4.023 1.941-5.975 9.843-27.825 29.53-48.5 56.874-59.79a122.534 122.534 0 0 1 5.139-1.988h.012c10.666-3.798 20.204-5.598 31.53-5.927h.035-.012Z"/><path fill="#20380E" d="M210.406 313.666c-4.093 13.901-4.409 29.897.837 44.586l-29.802 10.643a104.088 104.088 0 0 0 2 5.151c.035.059.059.141.094.212a112.439 112.439 0 0 1-2.105-5.375c-7.421-20.804-7.739-42.408-2.188-62.154.682-2.435 1.068-3.855.469-1.832l30.695 8.769ZM258.108 402.482c13.889 4.093 29.154 3.999 43.843-1.246 36.917-13.184 56.157-53.793 42.973-90.709-10.608-29.695-38.962-47.947-68.881-47.077l-.917-31.636h.882c1.329-.023 2.658-.035 3.975-.012.376 0 .752.024 1.14.036 41.35 1.07 76.667 25.59 92.109 64.13.364.905.694 1.811 1.035 2.728.152.412.305.8.458 1.211.024.071.047.153.071.224.458 1.294.882 2.599 1.293 3.904.118.4.247.777.365 1.176.306 1.024.576 2.047.847 3.082.2.717.4 1.434.564 2.164.141.576.259 1.164.388 1.74.271 1.211.541 2.411.753 3.622l.035.2a101.844 101.844 0 0 1 1.388 25.979c-.082 1.047-.153 2.117-.259 3.164 0 .023-.011.059 0 .094-3.704 34.552-24.908 65.976-57.638 81.653-.188.082-.376.165-.564.259a107.933 107.933 0 0 1-3.34 1.493c-.577.247-1.153.494-1.729.729-.753.306-1.529.6-2.305.894-.67.259-1.317.529-1.999.765-21.228 7.573-43.303 7.726-63.39 1.811l8.915-30.366-.012-.012Z"/><path fill="#fff" stroke="#20380E" stroke-width="2.812" d="M243.967 429.677v.004c1.401.496 2.824.966 4.263 1.409l8.125-27.679c-20.451-6.455-37.817-21.86-45.963-43.377l-27.153 9.708c.468 1.239.961 2.467 1.466 3.699a1.54 1.54 0 0 1 .076.174l.011.026.009.019.018.043a129.859 129.859 0 0 0 1.709 3.847l.123.271.001.003.109.239-1.219.569 1.219-.569c11.517 24.681 31.193 42.483 57.206 51.614Zm-59.17-56.024Z"/><path fill="#fff" d="m184.805 377.892 11.748 18.58s-20.792 6.892-34.27-9.938c-13.477-16.829-28.789-46.301-16.006-59.484 12.784-13.184 27.955-39.68 32.788-27.096 3.623 9.432-15.864 37.504-15.864 37.504l39.303-18.652s5.269 6.009 6.163 12.936c.882 6.939 11.066 23.251-20.793 45.102l-3.069 1.048Z"/><path stroke="#20380E" stroke-linecap="round" stroke-linejoin="round" stroke-width="2.95" d="M196.906 397.072c-11.349 1.023-26.731.071-34.623-10.537-13.418-18.053-28.248-44.972-16.006-59.485l25.744-29.448a3.768 3.768 0 0 1 5.704.047 11.847 11.847 0 0 1 1.164 13.666l-16.253 27.66"/><path stroke="#20380E" stroke-linecap="round" stroke-linejoin="round" stroke-width="2.95" d="m152.746 344.208 49.864-25.837s8.079 5.868 3.822 12.219M159.661 358.663l49.547-28.813s4.563 9.573-.212 13.983c-4.775 4.411-39.315 27.673-39.315 27.673M180.018 381.147s35.023-20.711 28.649-36.764"/><path fill="#fff" d="m373.478 370.894-11.819 23.956s27.614-5.339 32.859-26.249c5.245-20.922 6.88-54.087-10.244-60.743-17.123-6.657-46.442-1.235-46.442-1.235s-5.327 12.349 4.728 13.301c56.462 5.363 11.596 5.363 11.596 5.363l-24.474-1.929s-2.234 8.091-.153 14.76c2.082 6.668 3.176 27.613 43.961 32.764l-.012.012Z"/><path stroke="#20380E" stroke-linecap="round" stroke-linejoin="round" stroke-width="2.95" d="M367.422 392.617c10.737-3.799 24.332-11.079 27.084-24.015 4.681-22.004 6.927-52.652-10.243-60.743-17.171-8.091-46.443-1.235-46.443-1.235s-4.915 11.302 4.117 13.56c9.032 2.258 26.814-.376 30.965 4.681"/><path stroke="#20380E" stroke-linecap="round" stroke-linejoin="round" stroke-width="2.95" d="m385.533 326.146-56.086-2.705s-4.892 8.703 1.623 12.702M385.274 342.164l-57.05-5.539s-.153 10.607 6.021 12.619c6.175 2.022 47.266 8.773 47.266 8.773M376.148 371.095s-40.468-4.234-41.373-21.475"/><path fill="#20380E" d="M216.487 221.936s11.443-42.161 3.046-54.651c-8.573-12.772-19.063-10.925-34.317-3.128-15.253 7.809-13.595-4.728-34.317 2.34-11.443 3.905-19.064 12.49-18.299 21.075.764 8.585.764 31.236 8.385 39.821 7.621 8.585 63.295 16.394 75.491-5.469l.011.012Z"/><path fill="#fff" stroke="#20380E" stroke-linecap="round" stroke-linejoin="round" stroke-width="2.95" d="M204.363 226.488c-2.106 7.762-.518 14.948 3.563 16.053 4.069 1.106 9.079-4.292 11.184-12.054 2.105-7.762.518-14.948-3.563-16.053-4.069-1.106-9.079 4.292-11.184 12.054ZM152.981 226.488c2.105 7.762.517 14.948-3.564 16.053-4.069 1.106-9.079-4.292-11.184-12.054-2.105-7.762-.517-14.948 3.564-16.053 4.069-1.106 9.079 4.292 11.184 12.054Z"/><path fill="#fff" stroke="#20380E" stroke-linecap="round" stroke-linejoin="round" stroke-width="2.95" d="M166.012 176.271h25.132c10.645 0 19.275 8.63 19.275 19.275v62.919c0 10.646-8.63 19.276-19.275 19.276h-25.132c-10.646 0-19.276-8.63-19.276-19.276v-62.919c0-10.645 8.63-19.275 19.276-19.275Z"/><path fill="#20380E" d="M199.164 227.77c-.835 2.128-2.751 3.375-4.292 2.775-1.541-.6-2.105-2.822-1.27-4.951.835-2.129 2.752-3.375 4.292-2.775 1.541.599 2.105 2.822 1.27 4.951Z"/><path stroke="#20380E" stroke-linecap="round" stroke-linejoin="round" stroke-width="2.95" d="M202.763 219.433c-1.776-1.47-4.61-2.317-7.726-2.094-2.541.177-4.787 1.023-6.375 2.258M184.603 259.897c-1.776 1.47-4.61 2.317-7.727 2.093-2.54-.176-4.786-1.023-6.374-2.258"/><path fill="#20380E" d="M167.188 227.77c-.835 2.128-2.752 3.375-4.293 2.775-1.541-.6-2.105-2.822-1.27-4.951.835-2.129 2.752-3.375 4.292-2.775 1.541.599 2.106 2.822 1.271 4.951Z"/><path stroke="#20380E" stroke-linecap="round" stroke-linejoin="round" stroke-width="2.95" d="M170.786 219.433c-1.776-1.47-4.61-2.317-7.726-2.094-2.541.177-4.787 1.023-6.375 2.258M180.547 219.55c.671 5.904 1.2 11.831 1.588 17.77.071 1.07.094 2.27-.6 3.093s-2.387.706-2.54-.353"/><path fill="#20380E" d="M208.196 209.434s-2.481-20.686-8.867-17.84c-6.386 2.834-6.621 8.749-16.547 9.455-9.926.706-16.312-2.834-19.852.706-3.54 3.54-9.926 11.349-18.44 5.668-8.515-5.668-9.338-19.264 4.139-26.355 13.478-7.092 33.682-8.15 45.031-8.868 11.349-.705 23.051 20.205 14.536 37.234Z"/><path stroke="#20380E" stroke-linecap="round" stroke-linejoin="round" stroke-width="2.95" d="m92.485 390.064 53.957-29.766M140.138 448.019l56.674-50.805M244.478 347.562l-3.87 25.755"/><path fill="#fff" d="M439.358 9.617H243.483c-5.854 0-10.599 4.09-10.599 9.134v135.498c0 5.044 4.745 9.133 10.599 9.133h195.875c5.853 0 10.598-4.089 10.598-9.133V18.751c0-5.045-4.745-9.134-10.598-9.134Z"/><path fill="#20380E" d="M268.426 54.465c3.535-3.077 7.804-4.63 12.034-4.377 7.505-1.204 15.507 1.674 20.414 7.346 4.927 5.694 6.483 13.92 3.964 20.956-1.601 4.472-4.797 8.32-8.837 10.904a.818.818 0 0 1-.123.139.799.799 0 0 1-.37.18c-.007 0-.015 0-.023.004a21.953 21.953 0 0 1-7.079 2.756l-.041.008c-5.437 1.063-11.308.038-16.109-2.813-7.977-4.738-12.426-14.66-10.578-23.593a20.984 20.984 0 0 1 6.746-11.51h.002Zm34.908 23.41c2.337-6.526.891-14.156-3.678-19.439-2.58-2.98-6.081-5.129-9.898-6.228-1.076 1.006-3.264 3.056-3.892 4.46-.512 1.144-.611 2.829.381 3.824.175.176.397.349.63.533.652.513 1.465 1.15 1.552 2.2.065.77-.299 1.378-.618 1.915-.173.29-.339.566-.401.817-.2.79.603 1.659 1.449 1.947.94.319 2.002.232 3.128.139l.393-.033c1.282-.1 2.782-.142 4.194.3 1.617.507 2.86 1.614 3.323 2.961.574 1.669-.2 3.56-1.727 4.212-.349.15-.714.23-1.037.3-.44.097-.819.179-.994.384-.232.27-.125.69.153 1.522.216.644.459 1.372.36 2.126-.144 1.086-.916 1.798-1.597 2.426-.399.366-.774.714-.996 1.097-.385.66-.369 1.6.043 2.51.317.7.819 1.334 1.354 1.941 3.597-2.395 6.437-5.878 7.88-9.91l-.002-.004Zm-15.28 12.98c.014-.002.025-.006.037-.008a20.316 20.316 0 0 0 5.997-2.226c-.548-.636-1.083-1.34-1.449-2.15-.615-1.358-.603-2.818.029-3.906.341-.584.821-1.028 1.288-1.457.558-.515 1.041-.96 1.111-1.496.054-.404-.123-.932-.294-1.443-.305-.91-.685-2.044.138-3.003.522-.607 1.269-.77 1.868-.903.276-.06.538-.118.747-.207.762-.326 1.163-1.397.856-2.291-.304-.88-1.162-1.617-2.298-1.974-1.146-.359-2.398-.323-3.581-.232l-.385.032c-1.243.103-2.529.21-3.79-.218-1.554-.53-2.904-2.092-2.472-3.792.118-.47.36-.872.572-1.227.231-.387.43-.72.406-1.004-.029-.357-.383-.658-.963-1.112-.26-.205-.529-.416-.774-.66-1.515-1.521-1.443-3.875-.698-5.534.578-1.289 1.982-2.792 3.529-4.276a20.635 20.635 0 0 0-7.299-.131.882.882 0 0 1-.187.01 13.262 13.262 0 0 0-3.443.23 15.017 15.017 0 0 0-3.103.984c1.255.95 2.06 2.825 2.002 4.296l-.02.434c-.06 1.219-.12 2.477.568 3.218.444.476 1.173.71 2.01.945.879.247 1.972.554 2.754 1.344.518.524.814 1.264.79 1.98-.019.592-.258 1.121-.675 1.492-.811.723-1.885.622-2.748.543l-.164-.016c-.626-.057-1.165.072-1.255.298-.035.091-.035.26-.033.437 0 .237.004.505-.07.793-.151.594-.539 1.054-1.12 1.329-.996.47-2.356.277-3.262-.123l-.339-.152c-.94-.425-1.912-.866-2.531-.49-.28.17-.367.473-.389.697-.05.505.169 1.093.539 1.43.774.71 1.973.906 3.235 1.06 1.379.167 2.941.355 4.144 1.327a3.432 3.432 0 0 1 1.256 2.621c-.004.797-.325 1.49-.908 1.954-.42.334-.924.514-1.37.673-.548.196-.885.33-.953.545-.066.21.197.583.588.832.173.11.365.208.569.315.446.231.952.493 1.36.926.529.558.8 1.323.763 2.149-.047 1.032-.551 2.069-1.348 2.773-1.224 1.08-2.864 1.454-4.222 1.737.006.004.01.005.016.01 4.462 2.649 9.917 3.604 14.965 2.617h.006Zm-16.117-3.362a.78.78 0 0 1 .63-.752c1.265-.261 2.699-.558 3.656-1.404.474-.42.797-1.082.826-1.69.014-.288-.035-.702-.34-1.023-.226-.239-.572-.417-.938-.609-.225-.118-.459-.24-.688-.385-.792-.501-1.592-1.48-1.243-2.591.303-.968 1.204-1.291 1.927-1.55.358-.128.697-.25.911-.419.263-.208.319-.524.321-.751a1.91 1.91 0 0 0-.677-1.416c-.844-.682-2.105-.834-3.323-.982-1.474-.178-3.007-.438-4.13-1.469a3.344 3.344 0 0 1-1.032-2.718c.081-.809.484-1.47 1.134-1.864 1.352-.82 2.846-.144 4.046.398.109.05.218.1.325.147.649.286 1.47.347 1.908.14.191-.091.241-.203.267-.302.025-.1.025-.25.023-.41 0-.283-.004-.634.136-.996.366-.942 1.447-1.428 2.893-1.297l.169.016c.605.056 1.231.115 1.519-.143.099-.087.152-.22.158-.39.01-.297-.125-.631-.345-.851-.484-.49-1.28-.714-2.048-.928-.829-.234-1.965-.553-2.749-1.396-1.134-1.216-1.052-2.875-.98-4.337.008-.142.014-.283.019-.421.047-1.17-.805-2.931-1.832-3.244a.81.81 0 0 1-.257-.135c-4.363 2.538-7.855 7.15-8.975 12.57-1.629 7.871 1.999 16.565 8.693 21.21l-.004-.008ZM335.426 97.09a.751.751 0 0 1-.065-.288l-.056-3.171a19.38 19.38 0 0 0-3.414.265.765.765 0 0 1-.884-.61.75.75 0 0 1 .625-.862 21.053 21.053 0 0 1 4.067-.278.75.75 0 0 1 .345-.09.781.781 0 0 1 .438.128c.729.047 1.456.13 2.18.253.416.07.693.459.621.864a.76.76 0 0 1-.884.606 19.7 19.7 0 0 0-1.561-.202l.054 3.072a.76.76 0 0 1-.011.125c.082-.007.162-.018.244-.023 5.291-.446 10.059 1.108 14.176 4.619 2.641 2.255 4.58 5.663 5.926 10.421 1.3 4.593 1.332 8.392.095 11.615-1.137 2.964-3.27 5.158-5.238 6.663a12.114 12.114 0 0 1 2.316 3.466c.232.526.461 1.219.172 1.907-.438 1.044-1.697 1.245-2.236 1.33a7.231 7.231 0 0 1-1.16.109c-.718 0-1.546-.158-2.116-.804-.358-.406-.5-.873-.627-1.288a8.461 8.461 0 0 0-.104-.33 3.16 3.16 0 0 0-1.022-1.415.753.753 0 0 1-.498.007 23.452 23.452 0 0 1-8.703 1.69c-1.923 0-3.836-.243-5.674-.742a20.504 20.504 0 0 1-2.566-.886.733.733 0 0 1-.302.582 3.132 3.132 0 0 0-1.11 1.571c-.035.109-.065.22-.095.331-.112.409-.239.875-.559 1.277-.536.671-1.308.835-1.979.835-.434 0-.824-.069-1.08-.114-.457-.08-1.669-.295-2.068-1.354-.251-.666-.05-1.343.155-1.858a12.22 12.22 0 0 1 2.443-3.861c.015-.015.03-.026.045-.04-2.93-2.222-5.235-5.18-6.506-8.521-2.259-5.928-1.153-12.854 2.813-17.646 2.063-2.493 7.299-6.294 13.805-7.359l-.002.006Zm14.348 37.01c.046.129.086.262.127.395.089.294.173.573.317.735.339.384 1.18.307 1.874.196.632-.1.99-.242 1.066-.424.084-.198-.1-.617-.162-.755a10.673 10.673 0 0 0-2.159-3.168l-.209.139c-.642.411-1.304.786-1.982 1.13a4.611 4.611 0 0 1 1.128 1.752Zm-23.379-2.435a10.78 10.78 0 0 0-2.142 3.388c-.058.144-.23.581-.146.805.067.176.355.303.907.4.887.156 1.361.105 1.581-.169.13-.164.207-.446.289-.745a9.24 9.24 0 0 1 .114-.393 4.63 4.63 0 0 1 1.611-2.287 21.04 21.04 0 0 1-2.081-1.195.747.747 0 0 1-.131.196h-.002Zm-3.923-6.037.757-.641a.778.778 0 0 1 1.078.075.734.734 0 0 1-.077 1.052l-.813.686a19.221 19.221 0 0 0 3.898 3.391l.69-1.413a.771.771 0 0 1 1.018-.353.74.74 0 0 1 .362.993l-.761 1.561a19.282 19.282 0 0 0 4.218 1.711c1.298.353 2.635.567 3.989.649a4.48 4.48 0 0 0-.094-2.05.743.743 0 0 1 .53-.919.767.767 0 0 1 .942.516c.233.812.287 1.66.166 2.488a21.878 21.878 0 0 0 7.574-1.467l-.837-1.81a.739.739 0 0 1 .382-.986.772.772 0 0 1 1.011.373l.845 1.826a21.203 21.203 0 0 0 2.435-1.339 18.59 18.59 0 0 0 2.931-2.307l-1.355-.779a.736.736 0 0 1-.271-1.021.774.774 0 0 1 1.046-.263l1.507.866a.775.775 0 0 1 .114.08c.854-1.012 1.613-2.187 2.131-3.539.647-1.689.903-3.574.771-5.69l-2.041.318a.759.759 0 0 1-.874-.618.749.749 0 0 1 .634-.856l2.129-.333a25.964 25.964 0 0 0-.755-3.515 29.709 29.709 0 0 0-1.439-4.032l-1.563.871a.761.761 0 0 1-.379.099.763.763 0 0 1-.663-.377.735.735 0 0 1 .285-1.017l1.66-.926c-.951-1.778-2.065-3.208-3.359-4.313a20.903 20.903 0 0 0-.97-.773l-.872 1.789a.765.765 0 0 1-.69.425.78.78 0 0 1-.328-.072.737.737 0 0 1-.362-.994l.886-1.818a.767.767 0 0 1 .134-.187c-2.575-1.641-5.386-2.538-8.399-2.677l.142 2.626a.754.754 0 0 1-.724.784h-.041a.757.757 0 0 1-.763-.706l-.145-2.707c-.3.01-.602.027-.904.054-3.842.326-7.334 1.769-10.003 3.399l.804 1.008a.734.734 0 0 1-.135 1.047.772.772 0 0 1-.468.156.771.771 0 0 1-.604-.287l-.871-1.092c-1.406.986-2.497 1.981-3.168 2.791-.147.178-.291.362-.429.548a.726.726 0 0 1 .246.187l.976 1.125a.733.733 0 0 1-.09 1.051.77.77 0 0 1-.494.177.77.77 0 0 1-.584-.264l-.897-1.033c-1.499 2.463-2.303 5.336-2.357 8.246l2.212-.351a.764.764 0 0 1 .878.617.75.75 0 0 1-.632.857l-2.303.365a.768.768 0 0 1-.117.009 16.302 16.302 0 0 0 1.02 4.658 17.025 17.025 0 0 0 2.23 4.053v-.002Z"/><path fill="#20380E" d="M337.144 113.223c.162-.086.33-.147.496-.188a.731.731 0 0 1-.162-.545 21.386 21.386 0 0 0-.118-5.69.75.75 0 0 1 .642-.85.764.764 0 0 1 .871.626 22.82 22.82 0 0 1 .125 6.077.74.74 0 0 1-.234.457c.09.036.178.076.262.127l1.862 1.118c.17.102.293.265.342.453.078.302.091.617.05.93a.734.734 0 0 1 .207-.071 23.005 23.005 0 0 1 6.689-.175.75.75 0 0 1 .666.831.763.763 0 0 1-.853.65 21.503 21.503 0 0 0-6.235.162.763.763 0 0 1-.813-.399 2.94 2.94 0 0 1-.163.253c-.473.661-1.184 1.085-1.946 1.161a2.476 2.476 0 0 1-.258.013 2.81 2.81 0 0 1-1.892-.761c-.605-.551-.933-1.297-.903-2.047a2.568 2.568 0 0 1 1.363-2.138l.002.006Zm.584 3.095c.276.251.628.382.945.351.317-.033.636-.231.852-.533a1.29 1.29 0 0 0 .25-.699l-1.549-.929c-.094-.057-.215-.046-.362.03a1.103 1.103 0 0 0-.556.881c-.013.311.144.648.42.899ZM357.733 101.264a4.26 4.26 0 0 1-2.784 1.044 4.287 4.287 0 0 1-2.132-.571c-2.39-1.359-4.774-2.802-7.088-4.203-.82-.497-1.838-1.114-2.405-2.131-.532-.957-.539-2.085-.017-3.173.649-1.358 2.023-2.422 3.498-2.713 2.018-.397 4.269.202 6.881 1.832 2.577 1.608 4.246 3.317 5.1 5.219l.034.074c.71 1.632.283 3.446-1.086 4.624l-.001-.002Zm-.323-4.04-.024-.056c-.731-1.627-2.21-3.119-4.524-4.564-1.841-1.148-3.429-1.715-4.826-1.715-.319 0-.629.029-.929.089-1.001.198-1.971.953-2.415 1.881-.22.459-.402 1.15-.024 1.83.373.67 1.167 1.153 1.876 1.582 2.296 1.39 4.671 2.828 7.043 4.176 1.233.702 2.428.304 3.135-.304.69-.593 1.233-1.67.688-2.919ZM314.219 98.652c.8-1.905 2.363-3.616 4.778-5.226 2.463-1.643 4.591-2.245 6.504-1.843 1.36.287 2.603 1.28 3.243 2.595.544 1.119.561 2.28.047 3.271-.53 1.02-1.489 1.64-2.259 2.138-2.159 1.398-4.393 2.842-6.633 4.203a3.919 3.919 0 0 1-2.042.588c-.868 0-1.73-.304-2.467-.904-1.43-1.167-1.904-3.032-1.202-4.753l.028-.07h.003Zm2.154 3.677c.815.663 1.829.737 2.719.197 2.221-1.35 4.446-2.79 6.596-4.182.652-.422 1.391-.9 1.739-1.568.399-.768.133-1.554-.063-1.954-.434-.892-1.292-1.589-2.185-1.778a4.083 4.083 0 0 0-.849-.087c-1.287 0-2.76.562-4.468 1.703-2.191 1.46-3.534 2.911-4.225 4.56l-.025.056c-.55 1.35.067 2.489.763 3.055l-.002-.002ZM379.893 53c-5.705 3.11-9.846 8.236-11.361 14.065-1.409 5.42-.498 11.002 2.564 15.72a20.74 20.74 0 0 0 1.66 2.215c4.474 5.224 11.342 8.073 18.437 8.073 4.26 0 8.604-1.027 12.558-3.183 5.705-3.11 9.847-8.236 11.361-14.065 1.41-5.42.498-11.002-2.563-15.72-6.585-10.143-21.234-13.33-32.656-7.105Zm34.392 16.29a.714.714 0 0 0-.708.033l-5.788 3.698c-1.203-.215-2.774-.644-4.466-1.218a.722.722 0 0 0-.587.058c-.4-1.2-.851-2.365-1.293-3.496-.446-1.144-.905-2.327-1.303-3.529 1.676-1.536 3.41-3.124 4.717-4.686a.683.683 0 0 0 .158-.422l5.466.173h.023c.063 0 .123-.01.182-.027.233.315.458.637.673.967 1.688 2.6 2.673 5.482 2.926 8.449Zm-17.946 9.542c-1.261-.298-2.763-.552-4.221-.799-1.682-.284-3.418-.58-4.804-.94-.008-.013-.02-.025-.031-.036l-.292-.734c-1.013-2.55-1.593-4.006-2.561-6.883 1.43-1.29 2.84-2.635 4.205-3.94.743-.71 1.511-1.444 2.281-2.168.421.069.842.132 1.252.194 2.244.34 4.37.662 6.588 1.617.417 1.277.902 2.513 1.369 3.713.456 1.169.929 2.375 1.332 3.605-.96 1.32-1.81 2.319-2.632 3.287-.781.918-1.585 1.865-2.488 3.086l.002-.002Zm13.229-20.337-4.921-.154c-.032 0-.063.003-.094.007l-1.817-4.908c2.595 1.22 4.931 2.917 6.83 5.055h.002Zm-17.103-7.31c2.976 0 5.907.533 8.614 1.555a.675.675 0 0 0 .029.344l2.404 6.493c-1.217 1.398-2.795 2.845-4.325 4.248-2.344-.982-4.607-1.326-6.801-1.66-.436-.065-.882-.135-1.329-.207a35.22 35.22 0 0 0-2.153-5.782l3.223-4.692a.652.652 0 0 0 .11-.297l.228-.003v.001Zm-4.622 4.068c-1.787-.843-3.461-1.514-5.379-1.975a24.837 24.837 0 0 1 8.123-2.019l-2.742 3.994h-.002ZM380.58 54.2l.165-.087a.7.7 0 0 0 .452.298c2.335.453 4.254 1.225 6.383 2.246.917 1.911 1.577 3.69 2.174 5.862-.713.67-1.418 1.345-2.103 2-1.396 1.334-2.837 2.707-4.291 4.016a87.908 87.908 0 0 0-7.835-.256c-1.238-2.01-2.319-3.961-3.367-5.85a.607.607 0 0 0-.12-.153c1.956-3.296 4.873-6.077 8.542-8.076Zm-9.314 9.508c.892 1.61 1.82 3.264 2.86 4.97l-4.825 2.928c.036-1.399.234-2.805.596-4.2a19.707 19.707 0 0 1 1.369-3.696v-.002Zm-1.939 9.45a.701.701 0 0 0 .222-.088l5.626-3.414a86.318 86.318 0 0 1 7.926.236c.975 2.895 1.559 4.363 2.579 6.928l.278.702c-1.085 2.397-2.919 4.416-5.086 5.592-.991.086-2.4.228-3.767.367-1.259.127-2.555.258-3.518.343-.464-.564-.9-1.154-1.303-1.774-1.772-2.729-2.77-5.77-2.959-8.893h.002Zm5.405 11.94c.78-.076 1.659-.164 2.519-.251 1.171-.12 2.375-.24 3.312-.326l-.13 4.7a21.195 21.195 0 0 1-5.701-4.123Zm16.447 6.606c-3.286 0-6.521-.648-9.457-1.89a.674.674 0 0 0 .112-.35l.151-5.393c2.158-1.284 3.932-3.244 5.087-5.62 1.425.362 3.14.656 4.806.937 1.616.273 3.285.556 4.574.891.055.014.11.02.165.022.457 1.347.927 2.743 1.38 4.324a93.13 93.13 0 0 1-2.594 6.218.665.665 0 0 0-.022.504 25.052 25.052 0 0 1-4.202.357Zm11.885-3.014a24.585 24.585 0 0 1-6.217 2.36 94.137 94.137 0 0 0 2.273-5.434c1.76.94 3.709 1.631 5.697 2.02a25 25 0 0 1-1.751 1.052l-.002.002Zm2.922-1.873a.695.695 0 0 0-.539-.46 19.079 19.079 0 0 1-6.124-2.21c-.481-1.665-.975-3.12-1.453-4.53l-.448.141-.039.014.037-.012.447-.146-.483.156c.915-1.248 1.734-2.213 2.526-3.146.881-1.036 1.791-2.11 2.843-3.574a.796.796 0 0 0 .107.049c1.166.397 2.795.901 4.306 1.2a.67.67 0 0 0 .155.306 28.777 28.777 0 0 1 3.983 5.701.69.69 0 0 0 .307.297c-1.404 2.37-3.305 4.475-5.626 6.214h.001Zm7.763-11.33a19.775 19.775 0 0 1-1.413 3.787 30.232 30.232 0 0 0-3.628-5.199l5.64-3.602a18.582 18.582 0 0 1-.597 5.015h-.002Z"/><path fill="#20380E" d="M439.758 163.993H243.715c-6.318 0-11.464-4.424-11.464-9.856V18.855c0-5.431 5.146-9.855 11.464-9.855h196.043c6.319 0 11.464 4.424 11.464 9.855v135.29c0 5.431-5.145 9.855-11.464 9.855v-.007ZM243.715 10.473c-5.376 0-9.751 3.76-9.751 8.382v135.29c0 4.622 4.375 8.383 9.751 8.383h196.043c5.377 0 9.752-3.761 9.752-8.383V18.855c0-4.622-4.375-8.383-9.752-8.383H243.715Z"/><path fill="#20380E" d="M245.172 24.037c-2.331 0-4.231-1.855-4.231-4.13 0-2.273 1.9-4.128 4.231-4.128s4.232 1.855 4.232 4.129c0 2.274-1.901 4.129-4.232 4.129Zm0-6.786c-1.501 0-2.723 1.192-2.723 2.657s1.222 2.657 2.723 2.657 2.723-1.192 2.723-2.657-1.222-2.657-2.723-2.657ZM256.871 24.037c-2.33 0-4.231-1.855-4.231-4.13 0-2.273 1.901-4.128 4.231-4.128 2.331 0 4.232 1.855 4.232 4.129 0 2.274-1.901 4.129-4.232 4.129Zm0-6.786c-1.501 0-2.723 1.192-2.723 2.657s1.222 2.657 2.723 2.657 2.723-1.192 2.723-2.657-1.222-2.657-2.723-2.657ZM268.563 24.037c-2.331 0-4.232-1.855-4.232-4.13 0-2.273 1.901-4.128 4.232-4.128 2.331 0 4.232 1.855 4.232 4.129 0 2.274-1.901 4.129-4.232 4.129Zm0-6.786c-1.501 0-2.723 1.192-2.723 2.657s1.222 2.657 2.723 2.657 2.723-1.192 2.723-2.657-1.222-2.657-2.723-2.657ZM446.671 27.525H237.193v1.236h209.478v-1.236Z"/><path fill="#ED9D42" stroke="#20380E" stroke-miterlimit="10" stroke-width=".93" d="m39.455 57.051-4.948 6.226-2.192 7.52 2.577 14.78s5.131 20.783 13.616 33.523c8.484 12.739 25.215 37.915 38.506 36.631 13.291-1.284 22.437-5.579 29.709-9.017 7.272-3.437 47.344-24.873 47.344-24.873s10.37-6.042 14.11-10.741c3.739-4.7 6.426-8.909 7.494-12.03 1.067-3.119-.804-12.844-2.61-17.223-1.806-4.378-10.987-23.658-15.188-27.548-4.201-3.89-20.655-23.46-20.655-23.46S135.219 21.802 134 21.122c-1.22-.681-10.939-2.647-10.939-2.647l-9.288-.383-9.542 2.862s-7.068 2.888-12.663 6.506c-5.595 3.618-16.903 9.04-19.531 10.275-2.628 1.235-12.383 6.173-18.168 8.877-8.58 4.012-14.418 10.456-14.418 10.456l.004-.018Z"/><path fill="#fff" d="M82.228 64.841c-6.332 6.806-9.644 15.727-9.085 24.474.518 8.135 4.25 15.481 10.506 20.689a30.18 30.18 0 0 0 3.138 2.282c.031.024.066.046.1.065 8.396 5.293 18.968 6.247 28.572 3.149a36.605 36.605 0 0 0 15.575-9.9c6.332-6.806 9.643-15.727 9.085-24.474-.518-8.135-4.251-15.481-10.506-20.69-13.453-11.194-34.71-9.218-47.385 4.405Zm53.845 7.58a.991.991 0 0 0-.942.355l-6.181 7.657c-1.725.228-4.044.32-6.59.26a1.005 1.005 0 0 0-.769.338c-1.078-1.489-2.211-2.91-3.315-4.285-1.116-1.393-2.266-2.834-3.343-4.326 1.581-2.864 3.217-5.824 4.287-8.561.083-.212.089-.442.025-.655l7.478-2.148.03-.01a.896.896 0 0 0 .234-.116c.457.335.906.683 1.344 1.047 3.449 2.87 6.072 6.437 7.742 10.443Zm-20.022 21.076c-1.839.136-3.987.44-6.07.734-2.406.34-4.887.689-6.924.794-.018-.015-.039-.026-.059-.037l-.723-.89c-2.513-3.096-3.95-4.862-6.548-8.43 1.358-2.414 2.664-4.896 3.928-7.303.689-1.31 1.399-2.663 2.119-4.004.6-.089 1.198-.184 1.781-.277 3.19-.508 6.211-.99 9.642-.635 1.136 1.59 2.345 3.093 3.514 4.553 1.141 1.423 2.321 2.89 3.417 4.42-.708 2.25-1.412 4.007-2.092 5.71-.646 1.615-1.31 3.279-1.986 5.368l.001-.003Zm8.806-33.992-6.73 1.935a1.185 1.185 0 0 0-.125.05l-4.655-6.014c4.058.56 7.98 1.893 11.508 4.03l.002-.001Zm-26.423-2.671a34.02 34.02 0 0 1 12.356-1.606c.025.164.087.324.194.464l6.16 7.96c-1.023 2.47-2.511 5.167-3.954 7.78-3.612-.338-6.829.173-9.949.67-.619.099-1.255.196-1.892.291-1.736-2.652-3.465-4.879-5.502-7.08l2.262-7.918a.956.956 0 0 0 .016-.46c.103-.032.206-.07.308-.104v.003Zm-4.436 7.662c-2.797-.39-5.364-.59-8.166-.392a34.635 34.635 0 0 1 10.092-6.348L94 64.495h-.002Zm-10.304 1.71c.061-.067.123-.128.184-.194a.99.99 0 0 0 .745.217c3.364-.392 6.308-.16 9.646.327 2.097 2.251 3.786 4.431 5.567 7.183-.665 1.24-1.318 2.486-1.952 3.694-1.293 2.46-2.628 4.994-4.011 7.445a122.054 122.054 0 0 0-10.72 3.066c-2.576-2.249-4.913-4.482-7.176-6.644a.927.927 0 0 0-.232-.161c1.173-5.426 3.877-10.558 7.95-14.934Zm-8.353 17.257c1.929 1.844 3.924 3.733 6.096 5.645l-5.22 6.17a27.746 27.746 0 0 1-1.074-6.087 29.275 29.275 0 0 1 .198-5.725v-.003Zm1.605 13.956a.971.971 0 0 0 .26-.218l6.089-7.194a119.777 119.777 0 0 1 10.834-3.133c2.616 3.59 4.063 5.371 6.592 8.484l.691.852c-.396 3.8-1.975 7.402-4.382 9.98a383.898 383.898 0 0 0-4.935 2.154c-1.647.726-3.343 1.474-4.609 2.013a29.213 29.213 0 0 1-2.558-1.892c-3.62-3.013-6.331-6.796-7.985-11.046h.003Zm12.66 14.204c1.022-.445 2.172-.952 3.298-1.449a498.03 498.03 0 0 1 4.338-1.897l1.926 6.577a30.196 30.196 0 0 1-9.561-3.231Zm25.221 1.982c-4.448 1.435-9.118 1.948-13.648 1.508a.99.99 0 0 0-.005-.534l-2.21-7.548c2.348-2.723 3.871-6.217 4.372-10.017 2.091-.12 4.545-.463 6.925-.8 2.309-.327 4.695-.663 6.591-.761.08-.005.157-.02.233-.042 1.221 1.67 2.482 3.4 3.804 5.396a138.18 138.18 0 0 1-.73 9.759.997.997 0 0 0 .196.709 34.901 34.901 0 0 1-5.528 2.33Zm14.74-9.372a34.474 34.474 0 0 1-7.36 5.99c.303-2.831.517-5.692.645-8.533 2.803.536 5.751.645 8.616.316a35.533 35.533 0 0 1-1.9 2.224l-.001.003Zm3.117-3.875a.995.995 0 0 0-.935-.401 26.73 26.73 0 0 1-9.28-.391c-1.396-2.1-2.717-3.904-3.994-5.65l-.543.39-.048.036.046-.032.539-.398-.583.427c.68-2.131 1.357-3.827 2.011-5.468.729-1.82 1.48-3.708 2.249-6.2.055.011.109.02.166.022 1.756.041 4.187.03 6.367-.214a.99.99 0 0 0 .345.355 41.903 41.903 0 0 1 7.944 6.17c.156.155.349.244.549.277-.84 3.902-2.471 7.652-4.835 11.078l.002-.001Zm5.438-19.106a29.248 29.248 0 0 1-.219 5.87c-2.194-2.11-4.623-4-7.237-5.628l6.023-7.46a27.683 27.683 0 0 1 1.435 7.217h-.002Z"/><path fill="#20380E" d="M183.375 103.987c.636 1.251.684 2.799.837 4.056.086.647 1.409 2.053 1.273.943-.204-1.612-.351-3.336-1.17-4.937-.174-.351-.566-.917-.928-.932-.372-.021-.145.626-.01.878l-.002-.008ZM181.459 106.689c.449 1.696 1.057 3.429 1.026 5.071-.016.604 1.295 2.172 1.317 1.308.036-1.76-.582-3.607-1.069-5.427-.123-.455-.418-.961-.801-1.246-.314-.235-.576-.107-.471.302l-.002-.008ZM178.972 109.377c.47 2.458 1.489 5.053 1.295 7.384-.051.596 1.242 2.159 1.317 1.308.206-2.458-.849-5.171-1.339-7.749-.119-.647-1.484-2.053-1.273-.943ZM176.441 111.414c.898 2.683.978 5.324 1.303 7.949.078.649 1.409 2.054 1.273.943-.339-2.788-.473-5.517-1.427-8.37-.252-.75-1.572-1.79-1.149-.522ZM174.083 114.046c-.025 2.974.728 6.141.64 9.097-.015.612 1.287 2.174 1.317 1.308.088-2.956-.658-6.124-.64-9.097.007-.611-1.311-2.169-1.317-1.308ZM178.555 135.817c-1.132 2.843-1.197 6.361-3.446 8.249-.43.369.729 2.106 1.131 1.761 2.319-1.947 2.41-5.496 3.581-8.423.216-.535-1.031-2.184-1.266-1.587ZM176.935 129.855c-1.522 3.81-2.722 7.887-6.033 9.909-.467.285.667 2.053 1.131 1.76 3.367-2.068 4.613-6.197 6.168-10.082.216-.535-1.031-2.184-1.274-1.585l.008-.002Z"/><path fill="#20380E" d="M174.557 123.4c-.219 2.187-1.242 4.078-2.036 5.875-1.196 2.683-2.7 4.971-4.432 7.147-.365.469.825 2.157 1.132 1.76 1.679-2.113 3.212-4.317 4.383-6.927.902-2.014 2.022-4.095 2.259-6.561.061-.59-1.234-2.161-1.317-1.308l.011.014ZM171.821 115.345c.451 8.016-3.795 13.752-6.763 19.495-.251.493.976 2.164 1.273 1.585 3.009-5.82 7.259-11.648 6.806-19.772-.036-.617-1.367-2.164-1.316-1.308ZM167.013 119.405c.357 2.367-.901 4.465-1.685 6.2-1.034 2.27-1.669 4.888-3.208 6.709-.387.45.806 2.154 1.133 1.768 1.599-1.885 2.278-4.53 3.35-6.884.904-1.972 2.092-4.153 1.684-6.842-.093-.646-1.442-2.054-1.272-.944l-.002-.007ZM161.961 122.778c-.053 2.255-.832 4.365-1.36 6.374-.433 1.636-1.463 2.788-1.513 4.667-.014.612 1.286 2.166 1.317 1.308.056-2.064 1.349-3.378 1.663-5.303.327-1.978 1.17-3.603 1.218-5.74.016-.604-1.295-2.172-1.317-1.308l-.008.002ZM158.003 124.885c.267 1.805-.405 3.347-.724 4.898-.363 1.753-.761 3.39-1.351 4.996-.204.549 1.049 2.189 1.274 1.585.696-1.898 1.078-3.889 1.551-5.918.343-1.482.78-2.886.521-4.626-.095-.653-1.434-2.056-1.273-.943l.002.008ZM153.858 127.078c-.662 2.824-.548 5.999-.444 9.135.021.621 1.344 2.169 1.316 1.308-.095-3.029-.233-6.132.401-8.858.136-.591-1.125-2.196-1.265-1.587l-.008.002ZM150.722 129.416c.175 1.418-.194 2.648-.377 3.925-.208 1.458-.002 3.078-.342 4.467-.144.593 1.125 2.195 1.274 1.585.374-1.564.159-3.365.419-4.986.214-1.326.479-2.572.297-4.055-.078-.649-1.407-2.046-1.273-.944l.002.008ZM147.227 130.722c-.879 2.859.009 6.528-.822 9.409-.166.572 1.091 2.194 1.273 1.585.84-2.883-.043-6.562.822-9.409.173-.574-1.084-2.196-1.266-1.587l-.007.002ZM142.958 132.536c-.846 2.959-.355 6.571-.556 9.829-.034.6 1.262 2.172 1.317 1.308.191-3.155-.307-6.691.513-9.552.165-.573-1.094-2.203-1.274-1.585ZM138.87 134.973c-.436 2.788 1.005 6.043.723 8.886-.061.59 1.234 2.161 1.317 1.308.283-2.835-1.152-6.1-.723-8.886.09-.572-1.189-2.147-1.317-1.308ZM135.461 136.575c-1.427 2.654-.213 6.43-.169 9.738.012.615 1.329 2.173 1.317 1.308-.044-3.2-1.249-6.903.126-9.461.261-.487-.966-2.158-1.274-1.585ZM131.016 138.807c-.802 2.865-.541 6.456.007 9.813.103.651 1.45 2.052 1.273.943-.508-3.116-.758-6.518-.008-9.179.163-.581-1.102-2.201-1.266-1.587l-.006.01ZM126.969 141.101c.431 1.583-.061 3-.158 4.432-.108 1.56-.031 3.127.483 4.815.235.754 1.538 1.79 1.148.522-.488-1.578-.416-3.221-.262-4.658.143-1.343.472-2.638.064-4.16-.174-.634-1.563-2.034-1.273-.943l-.002-.008ZM123.338 143.247c.306 2.755.293 5.427.607 8.18.05.463.304.937.661 1.287.196.196.714.483.657.029-.306-2.755-.292-5.427-.607-8.18-.048-.455-.302-.93-.661-1.287-.196-.196-.714-.482-.657-.029ZM119.02 145.064c.535 1.492.29 2.825.486 4.264.197 1.404.691 2.831.688 4.199.002.609 1.311 2.169 1.315 1.3.004-1.577-.605-3.21-.74-4.812-.133-1.52-.028-2.846-.592-4.431-.266-.738-1.604-1.783-1.149-.522l-.008.002ZM115.107 146.827c-.084 2.83.543 5.852 1.14 8.814.127.645 1.501 2.056 1.273.943-.571-2.851-1.175-5.737-1.096-8.449.015-.612-1.287-2.174-1.317-1.308ZM111.758 148.508c-.009 2.796.812 5.789.739 8.566-.016.604 1.293 2.164 1.317 1.308.08-2.779-.747-5.762-.739-8.566-.002-.608-1.311-2.168-1.317-1.308ZM108.806 149.784c-.309 2.692.374 5.7.365 8.496.001.608 1.31 2.168 1.316 1.308.01-2.796-.663-5.798-.364-8.496.071-.583-1.216-2.157-1.317-1.308ZM105.494 150.663c.019 2.881.225 5.81-.172 8.522-.08.577 1.189 2.147 1.317 1.308.396-2.712.197-5.651.172-8.522-.003-.616-1.319-2.166-1.317-1.308ZM102.463 151.995c-.194 2.931-.019 6.017-.548 8.802-.116.603 1.159 2.196 1.274 1.585.548-2.881.397-6.04.591-9.079.042-.602-1.26-2.164-1.317-1.308ZM98.988 153.137c.121 3.141-.489 5.97-.802 8.929-.061.589 1.226 2.163 1.317 1.308.313-2.959.923-5.788.802-8.929-.029-.618-1.353-2.166-1.317-1.308ZM95.513 154.462c-.826 2.655-.47 5.907-1.24 8.589-.165.573 1.094 2.203 1.274 1.586.772-2.675.421-5.937 1.24-8.59.175-.566-1.084-2.196-1.274-1.585ZM91.525 155.161c-.772 2.958-1.336 6.018-1.445 9.313-.016.604 1.287 2.174 1.317 1.308.107-3.195.652-6.158 1.401-9.036.154-.587-1.11-2.199-1.273-1.585ZM87.013 155.729c-1.573 2.139-.952 5.737-2.21 8.117-.26.487.967 2.158 1.266 1.587 1.258-2.38.637-5.979 2.21-8.117.303-.413-.88-2.111-1.266-1.587ZM83.174 154.581c-.146 1.118-.083 2.304-.156 3.447-.105 1.468-.63 2.85-.875 4.259-.107.609 1.167 2.194 1.266 1.587.237-1.366.612-2.646.85-4.011.22-1.261.058-2.691.232-3.974.07-.584-1.207-2.152-1.317-1.308ZM79.712 153.687c-.176 2.727-1.041 5.074-1.71 7.516-.155.579 1.102 2.201 1.266 1.587.687-2.538 1.574-4.974 1.753-7.793.042-.602-1.262-2.171-1.317-1.308l.008-.002ZM75.897 151.191c-.453 2.258-1.514 4.092-2.045 6.302-.144.592 1.127 2.203 1.274 1.585.532-2.202 1.592-4.044 2.045-6.302.124-.605-1.143-2.2-1.266-1.587l-.008.002ZM71.536 148.038c.2 2.621-1 4.572-1.673 6.714-.175.567 1.084 2.197 1.266 1.587.7-2.233 1.924-4.263 1.716-6.991-.047-.623-1.384-2.16-1.317-1.308l.008-.002ZM67.461 144.719c.691 2.264-.818 3.895-1.338 5.585-.175.567 1.084 2.197 1.266 1.587.67-2.184 2.102-3.755 1.213-6.648-.228-.756-1.539-1.79-1.149-.522l.008-.002ZM62.75 139.866c.316 1.944-.166 4.009-1.324 5.007-.43.368.73 2.113 1.131 1.76 1.374-1.182 1.837-3.534 1.464-5.832-.103-.651-1.452-2.06-1.273-.943l.002.008ZM59.799 136.147c.376 2.129-.743 4.11-1.795 5.309-.388.441.797 2.147 1.131 1.76 1.265-1.432 2.382-3.596 1.934-6.134-.119-.648-1.467-2.056-1.272-.943l.002.008ZM55.843 131.317c.691 1.589-.82 3.57-1.74 4.087-.47.269.647 2.041 1.133 1.768 1.332-.755 2.694-3.152 1.75-5.323-.183-.424-.487-.936-.9-1.131-.374-.171-.39.292-.249.609l.006-.01ZM51.714 125.139c-.439 1.221-.883 2.485-1.69 3.383-.397.436.788 2.141 1.132 1.76.868-.954 1.354-2.253 1.831-3.558.197-.546-1.056-2.186-1.273-1.585ZM48.038 119.409c.34 1.304-.639 2.351-1.378 2.859-.452.315.688 2.073 1.131 1.76.986-.665 1.95-1.993 1.512-3.674-.116-.457-.418-.961-.802-1.246-.313-.235-.575-.107-.47.302l.007-.001ZM43.763 111.658c.365.948-.652 1.905-1.19 2.173-.48.23.624 2.013 1.132 1.76 1.003-.486 1.804-1.867 1.197-3.417-.167-.427-.499-.95-.892-1.133-.391-.174-.372.296-.248.609l.001.008ZM40.934 105.268c-.283.959-.613 1.896-1.198 2.601-.386.449.807 2.153 1.131 1.76.647-.761 1.03-1.718 1.333-2.774.165-.572-1.092-2.194-1.266-1.587ZM37.79 97.786c-.381.865-1.03 1.476-1.334 2.415-.177.559 1.076 2.199 1.266 1.587.296-.937.953-1.55 1.333-2.415.228-.52-1.013-2.18-1.266-1.587ZM35.218 90.687c-.065.716-.68 1.01-1.188 1.222-.487.198.6 1.985 1.133 1.768.7-.282 1.294-.738 1.382-1.676.051-.596-1.242-2.16-1.317-1.308l-.01-.006ZM33.682 84.65l-.942.605c-.63.407.51 2.166 1.131 1.76l.942-.604c.63-.407-.51-2.165-1.131-1.76Z"/><path fill="#20380E" d="M46.478 121.778C40.52 109.537 34.807 97.055 33.13 84.331c-.933-7.085-.472-13.74 1.772-19.371 2.369-5.953 6.74-10.2 11.586-13.35 4.926-3.203 10.478-5.551 15.711-8.259 5.314-2.759 10.658-5.459 16.13-7.93 8.899-4.004 16.716-9.838 25.726-13.65 7.637-3.232 16.822-5.56 26.439-1.117 6.971 3.221 13.663 8.769 19.686 14.624 13.352 12.978 25.617 30.123 32.068 47.794 2.353 6.46 3.765 13.132 3.408 19.237-.528 8.956-5.316 15.544-10.539 20.567-.143.134-.112.444-.033.675 3.465 9.517 5.557 20.959 4.051 29.268l1.172.3c-3.465-8.558-10.886-16.035-17.992-20.468-.714-.449-1.407.398-1.864.656a185.36 185.36 0 0 1-3.756 2.076c-2.615 1.399-5.262 2.731-7.911 4.054-4.768 2.382-9.436 4.906-14.132 7.42-9.598 5.143-19.419 9.939-29.765 13.708-4.393 1.6-8.922 3.3-13.66 4.106-3.313.562-7.054-.526-10.626-2.379-7.686-3.995-14.693-11.729-20.473-19.142-5.144-6.586-9.948-13.854-13.63-21.352-.436-.898-1.575-.672-1.13.233 3.673 7.491 8.39 14.638 13.46 21.267 5.63 7.34 12.147 14.446 19.466 19.078 3.203 2.024 6.551 3.388 9.8 3.799 4.248.543 8.047-1.101 11.69-2.242 9.912-3.099 19.282-7.33 28.415-11.93 9.847-4.969 19.628-10.114 29.36-15.289a149.75 149.75 0 0 0 3.756-2.076c1.427-.811 2.868.635 4.43 1.818 2.978 2.235 5.728 5.065 8.137 8.143 2.049 2.611 4.06 5.699 5.305 8.759.226.572 1.062.901 1.171.3 1.03-5.655.387-12.392-.831-18.702-.532-2.793-1.3-5.598-2.181-8.384a84.856 84.856 0 0 0-.819-2.418c-.227-.647.873-1.323 1.127-1.591a41.489 41.489 0 0 0 3.08-3.568c2.661-3.437 4.698-7.644 5.706-12.434 2.971-14.025-5.489-32.082-14.252-45.865-9.653-15.191-22.751-30.172-37.033-38.912-2.864-1.753-5.81-3.178-8.762-4.101-4.339-1.356-8.587-.982-12.49-.38-10.138 1.567-18.621 6.982-27.054 11.868-8.21 4.767-17.04 8.495-25.48 12.883-9 4.67-18.966 8.357-25.037 17.182-5.305 7.72-5.873 18.702-3.556 30.182 2.244 11.064 7.434 22.026 12.593 32.613.436.898 1.576.671 1.13-.233l-.022-.02Z"/><path fill="#20380E" d="M32.32 69.435c-.147 11 2.554 21.807 7.532 33.078 3.803 8.612 8.077 16.854 13.433 24.734 9.079 13.35 24.365 31.644 38.1 29.305 4.82-.818 9.391-2.619 13.844-4.25 4.74-1.724 9.353-3.702 13.907-5.79 9.946-4.584 19.354-10.074 29.121-14.957 7.314-3.648 14.424-7.455 21.058-12.185 6.756-4.817 13.663-10.903 17.212-19.319.192-.462.352-.95.504-1.436.244-.774-.97-1.606-1.205-.834-1.553 4.952-4.828 8.683-7.987 12.095-2.978 3.219-6.261 5.96-9.776 8.463-6.67 4.754-13.881 8.519-21.225 12.182-9.769 4.875-19.188 10.352-29.127 14.933a174.986 174.986 0 0 1-14.752 6.023c-4.233 1.504-8.639 3.3-13.308 3.798-6.437.68-13.696-4.266-19.532-9.648-6.34-5.855-11.911-13.017-16.826-20.367-4.901-7.328-8.756-15.027-12.311-22.98-4.904-10.988-7.536-21.61-7.399-32.333.016-.888-1.254-1.398-1.263-.512Z"/></g><defs><clipPath id="a"><path fill="#fff" d="M0 0h460v460H0z"/></clipPath></defs></svg>