<svg xmlns="http://www.w3.org/2000/svg" width="460" height="460" fill="none"><g clip-path="url(#a)"><path fill="#fff" d="M0 0h460v460H0z"/><g fill="#20380E" opacity=".15"><path d="M33.108 37.856a.478.478 0 0 1 .454-.5l2.353-.117a.477.477 0 0 1 .09.95c-.014.003-.029.005-.043.004l-2.354.117a.477.477 0 0 1-.5-.454ZM59.09 49.732c-.493 1.202-1.622 1.91-2.735 2.532-.893.499-1.707.932-2.631 1.175a5.538 5.538 0 0 1-.633.128c-.879.123-1.715.014-2.404-.322-.981-.479-1.747-1.433-2.155-2.69-.351-1.081-.4-2.226-.445-3.237a.48.48 0 0 1 .087-.293c-.845-2.472-2.94-4.19-5.158-6.006-2.333-1.91-4.745-3.886-5.545-6.826-.938-3.442.91-7.545 4.298-9.541 2.944-1.735 6.835-2.015 10.672-.771 1.595.517 5.401 2.108 6.284 5.7.495 2.016-.206 4.452-.885 6.808-.8 2.78-1.628 5.656-.483 7.741.032.06.05.123.056.186.564.694 1.13 1.418 1.508 2.276.486 1.101.546 2.216.167 3.14h.001Zm-5.609 2.783c.815-.215 1.572-.618 2.407-1.085.966-.54 1.94-1.144 2.317-2.06.275-.672.218-1.542-.157-2.391a5.274 5.274 0 0 0-.265-.517c-1.412 1.694-3.503 2.83-5.694 3.138a8.55 8.55 0 0 1-1.738.067.477.477 0 1 1 .063-.954c2.578.172 5.238-1.037 6.813-3.086-.13-.174-.264-.347-.401-.517-2.176 1.7-4.897 2.637-7.76 2.671.042.816.118 1.69.375 2.48.13.402.307.768.52 1.084 2.428-.41 4.8-1.33 6.87-2.661a.478.478 0 1 1 .517.804 19.507 19.507 0 0 1-6.603 2.683c.116.083.236.156.36.217.647.316 1.49.362 2.375.13l.001-.003Zm3.443-16.388c.673-2.339 1.31-4.548.875-6.316-.769-3.125-4.208-4.55-5.65-5.019-3.577-1.16-7.184-.91-9.892.685-3.03 1.786-4.69 5.425-3.862 8.466.722 2.645 2.91 4.439 5.23 6.337 2.246 1.841 4.57 3.743 5.486 6.519.002.008.002.016.005.024 2.685-.044 5.228-.945 7.242-2.563-1.087-2.374-.247-5.3.569-8.132l-.003-.001ZM63.691 38.498a.477.477 0 0 1-.257-.035 10.848 10.848 0 0 0-2.27-.706.48.48 0 0 1 .182-.939 11.85 11.85 0 0 1 2.47.768.479.479 0 0 1-.125.911v.001ZM60.994 28.589a.479.479 0 0 1-.28-.9l1.995-1.006a.478.478 0 1 1 .43.855l-1.996 1.005a.47.47 0 0 1-.148.047v-.001ZM54.914 21.7a.477.477 0 0 1-.457-.749 5.06 5.06 0 0 0 .75-1.604.478.478 0 0 1 .924.248 6.006 6.006 0 0 1-.891 1.907.478.478 0 0 1-.325.198ZM46.026 21.308a.477.477 0 0 1-.536-.39l-.37-2.084a.478.478 0 1 1 .942-.168l.37 2.085a.479.479 0 0 1-.405.557ZM38.508 24.745l-2.027-1.395a.478.478 0 1 1 .542-.787l2.027 1.395a.478.478 0 1 1-.542.787ZM40.143 42.682a.479.479 0 0 1 .684.668 5.086 5.086 0 0 0-1.188 1.957.477.477 0 1 1-.907-.299 6.053 6.053 0 0 1 1.412-2.328l-.001.002Z"/><path d="M50.947 27.161a.479.479 0 0 1-.012-.956c2.028-.026 3.65 1.581 4.358 3.185.742 1.684.792 3.576.836 5.246a.479.479 0 0 1-.411.487c-.017.002-.036.005-.055.004a.478.478 0 0 1-.49-.466c-.041-1.58-.088-3.373-.755-4.885-.58-1.317-1.88-2.636-3.471-2.616v.001ZM52.935 34.394c.424.373.634.973.526 1.494-.136.655-.64 1.224-1.43 1.62a11.317 11.317 0 0 0 2.72 4.798.477.477 0 1 1-.69.66 12.283 12.283 0 0 1-2.926-5.114c-.356.103-.722.17-1.092.204 1.1 2.27 1.48 4.887 1.015 7.374a.478.478 0 0 1-.94-.175c.456-2.441.027-5.02-1.149-7.199a5.79 5.79 0 0 1-1.885-.497c-.3-.138-.678-.341-.938-.703-.316-.438-.354-1.007-.095-1.418.304-.478.978-.666 1.57-.436.444.173.76.513 1.035.855.322.404.617.827.883 1.269a4.89 4.89 0 0 0 1.371-.203c-.039-.195-.073-.39-.102-.588-.169-1.133.17-1.961.907-2.214.415-.144.862-.044 1.222.273h-.002Zm-5.025 2.061c-.221-.275-.413-.476-.635-.563a.506.506 0 0 0-.245-.028c-.078.011-.142.04-.17.086-.048.076-.02.23.062.345.13.18.369.305.563.394.263.121.537.217.818.288a10.416 10.416 0 0 0-.392-.522h-.001Zm3.9.083c.31-.187.637-.468.716-.845.038-.187-.057-.438-.222-.583-.06-.052-.148-.108-.24-.095-.014.001-.025.003-.037.008-.292.101-.347.678-.274 1.171.017.116.036.23.057.344ZM203.731 52.705c-.84.444-1.914.365-2.645-.203-.618-.48-1.456-1.675-.679-3.11.489-.903 1.961-1.522 2.916-1.226.925.286 1.62 1.115 1.728 2.062.108.945-.4 1.944-1.232 2.43l-.086.048h-.002Zm.277-2.359c-.062-.531-.471-1.016-.996-1.178-.28-.087-.727.02-1.098.216-.26.138-.483.32-.585.508-.545 1.007.301 1.705.399 1.782.422.327 1.076.358 1.56.078.478-.279.78-.87.72-1.406Z"/><path d="m220.575 69.635-.09.047c-4.541 2.27-9.412 4.704-14.258 7.113a4.294 4.294 0 0 1-3.367.206 4.308 4.308 0 0 1-2.5-2.279c-.427-.925-.804-1.77-1.144-2.558a.527.527 0 0 1-.356-.006 18.035 18.035 0 0 1-8.226-6.463 18.039 18.039 0 0 1-3.191-9.962.52.52 0 0 1 .18-.4c-.544-.446-.903-1.123-.893-1.846.015-1.254 1.13-2.344 2.385-2.33.599.006 1.199.273 1.645.732.448.459.699 1.067.69 1.666-.013.87-.556 1.659-1.305 2.055a2.275 2.275 0 0 1-1.089.268 2.17 2.17 0 0 1-.561-.085 16.975 16.975 0 0 0 3.001 9.305 16.994 16.994 0 0 0 7.224 5.872 4.331 4.331 0 0 1 1.715-5.083 93.403 93.403 0 0 1 5.645-3.377l-1.108-1.946c-3.116.75-6.548.082-9.066-1.922-2.704-2.151-6.407-7.465-3.131-13.73 2.003-3.835 8.598-6.607 12.599-5.3 4.028 1.317 7.084 5.003 7.604 9.17.457 3.657-1.136 7.474-3.956 9.783l.986 1.891a98.482 98.482 0 0 1 4.924-2.266 4.342 4.342 0 0 1 5.39 1.733 39.922 39.922 0 0 1 2.166 4.079 4.317 4.317 0 0 1-1.912 5.635l-.001-.002ZM189.07 54.827c.673.009 1.32-.618 1.33-1.29.005-.322-.137-.657-.392-.918a1.308 1.308 0 0 0-.906-.414 1.214 1.214 0 0 0-.575.146c-.424.224-.744.675-.75 1.15-.009.673.62 1.318 1.293 1.329v-.003Zm22.868-5.917c-.464-3.713-3.296-7.128-6.889-8.303-1.654-.54-4.027-.275-6.348.713-.36.153-.71.32-1.047.498-1.82.962-3.258 2.253-3.95 3.577-2.957 5.659.404 10.472 2.855 12.424 2.92 2.324 7.399 2.629 10.653.73 3.252-1.9 5.196-5.864 4.725-9.639h.001Zm-3.772 10.279a9.895 9.895 0 0 1-.796.471c-.441.233-.898.431-1.366.596l.995 1.75c.684-.368 1.374-.73 2.07-1.082l-.904-1.736.001.001Zm11.259 1.275a3.289 3.289 0 0 0-4.082-1.312 95.3 95.3 0 0 0-14.338 7.611 3.281 3.281 0 0 0-1.235 4.015 98.414 98.414 0 0 0 1.543 3.503 3.27 3.27 0 0 0 1.895 1.73 3.257 3.257 0 0 0 2.553-.156c4.845-2.41 9.715-4.843 14.256-7.113l.067-.036a3.272 3.272 0 0 0 1.45-4.271 38.588 38.588 0 0 0-2.109-3.97Z"/><path d="M217.247 63.152c-.038.02-.074.038-.113.054-.38.16-.83.155-1.235-.013a1.639 1.639 0 0 1-.896-.88c-.197-.484-.141-1.062.144-1.473a1.03 1.03 0 0 1 .652-.442 1.521 1.521 0 0 1 1.108-.144c.45.107.823.389 1.023.773.193.37.217.826.065 1.247-.139.386-.408.7-.748.88v-.002Zm-.582-1.877a.495.495 0 0 0-.344.031.163.163 0 0 0-.039.025.528.528 0 0 1-.269.099c-.058.072-.119.29-.039.489.053.13.175.243.327.306.148.06.303.067.426.015a.548.548 0 0 0 .282-.323.524.524 0 0 0-.008-.407.506.506 0 0 0-.335-.236h-.001ZM219.626 67.656c-.038.02-.074.038-.113.054-.38.16-.83.155-1.235-.013a1.639 1.639 0 0 1-.896-.88c-.197-.485-.141-1.063.144-1.473.166-.241.397-.395.651-.443a1.535 1.535 0 0 1 1.109-.143c.451.106.823.388 1.023.773.193.37.216.825.065 1.247a1.6 1.6 0 0 1-.748.88v-.002Zm-.582-1.878a.499.499 0 0 0-.345.032c-.013.007-.027.014-.039.024a.526.526 0 0 1-.269.098c-.057.073-.119.29-.038.49a.597.597 0 0 0 .326.305c.148.061.303.067.426.015a.554.554 0 0 0 .283-.322.524.524 0 0 0-.009-.408.5.5 0 0 0-.334-.236l-.001.002ZM203.455 70.44a1.35 1.35 0 0 1-.114.054 1.61 1.61 0 0 1-1.234-.013 1.639 1.639 0 0 1-.896-.88c-.197-.485-.141-1.063.144-1.473a1.03 1.03 0 0 1 .651-.443 1.524 1.524 0 0 1 1.109-.143c.45.107.823.388 1.023.773.193.37.216.825.065 1.247a1.6 1.6 0 0 1-.748.88v-.002Zm-.582-1.878a.499.499 0 0 0-.345.032c-.013.007-.027.014-.038.025a.528.528 0 0 1-.269.098c-.058.073-.119.29-.039.49.053.129.175.242.327.305a.556.556 0 0 0 .426.015.548.548 0 0 0 .282-.322.52.52 0 0 0-.009-.408.501.501 0 0 0-.334-.236l-.001.001ZM205.834 74.943c-.037.02-.074.037-.113.054-.38.16-.83.154-1.235-.013a1.639 1.639 0 0 1-.896-.88c-.196-.484-.14-1.063.144-1.474.167-.24.398-.395.652-.442a1.524 1.524 0 0 1 1.108-.143c.451.106.823.388 1.023.772.193.371.217.826.065 1.248a1.61 1.61 0 0 1-.748.878Zm-.582-1.878a.497.497 0 0 0-.384.055.526.526 0 0 1-.269.099c-.057.072-.118.29-.038.489a.596.596 0 0 0 .327.306.556.556 0 0 0 .426.015.556.556 0 0 0 .282-.323.52.52 0 0 0-.009-.407.5.5 0 0 0-.334-.236l-.001.002ZM201.95 41.095c2.699-.434 5.61.991 6.923 3.39a.524.524 0 0 1-.208.711l-.007.004a.524.524 0 0 1-.705-.212c-1.107-2.021-3.561-3.224-5.836-2.858a.525.525 0 0 1-.167-1.035ZM214.657 49.24a.525.525 0 0 1-.761-.37 12.831 12.831 0 0 0-2.998-6.19.524.524 0 1 1 .785-.695 13.87 13.87 0 0 1 3.245 6.697.525.525 0 0 1-.271.557v.001Z"/><path d="M210.381 40.317a.525.525 0 0 1 .536-.902c3.697 2.2 6.085 6.398 6.082 10.7a.526.526 0 0 1-.525.522.525.525 0 0 1-.524-.524c.002-3.939-2.184-7.785-5.569-9.797v.001ZM189.349 50.011a.524.524 0 0 1-.638-.377 5.749 5.749 0 0 1 1.063-4.928.524.524 0 0 1 .818.656 4.682 4.682 0 0 0-.867 4.012.523.523 0 0 1-.377.638h.001ZM187.521 48.227a.524.524 0 0 1-.765-.396 6.346 6.346 0 0 1 2.007-5.47.525.525 0 0 1 .704.778 5.286 5.286 0 0 0-1.671 4.553.523.523 0 0 1-.275.533v.002ZM192.7 57.953a.525.525 0 0 1 .719.177 6.272 6.272 0 0 0 3.527 2.725.524.524 0 0 1 .094.967.516.516 0 0 1-.394.04 7.333 7.333 0 0 1-4.123-3.186.524.524 0 0 1 .177-.72v-.003ZM196.302 62.978a.525.525 0 0 1-.656.347 8.968 8.968 0 0 1-5.318-4.458.524.524 0 0 1 .221-.703c.003 0 .005-.002.006-.003a.525.525 0 0 1 .706.228 8.014 8.014 0 0 0 4.693 3.934.524.524 0 0 1 .347.656l.001-.001ZM149.987 370.487a2.12 2.12 0 0 1-.109.39l1.022.469a.7.7 0 1 1-.583 1.272l-.986-.452-.002.007c-.06.132-.118.263-.174.392a2.157 2.157 0 0 1-2.083 1.288c-3.197-.138-6.656-1.568-11.892-3.73a421.295 421.295 0 0 0-5.144-2.096l-.003-.003-.003-.001c-11.583-4.737-22.249-10.316-33.538-16.224a1.933 1.933 0 0 1-.401-.219c-.229.503-.102 1.209.21 1.691.469.726 1.262 1.212 2.174 1.728 5.623 3.176 11.652 5.82 17.482 8.376a.7.7 0 1 1-.562 1.281c-5.862-2.571-11.923-5.229-17.608-8.439-1.037-.586-2.02-1.194-2.663-2.187-.673-1.044-.836-2.672.147-3.698a3.59 3.59 0 0 1-.1-.46 4.59 4.59 0 0 1-.043-.707c-.382-.249-.828-.435-1.295-.63-.319-.133-.648-.27-.97-.434-1.317-.666-2.088-1.68-2.118-2.781-.03-1.069.656-1.95 1.109-2.533.488-.628 1.156-1.491 2.191-1.778.824-.229 1.75-.06 2.757.5.274.152.53.318.782.479.276.176.542.346.811.487l.007-.005c1.298-.957 2.709-1.118 4.081-.464 11.004 5.237 21.661 10.88 31.679 16.773a.633.633 0 0 1 .115.041c5.291 2.46 10.159 6.062 14.866 9.547a2.17 2.17 0 0 1 .842 2.121l.002-.001Zm-16.693-10.597c-9.621-5.652-19.831-11.072-30.372-16.124-1.428 1.396-2.413 3.222-3.363 4.993-.442.825-.893 1.767-.605 2.489a.685.685 0 0 1 .049.283c10.437 5.459 20.408 10.609 31.13 15.02 2.133-2.101 2.802-3.285 3.16-6.662l.001.001Zm-36.279-9.389a.807.807 0 0 1 .087.038l.362.19c.01-1.044.539-2.032.862-2.632.88-1.636 1.862-3.465 3.248-4.954-.788-.267-1.575-.116-2.344.45-1.779 1.312-2.917 4.395-2.673 6.076.046.32.164.723.46.831l-.002.001Zm-.19-7.339c-.243-.156-.471-.303-.707-.433-.462-.258-1.133-.532-1.7-.374-.543.151-.983.673-1.46 1.288-.438.565-.83 1.113-.815 1.638.022.834 1.04 1.413 1.35 1.571.277.14.568.26.876.389.312.13.63.261.94.418.313-1.439 1.023-3.001 2.024-4.179a16.732 16.732 0 0 1-.507-.317v-.001Zm37.802 17.377c-.047.386-.099.748-.159 1.09-.406 2.305-1.158 3.662-2.929 5.491 1.524.614 2.917 1.19 4.173 1.708 5.098 2.106 8.467 3.499 11.418 3.626a.769.769 0 0 0 .742-.456l.177-.398c.181-.405.368-.823.519-1.214a.773.773 0 0 0-.258-.895c-4.368-3.232-8.877-6.568-13.684-8.951l.001-.001ZM27.325 273.823c3.807 1.464 7.185 3.007 11.29 5.782a.41.41 0 0 1 .151.49l-17.104 42.814a.41.41 0 0 1-.537.225c-4.047-1.68-7.578-3.807-11.137-6.021a1.719 1.719 0 0 1-.69-2.094 2789.21 2789.21 0 0 0 5.892-15.093c3.207-8.258 6.523-16.798 9.92-25.145a1.732 1.732 0 0 1 2.216-.957v-.001Zm-1.458 1.265c-3.395 8.341-6.71 16.877-9.915 25.133a2812.016 2812.016 0 0 1-5.895 15.097.905.905 0 0 0 .363 1.1c3.417 2.125 6.804 4.169 10.637 5.8l1.506-3.768a.4.4 0 0 1-.249-.082 1.772 1.772 0 0 0-1.288-.336.41.41 0 0 1-.114-.81 2.57 2.57 0 0 1 1.896.494c.013.009.024.021.035.031l.626-1.565a.421.421 0 0 1-.16-.021l-1.56-.533a.408.408 0 1 1 .263-.773l1.561.533a.401.401 0 0 1 .168.11l.533-1.332a.414.414 0 0 1-.31.002l-1.31-.53a.408.408 0 1 1 .307-.758l1.31.53a.406.406 0 0 1 .22.214l.496-1.241-3.276-1.301a.41.41 0 0 1 .301-.761l3.278 1.303.663-1.66a.415.415 0 0 1-.142-.027l-1.063-.411a.41.41 0 0 1 .295-.763l1.063.412c.05.019.092.048.128.081l.46-1.151a.407.407 0 0 1-.326-.049 2.29 2.29 0 0 0-1.066-.351.409.409 0 0 1 .057-.816 3.107 3.107 0 0 1 1.45.477.405.405 0 0 1 .113.108l.014.025.518-1.296c-.004-.002-.009-.004-.013-.008a2.872 2.872 0 0 0-1.33-.533.408.408 0 1 1 .105-.811c.553.072 1.084.27 1.55.574l.433-1.083a.403.403 0 0 1-.26-.038l-1.256-.651a.41.41 0 0 1 .376-.726l1.255.65c.058.03.105.072.14.121l.713-1.781a14.071 14.071 0 0 1-3.095-1.251.41.41 0 0 1 .394-.717c.95.523 1.96.926 3.007 1.202l.516-1.291a.406.406 0 0 1-.37.01l-1.018-.485a.41.41 0 0 1 .351-.738l1.018.485a.413.413 0 0 1 .211.241l.36-.899a.403.403 0 0 1-.214-.042l-.986-.505a.408.408 0 1 1 .374-.727l.986.505a.402.402 0 0 1 .113.087l.393-.982a.42.42 0 0 1-.177-.025l-1.24-.483a.409.409 0 0 1 .296-.761l1.24.482c.06.024.112.061.153.105l.6-1.503a3.652 3.652 0 0 1-1.517-.546.408.408 0 1 1 .44-.688c.376.24.807.389 1.25.432.048.005.09.019.131.038l.516-1.291a.332.332 0 0 1-.099-.013l-2.747-.757a.41.41 0 0 1 .217-.788l2.748.757c.063.017.118.05.165.092l.548-1.371-1.1-.364a.41.41 0 0 1 .256-.777l1.126.373.02.009.345-.864a.399.399 0 0 1-.18-.041l-1.162-.575a.41.41 0 0 1 .362-.733l1.162.575c.038.018.07.042.099.07l.552-1.382-.033-.01-1.312-.526a.41.41 0 0 1 .305-.759l1.312.526.03.015.551-1.379a.436.436 0 0 1-.137-.018l-1.514-.491a.41.41 0 0 1 .251-.778l1.513.491a.39.39 0 0 1 .163.1l.469-1.172-3.081-1.051a.408.408 0 1 1 .263-.773l3.121 1.064.77-1.927c-3.92-2.616-7.182-4.1-10.852-5.512a.91.91 0 0 0-1.165.503l.002.004Z"/><path d="M16.648 307.551a.409.409 0 0 1 .273.509c-.763 2.534-1.787 5-3.041 7.33a.409.409 0 0 1-.72-.389 38.828 38.828 0 0 0 2.979-7.178.408.408 0 0 1 .51-.273l-.001.001ZM28.004 278.277a.41.41 0 0 1 .237.527l-10.444 27.452a.408.408 0 1 1-.763-.291l10.444-27.452a.408.408 0 0 1 .527-.236h-.001ZM338.848 24.975c.379-2.126 1.699-4.112 3.623-5.452 1.922-1.338 4.244-1.888 6.371-1.505a9.414 9.414 0 0 1 2.41.788c2.62 1.26 4.685 3.619 6.595 5.986a364.126 364.126 0 0 1 7.596 9.76c1.183 1.574 2.247 3.144 2.272 5.037.039 2.805-2.176 4.874-4.575 6.692l-.038.03a.738.738 0 0 1-.608.446c-1.353.964-2.894 1.803-4.583 1.528-1.881-.308-3.196-1.92-4.064-2.988-.827-1.016-1.943-2.335-3.236-3.866-8.224-9.728-12.081-14.67-11.763-16.457v.001Zm27.387 14.635c-.019-1.447-.946-2.797-1.976-4.169-.193-.257-.39-.514-.583-.77-.284 3.219-.452 6.469-.501 9.703 1.699-1.394 3.087-2.94 3.062-4.763h-.002Zm-4.551 5.91c.027-4.168.247-8.377.663-12.52.002-.022.008-.041.012-.063a380.847 380.847 0 0 0-2.754-3.55c-.001.026.001.052-.002.079a191.271 191.271 0 0 0-1.032 17.39c1.052-.001 2.103-.61 3.113-1.337Zm-6.689-1.158c.67.825 1.344 1.598 2.104 2.059a192.02 192.02 0 0 1 1.033-17.111.74.74 0 0 1 .813-.659c.034.005.066.012.099.02-.106-.133-.21-.267-.314-.401a.76.76 0 0 1-.161.189 164.15 164.15 0 0 1-3.497 2.762l-1.64 10.949a.76.76 0 0 1-.074.22c.62.74 1.174 1.402 1.637 1.97v.002Zm-3.254-3.885.379.448 1.261-8.423a164.365 164.365 0 0 1-5.2 3.738c1.229 1.48 2.458 2.93 3.561 4.235l-.001.002Zm-11.435-15.253c-.014.23.216 1.333 3.786 5.951.962 1.245 2.04 2.58 3.143 3.921a164.42 164.42 0 0 0 10.399-7.787.732.732 0 0 1 .231-.126c-.39-.49-.779-.979-1.17-1.465-2.282-2.832-4.791-5.648-8.114-6.245-1.742-.313-3.66.147-5.263 1.262-1.603 1.116-2.701 2.754-3.011 4.487l-.001.002ZM388.101 250.676c-2.373-2.376-3.874-5.517-4.342-9.086-.445-3.389.109-6.923 1.565-9.951 2.125-4.425 6.83-7.558 11.984-7.983 4.813-.396 9.882 1.523 13.561 5.131 1.7 1.668 3.771 4.368 3.986 7.767.201 3.187-1.315 6.202-2.753 8.776a58.1 58.1 0 0 1-.905 1.576c-.269.451-.548.899-.842 1.34.458.229.919.505 1.311.898.631.636.921 1.463.793 2.219 1.402 1.305 4.177 3.994 6.867 6.601 2.853 2.766 5.805 5.627 7.091 6.81.49.45 1.789 1.645 1.35 3.054a1.919 1.919 0 0 1-.177.399c-.471.789-1.473 1.139-2.296 1.062-.758-.07-1.765-.641-2.298-.975l-.014-.009c-2.871-1.79-11.1-9.879-13.902-12.984a2.315 2.315 0 0 1-.506.233c-.787.245-1.729.006-2.457-.627-.505-.438-.857-.99-1.16-1.511-5.242 2.718-12.419 1.705-16.856-2.74Zm35.568 16.562c.722.453 1.39.756 1.743.788.45.042 1.014-.164 1.144-.576.134-.431-.192-1-.997-1.74-1.301-1.195-4.257-4.062-7.116-6.833-2.522-2.444-5.118-4.961-6.577-6.33-.115.137-.232.26-.341.374l-1.486 1.568c2.727 3.015 10.886 11.039 13.613 12.739l.016.009.001.001Zm-16.722-13.269c.393.34.883.487 1.247.373.147-.045.288-.135.424-.245a.578.578 0 0 1 .248-.221c.086-.084.17-.171.248-.255l1.49-1.571c.243-.255.493-.52.58-.795.129-.416-.118-.909-.419-1.212-.308-.31-.721-.538-1.149-.742-.71.95-1.504 1.846-2.43 2.629a11.46 11.46 0 0 1-1.136.846c.259.445.535.882.896 1.194l.001-.001Zm-.581-3.009c1.998-1.693 3.382-4.014 4.627-6.247 1.411-2.528 2.774-5.234 2.594-8.077-.148-2.339-1.428-4.804-3.606-6.941-3.42-3.355-8.12-5.139-12.569-4.773-4.349.358-8.341 2.812-10.453 6.352-.177.297-.342.603-.492.915-2.875 5.984-1.834 13.218 2.532 17.59 4.661 4.668 12.614 5.209 17.368 1.18l-.001.001Z"/><path d="M387.683 232.831c1.677-3.584 5.474-6.073 9.676-6.348 3.908-.253 8.054 1.372 11.092 4.348 1.407 1.378 3.129 3.603 3.352 6.379.209 2.605-.983 5.032-2.116 7.103-.265.486-.539.977-.829 1.462-.83 1.391-1.793 2.743-3.08 3.825-4.213 3.543-11.345 2.963-15.577-1.268-3.92-3.921-4.956-10.296-2.519-15.503l.001.002Zm17.28 15.798c1.568-1.32 2.644-3.156 3.611-4.924 1.093-1.998 2.146-4.137 1.964-6.394-.149-1.86-1.206-3.839-2.976-5.572-2.784-2.729-6.569-4.219-10.121-3.988-3.433.223-6.556 2.092-8.197 4.841a8.46 8.46 0 0 0-.411.777c-2.215 4.733-1.282 10.516 2.268 14.067 3.784 3.785 10.131 4.331 13.86 1.194l.002-.001Z"/><path d="M396.24 230.231c1.869-.918 4.273-.809 6.43.292 2.126 1.084 3.703 2.922 4.704 4.209a.632.632 0 0 1-.111.891.635.635 0 0 1-.891-.111c-1.473-1.895-2.834-3.12-4.279-3.858-1.803-.92-3.782-1.027-5.294-.285a.633.633 0 1 1-.559-1.138ZM442.512 402.788c1.738 1.189 2.66 3.316 2.294 5.293-.409 2.212-2.549 3.95-4.578 3.723-.733-.084-1.358-.376-1.959-.659a12.511 12.511 0 0 0-.688-.309c-.362-.145-1.266-.432-1.837.01-.674.522-.533 1.791.024 2.648.233.36.515.697.813 1.055.561.672 1.141 1.366 1.452 2.281.601 1.766-.14 3.899-1.638 5.029 1.2.701 2.21 1.612 2.777 2.572 2.251 3.811 1.007 9.793-3.8 18.291a.748.748 0 0 1-.353.314c-2.169.912-7.114-.854-10.614-2.876a19.457 19.457 0 0 1-2.191-1.448c-1.375-1.07-1.985-1.989-1.861-2.81.299-1.99 6.012-13.634 9.789-15.059 1.39-.526 3.118-.33 4.718.28a.761.761 0 0 1 .222-.168c1.262-.61 2.009-2.351 1.565-3.653-.224-.657-.693-1.22-1.191-1.815-.313-.375-.638-.765-.918-1.198-.925-1.429-1.062-3.542.311-4.603.834-.644 1.997-.719 3.274-.211.267.107.523.228.769.343.518.243 1.007.474 1.5.53 1.283.145 2.7-1.063 2.973-2.535.259-1.394-.433-2.964-1.681-3.819-1.148-.787-2.728-1.056-4.447-.762a.731.731 0 1 1-.247-1.441c2.096-.361 4.059-.007 5.521.996l.001.001Zm-11.85 19.425c-2.847 1.075-8.551 11.867-8.857 13.898.002.171.435.932 2.323 2.162 3.497 2.279 8.337 3.927 10.111 3.486 4.415-7.871 5.617-13.296 3.676-16.583-.442-.748-1.283-1.481-2.279-2.054-.005.011-.006.023-.012.034l-3.302 7.67a.733.733 0 0 1-1.345-.578l3.303-7.67c.012-.028.03-.053.045-.079-1.285-.491-2.643-.67-3.661-.285l-.002-.001ZM366.634 331.898a.638.638 0 0 1-.017-.243l.343-2.6a15.284 15.284 0 0 0-2.756-.19.618.618 0 0 1-.027-1.234c1.105-.024 2.2.064 3.279.257a.58.58 0 0 1 .286-.032.63.63 0 0 1 .334.156c.576.126 1.146.28 1.708.467a.619.619 0 0 1-.285 1.196.717.717 0 0 1-.104-.025c-.403-.135-.81-.25-1.221-.351l-.332 2.517a.604.604 0 0 1-.024.102c.066.004.131.004.197.01 4.275.266 7.89 2.105 10.745 5.467 1.832 2.158 2.962 5.176 3.455 9.227.476 3.91.037 7.02-1.343 9.507-1.27 2.288-3.24 3.828-4.993 4.824a10.066 10.066 0 0 1 1.424 3.11c.12.458.218 1.052-.096 1.58-.478.801-1.506.815-1.947.821a5.689 5.689 0 0 1-.938-.05c-.573-.085-1.214-.313-1.591-.909-.236-.375-.292-.774-.342-1.128a7.936 7.936 0 0 0-.043-.282 2.604 2.604 0 0 0-.643-1.279.64.64 0 0 1-.209.008.609.609 0 0 1-.189-.062c-2.349.58-4.794.696-7.149.345a17.136 17.136 0 0 1-4.437-1.284 16.406 16.406 0 0 1-1.939-1.03.607.607 0 0 1-.312.44 2.589 2.589 0 0 0-1.077 1.151 5.543 5.543 0 0 0-.116.26c-.139.321-.298.687-.603.977-.509.485-1.145.527-1.68.447-.347-.052-.649-.155-.847-.222-.355-.12-1.296-.44-1.485-1.354-.119-.574.124-1.104.351-1.5a10.133 10.133 0 0 1 2.42-2.866l.041-.027c-2.066-2.166-3.543-4.86-4.15-7.743-1.077-5.116.652-10.647 4.402-14.092 1.95-1.793 6.592-4.276 11.912-4.371l-.002.005Zm6.924 31.97c.022.112.037.225.053.338.036.252.069.49.163.639.224.355.905.392 1.471.384.517-.006.82-.079.903-.219.091-.152-.005-.516-.037-.637a8.78 8.78 0 0 0-1.336-2.847l-.183.088c-.562.259-1.136.487-1.72.687.342.463.581 1 .686 1.567Zm-18.354-4.778a8.924 8.924 0 0 0-2.123 2.515c-.064.111-.254.447-.214.64.032.153.245.291.674.436.689.233 1.073.248 1.282.05.124-.119.22-.34.322-.574.044-.103.09-.207.138-.308a3.84 3.84 0 0 1 1.565-1.678 16.712 16.712 0 0 1-1.514-1.226.628.628 0 0 1-.128.146l-.002-.001Zm-2.392-5.404.682-.433a.617.617 0 0 1 .661 1.04l-.732.464a15.617 15.617 0 0 0 2.695 3.238l.723-1.074a.616.616 0 1 1 1.023.688l-.798 1.186a15.362 15.362 0 0 0 3.156 1.902 15.56 15.56 0 0 0 3.103 1.006 3.794 3.794 0 0 0 .176-1.687.617.617 0 0 1 1.223-.154 4.999 4.999 0 0 1-.171 2.054c2.051.279 4.172.181 6.222-.296l-.447-1.58a.617.617 0 0 1 1.186-.336l.451 1.595a17.07 17.07 0 0 0 2.107-.805c.795-.368 1.718-.87 2.62-1.537l-.986-.798a.616.616 0 1 1 .776-.958l1.096.888c.03.024.056.051.081.079.805-.726 1.554-1.596 2.133-2.64.723-1.303 1.157-2.814 1.31-4.56l-1.667.017a.617.617 0 0 1-.012-1.234l1.74-.018a22.024 22.024 0 0 0-.173-2.964 25.062 25.062 0 0 0-.656-3.469l-1.353.527a.619.619 0 0 1-.798-.352.617.617 0 0 1 .352-.798l1.438-.559c-.542-1.567-1.255-2.869-2.153-3.927a16.892 16.892 0 0 0-.679-.747l-.915 1.358a.614.614 0 0 1-.855.167.614.614 0 0 1-.167-.855l.928-1.381a.63.63 0 0 1 .13-.137c-1.854-1.649-3.986-2.718-6.373-3.19l-.208 2.164a.617.617 0 0 1-1.228-.118l.215-2.232a14.574 14.574 0 0 0-.728-.063c-3.105-.191-6.068.572-8.396 1.587l.518.92a.615.615 0 1 1-1.074.604l-.562-.996c-1.242.638-2.234 1.322-2.868 1.904-.14.128-.277.261-.409.397a.603.603 0 0 1 .173.182l.641 1.036a.617.617 0 0 1-1.049.649l-.59-.952c-1.497 1.836-2.489 4.089-2.888 6.462l1.807-.024a.618.618 0 0 1 .017 1.235l-1.882.024a.746.746 0 0 1-.095-.006 13.785 13.785 0 0 0 .244 3.93 14.22 14.22 0 0 0 1.285 3.579v-.002Z"/><path d="M366.033 345.291a1.69 1.69 0 0 1 .418-.095.616.616 0 0 1-.062-.465 18.1 18.1 0 0 0 .601-4.666.618.618 0 0 1 1.234-.003 19.324 19.324 0 0 1-.643 4.984.616.616 0 0 1-.242.346c.067.04.132.083.193.135l1.35 1.135a.621.621 0 0 1 .217.411c.025.257-.003.516-.074.767a.625.625 0 0 1 .174-.034c1.81-.05 3.614.171 5.358.655a.616.616 0 1 1-.33 1.189 16.918 16.918 0 0 0-4.995-.611.615.615 0 0 1-.599-.423c-.05.064-.105.127-.161.187-.458.484-1.077.746-1.695.717a1.812 1.812 0 0 1-.207-.02 2.241 2.241 0 0 1-1.417-.847c-.414-.523-.585-1.172-.47-1.782a2.128 2.128 0 0 1 1.349-1.585l.001.005Zm.087 2.6c.19.238.455.387.712.4.257.011.535-.114.745-.335.15-.158.25-.35.284-.541l-1.122-.945c-.068-.057-.166-.063-.293-.018a.911.911 0 0 0-.551.654c-.048.253.036.547.225.785ZM383.92 337.969a3.384 3.384 0 0 1-2.348.522 3.396 3.396 0 0 1-1.631-.721c-1.741-1.397-3.466-2.861-5.141-4.282-.594-.504-1.331-1.13-1.659-2.029-.307-.846-.175-1.769.374-2.597.684-1.032 1.91-1.739 3.123-1.801 1.658-.084 3.38.674 5.266 2.319 1.859 1.622 2.982 3.218 3.431 4.875l.017.065c.368 1.419-.195 2.851-1.43 3.651l-.002-.002Zm.237-3.341-.013-.049c-.384-1.418-1.382-2.814-3.051-4.271-1.329-1.158-2.527-1.812-3.641-1.978a3.745 3.745 0 0 0-.752-.038c-.823.043-1.689.544-2.156 1.25-.232.349-.462.892-.243 1.494.215.592.79 1.081 1.303 1.517 1.662 1.41 3.381 2.868 5.109 4.254.898.721 1.9.538 2.538.125.623-.403 1.187-1.219.906-2.304ZM349.524 330.645c.871-1.462 2.327-2.674 4.45-3.703 2.166-1.05 3.937-1.288 5.414-.732 1.05.398 1.921 1.358 2.27 2.509.298.979.17 1.931-.362 2.68-.547.77-1.388 1.163-2.063 1.479-1.894.885-3.852 1.8-5.806 2.646a3.103 3.103 0 0 1-1.7.237c-.694-.104-1.344-.455-1.858-1.034-.999-1.124-1.149-2.705-.379-4.029l.031-.053h.003Zm1.269 3.264c.569.638 1.369.82 2.145.484 1.937-.839 3.887-1.75 5.773-2.632.572-.267 1.22-.57 1.58-1.075.412-.58.295-1.255.188-1.605-.238-.781-.837-1.453-1.527-1.714a3.178 3.178 0 0 0-.666-.173c-1.026-.153-2.27.131-3.773.86-1.926.933-3.175 1.959-3.928 3.224l-.026.043a2.184 2.184 0 0 0 .235 2.589l-.001-.001ZM46.13 388.309c-2.946-2.081-6.314-2.917-9.491-2.357-5.785-.286-11.585 2.635-14.796 7.455-3.225 4.84-3.675 11.353-1.148 16.59 1.606 3.33 4.364 6.037 7.65 7.694.03.035.065.068.104.097a.614.614 0 0 0 .314.108 16.45 16.45 0 0 0 5.6 1.527l.03.003c4.208.355 8.56-.946 11.94-3.57 5.617-4.361 8.106-12.438 5.919-19.204a16.468 16.468 0 0 0-6.12-8.344l-.002.001Zm-24.343 21.16c-2.344-4.859-1.924-10.9 1.066-15.39 1.688-2.533 4.148-4.5 6.938-5.682.903.688 2.74 2.089 3.34 3.124.487.841.711 2.14.048 2.997-.117.152-.269.305-.43.467-.447.454-1.006 1.019-.98 1.84.02.603.349 1.043.638 1.432.156.21.306.409.375.598.221.595-.31 1.338-.924 1.635-.683.328-1.494.352-2.355.377l-.3.009c-.979.032-2.117.129-3.146.594-1.179.532-2.021 1.497-2.253 2.582-.286 1.343.466 2.743 1.68 3.117.276.086.56.117.81.143.341.038.636.068.786.212.2.189.155.525.019 1.194-.107.517-.227 1.103-.085 1.679.205.829.852 1.315 1.423 1.743.334.25.648.487.85.765.35.479.421 1.209.19 1.949-.179.571-.502 1.106-.853 1.623-2.933-1.548-5.39-4.004-6.838-7.005l.001-.003Zm12.707 8.746-.028-.002a15.233 15.233 0 0 1-4.734-1.21c.358-.54.701-1.132.906-1.791.345-1.106.207-2.237-.367-3.026-.31-.424-.712-.727-1.103-1.019-.468-.351-.872-.655-.973-1.064-.076-.309.01-.733.095-1.144.15-.733.338-1.644-.37-2.316-.448-.426-1.027-.489-1.492-.54a3.272 3.272 0 0 1-.584-.096c-.605-.187-1.003-.983-.85-1.703.152-.709.736-1.354 1.564-1.728.835-.377 1.786-.457 2.69-.489l.293-.008c.95-.027 1.932-.056 2.848-.496 1.13-.544 2.013-1.872 1.536-3.153-.131-.354-.35-.645-.541-.902-.21-.28-.39-.522-.397-.743-.009-.28.232-.544.63-.946.18-.181.364-.368.528-.579 1.012-1.309.75-3.128.04-4.35-.551-.95-1.747-1.994-3.048-3.012a15.323 15.323 0 0 1 5.51-.73.675.675 0 0 0 .143-.009 9.87 9.87 0 0 1 2.625-.117c.818.07 1.635.24 2.434.494-.865.845-1.309 2.368-1.134 3.504.016.109.035.222.053.335.153.94.31 1.91-.146 2.544-.293.407-.825.651-1.437.906-.643.267-1.443.599-1.965 1.279a2.174 2.174 0 0 0-.423 1.603c.067.458.295.848.643 1.099.677.491 1.481.32 2.127.184l.123-.026c.468-.098.888-.045.975.123.035.068.05.198.064.336.02.184.041.391.123.609.167.447.5.77.965.933.795.279 1.807.012 2.457-.377l.243-.146c.673-.411 1.37-.836 1.871-.598.227.108.32.334.356.506.083.387-.031.863-.28 1.156-.524.618-1.413.872-2.355 1.101-1.029.248-2.194.528-3.017 1.385a2.707 2.707 0 0 0-.72 2.141c.074.618.378 1.128.86 1.436.348.223.745.32 1.096.405.432.104.699.18.77.34.068.158-.098.469-.372.695-.121.101-.258.194-.403.294-.317.218-.676.464-.947.835-.351.478-.488 1.095-.387 1.732.126.797.599 1.557 1.265 2.034 1.02.732 2.294.88 3.347.983l-.011.008c-3.142 2.44-7.185 3.65-11.091 3.32h-.005Zm11.897-3.995a.605.605 0 0 0-.543-.529c-.98-.094-2.091-.2-2.89-.774a1.995 1.995 0 0 1-.775-1.238c-.035-.223-.035-.548.168-.823.15-.205.395-.373.655-.553.16-.111.326-.225.487-.358.555-.457 1.073-1.286.712-2.116-.316-.725-1.025-.897-1.596-1.035-.282-.069-.549-.134-.726-.247-.217-.139-.287-.379-.309-.555a1.501 1.501 0 0 1 .387-1.156c.579-.602 1.52-.828 2.427-1.048 1.1-.265 2.237-.599 2.995-1.495a2.646 2.646 0 0 0 .541-2.196c-.133-.62-.496-1.098-1.022-1.348-1.096-.519-2.166.133-3.026.658l-.233.141c-.466.278-1.082.396-1.431.274-.153-.055-.2-.137-.229-.211a1.473 1.473 0 0 1-.054-.316c-.025-.22-.053-.492-.19-.761-.36-.699-1.222-.982-2.304-.756l-.127.026c-.452.097-.92.196-1.161.021-.083-.059-.135-.158-.154-.29a.956.956 0 0 1 .185-.689c.323-.421.906-.663 1.468-.896.606-.252 1.438-.598 1.956-1.319.75-1.041.542-2.32.359-3.447-.019-.11-.035-.218-.052-.325-.139-.903.35-2.342 1.1-2.673a.613.613 0 0 0 .182-.127c3.525 1.592 6.575 4.867 7.901 8.972 1.927 5.963-.05 13.017-4.703 17.195l.002-.006Z"/><path d="M50.97 430.952c-.137-2.06-1.853-3.673-3.912-3.669-2.59.003-5.16.084-7.694.238a35.044 35.044 0 0 1-.049-2.38c.009-.973.013-1.561-.332-3.65a.609.609 0 0 0-.698-.501.62.62 0 0 0-.33.171c-1.327.191-2.67.226-4 .111-5.216-.452-10.239-3.172-13.317-7.437-3.924-5.436-4.47-13.08-1.36-19.017 3.113-5.94 9.706-9.843 16.409-9.712a.608.608 0 0 0 .024-1.215c-7.152-.139-14.189 4.026-17.507 10.363-3.32 6.338-2.737 14.492 1.45 20.293 3.284 4.551 8.644 7.453 14.21 7.934 1.342.116 2.696.091 4.035-.084.215 1.419.211 1.917.204 2.733-.004.563-.01 1.261.052 2.472-2.231.159-4.433.371-6.589.647a3.892 3.892 0 0 0-2.818 1.81 3.842 3.842 0 0 0-.383 3.288l.016.049a.608.608 0 0 0 .616.41c7.087-.48 14.413-.976 21.473-1.639a.604.604 0 0 0 .547-.665 16.86 16.86 0 0 1-.045-.551l-.003.001Zm-21.56 1.608a2.683 2.683 0 0 1 2.306-3.106c4.93-.629 10.092-.951 15.342-.958a2.714 2.714 0 0 1 2.696 2.517c-6.695.618-13.623 1.091-20.346 1.547h.002ZM242.15 110.13c6.515-.947 12.971-3.155 19.186-6.561l.043-.026a.662.662 0 0 0 .296-.643 24.29 24.29 0 0 0-3.372-9.462.664.664 0 0 0-.702-.3c-6.322 1.348-12.778 3.497-19.19 6.386a.664.664 0 0 0-.379.724c.654 3.542 1.815 6.759 3.451 9.561.136.233.4.36.667.321Zm-2.718-9.612c6.012-2.673 12.057-4.686 17.983-5.985a22.995 22.995 0 0 1 2.882 8.093c-5.81 3.13-11.825 5.189-17.891 6.127-1.367-2.442-2.365-5.207-2.972-8.235h-.002ZM264.613 110.31l-18.002 6.393a.663.663 0 0 0 .442 1.248l18.002-6.394a.665.665 0 0 0 .402-.846.662.662 0 0 0-.845-.402l.001.001ZM267.06 114.536l-19.578 7.365a.66.66 0 0 0-.386.853.66.66 0 0 0 .853.386l19.579-7.366a.662.662 0 0 0-.467-1.237l-.001-.001ZM343.065 102.966c5.898-3.455 11.683-6.453 17.806-9.626l.6-.31c2.693-1.396 5.806-1.9 8.764-1.424 2.956.478 5.719 1.023 8.393 1.55 2.773.546 5.64 1.11 8.717 1.6 1.043.165 1.834.844 2.065 1.769.228.91-.143 1.86-.964 2.481l-.163.124c-.91.686-1.799 1.356-2.677 2.015l1.682 11.155c.168 1.109.375 2.488-.235 3.827-.859 1.88-3.135 3.205-4.797 4.173l-.23.133c.457.209.866.52 1.186.912.621.76.875 1.789.681 2.751a5.687 5.687 0 0 1-.178.636c-.071.222-.14.433-.161.629-.097.825.54 1.651 1.204 2.426a.648.648 0 0 1-.358 1.058l-.03.006c-2.021.331-4.179-.744-5.132-2.555-.691-1.309-.705-2.917-.127-4.269-.342.18-.701.368-1.078.563a28.894 28.894 0 0 1-7.286 2.599c-3.079.655-6.26.814-9.363.446-.892-.106-1.78-.219-2.668-.331-1.816-.231-4.302-.547-5.787-1.935-1.05-.981-1.415-2.324-1.709-3.401l-3.023-11.111a.613.613 0 0 1-.01-.285l-4.594-1.225c-.994-.266-1.69-1.008-1.815-1.941-.13-.96.364-1.893 1.291-2.437l-.004-.003Zm37.321 22.722c.497.944 1.481 1.629 2.54 1.846-.452-.693-.765-1.465-.663-2.327.038-.319.132-.613.215-.872.057-.176.109-.341.141-.497a2.053 2.053 0 0 0-.413-1.669 2.058 2.058 0 0 0-1.194-.703 1.004 1.004 0 0 1-.043.049c-1.022 1.07-1.275 2.865-.585 4.174l.002-.001Zm5.485-10.101c.45-.987.289-2.059.134-3.094l-1.58-10.466c-2.167 1.611-4.287 3.145-6.487 4.626.539 2.902 2.168 9.748 3.034 12.884l.632-.361c1.511-.881 3.582-2.085 4.267-3.589Zm-33.398 4.035c.275 1.015.561 2.063 1.343 2.793 1.177 1.102 3.423 1.387 5.063 1.594.884.112 1.769.226 2.657.33 5.397.641 11.044-.39 15.897-2.907.884-.459 1.675-.876 2.369-1.251-.814-2.884-2.385-9.437-3.038-12.75a99.189 99.189 0 0 1-5.097 3.131 14.34 14.34 0 0 1-4.144 1.581c-2.137.454-4.36.416-6.456-.142l-11.5-3.066 2.909 10.686-.003.001Zm-8.548-13.536 17.474 4.659c3.18.848 6.686.371 9.62-1.31a101.509 101.509 0 0 0 5.261-3.24c-3.273-1.85-6.613-3.531-9.85-5.16l-.003.001a.65.65 0 1 1 .586-1.163c3.435 1.728 6.987 3.515 10.467 5.507.003.001.005.004.007.007 3.355-2.271 6.536-4.672 10.011-7.296l.163-.124c.405-.305.586-.728.486-1.128-.104-.417-.481-.717-1.008-.8-3.099-.492-5.979-1.06-8.764-1.608-2.661-.525-5.416-1.066-8.349-1.542-2.685-.434-5.512.026-7.958 1.294l-.601.312c-6.108 3.164-11.878 6.154-17.746 9.593-.473.278-.72.703-.661 1.141.056.408.377.729.862.858l.003-.001ZM52.152 159.985a2.09 2.09 0 0 1-.933 1.517c-.78.493-1.744.487-2.478.466l-.106-.003-35.336-1.068c-.891-.027-2.001-.061-2.925-.601-.977-.572-1.67-1.87-1.08-2.971a.492.492 0 0 1 .188-.194c.718-1.679 3.284-7.647 4.527-10.12l.515-17.892a2.992 2.992 0 0 1 3.073-2.901l28.004.806a2.99 2.99 0 0 1 2.9 3.072l-.518 18.045c.525 1.269 1.053 2.78 1.61 4.379.795 2.279 1.617 4.636 2.437 6.255.07.137.07.296.005.433.101.233.143.497.117.777Zm-41.278-.542c.707.414 1.635.441 2.456.466l35.336 1.068c.799.022 1.506.018 2.025-.31.257-.163.448-.473.477-.775a.513.513 0 0 0-.106-.396 575.998 575.998 0 0 1-40.986-1.209c.045.448.384.914.798 1.156Zm16.68-5.144a20.674 20.674 0 0 1-1.202 3.826c3.307.122 6.616.216 9.923.281l-1.706-3.911a303.877 303.877 0 0 0-7.014-.195v-.001Zm19.958-24.231a2 2 0 0 0-1.941-2.056l-28.004-.806a2.002 2.002 0 0 0-2.056 1.942l-.508 17.673 32.001.92.508-17.673Zm1.147 22.778c-.522-1.494-1.017-2.912-1.503-4.111l-32.436-.933c-1.234 2.523-3.469 7.709-4.245 9.521 4.92.317 9.863.572 14.816.763a19.757 19.757 0 0 0 1.256-3.803c-3.236-.042-6.47-.034-9.687.025h-.024a.495.495 0 0 1 .006-.989c8.651-.161 17.415.049 26.05.623a.493.493 0 1 1-.067.985 312.865 312.865 0 0 0-7.156-.39l1.695 3.886c4.49.079 8.975.108 13.442.083-.731-1.606-1.45-3.664-2.147-5.663v.003Z"/><path d="m17.13 128.305 28.121.809a1.184 1.184 0 0 1 1.148 1.216l-.417 14.507a1.183 1.183 0 0 1-1.216 1.148l-28.12-.808a.495.495 0 0 1-.48-.509l.456-15.884a.495.495 0 0 1 .509-.48v.001Zm.038 15.899 27.627.795a.195.195 0 0 0 .2-.189l.416-14.507a.194.194 0 0 0-.188-.2l-27.627-.794-.428 14.896v-.001ZM36.027 84.24l-4.345 2.27.841-4.82-3.504-3.42 4.85-.7 2.158-4.373 2.158 4.372 4.82.7-3.475 3.42.813 4.821-4.316-2.27ZM423.384 198.008c-4.611-2.114-8.985-4.079-13.216-5.98-6.725-3.02-13.077-5.874-20.177-9.226-.044-.023-.087-.043-.132-.065a4.335 4.335 0 0 1-2.386-3.705 4.347 4.347 0 0 1 2.145-4.004 873.461 873.461 0 0 1 7.187-4.234c3.27-1.911 6.416-3.753 9.525-5.649l-.019-.046c.07-.029.143-.051.217-.075 1.41-.861 2.812-1.732 4.213-2.627 2.268-3.936 5.281-10.55 7.284-15.282l-.051-.027a2.365 2.365 0 0 1-1.029-3.179 2.366 2.366 0 0 1 3.179-1.03l13.715 7.008a2.366 2.366 0 0 1 1.029 3.18 2.368 2.368 0 0 1-2.506 1.254 486.676 486.676 0 0 0-1.851 4.013c-1.606 3.503-3.596 7.848-5.433 11.463.435 2.391.814 4.621 1.183 6.781.921 5.403 1.791 10.508 3.241 16.353a4.384 4.384 0 0 1-1.467 4.466 4.371 4.371 0 0 1-4.647.611h-.004Zm9.816-46.873-13.715-7.008a.964.964 0 0 0-.876 1.715l13.715 7.008a.964.964 0 0 0 .876-1.715Zm-9.544 18.679-.043-.232.108-.212c1.854-3.628 3.884-8.059 5.516-11.62.684-1.493 1.298-2.834 1.831-3.971l-11.793-6.026c-2.046 4.824-5.114 11.545-7.409 15.493l-.085.146-.143.092a224.91 224.91 0 0 1-2.466 1.555c.879.284 1.67.838 2.187 1.604.395.586.613 1.224.827 1.842.075.22.147.428.227.633.319.831.703 1.336 1.173 1.553.693.318 1.622.013 2.519-.28l.161-.052c1.686-.549 2.967-.434 3.808.341.534.494.762 1.145.962 1.721.092.263.178.511.285.728.287.576.847 1.03 1.537 1.244a2.644 2.644 0 0 0 1.606.006 482.206 482.206 0 0 0-.805-4.563l-.003-.002Zm4.484 23.453c-1.464-5.895-2.338-11.026-3.262-16.455l-.179-1.046a4.08 4.08 0 0 1-2.258-.057c-1.055-.328-1.919-1.042-2.375-1.958a7.452 7.452 0 0 1-.355-.892c-.167-.48-.311-.896-.588-1.15-.441-.406-1.256-.42-2.425-.039l-.159.052c-1.045.342-2.344.767-3.536.223a2.208 2.208 0 0 1-.11-.052c-.765-.391-1.351-1.135-1.788-2.269-.088-.229-.167-.46-.243-.683-.192-.556-.372-1.081-.665-1.515-.653-.968-1.961-1.426-3.085-1.118-3.136 1.913-6.307 3.769-9.602 5.696-2.341 1.369-4.763 2.785-7.176 4.228a2.966 2.966 0 0 0-1.464 2.734 2.97 2.97 0 0 0 1.718 2.57c7.088 3.348 13.435 6.198 20.153 9.216 4.232 1.902 8.61 3.868 13.227 5.986a2.947 2.947 0 0 0 3.171-.416 2.956 2.956 0 0 0 1.001-3.052v-.003Z"/><path d="M404.181 176.431a2.981 2.981 0 0 1-1.296-4.005 2.981 2.981 0 0 1 4.005-1.296 2.981 2.981 0 0 1 1.296 4.005 2.981 2.981 0 0 1-4.005 1.296Zm2.071-4.052a1.578 1.578 0 0 0-2.121.686 1.576 1.576 0 1 0 2.121-.686ZM417.164 185.619a2.287 2.287 0 0 1-.995-3.074 2.29 2.29 0 0 1 3.075-.997 2.286 2.286 0 0 1-2.08 4.071Zm1.443-2.824a.886.886 0 0 0-.806 1.577.887.887 0 0 0 1.19-.385.888.888 0 0 0-.384-1.192ZM417.486 163.649a2.287 2.287 0 0 1-.995-3.074 2.288 2.288 0 0 1 3.075-.996 2.287 2.287 0 0 1-2.08 4.07Zm1.443-2.824a.886.886 0 0 0-.806 1.577.886.886 0 0 0 .806-1.577ZM425.731 158.036a2.287 2.287 0 0 1-.995-3.074 2.288 2.288 0 0 1 3.075-.997 2.287 2.287 0 0 1-2.08 4.071Zm1.443-2.824a.886.886 0 0 0-.806 1.577.889.889 0 0 0 1.192-.385.889.889 0 0 0-.386-1.192ZM406.197 37.175c-5.539 3.103-9.56 8.219-11.03 14.034-1.369 5.408-.484 10.978 2.488 15.686a20.746 20.746 0 0 0 1.612 2.21c4.345 5.212 11.013 8.056 17.901 8.056 4.136 0 8.354-1.025 12.193-3.176 5.539-3.103 9.56-8.218 11.03-14.034 1.369-5.408.484-10.978-2.488-15.686-6.394-10.12-20.617-13.3-31.706-7.09Zm33.391 16.254a.676.676 0 0 0-.687.034l-5.619 3.69c-1.169-.215-2.694-.643-4.336-1.216a.687.687 0 0 0-.571.059 74.19 74.19 0 0 0-1.255-3.49c-.433-1.141-.878-2.321-1.265-3.52 1.627-1.533 3.311-3.118 4.579-4.676.099-.12.15-.269.154-.421l5.307.172h.022c.062 0 .12-.01.177-.027.227.315.445.636.653.965a18.615 18.615 0 0 1 2.841 8.43Zm-17.424 9.523c-1.223-.298-2.682-.552-4.097-.798-1.634-.284-3.32-.578-4.665-.938-.008-.013-.02-.025-.03-.037l-.283-.732c-.984-2.544-1.547-3.997-2.487-6.867a196.438 196.438 0 0 0 4.082-3.932c.722-.709 1.467-1.441 2.216-2.163.408.068.816.132 1.215.194 2.179.34 4.242.66 6.396 1.613.405 1.274.875 2.508 1.329 3.704.443 1.167.902 2.37 1.294 3.598-.932 1.317-1.758 2.314-2.556 3.28-.759.916-1.539 1.86-2.416 3.08l.002-.002Zm12.845-20.293-4.778-.154c-.032 0-.062.003-.092.006l-1.764-4.896c2.519 1.217 4.788 2.91 6.632 5.044h.002Zm-16.606-7.294c2.889 0 5.735.532 8.364 1.551a.683.683 0 0 0 .028.343l2.334 6.48c-1.182 1.394-2.714 2.838-4.199 4.237-2.276-.98-4.473-1.322-6.603-1.655-.424-.065-.857-.135-1.291-.207a35.695 35.695 0 0 0-2.09-5.769l3.129-4.682a.657.657 0 0 0 .107-.296c.073 0 .148-.004.221-.004v.002Zm-4.487 4.059c-1.736-.841-3.361-1.511-5.223-1.971a23.59 23.59 0 0 1 7.887-2.014l-2.663 3.985h-.001Zm-7.052-1.052c.053-.03.107-.056.16-.087.097.15.25.261.439.298 2.267.451 4.13 1.222 6.198 2.24.89 1.907 1.53 3.683 2.11 5.85-.692.668-1.377 1.342-2.042 1.995-1.355 1.331-2.754 2.702-4.166 4.008a83.098 83.098 0 0 0-7.607-.256c-1.202-2.006-2.252-3.952-3.269-5.836a.616.616 0 0 0-.116-.154c1.898-3.288 4.731-6.063 8.293-8.058Zm-9.044 9.487c.867 1.607 1.767 3.257 2.778 4.959l-4.685 2.922a19.03 19.03 0 0 1 .579-4.191c.323-1.28.77-2.511 1.328-3.688v-.002Zm-1.882 9.429a.658.658 0 0 0 .215-.087l5.463-3.407a81.535 81.535 0 0 1 7.695.236c.947 2.888 1.514 4.353 2.504 6.912l.27.7c-1.053 2.393-2.834 4.407-4.938 5.58-.961.086-2.33.228-3.657.367-1.222.127-2.481.257-3.416.343a19.92 19.92 0 0 1-1.265-1.77 18.609 18.609 0 0 1-2.872-8.874h.001Zm5.248 11.914c.757-.075 1.611-.164 2.446-.25 1.137-.12 2.305-.24 3.215-.325l-.126 4.689a20.613 20.613 0 0 1-5.535-4.114Zm15.969 6.591c-3.191 0-6.332-.646-9.182-1.885a.676.676 0 0 0 .108-.35l.147-5.38c2.095-1.281 3.817-3.237 4.939-5.608 1.384.361 3.049.654 4.666.935 1.569.272 3.189.555 4.441.89.053.013.107.02.16.02.444 1.345.9 2.737 1.34 4.316a94.13 94.13 0 0 1-2.518 6.203.682.682 0 0 0-.022.503 23.673 23.673 0 0 1-4.079.356Zm11.539-3.007a23.494 23.494 0 0 1-6.036 2.356c.79-1.78 1.528-3.6 2.207-5.423 1.708.937 3.6 1.628 5.531 2.016-.547.37-1.114.72-1.7 1.05l-.002.001Zm2.837-1.869a.681.681 0 0 0-.523-.458 18.218 18.218 0 0 1-5.947-2.205c-.466-1.662-.946-3.114-1.41-4.52l-.435.14-.038.014.036-.012.434-.145-.469.155c.889-1.245 1.684-2.208 2.453-3.14.855-1.033 1.738-2.104 2.76-3.565a.734.734 0 0 0 .103.048c1.132.396 2.714.9 4.181 1.199a.689.689 0 0 0 .15.304 28.695 28.695 0 0 1 3.868 5.689.68.68 0 0 0 .298.296c-1.363 2.365-3.209 4.465-5.463 6.2h.002Zm7.537-11.304a20.12 20.12 0 0 1-1.372 3.778 30.19 30.19 0 0 0-3.523-5.187l5.477-3.594a18.97 18.97 0 0 1-.581 5.003h-.001ZM413.233 302.197a.76.76 0 0 1 .54.069 609.516 609.516 0 0 1 24.902 14.103c.171.102.261.257.232.399-.03.142-.173.246-.371.268-.96.109-2.285.307-3.687.518-2.398.36-5.112.767-6.978.871-.309.748-.387 1.499-.465 2.29-.084.85-.172 1.73-.574 2.609a.267.267 0 0 1-.06.081c-.014.109-.093.205-.233.256a.717.717 0 0 1-.479-.009.645.645 0 0 1-.277-.18c-.515-.592-.999-1.159-1.512-1.759a308.135 308.135 0 0 0-1.793-2.087c-2.702.647-7.92 1.164-9.706 1.27a.785.785 0 0 1-.473-.128c-.132-.091-.207-.214-.202-.335.124-3.076.282-6.158.434-9.137.147-2.898.301-5.896.418-8.808.006-.136.113-.247.282-.293l.002.002Zm11.944 19.195c.285.335.563.659.841.983.18-.6.24-1.206.302-1.839.084-.851.172-1.731.574-2.61.003-.007.009-.011.012-.018a133.548 133.548 0 0 1-7.943-7.68c.578 1.203 1.108 2.253 1.625 3.28.823 1.631 1.673 3.316 2.682 5.549a.28.28 0 0 1 .023.163c.03.023.056.047.079.073.667.768 1.244 1.443 1.803 2.098l.002.001Zm-11.557-9.94a911.987 911.987 0 0 0-.413 8.622c2.407-.183 6.698-.671 8.886-1.214-.936-2.053-1.707-3.582-2.521-5.197-.85-1.684-1.727-3.425-2.805-5.805-.085-.19.027-.374.265-.434a.745.745 0 0 1 .689.194c3.572 3.868 6.53 6.787 10.154 10.014 1.792-.123 4.333-.505 6.589-.843.964-.144 1.891-.284 2.696-.393a606.117 606.117 0 0 0-23.15-13.108 960.684 960.684 0 0 1-.392 8.163l.002.001ZM435.335 326.495c1.101-.578 2.651-.608 3.856-.079.808.355 1.454.953 1.773 1.642.266.573.308 1.211.12 1.843-.382 1.289-1.687 2.264-3.323 2.482-.946.127-1.882.008-2.646-.173.168.298.371.585.606.86 1.107 1.286 3.015 2.252 4.861 2.459 1.947.219 3.793-.413 4.488-1.539.113-.183.429-.242.708-.129.278.112.412.352.299.535-.857 1.387-3.114 2.169-5.49 1.902a9.395 9.395 0 0 1-2.067-.477c-1.465-.514-2.792-1.369-3.7-2.426a6.002 6.002 0 0 1-.991-1.583c-.761-.29-1.545-.683-2.425-1.214-1.495-.903-2.615-1.802-3.423-2.746-.979-1.143-1.474-2.37-1.396-3.453.015-.21.271-.344.571-.298.299.046.531.253.515.463-.067.92.363 1.973 1.211 2.964.731.854 1.758 1.675 3.139 2.509.539.326 1.035.593 1.506.812a4.572 4.572 0 0 1 .073-2.16c.279-.988.878-1.747 1.733-2.196l.002.002Zm-.665 2.465a4.082 4.082 0 0 0 .052 2.357c.689.215 1.687.432 2.676.3 1.283-.172 2.311-.954 2.619-1.992.149-.502.121-.998-.082-1.435-.218-.472-.667-.893-1.198-1.127a2.512 2.512 0 0 0-.184-.072c-.78-.274-1.774-.215-2.488.159-.86.451-1.233 1.234-1.397 1.811l.002-.001ZM228.115 175.36c.132.03.264.056.397.075 1.933.293 3.983-.484 5.224-1.979 1.101-1.325 1.49-2.968 1.834-4.418.705-2.971 1.252-5.321 1.693-7.209.846-3.619 1.269-5.436 1.566-6.388.238-.766.333-.838.566-.965.288-.084 1.726-.151 3.119-.216 2.583-.12 6.046-.282 8.784-.723-.182 1.343-.394 2.961-.601 4.533-.218 1.655-.441 3.361-.63 4.741-4.536-.267-6.781 1.79-7.87 3.6-1.34 2.225-1.417 4.945-.879 5.768.591.905 1.877 1.546 3.44 1.717 2.611.283 5.355-.686 7.159-2.529 1.443-1.473 2.263-9.453 3.112-18.948.104-1.162.203-2.259.29-3.169a.505.505 0 0 0-.56-.549c-5.689.678-11.973.978-18.672.89a.503.503 0 0 0-.505.435c-.096.693-.175 1.401-.252 2.085-.156 1.394-.318 2.836-.629 4.284-.528 2.45-1.073 4.98-1.624 7.23-2.038.543-4.123 1.124-5.877 2.173-2.137 1.281-3.326 3.088-3.264 4.959.071 2.088 1.909 4.076 4.181 4.601l-.002.002Zm-.397-8.696c1.714-1.027 3.844-1.593 5.906-2.14a.504.504 0 0 0 .359-.366c.579-2.338 1.152-4.987 1.703-7.549.323-1.497.487-2.965.646-4.386.06-.532.121-1.079.19-1.62 6.335.068 12.297-.212 17.737-.831-.073.775-.15 1.645-.232 2.556-.307 3.434-.688 7.708-1.173 11.317-.722 5.372-1.347 6.701-1.654 7.015-1.593 1.628-4.019 2.482-6.33 2.232-.977-.106-2.202-.493-2.705-1.265-.25-.383-.329-2.658.899-4.698.978-1.625 3.056-3.479 7.395-3.08a.504.504 0 0 0 .545-.433c.2-1.454.452-3.366.695-5.216.243-1.848.495-3.76.693-5.211a.501.501 0 0 0-.592-.563c-2.755.52-6.555.697-9.331.827-2.603.12-3.241.165-3.533.324-.596.326-1.481 3-2.654 8.021-.441 1.887-.989 4.236-1.692 7.205-.334 1.408-.679 2.863-1.629 4.008-.774.932-2.365 1.919-4.298 1.626-2.163-.326-3.669-2.184-3.721-3.714-.05-1.493.961-2.973 2.775-4.06l.001.001ZM113.848 174.617c-.033.529-.17.859-.417 1.007a42.786 42.786 0 0 1-2.709 1.791c.402.762.849 1.461 1.352 2.113a.391.391 0 0 1-.4.617 6.935 6.935 0 0 0-2.329-.15 18.95 18.95 0 0 1-.904 2.102.393.393 0 0 1-.362.214.389.389 0 0 1-.345-.24 18.586 18.586 0 0 0-1.175-2.349c-3.392 1.707-6.803 3.047-9.885 3.88l-.012.003a.39.39 0 0 1-.423-.175c-.38-.621-9.34-15.248-10.678-20.115-.278-.791-.055-1.66.768-2.995.01-.016.022-.028.033-.042a.385.385 0 0 1 .139-.166c4.472-2.991 9.405-5.467 14.663-7.359a2.442 2.442 0 0 1 2.975 1.122c2.456 4.435 5.699 10.474 9.009 17.867a.374.374 0 0 1 .032.191c.552.587.712 1.994.668 2.688v-.004Zm-.85.359c.202-.356.022-1.958-.318-2.438-.275.256-.552.506-.833.75a7.42 7.42 0 0 1 .459 2.175c.236-.162.465-.323.687-.483l.006-.005-.001.001Zm-4.891 6.008c.216-.483.411-.977.583-1.475a.39.39 0 0 1 .314-.258 7.588 7.588 0 0 1 1.886-.032 16.356 16.356 0 0 1-1.396-2.556 55.878 55.878 0 0 0-2.819 1.776c.54.81 1.019 1.663 1.431 2.545h.001ZM86.3 163.063l.01.03c1.201 4.408 9.23 17.687 10.441 19.677 2.94-.818 6.173-2.098 9.396-3.716a19.713 19.713 0 0 0-.326-.488.389.389 0 0 1 .079-.528c.508-.401 2.901-1.908 3.605-2.272a.392.392 0 0 1 .539.197c.107.257.218.505.332.749.403-.246.793-.493 1.169-.739a.284.284 0 0 1-.005-.051 6.652 6.652 0 0 0-.327-2.092c-3.877 3.24-8.259 5.539-13.612 7.159a.39.39 0 0 1-.45-.178c-4.287-7.352-7.716-13.754-10.468-19.547-.427.8-.541 1.354-.381 1.797l-.002.002Zm17.157-8.814a1.668 1.668 0 0 0-2.028-.766c-5.09 1.831-9.87 4.215-14.215 7.088 2.739 5.796 6.163 12.21 10.455 19.583 5.865-1.815 10.535-4.476 14.655-8.349-3.259-7.251-6.447-13.185-8.866-17.557l-.001.001Z"/><path d="M104.772 161.598c-3.044 2.397-6.602 4.259-10.574 5.533l-.028.007a.388.388 0 0 1-.394-.134 14.284 14.284 0 0 1-2.674-5.272.39.39 0 0 1 .156-.422c3.137-2.152 6.67-4.038 10.501-5.604a.389.389 0 0 1 .462.131c1.248 1.714 2.15 3.513 2.684 5.346a.39.39 0 0 1-.133.415Zm-3.003-5.054c-3.576 1.484-6.884 3.249-9.84 5.252a13.534 13.534 0 0 0 2.288 4.509c3.69-1.212 7.005-2.946 9.863-5.156-.489-1.572-1.265-3.119-2.311-4.604v-.001ZM95.748 171.261l10.022-5.095a.39.39 0 1 1 .353.694l-10.021 5.095a.39.39 0 0 1-.354-.695v.001ZM96.56 174.017l11.077-5.375a.389.389 0 1 1 .339.702L96.9 174.718a.39.39 0 0 1-.52-.18.388.388 0 0 1 .18-.52v-.001Z"/></g><path fill="#fff" stroke="#20380E" stroke-linecap="round" stroke-linejoin="round" stroke-width="3.023" d="m313.91 282.365 48.191-13.575c8.75-2.461 17.981 1.884 21.641 10.202l39.694 90.057c7.778 27.043-14.596 63.735-41.71 56.222l-135.368-48.624 20.093-75.341c3.565-13.372 16.336-22.17 30.091-20.729l17.356 1.812.012-.024Z"/><path fill="#20380E" d="M346.831 250.462c18.97-18.97 18.97-49.726 0-68.696s-49.726-18.97-68.696 0-18.97 49.726 0 68.696 49.726 18.97 68.696 0Z"/><path fill="#20380E" d="M343.919 204.751c13.986-5.027 21.249-20.441 16.222-34.427-5.027-13.986-20.44-21.249-34.427-16.222-13.986 5.027-21.249 20.441-16.221 34.427 5.027 13.986 20.44 21.249 34.426 16.222Z"/><path fill="#fff" stroke="#20380E" stroke-linecap="round" stroke-linejoin="round" stroke-width="3.023" d="M290.289 263.033c1.68.372 3.372.54 5.053.54l2.652 26.898s-1.836 30.62 9.939 32.312c20.212 2.917 40.905-19.673 51.504-53.305-7.382 1.201-14.68 3.421-21.653 6.77l-2.653-26.922c1.356.708 2.833 1.14 4.369 1.164 7.214.132 13.191-7.958 13.083-17.92-.096-9.194-5.653-16.804-12.387-16.972-4.861-.12-9.158 3.493-11.438 8.894 1.068-17.68-7.874-33.14-22.002-36.249-16.107-3.552-32.863 10.311-37.412 30.956-4.549 20.644 4.825 40.269 20.933 43.822l.012.012Z"/><path fill="#20380E" d="M331.506 218.174c-.324.18-.636.36-.96.528-18.28 9.314-42.79-1.669-54.733-24.534-.132-.264-.252-.516-.384-.78 5.629-4.729 12.363-7.586 19.661-7.814 16.924-.516 31.519 13.275 36.428 32.588l-.012.012Z"/><path stroke="#20380E" stroke-linecap="round" stroke-linejoin="round" stroke-width="3.023" d="M296.194 263.497c8.978-.984 17.5-6.914 23.309-15.916"/><path fill="#20380E" d="M277.578 223.613c.576.9-.985 2.917-3.481 4.489-2.497 1.584-4.981 2.137-5.545 1.236-.577-.9.984-2.916 3.48-4.489 2.497-1.584 4.982-2.136 5.546-1.236ZM303.804 226.779c-.228 1.309-3.325 1.861-6.938 1.249-3.613-.612-6.35-2.173-6.133-3.481.228-1.308 3.324-1.86 6.937-1.248 3.613.612 6.35 2.172 6.134 3.48Z"/><path stroke="#20380E" stroke-linecap="round" stroke-linejoin="round" stroke-width="3.023" d="m283.387 228.547-1.392 8.546c-.264 1.572.372 3.073 1.5 4.021M290.709 245.959s-1.765 2.977-6.122.672M342.969 221.054s-9.338.324-8.546 11.138"/><path fill="#20380E" d="M275.453 235.45c-.132 1.548-1.044 2.736-2.052 2.652-1.008-.084-1.717-1.404-1.585-2.953.132-1.548 1.045-2.736 2.053-2.652 1.008.084 1.716 1.404 1.584 2.953ZM296.77 234.271c-.132 1.549-1.044 2.737-2.053 2.653-1.008-.084-1.716-1.404-1.584-2.953.132-1.548 1.044-2.736 2.052-2.652 1.009.084 1.717 1.404 1.585 2.952ZM193.474 406.315l125.681 44.771a10.73 10.73 0 0 0 10.478-1.873l25.698-21.437c6.59-5.497 4.394-16.107-3.84-18.532l-130.327-38.493a10.738 10.738 0 0 0-9.314 1.584l-21.053 15.148c-7.022 5.053-5.485 15.916 2.665 18.82l.012.012Z"/><path fill="#fff" stroke="#20380E" stroke-linecap="round" stroke-linejoin="round" stroke-width="3.023" d="m243.922 375.327 8.342 2.473-3.733-7.142a12.911 12.911 0 0 0-6.722-6.037c-2.581-1.009-4.213-.469-7.094 2.148l-14.403 14.103 3.745 1.909a8.593 8.593 0 0 0 8.402-.348l11.463-7.106Z"/><path fill="#fff" stroke="#20380E" stroke-linecap="round" stroke-linejoin="round" stroke-width="3.023" d="m254.868 380.48 9.902 2.94-4.429-8.474a15.318 15.318 0 0 0-7.982-7.165 7.086 7.086 0 0 0-8.414 2.556l-16.383 22.902 6.421 2.268a8.939 8.939 0 0 0 9.458-2.268l11.451-12.759h-.024Z"/><path fill="#fff" stroke="#20380E" stroke-linecap="round" stroke-linejoin="round" stroke-width="3.023" d="m267.891 384.352 9.902 2.94-4.429-8.474a15.322 15.322 0 0 0-7.982-7.165 7.086 7.086 0 0 0-8.414 2.556l-14.895 20.981 6.421 2.269a8.94 8.94 0 0 0 9.459-2.269l9.95-10.838h-.012Z"/><path fill="#fff" stroke="#20380E" stroke-linecap="round" stroke-linejoin="round" stroke-width="3.023" d="m280.266 388.027 9.902 2.941-4.429-8.474a15.32 15.32 0 0 0-7.982-7.166 7.086 7.086 0 0 0-8.414 2.557l-12.687 18.28 6.422 2.268a8.937 8.937 0 0 0 9.458-2.268l7.754-8.138h-.024ZM322.42 396.2l-1.104-5.041a5.639 5.639 0 0 0-3.361-4.021l-5.521-2.293a5.653 5.653 0 0 0-6.001 1.069l-4.502 4.153a5.66 5.66 0 0 0-1.8 4.681l.888 9.71 7.274 3.013a5.665 5.665 0 0 0 5.569-.697l6.446-4.837a5.671 5.671 0 0 0 2.136-5.737h-.024Z"/><path fill="#fff" stroke="#20380E" stroke-linecap="round" stroke-linejoin="round" stroke-width="3.023" d="m326.201 402.515 9.506 4.033-3.457-8.918a15.33 15.33 0 0 0-7.129-8.018 7.098 7.098 0 0 0-8.654 1.597l-18.845 20.921 6.122 2.976a8.962 8.962 0 0 0 9.65-1.188l12.807-11.403Z"/><path fill="#fff" stroke="#20380E" stroke-linecap="round" stroke-linejoin="round" stroke-width="3.023" d="m338.708 407.803 9.506 4.033-3.457-8.918a15.333 15.333 0 0 0-7.129-8.018 7.098 7.098 0 0 0-8.654 1.597l-17.152 19.18 6.121 2.977a8.964 8.964 0 0 0 9.65-1.188l11.103-9.663h.012Z"/><path fill="#fff" stroke="#20380E" stroke-linecap="round" stroke-linejoin="round" stroke-width="3.023" d="m350.591 412.85 9.506 4.033-3.457-8.918a15.327 15.327 0 0 0-7.13-8.018 7.098 7.098 0 0 0-8.654 1.596l-14.655 16.744 6.121 2.977a8.964 8.964 0 0 0 9.651-1.189l8.606-7.213.012-.012Z"/><path stroke="#20380E" stroke-linecap="round" stroke-linejoin="round" stroke-width="3.023" d="m348.886 334.589 9.194 43.366M368.595 374.006l-52.128 17.2"/><path fill="#20380E" d="M54.65 278.198a11.905 11.905 0 0 0-5.246 13.996l29.635 89.733a11.936 11.936 0 0 0 6.986 7.369l106.825 41.65a11.918 11.918 0 0 0 10.85-1.128l.804-.516a11.904 11.904 0 0 0 5.197-12.171l-19.108-102.384a11.903 11.903 0 0 0-8.93-9.398L63.507 276.878a11.86 11.86 0 0 0-8.858 1.332v-.012Z"/><path fill="#20380E" d="m144.401 386.888-32.876-11.726-26.1 73.179 32.875 11.726 26.101-73.179Z"/><path fill="#20380E" d="M118.276 460.057 85.401 448.33l36.068-21.125a6.854 6.854 0 0 1 5.785-.54l15.964 5.689c5.497 1.969 6.206 9.459 1.164 12.411l-26.106 15.292Z"/><path stroke="#fff" stroke-linecap="round" stroke-linejoin="round" stroke-width="2.927" d="m123.269 451.11 7.886-22.781M54.638 283.18l123.532 30.667 21.317 112.731"/><path stroke="#20380E" stroke-miterlimit="10" stroke-width="3.023" d="M57.773 195.159a4.637 4.637 0 0 1-2.929 5.869 4.638 4.638 0 0 1-5.869-2.929 4.637 4.637 0 0 1 2.929-5.869 4.638 4.638 0 0 1 5.87 2.929ZM79.45 192.905c-5.005-2.497-11.078-.468-13.563 4.537l-8.054 16.144-.984-.492c-4.73-2.365-10.478-.432-12.831 4.297l1.032 3.084"/><path stroke="#20380E" stroke-miterlimit="10" stroke-width="3.023" d="m64.767 180.49-20.296 6.787c-5.23 1.749-8.053 7.407-6.304 12.638l6.787 20.296c1.75 5.231 7.407 8.053 12.638 6.304l20.296-6.787c5.23-1.749 8.053-7.408 6.304-12.638l-6.787-20.297c-1.75-5.23-7.407-8.052-12.638-6.303ZM65.047 230.049s8.354 7.322 8.69 18.22c.348 10.899-5.75 12.615-7.49 10.563-4.885-5.774 4.093-19.709 13.12-13.804 7.321 4.801 3.012 11.259 3.012 11.259"/><path stroke="#20380E" stroke-miterlimit="10" stroke-width="3.283" d="m119.738 201.698 1.082 36.303c.091 3.48 3.468 5.918 6.805 4.927l8.785-1.812-1.616 26.188 19.279-28.078a3.846 3.846 0 0 1 1.851-1.056l42.326-10.571a5.301 5.301 0 0 0 4.002-5.358l-1.682-38.115c-.143-3.337-3.298-5.696-6.544-4.901l-70.247 17.206a5.28 5.28 0 0 0-4.028 5.28l-.013-.013Z"/><path stroke="#20380E" stroke-miterlimit="10" stroke-width="3.283" d="M130.936 214.083s1.381-2.347 6.361.026c4.979 2.372 9.907 10.245 6.948 12.292-7.3 5.084-8.565-11.328 1.838-16.907 10.402-5.579 21.39 6.062 21.469 10.285.104 4.927-4.954 9.203-8.851 4.276-4.458-5.632 4.601-21.6 13.152-21.235 8.538.378 9.503 6.231 9.607 9.034.105 2.802-1.199 6.152-2.894 6.126-4.027-.052-7.43-8.681 10.768-12.005"/><path stroke="#20380E" stroke-miterlimit="10" stroke-width="3.023" d="M228.658 279.111c3.595-8.498-.38-18.302-8.879-21.897-8.498-3.595-18.302.38-21.897 8.878-3.595 8.499.38 18.302 8.878 21.897 8.499 3.596 18.302-.379 21.898-8.878Z"/><path stroke="#20380E" stroke-miterlimit="10" stroke-width="3.023" d="M205.117 272.184s3.264 5.702 5.701 6.11c2.449.408 10.995-13.035 10.995-13.035"/><path fill="#fff" d="m278.79 330.644-4.921 10.814a33.09 33.09 0 0 0 3.876 33.86"/><path stroke="#20380E" stroke-linecap="round" stroke-linejoin="round" stroke-width="3.023" d="m278.79 330.644-4.921 10.814a33.09 33.09 0 0 0 3.876 33.86"/><path fill="#94B73D" d="M139.627 27.213C82.514 44.97 67.169 78.909 66.89 94.515c0 18.393 13.935 28.008 20.902 30.516 38.04 13.377 43.057 7.106 110.777 0 54.176-5.685 96.146-26.336 108.269-39.295 14.771-9.754 37.812-34.706 12.062-55.775-32.188-26.336-107.433-25.084-179.273-2.748Z"/><path fill="#fff" d="M217.122 48.975a.633.633 0 0 1 .829-.34l2.886 1.205a.633.633 0 1 1-.489 1.17l-2.886-1.205a.632.632 0 0 1-.34-.83ZM241.452 78.065c-1.276 1.158-3.033 1.362-4.722 1.47-1.354.088-2.577.142-3.823-.095a7.325 7.325 0 0 1-.831-.209c-1.123-.354-2.062-.963-2.695-1.758-.903-1.135-1.274-2.715-1.045-4.455.197-1.496.792-2.894 1.317-4.13a.636.636 0 0 1 .272-.303c.399-3.443-1.13-6.698-2.748-10.141-1.703-3.62-3.463-7.366-2.742-11.345.843-4.66 5.399-8.518 10.6-8.973 4.518-.395 9.338 1.491 13.224 5.174 1.615 1.531 5.265 5.61 4.27 10.419-.558 2.697-2.789 5.215-4.949 7.649-2.548 2.873-5.182 5.845-5.002 8.997a.67.67 0 0 1-.038.254c.278 1.154.542 2.345.505 3.59-.047 1.595-.612 2.965-1.594 3.854l.001.002Zm-8.308.129c1.1.209 2.236.158 3.503.076 1.466-.095 2.979-.262 3.953-1.145.714-.647 1.142-1.722 1.178-2.953a7.105 7.105 0 0 0-.021-.77c-2.661 1.222-5.815 1.388-8.614.505a11.34 11.34 0 0 1-2.121-.913.633.633 0 1 1 .621-1.106c2.99 1.678 6.867 1.75 9.924.196a24.103 24.103 0 0 0-.185-.849c-3.578.793-7.372.361-10.821-1.234-.417 1.001-.824 2.091-.969 3.186a5.784 5.784 0 0 0 .005 1.594 24.545 24.545 0 0 0 9.749.738.634.634 0 1 1 .16 1.26c-3.13.398-6.373.201-9.442-.56.091.166.193.322.307.466.595.747 1.579 1.285 2.771 1.511l.002-.002Zm13.488-17.663c2.143-2.417 4.167-4.7 4.657-7.066.864-4.184-2.441-7.856-3.901-9.24-3.621-3.435-8.084-5.196-12.24-4.832-4.65.408-8.719 3.819-9.463 7.935-.647 3.58.949 6.98 2.643 10.578 1.64 3.49 3.335 7.095 2.847 10.944-.002.01-.006.02-.007.032 3.242 1.48 6.802 1.855 10.139 1.068.054-3.466 2.732-6.49 5.328-9.417l-.003-.002ZM253.384 67.215a.635.635 0 0 1-.288-.19 14.363 14.363 0 0 0-2.316-2.142.637.637 0 0 1-.134-.887.637.637 0 0 1 .888-.134c.92.681 1.769 1.464 2.521 2.331a.636.636 0 0 1-.671 1.02v.002ZM255.814 53.811a.635.635 0 0 1 .178-1.238l2.965-.065a.634.634 0 1 1 .027 1.27l-2.965.064a.63.63 0 0 1-.205-.03ZM223.855 41.686a.635.635 0 0 0 .574-1.111l-2.376-1.775a.634.634 0 1 0-.758 1.018l2.376 1.774a.634.634 0 0 0 .184.096v-.002ZM252.468 42.083a.636.636 0 0 1-.12-1.159c.69-.389 1.301-.89 1.816-1.493a.634.634 0 1 1 .964.825 7.968 7.968 0 0 1-2.157 1.775.636.636 0 0 1-.502.053l-.001-.001ZM242.047 36.53a.633.633 0 0 1-.42-.774l.747-2.709a.635.635 0 1 1 1.224.337l-.747 2.71a.635.635 0 0 1-.781.443l-.022-.007h-.001ZM231.08 36.364l-1.631-2.829a.634.634 0 1 1 1.098-.633l1.631 2.829a.634.634 0 0 1-1.098.633ZM222.791 58.771a.636.636 0 0 1 .815.377.636.636 0 0 1-.377.814 6.751 6.751 0 0 0-2.541 1.667.633.633 0 0 1-.895.02.635.635 0 0 1-.021-.897 8.038 8.038 0 0 1 3.021-1.982l-.002.001Z"/><path fill="#fff" d="M244.596 46.36a.635.635 0 0 1 .532-1.152c2.445 1.128 3.47 3.98 3.4 6.306-.072 2.441-1.094 4.736-1.996 6.762a.635.635 0 0 1-.77.348.634.634 0 0 1-.389-.864c.854-1.918 1.822-4.092 1.887-6.284.057-1.91-.746-4.231-2.664-5.117v.002ZM242.847 56.154c.294.689.203 1.528-.225 2.09-.537.707-1.466 1.1-2.638 1.124a15.02 15.02 0 0 0 .516 7.301.634.634 0 1 1-1.204.398 16.306 16.306 0 0 1-.582-7.8 7.67 7.67 0 0 1-1.424-.379c.021 3.348-1.021 6.7-2.998 9.414a.635.635 0 0 1-1.027-.747c1.942-2.664 2.902-5.998 2.738-9.28a7.684 7.684 0 0 1-1.974-1.672c-.28-.337-.617-.797-.722-1.378-.128-.706.152-1.41.697-1.753.637-.4 1.551-.24 2.129.374.433.461.617 1.048.751 1.616.156.667.267 1.343.333 2.024a6.489 6.489 0 0 0 1.759.54c.064-.255.135-.509.213-.762.445-1.454 1.325-2.252 2.352-2.135.579.066 1.057.44 1.307 1.026h-.001Zm-7.199-.402c-.107-.456-.222-.806-.438-1.037a.674.674 0 0 0-.278-.174c-.099-.03-.193-.033-.252.006-.101.063-.156.265-.123.449.053.29.267.576.448.794.247.295.521.566.817.812a13.548 13.548 0 0 0-.172-.85h-.002Zm4.625 2.328c.479-.047 1.031-.197 1.341-.604.153-.202.182-.556.067-.824-.042-.098-.116-.215-.234-.252a.18.18 0 0 0-.048-.011c-.408-.046-.802.614-.997 1.246a11.4 11.4 0 0 0-.129.445ZM153.743 62.906a271.24 271.24 0 0 0 18.318-14.119.587.587 0 0 0-.755-.897 269.612 269.612 0 0 1-18.239 14.057.586.586 0 1 0 .676.959ZM156.079 75.782a641.24 641.24 0 0 0 31.523-26.422c.059-.052.111-.109.158-.166.25-.312.306-.669.111-.862-.229-.23-.724-.139-1.103.2a639.04 639.04 0 0 1-31.38 26.303c-.4.313-.571.782-.38 1.043.19.262.671.22 1.071-.096ZM173.735 76.06l17.825-16.11a.584.584 0 0 0 .042-.828.587.587 0 0 0-.828-.042L172.95 75.19a.585.585 0 1 0 .785.87Z"/><path fill="#fff" d="M194.983 37.67a3.905 3.905 0 0 0-1.95-2.414 3.913 3.913 0 0 0-3.095-.255c-10.351 3.455-21.489 6.16-32.259 8.776-4.9 1.19-9.967 2.42-14.796 3.685a3.931 3.931 0 0 0-2.853 4.634c1.805 8.438 4.135 16.003 6.387 23.319 1.003 3.258 1.95 6.335 2.855 9.484a3.92 3.92 0 0 0 4.756 2.73c4.229-1.07 8.355-2.11 12.405-3.123l.191 1.383a.699.699 0 0 0 .761.6c.007-.002.012-.001.019-.002a79.731 79.731 0 0 0 2.706-.39c.981 7.81 1.998 15.883 3.165 24.061a.703.703 0 0 0 .761.598.605.605 0 0 0 .161-.036l3.013-1.046a.698.698 0 0 0 .431-.89c-.004-.016-.013-.029-.021-.045l-3.681-23.36a78.789 78.789 0 0 0 4.66-1.146l.013.06a196.491 196.491 0 0 0 8.835 21.579c.034.07.08.132.131.185.004.013.004.025.007.037a.698.698 0 0 0 .87.473l2.37-.7a.7.7 0 0 0 .409-1.013.697.697 0 0 0 .153-.797 213.981 213.981 0 0 1-8.412-21.118c-.006-.02-.018-.04-.027-.06a79.262 79.262 0 0 0 2.546-.921.698.698 0 0 0 .442-.757l-.214-1.428a1086.98 1086.98 0 0 1 15.774-3.65 3.9 3.9 0 0 0 2.524-1.825c.561-.94.708-2.04.41-3.092l-9.451-33.538.004.003Zm-18.807 70.883-1.632.568c-1.118-7.901-2.101-15.703-3.051-23.26.359-.064.718-.131 1.076-.2l3.608 22.894-.001-.002Zm5.478-25.162a214.732 214.732 0 0 0 8.456 21.233l-1.495.441a195.248 195.248 0 0 1-8.673-21.217c.568-.17 1.133-.346 1.697-.53.007.024.008.048.016.073h-.001Zm2.818-2.538a76.605 76.605 0 0 1-16.555 4.157l-.117-.844c5.631-1.406 11.125-2.76 16.56-4.063l.112.75Zm18.351-7.27a2.516 2.516 0 0 1-1.626 1.178c-15.433 3.44-30.648 7.25-47.511 11.513a2.534 2.534 0 0 1-3.069-1.76c-.907-3.163-1.857-6.246-2.862-9.511-2.244-7.286-4.564-14.822-6.356-23.2a2.537 2.537 0 0 1 1.84-2.987c4.817-1.262 9.877-2.492 14.771-3.68 10.799-2.623 21.964-5.335 32.372-8.808a2.523 2.523 0 0 1 1.997.163 2.513 2.513 0 0 1 1.257 1.559l9.452 33.537a2.52 2.52 0 0 1-.265 1.997Z"/><path fill="#fff" d="M192.819 40.459a3.481 3.481 0 0 0-1.74-2.147 3.656 3.656 0 0 0-2.86-.232c-9.293 3.092-19.283 5.531-28.946 7.889-4.397 1.072-8.942 2.182-13.277 3.32-1.868.492-3.023 2.328-2.631 4.183 1.57 7.406 3.615 14.039 5.592 20.453.881 2.855 1.712 5.551 2.504 8.312.478 1.668 2.075 2.702 3.778 2.534.185-.018.373-.05.559-.098 15.119-3.837 28.761-7.268 42.593-10.374a3.655 3.655 0 0 0 2.334-1.685c.501-.842.634-1.82.371-2.754l-8.276-29.402h-.001Zm6.704 31.44c-.317.53-.828.899-1.439 1.036-13.851 3.112-27.501 6.543-42.631 10.383-1.163.296-2.326-.348-2.647-1.465-.795-2.774-1.628-5.477-2.51-8.338-1.968-6.385-4.002-12.987-5.561-20.33-.238-1.123.472-2.239 1.618-2.539 4.321-1.134 8.862-2.243 13.252-3.315 9.689-2.365 19.709-4.811 29.055-7.922a2.25 2.25 0 0 1 .505-.108 2.2 2.2 0 0 1 1.257.25c.52.276.891.734 1.049 1.29l8.276 29.402a2.1 2.1 0 0 1-.226 1.658l.002-.002Z"/><path fill="#20380E" d="M273.464 12.236c-18.942-3.144-38.337-2.494-57.376-.568-19.539 1.98-38.911 5.615-57.978 10.275-23.179 5.663-45.484 15.502-64.318 30.35-9.6 7.567-18.28 16.86-23.17 28.195-5.212 12.08-4.233 25.174 1.055 37.036 5.96 13.35 17.058 20.371 30.972 23.662 15.217 3.601 31.335 3.043 46.805 1.848 15.061-1.167 30.014-3.416 44.967-5.51 19.393-2.711 38.917-5.264 57.732-10.881 4.414-1.319 8.755-2.842 13.048-4.497 1.947-.752 6.107 4.079 7.361 5.308 5.04 4.914 8.727 11.041 11.444 17.495 3.192 7.58 5.272 16.251 5.388 24.513l-1.955-.505c12.773-18.132 14.475-42.044 11.673-63.447-.051-.361.086-.8.403-1.006 18.135-12.13 38.467-32.759 30.387-56.636-7.678-22.697-35.067-32.322-56.438-35.632-1.392-.217-1.115-2.382.284-2.167 24.885 3.854 58.228 17.16 60.101 46.612.839 13.143-6.171 25.21-14.833 34.522-2.685 2.887-5.624 5.537-8.664 8.047-1.773 1.471-3.617 2.848-5.481 4.199-.974.711-1.975 1.389-2.975 2.074-.772.528-.46.919-.342 1.918.733 6.262.951 12.575.768 18.87-.454 15.458-4.133 31.171-13.139 43.954-.51.719-1.943.471-1.955-.506-.135-9.282-2.727-18.83-6.666-27.166-1.685-3.56-3.815-6.882-6.25-9.969-2.032-2.569-6.857-8.992-10.428-7.644-8.608 3.255-17.505 5.713-26.489 7.711-18.853 4.195-38.161 6.401-57.276 9.043-15.852 2.191-31.79 4.085-47.811 4.291-14 .179-28.655-.837-41.646-6.466-12.067-5.221-19.382-15.121-23.406-27.418-7.89-24.088 5.867-45.75 24.019-60.635 17.275-14.158 38.657-24.492 60.227-30.136 36.624-9.592 76.041-16.427 113.961-12.447 2.77.288 5.534.687 8.285 1.146 1.387.232 1.11 2.398-.284 2.167Z"/><path fill="#20380E" d="M264.103 110.825c-18.228 7.065-37.393 10.612-56.664 13.446-17.254 2.535-34.548 5.142-51.897 6.896-15.629 1.578-31.599 2.461-47.204.283-12.512-1.744-25.693-5.889-34.056-15.914-7.54-9.036-9.785-21.348-6.181-32.466 3.8-11.712 12.878-21.252 22.147-28.972 10.277-8.56 21.936-15.504 33.949-21.343a177.151 177.151 0 0 1 15.833-6.78c6.758-2.495 13.804-4.14 20.795-5.815 19.3-4.626 38.925-8.09 58.7-9.905 18.955-1.737 37.874-1.636 56.674 1.49 21.769 3.623 64.301 16.072 54.562 46.685-1.908 6-5.663 11.333-9.795 16.013-5.93 6.713-13.068 12.316-20.441 17.348-11.28 7.7-23.451 14.672-36.429 19.035-.885.301-1.471-1.037-.579-1.339 14.679-4.94 28.489-13.121 40.949-22.276 7.236-5.322 14.117-11.395 19.395-18.716 3.677-5.094 6.457-11.019 6.802-17.366.714-12.875-10.18-22.059-20.572-27.464-7.724-4.014-16.144-6.642-24.602-8.596a176.829 176.829 0 0 0-28.066-4.136c-19.797-1.323-39.782.47-59.361 3.42-9.808 1.481-19.563 3.33-29.248 5.472-8.316 1.83-16.821 3.622-24.91 6.334-11.264 3.783-22.104 9.016-32.355 14.982-11.68 6.8-22.994 14.94-31.858 25.229-7.636 8.866-13.367 20.084-11.578 32.078.913 6.127 3.762 12.055 7.77 16.746 4.113 4.816 9.668 8.163 15.487 10.502 13.881 5.57 29.674 5.941 44.414 5.422 15.934-.562 31.773-2.692 47.547-4.909 27.04-3.8 54.548-6.776 80.187-16.715.88-.337 1.45.996.579 1.339l.006-.008Z"/><path fill="#20380E" d="M71.727 110.608c.467 4.106 2.475 7.761 3.134 11.826.121.756-1.322.959-1.443.203-.66-4.065-2.666-7.713-3.134-11.827-.085-.76 1.358-.963 1.443-.202ZM79.268 118.865c.88 4.064 2.491 7.936 2.93 12.099.077.761-1.366.964-1.444.202-.438-4.162-2.042-8.035-2.93-12.098-.162-.742 1.28-.952 1.444-.203ZM85.785 123.348c1.07 4.728 3.818 8.838 5.086 13.51.197.722-1.245.94-1.444.202-1.267-4.671-4.015-8.774-5.085-13.51-.17-.741 1.272-.951 1.443-.202ZM93.298 126.9c3.427 4.125 5.655 9.037 7.442 14.055.277.763-1.106 1.185-1.35.498-1.756-4.904-3.904-9.768-7.26-13.8-.557-.665.699-1.312 1.168-.753ZM102.624 129.901c1.975 4.006 3.812 8.067 5.4 12.245.291.761-1.092 1.183-1.35.498-1.588-4.177-3.425-8.239-5.401-12.244-.36-.729 1.022-1.159 1.351-.499ZM111.08 131.274c2.912 3.491 3.702 8.538 7.259 11.49.658.54-.61 1.204-1.167.752-3.59-2.976-4.338-7.985-7.259-11.489-.557-.665.699-1.313 1.167-.753ZM119.255 131.842c3.208 4.03 5.49 8.647 8.274 12.958.433.668-.954 1.113-1.35.499-2.727-4.223-4.947-8.761-8.092-12.705-.543-.674.712-1.321 1.168-.752ZM128.175 131.954a131.141 131.141 0 0 0 7.148 12.484c.433.668-.947 1.112-1.35.499a131.141 131.141 0 0 1-7.148-12.484c-.367-.721 1.014-1.158 1.35-.499ZM137.486 131.868c2.721 3.856 4.845 8.083 7.566 11.94.458.642-.928 1.094-1.351.499-2.72-3.857-4.845-8.084-7.565-11.94-.458-.642.928-1.095 1.35-.499ZM146.766 131.55c1.608 4.322 5.735 7.039 7.701 11.185.346.731-1.036 1.161-1.35.499-1.972-4.138-6.091-6.849-7.701-11.185-.284-.762 1.092-1.184 1.35-.499ZM155.843 130.379c3.165 3.565 6.279 7.234 8.549 11.448.387.711-1.001 1.149-1.35.499-2.228-4.124-5.271-7.707-8.366-11.195-.576-.647.679-1.294 1.167-.752ZM163.872 129.386c1.512 4.688 6.265 7.766 9.155 11.577.524.691-.726 1.331-1.167.752-2.952-3.882-7.788-7.029-9.338-11.83-.249-.775 1.128-1.189 1.35-.499ZM170.457 128.7c4.635 2.66 8.736 6.028 11.499 10.659.413.685-.975 1.13-1.35.499-2.657-4.454-6.609-7.652-11.06-10.206-.8-.454.264-1.317.904-.951l.007-.001ZM180.403 127.204c4.917 1.009 6.198 7.135 9.093 10.459.571.656-.686 1.296-1.167.753-2.685-3.081-4.039-9.205-8.516-10.121-.933-.193-.168-1.242.59-1.091ZM189.418 126.636c3.601 3.364 7.072 6.858 10.316 10.567.57.656-.686 1.296-1.167.753-3.245-3.717-6.716-7.203-10.316-10.568-.627-.588.634-1.244 1.167-.752ZM199.129 125.411c2.89 4.281 8.095 5.92 11.004 10.228.446.658-.942 1.103-1.35.499-2.891-4.282-8.095-5.92-11.004-10.228-.446-.659.941-1.104 1.35-.499ZM206.925 123.97c2.371.638 4.406 1.662 6.088 3.471 1.856 1.999 3.043 4.584 4.687 6.752.524.692-.725 1.331-1.167.753-3.11-4.118-4.776-8.432-10.198-9.885-.917-.246-.166-1.286.59-1.091ZM217.552 122.088c2.451 4.144 7.075 6.306 9.56 10.43.413.686-.967 1.13-1.35.499-2.483-4.11-7.107-6.272-9.56-10.43-.407-.694.974-1.131 1.35-.499ZM225.365 120.608c1.905 1.565 3.736 3.228 5.591 4.859 1.822 1.598 3.356 3.509 5.46 4.759.787.471-.27 1.326-.904.951-1.807-1.071-3.241-2.584-4.726-4.038-2.073-2.027-4.335-3.931-6.58-5.772-.657-.54.611-1.204 1.167-.752l-.008-.007ZM233.779 119.426c4.228 3.276 9.468 4.954 13.156 8.946.59.639-.672 1.287-1.167.753-3.671-3.973-8.936-5.676-13.156-8.946-.669-.517.605-1.189 1.167-.753ZM242.031 117.034c3.367 3.117 6.635 6.683 10.979 8.428.881.354.143 1.385-.59 1.091-4.586-1.843-7.995-5.47-11.549-8.768-.634-.58.634-1.244 1.167-.752l-.007.001ZM248.066 115.838c.794 1.773 3.617 2.59 5.185 3.54 2.456 1.502 4.309 3.692 6.975 4.914.826.377-.243 1.256-.904.951-2.793-1.285-4.753-3.556-7.337-5.135-1.707-1.048-4.38-1.791-5.262-3.772-.332-.741 1.05-1.17 1.351-.499l-.008.001ZM253.432 113.857c3.062 4.772 9.627 7.396 14.457 9.977.811.431-.26 1.295-.904.952-5.053-2.705-11.683-5.423-14.903-10.431-.432-.667.955-1.112 1.35-.498ZM288.064 157.801c1.204 1.759 2.36 3.598 4.057 4.935.662.525-.606 1.189-1.168.752-1.771-1.399-2.979-3.341-4.239-5.188-.445-.651.934-1.103 1.35-.499ZM286.769 152.095c1.777 2.951 5.474 3.918 8.22 5.703.769.503-.281 1.357-.904.951-2.966-1.938-6.737-2.953-8.658-6.156-.413-.686.967-1.13 1.35-.499l-.008.001ZM285.082 146.684c3.8 2.379 7.897 5.086 10.654 8.679.53.684-.719 1.33-1.168.753-2.709-3.519-6.67-6.149-10.397-8.48-.783-.486.275-1.341.903-.951l.008-.001ZM282.148 139.734c5.484 2.946 10.272 7.012 15.85 9.789.815.408-.247 1.279-.904.952-5.579-2.785-10.366-6.844-15.85-9.79-.804-.431.258-1.302.904-.951ZM277.65 133.127c2.591 2.888 6.516 3.168 9.937 4.527 4.022 1.598 7.683 3.718 11.942 4.702.928.215.163 1.265-.591 1.084-4.882-1.124-9.014-3.767-13.718-5.35-3.228-1.084-6.38-1.569-8.746-4.216-.577-.648.679-1.295 1.167-.753l.009.006ZM271.645 126.324c4.151-.311 7.371 1.761 10.714 3.977 4.983 3.303 10.866 5.633 16.534 7.478.902.293.158 1.332-.59 1.091-4.619-1.507-9.009-3.576-13.438-5.559-4.437-1.988-7.757-6.239-13.059-5.847-.903.068-1.078-1.07-.161-1.14ZM259.187 112.712c.769 2.593 4.52 4.045 6.723 5.112 3.215 1.564 6.59 2.797 9.888 4.173 8.078 3.383 15.614 7.321 24.177 9.495.923.238.165 1.279-.59 1.091-9.563-2.431-17.968-6.997-27.026-10.662-4.246-1.721-13.127-3.968-14.615-9.006-.212-.721 1.23-.938 1.443-.203ZM263.762 110.184c4.592 3.453 10.288 4.919 15.432 7.331 6.931 3.243 14.094 5.459 21.373 7.77.908.284.156 1.324-.591 1.084-6.631-2.1-13.305-4.032-19.655-6.908-5.737-2.6-12.393-4.506-17.47-8.325-.732-.552.312-1.398.904-.951l.007-.001ZM270.136 107.726c5.824 1.808 11.266 5.289 17.353 6.134 2.438.334 4.683.335 6.99 1.254 2.269.903 4.139 2.377 6.55 2.987.923.231.165 1.28-.59 1.092-2.091-.531-3.857-1.578-5.743-2.593-2.834-1.522-5.824-1.169-8.854-1.788-5.675-1.159-10.779-4.283-16.296-5.995-.908-.285-.164-1.324.59-1.091ZM277.048 104.549c7.425 3.092 15.324 4.632 23.035 6.822.92.261.161 1.302-.591 1.084-7.71-2.183-15.61-3.73-23.035-6.822-.875-.362-.144-1.392.59-1.091l.001.007ZM284.022 100.712c4.724 3.347 10.647 4.126 15.683 6.87.805.438-.258 1.302-.904.951-5.037-2.751-10.951-3.516-15.683-6.869-.752-.535.299-1.382.904-.952ZM289.395 98.155c5.035 1.58 10.61 1.562 15.23 4.327.787.471-.269 1.333-.904.952-4.499-2.694-10.005-2.649-14.909-4.19-.908-.284-.164-1.323.591-1.083l-.008-.006ZM296.778 93.769c3.97 2.385 8.76 2.279 12.874 4.32.815.408-.247 1.279-.904.952-4.114-2.042-8.881-1.931-12.874-4.32-.788-.472.269-1.334.904-.952ZM302.222 89.419c4.336.163 8.357 1.703 12.605 2.4.934.156.615 1.29-.228 1.151-4.241-.691-8.277-2.236-12.605-2.4-.954-.036-.615-1.187.228-1.151ZM309.148 85.078c3.203.955 6.428 1.805 9.683 2.561.928.216.163 1.265-.59 1.084a162.604 162.604 0 0 1-9.684-2.561c-.915-.276-.162-1.31.591-1.084ZM314.312 79.936c2.865 1.165 5.91 1.782 8.929 2.425.933.2.168 1.25-.591 1.084-3.018-.636-6.064-1.26-8.929-2.425-.874-.355-.143-1.385.591-1.084ZM320.173 74.41c1.843 1.537 4.018 2.408 6.297 3.074.914.27.162 1.31-.591 1.084-2.501-.73-4.857-1.731-6.874-3.412-.658-.548.617-1.213 1.167-.753l.001.007ZM325.338 69.266c1.351 1.393 2.897 2.346 4.786 2.801.929.223.163 1.265-.591 1.084-2.094-.5-3.867-1.598-5.363-3.132-.602-.622.661-1.27 1.168-.753ZM328.451 64.296c1.217.704 2.101 1.81 2.974 2.886.543.674-.706 1.314-1.168.753-.8-.984-1.604-2.041-2.717-2.687-.794-.462.262-1.325.904-.951l.007-.001Z"/></g><defs><clipPath id="a"><path fill="#fff" d="M0 0h460v460H0z"/></clipPath></defs></svg>