<svg xmlns="http://www.w3.org/2000/svg" xmlns:xlink="http://www.w3.org/1999/xlink" viewBox="0 0 460 460" xmlns:v="https://vecta.io/nano"><style><![CDATA[.M{fill:#20380e}.N{fill:#fff}.O{clip-path:url(#AW)}.P{fill:#e68214}.Q{fill:#c86400}.R{fill:#f2ba7a}.S{fill:#b4cc77}.T{fill:#ed9d42}.U{fill:#f0b067}]]></style><path d="M0 0h460v460H0z" class="N"/><path d="M117.2 435h-16.8a2.1 2.1 0 0 1-2.1-2.5l1.4-7 9.3-.4s.6 1 1.7 1.8c.4.3 1 .5 1.4 1l1.4 1 1.3 1c1 .8 2.2 1.6 3.3 2.6 1 1 .5 2.8-1 2.8z" class="M"/><path d="M114.8 429.7s0 0 0 0l-3.2 2c-.1.1-.3.1-.4.1-.2 0-.5-.1-.6-.4-.2-.4-.1-.8.2-1l2.7-1.7 1.3 1zm-2.7-1.8c0 0-.1.1-.1.1l-3.2 2c-.1.1-.3.1-.4.1-.2 0-.5-.1-.6-.4-.2-.4-.1-.8.2-1l2.7-1.7c.4.3 1 .5 1.4 1z" fill="#507878"/><path d="M46.4 435H63a2.1 2.1 0 0 0 2.1-2.5l-1.4-7-9.3-.4s-.6 1-1.7 1.8c-.4.3-1 .5-1.4 1l-1.4 1-1.3 1a59.5 59.5 0 0 0-3.3 2.6c-1 1-.5 2.8 1 2.8z" class="M"/><path d="M48.7 429.7s0 0 0 0l3.2 2c.1.1.3.1.4.1.3 0 .5-.1.6-.4.2-.4.1-.8-.2-1l-2.7-1.7-1.3 1zm2.7-1.8c0 0 .1.1.1.1l3.2 2c.1.1.3.1.4.1.3 0 .5-.1.6-.4.2-.4.1-.8-.2-1L53 427l-1.4 1zm15.8-60.3H46.8l-2.8-20-2-22c0-11.3 23.8-12 23.8-12l1 34 .5 20z" class="N"/><defs><path id="A" d="M67.3 367.5H46.8l-2.8-20-2-22c0-11.3 23.8-12 23.8-12l1 34 .5 20z"/><path id="B" d="M255.2 307h-45c-3.2 0-6 2.6-6 6v22.5c0 3.2 2.6 6 6 6h45c3.2 0 6-2.6 6-6v-22.5c0-3.2-2.6-6-6-6z"/></defs><clipPath id="C"><use xlink:href="#A"/></clipPath><g class="M"><path d="M65.2 347.7l.5 20 3-.1-.6-20-3 .1zm-1-34l1 34 3-.1-1-34-3 .1zm-20.8 11.8c0-2.2 1-4 3-5.4a23 23 0 0 1 7.7-3.3 55 55 0 0 1 7.9-1.4l2.6-.2h.7c.1 0 .2 0 .2 0h.1v-1.5-1.5h-.1-.2-.8l-2.8.2-8.4 1.5c-3 .8-6.2 2-8.7 3.8-2.5 1.8-4.3 4.4-4.3 7.8h3zm2 22l-2-22h-3a213 213 0 0 0 2 22.3l3-.4zm1.3 20l1.5-.2h0c0 0 0-.1 0-.1v-.3l-.2-1.2a735.6 735.6 0 0 1-2.6-18.2l-3 .4 2 14 .7 4.4.2 1.2v.3c0 0 0 .1 0 .1h0s0 0 1.5-.2zm20.4-1.5H46.8v3h20.4v-3zm-.5-18.4h1.5-1.5zm-1-34h1.5V312h-1.5v1.5zm-21.8 34l1.5-.2-1.5.2zm2.8 20l-1.5.2.2 1.3h1.3v-1.5zm20.4 0v1.5h1.5v-1.5h-1.5z" clip-path="url(#C)"/><path d="M67.3 367.5H46.8l-2.8-20h22.7l.5 20z"/></g><path d="M78 384l-11.4 33.4L64 425c-7.7 1-9.5.2-9.5.2l1.2-9.3 5.5-36L78 384z" class="N"/><defs><path id="D" d="M78 384l-11.4 33.4L64 425c-7.7 1-9.5.2-9.5.2l1.2-9.3 5.5-36L78 384z"/></defs><clipPath id="E"><use xlink:href="#D"/></clipPath><path d="M60.8 381.7l16.8 3.8.7-3-16.8-3.8-.7 3zM57 416.3l5.5-36-3-.4-5.5 36 3 .4zm-1.2 9.2l1.2-9.3-3-.4L53 425l3 .4zm7.8-2a47 47 0 0 1-7.4.4c-.7 0-1-.1-1.3-.1-.1 0-.2 0-.2 0 0 0 0 0 0 0 0 0 0 0 0 0h0l-.5 1.4-.5 1.4h0c0 0 0 0 0 0 0 0 0 0 .1 0 0 0 .1 0 .1 0 .1 0 .3.1.4.1.4.1 1 .1 1.7.2a50 50 0 0 0 7.9-.4l-.4-3zM65 417l-2.6 7.7 2.8 1L68 418l-2.8-1zm11.4-33.4L65 417l2.8 1 11.4-33.4-2.8-1zM61 380.2l.3-1.5-1.6-.4-.2 1.6 1.5.2zm-5.5 36H54h0 1.5zm-1.2 9.3L53 425l-.2 1.2 1 .4.5-1.4zm9.5-.2v1.5l1-.1.3-1-1.4-.5zm2.6-7.7l1.4.5-1.4-.5zM78 384l1.4.5.5-1.6-1.6-.4-.3 1.5z" clip-path="url(#E)" class="M"/><path d="M66.5 417.4l-2.7 8c-7.7 1-9.5-.2-9.5-.2l1.2-9.3 11 1.4z" class="S"/><path d="M96 386.3L99 418l.7 7.3c7.3 1 9.5 0 9.5 0l1-8.6 3.5-34-17.4 3.6z" class="N"/><defs><path id="F" d="M96 386.3L99 418l.7 7.3c7.3 1 9.5 0 9.5 0l1-8.6 3.5-34-17.4 3.6z"/></defs><clipPath id="G"><use xlink:href="#F"/></clipPath><path d="M96 387.8v-3 3zm17-6.6l-17.4 3.6.6 3 17.4-3.6-.6-3zm-1.7 35.6l3.5-34-3-.3-3.5 34 3 .3zm-1 8.6l1-8.6-3-.3-1 8.6 3 .3zm-11.2 1.3c3.7.4 6.2.5 7.8.3l1.8-.2.5-.1.1-.1c0 0 0 0 0 0 0 0 0 0 0 0h0l-.5-1.4-.5-1.4h0 0c0 0-.1 0-.2.1-.2.1-.7.1-1.3.2-1.3.1-3.6.1-7.2-.3l-.3 3zm-2-8.7l.7 7.3 3-.3-.7-7.3-3 .3zm-2.8-31.6l2.8 31.6 3-.3-2.8-31.6-3 .3zm1.5-.1l-.3-1.5.3 3v-1.5zm17.4-3.6l1.5.2.2-2-2 .4.3 1.5zm-3.5 34l1.5.2-1.5-.2zm-1 8.6l.5 1.4.8-.3.1-1-1.5-.2zm-9.5 0l-1.5.1.1 1.2 1.2.1.2-1.5zM99 418h-1.5H99zM96 386.2l1.5-.1-.1-1.4H96v1.5z" clip-path="url(#G)" class="M"/><path d="M99 418l.8 8c7.3 1 9.3-.7 9.3-.7l1-8.6-11 1.3z" class="S"/><path d="M52 316.3l-3.3 10.6 9 9.8L69 323c0-.2-17-7-17-7z" class="N"/><defs><path id="H" d="M52 316.3l-3.3 10.6 9 9.8L69 323c0-.2-17-7-17-7z"/></defs><clipPath id="I"><use xlink:href="#H"/></clipPath><path d="M70.6 323c0-.4-.1-.6-.2-.7-.1-.1-.2-.2-.2-.3H70c-.1-.1-.2-.1-.2-.1-.1 0-.2-.1-.2-.1l-.6-.3-2-.8-6-2.4-6-2.3-2-.8-.5-.2a.6.6 0 0 1-.1-.1c0 0 0 0 0 0h0l-.5 1.4-.5 1.4h0c0 0 0 0 0 0 0 0 .1 0 .1.1l.5.2 2 .8 6 2.3 6 2.4 2 .8.5.2c0 0 .1 0 0 0l-.1-.1c0 0-.1-.1-.2-.2 0-.1-.1-.1-.2-.3-.1-.1-.2-.4-.2-.7h3zm-12.8 13.6l1 1h0c0 0 0 0 0 0 0 0 0-.1.1-.1l.4-.4 1.3-1.5 4-4.6 4-4.7 1.3-1.6.4-.5.1-.2h.1c0 0 0-.1.1-.2 0 0 .1-.3.1-.6h-3c0-.4.1-.6.1-.6 0-.1.1-.1.1-.1 0 0 0 0 0-.1h0 0c0 0 0 0 0 .1-.1.1-.2.2-.3.4-.3.4-.7 1-1.3 1.6l-4 4.6-4 4.6-1.3 1.5-.4.4c0 .1-.1.1-.1.1 0 0 0 0 0 0 0 0 0 0 1 1zM47.6 328l9 9.8 2.2-2-9-9.8-2.2 2zm3-12l-3.3 10.6 3 1 3.3-10.6-3-1zm7.2 21l-1 1 1 1.3 1-1.3-1-1zm-9-9.8l-1.4-.4-.3.8.6.6 1-1zm3.3-10.6l.5-1.4-1.5-.6-.5 1.5 1.4.5z" clip-path="url(#I)" class="M"/><path d="M120.5 382.6c-9 9-27.5 4.3-27.5 4.3V376l-6 .7-4.5 9.8c-9.4.7-17-1.7-22-4-4.8-2.3-7.4-4.8-7.4-4.8l9.5-27 54.8-1.3.4 5 2.5 28.3z" class="S"/><defs><path id="J" d="M120.5 382.6c-9 9-27.5 4.3-27.5 4.3V376l-6 .7-4.5 9.8c-9.4.7-17-1.7-22-4-4.8-2.3-7.4-4.8-7.4-4.8l9.5-27 54.8-1.3.4 5 2.5 28.3z"/></defs><clipPath id="K"><use xlink:href="#J"/></clipPath><path d="M116.5 354.4l2.5 28.3 3-.3-2.5-28.3-3 .3zm-.4-5l.4 5 3-.3-.4-5-3 .3zM62.8 352l54.8-1.3-.1-3-54.8 1.3v3zm-8 26l9.5-27-2.8-1-9.5 27 2.8 1zm6.6 3c-2.3-1-4-2.3-5.3-3l-1.3-1c-.1-.1-.3-.2-.3-.3v-.1h0l-1 1-1 1h0 0c0 0 .1.1.1.1l.4.3 1.5 1c1.3 1 3.2 2.2 5.7 3.4l1.3-2.7zm21.2 4c-9 .6-16.3-1.6-21.2-4l-1.3 2.7c5.2 2.6 13 5 22.7 4.3l-.2-3zm3.2-9l-4.5 9.8 2.7 1.2 4.5-9.8-2.7-1.2zm7-1.6l-6 .7.4 3 6-.7-.4-3zm1.7 12.3V376h-3v10.8h3zm25-5.3c-4 4-10.3 5-16 5a48.4 48.4 0 0 1-7.1-.6l-2.2-.4-.6-.1c-.1 0-.1 0-.1 0 0 0 0 0 0 0h0l-.4 1.5-.4 1.5h0c0 0 0 0 0 0h.2l.6.1 2.3.4a52 52 0 0 0 7.6.6c6 .1 13.3-1 18-6l-2-2zm-1.5-27.3l-1.5.1 1.5-.1zm-.4-5l1.5-.1v-1.4h-1.4v1.5zm-54.8 1.3V349h-1l-.3 1 1.4.5zm-9.5 27l-1.4-.5-.3 1 .7.7 1-1zm7.4 4.8l.7-1.4-.7 1.4zm22 4l.1 1.5h1l.4-.8-1.4-.6zm4.5-9.8v-1.5l-.8.1-.3.8 1.4.6zm6-.7h1.5v-1.7l-1.7.2v1.5zm0 10.8h-1.5v1.2l1 .3.4-1.4zm27.5-4.3l1 1 .5-.5v-.7l-1.5.1z" clip-path="url(#K)" class="M"/><path d="M123.5 313.7l6.7 14-19.4 2.6 6-14.5z" class="N"/><defs><path id="L" d="M123.5 313.7l6.7 14-19.4 2.6 6-14.5z"/></defs><clipPath id="M"><use xlink:href="#L"/></clipPath><g class="M"><path d="M117.3 317.2l6.7-2-1-3-6.7 2 1 3zm-5 13.6l6-14.5-2.8-1-6 14.5 2.8 1zM130 326l-19.4 2.6.4 3 19.4-2.6-.4-3zm-8-11.8l6.7 14 2.7-1.3-6.7-14-2.7 1.3zm-5.3 1.4l-.4-1.4-.7.2-.3.7 1.4.6zm-6 14.5l-1.4-.6-1 2.4 2.6-.4v-1.5zm19.4-2.6l.2 1.5 2-.3-1-2-1.4.7zm-6.7-14l1.3-.6-.6-1.2-1.2.4.4 1.4z" clip-path="url(#M)"/><path d="M116.8 323l4.3 30.6s-3.7 7-29.5 7-34.7-7.4-34.7-7.4l8.7-29.7c-14.8-3.2-20.7-11-20.7-11 8.7-9.8 16.8-15.4 23-18.6 4.2-2 7.7-3 10-3.6h.1c2.4-.5 3.7-.4 3.7-.4v-4.6l9.6.1v5.2a58.2 58.2 0 0 1 7.8 1.7c3.2 1 6 2 8.6 3.4 14.3 7.3 19.2 18.6 19.2 18.6l-10.4 8.6z"/></g><path d="M98.2 292.2c-1.6 2.4-4.5 5-9.8 5-6.5 0-9-4-10-6.5 2.4-.5 3.7-.4 3.7-.4v-4.6l9.6.1v5.2c2.3.4 4.5.8 6.6 1.4z" class="N"/><defs><path id="N" d="M98.2 292.2c-1.6 2.4-4.5 5-9.8 5-6.5 0-9-4-10-6.5 2.4-.5 3.7-.4 3.7-.4v-4.6l9.6.1v5.2c2.3.4 4.5.8 6.6 1.4z"/></defs><clipPath id="O"><use xlink:href="#N"/></clipPath><path d="M91.4 292.3a58 58 0 0 1 6.5 1.3l.8-3-6.8-1.4-.4 3zm-1.3-6.7v5.2h3v-5.2h-3zm-8 1.4h9.6v-3H82v3zm1.5 3v-4.6h-3v4.6h3zm-5 2a23 23 0 0 1 2.6-.4h.6.2v-1.5-1.5h-.3-.8c-.7.1-1.7.2-3 .4l.6 3zm9.8 3.5c-3 0-4.8-1-6.2-2-1.3-1-2-2.5-2.6-3.6l-2.8 1c.6 1.4 1.6 3.3 3.5 4.8 2 1.5 4.5 2.6 8 2.6v-3zm8.5-4.3c-1.4 2-4 4.3-8.5 4.3v3c5.8 0 9.2-3 11-5.6l-2.5-1.7zm-5.4-.5H90v1.3l1.3.2.2-1.5zm0-5.2H93V284h-1.5v1.5zm-9.6-.1V284h-1.5v1.5H82zm0 4.6v1.5h1.5v-1.5H82zm-3.7.4l-.3-1.5-1.8.4.7 1.7 1.4-.6zm20 1.6l1.3.8 1.2-1.7-2-.6-.4 1.5z" clip-path="url(#O)" class="M"/><path d="M80 326.6l-10-.4c1.7-10.6-.5-24-2-32 4.2-2 7.7-3 10-3.6 4 14.7 2 36 2 36z" class="N"/><defs><path id="P" d="M80 326.6l-10-.4c1.7-10.6-.5-24-2-32 4.2-2 7.7-3 10-3.6 4 14.7 2 36 2 36z"/></defs><clipPath id="Q"><use xlink:href="#P"/></clipPath><path d="M76.7 291a93 93 0 0 1 2.4 23.1l-.3 9-.2 2.6c0 .3 0 .5-.1.7 0 .1 0 .1 0 .2v.1l1.5.1 1.5.1v-.1c0 0 0-.1 0-.2l.1-.7.2-2.6.3-9c0-7.2-.4-16.4-2.5-24l-3 .8zm-8 4.6c4-2 7.5-3 9.8-3.5l-.6-3c-2.5.5-6.2 1.6-10.5 3.7l1.3 2.7zm3 31c1.7-11-.5-24.6-2.2-32.5l-3 .6c1.6 8 3.7 21.2 2 31.5l3 .5zM80 325l-10-.4-.1 3 10 .4v-3zm-2-34.5l1.5-.4-.4-1.4-1.4.3.3 1.5zm-10 3.6l-.7-1.4-1 .5.2 1 1.5-.3zm2 32l-1.5-.2-.3 1.7 1.7.1.1-1.5zm10 .4v1.5l1.4.1.1-1.4-1.5-.1z" clip-path="url(#Q)" class="M"/><path d="M107 325.5l-8.2.2s-1.7-18.7.6-33c3.2 1 6 2 8.6 3.4a112 112 0 0 0-1 29.5z" class="N"/><defs><path id="R" d="M107 325.5l-8.2.2s-1.7-18.7.6-33c3.2 1 6 2 8.6 3.4a112 112 0 0 0-1 29.5z"/></defs><clipPath id="S"><use xlink:href="#R"/></clipPath><path d="M106.5 295.7c-1.2 8-2.4 20-1 30l3-.4a111 111 0 0 1 1-29.1l-3-.4zM99 294c3 1 6 2 8.4 3.3l1.3-2.7a52.4 52.4 0 0 0-8.9-3.5l-.8 3zm-.2 31.6l1.5-.1v-.1c0 0 0-.1 0-.1 0-.1 0-.3 0-.6l-.2-2.3-.3-8a125 125 0 0 1 1.2-21.6l-3-.5c-1.2 7.3-1.3 15.7-1.2 22.2l.3 8 .2 2.3v.6c0 .1 0 .1 0 .2v.1c0 0 0 0 1.5-.1zm8.2-1.7h-8.2v3h8.2v-3zm1-28l1.5.2.2-1-1-.5-.7 1.3zm-8.6-3.4l.4-1.4-1.6-.5-.3 1.7 1.5.2zm-.6 33l-1.5.1.1 1.4h1.4v-1.5zm8.2-.2v1.5h1.7l-.2-1.7-1.5.2z" clip-path="url(#S)" class="M"/><path d="M57.2 339s12 1 20-10.2l-4.7-2L57.2 339z" class="N"/><defs><path id="T" d="M57.2 339s12 1 20-10.2l-4.7-2L57.2 339z"/></defs><clipPath id="U"><use xlink:href="#T"/></clipPath><path d="M71.6 325.5l-15.3 12.3 2 2.4 15.3-12.3-2-2.4zm6.3 2l-4.7-2L72 328l4.7 2 1.2-2.7zM57.2 339l-.1 1.5h0c0 0 .1 0 .1 0h.4 1.6a25 25 0 0 0 5.3-1 26 26 0 0 0 13.9-9.8l-2.4-1.8a23 23 0 0 1-12.3 8.7c-2 .6-3.5.8-4.7.8h-1.3c-.1 0-.3 0-.3 0h-.1c0 0 0 0-.1 1.5zm15.3-12.3l.6-1.4-.8-.4-.7.6 1 1.2zm4.7 2l1.2 1 1-1.5-1.7-.7-.6 1.4zm-20 10.2l-1-1.2-3 2.4 3.8.3.1-1.5z" clip-path="url(#U)" class="M"/><path d="M103 328.7s7.4 13.3 16.2 12.3l-.5-3.6s-6.6-1.3-9.4-8.2-6.3-.6-6.3-.6z" class="N"/><defs><path id="V" d="M103 328.7s7.4 13.3 16.2 12.3l-.5-3.6s-6.6-1.3-9.4-8.2-6.3-.6-6.3-.6z"/></defs><clipPath id="W"><use xlink:href="#V"/></clipPath><path d="M101.6 328.7h3-3zm9.2 0c-.7-1.8-1.7-3-3-3.8-1.3-.7-2.6-.4-3.5.2a7 7 0 0 0-2 1.8l-.5.7c-.1.1-.1.2-.1.2 0 0 0 .1 0 .1 0 0 0 0 0 0h0l1.3.7 1.3.7c0 0 0 0 0 0l.1-.1.4-.5c.3-.4.7-.8 1-1 .3-.2.5-.2.6-.1.3.1.8.6 1.5 2.2l2.8-1zm8 8.7l.3-1.5c0 0 0 0 0 0 0 0-.1 0-.2 0-.2 0-.4-.1-.7-.2-.6-.2-1.4-.5-2.3-1-1.8-1-4-3-5-6l-2.8 1c1.5 3.8 4.2 6 6.4 7.4 1 .6 2 1 3 1.3l1 .3c.1 0 .2.1.3.1 0 0 .1 0 .1 0 0 0 0 0 0 0h0c0 0 0 0 .3-1.5zm2 3.4l-.5-3.6-3 .4.5 3.6 3-.4zm-17.7-12l-1.3.7c0 0 0 0 0 0 0 0 0 .1.1.1.1.1.2.3.3.4a41 41 0 0 0 4.7 6.2c3 3.3 7.5 7 12.7 6.3l-.3-3c-3.6.4-7.2-2-10.2-5.3-1.4-1.5-2.6-3-3.4-4.3-.4-.6-.7-1-1-1.4l-.2-.4c0 0 0-.1-.1-.1 0 0 0 0 0 0 0 0 0 0-1.3.7zm0 0l-1.3-.7-.2.3v.4h1.5zm15.7 8.7l1.5-.2-.2-1-1-.2-.3 1.5zm.5 3.6l.2 1.5 1.5-.2-.2-1.5-1.5.2zM103 328.7h-1.5v.4l.2.3 1.3-.7z" clip-path="url(#W)" class="M"/><path d="M67.4 321.8l-18.7 5-1.5 4.8c-1.4 4.5 1.8 9 6.6 9.4 1.8.1 3.5-.5 5-1.6l12.7-10.2s4.5 3.3 8.2.2c3.7-3.2 4-9.6 1.5-11s-10.2-1-10.2-1-1.7-1.3-2.8-.4c-2.3 2-.6 5-.6 5z" class="N"/><defs><path id="X" d="M67.4 321.8l-18.7 5-1.5 4.8c-1.4 4.5 1.8 9 6.6 9.4 1.8.1 3.5-.5 5-1.6l12.7-10.2s4.5 3.3 8.2.2c3.7-3.2 4-9.6 1.5-11s-10.2-1-10.2-1-1.7-1.3-2.8-.4c-2.3 2-.6 5-.6 5z"/></defs><clipPath id="Y"><use xlink:href="#X"/></clipPath><path d="M69 321.8h-3 3zm-2-6.2c-1.7 1.4-2 3.3-1.7 4.6.1.6.3 1.2.4 1.6l.2.5v.1c0 0 0 0 0 .1 0 0 0 0 0 0h0l1.3-.7 1.3-.7h0a.2.2 0 0 1 0-.1l-.1-.3c-.1-.2-.2-.6-.3-1-.1-.7 0-1.4.6-2l-2-2.3zm3.8 1.5l1-1.2c0 0 0 0 0 0a.3.3 0 0 0-.1-.1l-.3-.2c-.2-.1-.6-.3-1-.5-.7-.3-2-.6-3.3.4l2 2.3h0c0 0 0 0 0 0h0c.1 0 .2 0 .3.1.2.1.3.1.4.2l.1.1h0c0 0 0 0 1-1.2zm11-.2c-1-.5-2-.8-3.2-1l-3.6-.3h-3-1-.3-.1l.1 1.5v1.5h.1c0 0 .1 0 .2 0h1 3a27 27 0 0 1 3.2.3c1 .2 1.7.4 2 .6l1.6-2.6zm-1.3 13.6c2.2-2 3.3-4.7 3.6-7.2.1-1.3 0-2.5-.3-3.6-.3-1-1-2-2-2.8l-1.6 2.6c.2.1.5.4.7 1 .2.6.3 1.5.2 2.4-.2 2-1 4-2.5 5.2l2 2.3zm-9-1.3l-1 1.2h0s0 0 0 0c0 0 0 0 .1 0 0 0 .1.1.2.1l.7.4c.5.3 1.3.7 2.3 1 2 .5 4.5.6 6.8-1.4l-2-2.3c-1.3 1-2.8 1-4 .8a7.6 7.6 0 0 1-2.1-.9l-.1-.1c0 0 0 0 0 0 0 0 0 0-1 1.2zm-11.8 11.4l12.7-10.2-2-2.4-12.7 10.2 2 2.4zm-6 2c2 .1 4.2-.6 6-2l-2-2.4a5.7 5.7 0 0 1-3.8 1.3l-.1 3zm-8-11.3c-1.7 5.5 2.2 11 8 11.3l.1-3c-3.7-.2-6.3-3.8-5.2-7.4l-3-1zm1.5-4.8l-1.5 4.8 3 1 1.5-4.8-3-1zm19.8-6l-18.7 5 .8 3 18.8-5-.8-3zm.4 1.5l-1.3.7 2.8 5v-5.7h-1.5zm.6-5l1 1.2-1-1.2zm2.8.4l-1 1.2.4.3h.6l-.1-1.5zm.5 12l1-1.2-1-.7-1 .7 1 1.2zm-12.7 10.2l1 1.2-1-1.2zm-5 1.6v-1.5 1.5zm-6.6-9.4l1.4.4-1.4-.4zm1.5-4.8l-.4-1.4-.8.2-.2.8 1.4.4zm18.8-5H69v-2l-2 .5.4 1.4z" clip-path="url(#Y)" class="M"/><path d="M111.4 322l13.4 2.4c3 .5 5.4 2.5 6.5 5.3 1.7 4.2-1 8.8-5.5 9.4a6.9 6.9 0 0 1-4.7-1.1l-13-8.6s-4 3.5-7.7.8-4.5-8.8-2.3-10.4 8.2-1.7 8.2-1.7 1-1.7 2.5-1.4c2.8.6 2.4 5.3 2.4 5.3z" class="N"/><defs><path id="Z" d="M111.4 322l13.4 2.4c3 .5 5.4 2.5 6.5 5.3 1.7 4.2-1 8.8-5.5 9.4a6.9 6.9 0 0 1-4.7-1.1l-13-8.6s-4 3.5-7.7.8-4.5-8.8-2.3-10.4 8.2-1.7 8.2-1.7 1-1.7 2.5-1.4c2.8.6 2.4 5.3 2.4 5.3z"/></defs><clipPath id="a"><use xlink:href="#Z"/></clipPath><g class="M"><path d="M111.4 320.3v3-3zm-2.7-2.3c.4.1.8.6 1 1.7.1.5.1 1 .1 1.4v.4c0 .1 0 .1 0 .1h0l1.5.1 1.5.1h0c0 0 0-.1 0-.2 0-.1 0-.4 0-.6a11 11 0 0 0-.2-1.9c-.3-1.3-1-3.5-3.4-4l-.6 3zm-2.2-.1l1.3.8h0c0 0 0-.1.1-.1l.3-.4c.3-.3.5-.3.5-.2l.6-3c-1.4-.3-2.5.4-3 1a5.5 5.5 0 0 0-.9 1h-.1c0 0 0 0 0 0 0 0 0 0 1.2 1zm-7.3 3c.3-.2 1-.5 1.7-.7.8-.2 1.7-.4 2.5-.5l2.2-.2c.3 0 .5 0 .7 0h.2V318v-1.5h-.1-.2-.7l-2.4.2-3 .5c-1 .3-2 .6-2.7 1.2l1.8 2.4zm2.3 8c-1.5-1-2.5-3-2.8-4.7-.2-1-.2-1.7 0-2.3.1-.6.4-1 .5-1l-1.8-2.4c-1 .7-1.4 1.8-1.7 2.8-.2 1-.2 2.3 0 3.5.4 2.4 1.7 5 4 6.6l1.7-2.4zm6.8.4l-1-1s0 0 0 0c0 0 0 0-.1.1a7.4 7.4 0 0 1-1.8 1.1c-1.2.4-2.5.6-4-.4l-1.7 2.4c2.4 1.7 5 1.4 6.7.8a10.1 10.1 0 0 0 2.7-1.5l.2-.1c0 0 0 0 0 0s0 0 0 0h0c0 0 0 0-1-1zm13.7 7.3l-13-8.6-1.7 2.5 13 8.6 1.7-2.5zm3.7 1c-1.3.2-2.6-.1-3.7-1l-1.7 2.5a8.3 8.3 0 0 0 5.8 1.3l-.4-3zm4.3-7.3c1.3 3.3-.8 7-4.2 7.3l.4 3c5.4-.7 8.7-6.4 6.6-11.4l-2.8 1zm-5.4-4.3a7.2 7.2 0 0 1 5.4 4.3l2.8-1c-1.3-3.2-4.2-5.6-7.6-6.2l-.5 3zm-13.4-2.4l13.4 2.4.5-3-13.4-2.4-.5 3zm.3-1.5v1.5h1.4l.1-1.4-1.5-.1zm-2.4-5.3l.3-1.5-.3 1.5zm-2.5 1.4v1.5h.8l.4-.7-1.2-.8zm1.8 11.3l.8-1.2-1-.6-1 .8 1 1zm13 8.6l-.8 1.3.8-1.2zm4.7 1l-.2-1.5.2 1.5zm5.4-9.4l-1.4.6 1.4-.6zm-6.5-5.2l.3-1.5-.3 1.5zm-13.4-2.4v-1.5l-.3 3 .3-1.5z" clip-path="url(#a)"/><path d="M64.2 266.7s-12.4-1.2-14.4-10.5 7.2-14 7.2-14-13.7-3.4-6.3-9.2 18.5-5.3 18.5-5.3-10-8.8 6.7-7.6c16.8 1 26.4 10.3 26.4 10.3s-4.5-11.8 3-6.8 24 21.4 2.5 43-43.7 0-43.7 0z"/></g><path d="M108.6 252.7s3.5 10 3.3 17.8-1.3 14-15.6 17.4c-14.3 3.3-26.7-9-26.7-9s-6 4.3-11-2.2c-5.3-7.2 1.7-16.7 7.7-9.5l.2-13s10.7 5.5 24-10.3c0 0 5.2 9.7 17.8 9z" class="N"/><defs><path id="b" d="M108.6 252.7s3.5 10 3.3 17.8-1.3 14-15.6 17.4c-14.3 3.3-26.7-9-26.7-9s-6 4.3-11-2.2c-5.3-7.2 1.7-16.7 7.7-9.5l.2-13s10.7 5.5 24-10.3c0 0 5.2 9.7 17.8 9z"/></defs><clipPath id="c"><use xlink:href="#b"/></clipPath><g class="M"><path d="M110 252.7h-3 3zm-19.3-9c-1.3.7-1.3.7-1.3.7 0 0 0 0 0 0 0 0 0 .1.1.1 0 .1.1.2.2.3l.8 1.2c.7 1 2 2.2 3.4 3.5 3 2.5 8 5 14.7 4.5l-.2-3c-6 .4-10-1.7-12.6-3.8a17.9 17.9 0 0 1-2.9-3l-.7-1-.2-.3c0 0 0-.1 0-.1 0 0 0 0-1.3.7zm-24 10.3l-.7 1.3h0c0 0 0 0 .1 0a6.9 6.9 0 0 0 .6.2c.4.1 1 .3 1.6.5a16 16 0 0 0 5.7.2c4.8-.7 11-3.5 18-11.6l-2.3-2c-6.5 7.7-12.2 10-16.2 10.6a13 13 0 0 1-4.6-.1l-1.2-.3-.3-.1h0c0 0 0 0-.7 1.3zm1.3 13l.2-13h-3v13h3zm-8 8.6c-2.3-3-1.8-6.5-.4-8.3.7-1 1.6-1.3 2.4-1.3s2 .5 3.4 2l2.3-2c-1.7-2-3.6-3-5.6-3-2 0-3.7 1-4.8 2.5-2.3 3-2.7 7.8.4 12l2.4-1.8zm9.6 3l-1-1.2s0 0 0 0l-.2.1-.6.3c-.5.3-1.3.5-2 .6-1.6.2-3.8-.2-5.8-3l-2.4 1.8c2.8 3.7 6 4.5 8.6 4.2a10 10 0 0 0 3.1-.9l1-.5c.1-.1.2-.1.3-.2h.1c0 0 0 0 0 0 0 0 0 0-.8-1.2zm26.3 7.5c-6.7 1.5-13-.6-17.7-3a40 40 0 0 1-5.6-3.7c-.7-.5-1.2-1-1.5-1.3l-.4-.4h-.1 0l-1 1c-1 1-1 1-1 1h0 0c0 0 .1.1.1.1.1.1.3.2.5.4l1.7 1.4a43 43 0 0 0 6 4c5 2.7 12 5 19.8 3.4l-.7-3zm14.5-16c-.1 4-.4 7-2.2 9.6-1.8 2.5-5.2 4.8-12.2 6.4l.7 3c7.3-1.7 11.6-4.2 14-7.6 2.4-3.4 2.7-7.3 2.8-11.2h-3zm-1.8-17.8l-1.4.5s0 0 0 0c0 0 0 0 0 .1 0 .1.1.2.1.3a78.4 78.4 0 0 1 1.5 5.5c.8 3.4 1.6 7.8 1.5 11.4h3a50 50 0 0 0-1.6-12.2l-1.2-4.4-.4-1.3-.1-.3a.5.5 0 0 0 0-.1c0 0 0 0 0 0h0c0 0 0 0-1.5.5zm0 0l.1 1.5 1.4-.1v-1.4h-1.5zm-17.8-9l1.3-.7-1-2-1.4 1.7 1 1zm-24 10.3l.7-1.3-2.2-1v2.4h1.5zm-.2 13l-1.2 1 2.6 3v-4h-1.5zm-7.7 9.5l1.2-1-1.2 1zm10.8 2.2l1-1-1-1-1 .7 1 1.2zm26.7 9l-.3-1.5.3 1.5zm12.3-35.2l1.4-.5-3 .5h1.5z" clip-path="url(#c)"/><ellipse cx="85" cy="261.1" rx="1.6" ry="2.6"/><path d="M102.2 260c.2 1.4-.3 2.7-1 2.8s-1.7-1-2-2.3c-.2-1.4.3-2.7 1-2.8s1.7 1 2 2.3z"/></g><path d="M100.6 276.3s-1.2 4.2-6.8 4.7c-.4 0-.8.1-1.2.1-4.2 0-7.2-2-8.7-4-1.4-2-1.4-4 .2-4.8 3.4-1.4 16.5 4 16.5 4z" class="N"/><defs><path id="d" d="M100.6 276.3s-1.2 4.2-6.8 4.7c-.4 0-.8.1-1.2.1-4.2 0-7.2-2-8.7-4-1.4-2-1.4-4 .2-4.8 3.4-1.4 16.5 4 16.5 4z"/></defs><clipPath id="e"><use xlink:href="#d"/></clipPath><path d="M102 276.3h-3 3zm-17.4-2.7c.1-.1.5-.1 1-.1a13 13 0 0 1 2.1.3 47 47 0 0 1 5.3 1.4l4.8 1.7 1.5.6.4.2c0 0 .1 0 .1 0 0 0 0 0 0 0h0l.6-1.4.6-1.4h0c0 0 0 0 0 0 0 0-.1 0-.1-.1l-.4-.2a104 104 0 0 0-6.5-2.4c-2-.6-4-1.2-5.7-1.5l-2.6-.3c-.8 0-1.6.1-2.3.3l1 2.8zm.4 2.5c-.6-.8-.8-1.5-.8-2 0-.4.1-.5.3-.6l-1.2-2.8c-1.4.6-2 2-2.2 3.3 0 1.3.5 2.6 1.3 3.8L85 276zm7.5 3.4c-3.8 0-6.3-1.7-7.5-3.4l-2.5 1.7c1.8 2.5 5.3 4.7 10 4.7v-3zm1-.1h-1v3H94l-.3-3zm7-3.2l-1.4-.4h0c0 0 0 0 0 .1v.3c-.2.3-.4.7-.8 1.2-.8 1-2 1.8-4.5 2l.3 3c3.2-.3 5.2-1.7 6.4-3 .6-.7 1-1.3 1.3-1.8l.3-.6v-.2-.1c0 0 0 0 0 0h0c0 0 0 0-1.5-.4zm0 0l-.6 1.4 2 1v-2.2h-1.5zm-16.5-4l.6 1.4-.6-1.4zM84 277l1.2-1-1.2 1zm10 4l-.1-1.5.1 1.5zm6.8-4.7h1.5l-3-.4 1.5.4z" clip-path="url(#e)" class="M"/><use xlink:href="#B" fill="#f0a82f"/><path d="M250 333.5h5v60.8h-5z" class="P"/><path d="M183.8 394.3h5V435h-5zm66.3 0h5V435h-5z" class="Q"/><path d="M183.7 386.6H255v10h-71.4z" class="T"/><use xlink:href="#B" x="-3.7" class="R"/><path d="M167.6 427.6l-3.8 6.6c-.6 1-1.8 1-2.5.3l-14-13.5c-1-1-.2-3 1.3-2.8 1.8.2 3.4.6 4.7 1l1 .3a26 26 0 0 1 2.2.8c1.4.6 2.2 1 2.2 1h2l6.7 6.2z" class="M"/><path d="M195.8 400.4l-9.7 9.4-14 13.5-4.4 4.3-8.7-6.2 5.6-6.4 9-10.3 9-10.4z" class="N"/><defs><path id="f" d="M195.8 400.4l-9.7 9.4-14 13.5-4.4 4.3-8.7-6.2 5.6-6.4 9-10.3 9-10.4z"/></defs><clipPath id="g"><use xlink:href="#f"/></clipPath><path d="M182 395.7l13.2 6 1.3-2.7-13.2-6-1.3 2.7zm-7.3 10l9-10.3-2.3-2-9 10.3 2.3 2zm-9 10.3l9-10.3-2.3-2-9 10.3 2.3 2zm-5.6 6.4l5.6-6.4-2.3-2-5.6 6.4 2.3 2zm8.5 4l-8.7-6.2-1.7 2.4 8.8 6.2 1.7-2.4zm2.5-4l-4.4 4.3 2 2.2 4.4-4.3-2-2.2zm14-13.5l-14 13.5 2 2.2 14-13.5-2-2.2zm9.7-9.4l-9.7 9.4 2 2.2 9.7-9.4-2-2.2zm-12.2-5l.6-1.4-1-.5-.7.8 1 1zm-9 10.4l-1-1 1 1zm-9 10.3l-1-1 1 1zm-5.6 6.4l-1-1-1 1.3 1.4 1 1-1.2zm8.8 6.2l-1 1.2 1 .7 1-1-1-1zm4.4-4.3l-1-1 1 1zm14-13.5l1 1-1-1zm9.7-9.4l1 1 1.6-1.5-2-1-.6 1.4z" clip-path="url(#g)" class="M"/><path d="M195.8 400.4l-9.7 9.4c-3.3-4.6-9-5.2-12.6-5l9-10.3 13.2 6z" class="N"/><defs><path id="h" d="M195.8 400.4l-9.7 9.4c-3.3-4.6-9-5.2-12.6-5l9-10.3 13.2 6z"/></defs><clipPath id="i"><use xlink:href="#h"/></clipPath><path d="M197.3 400.4h-3 3zm-15.3-4.7l13.2 6 1.3-2.7-13.2-6-1.3 2.7zm-7.3 10l9-10.3-2.3-2-9 10.3 2.3 2zm12.7 3.2c-3.8-5.2-10.2-6-13.8-5.7l.1 3c3.5-.1 8.5.5 11.3 4.5l2.4-1.8zm7.5-9.6l-9.7 9.4 2 2.2 9.7-9.4-2-2.2zm1 1l-.6 1.4 2 1v-2.4h-1.5zm-13.2-6l.6-1.4-1-.5-.7.8 1 1zm-9 10.4l-1-1-2.3 2.6 3.5-.1-.1-1.5zm12.6 5l-1.2 1 1 1.4 1.3-1.2-1-1zm9.7-9.4h1.5V397l-2.6 2.4 1 1z" clip-path="url(#i)" class="M"/><path d="M154.5 419.4l-.7 3-1-.3.7-3 1 .3zm2.2.8l-.5 2-1-.3.5-2.2 1 .4z" class="N"/><path d="M172 423.3l-4.4 4.3-8.7-6.2 5.6-6.4c4 1 7 4.2 7.6 8.3z" class="S"/><path d="M219 398.3l-5.3 12.7-4.3 10.3-3.2 7.7-9.7-2 2.8-12 2.4-10.5 1.8-7.8z" class="N"/><defs><path id="j" d="M219 398.3l-5.3 12.7-4.3 10.3-3.2 7.7-9.7-2 2.8-12 2.4-10.5 1.8-7.8z"/></defs><clipPath id="k"><use xlink:href="#j"/></clipPath><path d="M203.5 398l15.4 1.8.3-3L204 395l-.3 3zm-.2 6.6l1.8-7.8-3-.7-1.8 7.8 3 .7zm-2.4 10.5l2.4-10.5-3-.7-2.4 10.5 3 .7zm-2.8 12l2.8-12-3-.7-2.8 12 3 .7zm8.5.3l-9.6-2-.6 3 9.6 2 .6-3zm1.5-6.8l-3.2 7.7 2.8 1 3.2-7.7-2.8-1zm4.3-10.3l-4.3 10.3 2.8 1 4.3-10.3-2.8-1zm5.3-12.7l-5.3 12.7 2.8 1 5.3-12.7-2.8-1zm-14-1.2l.2-1.5h-1.3l-.3 1.3 1.5.3zm-1.8 7.8l-1.5-.3 1.5.3zm-2.4 10.5l1.5.3-1.5-.3zm-2.8 12l-1.5-.3-.3 1.5 1.5.3.3-1.5zm9.7 2l-.3 1.5 1.2.3.5-1.2-1.4-.6zm3.2-7.7l1.4.6-1.4-.6zm4.3-10.3l-1.4-.6 1.4.6zm5.3-12.7l1.4.6.8-1.8-2-.2-.2 1.5z" clip-path="url(#k)" class="M"/><path d="M219 398.3l-5.3 12.7c-3.8-6.6-8.4-7.5-12-6.7l1.8-7.8 15.4 1.8z" class="N"/><defs><path id="l" d="M219 398.3l-5.3 12.7c-3.8-6.6-8.4-7.5-12-6.7l1.8-7.8 15.4 1.8z"/></defs><clipPath id="m"><use xlink:href="#l"/></clipPath><path d="M203.5 398l15.4 1.8.3-3L204 395l-.3 3zm-.2 6.6l1.8-7.8-3-.7-1.8 7.8 3 .7zm11.8 5.6c-2-3.5-4.3-5.7-6.7-6.8-2.4-1-4.8-1-6.8-.7l.7 3c1.5-.3 3.2-.3 5 .5 1.7.8 3.6 2.4 5.4 5.5l2.6-1.5zm2.6-12.6l-5.3 12.7 2.8 1 5.3-12.7-2.8-1zm-14-1.2l.2-1.5h-1.3l-.3 1.3 1.5.3zm-1.8 7.8l-1.5-.3-.5 2.3 2.3-.5-.3-1.5zm12 6.7l-1.3.8 1.5 2.6 1.2-2.8-1.4-.6zm5.3-12.7l1.4.6.8-1.8-2-.2-.2 1.5z" clip-path="url(#m)" class="M"/><path d="M209.6 421.4l-3.2 7.7-9.6-2 2.8-12c2 .2 6.3 1.4 10 6.5z" class="S"/><g class="M"><path d="M206.4 429l-2 6h-6.7s-8.2-6.8-5.4-14c0 0 0-.1 0-.1 3-7.4 14 8.3 14 8.3z"/><path d="M204.4 435h-6.7s-8.2-6.8-5.4-14c.8 0 2 .4 3.3 1.4 3.5 2.5 8.8 12.8 8.8 12.8z"/></g><path d="M226.7 295c.4.1 2.5-6 2.5-6s4-2.5 1.6-23c0 0-8.3-8 0-11 0 0-3-8 1.2-11.3 4.3-3.3 4.8 8 4.8 8s9.2-4.3 10 3.4c1 7.7-4.2 10.2-4.2 10.2s4.8 33.7-13.8 44.7l-2.2-14.5z" class="N"/><defs><path id="n" d="M226.7 295c.4.1 2.5-6 2.5-6s4-2.5 1.6-23c0 0-8.3-8 0-11 0 0-3-8 1.2-11.3 4.3-3.3 4.8 8 4.8 8s9.2-4.3 10 3.4c1 7.7-4.2 10.2-4.2 10.2s4.8 33.7-13.8 44.7l-2.2-14.5z"/></defs><clipPath id="o"><use xlink:href="#n"/></clipPath><path d="M225.6 296l2-2-2 2zm4.8 13.3l-2.2-14.5-3 .4 2.2 14.5 3-.4zm12.3-44.4l-1.5.2h0a3.6 3.6 0 0 1 0 .3 76 76 0 0 1 .1 1.1l.3 4c.2 3.3.2 7.7-.4 12.5-1 9.7-4.5 20.2-13 25.3l1.5 2.6c10-6 13.4-17.7 14.6-27.6l.4-13a74.4 74.4 0 0 0-.4-5.2v-.3c0 0 0-.1 0-.1h0c0 0 0 0-1.5.2zm2.7-10c.4 3.5-.5 5.7-1.5 7a6.7 6.7 0 0 1-1.3 1.4l-.4.3v.1l.7 1.3.7 1.3h0c0 0 0 0 0 0h.1l.2-.1c.2-.1.4-.3.7-.5a10 10 0 0 0 1.9-2c1.4-2 2.5-4.8 2-9l-3 .3zm-8.6-3.6l.6 1.4c0 0 0 0 .1 0 .1 0 .1-.1.3-.1.2-.1.6-.2 1-.3.8-.3 1.8-.5 3-.6 1-.1 2 .1 2.5.6.6.4 1 1 1.3 2.7l3-.3c-.3-2.3-1.2-4-2.6-4.8-1.4-1-3-1-4.3-1-1.4.1-2.7.4-3.7.7l-1.2.4-.3.1h-.1c0 0 0 0 0 0h0c0 0 0 0 .6 1.4zm-3.8-6.7c.4-.3.6-.3.6-.3s0 0 .1.1c.3.3.7 1 1 2 .3 1 .5 2.3.6 3.2l.1 1.2v.3.1l1.5-.1 1.5-.1h0c0 0 0-.1 0-.1v-.4c0-.3-.1-.8-.1-1.3l-.7-3.7c-.3-1.2-1-2.7-2-3.6-.6-.5-1.3-1-2.2-.8-.8 0-1.6.4-2.3 1l1.8 2.4zm-2 10l1.4-.5h0c0 0 0 0 0-.1 0-.1-.1-.1-.1-.2v-1l-.6-3c-.2-2.3.1-4.4 1.6-5.5l-1.8-2.4c-2.8 2-3 5.7-2.8 8.2a20 20 0 0 0 .7 3.4l.3 1 .1.3v.1c0 0 0 0 0 0h0c0 0 0 0 1.4-.5zm0 11l1-1h0l-.1-.1c-.1-.1-.1-.1-.2-.2l-.8-1c-.6-.7-1.3-1.7-1.7-2.7-.4-1-.6-2-.3-2.6.2-.6.8-1.4 2.6-2l-1-2.8c-2.3 1-3.8 2.2-4.4 4-.6 1.7-.2 3.4.4 4.8.6 1.4 1.5 2.6 2.2 3.4l1 1 .3.3.1.1h0 0c0 0 0 0 1-1zm-1.6 23l.8 1.3h0c0 0 0 0 0 0 0 0 0 0 .1 0a2.6 2.6 0 0 0 .3-.3c.2-.2.4-.5.6-.8a12 12 0 0 0 1.3-3.6 66 66 0 0 0 0-19.8l-3 .3c1 10.2.7 15.8 0 18.8-.3 1.5-.7 2.3-1 2.7-.1.2-.2.3-.2.3h0c0 0 0 0 0 0 0 0 0 0 0 0 0 0 0 0 0 0 0 0 0 0 .8 1.2zm-3 7.5c.5.1 1 .1 1-.1.2-.1.4-.2.5-.3.2-.2.3-.4.4-.5.2-.2.3-.6.4-1 .3-.6.6-1.4 1-2.2l.8-2.2.2-.7.1-.2c0 0 0 0 0-.1h0l-1.4-.5-1.4-.5h0c0 0 0 0 0 .1 0 0 0 .1-.1.2l-.2.7-.7 2c-.3.8-.6 1.5-.8 2l-.2.5c0 0 0 0 .1-.1.1 0 .2-.2.4-.2.2-.1.6-.2 1 0l-1 2.8zm.5-1.4l1-1-3.2-3.2.7 4.5 1.5-.2zm2.2 14.5l-1.5.2.3 2.2 2-1-.8-1.3zm13.8-44.7l-.7-1.3-1 .5.2 1 1.5-.2zm-6-13.7l-1.5.1.1 2.3 2-1-.6-1.4zm-4.7-8l-1-1.2 1 1.2zm-1.2 11.3l.5 1.4 1.4-.5-.6-1.4-1.4.5zm0 11l1.5-.2v-.5l-.4-.4-1 1zm-1.6 23l-.8-1.3-.4.3-.2.5 1.4.5zm-2.5 6l-1 1 .3.3.3.1.5-1.4z" clip-path="url(#o)" class="M"/><path d="M221 318.8s7.3-8 13.8 30H221l-10.4-23 10.4-7z" class="N"/><defs><path id="p" d="M221 318.8s7.3-8 13.8 30H221l-10.4-23 10.4-7z"/></defs><clipPath id="q"><use xlink:href="#p"/></clipPath><g class="M"><path d="M211.4 327.2l10.4-7-1.7-2.5-10.4 7 1.7 2.5zm11 21l-10.4-23-2.7 1.2 10.4 23 2.7-1.2zm12.4-1H221v3h13.8v-3zM221 318.8l1 1h0 0 0c0 0 0 0 .1-.1.1-.1.2-.1.3-.1.2 0 .8-.1 1.8 1 1 1 2.5 3.5 4 8 1.6 4.5 3.2 11 4.8 20.4l3-.5c-1.6-9.5-3.3-16.2-5-21-1.6-4.7-3.2-7.5-4.8-9-1.6-1.7-3.2-2-4.6-2a4 4 0 0 0-1.5.6c-.2.1-.3.2-.4.3-.1 0-.1.1-.1.1h0 0 0c0 0 0 0 1 1zm-10.4 7l-.8-1.2-1 .7.5 1 1.4-.6zm10.4 23l-1.4.6.4 1h1v-1.5zm13.8 0v1.5h1.8l-.3-1.8-1.5.3zm-13.8-30l.8 1.2h.1v-.1l-1-1z" clip-path="url(#q)"/><path d="M229 315.8l-12.3 9.4a42 42 0 0 0 4.5 10l4.8 7 3 3.8H158a41 41 0 0 1 20.3-25.7 58 58 0 0 1 5.3-2.6l3.7-1.5 1.3-.5c8.8-3.3 3-11.3 3-11.3l7-1.2c0 6.7 5.3 4.8 5.3 4.8l1-.7c0 0 0 0 0 0l5.2-3.6c10-7 18.8-14.6 18.8-14.6 3.7 14.4 0 26.7 0 26.7z"/></g><path d="M183.7 346h-8.4 0l3-25.7a58 58 0 0 1 5.3-2.6l.1 28.3h0z" class="N"/><defs><path id="r" d="M183.7 346h-8.4 0l3-25.7a58 58 0 0 1 5.3-2.6l.1 28.3h0z"/></defs><clipPath id="s"><use xlink:href="#r"/></clipPath><path d="M184.4 344.6l-1.3 2.7 1.3-2.7zm-2.2 1.3c0 .1 0 .1 0 .2 0 0 0 .1 0 .1v.1l1.5-.2 1.5-.2v.1h-3zm-.1-28.3l.1 28.4 3-.1-.1-28.2-3-.1zm-3 4a55 55 0 0 1 5.2-2.5l-1.2-2.8-5.5 2.6 1.4 2.6zm-2.2 24.5l3-25.4-3-.8c-1 4.4-2.4 12.2-3 26l3 .1zm0 0h0 0l-3-.5c0 .2 0 .3 0 .3h3zm7-1.5h-8.4v3h8.4v-3zm0 1.5l-.7 1.4c.5.3 1 .2 1.6-.1s.7-1 .6-1.4l-1.5.2zm0-.1h1.5v-.1l-1.5.1zm-.1-28.3l1.5.1a1.5 1.5 0 0 0-2.1-1.4l.6 1.4zm-5.3 2.6l-.7-1.3c-.4.2-.6.5-.7 1l1.4.4zm-3 25.7h1.5c0-.1 0-.1 0-.2h-1.5zm0 .1h-1.5c0 .8.7 1.5 1.5 1.5V346zm8.4 0l.7-1.4c-.2-.1-.4-.2-.7-.2v1.5z" clip-path="url(#s)" class="M"/><path d="M226 342c-20.7-3-21.2-28.2-21-35 0 0 0 0 0 0l5.2-3.6a57 57 0 0 0 2.7 22.4c2 5 5.4 7.7 8.3 9l4.8 7z" class="N"/><defs><path id="t" d="M226 342c-20.7-3-21.2-28.2-21-35 0 0 0 0 0 0l5.2-3.6a57 57 0 0 0 2.7 22.4c2 5 5.4 7.7 8.3 9l4.8 7z"/></defs><clipPath id="u"><use xlink:href="#t"/></clipPath><path d="M224.6 342h3-3zM220 336l4.8 7 2.4-1.8-4.7-7-2.6 1.5zm-8.4-9.2c2.2 5.5 6 8.4 9 9.8l1.3-2.7c-2.6-1.2-5.6-3.5-7.5-8.2l-2.8 1zm-2.8-23c-.3 4.5-.4 15 2.8 23l2.8-1c-3-7.5-3-17.3-2.6-21.8l-3-.2zm-3 5l5.3-3.6-1.7-2.4-5.2 3.5 1.7 2.5zm-.2.1l.1-.1a.5.5 0 0 1 .1 0l-1.7-2.5c0 0 0 0 0 0h.1l1.3 2.7zm20.5 32c-9.6-1.4-14.6-8-17-15-2.6-7.2-2.7-15-2.6-18.3l-3-.1a55 55 0 0 0 2.7 19.4c2.8 7.8 8.4 15.4 19.6 17l.4-3zm-.2 1.5h1.5c0-.3-.1-.6-.3-1l-1.2 1zm-4.8-7l1.3-.8c-.2-.3-.4-.5-.7-.6l-.6 1.4zm-8.3-9l-1.4.6 1.4-.6zm-2.7-22.4h1.5c0-.6-.3-1-.8-1.4-.5-.3-1-.2-1.6.1l1 1.2zm-5.2 3.6l-.8-1.3h0l.8 1.3zm0 0l-.7-1.3c-.5.3-.8.7-.8 1.3h1.5zm21 35v1.5c.4.1 1-.1 1.2-.4.3-.3.5-.7.5-1H226z" clip-path="url(#u)" class="M"/><path d="M205 307.2c-.6 3-1.7 5.8-3.4 7.8-7.6 8.7-12.2 4.7-14.4 1l1.3-.5c3-1.2 4.4-3 4.7-4.7.6-3.2-1.8-6.5-1.8-6.5l7-1.2c0 2.5.7 3.8 1.7 4.4 1.6 1 3.7.3 3.7.3l1-.7z" class="N"/><defs><path id="v" d="M205 307.2c-.6 3-1.7 5.8-3.4 7.8-7.6 8.7-12.2 4.7-14.4 1l1.3-.5c3-1.2 4.4-3 4.7-4.7.6-3.2-1.8-6.5-1.8-6.5l7-1.2c0 2.5.7 3.8 1.7 4.4 1.6 1 3.7.3 3.7.3l1-.7z"/></defs><clipPath id="w"><use xlink:href="#v"/></clipPath><path d="M206.5 308l-2.7-1.4 2.7 1.4zm-1.6 1.3l1-.7-1.7-2.5-1 .7 1.6 2.5zm-5.3-.3c1.2.8 2.5 1 3.4.8.5 0 .8-.1 1-.2.1 0 .3-.1.3-.1 0 0 .1 0 .1 0 0 0 0 0 0 0h0l-.5-1.4-.5-1.4s0 0 0 0c0 0-.1 0-.2.1-.2 0-.4.1-.7.1-.6 0-1 0-1.4-.3l-1.7 2.4zm-2.3-5.7c0 2.8.8 4.6 2.3 5.7l1.7-2.5c-.4-.3-1-1-1-3.2h-3zm-5.4 2.7l7-1.2-.5-3-7 1.2.5 3zm3 5.3c.4-2-.2-4-.7-5.3l-.8-1.7-.3-.5c0-.1-.1-.1-.1-.1 0 0 0 0 0 0l-1.2 1-1.2 1s0 0 0 0c0 0 0 .1.1.1l.2.4c.2.3.4.8.7 1.3.5 1 .8 2.4.6 3.6l3 .5zm-5.7 6c3.5-1.3 5.2-3.5 5.7-6l-3-.6c-.2 1.2-1 2.6-3.8 3.6l1 2.8zm-1.3.5l1.3-.5-1-2.8-1.3.5 1 2.8zm12.7-3.5c-3.7 4.2-6.2 5-7.8 4.7-1.7-.2-3-1.6-4-3.4L186 317c1.2 2 3.2 4.3 6.2 4.8 3 .5 6.6-1.2 10.6-5.6l-2.3-2zm3-7c-.6 3-1.6 5.4-3 7l2.3 2c2-2.3 3.2-5.2 3.8-8.5l-3-.6zm1.5.3l.8 1.3.3-.2.2-.4-1.3-.7zm-1 .7l.5 1.4h.2l.1-.1-.8-1.3zm-3.7-.3l.8-1.2-.8 1.2zm-1.7-4.4h1.5v-1.8l-1.7.3.3 1.5zm-7 1.2l-.2-1.5-2.4.4 1.4 2 1.2-1zm1.8 6.5l-1.5-.3 1.5.3zm-4.7 4.8l.5 1.4-.5-1.4zm-1.3.5l-.5-1.4-1.7.6 1 1.6 1.3-.8zm14.4-1l-1-1 1 1zm3.4-7.8l1.5.3-2.8-1 1.3.7z" clip-path="url(#w)" class="M"/><path d="M163 347h-9s5.4-10 13.7-9.4a65 65 0 0 1 17.6 4.7l6.8-2.3c2.3-.8 4.8.1 6 2l3.2 5H163z" class="N"/><defs><path id="x" d="M163 347h-9s5.4-10 13.7-9.4a65 65 0 0 1 17.6 4.7l6.8-2.3c2.3-.8 4.8.1 6 2l3.2 5H163z"/></defs><clipPath id="y"><use xlink:href="#x"/></clipPath><g class="M"><path d="M164.4 347h-3 3zm37-1.5H163v3h38.4v-3zm-4.5-2.6l3.2 5 2.5-1.6-3.2-5-2.5 1.6zm-4.4-1.5c1.6-.6 3.4.1 4.4 1.5l2.5-1.6a6.8 6.8 0 0 0-7.8-2.7l1 3zm-6.8 2.3l6.8-2.3-1-3-6.8 2.3 1 3zm-18.2-4.6a53 53 0 0 1 11.6 2.5 74.5 74.5 0 0 1 5.1 1.9l.3.1c0 0 .1 0 .1 0 0 0 0 0 0 0l.6-1.4.6-1.4h0c0 0 0 0 0 0 0 0-.1 0-.1 0-.1 0-.2-.1-.3-.1l-1.2-.5-4.2-1.5a56 56 0 0 0-12.3-2.6l-.2 3zm-13.6 8l1.3.7c0 0 0-.1 0-.1 0-.1.1-.2.2-.3a24.1 24.1 0 0 1 3.3-4.2c2.3-2.3 5.3-4.3 8.8-4l.2-3c-4.8-.4-8.7 2.4-11.2 5l-3 3.6c-.3.5-.6 1-.8 1.2l-.2.4c0 0 0 .1-.1.1 0 0 0 0 0 0h0c0 0 0 0 1.3.7zm9-1.5h-9v3h9v-3zm0 1.5h-1.5v1.5h1.5V347zm38.4 0v1.5h2.8l-1.5-2.3-1.3.8zm-3.2-5l1.3-.8-1.3.8zm-6-2l.5 1.4-.5-1.4zm-6.8 2.3l-.6 1.4.5.2.6-.2-.5-1.4zm-31.3 4.8l-1.3-.7-1.2 2.2h2.5V347zm9 0h1.5v-1.5H163v1.5z" clip-path="url(#y)"/><path d="M244.5 258.5c-1 2-2.2 3-3.7 3h0c-2 .2-3.8-1.3-4.5-2 .1-.1.3-.1.4-.2.5-.3.8-1 .7-1.5-.1-3-5.2-3.3-5.5-3.3v.5c.1 0 4.8.3 5 2.8 0 .5-.1.8-.5 1-1 .6-3 .1-3.8-.1l-.2.5c.1 0 1.8.5 3.2.4 0 0 .1 0 .1 0 .5.5 2.7 2.6 5.2 2.3 0 0 0 0 .1 0 1.6-.2 3-1.4 4.2-3.4l-.6-.2z"/></g><path d="M164 291s-1.5-3.7-5-1c-3.4 2.7 1.2 14.2 8 10.5l-3-9.5z" class="N"/><defs><path id="z" d="M164 291s-1.5-3.7-5-1c-3.4 2.7 1.2 14.2 8 10.5l-3-9.5z"/></defs><clipPath id="AA"><use xlink:href="#z"/></clipPath><g class="M"><path d="M164 289.6v3-3zm4.6 10.5l-3-9.5-3 1 3 9.5 3-1zM158.2 289c-1.4 1-1.8 3-1.7 4.5.1 1.7.6 3.5 1.5 5 1 1.6 2.2 3 4 3.8 1.8.8 3.8.8 6-.3l-1.4-2.6c-1.3.7-2.4.6-3.3.3-1-.4-2-1.3-2.6-2.5-.7-1.2-1-2.5-1-3.7-.1-1.2.3-1.8.6-2l-1.8-2.4zm5.8 2.2l1.4-.6h0c0 0 0 0 0 0 0 0 0 0 0-.1l-.1-.2c-.1-.1-.2-.3-.3-.5-.2-.4-.7-1-1.3-1.4a3.9 3.9 0 0 0-2.5-.8c-1 .1-2 .5-3 1.3l1.8 2.4c.7-.5 1-.6 1.3-.6.2 0 .4.1.6.2.2.1.4.4.5.6.1.1.1.2.1.3 0 0 0 .1 0 .1h0c0 0 0 0 1.4-.6zm0 0l1.4-.5-.3-1h-1v1.5zm3 9.5l.7 1.3 1-.6-.4-1.2-1.4.5zm-3-9.5l-1.4.6.4 1h1V291z" clip-path="url(#AA)"/><path d="M166 284s-5.3 2.8-11-7-2-22.4 10.2-17c0 0 3.7-12.2 21.4-13s26.4 14 26.4 14 6.5-4.3 12.6 6.5-10.7 25.4-10.7 25.4l-13.2 6.4L166 284z"/></g><path d="M163 277s-3.3 23.3 8.8 29.7c12 6.4 25.5 1.5 33.5-5.6 0 0 5.8 3 10.4-1.8s5-13.5-5-10.8l-3 6.8s-7.6-5.6-4.6-18.2c0 0-13 3.6-21-3 0 0-9.8 9.5-18.8 3z" class="N"/><defs><path id="AB" d="M163 277s-3.3 23.3 8.8 29.7c12 6.4 25.5 1.5 33.5-5.6 0 0 5.8 3 10.4-1.8s5-13.5-5-10.8l-3 6.8s-7.6-5.6-4.6-18.2c0 0-13 3.6-21-3 0 0-9.8 9.5-18.8 3z"/></defs><clipPath id="AC"><use xlink:href="#AB"/></clipPath><g class="M"><path d="M162 276l2 2-2-2zm20-2l-1-1h0c0 0 0 0-.1.1a17.5 17.5 0 0 1-1.4 1.2c-1 .7-2.4 1.7-4 2.4-3.3 1.5-7.4 2-11.3-.7l-1.7 2.5c5 3.6 10.4 2.7 14.3 1 2-1 3.5-2 4.7-2.7.6-.4 1-.8 1.3-1l.4-.3c0 0 .1-.1.1-.1h0 0c0 0 0 0-1-1zm21 3l-.4-1.4s0 0 0 0c0 0-.1 0-.1 0l-.4.1-1.5.3a33 33 0 0 1-5.1.5c-4 .1-9-.7-12.6-3.7l-2 2.3c4.4 3.7 10 4.5 14.5 4.4 2.2 0 4.2-.3 5.6-.5l1.7-.3.5-.1h.1c0 0 0 0 0 0h0l-.4-1.4zm4.6 18.3l1-1.2c0 0 0 0 0 0 0 0-.1-.1-.2-.2l-.7-.7c-.6-.6-1.4-1.6-2-3-1.4-2.7-2.5-7-1-12.8l-3-.7c-1.6 6.7-.4 11.6 1.3 15 .8 1.6 1.8 2.8 2.5 3.6l1 1 .3.2c0 0 .1.1.1.1 0 0 0 0 0 0h0c0 0 0 0 1-1.2zm1.8-7.4l-3 6.8 2.7 1.3 3-6.8-2.7-1.2zm7.5 12.5a13 13 0 0 0 2.9-4.6c.6-1.6.8-3.4.4-5-.4-1.6-1.5-3-3.2-3.8-1.7-.7-4-.7-6.6.1l.8 3c2.3-.6 3.8-.5 4.7-.2.8.3 1.3 1 1.4 1.7.2 1 .1 2-.3 3.3a10 10 0 0 1-2.2 3.5l2.2 2zm-11.5.7l-.7 1.3h0c0 0 0 0 0 0 0 0 0 0 .1 0 .1 0 .1.1.2.1l.8.3c.7.2 1.7.5 3 .6a10 10 0 0 0 8.1-3.1l-2.2-2a7 7 0 0 1-5.7 2.2 8.5 8.5 0 0 1-2.7-.7h-.1c0 0 0 0 0 0 0 0 0 0-.7 1.3zm-34.2 7c12.8 6.8 27 1.5 35.2-5.8l-2-2.2c-7.7 7-20.6 11.4-31.8 5.4l-1.4 2.7zm-8-31l-1.5-.2h0c0 0 0 0 0 .1a2.6 2.6 0 0 0 0 .2l-.1.8c-.1.7-.2 1.6-.2 2.8-.1 2.3-.2 5.5.2 9 .7 6.7 3 14.8 9.7 18.4l1.4-2.7c-5.3-2.8-7.4-9.5-8-16a57 57 0 0 1-.2-8.5l.2-2.6.1-.7c0-.1 0-.1 0-.2 0 0 0 0 0 0h0c0 0 0 0-1.5-.2zm0 0l1-1.2-1-.7-1 1 1 1zm18.8-3l1-1-1-1-1 1 1 1zm21 3l1.5.3.6-2.5-2.4.7.4 1.5zm4.6 18.3l-1 1.2 1.5 1 .8-1.7-1.4-.6zm3-6.8l-.4-1.4-.7.2-.3.6 1.4.6zm-5.3 12.6l.7-1.3-1-.5-.8.7 1 1zM163 277l-1-1-.4.4-.1.5 1.5.2z" clip-path="url(#AC)"/><path d="M191.6 287.8c-.3 1.2 0 2.3.7 2.5.7.2 1.6-.6 2-1.8s0-2.3-.7-2.5-1.6.6-2 1.8zm-16.7-.1c0 1.2.6 2.2 1.3 2.3s1.4-1 1.4-2.2-.6-2.2-1.3-2.2c-.7 0-1.3 1-1.4 2.2zm4 14c2.7.8 9 1 13.2-4.7l-1.2-1c-3.5 5-9 5-11.5 4l-.4 1.4zm13.2-4.7a.8.8 0 1 0-1.2-.9l1.2 1zm-12.7 3.3c-.4-.1-.8.1-1 .5s.1.8.5 1l.4-1.4z"/></g><path d="M138 396.6h9.2V435H138zm98.8 0h8.3V435h-8.3z" class="P"/><path d="M102.7 345.8h148.8v6H102.7z" class="R"/><path d="M107.4 396.6h9.2V435h-9.2z" class="Q"/><path d="M107.4 396.6h5.8V435h-5.8z" class="U"/><path d="M208 396.6h8.3V435H208z" class="Q"/><path d="M207.3 396.6h5.8V435h-5.8z" class="U"/><path d="M107.4 351.8H213v49.7H107.4z" class="T"/><path d="M213 351.8h32v49.7h-32z" class="R"/><path d="M107.4 351.8H245v3.7H107.4z" opacity=".2" class="M"/><use xlink:href="#B" x="153" fill="#f0a82f"/><path d="M403 333.5h5v60.8h-5z" class="P"/><path d="M336.8 394.3h5V435h-5zm66.3 0h5V435h-5z" class="Q"/><path d="M336.7 386.6H408v10h-71.4z" class="P"/><use xlink:href="#B" x="149.3" class="R"/><path d="M308.2 310l-1.2 1.7-13.5-9.8h0l-1-2 2.2.3h0zm74 35.6s-47 3.5-57.7-13.5c-14.2-23-10.4-43.3-10.4-43.3s-10.4-.4-8.3-15 17.5-19.3 17.5-19.3c.1-.1 2.7-4.6 11.2-7 3.2-.8 7-1.4 12-1.3 18.4.4 29 19.4 29.5 37.2.6 17.8 11 35.5 14.2 44.2s-8 18-8 18z" class="M"/><path d="M385.3 341.3c0 2.3-2 4.5-4.5 4.5H312s18-33 26.5-31.5c.5.1 1 .2 1.4.2 7.3.6 2.6-7.5 2.6-7.5l9-5.2s.6 9.2 2.2 11c.6.6 2 .7 4 .6l10.5-.7c2.6.5 11.6 17 16.5 26.6.3.7.5 1.4.5 2z" fill="#a9c563"/><path d="M318 346c-2.4 1.6-5.5 2-8.2 1-2-1-3.7-2.5-3.7-6v-21s-3.6-2-4-5.5 1.6-8.6 3.3-9c1.6-.3 2 2 2 2s5-3.6 7.4 1.2-1 9.8-1 9.8a167 167 0 0 0 7.1 23.4c-.1 1.6-1.7 3-3.2 4z" class="N"/><defs><path id="AD" d="M318 346c-2.4 1.6-5.5 2-8.2 1-2-1-3.7-2.5-3.7-6v-21s-3.6-2-4-5.5 1.6-8.6 3.3-9 2 2 2 2 5-3.6 7.4 1.2-1 9.8-1 9.8a167 167 0 0 0 7.1 23.4c-.1 1.6-1.7 3-3.2 4z"/></defs><clipPath id="AE"><use xlink:href="#AD"/></clipPath><path d="M319 347.2l-2-2 2 2zm.6-5.2c0 .3-.2.8-.7 1.3-.5.5-1 1-1.8 1.5l1.7 2.5c.8-.6 1.7-1.2 2.4-2 .7-.8 1.3-1.8 1.4-3l-3-.3zm-5.6-23.3l-1.4.5h0c0 0 0 0 0 0 0 0 0 .1.1.2l.2.6.8 2.3 2.5 7.3c1 2.7 1.8 5.5 2.4 7.8l.7 3 .2 1.5 3 .3c.1-.6-.1-1.5-.2-2.4l-.8-3.2c-.7-2.4-1.6-5.2-2.5-8l-2.5-7.4-.8-2.4-.2-.6-.1-.2c0 0 0 0 0 0h0c0 0 0 0-1.4.5zm-.4-9c1 2 1 4 .4 5.6l-.8 2c-.1.2-.2.4-.3.6 0 .1-.1.1-.1.1 0 0 0 0 0 0l1.3.8 1.3.8h0c0 0 0 0 0 0a.2.2 0 0 1 0-.1l.1-.2c.1-.2.2-.4.4-.7.3-.6.7-1.5 1-2.5.6-2 1-5-.6-7.8l-2.6 1.4zm-6-2l1 1.2h0c0 0 .1 0 .1-.1.1-.1.3-.2.5-.3.4-.2 1-.4 1.6-.6s1-.1 1.6.1c.4.2 1 .6 1.5 1.5l2.7-1.4c-.8-1.4-1.8-2.4-3-3-1.2-.5-2.3-.5-3.3-.3-1 .2-1.8.6-2.4 1-.3.1-.5.3-.7.4l-.2.1c0 0 0 0-.1 0 0 0 0 0 0 0h0c0 0 0 0 1 1.2zm-1.8-.6s-.1 0-.1 0c0 0 0 0 .1.1s.1.1.1.2c.1.1.2.3.2.5v.2c0 0 0 0 0 0l1.5-.3 1.5-.3h0c0 0 0 0 0 0 0 0 0-.1 0-.1v-.4a5.6 5.6 0 0 0-.5-1.1c-.4-.8-1.5-2-3.2-1.7l.5 3zm-2 7.3c-.1-1.5.2-3.4.8-5a8 8 0 0 1 .9-1.9c.4-.5.5-.4.3-.4l-.5-3c-1 .2-1.7 1-2.2 1.6-.5.7-1 1.6-1.3 2.6-.7 2-1.2 4.3-1 6.3l3-.2zm2.4 5.6l.7-1.3-.1-.1c-.1-.1-.2-.1-.3-.2-.3-.2-.7-.5-1-1-.8-.8-1.5-2-1.6-3l-3 .3c.2 2.3 1.4 4 2.5 5a10.8 10.8 0 0 0 2.1 1.6c0 0 0 0 .1 0 0 0 0 0 0 0h0c0 0 0 0 .7-1.3zm1.5 21v-21h-3v21h3zm2.8 4.5c-.8-.4-1.5-.8-2-1.5-.5-.7-.8-1.6-.8-3h-3c0 2 .5 3.5 1.4 4.7 1 1.2 2 2 3.2 2.5l1.2-2.8zm6.8-.7c-2 1.4-4.6 1.7-6.8.7l-1.2 2.8c3.2 1.4 6.8 1 9.6-1l-1.7-2.5zm.8 1.2l-1-1 2 2.3-.8-1.2zm3.2-4l-1.5-.1 1.5.1zm-7-23.4l-1.2-.8-.4.6.3.7 1.4-.5zm-6.5-11l-1.5.3.4 2.3 2-1.4-1-1.2zM306 320h1.5v-1l-.8-.4-.7 1.3zm3.7 27l.6-1.4-.6 1.4zm8.2-1l1 1-2-2.3.8 1.3z" clip-path="url(#AE)" class="M"/><path d="M371.5 346h9s-5.4-10-13.7-9.4-17.6 4.7-17.6 4.7l-6.8-2.3c-2.3-.8-4.8.1-6 2l-3.2 5h38.4z" class="N"/><defs><path id="AF" d="M371.5 346h9s-5.4-10-13.7-9.4-17.6 4.7-17.6 4.7l-6.8-2.3c-2.3-.8-4.8.1-6 2l-3.2 5h38.4z"/></defs><clipPath id="AG"><use xlink:href="#AF"/></clipPath><path d="M373 346h-3 3zm-40 1.5h38.4v-3H333v3zm2-7.2l-3.2 5 2.5 1.6 3.2-5-2.5-1.6zm8-2.7a6.8 6.8 0 0 0-7.9 2.7l2.5 1.6a3.8 3.8 0 0 1 4.4-1.5l1-3zm6.8 2.3l-6.8-2.3-1 3 6.8 2.3 1-3zm17-4.7c-4.4.3-9 1.6-12.3 2.6a71.2 71.2 0 0 0-5.4 2c-.1.1-.2.1-.3.1h-.1c0 0 0 0 0 0h0l.6 1.4.6 1.4s0 0 0 0c0 0 0 0 .1 0l.3-.1a71.5 71.5 0 0 1 5.1-1.9 53 53 0 0 1 11.6-2.5l-.2-3zm14 11l1.3-.7h0c0 0 0 0 0 0 0 0 0-.1-.1-.1l-.2-.4-.8-1.2c-.7-1-1.7-2.3-3-3.6-2.5-2.6-6.4-5.3-11.2-5l.2 3c3.5-.3 6.6 1.7 8.8 4 1 1 2 2.3 2.6 3.2l.7 1c.1.1.1.2.2.3 0 0 0 .1 0 .1l1.3-.7zm-9 1.5h9v-3h-9v3zm0-1.5v1.5h1.5V346h-1.5zm-38.4 0l-1.3-.8-1.5 2.3h2.8V346zm3.2-5l-1.3-.8 1.3.8zm6-2l-.5 1.4.5-1.4zm6.8 2.3l-.5 1.4.6.2.5-.2-.6-1.4zm31.3 4.7v1.5h2.5l-1.2-2.2-1.3.7zm-9 0v-1.5H370v1.5h1.5z" clip-path="url(#AG)" class="M"/><path d="M357.8 313.4c-2 2.4-5.6 5.8-10.7 6-5.3.2-6.8-2.8-7.2-4.8 3 .2 4-1 4-2.4.2-2.2-1.5-5-1.5-5l9-5.2.7 6.3c.4 2 .8 4 1.5 4.7.6.6 2 .7 4 .6z" class="N"/><defs><path id="AH" d="M357.8 313.4c-2 2.4-5.6 5.8-10.7 6-5.3.2-6.8-2.8-7.2-4.8 3 .2 4-1 4-2.4.2-2.2-1.5-5-1.5-5l9-5.2.7 6.3c.4 2 .8 4 1.5 4.7.6.6 2 .7 4 .6z"/></defs><clipPath id="AI"><use xlink:href="#AH"/></clipPath><path d="M357.8 312v3-3zm-5 2c.7.7 1.7 1 2.4 1 .8.1 1.8.1 2.8 0l-.2-3h-2.2c-.6-.1-.7-.2-.6-.1l-2.2 2zm-2-5.4a25 25 0 0 0 .7 3c.3.8.6 1.8 1.2 2.4l2.2-2c-.1-.1-.3-.4-.5-1.3a24 24 0 0 1-.6-2.7l-3 .5zm.8-6.6l-1.5.1h0c0 0 0 .1 0 .1v.4l.1 1.5c.1 1.2.3 2.8.6 4.4l3-.5-.5-4.2-.1-1.4v-.4c0-.1 0-.1 0-.1h0c0 0 0 0-1.5.1zm-8.3 6.5l9-5.2-1.5-2.6-9 5.2 1.5 2.6zm2.3 4c.1-1.5-.4-3-.8-4l-.6-1.4v-.4l-.1-.1c0 0 0 0 0 0l-1.3.8-1.3.8s0 0 0 0v.1a11.2 11.2 0 0 1 .7 1.4c.4 1 .6 2 .6 2.7l3 .3zm-5.7 3.8c1.6.1 3-.1 4-.8 1-.8 1.5-2 1.6-3l-3-.2c0 .4-.2.6-.3.8-.2.2-.8.4-2 .3l-.2 3zm7.2 1.8c-2.4.1-3.6-.5-4.4-1.2-.7-.7-1-1.6-1.3-2.4l-3 .6c.2 1.2.8 2.8 2.2 4 1.4 1.3 3.5 2 6.5 2l-.1-3zm9.6-5.4c-1.8 2.3-5 5.2-9.6 5.4l.1 3c5.8-.2 9.8-4 11.8-6.5l-2.3-2zm1.2 1l.1 1.5-.1-3v1.5zm-4-.6l-1 1 1-1zm-1.5-4.7l-1.5.3 1.5-.2zm-.7-6.3l1.5-.1v-2.4l-2 1.2.7 1.3zm-9 5.2l-.7-1.3-1.3.8.8 1.3 1.3-.8zm1.5 5h-1.5 1.5zm-4 2.4V313l-2-.2.4 2 1.5-.3zm7 4.8l.1 1.5-.1-1.5zm10.7-6V312h-.7l-.4.6 1.2 1z" clip-path="url(#AI)" class="M"/><path d="M316 294.7s-2-3.5-5-.5 2.8 14 9.2 9.5l-4.2-9z" class="N"/><defs><path id="AJ" d="M316 294.7s-2-3.5-5-.5 2.8 14 9.2 9.5l-4.2-9z"/></defs><clipPath id="AK"><use xlink:href="#AJ"/></clipPath><path d="M321.4 303l-4.2-9-2.7 1.3 4.2 9 2.7-1.3zM310 293c-1.3 1.3-1.4 3-1.2 4.7.3 1.6 1 3.4 2 4.8s2.5 2.8 4.3 3.3c2 .6 4 .4 6-1l-1.7-2.5c-1.2 1-2.3 1-3.2.6-1-.3-2-1-2.8-2.2-.8-1-1.4-2.4-1.5-3.5-.2-1.2.1-1.8.3-2l-2-2zm6 1.5l1.3-.7h0c0 0 0 0 0 0a.2.2 0 0 1 0-.1c0 0-.1-.1-.1-.2a4.3 4.3 0 0 0-.4-.5c-.3-.4-.8-1-1.4-1.2-.7-.4-1.5-.6-2.6-.5-1 .2-2 .7-3 1.6l2 2c.6-.6 1-.8 1.3-.8.2 0 .4 0 .6.1.2.1.4.3.6.5l.2.2v.1h0l1.3-.7zm4.2 9l1 1.2 1-.7-.5-1-1.4.6zm-4.2-9l1.4-.6h0 0l-1.3.7z" clip-path="url(#AK)" class="M"/><path d="M362 286.7l-2 5.7s-2.7-2.4-4.8-7.6c-6.5 1.2-18.4 1.2-25.5-12.8-.1 0-.2 0-.2 0-1.5.7-11 5.4-9.4 15.5 0 0-3 1.4-6 1.3 1 7.3 3.8 17.4 11.6 20.4 12.7 5 25.5-1.4 32.7-9.4 0 0 6 2.3 10-3 4-5.2 3.3-14-6.3-10.2z" class="N"/><defs><path id="AL" d="M362 286.7l-2 5.7s-2.7-2.4-4.8-7.6c-6.5 1.2-18.4 1.2-25.5-12.8-.1 0-.2 0-.2 0-1.5.7-11 5.4-9.4 15.5 0 0-3 1.4-6 1.3 1 7.3 3.8 17.4 11.6 20.4 12.7 5 25.5-1.4 32.7-9.4 0 0 6 2.3 10-3 4-5.2 3.3-14-6.3-10.2z"/></defs><clipPath id="AM"><use xlink:href="#AL"/></clipPath><g class="M"><path d="M360.5 286.7h3-3zm9 11a13.1 13.1 0 0 0 2.3-4.9c.4-1.7.4-3.5-.1-5-.6-1.6-1.8-3-3.7-3.4-1.8-.5-4-.2-6.5.8l1 2.8c2.2-1 3.7-1 4.6-.7.8.2 1.3.8 1.6 1.5.3.8.4 2 0 3.3-.3 1.3-1 2.6-1.8 3.8l2.4 1.8zm-11.3 2l-.5 1.4h0c0 0 0 0 0 0 0 0 0 0 .1 0h.3c.2.1.5.1 1 .2.7.1 1.7.3 3 .2 2.4-.1 5.4-1 7.7-4L367 296c-1.7 2.2-3.7 2.8-5.4 3-1 0-1.6-.1-2.2-.2l-.6-.2c-.1 0-.1 0-.1-.1 0 0 0 0 0 0 0 0 0 0-.5 1.4zm-33.2 11c13.5 5.3 27-1.6 34.3-10l-2.2-2c-7 7.7-19 13.7-31 9l-1 2.8zM312.4 289c.5 3.7 1.5 8.2 3.4 12.3 2 4 4.8 7.7 9 9.4l1-2.8c-3.4-1.3-5.8-4.2-7.5-8a40 40 0 0 1-3.1-11.4l-3 .4zm7.6-1.5l-.6-1.4s0 0 0 0c0 0 0 0-.1 0-.1 0-.2.1-.3.1l-1.2.4c-1 .3-2.4.6-3.8.6v3c1.8 0 3.5-.3 4.7-.7l1.5-.5h.4.1c0 0 0 0 0 0l-.6-1.4zm8.8-17a21 21 0 0 0-6.3 4.6c-2.6 2.8-4.8 7-4 12.5l3-.4c-.7-4.5 1-7.7 3.2-10 2.2-2.3 4.7-3.6 5.4-4l-1.2-2.7zm.8-.1h-.1-.1l.2 3c0 0 .1 0 .1 0 0 0 .1 0 .1 0l-.2-3zm25.4 12.8c-3 .6-7.4 1-11.7-.6-4.3-1.5-8.8-4.7-12.2-11.4l-2.7 1.4c3.8 7.3 8.8 11 14 12.8 5 1.7 10 1.4 13.3.8l-.6-3zm5 9l1-1h0a.6.6 0 0 0-.1-.1l-.3-.3-1-1.3c-1-1.2-2-3-3-5.4l-2.8 1c1 2.7 2.4 4.8 3.4 6l1.3 1.5.4.4c.1.1.1.1.1.1 0 0 0 0 0 0h0c0 0 0 0 1-1zm.5-6.2l-2 5.7 3 1 2-5.7-3-1zm1.4.5l-.6-1.4-1 .4v1h1.5zm6.3 10.2l-1.2-1 1.2 1zm-10 3l.5-1.4-1-.4-.7.8 1 1zm-32.7 9.4l-.6 1.4.6-1.4zM314 288.8v-1.5h-1.7l.2 1.7 1.5-.2zm6-1.3l.6 1.4 1-.5-.2-1-1.5.2zm9.4-15.5l-.1-1.5h-.3l-.2.1.6 1.4zm.3 0l1.3-.7-.4-1-1 .1.1 1.5zm25.5 12.8l1.4-.6-.5-1-1.2.2.3 1.5zm4.8 7.6l-1 1 1.7 1.5.7-2.2-1.4-.5zm2-5.7l1.4.5.1-.2v-.2H362z" clip-path="url(#AM)"/><path d="M343 293c.7 0 1.3-1 1.3-2.2s-.6-2.2-1.3-2.2-1.3 1-1.3 2.2.6 2.2 1.3 2.2zm-16.8-1.4c.1 1.2.7 2.2 1.5 2s1.3-1 1.2-2.3c-.1-1.2-.7-2.2-1.5-2-.7.1-1.3 1-1.2 2.3z"/></g><path d="M361.7 267c-10-19.4-38.4-12.5-38.6-12.5.1-.1 2.7-4.6 11.2-7 25 .8 27.4 19.4 27.4 19.4z" class="N"/><defs><path id="AN" d="M361.7 267c-10-19.4-38.4-12.5-38.6-12.5.1-.1 2.7-4.6 11.2-7 25 .8 27.4 19.4 27.4 19.4z"/></defs><clipPath id="AO"><use xlink:href="#AN"/></clipPath><path d="M334.3 249c12 .4 18.5 5 22 9.4a21.3 21.3 0 0 1 3.3 6c.3.8.5 1.5.6 2l.1.5h0 0 1.5l1.5-.2h0c0 0 0 0 0-.1 0-.1 0-.1 0-.2l-.1-.7c-.1-.6-.3-1.3-.7-2.3-.7-2-1.8-4.4-3.8-7-4-5-11.3-10-24.2-10.6l-.1 3zm-9.8 6c-.1.2 2.2-4 10.3-6.2l-.8-3c-9 2.4-12 7.2-12 7.6l2.6 1.5zm38.6 11c-5.4-10.4-15.6-13.6-24.2-14.3-4.3-.4-8.3-.1-11.2.3l-3.5.5a38 38 0 0 0-1 .2l-.3.1h-.1l.7 3c.1 0 7-1.7 15-1 8 .7 17 3.7 21.8 12.7l2.7-1.4zm-28.7-18.7l.1-1.5h-.2-.2l.4 1.4zm-11.2 7l-1.3-.7-1.7 3 3.4-.8-.3-1.5zm38.6 12.5l-1.3.7 2.8-1-1.5.2z" clip-path="url(#AO)" class="M"/><path d="M340.6 300.8l2 .1c.3 0 .6 0 1-.1.3 0 .4-.1.6-.2.1 0 .1-.1.1-.1a1.5 1.5 0 0 0 .3-.9c0-.2 0-.5-.1-.8l-.2-1h0c0-.1.1-.3.2-.3.1 0 .1 0 .2 0a3 3 0 0 1 1.5 1.8c.1.4.1 1 0 1.4-.1.2-.2.5-.3.7-.2.2-.4.4-.6.6s-.5.2-.7.3c-.2.1-.5.1-.7.1-.4 0-.8-.1-1.2-.2s-.7-.3-1-.4c-.3-.2-.6-.4-1-.6-.1-.1-.1-.2 0-.3.1-.1.1-.1.2-.1h0z" fill="#152409"/><path d="M294.6 300.3l-1 1.7h0l-.5-1-.5-1h1z" class="N"/><defs><path id="AP" d="M294.6 300.3l-1 1.7h0l-.5-1-.5-1h1z"/></defs><clipPath id="AQ"><use xlink:href="#AP"/></clipPath><path d="M293.4 300.5l1 .2.1-.7-1-.2-.1.7zm-1-.2l1 .2.1-.7-1-.2-.1.7zm1 .5l-.5-1-.7.3.5 1 .7-.3zm.5 1l-.5-1-.7.3.5 1 .7-.3zm-.1-.1h0l-.4.6h0l.4-.6zm.6-1.6l-1 1.7.6.4 1-1.7-.6-.4zm-.8 0v-.4.4zm-1-.2l.1-.4-.7-.1.3.6h.3zm.5 1l.3-.2-.3.2zm.5 1l-.3.2h0v.1l.2-.3zm0 0l-.2.3.3.2.2-.3-.3-.2zm1-1.7l.3.2.3-.5h-.6l-.1.4z" clip-path="url(#AQ)" class="M"/><path d="M293.5 300l-.5.8-.5-1z" fill="#3a2b35"/><path d="M289.8 396.6h9.2V435h-9.2z" class="P"/><path d="M314.8 430.4l-.7 2.7a2.6 2.6 0 0 1-2.5 1.9H292a1 1 0 0 1-.9-.9c0-.2.1-.4.2-.6 1.5-1.7 3-3.2 5-4.5l1.3-1c.6-.4 1.2-.7 1.8-1l1.3-.7.2-.1 3.3-1.2 5-.4 5.8 5.8z" class="N"/><defs><path id="AR" d="M314.8 430.4l-.7 2.7a2.6 2.6 0 0 1-2.5 1.9H292a1 1 0 0 1-.9-.9c0-.2.1-.4.2-.6 1.5-1.7 3-3.2 5-4.5l1.3-1c.6-.4 1.2-.7 1.8-1l1.3-.7.2-.1 3.3-1.2 5-.4 5.8 5.8z"/></defs><clipPath id="AS"><use xlink:href="#AR"/></clipPath><g class="M"><path d="M313.3 430.4h3-3zm-5.3-4.7l5.8 5.8 2-2-5.8-5.8-2 2zm-4 1l5-.4-.3-3-5 .4v3zm-3 1l3.3-1.2-1-2.8-3.3 1.2 1 2.8zm-.2.1h.2l-1-2.8-.2.1 1 2.8zm-1 .6l1.2-.6-1.3-2.7-1.4.7 1.4 2.6zm-1.7 1c.6-.4 1-.7 1.7-1l-1.4-2.6-2 1 1.6 2.5zm-1.3 1l1.3-1-1.6-2.5c-.5.3-1 .6-1.4 1l1.8 2.4zm-4.7 4.3a28 28 0 0 1 4.7-4.3l-1.8-2.4a31 31 0 0 0-5.2 4.7l2.3 2zm.1-.4c0 .1-.1.3-.1.4l-2.3-2c-.4.5-.6 1-.6 1.6h3zm-.6-.6c.1 0 .3.1.4.2.1.1.1.2.1.4h-3c0 1.2 1 2.4 2.4 2.4v-3zm19.8 0H292v3h19.8v-3zm1-.8c-.1.5-.5.8-1 .8v3c2 0 3.5-1.2 4-3l-3-.7zm.7-2.7l-.7 2.7 3 .8.7-2.7-3-.7zm1.5.4h1.5v-.6l-.4-.4-1 1zm-5.8-5.8l1-1-.5-.5h-.7v1.5zm-5 .4v-1.5h-.2-.2l.5 1.4zm-3.3 1.2l-.5-1.4h0l.5 1.4zm-.2.1l-.5-1.4h-.1-.1l.6 1.4zm-1.3.7l.7 1.3-.7-1.3zm-1.8 1l.8 1.3-.8-1.3zm-1.3 1l-1-1.2 1 1.2zm-5 4.5l1 1-1-1zm23-.4l1.5.4-1.5-.4zm.7-2.7l1.5.4v-.2-.2h-1.5z" clip-path="url(#AS)"/><path d="M311.7 396.6L304 425l10.8 5.3 14-33.8zm-11.7 34l-1 1.3-2.8-3 1.3-1 2.6 2.6zm3-2l-1 1.3-2.8-3 1.3-.7.2-.1 2.4 2.4z"/></g><path d="M388.7 412.6l2 2c.8 1 1 2 .3 3l-10.5 16.8c-.3.5-1 .6-1.3.3a.9.9 0 0 1-.4-.5c-.6-2-1-4.4-1.2-6.6V426c0-.7 0-1.4.1-2l.1-1.5v-.2l.8-3.4 2.3-4.5 8-2z" class="N"/><defs><path id="AT" d="M388.7 412.6l2 2c.8 1 1 2 .3 3l-10.5 16.8c-.3.5-1 .6-1.3.3a.9.9 0 0 1-.4-.5c-.6-2-1-4.4-1.2-6.6V426c0-.7 0-1.4.1-2l.1-1.5v-.2l.8-3.4 2.3-4.5 8-2z"/></defs><clipPath id="AU"><use xlink:href="#AT"/></clipPath><g class="M"><path d="M389.7 413.7l-2-2 2 2zM381 416l8-1.8-.7-3-8 1.8.7 3zm-1.3 3.7l2.3-4.5-2.7-1.4-2.3 4.5 2.7 1.4zm-.6 3l.8-3.4-3-.6-.8 3.4 3 .6zm0 .2v-.2l-3-.6v.2l3 .6zm-.1 1.2v-1.4l-3-.3v1.5h3zm-.1 2c0-.7 0-1.3.1-2l-3-.2v2.2l3-.1zm.1 1.5V426h-3c0 .6 0 1 .1 1.7l3-.2zm1 6.2c-.6-2-1-4-1-6.2l-3 .2c.2 2.3.6 4.7 1.3 7l3-1zm-.2-.3c.1.1.2.2.2.3l-3 1c.2.6.6 1 1 1.4l1.6-2.6zm-.8.2c.1-.1.2-.2.4-.2.1 0 .3 0 .4.1l-1.6 2.6c1 .6 2.6.5 3.4-.8l-2.5-1.6zm10.5-16.8L379 433.7l2.6 1.6 10.5-16.8-2.6-1.6zm-.1-1.3c.3.4.4 1 .1 1.3l2.6 1.6c1-1.6.8-3.6-.5-5l-2.2 2zm-2-2l2 2 2.2-2-2-2-2.2 2zm1-1l.3 1.5h.4l.3-.3-1-1zm-8 1.8l-.3-1.5-.7.2-.3.6 1.3.7zm-2.3 4.5l-1.3-.7v.2.2l1.5.3zm-.8 3.4l-1.5-.3h0l1.5.3zm0 .2l-1.5-.3v.1h0l1.5.2zm-.1 1.5h1.5 0-1.5zm-.1 2H376h1.5zm.1 1.6l1.5-.1-1.5.1zm1.2 6.6l1.4-.4-1.4.4zm.4.5l-.8 1.3.8-1.3zm1.3-.3l-1.3-.8 1.3.8zm10.5-16.8l-1.3-.8 1.3.8zm-.3-3l1-1-1 1zm-2-2l1-1-1-1-1 1 1 1z" clip-path="url(#AU)"/><path d="M358.3 397.3l20 21.6 10.3-6.4-21.3-29.7z"/></g><path d="M381 425.3l.5 1.7-4 .8-.1-1.6 3.6-.8zm0-3.7l.5 1.7-4 .8.1-1.5v-.2l3.4-.8z" fill="#152409"/><path d="M388.6 396.6h8.3V435h-8.3z" class="P"/><path d="M254.5 345.8h148.8v6H254.5z" class="R"/><path d="M259.2 396.6h9.2V435h-9.2z" class="Q"/><path d="M259.2 396.6h5.8V435h-5.8z" class="U"/><path d="M359.8 396.6h8.3V435h-8.3z" class="Q"/><path d="M359 396.6h5.8V435H359z" class="U"/><path d="M259.2 351.8h105.6v49.7H259.2z" class="T"/><path d="M364.8 351.8h32v49.7h-32z" class="R"/><g class="M"><path d="M259.2 351.8H397v3.7H259.2z" opacity=".2"/><path d="M198 282.5c-.8-.8-2-1.7-3.8-2-1.7-.4-3.7-.1-5.7 1.4l1.3 1.8c1.4-1 2.8-1.2 4-1 1.2.3 2 1 2.6 1.4l1.6-1.6zm-9.5-.6c-.5.4-.6 1-.2 1.6s1 .6 1.6.2l-1.3-1.8zm8 2.2c.4.4 1.2.4 1.6 0s.4-1 0-1.6l-1.6 1.6zm-15.3-1.6c-.8-.8-2-1.7-3.8-2-1.7-.4-3.7-.1-5.7 1.4l1.3 1.8c1.4-1 2.8-1.2 4-1 1.2.3 2 1 2.6 1.4l1.6-1.6zm-9.5-.6c-.5.4-.6 1-.2 1.6s1 .6 1.6.2l-1.3-1.8zm8 2.2c.4.4 1.2.4 1.6 0s.4-1 0-1.6l-1.6 1.6zm33.4 9.3c.2.4.4 1 .2 1.6-.2.6-.7 1.4-2.3 2l.6 1.4c2-.8 2.8-2 3.2-3 .3-1 0-2.2-.4-2.8l-1.3.8zm-2 3.7a.8.8 0 0 0-.4 1c.2.4.6.6 1 .4l-.6-1.4zm3.3-4.5c-.2-.4-.7-.4-1-.2s-.4.7-.2 1l1.3-.8zM105.7 255c-1.5-1-5.5-2.4-10-.1l1 2c3.7-2 6.7-.8 7.7-.1l1.3-1.8zm-10-.1a1.1 1.1 0 1 0 1 2l-1-2zm8.7 2c.5.4 1.2.2 1.6-.3.4-.5.2-1.2-.3-1.6l-1.3 1.8zm-14.6-1.6c-1-.6-2.7-1.3-4.6-1.5-2-.2-4.2.1-6.3 1.6l1.3 1.8c1.5-1 3.3-1.3 4.8-1.2a9 9 0 0 1 3.6 1.2l1.2-2zm-11 0c-.5.4-.6 1-.3 1.6s1 .6 1.6.3l-1.3-1.8zm9.7 2c.5.3 1.2.2 1.6-.4.3-.5.2-1.2-.3-1.6l-1.2 2zm234.2 32c.4-.6 1.2-1.5 2.4-2 1.2-.4 2.8-.5 5 .6l.7-1.3c-2.4-1.3-4.5-1.3-6-.7-1.6.6-2.7 1.7-3.2 2.6l1.3.8zm7.3-1.3c.4.2.8.1 1-.3s.1-.8-.3-1l-.7 1.3zm-8.6.6a.8.8 0 1 0 1.3.8l-1.3-.8zm18-.8c.4-.5 1.2-1.2 2.5-1.4 1.2-.2 3 .1 5 1.6l1-1.2c-2.4-1.7-4.5-2-6.2-1.8-1.7.3-3 1.2-3.5 2l1.2 1zm7.5.2c.3.2.8.2 1-.2a.8.8 0 0 0-.2-1.1l-1 1.2zm-8.7-1a.8.8 0 1 0 1.2.9l-1.2-1zm26.7 3.8c.2.7.2 1.8 0 2.8-.3 1-.8 1.8-2 2.3l.5 1.4c1.7-.6 2.5-2 2.8-3.3.3-1.3.2-2.6 0-3.5l-1.5.4zm-2 5c-.4.1-.6.6-.4 1s.6.6 1 .4l-.5-1.4zm3.4-5.4a.8.8 0 0 0-.9-.6c-.4.1-.6.5-.6 1l1.5-.3z"/></g><path d="M77.4 103l-5.3 1.4-4.3 3.2-4.7 9.2s-5.8 13.6-6.4 24c-.6 10.5-1.8 31.3 6 36s14.7 6.2 20 7.3l36.4 6s8.2 1 12.2-.1c4-1 7.2-2.2 9-3.5s5-7.4 5.7-10.6c.8-3.2 3.7-17.6 3-21.5s-1.7-21.5-1.7-21.5l-3.3-10.8c-.4-1-5-6-5-6l-5-4-6.4-2.4s-5-1.3-9.7-1.7-13-2-15-2.4c-2-.4-9.4-1.7-13.7-2.6-6.4-1.4-12.3-.2-12.3-.2z" class="T"/><path d="M77.7 103.2l-.6-.7h0l.6.7zm12-.6a34 34 0 0 0-8.7-.6 34 34 0 0 0-3.5.4h-.2c0 0 0 0 0 0h0l.1.4.1.4h0c0 0 0 0 0 0h.2a15 15 0 0 1 .7-.1l2.7-.2a33 33 0 0 1 8.4.6l.2-.8zm13.7 2.6c-1-.2-3.3-.6-6-1l-7.7-1.5-.2 1 7.7 1.5 6 1 .2-1zm15 2.4a151 151 0 0 1-15-2.4l-.2 1 15 2.4.1-1zm9.7 2l.1-.4h0c0 0 0 0 0 0h-.2l-.6-.2-2.3-.5a54 54 0 0 0-6.6-1v1l6.5 1 2.2.5h.6c.1 0 .1 0 .2 0 0 0 0 0 0 0h0c0 0 0 0 .1-.4zm6.6 2l-6.4-2.4-.3.8 6.5 2.4.3-.8zm5 4l-5-4-.6.7 5 4 .6-.7zm5 6.2c-.1-.2-.2-.4-.4-.6l-.6-.8a86 86 0 0 0-1.7-2l-1.6-2-.5-.6h-.2 0 0l-.3.3-.3.3h0 0c0 0 .1.1.1.2.1.1.3.3.5.6l1.6 1.8 1.7 2 .6.8.3.4.8-.3zm3 11h.4 0s0 0 0 0c0 0 0-.1 0-.1v-.3c-.1-.3-.2-.7-.3-1l-1-3.5-1-3.7-.7-2-.8.4a36 36 0 0 1 .7 2l1 3.7 1 3.5.3 1 .1.3c0 0 0 .1 0 .1 0 0 0 0 0 0h0 .4zm2 21.4c-.3-2-.8-7.2-1-12.2l-.4-6.5-.1-2v-.6c0-.1 0-.1 0-.2h0-.4-.4 0c0 0 0 .1 0 .2v.6l.1 2 .4 6.5 1 12.2 1-.2zm-3 21.7c.4-1.6 1.3-6 2-10.5l1-6.5c.2-2 .2-3.6.1-4.7l-1 .2c.2 1 .1 2.5-.1 4.4l-1 6.4a155 155 0 0 1-2.1 10.4l1 .2zm-6 10.8c.5-.4 1-1 1.7-2l1.7-3c1-2 2-4.5 2.5-6l-.8-.2c-.4 1.5-1.3 3.8-2.4 6l-1.7 2.8c-.6.8-1 1.4-1.4 1.6l.5.7zm-9.2 3.6c4-1 7.3-2.3 9.2-3.6l-.5-.7c-1.8 1.2-5 2.4-9 3.5l.2.8zm-12.3-.3v.4h0c0 0 0 0 .1 0 .1 0 .2 0 .3 0l1 .1 3.3.2c2.5.1 5.7.1 7.7-.4l-.2-.8a29 29 0 0 1-7.5.4l-3.2-.2c-.4 0-.7-.1-1-.1-.1 0-.2 0-.3 0 0 0 0 0-.1 0h0c0 0 0 0 0 .4zm-36.5-5.4L103 188l11.2 1.8 3.6.6 1 .2c.1 0 .2 0 .3 0 0 0 0 0 .1 0h0l.1-.4.1-.4h0c0 0 0 0-.1 0h-.3l-1-.2-3.6-.6-11.2-1.8-20.2-3.3-.2 1zm-20.2-7.4a58 58 0 0 0 20.3 7.4l.2-1c-5.4-1-12.2-2.5-20-7.3l-.5.8zm-6.3-36.5l-.1 20.3a41 41 0 0 0 1.9 9.8c1 2.8 2.5 5 4.5 6.4l.5-.7c-1.8-1-3.2-3.2-4.2-6A40 40 0 0 1 57 161c-.6-7-.2-15 .1-20.2l-1-.1zm6.8-24l-.4-.2h0c0 0 0 0 0 0 0 0 0 .1 0 .1l-.2.5a61 61 0 0 0-.7 1.7l-2 5.8a69 69 0 0 0-3.4 16.1l1 .1a68 68 0 0 1 3.4-15.9 116 116 0 0 1 2-5.8l.7-1.7.2-.5c0 0 0-.1 0-.1 0 0 0 0 0 0h0c0 0 0 0-.4-.2zm4.3-9.4l-4.7 9.2.8.4 4.7-9.2-.8-.4zm4.5-3.4l-4.3 3.2.5.7 4.3-3.2-.5-.7zm5.5-1.5l-5.3 1.4.2.8 5.3-1.4-.2-.8zm.1.4l-.3-.3-1.3 1 1.7-.3-.1-.4zm12.3.2l.1-.4-.1.4zm38.4 6.7l.2-.4h0 0l-.1.4zm6.4 2.4l.3-.3h-.1-.1l-.2.4zm5 4l.3-.3h0 0l-.3.3zm8.2 16.8h.4 0 0-.4zM119.3 190l-.1.4h0v-.4zM63 116.7l-.4-.2h0 0l.4.2zm4.7-9.2l-.3-.3v.1.1l.4.2zm4.3-3.2v-.4H72 72v.4zm5.3-1.4l.3.3 1.5-1.3-2 .5.1.4z" fill="#231f20"/><g class="N"><path d="M92.5 133l17.4-4.4s.1 0 .1-.1c.2-.1.2-.3.2-.5a.5.5 0 0 0-.6-.3L92.3 132a.5.5 0 0 0-.3.5c0 .3.3.4.5.4zM90 143l30.6-9c.1 0 .1 0 .2-.1.3-.1.4-.4.3-.6s-.5-.3-.8-.2a496 496 0 0 1-30.4 9c-.4.1-.7.4-.6.6.1.3.4.4.8.3zm12.5 5.7l17.6-6a.4.4 0 0 0 .1-.1.5.5 0 0 0-.4-.8l-17.6 6a.5.5 0 1 0 .3.9zm21.5 7c-.4.3-1 .4-1.5.3l-37.3-6.5a2 2 0 0 1-1.6-2.2c.3-2.5.6-5 1-7.6.7-6 1.3-12 2.7-18.5a2 2 0 0 1 2.2-1.5l11.6 2a289 289 0 0 0 25.7 3.7c.2 0 .3 0 .4.1.4.1.7.3 1 .6.3.4.5 1 .4 1.5l-3.7 26.8c-.1.6-.3 1-.8 1.3zm-15.3-.5a57 57 0 0 1-13-2.2l.2-.6 13 2.2-.2.6zm-2.8 1a150 150 0 0 0-.5 17.7l-1.2-.2a151 151 0 0 1 .4-17.8h1.4 0zm-11.7 16.2l-1.3-.1 5-17.5h.8l-4.5 17.4zm35.3-44.6c.1-.8-.1-1.7-.6-2.3a3.1 3.1 0 0 0-2.1-1.1c-8.4-.7-17.2-2.3-25.6-3.7l-11.7-2c-1.6-.2-3 .8-3.5 2.4-1.3 6.6-2 12.6-2.7 18.5l-1 7.6c-.2 1.5.7 3 2 3.3.2.1.3.1.5.1l9.8 1.6-.3 1c-.1.3.1.6.4.7h0l2 .6-5.2 18c0 .2 0 .3.1.5a.5.5 0 0 0 .4.2l2.5.2c.3 0 .6-.2.6-.5h0l4.6-17.7 3.7.6h0c-.5 6-.6 12-.4 18v.2c0 .3.1.5.4.6h.1l2 .2c.3 0 .6-.2.6-.5v-.1c.2-.1.4-.3.3-.5a165 165 0 0 1 .5-17.6v-.1l2 .1c.3 0 .5-.2.5-.4l.3-1 12.3 2.3a3 3 0 0 0 3.7-2.6l3.7-26.7z"/><path d="M122.2 153.5c-.4.3-1 .4-1.3.3L87.4 148c-1-.2-1.5-1-1.4-2a309 309 0 0 0 .8-6.7c.6-5.2 1.2-10.5 2.3-16.2A1.7 1.7 0 0 1 91 122l10.4 1.7c7.6 1.3 15.5 2.7 23 3.3a1.7 1.7 0 0 1 1.2.7c.3.4.4.8.3 1.2l-3.2 23.5c-.1.4-.3.8-.7 1zm5-24.4c.1-.7-.1-1.5-.6-2-.5-.6-1.2-1-2-1-7.6-.7-15.4-2-23-3.3L91.2 121c-1.5-.2-3 .7-3.2 2.2-1.2 5.8-1.8 11-2.3 16.3L85 146c-.2 1.3.6 2.6 2 3 .1 0 .3.1.4.1l33.5 5.8c.8.2 1.6 0 2.2-.5.6-.4 1-1 1-1.8l3.2-23.5z"/></g><g class="M"><path d="M137.3 188.3c-.2 1-.8 1.8-1.2 2.6-.2.4-.1 1.7.3 1 .6-1 1.2-2 1.4-3.2.1-.3.1-.7-.1-1-.2-.2-.3.3-.4.5zm-2.2.7c-.4 1-.8 2.3-1.5 3.2-.3.3-.2 1.7.2 1.3.8-1 1.2-2.2 1.7-3.4.1-.3.2-.7.1-1-.1-.3-.3-.3-.4 0zm-2.5.5c-.8 1.6-1.3 3.4-2.3 4.6-.3.3-.2 1.7.2 1.3 1-1.3 1.7-3.2 2.5-4.8.2-.4 0-1.7-.3-1zm-2.2.1c-.6 1.8-1.7 3.3-2.6 5-.2.4-.1 1.7.3 1 1-1.7 2-3.2 2.7-5.2.2-.5-.1-1.6-.4-.8zm-2.4.5c-1.2 1.6-2 3.7-3.4 5.3-.3.3-.2 1.7.2 1.3 1.3-1.6 2.2-3.7 3.4-5.3.3-.3.2-1.7-.2-1.3zm-6.5 14c-1.8 1-3.3 3-5.3 3-.4 0-.5 1.5-.1 1.4 2-.1 3.6-2 5.5-3.2.3-.2.3-1.6 0-1.4zm1.6-4c-2.4 1.5-4.8 3.2-7.4 3-.4 0-.5 1.4-.1 1.4 2.7.3 5-1.5 7.6-3 .3-.2.3-1.6 0-1.4z"/><path d="M124.5 195.3c-1 1-2.4 1.7-3.5 2.4-1.8 1-3.5 1.6-5.4 2-.4.1-.4 1.5-.1 1.4a22 22 0 0 0 5.3-2c1.3-.7 2.8-1.4 4-2.7.3-.3.2-1.7-.2-1.3h0zm1.8-5.6c-3 4.6-7.8 6-11.8 8-.3.2-.4 1.6 0 1.4 4-2 8.8-3.4 12-8 .2-.3.1-1.7-.2-1.3zm-4.3.3c-.8 1.4-2.3 2-3.5 2.7-1.5.8-3 2-4.5 2.4-.4.1-.5 1.5-.1 1.4 1.7-.4 3-1.6 4.7-2.4 1.3-.7 3-1.4 3.8-3 .2-.4 0-1.7-.3-1zm-4.2-.2c-1 1.2-2.3 2-3.4 3-1 .7-2 1-2.8 2-.3.3-.2 1.7.2 1.3 1-1 2-1.3 3-2.2 1-1 2-1.5 3-2.7.3-.3.2-1.7-.2-1.3zm-3-.5c-.6 1-1.6 1.7-2.4 2.4-1 .8-1.8 1.6-2.8 2.2-.3.2-.3 1.6 0 1.4 1.2-.8 2.2-1.7 3.3-2.6.8-.7 1.6-1.3 2.2-2.3.2-.4.1-1.7-.3-1zm-3.2-.5c-1.5 1.3-2.8 3-4 4.8-.2.3-.2 1.8.2 1.3 1.2-1.7 2.4-3.5 4-4.7.3-.3.3-1.7 0-1.4zm-2.7 0c-.5.8-1.2 1.4-1.8 2-.7.7-1.3 1.7-2 2.3-.3.3-.3 1.7 0 1.4.8-.7 1.5-1.8 2.3-2.6.7-.6 1.3-1.2 1.8-2 .2-.4.1-1.7-.3-1zm-2.5-.7c-1.7 1.2-2.7 3.6-4.3 4.8-.3.3-.3 1.7 0 1.4 1.7-1.2 2.7-3.6 4.3-4.8.3-.2.3-1.7 0-1.4zm-3-.8c-1.7 1.3-3 3.5-4.4 5.2-.3.3-.2 1.7.2 1.3 1.4-1.7 2.6-3.8 4.2-5 .3-.2.3-1.7 0-1.4zm-3.3-.4c-1.4 1.4-2 3.8-3.3 5.2-.3.3-.2 1.7.2 1.3 1.3-1.4 2-3.8 3.3-5.2.3-.3.2-1.7-.2-1.3zm-2.5-.5c-2 1-2.8 3.5-4 5.3-.2.3-.2 1.8.2 1.3 1.3-1.8 2.2-4.3 4-5.2.4-.2.4-1.6 0-1.4zm-3.4-.6c-1.6 1.3-3 3.3-4 5.4-.2.4 0 1.7.3 1 1-2 2.3-4 3.8-5 .3-.3.3-1.7 0-1.4zm-3.2-.4c-.4 1-1.3 1.6-2 2.4a9 9 0 0 0-1.7 2.8c-.2.5.1 1.6.4.8.4-1 1-2 1.8-2.7.6-.7 1.3-1.3 1.8-2.3.2-.4 0-1.8-.3-1zm-3-.3c-1 1.7-2 3-3 4.8-.2.3-.2.6-.2 1 0 .2.2.6.3.3l3-4.8c.2-.3.2-.6.2-1 0-.2-.2-.6-.3-.3zm-3-.8c-.3 1-1 1.7-1.5 2.6-.5 1-.8 1.8-1.4 2.6-.2.3-.2 1.7.2 1.3.7-1 1-2 1.6-3 .6-1 1.2-1.6 1.5-2.7.2-.5-.2-1.6-.4-.8zm-3-.7c-1.2 1.5-2 3.4-3 5.3-.2.4 0 1.8.3 1l3-5c.3-.3.2-1.7-.2-1.3zm-2.5-.5c-1.2 1.5-2 3.5-3 5-.3.3-.2 1.7.2 1.3 1.2-1.5 2-3.5 3-5 .3-.3.2-1.7-.2-1.3zm-2.2-.5C76 184 75 186 74 187.5c-.2.3-.2 1.7.2 1.3 1.2-1.5 2-3.5 3.3-4.8.3-.3.2-1.7-.2-1.3zm-2.2-1l-3.6 4.6c-.3.3-.2 1.7.2 1.3 1.3-1.3 2.5-3 3.6-4.6.3-.3.2-1.7-.2-1.3zm-2.2-.5c-1.3 1.5-2.5 3.3-4 4.6-.3.3-.3 1.7 0 1.4 1.5-1.4 2.7-3.2 4-4.8.3-.3.2-1.7-.2-1.3zm-2.4-.8c-1.2 1.8-2.7 3-4 4.6-.3.3-.2 1.7.2 1.3l4-4.6c.3-.4.2-1.8-.2-1.3zm-2.5-.7c-1.5 1-2.7 3-4.2 4.2-.3.3-.3 1.7 0 1.4 1.5-1.2 2.7-3 4.2-4.2.3-.2.3-1.7 0-1.4zm-2.5-1.3c-1.6 1.3-3.2 2.8-4.6 4.5-.3.3-.2 1.7.2 1.3a28 28 0 0 1 4.5-4.4c.3-.3.3-1.7 0-1.4zm-2.7-1.6c-1.7.5-3 2.8-4.6 3.6-.4.2-.4 1.6 0 1.4 1.7-.8 2.8-3 4.6-3.6.3-.1.4-1.5 0-1.4zm-1.6-2.2c-.5.6-1 1.2-1.5 1.8-.7.8-1.5 1.3-2.2 2-.3.3-.3 1.7 0 1.4l2-2c.6-.6 1-1.5 1.8-2 .3-.3.2-1.7-.2-1.3zm-1.5-2c-1.2 1.4-2.7 2.4-4 3.4-.3.3-.3 1.7 0 1.4 1.4-1 3-2 4.2-3.6.3-.3.2-1.7-.2-1.3zm-1-3c-1.2 1-2.5 1.6-3.7 2.6-.3.3-.3 1.7 0 1.4 1.2-1 2.5-1.6 3.7-2.6.3-.3.3-1.7 0-1.4zm-1-3.5c-1 1.5-2.4 2-3.7 3-.3.2-.3 1.7 0 1.4 1.3-1 2.8-1.6 3.8-3.2.2-.4.1-1.8-.2-1.3zm-1-3.5c-.6 1.5-2 1.8-3 2.5-.3.2-.3 1.7 0 1.4 1.3-1 2.7-1.2 3.4-3.2.2-.5-.1-1.6-.4-.8zm-.6-4.6c-.6 1.2-1.7 2-2.8 2.2-.4 0-.5 1.5-.1 1.4 1.3-.1 2.5-1.2 3.2-2.6.2-.4 0-1.7-.3-1zM56 155c-.7 1.3-2 2-3.2 2.2-.4.1-.5 1.5-.1 1.4 1.3-.3 2.8-1 3.6-2.6.2-.4 0-1.7-.3-1zm-.2-4.3c-.3 1.2-2 1.6-2.6 1.5-.4-.1-.5 1.4-.1 1.4 1 .1 2.8-.6 3.2-2.2.1-.3.1-.7 0-1-.1-.2-.3 0-.4.2zm.3-5c-.7.5-1.5 1-2.3 1.2-.4.1-.5 1.5-.1 1.4 1-.2 1.7-.7 2.5-1.2.3-.2.3-1.7 0-1.4zm.4-4.7c-.4 1-1.3 1-2 1-.4 0-.5 1.4-.1 1.4.8 0 2-.3 2.4-1.4.1-.3.2-.7.1-1-.1-.3-.3-.3-.4 0zm.8-6c-.2.7-1 .8-1.5.7-.4-.1-.5 1.4-.1 1.4.8.2 1.8-.3 2-1.4.1-.3.1-.7 0-1-.1-.3-.3 0-.4.2zm1-4.7c-.5.4-1 .8-1.7 1-.4.1-.5 1.5-.1 1.4.7-.2 1.3-.5 2-1 .3-.2.3-1.7 0-1.4zm1.4-5.4c-.6.3-1.2.4-1.7.8-.3.2-.3 1.7 0 1.4.5-.4 1.2-.5 1.7-.8.3-.2.3-1.6 0-1.4zm1.5-5c-.3.4-.8.3-1.2.2-.4-.1-.5 1.3-.1 1.4.5.1 1 .1 1.5-.3.3-.3.2-1.7-.2-1.3zm1.7-4l-.8-.1c-.5 0-.6 1.4-.1 1.4h.8c.5 0 .6-1.4.1-1.4z"/><path d="M54.5 141.5c1.8-9.2 3.8-18.5 8-26.2 2.4-4.3 5.4-7.8 9-10 3.8-2.3 8-2.8 12-2.6 4 .3 8 1.3 12 2l12.2 2.3c6.6 1.5 13.3 1.5 19.8 3 5.5 1.4 11.6 4 15 10.3 2.5 4.7 4 10.5 4.8 16.2 2 12.7 1.7 27.2-2 39.6a34 34 0 0 1-6.1 12c-4 4.7-9.4 6.4-14.3 7-.1 0-.2.2-.3.4-2 6.7-5.6 13.8-10 17.8l.5.7a32 32 0 0 0-1.5-18.7c-.2-.5-1-.4-1.3-.4l-3-.4-6-1-11-1.8c-7.4-1-14.8-2.6-22-4.8-3-1-6.3-2-9.2-3.4-2-1-3.7-3.2-5-5.7a48 48 0 0 1-3.4-19 86 86 0 0 1 1.3-17.4c.1-.7-.6-1-.7-.3-1 5.7-1.4 11.5-1.4 17.3a55 55 0 0 0 2.8 18.6c1 2.4 2.2 4.6 3.8 6.2 2 2 5 2.7 7.4 3.6a131 131 0 0 0 20.6 5.2l22.5 3.7a94 94 0 0 0 2.9.4c1 .1 1.3 1.5 1.7 2.8.7 2.5 1 5.2 1 8 0 2.3-.1 4.8-.7 7-.1.4.2 1 .5.7 3-2.7 5.3-6.7 7.3-10.7a51 51 0 0 0 2.3-5.5c.2-.6.4-1 .5-1.7.1-.4 1-.4 1.3-.4 1-.2 2-.4 3.2-.7a21 21 0 0 0 8.3-4.5c7.4-6.5 10.3-20 11-31.2a86 86 0 0 0-4.3-36.8c-.8-2.2-2-4.2-3-6-1.8-2.5-4.3-4-6.7-5.4-6.2-3.3-13.2-3.8-19.8-4.7l-19.4-3.4c-7-1.2-14-3.2-21-1-6 2-11 8-14.5 15.2-3.3 7-5 15.2-6.5 23.2-.1.7.6 1 .7.3h0z"/><path d="M68.4 106.7a54 54 0 0 0-9.5 21.4c-1.5 6.3-2.5 12.6-2.8 19.2-.5 11 .3 27.5 9 32 3 1.5 6.3 2.4 9.4 3.4a128 128 0 0 0 10.1 2.6l22.2 3.8c5.5 1 11 2 16.6 2 5.7.1 12-.4 17.5-3.5.3-.2.6-.4 1-.6.4-.3.1-1.3-.3-1-3 2-6.2 2.8-9.4 3.4a43 43 0 0 1-8.9.6c-5.6-.1-11.2-1-16.7-2L84 184l-10.6-2.8c-3-1-6-1.7-9-3.4-3.8-2.3-5.8-8-6.8-13.4-1-5.8-1.2-12-1-18.2.3-6 1.4-12 2.7-17.8 1.8-8 4.8-15 9.3-21 .4-.5-.1-1.3-.5-.8z"/></g><path d="M181.8 207.4s5-.6 8-2.4c3.3-1.8 5.8-4 10.3-4.6a160 160 0 0 1 17.5-1.6l24.7-.2 18.3-2.7a53 53 0 0 0 13.3-12.7c2-3.3 7.3-14.2 8.4-19a74 74 0 0 0 2.2-23.2c-1.4-4-3-11.5-3.7-14.3-.7-2.8-2.2-5.5-5-7a35 35 0 0 0-13.2-4.2 158 158 0 0 0-23.4 3.2l-22.7 4.4a94 94 0 0 0-22.2 4 66 66 0 0 0-17 8.1c-4.3 3.4-6.6 4.6-10.8 10.4s-7.2 15.2-7.5 18.7.3 17.8.5 19a160 160 0 0 0 3.6 14.3c.7 1.3 6 9 9.4 10 3.5 1 9.3-.1 9.3-.1h0z" fill="#94b73d"/><path d="M202.4 142.2a2.9 2.9 0 0 1 2.3-3.1 117 117 0 0 1 27.8-3.2 455 455 0 0 1 3.3 39c-10.4 3-19.8 3.5-29.6 1.7l-3.7-34.4zm33.8-3.4v.1c2.4 7.7 3.3 35 3.4 39-5 1.6-11 2.8-17.4 3.5v-1a.7.7 0 0 0-.6-.7 76 76 0 0 0-7.5.1c-.2 0-.4.1-.5.3s-.2.3-.1.5l.2 1.4h-2.4a.3.3 0 0 0 0-.1c-.7-1-1.2-2.2-1.5-3.4a66 66 0 0 0 26.9-2.5c.3-.1.5-.4.4-.7-.7-15-1.8-27.7-3.3-39 1.4.8 2 1.5 2.3 2.3zM221 186a33.3 33.3 0 0 1-2.3-1.6.7.7 0 0 0-.7-.1h-.1c-1 .5-2 1-2.8 1.8l-.4-5a97 97 0 0 1 5.9-.1c0 1.7.1 3.4.3 5zm-13-4.2a7 7 0 0 1-1.9-3.9l2 .3c.3 1.3.8 2.5 1.4 3.7H208h0zm-1.6.3c.6.8 1 1 1.6 1 1.8.1 3.7.1 5.7.1a25 25 0 0 1 0 4.4.7.7 0 0 0 1.2.5c1-1 2-1.8 3.3-2.4l3.3 2.2a.7.7 0 0 0 .7 0c.2-.2.3-.4.3-.7a34 34 0 0 1-.5-4.6 94 94 0 0 0 18.3-3.7c.3-.1.5-.4.5-.7a257 257 0 0 0-3.5-40c-.3-1.4-1.5-2.5-4-3.7h-.1a.7.7 0 0 0-.4-.1 119 119 0 0 0-28.7 3.2 4.3 4.3 0 0 0-3.3 4.5l3.8 35c0 .1.1.2.1.3-.2 1.4 1 3.6 1.6 4.6zm.6-38c6.7-1.2 13.3-1.8 19.6-1.7 1 2.8 1.2 6 1 8.8-6.6 1.8-13.2 2.4-19.5 1.8a29 29 0 0 1-1-9zm.4 10.3a59 59 0 0 0 20.9-2h.1a.7.7 0 0 0 .4-.6 25 25 0 0 0-1.1-10.3.7.7 0 0 0-.6-.5 99 99 0 0 0-20.9 1.8c-.3.1-.5.3-.6.6-.2 3.7.2 7.2 1.2 10.5.1.3.3.5.6.5zM230 160l-19.7 2a.7.7 0 1 0 .1 1.4l19.7-2h.2c.3-.1.5-.4.4-.7a.7.7 0 0 0-.7-.6zm1.4 5l-21.5 2.7a.7.7 0 0 0-.6.8c.1.4.4.6.8.6l21.5-2.7h.1c.3-.1.5-.4.4-.7a.7.7 0 0 0-.8-.6z" class="N"/><g class="M"><path d="M281.8 127.6c-4-7-9.6-9.5-14.8-10.6-6.4-1.3-12.7-.6-19 .5-5.6 1-11.2 2.6-16.7 4-7 1.7-14 2.3-21 3.4-9 1.4-18 3.4-26.6 7.6-7.3 3.6-15 9-19.7 18-8.3 15.5-5.2 47.5 8.3 59.8.6.6 3 1.7 3.2 2.7l2 6.6a56 56 0 0 0 9 16.7l-.7.5c.2-3 .6-5.8 1-8.7l1.6-8.3 1.2-4.5c.3-1.2.7-3.2 1.3-4 .5-.6 1.6-.7 2.2-1l3-1.2c4-1.8 8.2-3 12.4-3.5 9.2-1.4 18.7-1 28-.8l14-.4a43 43 0 0 0 12-2.4c9.2-3.7 16.3-15.7 20.6-28.2 4.6-13.5 6-31.5-1.7-46-.4-.8.3-1.7.7-1 9 17.5 6 38.8-.3 53.6a55 55 0 0 1-12.7 19c-5.7 5.3-12.7 6-19.5 6.7-15.2 1.3-31-1.5-45.8 2-3 .7-5.7 1.8-8.5 3l-2.7 1-1 .4c-.5.2-1 2.7-1.2 3.4a106 106 0 0 0-3.8 21c0 .5-.4 1-.7.5-3.4-4.2-6-9.2-8.4-14.8-1-2.3-1.7-4.7-2.4-7-.4-1.3-.4-1.7-1.3-2.3l-2.3-2a44 44 0 0 1-11.7-24.1c-2-10.8-2.2-22.4.6-31.7a38 38 0 0 1 14.6-19.7c15.2-11.6 33.7-12.3 51-15 11.2-1.7 22-6 33.4-6 7.5 0 17 1.4 23 12 .4.8-.2 1.7-.7 1h0z"/><path d="M164.5 198.8c.1 1.5 3 3.6 3.7 4.3 2.4 2 4.2 3 6.7 3.6 4.2 1 8.4.1 12-2 1.8-1 3.8-1.5 5.6-2.3 17-8 36.6-3 54.6-4.8 6.3-.6 12.5-1.6 17.8-6a51 51 0 0 0 12.6-17.6c6.4-13.8 9.7-34.2 1-51-.4-.8.3-1.7.7-1 9.3 17.8 5.8 39-1 53.5-3.5 7.5-8 13.8-13.3 18-6 5-13.7 5.4-20.8 5.8-9.4.6-19-.2-28.4.1a79 79 0 0 0-13.7 1.4c-3.6.7-7 2-10.5 3.5-2.7 1-5.2 2.5-8 3.4-3.2 1-6.6 1-10 .1-2.3-.6-4.4-2.2-6.5-4-1-1-3-2.5-3.5-4.5 0-.1-.1-.2-.1-.3-.1-1 1-1 1-.2h0zM178 220c2.4 4.4 5.2 8.2 8.4 10.7.4.3.6 2.3.1 2-3.4-2.7-6.3-6.6-8.8-11.2-.3-.6-.3-2.5.2-1.5z"/><path d="M177.3 218.2c3.2 3.3 6.4 7.6 10 8.7.4.1.7 2.2.1 2-3.7-1.2-7-5.6-10.3-9-.4-.4-.5-2.4.1-1.8zm-1.7-4.5c2 1.6 4.2 3.4 6.3 5 2 1.7 4.2 2.5 6.4 3.3.4.2.7 2.2.1 2-2.2-1-4.3-1.7-6.4-3.3-2-1.7-4.2-3.5-6.3-5-.4-.3-.6-2.3-.1-2z"/><path d="M170.7 205.4c1.2 3.2 3.2 6.2 5.3 8 .4.4.6 2.4.1 2-2.3-2-4.5-5.3-5.8-9-.3-.7 0-2.4.4-1zm3.2 2c1.3 3.5 4.4 5 6.6 6.2 3 1.7 5.8 3.6 8.7 4.5.4.1.7 2.2.1 2-3.4-1-6.6-3.2-10-5.2-2.2-1.3-4.7-3-6-6.3-.3-.7 0-2.3.4-1h0zm3.7-.1c2.2 2.2 4.4 2.4 6.7 3.4 2 1 4 3 6 3 .5 0 .8 2 .3 2-2-.1-4-2-6.2-3-2.4-1.2-4.6-1.3-7-3.6-.4-.4-.5-2.4.1-1.8h0zm6.4-1c2 2.7 4.7 4.5 7.3 5 .5.1.8 2 .3 2-2.7-.4-5.4-2.4-7.6-5.2-.4-.5-.4-2.4.1-1.8zm4.6-2c.7 1.5 2 2.4 3 3 1 .8 2 1.4 3 2 .4.3.6 2.3.1 2-2-1.3-4.8-2.8-6.2-5.7-.3-.6-.2-2.5.2-1.5zm3-1c2 1.8 4.2 3.5 6.5 4.5.4.2.7 2.2.1 2a28 28 0 0 1-6.5-4.5c-.4-.4-.6-2.4-.1-2zm3.4-1.5c1.7 2.8 4 4.2 6.2 5.3.4.2.6 2.3.1 2-2.2-1.2-4.7-2.7-6.4-5.5-.3-.5-.4-2.5.1-1.8h0zm3-1c2.4.4 4.4 3.7 6.5 5.6.4.4.6 2.4.1 2-2-1.8-4-5-6.3-5.6-.5-.1-.7-2-.3-2h0zm4-1c1 .6 1.7 1.8 2.6 2.8 1 1.3 2.3 2 3.4 3.2.4.4.4 2.4-.1 1.8-1-1-2-1.7-3-2.7-1-1-1.8-2.4-3-3-.4-.3-.6-2.3-.1-2h0zm4-1c.7 1.3 1.8 1.7 2.7 2.4 1 .8 1.7 2.2 2.6 3.2.4.4.5 2.4-.1 1.8-1-1-2-2.7-3-3.5-1-.6-1.7-1-2.4-2.4-.3-.6-.3-2.5.2-1.5zm4.4 0c1.6 1.6 3 3.6 4.5 5.7.3.5.4 2.5-.1 1.8l-4.5-5.7c-.4-.4-.5-2.4.1-1.8zm3.8-.2c1.8 2 3.6 3.8 5 6.3.3.5.3 2.4-.2 1.5-1.5-2.4-3.3-4-5-6-.4-.4-.5-2.4.1-1.8zm3.8-.8c1.5 2.3 3 4.6 4 7.3.3.6.2 2.5-.2 1.5a48 48 0 0 0-3.9-7c-.3-.5-.4-2.5.1-1.8zm3.7.6l4.2 6.5c.3.5.4 2.5-.1 1.8-1.5-2-2.8-4.3-4.2-6.5-.3-.5-.4-2.5.1-1.8h0zm3-.1c1.5 1.6 2.4 4.6 4 6 .4.4.6 2.4.1 2-1.7-1.5-2.6-4.5-4.2-6.2-.4-.4-.5-2.4.1-1.8h0zm3 .1c.8.7 1.5 1.6 2.2 2.7.6 1 1 3.2 2 3.7.4.3.6 2.3.1 2-.7-.5-1-1.4-1.5-2.4-.6-1.6-1.6-3-2.6-4-.4-.3-.6-2.3-.2-2zm3.3-.2l3 3.2c1 1 1.6 2.5 2.4 3.8.3.6.3 2.5-.2 1.5l-2.2-3.5-3-3.2c-.4-.4-.5-2.4.1-1.8zm4.2.6c.5 1.2 1.3 2 2 3.2.6 1 1 2 1.7 3 .4.4.4 2.4-.1 1.8-.8-1-1.3-2.4-2-3.6-.7-1-1.3-2-1.8-3.2-.3-.7-.1-2.3.4-1zm2.4 0c1 1 2 2.4 3 3.6.8 1 1.7 1.8 2.2 3.2.3.7 0 2.4-.4 1-.5-1.4-1.5-2.2-2.3-3-1-1-1.7-2.2-2.6-3-.4-.4-.5-2.3.1-1.8h0zm4.2 0c.4 1 1.2 1.8 1.8 2.6l2 3c.3.5.4 2.5-.1 1.8l-2.4-3.3c-.7-.8-1.3-1.6-1.7-2.8-.1-.4-.2-1-.1-1.4.1-.4.4 0 .5.3zm3-.1c1.6 2 3.2 4.3 5 5.3.4.2.7 2.3.1 2-2-1-3.6-3.3-5.3-5.4-.4-.5-.4-2.4.1-1.8h0zm3.5-1c1.3 3 3.6 4 5 6.8.3.6.3 2.5-.2 1.5-1.5-2.7-3.8-3.7-5-6.7-.3-.6-.2-2.5.2-1.5zm3.8-.3c1.6 2.3 3.5 3.8 4.8 6.6.3.6.2 2.5-.2 1.5-1.2-2.6-3-4-4.6-6.3-.3-.5-.4-2.5.1-1.8zm3.2-.2l3 3c1 1 2 1.7 2.7 3 .3.5.3 2.4-.2 1.5-.6-1-1.7-1.8-2.5-2.6-1-1-2-2-3-3-.4-.4-.5-2.4.1-1.8zm3-1.2c2 2.4 4.2 3 6 5.4.4.5.4 2.5-.1 1.8-1.8-2.4-4.2-3-6-5.4-.4-.5-.4-2.4.1-1.8zm3.2-1.8c1 .8 2 1.8 2.8 2.8.8 1 1.7 1.6 2.4 2.6.2.4.4 1 .3 1.4 0 .3-.2.8-.4.4-.6-1-1.4-1.6-2-2.3l-3-3c-.4-.4-.6-2.4-.1-2zm2.2-1.3c1.2-.1 2.3.8 3.4 1.6.6.4 1.3.5 2 .8.6.3 1 1 1.6 1.3.4.3.6 2.3.1 2-.4-.3-.8-.7-1.3-1-.6-.5-1.3-.6-2-1-1.2-.5-2.2-1.8-3.6-1.7-.5 0-.8-2-.3-2zm4-3.3c2 .5 4 2 5.5 4 .4.4.5 2.4-.1 1.8-1.6-2-3.5-3.4-5.4-4-.4-.1-.7-2-.1-2h0zm3-3l4.8 4c.4.4.6 2.3.1 2l-4.8-4c-.4-.3-.6-2.3-.1-2zm2.2-3c.4 1 1.3 1.2 2 1.7.8.8 1.6 1.6 2.4 2.5.4.4.5 2.4-.1 1.8-1-1-1.8-2-2.8-2.7-.8-.6-1.4-1-2-2.2-.3-.7-.1-2.3.4-1zm1.6-3.3c.8.6 1.6 1 2.3 1.5 1 .6 1.8 1.5 2.6 2.3.4.4.6 2.4.1 2l-2.4-2c-1-.6-1.8-1-2.6-1.7-.4-.3-.6-2.3-.1-2zm2.6-3.8c1.2 1.8 3 2.2 4.3 3.4.4.4.6 2.4.1 2-1.4-1.2-3.2-1.7-4.4-3.6-.2-.4-.4-1-.3-1.4 0-.3.1-.8.4-.4h0zm1.8-3.4c1.3 1.6 3 1.3 4.4 2.8.4.4.5 2.4-.1 1.8-1.4-1.5-3-1.2-4.4-2.8-.4-.4-.5-2.4.1-1.8zm1.8-5.2l4.3 2.8c.4.3.6 2.3.1 2l-4.3-2.8c-.4-.3-.6-2.3-.1-2zm1.5-3.7c1.2 1.2 2.6 1.3 3.8 2.5.4.4.5 2.4-.1 1.8-1.2-1.2-2.6-1.3-3.8-2.5-.4-.4-.5-2.4.1-1.8zm1-4c1 1 2.4 1.2 3.6 2 .4.4.6 2.3.1 2-1-1-2.4-1.2-3.6-2-.4-.3-.6-2.3-.1-2zm1-5c1 1 2.2 1.3 3.3 2 .4.3.6 2.3.1 2-1-.7-2.2-1-3.3-2-.4-.4-.6-2.4-.1-2zm.3-5.3c1 .6 2.2 1.5 3.2 2.3.4.3.6 2.3.1 2l-3.2-2.3c-.4-.2-.6-2.3-.1-2zm.3-5.4c.5 1.4 2 2 2.8 2.5.4.2.6 2.3.1 2-1.2-.6-2.6-1.5-3.3-3.3-.1-.4-.2-1-.1-1.4s.4 0 .5.3h0zm-.2-5.5c.5 1 1.3 1.7 2 1.7.5 0 .8 2 .3 2-1-.1-2-.8-2.7-2.2-.2-.4-.3-1-.2-1.4.1-.4.3-.4.5-.1zm-.8-5c.4.7 1 .8 1.6 1 .4.1.7 2 .1 2-.8-.2-1.4-.4-2-1.4-.2-.4-.3-1-.2-1.4s.3-.4.5-.1z"/></g><path d="M371.4 231.4c-.4 3.4-6.3 7.4-9.3 9a70 70 0 0 0 16.9-5.5c2.5-1.4 6.5-5.3 8.4-6.7s2.7-3.4 4-3 6 1 8.8 1.3c3 .3 9-3.7 10.5-5s4-6.2 5-9.8-.4-8.7-2-12.2-7.2-7-9.4-8c-1.8-.7-4-.7-5-.5.8-1 2.7-6.7 3-8.7s-2-8-4-11.7c-2-4-8.4-9-12.3-12.3-4-3.4-19-8.7-23.8-10.5s-18.7-2-26.7-2.2-16.4 4.2-18.6 6a114 114 0 0 0-6.6 6.3c-1.4 3.2-4.6 10.6-6 15-1.6 5.5 3.6 13 7.8 20.8 4.2 7.8 21 12.8 24.7 14.6 3 1.4 13.6 3.4 18.5 4.3a48 48 0 0 1 13.6 6.4c4 3.4 3 8 2.7 12.3z" fill="#4a9db1"/><path d="M363.4 182.5a20 20 0 0 1-5.3 4.8c-2.2 1.5-4.5 3-7 3-2 .1-4.5-1-6.7-2.7-3.4-2.8-5.4-7-5.5-11s1.8-8 5-10l.8-.5c5.2-3.2 12-2.8 16.3.8 4.7 3.8 6 11 2.6 15.8zm2.8.3c.4.3.5.8.4 1 0 .1-.1.3-.2.4l-.1.1-.1.1c-.1.1-.1.2-.2.3l-1.3 1.5c-.2.2-.4.5-.7.6-.4.2-.8 0-1-.3s-.6-.6-.8-1c.8-.7 1.6-1.5 2.2-2.4l.7-1c.4.2 1 .4 1.2.7zm13.6 14c.5.6.8 1.2 1 1.5.1.4-.1 1-.4 1-.4.2-1-.1-1.7-.8l-7-6-6.4-5.4.3-.3 1.3-1.5a110 110 0 0 1 12.9 11.3h0zm-18.3-31c-2.4-2-5.4-3-8.7-3.2a17 17 0 0 0-9 2.3c-4 2.3-6.3 7-6.2 11.7.1 4.4 2.3 9 6 12 1.7 1.4 4.3 3 7.4 3 3-.1 5.6-1.7 7.8-3.3l1.4-1a32 32 0 0 0 1.1-.9c.3.4.5.8 1 1 .6.5 1.4.7 2 .5l6.6 5.7 7 6c.4.4 1.7 1.5 3 1 .1-.1.2-.1.4-.2.7-.5 1-1.4.8-2.2-.1-.7-.7-1.6-1-2h0c-2-2.5-10-9.3-13-11.6.1-.2.1-.3.2-.5.1-.7-.1-1.6-.8-2.2-.4-.4-1-.7-1.5-1 2-5 .4-11.5-4-15.2zm-.5 15.6c-1 1.6-2.6 2.7-4.2 3.7-1.7 1.2-3.6 2.3-5.7 2.4-1.7 0-3.6-.8-5.4-2.2-2.7-2.3-4.4-5.6-4.5-9-.1-3.2 1.3-6.2 3.7-8l.7-.4c4-2.4 9.5-2 13 .8 3.8 3 5 9 2.3 12.6zM345 167c-3 1.8-5 5.5-5 9.4.1 3.6 2 7.2 5 9.8 1.4 1.2 3.6 2.5 6 2.5s4.5-1.3 6.3-2.6l1.3-1c1.2-1 2.4-2 3.2-3.2 3-4.2 1.7-10.6-2.5-14a13 13 0 0 0-14.4-1zm.2 4.3c-1.5 1.2-2.2 3.3-2 5.5.1 2.2 1 4.2 1.8 5.5a.6.6 0 0 0 .8.2c.3-.2.4-.5.2-.8-1-2-1.6-3.5-1.7-5-.1-2 .5-3.6 1.7-4.6.3-.2.3-.6.1-.8a.6.6 0 0 0-.8-.1z" class="N"/><g class="M"><path d="M306 171c-.6 3-4.8 29.7 41.3 39.3l2.3.5c5.2 1 10.6 2 15.3 5 5.3 3.2 9.8 10 7.6 16.3-1 3-3.5 5.3-6 7 9-2 17.7-7 23.6-14.3.3-.3.7-.4 1-.3 5.8 2.5 10.7 1.5 13.7.2 4.3-1.8 7.8-5.4 9.4-9.7 2.6-6.8.1-13.4-3-17.2-3.2-3.8-7.5-5.7-11.4-5-.4.1-.8-.1-1-.4s-.2-.8.1-1c4-4.8 3-14.2-1.8-21-11.4-16-39.7-25.8-66-23-7.6.8-21.5 6.7-25 23.7zm54.2 70.5a.9.9 0 0 1-.9-.7c-.1-.5.2-1 .6-1 3.8-1.4 9-3.8 10.7-8.4 2-5.4-2-11.2-6.7-14-4.4-2.6-9.6-3.7-14.7-4.7l-2.3-.5c-47.8-10-43.4-38.3-42.7-41.5a31 31 0 0 1 26.6-25.2c27.2-3 55.6 7 67.6 23.8 5 6.8 6 15.7 2.8 21.4 4 0 8 2 11.2 5.7 4.5 5.4 5.8 12.7 3.4 19-1.8 4.7-5.7 8.7-10.4 10.7-3.2 1.4-8.3 2.4-14.5 0a44 44 0 0 1-30.5 15.3c0 0-.1 0-.1 0h0z"/><path d="M360.8 241.3a1 1 0 0 1-.4-.1 1 1 0 0 1-.3-1.3c0 0 .1-.1.2-.2 3-4.3 4.2-8.4 3.4-11.5-.6-2.2-2.3-4-5-5.2-4.4-2-10.4-3.2-15.7-4.2l-3.5-.7c-17.5-3.7-29.8-10-36.7-19.3-6.5-8.6-6.4-17.3-5.7-21.7 1.3-9 5.2-19.7 24-29a.9.9 0 0 1 1.3.4c.2.5 0 1-.4 1.3-18 8.8-21.7 18.4-23 27.5-1 7-1 30 41 39l3.5.7c5.4 1 11.6 2.3 16 4.3 3.3 1.5 5.3 3.6 6 6.4 1 3.6-.3 8.3-3.6 13v.1c-.2.3-.5.4-1 .4h0zm27-8c-1.5-.1-3-.4-4.2-1a1 1 0 0 1-.6-1.2c.2-.5.7-.7 1.2-.6 8.2 3 21.4-2 25.8-10 .2-.5.8-.6 1.3-.3.4.3.6.8.4 1.3-4 7.2-15 12.3-23.8 11.6h0z"/><path d="M300.2 168.7a.6.6 0 0 1-.4-.2.6.6 0 0 1 .1-.8l7.2-5.6c.2-.2.6-.1.8.1s.1.6-.1.8l-7.2 5.6a.5.5 0 0 1-.4.1zm-1.5 4.2a.6.6 0 0 1-.4-.2.6.6 0 0 1 .1-.8l7.5-5.8c.2-.2.6-.1.8.1s.1.6-.1.8l-7.5 5.8c-.1.1-.2.1-.4.1zm-.7 3.7a.6.6 0 0 1-.4-.2.6.6 0 0 1 .1-.8l6.2-5c.2-.2.6-.1.8.1s.1.6-.1.8l-6.2 5a.5.5 0 0 1-.4.1zm-.6 4a.6.6 0 0 1-.4-.2.6.6 0 0 1 .1-.8l7-5.5c.2-.2.6-.1.8.1s.1.6-.1.8l-7 5.5c-.1.1-.2.1-.4.1zm-.1 3.5a.6.6 0 0 1-.4-.2.6.6 0 0 1 .1-.8l7.3-5.8c.2-.2.6-.1.8.1s.1.6-.1.8l-7.3 5.8a.5.5 0 0 1-.4.1zm.4 2.6a.6.6 0 0 1-.4-.2.6.6 0 0 1 .1-.8l7-5.5c.2-.2.6-.1.8.1s.1.6-.1.8l-7 5.5a.5.5 0 0 1-.4.1zm1 2.7a.6.6 0 0 1-.4-.2.6.6 0 0 1 .1-.8l7-5.4c.2-.2.6-.1.8.1s.1.6-.1.8l-7 5.4a.5.5 0 0 1-.4.1zm.8 2.6a.6.6 0 0 1-.4-.2.6.6 0 0 1 .1-.8l7.3-5.7c.2-.2.6-.1.8.1s.1.6-.1.8L300 192c-.1.1-.2.1-.4.1zm1.3 2.4a.6.6 0 0 1-.4-.2.6.6 0 0 1 .1-.8l6.8-5.4c.2-.2.6-.1.8.1s.1.6-.1.8l-6.8 5.4a.5.5 0 0 1-.4.1zm1 2.5a.6.6 0 0 1-.4-.2.6.6 0 0 1 .1-.8l7.5-6c.2-.2.6-.1.8.1s.1.6-.1.8l-7.5 6c-.1.1-.2.1-.4.1zm1.4 2a.6.6 0 0 1-.4-.2.6.6 0 0 1 .1-.8l7.4-5.8c.2-.2.6-.1.8.1s.1.6-.1.8l-7.4 5.8a.5.5 0 0 1-.4.1zm2.3 1.2a.6.6 0 0 1-.4-.2.6.6 0 0 1 .1-.8l6.8-5.3c.2-.2.6-.1.8.1s.1.6-.1.8L306 200a.5.5 0 0 1-.4.1zm2 2.3a.6.6 0 0 1-.4-.2.6.6 0 0 1 .1-.8l7-5.5c.2-.2.6-.1.8.1s.1.6-.1.8l-7 5.5c-.1.1-.2.1-.4.1zm2 2a.6.6 0 0 1-.4-.2.6.6 0 0 1 .1-.8l7-5.4c.2-.2.6-.1.8.1s.1.6-.1.8l-7 5.4c-.1.1-.3.1-.4.1zm2.4 2.3a.6.6 0 0 1-.4-.2.6.6 0 0 1 .1-.8l7.3-5.7c.2-.2.6-.1.8.1s.1.6-.1.8l-7.3 5.7c-.1.1-.2.1-.4.1zm2.8 2.5a.6.6 0 0 1-.4-.2.6.6 0 0 1 .1-.8l8-6.2c.2-.2.6-.1.8.1s.1.6-.1.8l-8 6.2c-.1.1-.2.1-.4.1zm3.2 1a.6.6 0 0 1-.4-.2.6.6 0 0 1 .1-.8l7.5-6c.2-.2.6-.1.8.1s.1.6-.1.8l-7.5 6a.5.5 0 0 1-.4.1zm2.8 1.4a.6.6 0 0 1-.4-.2.6.6 0 0 1 .1-.8l7.5-5.8c.2-.2.6-.1.8.1s.1.6-.1.8l-7.5 5.8a.5.5 0 0 1-.4.1zm3 1a.6.6 0 0 1-.4-.2.6.6 0 0 1 .1-.8l7-5.5c.2-.2.6-.1.8.1s.1.6-.1.8l-7 5.5c-.1.1-.2.1-.4.1zm3 1a.6.6 0 0 1-.4-.2.6.6 0 0 1 .1-.8l7-5.4c.2-.2.6-.1.8.1s.1.6-.1.8l-7 5.4a.5.5 0 0 1-.4.1zm3 1.5a.6.6 0 0 1-.4-.2.6.6 0 0 1 .1-.8l7.3-5.7c.2-.2.6-.1.8.1s.1.6-.1.8l-7.3 5.7a.5.5 0 0 1-.4.1zm3.2 1a.6.6 0 0 1-.4-.2.6.6 0 0 1 .1-.8l7.5-6c.2-.2.6-.1.8.1s.1.6-.1.8l-7.5 6a.5.5 0 0 1-.4.1zm3.4.8a.6.6 0 0 1-.4-.2.6.6 0 0 1 .1-.8l7.4-5.8c.2-.2.6-.1.8.1s.1.6-.1.8l-7.4 5.8a.5.5 0 0 1-.4.1zm3.8.7a.6.6 0 0 1-.4-.2.6.6 0 0 1 .1-.8l7.4-5.8c.2-.2.6-.1.8.1s.1.6-.1.8l-7.4 5.8a.5.5 0 0 1-.4.1zm3.4.5a.6.6 0 0 1-.4-.2.6.6 0 0 1 .1-.8l7.4-5.8c.2-.2.6-.1.8.1s.1.6-.1.8L344 218a.5.5 0 0 1-.4.1zm4 .8a.6.6 0 0 1-.4-.2.6.6 0 0 1 .1-.8l7.2-5.6c.2-.2.6-.1.8.1s.1.6-.1.8l-7.2 5.6c-.1.1-.2.1-.4.1zm3.5 1a.6.6 0 0 1-.4-.2.6.6 0 0 1 .1-.8l7-5.5c.2-.2.6-.1.8.1s.1.6-.1.8l-7 5.5a.5.5 0 0 1-.4.1zm2.7.7a.6.6 0 0 1-.4-.2.6.6 0 0 1 .1-.8l7-5.5c.2-.2.6-.1.8.1s.1.6-.1.8l-7 5.5c-.1.1-.2.1-.4.1zm3 1a.6.6 0 0 1-.4-.2.6.6 0 0 1 .1-.8l6.6-5c.2-.2.6-.1.8.1s.1.6-.1.8l-6.6 5c-.1.1-.2.1-.4.1zm3 1a.6.6 0 0 1-.4-.2.6.6 0 0 1 .1-.8l6-4.7c.2-.2.6-.1.8.1s.1.6-.1.8l-6 4.7a.5.5 0 0 1-.4.1zm2.3 1.8a.6.6 0 0 1-.4-.2.6.6 0 0 1 .1-.8l6-4.7c.2-.2.6-.1.8.1s.1.6-.1.8l-6 4.7a.5.5 0 0 1-.4.1zm2.5 4.3a.6.6 0 0 1-.4-.2.6.6 0 0 1 .1-.8l6-4.6c.2-.2.6-.1.8.1s.1.6-.1.8l-6 4.6a.5.5 0 0 1-.4.1zm.3 3.2a.6.6 0 0 1-.4-.2.6.6 0 0 1 .1-.8l6-4.7c.2-.2.6-.1.8.1s.1.6-.1.8l-6 4.8c-.1.1-.2.1-.4.1zm-1 4.6a.6.6 0 0 1-.4-.2.6.6 0 0 1 .1-.8l6.8-5.3c.2-.2.6-.1.8.1s.1.6-.1.8l-6.7 5.3a.5.5 0 0 1-.4.1zm-.2-10a.6.6 0 0 1-.4-.2.6.6 0 0 1 .1-.8l5.7-4.4c.2-.2.6-.1.8.1s.1.6-.1.8l-5.7 4.4a.5.5 0 0 1-.4.1zm22.4 5.6a.6.6 0 0 1-.4-.2.6.6 0 0 1 .1-.8l6.7-5.2c.2-.2.6-.1.8.1s.1.6-.1.8l-6.7 5.2a.5.5 0 0 1-.4.1zm2.4.7a.6.6 0 0 1-.4-.2.6.6 0 0 1 .1-.8l6.7-5.2c.2-.2.6-.1.8.1s.1.6-.1.8l-6.7 5.2a.5.5 0 0 1-.4.1zm4-.5a.6.6 0 0 1-.4-.2.6.6 0 0 1 .1-.8l5.7-4.5c.2-.2.6-.1.8.1s.1.6-.1.8L393 232c-.1.1-.2.1-.4.1zm3.7-.3a.6.6 0 0 1-.4-.2.6.6 0 0 1 .1-.8l6-4.6c.2-.2.6-.1.8.1s.1.6-.1.8l-6 4.6a.5.5 0 0 1-.4.1z"/></g><g opacity=".2"><defs><path id="AV" d="M0 0h460v460H0z"/></defs><clipPath id="AW"><use xlink:href="#AV"/></clipPath><g class="M"><path d="M63 56.3L48.2 40.7l1.5-1.4L68 58.5l-.8 2.5-4.4-4.7zM43.6 36c-2-2-2.2-4.4-.7-6.5 1.3-1.8 4-3 6.4-2l1.3.8 1.8 1.7-7.2 7.5h0L43.6 36zm22 7.5l9.7 10-3 1-19-18.8c0 0 0 0 0 0l2.4-2.5 10 10.3zm-13.2-7c0 0 0 0 0 0l19 18.8c-.3.8-.5 1.5-.6 2.2a5.9 5.9 0 0 1-1.7.2L50.6 38.4l2-2zm-6.5 2l7.3-7.6 1.6 1.5a190 190 0 0 1-7.5 7.5L46 38.4zM76.3 56l.4 2a4.3 4.3 0 0 0-3 1.2c-1 .8-1.3 2-1.3 3.2l-4-.6.8-2.6a.2.2 0 0 0 .1 0 6.8 6.8 0 0 0 2.3-.4c.2-.1.4-.3.4-.5.1-.8.2-1.6.6-2.4 0 0 0 0 0 0l3.4-1 .3 1.5zm-2.8 6.5h0c-.1-1 .3-2 1-2.5.6-.6 1.6-1 2.4-.8.2 1.4.4 2.7.5 4l-3.8-.6zm5 1.3v-.1c0-2.4-.6-5.3-1-8l-.4-2.2a.6.6 0 0 0-.2-.3L66.5 42.5 56.2 31.8c0 0 0 0-.1-.1a.5.5 0 0 0-.1-.1l-4.7-4.3a6 6 0 0 0-1.6-1c-3-1.5-6.3 0-8 2.3-1.5 2-2 5.2.8 8l4 4h.1l15 16 5 5.4c.1.1.2.2.3.2l10.4 1.6c.2 0 .3 0 .5-.1s.2-.3.2-.5zm-58 4.4a2.6 2.6 0 0 1 2.8-1.9c8.4 1 16.5 2.8 24 5.6l-8.7 33.4a56 56 0 0 1-25.2-7.3c2.3-12.2 5-22.3 7-29.8zm29.2 7h0a225 225 0 0 1-8.6 33.6c-4.7-.2-10-1-15.6-2.2l.3-1a.6.6 0 0 0-.3-.8 72 72 0 0 0-6.3-2.1.6.6 0 0 0-.5.1c-.1.1-.2.2-.3.4a40 40 0 0 1-.2 1.3l-2-.7c0 0 0 0 0-.1-.3-1-.3-2.2-.3-3.3 7 3.5 14.5 5.4 23.2 6h0a.6.6 0 0 0 .6-.4l8.7-33.4c1 1 1.3 2 1.2 2.6zm-26.5 35l-1.4-2a.6.6 0 0 0-.5-.3h-.1c-1 .1-2 .3-3 .6.5-1.4 1-2.8 1.2-4.4l5 1.7c-.5 1.4-1 3-1.2 4.4zm-9.6-7.3c-.4-.5-.7-3-.4-3.8l1.5.8c-.1 1-.1 2.3.1 3.5l-1.2-.5zm-1.4-.2c.2.8.6 1.2 1 1.4a69 69 0 0 0 4.8 1.7 22 22 0 0 1-1.3 3.7c-.1.2-.1.5.1.7s.5.2.7.1c1-.5 2.3-1 3.5-1 .6 1 1.4 2 2 2.8a.6.6 0 0 0 .6.2c.2-.1.4-.3.4-.5.2-1.3.5-2.7 1-4 5.8 1.3 11.4 2 16.4 2.3h0c.3 0 .5-.2.6-.4l9-34.3c.1-1.3-.5-2.5-2.2-4.2a.2.2 0 0 0-.1 0 .6.6 0 0 0-.3-.2c-8-3-16.2-4.8-24.8-5.8-2-.2-3.6 1-4 2.8l-7 30.3c0 .1 0 .2 0 .3-.6 1-.3 3.3 0 4.3z" class="O"/><path d="M24 71a86 86 0 0 1 16.8 4.4A21 21 0 0 1 39 83c-6-.5-11.7-2-16.8-4.2.2-2.5.8-5.2 1.8-7.8zm-2.7 8.7c5.5 2.5 11.5 4 18 4.5h0c.2 0 .5-.1.5-.3 1.3-2.8 2-6 2-9a.6.6 0 0 0-.4-.6c-5.5-2-11.5-3.7-18-4.7a.6.6 0 0 0-.6.4 27 27 0 0 0-2.1 9.1c0 .3.1.5.4.6zM38.5 91l-17-4a.6.6 0 1 0-.3 1.2l17 4c0 0 .1 0 .1 0 .3 0 .5-.2.6-.5a.6.6 0 0 0-.5-.7zm-.2 4.5l-18.7-4a.6.6 0 0 0-.3 1.2l18.7 4c0 0 .1 0 .1 0 .3 0 .5-.2.6-.5a.6.6 0 0 0-.5-.7zm124.7-56l-20 6c-3.6 1-7.7.6-11-1.2l-6.2-3.6 11.2-6.2a.7.7 0 1 0-.7-1.3l-12 6.6c-4-2.5-7.7-5.2-11.7-8l-.2-.1c-.5-.3-.7-.8-.6-1.3.1-.5.5-.8 1-1l10-2 9.6-2c3-.6 6.3-.1 9.2 1.3l.7.3L163 37.3c.6.3.8.8.8 1.3 0 .5-.4 1-1 1zm-9.4 15.8c-.3 1.2-.6 2.4-1.5 3.3-1.3 1.3-4 1.7-5.8 2l-3 .5a32 32 0 0 1-18.4-2.9l-2.8-1.4a255 255 0 0 0 3.1-14.7 118 118 0 0 0 6 3.5c1.5.8 3 1.4 4.8 1.7 2.5.5 5 .4 7.4-.4l13-4-3 12.4zM115 51.8c-.5-1-.4-2.4-.2-3.5l1.5-12 7.6 5a253 253 0 0 1-3.1 14.9c-.3-.1-.5-.3-.7-.4-1.8-1-4.2-2.3-5-4zm6.6 11.4c-.5 1-1.7 2-3 2.2.5-.8.8-1.7.7-2.7 0-.4-.2-.7-.3-1l-.2-.6c-.2-.7 0-1.4.4-2 .3-.4.8-.7 1.3-.8 0 0 0 0 0 .1 1.2 1.2 1.6 3.3.8 4.8zM164 36c-7-3.8-13.6-7-20.8-10.5l-.7-.3c-3-1.5-6.7-2-10-1.4-3.4.6-6.5 1.4-9.6 2l-10 2c-1.2.2-2 1-2.3 2-.2 1 .2 2 1.2 2.8l.2.1 3 2.2-1.6 13c-.2 1.3-.4 3 .4 4.4 1 2 3.7 3.6 5.6 4.6l.3.1c-.5.3-1 .6-1.3 1a3.9 3.9 0 0 0-.7 3.2l.2.7c.1.3.2.5.2.7.1 1-.6 2-1.3 2.8a.8.8 0 0 0-.1.8c.1.2.3.4.6.5 0 0 0 0 0 0 2.3.3 4.8-1 5.8-3 .8-1.5.7-3.4 0-5l1.3.6a33 33 0 0 0 8.4 2.8 33 33 0 0 0 10.8.2l3-.5c2-.3 5-.8 6.6-2.4 1.2-1.2 1.6-2.7 2-4l3-13c0-.1 0-.2 0-.3l5.2-1.5c1-.3 2-1.2 2-2.3.1-1-.5-2.2-1.5-2.8zm258 147.8c.6 1.2 1 2 1.8 2.7a4 4 0 0 0 2.7.9l.4-.5 9.4-12c-1.4-.4-3-1.5-3.5-2.8l-5.2 5.7-5.6 6zm15-11.4c-.3-.6-1-1-1.7-1.2-.6-.1-1.2-.1-2 .1.2 1.3 2 2.6 3.5 2.8.4-.5.4-1.2.1-1.8zm-4.6-1.2h0c0-.2.1-.4.3-.5a5 5 0 0 1 2.7-.3c1 .2 2 .8 2.3 1.6.5 1 .4 2-.3 3 0 .1-.1.1-.1.1l-9.8 12.5-.5.6c-.1.1-.2.2-.3.2-1.3.1-2.6-.2-3.6-1-1-.7-1.6-1.8-2.2-3.3a.2.2 0 0 1 0-.1c0-.1 0-.3.1-.4l5.8-6.2 5.6-6zM146 230l-4.3 2.3.8-4.8-3.5-3.4 4.8-.7 2-4.3 2.2 4.3 4.8.7-3.5 3.4.8 4.8zm271 204.2a159 159 0 0 0 5.8-10.8l.4-.7c.5.3 1 .4 1.6.4.8 0 1.6-.3 2-1 .2-.2.3-.4.4-.6.2-.3.4-.6.7-.7.4-.2 1 0 1.7.5l.1.1c.7.5 1.5 1 2.4 1 0 0 .1 0 .1 0 .6-.1 1.2-.5 1.7-1.2l.3-.4c.3-.4.5-.7.8-1 .7-.5 1.7-.6 2.4-.1l5.5 6 4 4.5c.6.6.7 1.4.4 2.2-.3.8-1 1.3-1.7 1.4l-16 2-10.5 1.3c-1 .1-1.6-.2-2-1-.5-.7-.5-1.6-.1-2.3zm8-15.4v-.1-.2l-1.4-9.3-.4-3.2 9.5-1.7a120 120 0 0 0 1.9 12.4v.1h.1l1.4 1.6c-.7 0-1.3.2-2 .6-.4.3-.7.7-1 1l-.3.4c-.4.5-.8.8-1 .8-.6.1-1-.3-1.7-.7h-.1c-1-.7-2-1-2.7-.6-.5.2-.8.6-1 1l-.4.4c-.3.3-.8.5-1.3.5-.4 0-.8-.1-1-.3l1.5-3zm-2.6-15l11-2c.4-.1.8.2.8.6.1.4-.2.8-.6.8l-11 2a.7.7 0 0 1-.8-.6c-.1-.4.2-.7.6-.8zm-3.2 34.8l10.5-1.3 16-2c0 0 .1 0 .1 0a3.2 3.2 0 0 0 2.5-2.1 3.2 3.2 0 0 0-.6-3.2l-4-4.5-5.4-6h0c0 0-.1-.1-.1-.1l-2.4-2.7c-.7-3.2-1.4-8.5-1.8-12.2h0c1-.2 1.6-1 1.4-2a1.7 1.7 0 0 0-2-1.4l-11 2c-1 .2-1.6 1-1.4 2 .1.8.8 1.3 1.5 1.4l.4 3.2 1.3 9.2-2.3 4.5c-1.8 3.6-3.5 7-5.8 10.7-.6 1-.6 2.4.1 3.4a3.2 3.2 0 0 0 3.1 1.4z" class="O"/><path d="M436.6 424.3c.6-.1 1.2.3 1.3 1s-.3 1.2-1 1.3-1.2-.3-1.3-1 .3-1.2 1-1.3zm.6 3.3a2.2 2.2 0 0 0 1.8-2.5 2.2 2.2 0 0 0-2.5-1.8 2.2 2.2 0 0 0-1.8 2.5 2.2 2.2 0 0 0 2.5 1.8zm-11.4 1.4c.4-.1.7.2.8.5s-.2.7-.5.8-.7-.2-.7-.5.2-.7.5-.7zm.4 2.3a1.7 1.7 0 1 0-.6-3.3 1.7 1.7 0 0 0 .6 3.3zm4-17.7c.4-.1.7.2.8.5s-.2.7-.5.8-.7-.2-.7-.5.2-.7.5-.7zm.4 2.3c1-.2 1.5-1 1.4-2s-1-1.5-2-1.4a1.7 1.7 0 1 0 .6 3.3zm-5-8c.4-.1.7.2.8.5s-.2.7-.5.8-.7-.2-.7-.5.2-.7.5-.7zm.4 2.3a1.7 1.7 0 1 0-.6-3.3 1.7 1.7 0 0 0 .6 3.3zM416 40.4c-.2-.4-.2-1 .1-1.2.1-.2.5-.3.8-.4h.6c.8.4.6 1.3.6 1.3-.1.4-.5.7-1 .8-.4 0-1-.2-1-.6zm1.3 1.4c.8-.1 1.4-.7 1.6-1.4.2-.6.2-1.8-1-2.3-.7-.4-2-.1-2.5.6-.5.6-.5 1.5-.1 2 .4.7 1.2 1 2 1h.1zm-6.7 12.4c-.1-1.3.8-2.5 2-2.8a75.5 75.5 0 0 1 12.9-1.8c1.3-.1 2.4.8 2.7 2a73 73 0 0 1 .6 3c.1.7 0 1.4-.4 2s-1 1-1.7 1l-12.6 2h-.1c-1.4.2-2.7-.7-3-2l-.5-3.6zm6.7-6h.4.3l1.2-.2.2 1.6-2 .3-.2-1.5zm-7.2-5c-1.4-2.6-1.2-6.2.6-8.6.8-1 2.5-2 4.4-2.5h1c1.6-.2 3.2-.1 4.2.5 4.6 2.3 4.6 7 4 9.4-.8 3-3.6 5.2-6.6 5.5a8 8 0 0 1-7.6-4zm17.6-7c-.4.3-1 .2-1.5-.2-.1-.2-.2-.5-.2-.8s.2-.5.4-.7c.1-.1.3-.1.4-.2.4 0 .8.1 1 .4.3.4.2 1-.2 1.5zm-13.5 24.4h.1l12.6-2c1-.1 1.7-.7 2.3-1.4.5-.8.7-1.7.6-2.6l-.5-2.2a.5.5 0 0 0 .2-.2c1.5-2.4 2.4-5.2 2.3-8s-1-5.6-2.6-8a.4.4 0 0 0-.3-.2c.1-.5.1-1-.3-1.6-.6-.8-1.8-1-2.6-.4-.4.3-.6.7-.7 1.2s.1 1 .3 1.4c.4.6 1 .8 1.8.7a1.7 1.7 0 0 0 1.1-.7c1.5 2.2 2.4 4.8 2.4 7.4.1 2.5-.6 5-2 7.2a3.5 3.5 0 0 0-3.5-2.5l-5.2.5-.2-1.8c2.4-1 4.3-3 5-5.5.8-2.7.7-7.8-4.4-10.4-3-1.6-8.7-.3-10.6 2.5-2 2.7-2.2 6.6-.6 9.5 1.4 2.6 4.2 4.3 7 4.5l.3 1.7a78 78 0 0 0-4.2.8 3.5 3.5 0 0 0-2.7 3.6 32 32 0 0 0 .5 3.7c.4 1.8 2 3 4 2.7z" class="O"/><path d="M412.8 53.4c.1-.1.1-.1.2-.1h0c.1 0 .1 0 .2-.1.1 0 .2.1.3.3 0 .1 0 .2-.1.4s-.2.2-.3.2c-.1 0-.2 0-.3-.1a.5.5 0 0 1-.2-.3c0-.1 0-.2.1-.3zm.5 1.5c0 0 .1 0 .1 0 .3-.1.6-.3.8-.6.2-.3.3-.7.2-1-.1-.4-.4-.7-.8-1a.8.8 0 0 0-.6 0c-.3 0-.6.2-.8.4-.2.3-.4.6-.3 1 .1.3.3.6.5.8.3.2.6.3 1 .2zm.1 2.5c.1-.1.1-.1.2-.1h0c.1 0 .1 0 .2-.1.1 0 .2.1.3.3 0 .1 0 .2-.1.4s-.2.2-.3.2c-.1 0-.2 0-.3-.1a.5.5 0 0 1-.2-.3c0-.1 0-.2.1-.3zm.5 1.5c0 0 .1 0 .1 0 .3-.1.6-.3.8-.6.2-.3.3-.7.2-1-.1-.4-.4-.7-.8-1a.8.8 0 0 0-.6 0c-.3 0-.6.2-.8.4-.2.3-.4.6-.3 1 .1.3.3.6.5.8.3.2.6.3 1 .2zm11.3-7.3c.1-.1.1-.1.2-.1h0c.1 0 .1 0 .2-.1.1 0 .2.1.3.3 0 .1 0 .2-.1.4s-.2.2-.3.2c-.1 0-.2 0-.3-.1a.5.5 0 0 1-.2-.3.4.4 0 0 1 .1-.3zm.5 1.5c0 0 .1 0 .1 0 .3-.1.6-.3.8-.6.2-.3.3-.7.2-1-.1-.4-.4-.7-.8-1a.8.8 0 0 0-.6 0c-.3 0-.6.2-.8.4-.2.3-.4.6-.3 1 .1.3.3.6.5.8.3.2.6.3 1 .2zm.1 2.5c.1-.1.1-.1.2-.1h0c.1 0 .1 0 .2-.1.1 0 .2.1.3.3 0 .1 0 .2-.1.4s-.2.2-.3.2c-.1 0-.2 0-.3-.1a.5.5 0 0 1-.2-.3c0-.1 0-.2.1-.3zm.5 1.5c0 0 .1 0 .1 0 .3-.1.6-.3.8-.6.2-.3.3-.7.2-1-.1-.4-.4-.7-.8-1a.8.8 0 0 0-.6 0c-.3 0-.6.2-.8.4-.2.3-.4.6-.3 1 .1.3.3.6.5.8.3.2.6.3 1 .2zM413 33.4c-2 1-3.2 3.3-3 5.4 0 .2.2.4.5.4h0c.2 0 .4-.2.4-.5-.2-1.8.8-3.8 2.4-4.6.2-.1.3-.4.2-.6a.4.4 0 0 0-.6-.2zm-4.4 11.2c0 0 .1 0 .1 0 .2-.1.3-.4.2-.6-.8-1.7-1-3.6-1-5.4a.4.4 0 0 0-.4-.5.4.4 0 0 0-.5.4c-.2 2 .2 4 1 6 .1.2.3.3.4.2z" class="O"/><path d="M407 37c.1-.2 0-.5-.2-.5s-.5 0-.6.2c-1.4 3.2-1 7 1 9.8a.4.4 0 0 0 .6.1c.2-.1.2-.4.1-.6-2-2.5-2.2-6-1-9zm18.2-3.6c.2-.1.3-.3.2-.5a4.6 4.6 0 0 0-3-2.7.4.4 0 0 0-.5.3c-.1.2.1.4.3.5a3.7 3.7 0 0 1 2.4 2.2c.1.2.3.3.4.3 0 0 .1 0 .1 0zm.3-2c.1 0 .1 0 .1-.1.2-.1.3-.4.2-.6a5.1 5.1 0 0 0-3.9-2.6.4.4 0 0 0-.5.4c0 .2.1.4.4.5 1.3.1 2.6 1 3.2 2.2.1.2.3.3.4.2zm1.2 8.7c-.2 0-.4.2-.4.5a5 5 0 0 1-1 3.4c-.1.2-.1.5.1.6.1.1.2.1.3.1.1 0 .2-.1.3-.2a5.9 5.9 0 0 0 1.2-4 .4.4 0 0 0-.4-.4zm0 5c.1.1.2.1.3.1.1 0 .2-.1.3-.2a7.2 7.2 0 0 0 1.4-5.4.4.4 0 0 0-.5-.4h0c-.2 0-.4.3-.4.5.3 1.6-.2 3.4-1.2 4.8-.1.2-.1.4.1.6zm-408 261l.6.6c1.4 1 2.5 1.6 4.5 1.7l-1.6 3c-2 3.8-3.2 6.4-5 8-.2.2-.4.2-.7.1l-.3-.1-1-.4a.6.6 0 0 1-.3-.7l3.5-12.2zM32 276.5l.2-.6c.1-.4.4-1 .8-1 .4-.2 1-.1 1.5 0 .5.1 1 .2 1.3.6.4.5.1 1.4 0 1.6l-.3.7c-.1.2-.2.5-.3.7-1-.7-2-1.2-3.3-1.4v-.4zm3.6 4.4h0l-.1.3c-.5-.6-1.4-1-1.8-1-1.4-.5-3-1-4.4-1.3.3-.6 1-1 1.6-1a6 6 0 0 1 4.6 2.2c.1.2.3.5.2.7zm-16.5 24l9.6-25c1.6.1 3 .7 4.5 1.2.7.3 1.4.6 1.6 1 0 .1.1.1.1.2a289 289 0 0 1-10.6 24.6c-2.3-.1-3.3-.5-5.2-2.3zm-4.4 14.7c.1.1.2.1.3.2l-.4.8c-.1.2 0 .5.2.6 0 0 .1.1.1.1.3.1.6 0 .7-.3l.3-.8h0c.1.1.2.1.3.1.6.3 1.4.2 2-.3 1.8-1.7 3-4.3 5-8.2l2-3.8c4.4-8.6 7.8-17.3 11.4-26.5.1-.1.1-.2.1-.3.4.2.7.7.7 1 .1.7-.1 1.4-.4 2-1.7 4.7-4 9.3-6 13.8-.1.2 0 .5.1.6 0 0 .1.1.1.1.3.1.6 0 .7-.3 2-4.5 4.3-9 6-14 .3-1 .6-1.7.5-2.6-.1-1-1-2-2-2a2.6 2.6 0 0 0-.2-.3c-.1-.1-.2-.3-.3-.4a6 6 0 0 1 .4-1l.4-.7c.4-1 .4-2-.2-2.7-.5-.6-1.4-.8-2-1-.6-.1-1.4-.3-2.2.1-.6.3-1 1-1.4 1.7l-.2.7-.2.7h0c-1.2.1-2.2.7-2.6 1.8A319 319 0 0 0 18 304.6c0 0 0 .1-.1.1a69 69 0 0 0-3.9 13.1c-.1.6.1 1.3.6 1.7zm38.5-114.8a2.2 2.2 0 0 1-1.8 2.5L31 210l-12 1.4a2.2 2.2 0 0 1-2.5-1.9l-1.6-11-1.3-8.8c-.1-.6.1-1.2.4-1.7.3-.5 1-.7 1.4-.8 0 0 0 0 .1 0l17.2-2 15-2c1.2-.1 2.3.7 2.4 2l1.3 8 1.8 11.7zm-14.7 7.2l-6 1c0-.7-.1-1.3-.2-2l6-.7.2 1.7zm5.5.4v.5c-5 1-10.2 1.8-15.4 2.6-.1-.2-.1-.3-.1-.4l15.4-2.6zm7-27.4a3.3 3.3 0 0 0-3.6-2.8l-15 2-17.2 2c-1 .1-1.7.6-2.2 1.3s-.8 1.6-.7 2.5l1.3 8.8 1.6 11c.3 1.8 2 3 3.7 2.8l12-1.4h.2c.1.6.2 1.3.2 2 0 .1 0 .1 0 .2l-3.7.8c-.3.1-.5.4-.4.7.1.5.2 1 .4 1.6.1.2.3.4.6.3 5.5-.8 11.2-1.6 16.4-2.7a.6.6 0 0 0 .4-.6l-.2-1.5a.6.6 0 0 0-.6-.5l-4.8.6-.2-1.6 4.5-.6a165 165 0 0 0 7.8-1.3c1.7-.3 3-2 2.7-3.7l-2-11.7-1.3-8z" class="O"/><path d="M49 205.2l-18 2.4-10.5 1.2c-1 .1-2-.5-2-1.4l-1.4-9-1-7.2c-.1-.4.1-1 .3-1.2.3-.4.8-.6 1.3-.7 0 0 0 0 .1 0l15-1.8 13-1.6c1-.1 2 .5 2 1.4l1 6.6 1.6 9.6c.1 1-.6 1.7-1.5 2zM49 187c-.2-1.5-1.7-2.5-3.2-2.4l-13 1.6-15 1.8c-.8.1-1.6.5-2 1-.5.6-.7 1.3-.6 2l1 7.3 1.4 9c.2 1.5 1.7 2.6 3.3 2.4l10.5-1.2 11.8-1.4c2-.3 4-.6 6.2-1 1.5-.3 2.6-1.7 2.4-3.2l-1.6-9.6-1-6.6zm379.2-50.7a.5.5 0 0 0-.3-.5c-.8-.2-1.6-.5-2.2-1-.3-.3-.4-.7-.4-1 0-.2.1-.4.3-.6.2-.1.4-.2.6-.3l.4-.2c.5-.3 1-.8 1-1.6-.1-.6-.7-1-1-1-.2-.1-.4-.2-.5-.3-.1-.2-.2-.3-.1-.5 0-.3.2-.7.5-1 .6-.4 1.4-.4 2-.4 1 0 2-.1 2.7-.7.5-.4.8-1 .8-1.7 0-.5-.2-1-.6-1.3-.8-.6-1.8-.3-2.5 0-.1 0-.1 0-.2.1-.4.1-1 .1-1.2 0-.1-.1-.1-.1-.1-.2s0-.2 0-.3c0-.2 0-.4 0-.6-.2-.6-.8-1-1.7-1h-.1c-.4 0-.8 0-1-.2-.1-.1-.1-.2-.1-.3 0-.2.1-.4.3-.5.3-.3.8-.4 1.3-.5.5-.1 1.3-.2 1.8-.7.8-.7 1-1.8 1-2.7 0-.1 0-.2 0-.3.1-.7.7-1.8 1.4-2a.5.5 0 0 0 .2-.1c2.5 2 4.4 5 4.7 8.6.5 5-2.3 10.4-6.8 13zm-10.2 1c0 0 0 0 0 0-1.3-.4-2.5-1-3.6-1.8.4-.4.8-.8 1-1.3.5-.8.6-1.7.2-2.5-.2-.4-.4-.7-.7-1-.3-.4-.6-.7-.6-1 0-.3.1-.6.3-1 .3-.6.6-1.3.1-2-.3-.4-.7-.6-1-.7h-.4c-.4-.3-.6-1-.4-1.5.3-.5.8-1 1.6-1 .7-.2 1.5 0 2.2.1h.2c.8.2 1.6.3 2.4.1 1-.2 2-1 1.8-2.2 0-.3-.2-.6-.3-.8-.1-.3-.2-.5-.2-.7 0-.2.3-.4.7-.6.2-.1.4-.2.5-.4 1-1 1-2.4.8-3.5-.3-1-1-2-2-3 1.5-.1 3 0 4.5.4h.1a8.5 8.5 0 0 1 4 1.2c-.8.5-1.5 1.7-1.5 2.6 0 .1 0 .2 0 .3 0 .8-.1 1.6-.6 2-.3.3-.8.4-1.3.5-.6.1-1.3.2-1.8.7-.4.3-.6.8-.6 1.2 0 .4.1.7.3 1 .5.5 1 .5 1.7.5h.1c.4 0 .7.1.8.3 0 .1 0 .2 0 .3 0 .2 0 .3 0 .5.1.4.3.7.6 1 .6.4 1.4.3 2 .1l.2-.1c.6-.2 1.2-.4 1.6-.2.2.1.2.3.2.5 0 .3-.2.7-.4 1-.5.4-1.3.5-2 .5-1 0-2 0-2.7.6-.5.3-1 1-1 1.6-.1.5.1 1 .4 1.3.2.2.5.4.8.5.3.2.5.3.6.4s-.2.4-.4.5c-.1.1-.2.1-.4.2-.3.1-.6.3-1 .5-.4.3-.6.8-.6 1.3 0 .7.2 1.3.6 1.8.7.8 1.7 1 2.5 1.4-3 1.4-6.4 1.6-9.5.7zm-8.6-9.3a13 13 0 0 1 3.6-12.1c1.8-1.7 4-3 6.6-3.3.6.7 1.8 2.2 2 3 .2.8.2 1.8-.5 2.4a4 4 0 0 1-.4.3c-.4.3-1 .6-1 1.3-.1.5.1 1 .3 1.3a2 2 0 0 1 .2.5c.1.5-.5 1-1 1-.6.1-1.3 0-2-.1h-.2c-.8-.2-1.7-.3-2.6-.1-1 .2-2 .8-2.3 1.7-.5 1-.1 2.3.8 2.8.2.1.4.2.6.3.3.1.5.2.6.3.1.2 0 .5-.2 1-.2.4-.4.8-.4 1.3 0 .7.4 1.2.8 1.7.2.3.4.5.5.8.2.4.1 1-.2 1.6-.2.4-.6.8-1 1.2-2-1.8-3.6-4.2-4.2-6.8zm23.2-12.6c-2-2.2-4.5-3.5-7.2-3.6a14 14 0 0 0-13.2 3.3 14 14 0 0 0-3.9 13.1c.7 3 2.4 5.6 4.8 7.5 0 0 0 .1.1.1.1.1.1.1.2.1h0c1.3 1 2.7 1.7 4.2 2.2 0 0 0 0 0 0 3.3 1 7 .8 10.2-.7 5.3-2.5 8.7-8.5 8-14.3-.3-3-1.5-5.6-3.4-7.8z" class="O"/><path d="M411.4 147.8c0-.5.2-1 .6-1.4.5-.5 1-.7 1.8-.7 4 .4 8.2 1 12.4 2 .1 0 .1 0 .2.1 1 .3 1.7 1.4 1.5 2.4l-16.5-2.4zm17.5 2.5c.3-1.7-.8-3.3-2.5-3.6a98 98 0 0 0-6.2-1.2l.4-2c.2-.8.3-1.2.4-3a.5.5 0 0 0-.5-.5.4.4 0 0 0-.3.1 14 14 0 0 1-3.2-.6c-4-1.3-7.6-4.3-9.3-8.3-2.2-5-1.3-11.3 2.3-15.5 3.5-4.2 9.5-6.2 15-5 .3.1.5-.1.6-.4s-.1-.5-.4-.6c-5.7-1.4-12 .7-15.8 5.2-3.8 4.5-4.8 11-2.4 16.5 1.8 4.2 5.6 7.5 10 9 1 .3 2 .6 3.2.7-.1 1.2-.2 1.6-.3 2.2l-.4 2a93 93 0 0 0-5.4-.7c-1-.1-2 .3-2.6 1-.7.7-1 1.6-1 2.6h0c0 .2.2.4.4.4 0 0 .1 0 .1 0 5.8 1 11.7 1.8 17.5 2.5a.5.5 0 0 0 .6-.4c0-.2.1-.3.1-.5zm-107-98.7c-2.2 2.2-6 2.5-8.6.7-2.6-1.8-3.4-5.6-1.8-8.3 1.3-2 4-3.3 6.4-3 .6.1 1.2.3 1.7.6.1 0 .2.1.3.1 2 .2 3.5 2 4 4 .4 2-.3 4.3-1.8 5.8zm14.7-7.5c.6.1 1.2.3 1.7.6.1 0 .2.1.3.1 2 .2 3.5 2 4 4l.1.3c0 .1 0 .2 0 .2.2 2-.5 4-2 5.3-2.2 2.2-6 2.5-8.6.7-2.6-1.8-3.4-5.6-1.8-8.3 1.2-2 4-3.3 6.4-3zM325 47c.5-.3 1.2-.4 1.8-.4.6.1 1 .3 1.6.6-1.3 3.2-.2 7.3 2.6 9.3 1 .7 2 1 3.3 1.3 2.5.4 5.3-.4 7.2-2.2a8 8 0 0 0 2.4-6.3c1.6-1.8 2.7-4 3-6.6.2-2.7-.5-5-2-7 0-.8-.6-1.5-1.3-1.7-1-.3-2 .1-2.3 1a.7.7 0 0 0 1.3.6c.1-.2.4-.3.6-.2.2.1.4.3.3.5 0 .2 0 .4.2.6 1.4 1.6 2 3.8 2 6.2a10 10 0 0 1-1.8 5c-.8-2.2-2.6-4-4.8-4-3.2-1.7-7.6-.5-9.6 2.5-.6-.4-1.4-.7-2-.8-.7-.1-1.4 0-2 .3-.6-2.6-2.5-4.6-5-5 0 0-.1 0-.1 0-2.6-1.3-6-1-8.2 1 1-3.7 3.5-7 7-9 .1 0 .1-.1.2-.1.1-.1.3-.1.4-.1s.2.2.2.4c-.1.4.1.8.5 1 .4.1.8-.1 1-.5.2-.7-.2-1.6-1-2-.6-.4-1.5-.2-2 .3-4.4 2.6-7.4 7.2-8 12.3v.1c-1.6 3.3-.6 7.7 2.4 9.8 1 .7 2 1 3.3 1.3 2.5.4 5.3-.4 7.2-2.2 1.5-1.5 2.4-3.6 2.4-5.7zm67 44.3l-.7-.4a.6.6 0 0 0-.8.3c-.1.3 0 .7.3.8l.8.4a16 16 0 0 1-2.4 3.6l-1-1a.6.6 0 0 0-.9-.1.6.6 0 0 0-.1.9l1 1c-1 1-2 1.7-3 2.3-1 .6-2 1-3 1.4a3.8 3.8 0 0 1-.4-1.7c0-.3-.3-.6-.6-.6s-.6.3-.6.6a5 5 0 0 0 .4 2.1c-2 .5-4.2.7-6.3.4l.3-1.7a.6.6 0 0 0-.5-.7.6.6 0 0 0-.7.5l-.3 1.7c-.7-.1-1.5-.3-2.2-.6-1-.3-1.8-.7-2.8-1.2l1-1a.6.6 0 0 0 0-.9.6.6 0 0 0-.9 0l-1 1a.6.6 0 0 0-.1.1c-1-.6-1.8-1.4-2.5-2.4-1-1.2-1.5-2.7-2-4.5l1.7-.2a.6.6 0 0 0 .6-.7.6.6 0 0 0-.7-.6l-1.8.2c-.1-1-.2-2-.2-3a26 26 0 0 1 .3-3.6l1.4.4c.1 0 .2 0 .3 0a.6.6 0 0 0 .4-.5.6.6 0 0 0-.4-.8l-1.5-.4c.4-1.7 1-3 1.7-4.2.2-.3.4-.6.6-.8l1 1.3c.2.2.4.3.6.2a.6.6 0 0 0 .3-1l-1-1.3a.4.4 0 0 0-.1-.1c1.7-2 3.7-3.2 6-4l.5 2.2c.1.3.4.6.7.5 0 0 0 0 0 0 .3-.1.5-.4.4-.7l-.5-2.2.7-.2c3-.5 6.2-.1 8.7.6l-.4 1a.6.6 0 0 0 .7.8c.2 0 .3-.2.4-.4l.4-1c1.3.5 2.4 1 3 1.6.2.1.3.2.5.3-.1 0-.1.1-.1.2l-.5 1c-.1.3 0 .7.3.8.1.1.3.1.4 0 .2 0 .3-.2.4-.3l.5-1c1.7 1.7 3 3.8 3.7 6.2l-1.8.2a.6.6 0 0 0 .1 1.3l2-.2c0 0 .1 0 .1 0 .3 1.3.3 2.7.2 4-.1 1.3-.4 2.5-1 3.8zm-1.8 5.8c1 .6 1.8 1.4 2.4 2.3.1.1.3.4.3.6 0 .2-.2.3-.6.5-.7.3-1 .4-1.3.2-.1-.1-.3-.3-.4-.5l-.2-.3a3.9 3.9 0 0 0-1.8-1.5c.5-.5 1-1 1.4-1.4 0 0 .1.1.1.1zm-18 7c0 .1 0 .2 0 .3 0 .3 0 .5-.1.7-.2.4-1 .5-1.4.6-.5 0-.8 0-1-.1-.1-.1-.1-.5 0-.7a9 9 0 0 1 1-3c.1 0 .1 0 .2.1l1.8.5c-.3.5-.5 1-.5 1.7zm3.3-33a.7.7 0 0 0 0-.2L375 68c1-.2 1.8-.4 2.8-.5.3 0 .6-.3.6-.7a.6.6 0 0 0-.7-.6c-1 .1-2.2.3-3.3.6a.7.7 0 0 0-.3 0c-.1 0-.2.1-.3.2l-1.7.7c-.3.2-.4.5-.3.8.1.3.4.4.7.3a.3.3 0 0 0 .1 0l1.2-.5.6 2.5c0 0 0 .1 0 .1h-.2c-4.3.8-7.7 3-10.2 6.8-1.6 2.4-2.4 5.6-2.4 9.7 0 4 .8 7 2.4 9.5 1.6 2.2 3.7 3.5 5.6 4.3-.5 1-1 2.2-1 3.3-.1.5-.1 1 .3 1.6.6.8 1.6.7 2 .6.2 0 .6-.1 1-.2.6-.2 1.2-.5 1.5-1 .2-.4.2-.8.2-1.2 0-.1 0-.2 0-.3 0-.5.2-1 .5-1.4.1 0 .1 0 .2 0a.8.8 0 0 0 .2-.1c2.4.3 5 .2 7.3-.5 1.5-.4 3-1 4.3-1.8.6-.4 1.3-.8 1.8-1.3.1.2.2.3.4.4.5.2 1 .6 1.2 1l.1.3c.2.3.4.7.7 1 .6.4 1.2.4 1.8.3.3-.1.6-.2.8-.3.3-.2 1.3-.6 1.4-1.5.1-.6-.2-1-.5-1.5-.8-1-1.7-2-2.8-2.6 0 0 0 0 0 0 1.8-2.4 3-5.3 3.3-8.3.5-5.3-2-10.7-6-13.7a20 20 0 0 0-12.6-3z" class="O"/><path d="M378 87c-.2.3-.4.4-.7.5-.3 0-.6 0-.8-.2-.2-.1-.3-.3-.4-.5l1-1c.1-.1.2-.1.3 0 .2.1.5.3.6.6.1.2 0 .5-.1.8zm-.2-2.6h-.4c.1-.2.1-.3 0-.5-.6-1.5-1-3-1-4.7a.6.6 0 0 0-.7-.5c-.3 0-.6.3-.6.7.2 1.7.6 3.4 1.2 5 .1.1.2.3.3.3l-.2.2-1.4 1c-.1.1-.2.3-.2.4 0 .3.1.5.2.8h-.2c-1.8.2-3.6.6-5.3 1.3-.3.1-.5.5-.4.8s.5.5.8.3c1.6-.6 3.3-1 5-1.2h.1c.2-.1.4-.2.4-.5h.2c.5.4 1.2.6 1.8.5h.2c.5-.1 1-.5 1.3-1 .4-.6.5-1.2.3-2-.2-.7-.8-1.3-1.6-1.5zM358 75.6h0c.2-1.5 1-3 2.6-4.7 1.2-1.3 2.4-2 3.4-2.4.3-.1.5-.1.8-.1.8 0 1.8.4 2.3 1 .3.3.6.8.4 1.5-.1.6-.7 1.2-1 1.7l-4.7 5c-.8.8-2 .8-2.6.4-.7-.3-1.4-1-1.2-2.2zm.6 3.3c.8.4 1.6.5 2.4.3.6-.2 1-.5 1.6-1l4.7-5c.5-.6 1.2-1.3 1.4-2.2.2-1 0-1.8-.7-2.6-.8-1-2-1.5-3.4-1.5-1.7.1-3.3 1-5 3s-2.6 3.6-3 5.3v.1c-.2 1.5.5 2.8 2 3.5zm33-8c-.5.7-1.3 1-2 .7l-6-2c-.6-.2-1.3-.4-1.7-1-.5-.5-.4-1.2-.4-1.6.1-.8.7-1.6 1.4-2 .2-.1.4-.2.6-.2 1-.3 2.3-.1 4 .4 2 .7 3.4 1.6 4.4 2.8h0c.7 1 .5 2 .1 2.7zm1-3.5c-1-1.4-2.7-2.4-5-3.2s-4-1-5.6-.1c-1 .5-1.8 1.6-2 2.8-.2 1 .1 2 .7 2.7s1.5 1 2.3 1.3l6.2 2c.6.2 1.2.2 1.8 0 .7-.2 1.3-.6 1.8-1.3 1-1.2 1-3-.1-4h-.1zM38.5 405a15 15 0 0 1-5.2 5.6c-.3-4-1.3-8-3-12a35.7 35.7 0 0 0 2.2-2.3 11.1 11.1 0 0 0 7.8 1.9 15 15 0 0 1-1.7 6.6zm-16 8c-3.6-.6-7-2.7-9.2-5.5 5-1 10-3 14-6.2.4 1.3.4 3 0 5l-.2 1.3c-.4 1.8-.7 3.6-.5 5.4-.6.1-1 .1-1.7.1h-2.4zm-11-21.4c.6 1.7 2.2 3.2 4.4 4 1.3.5 2.6.7 4 1l2 .4c2.3.6 4 1.5 5 3l.3.5c-4.2 3.2-9 5.4-14.3 6.2-1.3-2-2.2-4-2.6-6.4-.4-3 .1-6 1.4-8.7zm16 21.3c-.2-1.7.2-3.4.5-5l.3-1.3c.3-1.6.6-4-.2-6l1.3-1c1.6 3.4 2.6 7.4 3 11.4 0 .1.1.3.2.3-1.5 1-3.2 1.5-5 1.8zm-10.2-28c0 .1.1.2.2.3 5 3.3 9 8 11.5 13.3l-1.3 1-.3-.4c-1-1.5-3-2.6-5.4-3.2l-2.2-.4c-1.3-.2-2.5-.5-3.7-1-2-.8-3.5-2.2-4-3.8a.5.5 0 0 0-.3-.3c1.3-2.3 3-4.3 5.4-5.6zm8.7-2c1 .7 1.2 1.8 1.4 2.6.1.6.1 1.2.2 2l.2 1.6c.4 2.7 1.8 5 3.8 7l-1.8 2a34 34 0 0 0-11.6-13.4l.1-.1c2.4-1.2 5-1.7 7.8-1.5zm10.5 5.2a30.2 30.2 0 0 1-4.3 7.1 10.1 10.1 0 0 1-3.5-6.3l-.1-1.6c0-.6-.1-1.3-.2-2s-.4-1.6-1-2.3c3.2.5 6.2 2 8.4 4.3l.6.7zm3.6 9.4H40c-2.5.3-5-.3-7-1.7 1.7-2 3-4.4 4.2-6.8 1.8 2.5 2.8 5.4 3 8.5zm-2.5-9.6a.5.5 0 0 0-.2-.3l-.7-.8c-4.8-5-12.7-6.2-18.8-3.2-6 3-9.7 10-8.8 16.8s6.6 12.4 13.3 13.5a15.5 15.5 0 0 0 4.6.1h.2.1c.1 0 .1-.1.2-.1 5-.8 9.5-4 12-8.4 3-5.6 2.2-12.8-1.7-17.6zm365-122.4a69.2 69.2 0 0 0 3.5-19.9 104 104 0 0 1 29.6 2.6 70 70 0 0 1-8.4 37.3c-.2 0-.3.1-.4.3-.1.1-.1.2 0 .4l-1.2 2a241 241 0 0 1-32.3-4.5c4-5.6 7-11.7 9.3-18.2zm-10.3 19a228 228 0 0 0 33.7 4.7h.1a.5.5 0 0 0 .3-.2l1.4-2.2c1.5.5 3 .8 4.7.7h.1c.1 0 .3-.1.4-.3 3.7-6.6 6.4-14 7.8-21.6a71 71 0 0 0 .5-23.1.5.5 0 0 0-.5-.4c-10.7-1.3-21-2-31.2-2.7a.6.6 0 0 0-.4.1c-.1.1-.2.2-.2.4v4.2h1v-3.6l30.2 2.6a72 72 0 0 1-8 43.3c-1.3 0-2.6-.2-3.8-.6 2.8-5 5-10.5 6.4-16.6a86 86 0 0 0 2-21.5.5.5 0 0 0-.4-.5c-9.6-2.7-22.7-3.3-30.8-2.7-.3 0-.5.2-.5.5a68 68 0 0 1-13.1 38.6c-.1.1-.1.3-.1.5s.2.3.3.4zm35.7-32a46 46 0 0 1 1.2-1.7l.3 2-1.5-.3zm1-3.3a56 56 0 0 0-3.8 5.4.5.5 0 0 0 .1.7c.3.2.6.1.7-.2l1.2-1.8c.1.1.1.1.2.1l2 .4.1 2c0 .3.3.5.6.5h.1c.3-.1.4-.3.4-.6-.1-2.2-.3-4.3-.7-6.4a.5.5 0 0 0-.4-.4c-.2-.1-.4 0-.5.2zm.7 9.7c1-.2 1.8-.6 2.5-1.2 1.8-1.6 2.3-4.6 1-6.7a.5.5 0 0 0-.7-.2c-.2.2-.3.5-.2.7 1 1.6.7 4-.7 5.3s-3.8 1.4-5.4.2c-1.6-1-2.3-3.4-1.6-5.2.6-1.8 2.5-3.2 4.5-3.3.3 0 .5-.3.5-.6a.5.5 0 0 0-.6-.5c-2.4.1-4.7 1.7-5.4 4-.8 2.3.1 5 2 6.4 1.2 1 2.8 1.2 4.2 1zm-19.8-9.2l5.6.3h.2a.5.5 0 0 0 .4-.5.5.5 0 0 0-.5-.6c-2-.2-3.8-.3-5.7-.2-.3 0-.5.3-.5.5 0 .3.3.5.5.5zm-.8 3c2.7-.3 5.4 0 8 .8a.5.5 0 0 0 .7-.3.5.5 0 0 0-.3-.7c-2.7-1-5.6-1.2-8.4-1-.3 0-.5.3-.5.6s.3.5.6.5zm-1.5 8.8l20.8 3.4h.2c.2 0 .4-.2.4-.5a.5.5 0 0 0-.5-.6l-20.7-3.4a.5.5 0 0 0-.6.4c-.1.3.1.6.4.6zm-1.8 5.4c7.8 1.3 15.7 2.3 23.6 2.8h.1c.2 0 .4-.2.4-.5s-.2-.6-.5-.6a225 225 0 0 1-23.5-2.8.5.5 0 0 0-.6.4c0 .3.2.6.4.6zm-1 5.6l21.8 2h.1c.2 0 .4-.2.4-.5a.5.5 0 0 0-.5-.6l-21.8-2a.5.5 0 0 0-.6.5c0 .3.2.6.5.6zm18.7 6.4l-20.6-2a.6.6 0 1 0-.1 1.1l20.6 2h.1a.5.5 0 0 0 .4-.5.5.5 0 0 0-.5-.6zM207.8 85.8l-25.6 11.5-15.3 7c-.3.1-.6.1-1-.1l-.3-.3a68 68 0 0 1-6.5-10.7l3.8-1.7c0 .1 0 .2.1.3.3.4.5.8.4 1.3 0 .2.2.4.4.5s.4-.2.5-.4c.1-.7-.2-1.4-.6-2h0l1.6-.7v.2l.6 1.6c.1.2.3.3.6.2.2-.1.3-.3.2-.5l-.6-1.6a.4.4 0 0 0-.1-.2l1.3-.6v.3l.6 1.3c.1.2.3.3.6.2s.3-.3.2-.6l-.6-1.3a.4.4 0 0 0-.2-.2h-.1l1.3-.6 1.5 3.3c.1.2.3.3.6.2s.3-.3.2-.6l-1.5-3.3 1.7-.8v.2l.5 1c.1.2.3.3.6.2.2-.1.3-.3.2-.6l-.5-1a.4.4 0 0 0-.1-.1l1.2-.5c0 .1 0 .2.1.3.2.3.4.7.4 1 0 .2.2.4.5.4s.4-.2.4-.5c-.1-.5-.3-1-.6-1.5a.3.3 0 0 0-.1-.1l1.3-.6c.3.4.5 1 .6 1.4a.4.4 0 1 0 .8-.2c-.1-.6-.3-1-.7-1.6l1-.5c0 .1 0 .2.1.3l.7 1.3a.4.4 0 0 0 .7-.4l-.7-1.3a.4.4 0 0 0-.1-.1l1.8-.8L181 87a.4.4 0 1 0 .7-.4c-.6-1-1-2-1.4-3l1.3-.6c-.1.1-.1.3 0 .4l.6 1c.1.2.4.3.6.2s.3-.4.2-.6l-.6-1a.4.4 0 0 0-.1-.2h-.1l1-.4c0 .1 0 .2.1.2l.6 1c.1.2.4.3.6.2s.3-.4.2-.6l-.6-1-.1-.1 1-.5v.2l.6 1.3c.1.2.3.3.6.2s.3-.3.2-.6l-.6-1.3a.4.4 0 0 0-.1-.2l1.5-.7c.1.5.3 1 .6 1.5.1.2.4.2.6.1s.2-.4.1-.6a3 3 0 0 1-.5-1.3.3.3 0 0 0-.1-.1l1.3-.6v.1l1 2.8c.1.2.3.3.5.3s.3-.3.3-.5l-1-2.8a.6.6 0 0 0-.1-.2l1.4-.6.4 1c.1.2.3.3.6.2.2-.1.3-.3.2-.5l-.4-1.2 1-.4c0 .1 0 .1.1.2l.7 1.2c.1.2.4.3.6.2s.3-.4.2-.6l-.7-1.2v-.1l1.4-.6.6 1.3c.1.2.3.3.6.2s.3-.3.2-.6l-.6-1.3 1.4-.6v.1l.6 1.5c.1.2.3.3.6.3a.4.4 0 0 0 .3-.5l-.6-1.5a.3.3 0 0 0-.1-.2l1.2-.5 1.2 3c.1.2.3.3.6.2.2-.1.3-.3.2-.5l-1.3-3.2 2-1a54 54 0 0 1 6.3 11c.3.5.1 1-.4 1.3zm1.2-1.6a54 54 0 0 0-6.6-11.4.3.3 0 0 0-.1-.1.4.4 0 0 0-.4 0l-43.5 19.8c-.1 0-.2.1-.2.2v.3a79 79 0 0 0 6.8 11.2c.5.7 1.4 1 2.2.6l15.3-6.8L208 86.6c1-.4 1.3-1.5 1-2.3zM174.6 97a.4.4 0 0 0-.5-.3 42 42 0 0 0-7.4 3.5c-.2.1-.3.4-.1.6s.4.3.6.1a40 40 0 0 1 7.3-3.4c.2-.1.3-.3.3-.5zm29.8-13.2a.4.4 0 0 0-.6-.2l-28 12.2a.4.4 0 0 0-.2.6c.1.2.3.3.6.2l28-12.2c.2-.1.3-.3.2-.6zm107 19c.5-.2.8-.6 1-1l2.4-2.6.1-.1c1.7.6 3.5 1.2 5 2.3 1.6 1 2.6 2.6 2.8 4.2.2 1.2-.1 2.4-.4 3.6l-.5 2.6a9 9 0 0 0 2.3 6.7c-2.7-.1-5.3-1-7.4-2.2-2.7-1.8-4.5-4.6-5-7.5-.1-.7-.1-1.4-.1-2 0-1.3 0-2.7-.5-4zm-2-1.8l-.4-.6-.6-.8c1-1.4 2.2-2.4 3.5-3 .8.4 1.4 1 2 1.6.1.2.2.2.2.3s-.1.2-.2.3l-2.4 2.6c-.3.3-.5.5-.8.6-.4.1-1-.3-1.3-.7zm-4.2-5.7A167 167 0 0 1 288.8 73c-.5-.8-.6-1.4-.4-1.8.2-.3.8-.4 1.2-.2.5.2 1 .7 1.4 1.2a1511 1511 0 0 1 20.2 23.2 11 11 0 0 0-3.3 2.8l-2.5-3zm5.4 13.8c.4 3.3 2.4 6.5 5.4 8.5 2.7 1.8 6 2.6 9.8 2.4.3 0 .5-.2.6-.4a.6.6 0 0 0-.2-.7c-2-1.5-3.3-4-3-6.7l.5-2.4c.3-1.3.7-2.7.5-4-.2-2-1.5-3.7-3.4-5-1.6-1.2-3.5-1.8-5.3-2.4-.1-.4-.4-.7-.5-1-.6-.7-1.4-1.3-2.2-1.7a.6.6 0 0 0-.1-.2l-20.8-24c-.5-.5-1-1.2-2-1.5s-2-.2-2.7.7c-.7 1-.1 2.3.4 3a167 167 0 0 0 16.7 22.4l2.7 3.3c-.1.2 0 .5.2.7.3.3.6.6.8 1l.5.7c.4.5 1 1 1.5 1 .6 1.2.6 2.5.6 4 0 .7 0 1.5.1 2.2zM259 56.6c-2.4-.8-4.5-2.3-6.4-4-2.2-1.7-4.4-3.6-5.3-6.2-.7-2-.5-4.8.7-7.5a16 16 0 0 1 9.4-9c4-1.3 8.5-.6 11.7 1.8.3.2.5.4.8.6 4.8 4.3 6.5 11 4.3 16.6-2.4 6-9.3 9.3-15 7.5zm.6 3c-.2.5-.6.8-1 .8-.1 0-.3 0-.5-.1-.1 0-.1-.1-.1-.1h-.1c-.1 0-.2-.1-.3-.1l-2-1c-.3-.1-.6-.3-.8-.5-.3-.3-.2-1-.1-1.2.2-.4.4-.7.8-1 1 .6 2 1 3 1.4.4.1 1 .3 1.3.3l-.4 1.4zm-10 18c-.5.7-1 1.2-1.3 1.3-.4.2-1 .2-1.2-.1-.3-.3-.2-1 .2-2a433 433 0 0 0 3.8-8.7l3.5-8c.2.1.3.1.4.2l2 1a109 109 0 0 1-7.4 16.4h0zm25.6-28a15 15 0 0 0 .5-9.7c-1-3.2-2.7-6-5-8.3-3.5-3.2-9-4.2-13.6-2.7a17 17 0 0 0-10.2 9.6c-1 2-1.7 5.3-.7 8.4 1 3 3.5 5 5.7 6.8l1.4 1 1.3 1c-.3.4-.6.8-.8 1.3-.3.8-.3 1.6.1 2.3l-3.7 8.4-3.8 8.7c-.3.6-1 2-.1 3.2l.3.3c.7.5 1.7.5 2.4.1a6 6 0 0 0 1.7-1.7h0a117 117 0 0 0 7.6-16.7h.5c.8-.1 1.5-.6 2-1.5.3-.6.4-1.2.5-1.8 5.7.5 11.7-3 14-8.7zm-16 4.4a16 16 0 0 1-5-3c-1.7-1.4-3.4-3-4-5-.6-1.7-.3-4 .6-6 1.5-3.5 4.3-6.2 7.5-7.3a10 10 0 0 1 9.1 1.3c.2.2.4.4.6.5 3.7 3.4 5 9 3.2 13.4-2 4.8-7.4 7.6-12 6.2zm9.6-20.5c-2.8-2.6-7-3.4-11-2-3.6 1.2-6.7 4.2-8.3 8-.7 1.8-1.5 4.4-.6 7 .8 2.4 2.7 4 4.5 5.5l1.3 1c1.3 1 2.6 1.8 4.2 2.3 5 1.6 11.2-1.6 13.4-7 2-5 .6-11-3.5-14.7z" class="O"/><path d="M260.2 34.4c-2-.1-4 1-5.6 2.6-1.5 1.8-2.2 4-2.6 5.5-.1.3 0 .5.2.6.1 0 .1.1.2.1.3.1.7-.1.8-.4.6-2.2 1.4-3.8 2.4-5 1.3-1.5 3-2.3 4.6-2.2.3 0 .6-.2.6-.6 0-.3-.2-.6-.6-.6zm-57.4 16c-1.7-.1-3-.2-4-.8a4.9 4.9 0 0 1-2.3-2.7l.3-.6 9.2-16.6c1.2 1.5 3.2 2.7 5 2.7l-4 8.8-4.2 9.4zm5.8-23c.8.1 1.7.6 2.2 1.4.4.6.7 1.4.8 2.2-1.6.4-4-1-5-2.7.4-.6 1.2-1 2-1zm3.7 4.6h0c.3-.1.4-.3.4-.6 0-1.3-.4-2.4-1-3.3-.7-1-1.8-1.8-3-2-1.3-.1-2.7.6-3.2 1.7 0 .1-.1.1-.1.2L196 45.8l-.5 1c-.1.1-.1.3 0 .4a6.1 6.1 0 0 0 2.9 3.6c1.3.7 3 1 4.8 1 .1 0 .1 0 .2 0a.6.6 0 0 0 .4-.3 221 221 0 0 1 4.3-9.7c1.4-3 3-6.2 4.2-9.4zm83.4 201c-.3.2-.7.3-1 .2-8.6-1.7-17.2-3.2-26.8-5-.8-.1-1.3-.8-1.2-1.6l.7-5.5a151 151 0 0 1 2-13.2c.2-.7 1-1.2 1.6-1l8.4 1.5 18.5 2.8a1.4 1.4 0 0 1 1 .5c.2.3.3.7.3 1l-2.8 19.2c-.1.4-.3.7-.6 1zm-11-.5a42 42 0 0 1-9.4-1.6l.1-.5 9.4 1.7-.1.4zm-2 .7a118 118 0 0 0-.5 12.7l-1-.1a109 109 0 0 1 .4-12.8l1 .1c0 0 0 0 0 0zm-8.5 11.6h-1l3.7-12.5.6.1-3.4 12.5zm25.6-31.8c.1-.6-.1-1.2-.4-1.7-.4-.5-1-.8-1.5-.8l-18.4-2.8-8.4-1.5c-1.2-.2-2.3.6-2.5 1.7-1 4.7-1.5 9-2 13.3l-.7 5.5c-.1 1 .5 2 1.5 2.4.1 0 .2.1.3.1l7 1.2-.2.8c-.1.2.1.4.3.5h0l1.5.4-3.8 13c0 .1 0 .2.1.3a.4.4 0 0 0 .3.2l1.8.2c.2 0 .4-.1.4-.4h0l3.4-12.7 2.6.5c0 0 0 0 0 0-.4 4.3-.5 8.7-.4 13 0 0 0 .1 0 .1h0c0 .2.1.4.3.4 0 0 .1 0 .1 0l1.4.2c.2 0 .4-.1.4-.3v-.1c.1-.1.3-.2.3-.4-.1-4.2.1-8.4.5-12.7h0l1.5.1a.4.4 0 0 0 .4-.3l.2-.8 9 1.7c.6.1 1.2 0 1.7-.4s.8-1 1-1.5l2.8-19.2z" class="O"/><path d="M294.4 231.6c-.3.2-.6.3-1 .2-7.8-1.6-15.5-3-24-4.4-.7-.1-1-.7-1-1.3l.6-4.8c.4-3.7 1-7.5 1.8-11.6.1-.6.8-1 1.4-1l7.5 1.3 16.6 2.6a1.3 1.3 0 0 1 .9.5c.2.3.3.6.2 1l-2.4 16.8c-.1.3-.2.6-.5.8zM298 214a1.9 1.9 0 0 0-.4-1.5 2.1 2.1 0 0 0-1.4-.8l-16.5-2.5-7.5-1.3a2 2 0 0 0-2.3 1.5c-1 4-1.3 8-1.8 11.7l-.6 4.8c-.1 1 .4 1.8 1.4 2.2h.3l24 4.4c.6.1 1 0 1.6-.3.4-.3.7-.8.8-1.3L298 214zm126.5 143.2c1.6 1 3.3 2 5 2.6.3.1.6.2.8.3-.1.2-.2.3-.5.4-.4.1-.8.1-1.2-.1-1.2-.3-2.4-.8-3.5-1.4-.5-.3-1-.7-1.3-1.2-.1-.3-.2-.7 0-1 .2.1.4.3.6.4zm-1-2.4c-.2-.6-.1-1.2.2-2a50.8 50.8 0 0 0 10 4.9c.1 0 .2 0 .3 0-.2.5-.4 1-.8 1.3-.7.6-1.8.5-3.3-.1a27 27 0 0 1-4.9-2.6c-.7-.4-1.3-1-1.5-1.6zm7.3-16.7c.7-.1 2 .1 3.4.6l-.6 1.5-3.4-1.4c.3-.5.5-.6.6-.6 0 0 0 0 0 0zm2-3.3c.1-.3.2-.6.3-.8.3-.8 1-2 2.2-2.4.6-.1 1.3.1 2 .4l3.7 1.3c.6.2 1.2.4 1.7 1 1 1 .7 2.4.3 3.4-.3.6-.6 1.2-1 1.8l-1 1.6c-.5-.4-1.4-1-2-1.3a24 24 0 0 0 1.3-4.5c0-.2-.1-.5-.3-.5-1-.4-2-.7-3.3-1-.2 0-.4.1-.5.3l-1.4 3.8c-1-.4-2-.6-2.8-.6.5-.7.8-1.5 1-2.3zm7.5 8.5a13 13 0 0 0-2.4-1.2v-.2l.1-.2.4-1c0 0 0 0 0-.1 1.2.6 1.8 1 2 1.2.2.4.1 1 0 1.6zm-2.6-3.6c-.3 1-.7 1.8-1 2.6h0c-.2.6-.5 1.2-1 1.7-.4.3-1 .6-1.4.3-.3-.2-.5-.6-.5-1 0-.5.2-1 .4-1.6l.2-.6c0 0 0-.1.1-.1s0-.1 0-.1l2.3-6.2c.8.1 1.6.4 2.3.6a26 26 0 0 1-1.3 4.3zm-.1 10l-3.3 7.6a.5.5 0 0 0-.3-.3 50 50 0 0 1-10-4.9c3-7.4 4.7-10.8 5.7-12.4l3.6 1.5-.1.2c-.2.5-.4 1-.4 1.6 0 .1 0 .2 0 .3 0 .8.4 1.6 1 2v.1c0 0 0 0 0 0l.1.1h0c.1 0 .1 0 .1 0 0 0 0 0 0 0h.1 0c.1 0 .1 0 .2 0h.2c.1 0 .1 0 .1 0 0 0 0 0 0 0 .1 0 .1 0 .1 0h0c.1 0 .1 0 .1 0 0 0 0 0 0 0 0 0 .1 0 .1 0 0 0 0 0 0 0 0 0 .1 0 .1-.1 0 0 0 0 0 0l.2-.1c0 0 0 0 0 0h.1.1.1c0 0 0 0 .1 0l.1-.1c.6-.5 1-1.2 1-1.8 1 .3 1.7.8 2.4 1.3l-2.3 5.4zm-14.5 8.7c.4.8 1 1.3 1.6 1.6a12.3 12.3 0 0 0 3.8 1.6c.5.1 1 .2 1.8 0 .1 0 .1 0 .1-.1.4-.2.8-.6 1-1 .7.1 1.4.1 2-.2.2-.1.4-.2.6-.4.6-.5 1-1.2 1.2-1.8l3.5-8 2.4-5.6c.4-.8.6-1.7.5-2.5 0 0 0 0 0 0 .1-.1.2-.1.3-.2a14 14 0 0 1 1-1.7c.4-.6.8-1.3 1-2 .6-1.3.8-3.2-.5-4.5-.6-.6-1.4-1-2-1l-3.7-1.3c-.7-.2-1.6-.6-2.4-.4-1.2.2-2.3 1.3-3 3l-.3 1c-.3 1-.6 1.8-1.2 2.4a.4.4 0 0 0-.1.3c-.6.2-2.2 1.3-7.6 14.8-.4 1-.8 2-.4 3.2a3 3 0 0 0 .6 1c-.4.6-.4 1.5-.1 2zm-157-94l7.8.7-2.7 5.4-4.2-2-4.7-2.4a.4.4 0 0 0-.4.1c-.1.1-.1.3.1.4l7 7.4c-.4 1-1.2 2.6-2 4-.3.6-.6 1-.8 1.6l-7.6-15.8 7.4.6zm6.8 8.3l.7.6c-.6.1-1 0-1.7 0-.8 0-1.6-.1-2.4.1h0a86.3 86.3 0 0 0-5.5-5.8l2.6 1.4 4.5 2.3c.1 0 .1 0 .1 0 0 0 0 0 .1.1l1.6 1.4zm-15-9.5c-.1.1-.1.2 0 .3a304.7 304.7 0 0 0 8.2 17 .4.4 0 0 0 .6 0l1-2.2 2-4.2c.7-.1 1.4-.1 2 0 .8 0 1.6.1 2.4-.1 0 0 .1 0 .1 0 .1 0 .2 0 .3-.1s.1-.2.1-.3a.3.3 0 0 0-.1-.2l-1.3-1-1.6-1.3a40 40 0 0 0 2.9-5.9c0-.1 0-.1 0-.2 0 0 0-.1-.1-.1a.3.3 0 0 0-.3-.2l-8.3-.7-8-.7c-.1 0-.2.1-.3.1zm20 16.2c.7-.1 1.4.1 2 .3.1.4.1 1-.2 1.7-.4.8-1.3 1.3-2.3 1.4-.5 0-1 0-1.3-.2-.4-.2-.7-.5-.8-1v-.1c-.1-.5.1-1 .6-1.5.6-.5 1.3-.6 2-.7zm-2.3.1c-.7.6-1 1.6-.8 2.4.2.5.6 1 1 1.3.5.2 1 .3 1.6.3 1.2-.1 2.3-.8 2.8-1.8.3-.6.4-1.2.3-1.7.2.1.5.3.7.5 1 .8 1.5 2 1.3 3.3-.2 1.2-1 2.3-2.2 2.6a.4.4 0 0 0-.2.4c.1.2.2.3.4.2 1.4-.4 2.5-1.7 2.7-3.2.1-.4 0-1-.1-1.3-.2-1-.7-2-1.5-2.6-.4-.3-.8-.6-1.2-.8-.1-.5-.3-1-.6-1.6-.5-1-1-1.8-2-2.4a5 5 0 0 0-2.9-1.2.3.3 0 0 0-.4.3c0 .2.1.4.3.4.8.1 1.7.4 2.4 1 .6.6 1.2 1.3 1.7 2.2l.5 1c-.6-.2-1.3-.2-2-.2-1 .1-1.7.4-2.3 1z" class="O"/></g></g></svg>