<svg xmlns="http://www.w3.org/2000/svg" width="460" height="460" fill="none"><g clip-path="url(#a)"><path fill="#fff" d="M0 0h460v460H0z"/><g fill="#20380E" opacity=".15"><path d="M4.003 414.679a.575.575 0 0 1 .625-.521l2.831.256a.576.576 0 0 1-.052 1.15c-.017 0-.035 0-.052-.003l-2.83-.256a.575.575 0 0 1-.522-.626ZM33.045 433.228c-.79 1.353-2.258 2.009-3.692 2.565-1.15.446-2.195.827-3.34.962a6.648 6.648 0 0 1-.778.046c-1.07 0-2.05-.271-2.817-.787-1.092-.737-1.846-2.006-2.123-3.577-.238-1.35-.104-2.725.012-3.94a.578.578 0 0 1 .154-.336c-.595-3.094-2.81-5.498-5.154-8.04-2.466-2.674-5.015-5.439-5.478-9.085-.543-4.27 2.353-8.86 6.736-10.676 3.809-1.577 8.503-1.26 12.878.871 1.818.886 6.098 3.424 6.55 7.864.252 2.491-.994 5.284-2.2 7.984-1.423 3.187-2.895 6.483-1.878 9.166.028.076.04.155.037.231.557.924 1.11 1.884 1.419 2.973.395 1.396.28 2.738-.328 3.777l.002.002Zm-7.167 2.382c1.01-.12 1.981-.474 3.057-.892 1.245-.482 2.51-1.04 3.114-2.073.441-.755.519-1.804.214-2.881a6.25 6.25 0 0 0-.23-.662c-1.971 1.787-4.66 2.792-7.328 2.792-.702 0-1.402-.07-2.088-.212a.575.575 0 1 1 .236-1.128c3.05.637 6.431-.36 8.656-2.542-.127-.231-.258-.46-.393-.685-2.884 1.665-6.291 2.327-9.717 1.887-.087.982-.142 2.038.03 3.026.09.501.24.968.44 1.381a22.297 22.297 0 0 0 8.654-2.025.577.577 0 1 1 .482 1.048 23.516 23.516 0 0 1-8.338 2.095c.125.12.256.227.394.321.72.485 1.72.682 2.816.553v-.003Zm6.864-18.998c1.197-2.681 2.328-5.213 2.105-7.397-.393-3.863-4.262-6.143-5.906-6.945-4.078-1.987-8.428-2.293-11.931-.842-3.92 1.624-6.514 5.693-6.035 9.464.418 3.281 2.731 5.792 5.182 8.448 2.376 2.577 4.831 5.239 5.46 8.708.001.01 0 .02.003.03 3.214.398 6.403-.251 9.08-1.845-.9-3.02.595-6.372 2.045-9.62l-.003-.001ZM40.428 420.58a.581.581 0 0 1-.3-.085 13.078 13.078 0 0 0-2.594-1.224.578.578 0 0 1 .374-1.091 14.28 14.28 0 0 1 2.822 1.332.577.577 0 0 1-.302 1.067v.001ZM38.87 408.291a.577.577 0 0 1-.184-1.123l2.552-.866a.576.576 0 1 1 .37 1.093l-2.552.866a.574.574 0 0 1-.186.031v-.001ZM32.763 399.041a.576.576 0 0 1-.42-.972 6.094 6.094 0 0 0 1.166-1.79.577.577 0 0 1 1.062.452 7.244 7.244 0 0 1-1.386 2.127.577.577 0 0 1-.42.183h-.002ZM22.212 397.081a.576.576 0 0 1-.575-.556l-.093-2.552a.577.577 0 1 1 1.153-.042l.093 2.552a.578.578 0 0 1-.556.598h-.022ZM12.654 399.924l-2.186-2.006a.577.577 0 0 1 .779-.85l2.187 2.007a.576.576 0 1 1-.78.849ZM11.596 421.624a.577.577 0 0 1 .704.913 6.124 6.124 0 0 0-1.746 2.139.576.576 0 1 1-1.034-.509 7.302 7.302 0 0 1 2.077-2.544l-.001.001Z"/><path d="M27.108 404.899a.578.578 0 0 1 .146-1.145c2.427.309 4.095 2.502 4.67 4.537.605 2.136.346 4.404.118 6.407a.577.577 0 0 1-.572.512c-.021 0-.043 0-.066-.005a.576.576 0 0 1-.508-.638c.217-1.896.462-4.045-.081-5.963-.473-1.671-1.803-3.464-3.707-3.707v.002ZM28.268 413.872c.443.516.594 1.269.377 1.874-.273.759-.97 1.354-1.98 1.694a13.653 13.653 0 0 0 2.443 6.188.575.575 0 1 1-.935.674 14.82 14.82 0 0 1-2.636-6.602 6.97 6.97 0 0 1-1.338.061c.933 2.895.946 6.086-.026 8.979a.577.577 0 0 1-1.094-.367c.955-2.839.876-5.992-.163-8.792a6.976 6.976 0 0 1-2.169-.91c-.334-.215-.752-.522-1.002-.997-.304-.577-.254-1.263.125-1.71.443-.521 1.28-.632 1.948-.258.502.282.82.74 1.092 1.196.318.536.6 1.091.843 1.663.554.075 1.12.072 1.672-.012a13.523 13.523 0 0 1-.024-.719c-.011-1.382.533-2.315 1.456-2.493.52-.102 1.036.093 1.413.531h-.002Zm-6.35 1.619c-.217-.366-.413-.638-.663-.779a.615.615 0 0 0-.288-.075c-.095 0-.176.024-.217.074-.07.082-.063.272.016.423.125.236.39.426.606.565.294.189.606.349.93.481a12.82 12.82 0 0 0-.382-.689h-.001Zm4.646.754c.402-.172.84-.453.997-.89.077-.217.006-.532-.167-.733-.064-.073-.16-.155-.272-.155-.015 0-.03 0-.045.004-.365.072-.527.751-.523 1.353 0 .141.004.28.01.421ZM184.662 50.152c-.927.49-2.112.402-2.918-.224-.682-.529-1.606-1.848-.749-3.43.54-.997 2.164-1.68 3.216-1.353 1.021.316 1.788 1.23 1.907 2.274.119 1.043-.442 2.144-1.36 2.68a2.395 2.395 0 0 1-.094.054l-.002-.001Zm.305-2.602c-.068-.586-.519-1.121-1.099-1.3-.308-.096-.801.023-1.21.239-.287.151-.534.352-.646.56-.601 1.11.332 1.88.441 1.965.464.36 1.186.395 1.72.086.527-.307.861-.958.794-1.55Z"/><path d="m203.242 68.826-.099.053a8027.68 8027.68 0 0 1-15.728 7.846 4.737 4.737 0 0 1-3.714.228 4.753 4.753 0 0 1-2.758-2.514 119.354 119.354 0 0 1-1.261-2.822.582.582 0 0 1-.393-.007 19.892 19.892 0 0 1-9.074-7.129 19.89 19.89 0 0 1-3.52-10.99.579.579 0 0 1 .198-.44c-.6-.492-.996-1.239-.985-2.036.017-1.384 1.247-2.586 2.632-2.57.661.006 1.322.301 1.814.807.494.506.77 1.177.761 1.838-.015.96-.613 1.83-1.44 2.266a2.505 2.505 0 0 1-1.201.296 2.401 2.401 0 0 1-.619-.094 18.734 18.734 0 0 0 3.311 10.265 18.744 18.744 0 0 0 7.968 6.476 4.777 4.777 0 0 1 1.892-5.606 102.917 102.917 0 0 1 6.227-3.725l-1.222-2.147c-3.438.828-7.223.09-10-2.12-2.984-2.373-7.068-8.235-3.455-15.146 2.21-4.229 9.485-7.287 13.898-5.845 4.443 1.453 7.814 5.518 8.388 10.115.504 4.033-1.253 8.244-4.363 10.79l1.086 2.087c1.779-.877 3.59-1.713 5.432-2.5a4.788 4.788 0 0 1 5.945 1.912 43.76 43.76 0 0 1 2.39 4.499 4.762 4.762 0 0 1-2.109 6.216l-.001-.002ZM168.49 52.492c.742.01 1.455-.68 1.467-1.422.005-.356-.151-.725-.433-1.013-.279-.286-.643-.453-.999-.456a1.338 1.338 0 0 0-.634.16c-.468.248-.821.745-.828 1.27-.01.742.684 1.453 1.427 1.465v-.004Zm25.224-6.526c-.511-4.096-3.635-7.863-7.598-9.159-1.824-.596-4.442-.303-7.003.787-.397.168-.783.353-1.154.55-2.008 1.06-3.595 2.484-4.358 3.944-3.261 6.243.445 11.552 3.149 13.705 3.221 2.564 8.162 2.9 11.752.806 3.587-2.097 5.731-6.47 5.211-10.632l.001-.001Zm-4.16 11.338a11.364 11.364 0 0 1-.878.52c-.487.257-.99.476-1.507.658l1.098 1.929c.754-.405 1.515-.804 2.282-1.193l-.996-1.914h.001Zm12.419 1.407a3.627 3.627 0 0 0-4.502-1.448c-5.583 2.387-10.904 5.212-15.816 8.396a3.62 3.62 0 0 0-1.363 4.429 109.4 109.4 0 0 0 1.702 3.864 3.606 3.606 0 0 0 2.091 1.907c.932.33 1.931.267 2.816-.171a8434.184 8434.184 0 0 0 15.725-7.846l.075-.04a3.61 3.61 0 0 0 1.599-4.711 42.417 42.417 0 0 0-2.327-4.38Z"/><path d="M199.57 61.676a1.503 1.503 0 0 1-.124.06 1.78 1.78 0 0 1-1.362-.014 1.81 1.81 0 0 1-.989-.971c-.217-.535-.155-1.172.16-1.625.184-.265.438-.436.718-.489a1.68 1.68 0 0 1 1.223-.158 1.7 1.7 0 0 1 1.128.853c.213.409.239.91.071 1.376-.153.425-.45.772-.824.97l-.001-.002Zm-.641-2.071a.548.548 0 0 0-.38.035.204.204 0 0 0-.043.027.583.583 0 0 1-.297.109c-.063.08-.131.32-.042.54a.655.655 0 0 0 .36.337.62.62 0 0 0 .47.016.6.6 0 0 0 .311-.355.575.575 0 0 0-.009-.45.556.556 0 0 0-.369-.26h-.001ZM202.195 66.644a1.49 1.49 0 0 1-.125.06c-.419.176-.915.17-1.362-.015a1.807 1.807 0 0 1-.988-.971c-.217-.535-.155-1.172.159-1.625.183-.266.438-.436.718-.488.355-.202.793-.26 1.223-.158.498.117.908.428 1.129.852.213.41.238.91.071 1.376a1.764 1.764 0 0 1-.825.97v-.001Zm-.642-2.072a.549.549 0 0 0-.424.061.577.577 0 0 1-.296.11c-.063.079-.131.319-.042.538a.653.653 0 0 0 .36.338.62.62 0 0 0 .47.016.615.615 0 0 0 .311-.355.575.575 0 0 0-.009-.45.557.557 0 0 0-.369-.26l-.001.002ZM184.357 69.714a1.523 1.523 0 0 1-.125.06 1.78 1.78 0 0 1-1.362-.014 1.807 1.807 0 0 1-.988-.971c-.217-.535-.155-1.172.159-1.626.184-.264.438-.435.718-.487a1.68 1.68 0 0 1 1.223-.159c.496.118.908.429 1.129.853.213.409.238.91.071 1.376a1.766 1.766 0 0 1-.824.97l-.001-.002Zm-.642-2.071a.55.55 0 0 0-.38.035.207.207 0 0 0-.043.027.577.577 0 0 1-.296.11c-.064.079-.131.319-.043.538a.658.658 0 0 0 .361.338.611.611 0 0 0 .469.016.605.605 0 0 0 .312-.355.575.575 0 0 0-.01-.45.554.554 0 0 0-.368-.26h-.002ZM186.982 74.681a1.657 1.657 0 0 1-.125.06c-.419.176-.915.17-1.362-.015a1.809 1.809 0 0 1-.989-.97c-.216-.534-.155-1.172.16-1.626.183-.266.438-.435.718-.488.358-.203.793-.26 1.223-.158.497.117.907.429 1.128.853.213.409.239.91.072 1.375-.154.425-.45.77-.825.97Zm-.642-2.071a.548.548 0 0 0-.424.06.577.577 0 0 1-.296.11c-.064.08-.131.32-.043.539a.658.658 0 0 0 .361.337.611.611 0 0 0 .469.017.614.614 0 0 0 .312-.356.575.575 0 0 0-.01-.45.552.552 0 0 0-.368-.26l-.001.003ZM182.697 37.345c2.978-.479 6.188 1.093 7.637 3.739a.578.578 0 0 1-.23.784l-.007.004a.579.579 0 0 1-.778-.233c-1.221-2.23-3.928-3.556-6.438-3.152a.58.58 0 0 1-.184-1.142ZM196.714 46.33a.578.578 0 0 1-.839-.408 14.147 14.147 0 0 0-3.308-6.829.579.579 0 0 1 .867-.766 15.295 15.295 0 0 1 3.579 7.388.579.579 0 0 1-.299.614v.001Z"/><path d="M191.997 36.488a.58.58 0 0 1 .591-.995c4.078 2.425 6.712 7.057 6.709 11.801a.577.577 0 0 1-.579.577.579.579 0 0 1-.578-.578c.002-4.345-2.409-8.587-6.143-10.807v.002ZM168.797 47.18a.578.578 0 0 1-.703-.416c-.475-1.857-.025-3.94 1.172-5.436a.578.578 0 1 1 .902.723 5.166 5.166 0 0 0-.956 4.426.577.577 0 0 1-.416.704h.001ZM166.78 45.212a.579.579 0 0 1-.843-.437 7.002 7.002 0 0 1 2.214-6.034.579.579 0 0 1 .777.858 5.825 5.825 0 0 0-1.843 5.023.579.579 0 0 1-.304.588l-.001.002ZM172.494 55.941a.579.579 0 0 1 .793.195 6.919 6.919 0 0 0 3.891 3.006.578.578 0 0 1 .104 1.067.57.57 0 0 1-.435.043 8.087 8.087 0 0 1-4.548-3.514.577.577 0 0 1 .195-.794v-.003ZM176.467 61.483a.581.581 0 0 1-.723.383 9.893 9.893 0 0 1-5.867-4.918.578.578 0 0 1 .244-.775l.007-.003a.579.579 0 0 1 .778.25c1.047 2.045 2.982 3.667 5.177 4.34a.577.577 0 0 1 .382.724l.002-.001ZM111.513 390.662a1.68 1.68 0 0 1-.092.329l.864.397a.592.592 0 0 1-.493 1.076l-.833-.382-.002.006c-.051.111-.1.222-.148.331a1.823 1.823 0 0 1-1.76 1.089c-2.702-.117-5.626-1.326-10.052-3.154-1.283-.529-2.738-1.131-4.349-1.771l-.001-.003-.003-.001c-9.791-4.004-18.806-8.72-28.349-13.714a1.56 1.56 0 0 1-.34-.185c-.193.426-.085 1.023.178 1.43.397.614 1.067 1.024 1.838 1.46 4.753 2.685 9.85 4.92 14.777 7.081a.593.593 0 0 1 .304.779.59.59 0 0 1-.779.303c-4.955-2.173-10.078-4.419-14.883-7.133-.877-.495-1.708-1.009-2.251-1.849-.57-.882-.707-2.258.123-3.126a3.034 3.034 0 0 1-.083-.388 3.893 3.893 0 0 1-.037-.598c-.323-.21-.7-.368-1.095-.533-.269-.112-.547-.227-.82-.366-1.113-.563-1.765-1.42-1.79-2.351-.026-.903.554-1.648.937-2.141.413-.531.978-1.26 1.852-1.503.697-.193 1.48-.051 2.331.423.231.128.448.269.66.404.234.15.46.293.687.413l.005-.005c1.098-.809 2.29-.945 3.45-.392 9.302 4.427 18.31 9.196 26.778 14.178a.613.613 0 0 1 .097.034c4.472 2.08 8.587 5.125 12.566 8.07.564.417.831 1.118.712 1.793l.001-.001Zm-14.11-8.957c-8.132-4.778-16.763-9.359-25.673-13.629-1.207 1.179-2.04 2.723-2.843 4.22-.374.698-.755 1.494-.51 2.104.03.079.043.16.04.239 8.822 4.614 17.25 8.968 26.314 12.696 1.803-1.776 2.368-2.776 2.67-5.631l.002.001Zm-30.666-7.937c.024.009.05.019.073.033l.307.16c.007-.883.455-1.717.728-2.224.743-1.383 1.574-2.929 2.745-4.188-.666-.226-1.33-.098-1.98.381-1.505 1.108-2.466 3.715-2.26 5.135.039.271.138.611.388.702l-.001.001Zm-.16-6.203a10.618 10.618 0 0 0-.598-.366c-.391-.218-.958-.45-1.437-.316-.46.127-.831.569-1.235 1.089-.37.477-.701.94-.688 1.384.019.705.878 1.195 1.142 1.328.233.118.48.22.74.329.263.11.531.221.794.353.264-1.216.865-2.537 1.71-3.532-.145-.087-.289-.178-.427-.268l-.001-.001Zm31.953 14.688c-.04.326-.084.633-.135.922-.343 1.948-.979 3.095-2.476 4.641 1.288.519 2.466 1.006 3.528 1.444 4.309 1.78 7.157 2.957 9.651 3.065a.65.65 0 0 0 .627-.385l.15-.337c.153-.342.311-.695.439-1.026a.655.655 0 0 0-.218-.757c-3.693-2.732-7.504-5.551-11.568-7.566l.001-.001ZM16.667 281.626c4.746-2.366 9.19-4.25 15.455-5.752a.533.533 0 0 1 .603.286l26.045 53.985a.53.53 0 0 1-.254.713c-5.164 2.407-10.304 3.925-15.552 5.395a2.235 2.235 0 0 1-2.614-1.175 3647.114 3647.114 0 0 0-9.301-18.901c-5.105-10.324-10.385-21.001-15.407-31.586a2.252 2.252 0 0 1 1.027-2.965h-.002Zm-.067 2.508c5.02 10.579 10.297 21.25 15.4 31.571 3.06 6.185 6.221 12.581 9.304 18.906a1.175 1.175 0 0 0 1.373.617c5.037-1.411 9.971-2.865 14.9-5.109l-2.291-4.752a.525.525 0 0 1-.297.167 2.304 2.304 0 0 0-1.454.94.533.533 0 0 1-.877-.602 3.348 3.348 0 0 1 2.139-1.385c.02-.004.04-.004.06-.006l-.951-1.974a.534.534 0 0 1-.16.135l-1.882 1.03a.532.532 0 0 1-.51-.932l1.881-1.03a.542.542 0 0 1 .254-.064l-.81-1.681a.532.532 0 0 1-.27.299l-1.658.791a.53.53 0 1 1-.457-.959l1.658-.791a.526.526 0 0 1 .398-.024l-.755-1.564-4.124 1.999a.532.532 0 0 1-.464-.956l4.126-2-1.01-2.093a.538.538 0 0 1-.15.112l-1.328.658a.53.53 0 1 1-.472-.951l1.327-.658a.513.513 0 0 1 .19-.052l-.7-1.452a.525.525 0 0 1-.332.27 2.974 2.974 0 0 0-1.273.714.53.53 0 1 1-.732-.77 4.037 4.037 0 0 1 1.73-.972.506.506 0 0 1 .203-.014l.036.008-.788-1.634c-.007.002-.012.005-.02.005a3.726 3.726 0 0 0-1.677.808.531.531 0 0 1-.686-.813 4.812 4.812 0 0 1 1.91-.982l-.659-1.366a.529.529 0 0 1-.264.217l-1.727.631a.53.53 0 1 1-.366-.997l1.726-.633a.522.522 0 0 1 .24-.029l-1.084-2.246a18.291 18.291 0 0 1-3.917 1.869.53.53 0 1 1-.34-1.006 17.273 17.273 0 0 0 3.791-1.829l-.786-1.628a.528.528 0 0 1-.315.364l-1.358.551a.532.532 0 0 1-.4-.985l1.359-.551a.53.53 0 0 1 .417.009l-.547-1.133a.534.534 0 0 1-.228.167l-1.35.502a.53.53 0 1 1-.368-.997l1.35-.501a.526.526 0 0 1 .182-.033l-.597-1.238a.54.54 0 0 1-.18.147l-1.55.766a.53.53 0 1 1-.47-.953l1.55-.766a.532.532 0 0 1 .235-.054l-.915-1.895a4.738 4.738 0 0 1-1.855.975.53.53 0 1 1-.273-1.026 3.684 3.684 0 0 0 1.511-.819.538.538 0 0 1 .151-.093l-.785-1.626a.5.5 0 0 1-.099.082l-3.138 1.97a.532.532 0 0 1-.565-.9l3.138-1.97a.526.526 0 0 1 .233-.078l-.833-1.729-1.316.736a.532.532 0 0 1-.52-.927l1.347-.754a.294.294 0 0 0 .026-.011l-.526-1.089a.517.517 0 0 1-.197.136l-1.571.61a.53.53 0 1 1-.385-.99l1.57-.611a.526.526 0 0 1 .154-.033l-.84-1.743c-.014.009-.026.018-.039.023l-1.656.797a.532.532 0 0 1-.46-.959l1.656-.796.041-.017-.839-1.738a.533.533 0 0 1-.138.116l-1.8 1.021a.532.532 0 0 1-.525-.924l1.798-1.02a.512.512 0 0 1 .24-.068l-.713-1.479-3.712 2.033a.532.532 0 0 1-.51-.932l3.76-2.058-1.173-2.43c-5.949 1.462-10.236 3.288-14.811 5.568-.57.285-.814.984-.541 1.558l.005.002Z"/><path d="M39.64 321.473a.532.532 0 0 1 .728.184 51.418 51.418 0 0 1 4.36 9.351.531.531 0 1 1-1.004.35 50.491 50.491 0 0 0-4.269-9.158.532.532 0 0 1 .185-.729v.002ZM21.534 284.884a.531.531 0 0 1 .715.236l17.159 34.113a.531.531 0 0 1-.95.477l-17.159-34.113a.531.531 0 0 1 .236-.714v.001ZM77.602 24.62l-4.098-2.326c-.374-.213-1.001-.568-1.197-1.256-.192-.673.14-1.304.318-1.641a31.674 31.674 0 0 1 1.709-2.865c.24-.36.803-1.199 1.73-1.236.556-.022 1.021.265 1.328.456l3.899 2.41c1.311-.622 2.822-.83 4.246-.502 1.903.438 3.527 1.803 4.387 3.539l26.079 3.631a.651.651 0 0 1 .051-.082c.075-.096.147-.193.22-.29a804.242 804.242 0 0 0-5.906-3.148 695.993 695.993 0 0 1-6.455-3.442.629.629 0 0 1-.316-.678c.3-1.456 1.19-2.666 2.508-3.405a.63.63 0 0 1 .522-.042c3.969 1.449 7.787 3.473 12.364 6.556.081-.146.164-.293.244-.44a.627.627 0 0 1 .808-.277c.773.345 1.53.728 2.332 1.135.779.395 1.584.801 2.522 1.238a.633.633 0 0 1 .28.881l-.328.57c.528.247 1.042.523 1.48.884a.657.657 0 0 1 .156.19c.706 1.327 1.435 2.7 1.874 4.204a.63.63 0 0 1-.106.559.628.628 0 0 1-.516.243c-1.22-.036-2.482-.074-3.884-.22a.617.617 0 0 1-.262-.089c-.838-.512-1.176-.782-1.4-.96-.034-.027-.063-.048-.089-.07-.114.15-.265.305-.468.41.002.023.006.044.005.068a.628.628 0 0 1-.638.617 317.912 317.912 0 0 1-31.215-2.032c-.03-.002-.057-.01-.084-.018-.187.33-.403.644-.643.938 7.105 6.383 24.623 23.536 24.803 23.713a.623.623 0 0 1 .045.847.628.628 0 0 1-.841.115c-8.987-6.247-22.096-15.825-29.624-22.363-1.59-.166-3.124-.892-4.2-2.087-.931-1.035-1.475-2.355-1.609-3.717-.01-.006-.024-.01-.035-.015l.004-.003Zm-1.487-8.07c-.26.01-.545.394-.74.681a30.204 30.204 0 0 0-1.64 2.751c-.09.17-.275.524-.222.713.056.194.402.391.61.508l3.524 2.001c.103-.905.39-1.79.873-2.583a6.267 6.267 0 0 1 1.57-1.729l-3.354-2.073c-.2-.122-.448-.277-.62-.27Zm30.364-1.527a3.769 3.769 0 0 0-1.533 1.975 789.583 789.583 0 0 0 6.009 3.202c1.967 1.041 4.001 2.116 6.069 3.235.469-.668.916-1.352 1.339-2.05-4.413-2.978-8.093-4.948-11.884-6.362Zm15.332 6.811c-.603-.305-1.18-.596-1.752-.867a36.06 36.06 0 0 1-2.608 4.018l3.332 2.27c.164.113.25.154.294.168.048-.054.118-.175.144-.22l2.127-3.7a.322.322 0 0 1 .026-.078.609.609 0 0 1 .122-.178l.258-.449c-.7-.335-1.328-.653-1.941-.963h-.002Zm5.068 6.367c-.384-1.026-.898-2.002-1.438-3.02-.344-.264-.763-.48-1.216-.688l-1.478 2.57c.074.05.146.105.226.17.189.15.469.373 1.151.796.967.096 1.876.14 2.753.172h.002Zm-7.295-.243-2.626-1.791a.622.622 0 0 1-.268.022l-26.278-3.657c.068.282.118.567.146.858a6.163 6.163 0 0 1-.055 1.558 6.509 6.509 0 0 1-.263 1.046 316.545 316.545 0 0 0 29.345 1.964h-.001ZM107.29 47.184c-5.815-5.646-14.605-14.12-19.108-18.16-.45.377-.948.695-1.49.933a6.122 6.122 0 0 1-1.394.419c5.838 4.956 14.438 11.392 21.993 16.809h-.001ZM80.176 27.512c.898.998 2.19 1.587 3.52 1.695.04 0 .08.003.119.01a5.136 5.136 0 0 0 2.374-.41c2.013-.881 3.325-3.11 3.12-5.299-.206-2.188-1.91-4.134-4.051-4.626-2.142-.493-4.525.512-5.667 2.39-1.175 1.935-.93 4.559.585 6.242v-.002ZM364.062 88.341c.393-2.204 1.762-4.263 3.756-5.652 1.993-1.387 4.4-1.957 6.604-1.56.887.16 1.717.44 2.499.817 2.716 1.305 4.857 3.751 6.837 6.205 2.67 3.313 5.32 6.718 7.874 10.118 1.227 1.632 2.33 3.26 2.356 5.221.041 2.909-2.256 5.053-4.743 6.938l-.04.031a.763.763 0 0 1-.629.463c-1.403.998-3 1.868-4.752 1.583-1.949-.318-3.312-1.99-4.213-3.098-.857-1.053-2.014-2.42-3.354-4.006-8.525-10.085-12.524-15.209-12.194-17.061l-.001.001Zm28.392 15.172c-.02-1.5-.981-2.9-2.049-4.322-.2-.267-.404-.533-.604-.8a138.365 138.365 0 0 0-.519 10.06c1.761-1.445 3.199-3.047 3.174-4.938h-.002Zm-4.718 6.125c.027-4.32.256-8.683.687-12.977.003-.024.008-.044.013-.067a386.753 386.753 0 0 0-2.856-3.68c0 .027.001.055-.002.082a198.414 198.414 0 0 0-1.069 18.028c1.09-.001 2.179-.631 3.227-1.386Zm-6.935-1.199c.695.855 1.394 1.656 2.181 2.134.093-5.908.452-11.87 1.072-17.738a.767.767 0 0 1 .842-.683c.036.004.069.012.103.02-.11-.138-.218-.277-.325-.416a.805.805 0 0 1-.167.196 170.2 170.2 0 0 1-3.626 2.863l-1.7 11.351a.755.755 0 0 1-.077.229c.643.766 1.218 1.453 1.698 2.043l-.001.001Zm-3.373-4.028.393.465 1.307-8.732a170.09 170.09 0 0 1-5.39 3.874c1.274 1.534 2.548 3.039 3.691 4.391l-.001.002Zm-11.854-15.812c-.015.237.224 1.382 3.925 6.17.997 1.29 2.115 2.674 3.258 4.064a170.631 170.631 0 0 0 10.781-8.073.75.75 0 0 1 .239-.13c-.404-.507-.808-1.015-1.213-1.519-2.366-2.936-4.967-5.855-8.412-6.474-1.805-.324-3.794.152-5.456 1.308-1.662 1.157-2.8 2.856-3.121 4.652l-.001.002ZM408.493 208.256c1.227-3.326 3.572-6.155 6.785-8.183 3.051-1.927 6.683-2.959 10.229-2.905 5.181.078 10.266 3.2 12.954 7.95 2.509 4.438 2.914 10.145 1.085 15.268-.845 2.367-2.516 5.546-5.679 7.256-2.964 1.604-6.525 1.485-9.627 1.247a61.8 61.8 0 0 1-1.911-.17 33.66 33.66 0 0 1-1.657-.213c-.017.539-.077 1.104-.281 1.653-.33.886-.994 1.53-1.775 1.742-.63 1.921-1.979 5.771-3.286 9.502-1.387 3.959-2.823 8.053-3.387 9.81-.214.668-.785 2.442-2.329 2.645a2.039 2.039 0 0 1-.461.007c-.965-.102-1.743-.907-2.034-1.73-.268-.758-.167-1.976-.082-2.634l.002-.017c.445-3.544 4.553-15.009 6.289-19.069a2.39 2.39 0 0 1-.447-.382c-.583-.646-.771-1.654-.487-2.632.196-.678.57-1.259.935-1.78-4.925-3.82-7.131-11.146-4.836-17.365Zm-.128 41.414c-.114.892-.108 1.666.017 2.019.159.45.606.899 1.058.841.472-.062.873-.626 1.226-1.726.57-1.775 2.009-5.876 3.398-9.843 1.226-3.498 2.489-7.1 3.155-9.105a7.73 7.73 0 0 1-.509-.16l-2.16-.73c-1.683 3.947-5.761 15.317-6.182 18.683l-.002.019-.001.002Zm5.315-21.897c-.152.527-.076 1.061.193 1.36.109.12.258.216.424.297a.62.62 0 0 1 .32.14c.119.046.24.087.355.125l2.165.733c.352.119.716.242 1.018.203.457-.06.819-.514.976-.937.161-.433.197-.929.203-1.43-1.225-.26-2.435-.624-3.594-1.165a12.143 12.143 0 0 1-1.314-.714c-.312.445-.609.903-.748 1.387l.002.001Zm2.625-1.889c2.507 1.165 5.344 1.464 8.035 1.669 3.047.233 6.243.341 8.888-1.089 2.176-1.177 3.971-3.495 5.055-6.528 1.701-4.763 1.331-10.055-.989-14.157-2.268-4.009-6.387-6.749-10.713-7.205-.364-.039-.73-.061-1.095-.067-7.007-.106-13.478 4.093-15.736 10.212-2.409 6.532.592 14.394 6.557 17.166l-.002-.001Z"/><path d="M425.409 199.956c4.176.021 8.242 2.558 10.365 6.463 1.973 3.632 2.251 8.326.743 12.554-.697 1.957-2.067 4.593-4.628 6.035-2.404 1.353-5.258 1.286-7.744 1.117a45.46 45.46 0 0 1-1.768-.148c-1.7-.18-3.422-.504-5.028-1.258-5.26-2.469-7.861-9.56-5.68-15.488 2.022-5.493 7.672-9.307 13.741-9.276l-.001.001Zm-7.491 23.551c1.959.92 4.195 1.138 6.317 1.282 2.398.162 4.914.225 6.997-.949 1.716-.966 3.144-2.855 4.022-5.317 1.382-3.876 1.135-8.162-.658-11.465-1.734-3.19-4.907-5.355-8.267-5.711a8.952 8.952 0 0 0-.927-.051c-5.516-.027-10.645 3.426-12.477 8.4-1.951 5.302.334 11.626 4.991 13.811h.002Z"/><path d="M431.688 207.006c1.707 1.384 2.666 3.736 2.566 6.291-.098 2.516-1.161 4.841-1.951 6.371a.668.668 0 0 1-.904.287.67.67 0 0 1-.287-.903c1.163-2.25 1.735-4.096 1.803-5.808.084-2.135-.69-4.079-2.071-5.199a.67.67 0 1 1 .844-1.039ZM173.939 392.619c1.554 2.634 1.456 6-.243 8.374-1.901 2.658-5.785 3.626-8.314 2.077-.913-.561-1.555-1.33-2.171-2.073a18.243 18.243 0 0 0-.715-.829c-.386-.414-1.399-1.348-2.421-1.119-1.208.271-1.804 2.028-1.6 3.498.086.617.248 1.234.42 1.889.323 1.228.659 2.499.504 3.894-.297 2.692-2.584 5.041-5.251 5.606 1.146 1.66 1.913 3.48 2.068 5.092.613 6.399-4.707 13.501-16.263 21.716a1.075 1.075 0 0 1-.657.196c-3.415-.136-8.83-5.504-12.19-10.319-.797-1.142-1.478-2.253-1.989-3.253-1.15-2.255-1.386-3.839-.717-4.843 1.619-2.433 16.304-14.23 22.149-13.778 2.152.165 4.304 1.487 6.033 3.275.122-.051.256-.081.396-.084 2.035-.025 4.09-1.855 4.308-3.841.109-1.003-.16-2.032-.448-3.121-.182-.686-.37-1.399-.47-2.141-.337-2.449.785-5.313 3.244-5.863 1.494-.333 3.069.284 4.436 1.74.285.304.547.62.8.924.531.639 1.032 1.244 1.646 1.621 1.599.981 4.207.265 5.471-1.503 1.2-1.675 1.257-4.166.142-6.059-1.026-1.741-2.938-3.069-5.38-3.74a1.061 1.061 0 1 1 .562-2.049c2.98.817 5.343 2.491 6.649 4.711l.001.002ZM146.39 410.87c-4.408-.34-18.555 10.342-20.209 12.825-.102.225-.002 1.493 1.723 4.273 3.197 5.152 8.548 10.3 11.153 10.812 10.653-7.633 15.576-14.027 15.047-19.546-.12-1.256-.775-2.738-1.733-4.106-.013.013-.021.028-.036.038l-9.067 8.054a1.063 1.063 0 1 1-1.412-1.589l9.067-8.053c.033-.03.072-.051.108-.076-1.388-1.437-3.063-2.51-4.64-2.63l-.001-.002ZM386.993 290.185a.643.643 0 0 1-.018-.252l.355-2.695a15.85 15.85 0 0 0-2.857-.197.64.64 0 1 1-.028-1.279 17.155 17.155 0 0 1 3.399.266c.092-.033.191-.047.297-.033a.646.646 0 0 1 .346.163c.597.13 1.188.289 1.771.483a.641.641 0 0 1-.296 1.24.68.68 0 0 1-.108-.026c-.417-.14-.839-.259-1.265-.364l-.345 2.61a.571.571 0 0 1-.025.105c.069.004.137.005.205.01 4.432.276 8.179 2.183 11.139 5.668 1.899 2.237 3.071 5.366 3.582 9.565.493 4.054.038 7.278-1.393 9.856-1.316 2.372-3.359 3.968-5.176 5.001a10.41 10.41 0 0 1 1.476 3.224c.125.474.227 1.09-.1 1.637-.494.831-1.561.845-2.017.851a5.905 5.905 0 0 1-.973-.051c-.594-.088-1.259-.325-1.649-.943-.245-.388-.303-.802-.355-1.169-.014-.098-.027-.197-.045-.292a2.697 2.697 0 0 0-.665-1.326.613.613 0 0 1-.413-.056 19.199 19.199 0 0 1-7.412.357 17.747 17.747 0 0 1-4.599-1.33 17.016 17.016 0 0 1-2.01-1.069.633.633 0 0 1-.324.457 2.682 2.682 0 0 0-1.116 1.193 7.147 7.147 0 0 0-.121.269c-.144.334-.308.713-.624 1.014-.528.503-1.187.546-1.742.463-.36-.053-.673-.16-.879-.23-.367-.125-1.343-.457-1.539-1.403-.123-.596.129-1.145.364-1.556a10.523 10.523 0 0 1 2.509-2.971l.042-.028c-2.141-2.245-3.673-5.038-4.301-8.027-1.117-5.304.675-11.037 4.562-14.609 2.022-1.858 6.834-4.432 12.35-4.53l-.002.004Zm7.177 33.143c.023.115.038.233.055.35.037.261.071.508.169.663.232.367.938.406 1.525.398.536-.007.85-.083.936-.228.095-.157-.005-.535-.038-.66a9.135 9.135 0 0 0-1.385-2.952l-.19.092c-.583.269-1.178.505-1.783.712.354.481.602 1.036.711 1.625Zm-19.026-4.953a9.26 9.26 0 0 0-2.202 2.607c-.066.114-.263.463-.222.663.033.158.255.302.699.452.714.242 1.112.257 1.329.052.129-.123.228-.353.334-.595.045-.107.093-.215.143-.319a3.968 3.968 0 0 1 1.623-1.74 17.629 17.629 0 0 1-1.57-1.27.646.646 0 0 1-.133.15h-.001Zm-2.481-5.602.708-.45a.64.64 0 0 1 .685 1.079l-.759.481a16.171 16.171 0 0 0 2.794 3.356l.749-1.113a.638.638 0 1 1 1.06.714l-.827 1.229c1.003.78 2.1 1.447 3.272 1.971 1.029.46 2.108.807 3.217 1.044a3.929 3.929 0 0 0 .183-1.75.638.638 0 1 1 1.267-.159c.09.717.028 1.442-.177 2.129 2.126.289 4.325.187 6.45-.307l-.463-1.638a.64.64 0 0 1 1.23-.348l.467 1.653a17.516 17.516 0 0 0 2.184-.834 15.591 15.591 0 0 0 2.716-1.593l-1.022-.828a.638.638 0 1 1 .804-.993l1.137.921a.716.716 0 0 1 .084.081c.834-.751 1.611-1.654 2.211-2.736.749-1.351 1.199-2.917 1.357-4.727l-1.727.018a.638.638 0 1 1-.012-1.279l1.803-.019c.013-.96-.046-1.983-.179-3.073a26.05 26.05 0 0 0-.68-3.596l-1.403.546a.637.637 0 0 1-.827-.365.638.638 0 0 1 .365-.827l1.49-.58c-.561-1.624-1.301-2.974-2.231-4.07-.23-.27-.466-.527-.704-.776l-.949 1.409a.637.637 0 0 1-.887.173.639.639 0 0 1-.173-.887l.963-1.431a.63.63 0 0 1 .135-.142c-1.922-1.71-4.133-2.817-6.608-3.307l-.215 2.243a.64.64 0 0 1-.698.575l-.034-.005a.64.64 0 0 1-.541-.693l.223-2.312c-.25-.028-.502-.052-.755-.066-3.219-.199-6.29.593-8.704 1.645l.537.953a.639.639 0 1 1-1.113.627l-.582-1.033c-1.288.662-2.316 1.371-2.974 1.974-.145.133-.287.271-.424.411.07.049.131.111.18.19l.664 1.073a.64.64 0 0 1-1.088.673l-.611-.986c-1.552 1.902-2.581 4.238-2.994 6.698l1.874-.025a.641.641 0 0 1 .017 1.28l-1.951.025a.822.822 0 0 1-.099-.006 14.321 14.321 0 0 0 .254 4.074 14.716 14.716 0 0 0 1.331 3.71v-.001Z"/><path d="M386.369 304.069c.145-.052.292-.084.434-.097a.644.644 0 0 1-.065-.483c.417-1.578.627-3.205.624-4.837a.64.64 0 1 1 1.279-.003 20.031 20.031 0 0 1-.667 5.167.637.637 0 0 1-.25.358c.069.042.136.087.199.14l1.4 1.177a.645.645 0 0 1 .224.427c.027.265-.002.534-.076.794a.632.632 0 0 1 .18-.035 18.804 18.804 0 0 1 5.555.679.64.64 0 0 1-.342 1.232 17.551 17.551 0 0 0-5.178-.633.638.638 0 0 1-.622-.438 2.745 2.745 0 0 1-.166.194c-.476.501-1.117.773-1.757.743a1.932 1.932 0 0 1-.215-.021 2.325 2.325 0 0 1-1.469-.878c-.43-.542-.607-1.215-.487-1.847a2.206 2.206 0 0 1 1.398-1.644l.001.005Zm.091 2.696c.196.247.471.401.737.414.267.012.555-.117.773-.346.155-.165.259-.364.295-.562l-1.164-.979c-.07-.06-.172-.065-.303-.019a.946.946 0 0 0-.571.678c-.051.262.036.567.233.814ZM404.912 296.479a3.507 3.507 0 0 1-2.435.541 3.518 3.518 0 0 1-1.69-.748c-1.805-1.447-3.593-2.965-5.33-4.438-.615-.523-1.379-1.171-1.719-2.104-.319-.877-.182-1.834.388-2.691.708-1.071 1.98-1.803 3.237-1.868 1.719-.086 3.504.699 5.459 2.404 1.927 1.682 3.091 3.336 3.557 5.054l.018.067c.381 1.471-.202 2.956-1.483 3.785l-.002-.002Zm.245-3.464-.013-.051c-.398-1.469-1.432-2.916-3.163-4.427-1.377-1.2-2.619-1.878-3.774-2.051-.264-.039-.524-.053-.779-.039-.854.045-1.751.565-2.236 1.296-.24.362-.479.925-.252 1.549.224.614.82 1.12 1.351 1.572 1.723 1.462 3.505 2.974 5.296 4.41.931.748 1.97.558 2.631.13.646-.418 1.231-1.263.939-2.389ZM369.255 288.887c.903-1.516 2.412-2.772 4.613-3.839 2.246-1.088 4.082-1.335 5.613-.758 1.088.412 1.991 1.407 2.353 2.6.309 1.016.176 2.002-.376 2.779-.567.798-1.438 1.205-2.138 1.533-1.963.917-3.994 1.866-6.018 2.743a3.221 3.221 0 0 1-1.764.245c-.718-.107-1.392-.471-1.925-1.071-1.036-1.166-1.191-2.805-.393-4.177l.032-.055h.003Zm1.315 3.383c.59.662 1.42.851 2.224.503 2.008-.87 4.03-1.815 5.985-2.729.593-.277 1.264-.592 1.637-1.114.428-.602.307-1.301.195-1.665-.246-.809-.867-1.506-1.582-1.777a3.275 3.275 0 0 0-.691-.178c-1.064-.16-2.353.135-3.911.891-1.997.967-3.291 2.031-4.072 3.342l-.027.045a2.265 2.265 0 0 0 .244 2.684l-.002-.002ZM44.432 86.23a4.545 4.545 0 0 1 2.514-.962 4.551 4.551 0 0 1 2.448.57c-1.14 4.958 1.395 10.653 6.013 12.993 1.565.794 3.31 1.169 5.068 1.169 3.8 0 7.663-1.757 9.935-4.863 2.073-2.832 2.783-6.47 1.969-9.754a16.908 16.908 0 0 0 2.658-10.312c-.274-3.939-1.918-7.404-4.64-9.81-.223-1.12-1.151-2.052-2.297-2.23-1.325-.207-2.671.641-3.067 1.925a1.04 1.04 0 1 0 1.986.619c.091-.294.464-.528.763-.48.302.046.586.382.586.688 0 .313.137.611.378.81 2.473 2.044 3.97 5.107 4.216 8.623a14.81 14.81 0 0 1-1.547 7.664c-1.667-3.078-4.743-5.044-7.906-4.962-5.086-1.701-11.153 1.015-13.433 5.927a6.67 6.67 0 0 0-3.252-.662 6.616 6.616 0 0 0-2.967.924c-1.426-3.702-4.771-6.192-8.277-6.192h-.195c-4.086-1.367-8.809.12-11.69 3.307.685-5.703 3.535-11.024 7.997-14.698a1.01 1.01 0 0 0 .213-.24.532.532 0 0 1 .56-.193.538.538 0 0 1 .32.499 1.044 1.044 0 0 0 .936 1.138c.57.051 1.08-.366 1.134-.94.109-1.143-.624-2.29-1.705-2.668-1.022-.356-2.23.018-2.883.879-5.819 4.85-9.104 12.274-8.792 19.89 0 .046.01.089.018.132-1.633 5.133.918 11.34 5.79 13.808 1.566.794 3.31 1.168 5.069 1.168 3.799 0 7.662-1.757 9.935-4.863 1.894-2.59 2.653-5.856 2.145-8.909v.006Zm15.934-6.724c.9 0 1.793.143 2.64.448.13.046.27.067.409.059 2.74-.155 5.542 1.925 6.663 4.937.048.127.089.26.13.39.012.12.047.236.1.346.734 2.716.15 5.86-1.572 8.213-2.75 3.758-8.307 5.133-12.39 3.066-4.142-2.098-6.245-7.486-4.588-11.763 1.321-3.414 5.014-5.698 8.608-5.698v.002ZM40.61 93.902c-2.75 3.758-8.307 5.133-12.39 3.065-4.142-2.098-6.245-7.485-4.589-11.763 1.322-3.414 5.015-5.698 8.609-5.698.898 0 1.793.143 2.64.448.13.046.27.067.409.059 2.736-.153 5.542 1.925 6.663 4.937 1.065 2.867.54 6.38-1.342 8.952ZM249.573 122.671c.716.599 1.304.824 1.792.688a75.027 75.027 0 0 0 5.574-1.29 25.713 25.713 0 0 1 1.061 4.29.688.688 0 0 0 1.274.236 12.176 12.176 0 0 1 2.63-3.157 33.437 33.437 0 0 0 3.784 1.393.687.687 0 0 0 .712-.203c.177-.2.22-.488.111-.732a32.875 32.875 0 0 1-1.577-4.35c6.295-2.264 12.143-4.997 16.944-7.926a.686.686 0 0 0 .307-.764c-.332-1.239-8.157-30.422-12.755-38.033-.672-1.315-2.053-2.084-4.757-2.65-.032-.007-.062-.007-.093-.009a.689.689 0 0 0-.381-.024c-9.244 2.087-18.39 5.39-27.182 9.813a4.3 4.3 0 0 0-2.174 5.16c2.689 8.516 6.473 19.984 11.905 33.177.045.11.118.203.207.272.08 1.418 1.684 3.328 2.623 4.114l-.005-.005Zm1.489-.652c-.699-.173-2.528-2.346-2.728-3.362.66-.041 1.315-.092 1.968-.154a13.113 13.113 0 0 0 2.223 3.223c-.493.105-.977.202-1.452.292-.003.002-.007.001-.012.002l.001-.001Zm13.608 1.036a31.36 31.36 0 0 1-2.592-1.043.683.683 0 0 0-.657.049c-.018.012-.036.024-.053.038a13.466 13.466 0 0 0-2.328 2.372 28.813 28.813 0 0 0-1.572-4.883c1.499-.443 4.292-1.155 5.686-1.449a34.39 34.39 0 0 0 1.517 4.915l-.001.001Zm3.543-49.593a.465.465 0 0 0 .027.048c4.175 6.88 11.407 33.239 12.481 37.201-4.609 2.764-10.165 5.344-16.141 7.5a38.6 38.6 0 0 1-.227-1.008.686.686 0 0 0-.77-.54c-1.13.163-5.957 1.393-7.275 1.852a.689.689 0 0 0-.402.927c.199.448.381.891.554 1.333-.802.216-1.591.415-2.362.596-.019-.024-.036-.047-.059-.067a11.703 11.703 0 0 1-2.277-2.955c8.841-1.025 17.093-3.837 25.652-8.712l.034-.022a.685.685 0 0 0 .284-.768c-4.195-14.392-8.217-26.538-12.281-37.077 1.539.424 2.386.95 2.757 1.69l.005.002Zm-32.065 11.233a2.934 2.934 0 0 1 1.481-3.519c8.509-4.282 17.353-7.5 26.292-9.568 4.085 10.527 8.128 22.68 12.346 37.103-9.432 5.295-18.495 8.035-28.439 8.602-5.314-12.956-9.03-24.224-11.682-32.617h.002Z"/><path d="M243.945 95.288c6.753-.983 13.446-3.27 19.889-6.802.014-.01.031-.018.045-.027a.685.685 0 0 0 .306-.666 25.169 25.169 0 0 0-3.496-9.809.686.686 0 0 0-.727-.312c-6.554 1.398-13.247 3.626-19.894 6.621a.69.69 0 0 0-.393.75c.678 3.672 1.881 7.007 3.578 9.911a.686.686 0 0 0 .692.334Zm-2.819-9.965c6.234-2.77 12.5-4.858 18.643-6.205a23.844 23.844 0 0 1 2.988 8.39c-6.024 3.245-12.258 5.38-18.548 6.352-1.416-2.531-2.451-5.398-3.08-8.537h-.003ZM267.231 95.474l-18.662 6.628a.686.686 0 0 0 .459 1.293l18.661-6.628a.687.687 0 0 0-.459-1.295l.001.002ZM269.768 99.855l-20.297 7.635a.685.685 0 0 0-.399.884.684.684 0 0 0 .884.4l20.297-7.635a.687.687 0 0 0-.484-1.283l-.001-.001ZM227.442 197.717c4.697-2.752 9.305-5.14 14.182-7.667l.478-.247a11.347 11.347 0 0 1 6.98-1.134c2.355.38 4.556.815 6.685 1.234 2.209.435 4.492.885 6.943 1.274.831.132 1.461.672 1.645 1.409.181.725-.114 1.483-.768 1.977l-.13.098c-.725.547-1.432 1.081-2.132 1.605l1.34 8.885c.133.883.299 1.982-.188 3.048-.683 1.498-2.497 2.553-3.82 3.324l-.183.106c.363.167.69.414.945.726.494.606.696 1.425.541 2.192-.036.18-.09.347-.141.506a2.743 2.743 0 0 0-.129.501c-.077.657.431 1.315.96 1.932a.518.518 0 0 1-.309.848c-1.61.264-3.329-.592-4.088-2.035-.55-1.042-.562-2.324-.101-3.4-.273.143-.559.293-.859.448a23.001 23.001 0 0 1-5.803 2.071 22.98 22.98 0 0 1-7.458.354c-.71-.084-1.417-.174-2.125-.264-1.446-.183-3.426-.435-4.609-1.54-.836-.782-1.127-1.851-1.361-2.709l-2.408-8.85a.486.486 0 0 1-.008-.227l-3.659-.976c-.792-.212-1.346-.803-1.446-1.546-.103-.764.291-1.508 1.029-1.941l-.003-.002Zm29.725 18.097c.396.753 1.18 1.298 2.024 1.471-.361-.552-.61-1.167-.529-1.853.03-.254.106-.489.172-.695.045-.14.087-.272.112-.396a1.64 1.64 0 0 0-.329-1.33 1.64 1.64 0 0 0-.951-.559l-.034.039c-.815.853-1.016 2.282-.466 3.325l.001-.002Zm4.369-8.045c.359-.786.23-1.639.107-2.464l-1.258-8.336a134.552 134.552 0 0 1-5.167 3.684c.429 2.312 1.726 7.764 2.416 10.262.18-.101.348-.198.503-.287 1.204-.702 2.853-1.661 3.399-2.859Zm-26.601 3.214c.219.808.447 1.643 1.069 2.225.938.878 2.727 1.104 4.033 1.27.704.089 1.409.179 2.117.262 4.298.511 8.796-.311 12.662-2.315.703-.365 1.334-.698 1.886-.996-.648-2.298-1.9-7.517-2.419-10.156a78.736 78.736 0 0 1-4.061 2.494 11.43 11.43 0 0 1-3.3 1.259 11.07 11.07 0 0 1-5.142-.113l-9.16-2.442 2.317 8.512h-.002Zm-6.809-10.781 13.919 3.711c2.532.675 5.324.295 7.661-1.044a79.761 79.761 0 0 0 4.191-2.581c-2.607-1.473-5.267-2.812-7.846-4.109h-.002a.519.519 0 0 1 .467-.925c2.736 1.376 5.565 2.799 8.336 4.386.003 0 .005.003.007.005 2.672-1.809 5.205-3.721 7.973-5.811l.13-.099c.323-.243.467-.58.387-.899-.083-.332-.383-.57-.803-.636-2.468-.392-4.762-.845-6.98-1.281-2.12-.418-4.314-.849-6.65-1.228-2.139-.346-4.39.02-6.339 1.031l-.479.247c-4.864 2.521-9.46 4.902-14.134 7.642-.377.221-.574.559-.527.908.045.325.301.581.687.683h.002ZM128.614 271.849a3.119 3.119 0 0 1-1.763 1.986c-1.273.523-2.689.265-3.761.044l-.155-.032-51.638-10.723c-1.302-.271-2.924-.609-4.14-1.642-1.288-1.093-1.969-3.179-.819-4.644a.725.725 0 0 1 .328-.236c1.49-2.281 6.805-10.383 9.273-13.695l5.39-26.153a4.462 4.462 0 0 1 5.266-3.465l40.933 8.437a4.462 4.462 0 0 1 3.466 5.266l-5.437 26.376c.443 2 .828 4.356 1.232 6.85.578 3.554 1.175 7.23 1.959 9.82a.733.733 0 0 1-.104.638c.088.369.081.768-.03 1.173Zm-60.503-11.49c.931.791 2.289 1.072 3.488 1.321l51.637 10.723c1.168.239 2.207.417 3.056.068.419-.172.78-.579.901-1.015.066-.238.045-.442-.053-.609a860.991 860.991 0 0 1-29.452-5.538 876.318 876.318 0 0 1-30.45-6.855c-.05.67.328 1.442.873 1.905Zm25.84-3.236a30.874 30.874 0 0 1-2.758 5.31 867.383 867.383 0 0 0 14.505 2.983l-1.493-6.189c-3.409-.739-6.83-1.44-10.255-2.102v-.002Zm35.597-30.429a2.986 2.986 0 0 0-2.319-3.524l-40.933-8.438a2.986 2.986 0 0 0-3.524 2.32l-5.325 25.833 46.776 9.642 5.325-25.833Zm-4.216 33.762c-.379-2.331-.74-4.543-1.143-6.43l-47.412-9.773c-2.466 3.387-7.093 10.427-8.702 12.888a859.692 859.692 0 0 0 21.569 4.96 29.505 29.505 0 0 0 2.83-5.262 459.468 459.468 0 0 0-14.273-2.48.737.737 0 0 1 .264-1.451 459.543 459.543 0 0 1 38.109 7.663.737.737 0 1 1-.352 1.431 458.157 458.157 0 0 0-10.412-2.427l1.483 6.147a847.954 847.954 0 0 0 19.728 3.604c-.659-2.548-1.182-5.758-1.688-8.876l-.001.006Z"/><path d="m85.37 216.234 41.104 8.473a1.765 1.765 0 0 1 1.371 2.084l-4.371 21.205a1.766 1.766 0 0 1-2.084 1.372l-41.104-8.473a.738.738 0 0 1-.573-.871l4.786-23.218a.739.739 0 0 1 .871-.574v.002Zm-4.064 23.367 40.382 8.324a.29.29 0 0 0 .342-.225l4.371-21.205a.29.29 0 0 0-.225-.342l-40.382-8.324-4.489 21.774v-.002ZM341.731 36.95a.637.637 0 0 1-.518.37c-11.399 1.155-22.756 1.944-34.721 2.413a.64.64 0 0 1-.545-1.013c.691-.97 1.598-2.37 2.558-3.853 1.64-2.536 3.498-5.406 4.949-7.144-.484-1.268-1.163-2.34-1.881-3.469-.773-1.212-1.573-2.467-2.108-3.99a.571.571 0 0 1-.031-.161.637.637 0 0 1 .758-.936c1.016.353 1.98.699 3.003 1.064 1.107.397 2.253.807 3.561 1.263 1.61-3.181 5.444-8.343 6.827-10.015a.641.641 0 0 1 1.021.043c2.946 4.232 5.869 8.5 8.695 12.625 2.749 4.013 5.592 8.165 8.38 12.17a.64.64 0 0 1 .057.635l-.005-.001Zm-28.973-15.512c-.57-.205-1.123-.402-1.675-.598.445.958.995 1.823 1.571 2.725.774 1.212 1.573 2.467 2.108 3.991.005.012.005.022.009.034 4.88.97 9.251 2.039 14.228 3.497-1.674-1.117-3.156-2.072-4.604-3.007-2.302-1.482-4.681-3.014-7.734-5.145a.616.616 0 0 1-.181-.198.674.674 0 0 1-.138-.03c-1.317-.46-2.467-.87-3.581-1.27h-.003Zm19.479 3.432c-2.67-3.897-5.425-7.918-8.202-11.916-1.824 2.307-4.914 6.637-6.199 9.238 2.815 1.952 4.973 3.342 7.251 4.81 2.377 1.531 4.833 3.114 8.09 5.384a.642.642 0 0 1-.557 1.139c-6.81-2.13-12.166-3.511-18.383-4.735-1.371 1.7-3.109 4.388-4.654 6.773-.66 1.02-1.294 2-1.856 2.836a554.434 554.434 0 0 0 32.276-2.246c-2.59-3.732-5.217-7.566-7.764-11.283h-.002ZM299.238 23.293c-.344 1.719-1.605 3.086-3.133 3.408-1.026.216-2.156-.033-3.105-.683-.789-.541-1.456-1.361-1.927-2.37-.958-2.056-.837-4.48.309-6.173.662-.98 1.56-1.623 2.375-2.035a7.987 7.987 0 0 0-1.356-.633c-2.198-.777-4.744-.44-6.487.864-1.839 1.374-2.75 3.803-2.213 5.907a.64.64 0 1 1-1.242.318c-.66-2.593.445-5.574 2.688-7.252a7.623 7.623 0 0 1 2.196-1.13 8.567 8.567 0 0 1 5.487.085c.849.3 1.654.733 2.394 1.274.921-.263 1.963-.407 3.222-.448 2.142-.07 3.965.177 5.574.75 1.948.696 3.577 1.916 4.585 3.436a.64.64 0 1 1-1.068.709c-.857-1.29-2.258-2.335-3.947-2.938-1.456-.52-3.124-.742-5.101-.677a14.09 14.09 0 0 0-2.06.201 10.763 10.763 0 0 1 2.08 2.96c.747 1.563 1.001 3.094.733 4.429l-.004-.002Zm-1.889-3.876a9.458 9.458 0 0 0-2.379-3.115c-.787.3-1.833.865-2.526 1.89-.898 1.328-.98 3.258-.208 4.913.373.8.888 1.442 1.49 1.854.65.446 1.441.627 2.116.486.074-.016.15-.036.224-.06.921-.302 1.691-1.232 1.915-2.345.27-1.341-.196-2.71-.631-3.625l-.001.002ZM26.264 29.448 21.76 31.8l.872-4.997L19 23.259l5.027-.727L26.264 18l2.237 4.532 4.998.727-3.603 3.545.843 4.997-4.475-2.353ZM413.264 441.448l-4.504 2.353.872-4.997-3.632-3.545 5.027-.726 2.237-4.533 2.237 4.533 4.998.726-3.603 3.545.843 4.997-4.475-2.353ZM199.382 296.543c-2.756-1.264-5.37-2.438-7.899-3.574-4.019-1.805-7.815-3.511-12.058-5.514l-.079-.039a2.59 2.59 0 0 1-1.426-2.214 2.598 2.598 0 0 1 1.282-2.393c1.445-.864 2.895-1.711 4.295-2.53a354.037 354.037 0 0 0 5.692-3.376l-.011-.028c.042-.017.086-.03.13-.045.842-.514 1.68-1.035 2.517-1.57 1.356-2.352 3.157-6.305 4.354-9.133l-.031-.016a1.413 1.413 0 0 1 1.285-2.515l8.197 4.188c.693.354.969 1.207.615 1.9a1.418 1.418 0 0 1-1.498.75c-.321.684-.692 1.493-1.106 2.398-.96 2.094-2.149 4.69-3.247 6.851.26 1.429.486 2.761.707 4.052.55 3.23 1.07 6.28 1.937 9.774a2.62 2.62 0 0 1-.877 2.669c-.785.65-1.85.79-2.777.365h-.002Zm5.866-28.014-8.197-4.188a.576.576 0 0 0-.523 1.025l8.196 4.188a.577.577 0 0 0 .524-1.025Zm-5.704 11.164-.025-.139.064-.126c1.108-2.168 2.321-4.817 3.297-6.945.409-.892.776-1.694 1.094-2.373l-7.048-3.601c-1.223 2.882-3.057 6.899-4.428 9.258l-.051.088-.085.055c-.491.314-.982.623-1.474.929a2.5 2.5 0 0 1 1.307.959c.236.35.366.731.494 1.1.045.132.088.256.136.379.191.496.42.798.701.928.414.19.969.008 1.505-.167l.097-.031c1.007-.329 1.773-.259 2.276.204.319.294.455.684.574 1.028.055.157.107.305.171.435.171.345.506.615.918.744.328.101.665.1.96.003-.151-.877-.309-1.782-.481-2.727l-.002-.001Zm2.68 14.016c-.875-3.523-1.397-6.589-1.95-9.834l-.107-.625a2.433 2.433 0 0 1-1.349-.034c-.63-.196-1.147-.623-1.419-1.17a4.587 4.587 0 0 1-.213-.533c-.099-.287-.186-.536-.351-.688-.263-.242-.751-.25-1.449-.023l-.095.031c-.625.204-1.401.459-2.114.133a1.915 1.915 0 0 1-.065-.031c-.457-.233-.808-.678-1.069-1.356-.052-.137-.1-.274-.145-.408-.115-.332-.222-.646-.397-.905-.391-.579-1.173-.852-1.844-.668a359.903 359.903 0 0 1-5.739 3.404c-1.399.818-2.847 1.664-4.288 2.526a1.774 1.774 0 0 0-.875 1.634 1.775 1.775 0 0 0 1.026 1.537c4.237 2 8.03 3.703 12.045 5.507 2.529 1.137 5.145 2.312 7.904 3.578a1.763 1.763 0 0 0 1.896-.249 1.767 1.767 0 0 0 .598-1.824v-.002Z"/><path d="M187.905 283.648a1.782 1.782 0 0 1-.774-2.394 1.78 1.78 0 0 1 2.393-.774 1.781 1.781 0 0 1 .775 2.393 1.782 1.782 0 0 1-2.394.775Zm1.238-2.422a.943.943 0 1 0-.856 1.675.943.943 0 0 0 .856-1.675ZM195.664 289.138a1.366 1.366 0 1 1 1.246-2.432 1.366 1.366 0 0 1-1.246 2.432Zm.863-1.687a.53.53 0 0 0-.482.942.53.53 0 0 0 .482-.942ZM195.857 276.009a1.367 1.367 0 0 1 1.243-2.433 1.365 1.365 0 0 1-1.243 2.433Zm.862-1.688a.53.53 0 0 0-.481.943.53.53 0 0 0 .481-.943ZM200.785 272.653a1.366 1.366 0 1 1 1.243-2.432 1.366 1.366 0 0 1-1.243 2.432Zm.862-1.687a.53.53 0 1 0-.48.944.53.53 0 0 0 .48-.944ZM293.291 403.384c-5.84 3.307-10.079 8.759-11.629 14.957-1.443 5.764-.509 11.701 2.624 16.718a21.978 21.978 0 0 0 1.699 2.355c4.58 5.555 11.61 8.586 18.871 8.586a26.06 26.06 0 0 0 12.853-3.385c5.84-3.307 10.079-8.759 11.629-14.957 1.443-5.764.51-11.7-2.624-16.718-6.739-10.786-21.733-14.175-33.423-7.556Zm35.2 17.323a.707.707 0 0 0-.724.036l-5.924 3.932c-1.232-.228-2.84-.684-4.571-1.295a.716.716 0 0 0-.601.062c-.41-1.275-.872-2.515-1.323-3.718-.457-1.217-.927-2.475-1.334-3.752 1.715-1.634 3.49-3.323 4.827-4.984a.737.737 0 0 0 .162-.449l5.595.184h.023a.647.647 0 0 0 .187-.029c.239.335.469.678.688 1.029a19.978 19.978 0 0 1 2.995 8.984Zm-18.368 10.149c-1.29-.317-2.828-.588-4.32-.85-1.722-.303-3.499-.616-4.917-1-.009-.014-.021-.026-.031-.039l-.299-.78c-1.037-2.712-1.631-4.26-2.622-7.319 1.464-1.372 2.906-2.803 4.304-4.191.761-.755 1.546-1.535 2.335-2.305.431.073.861.141 1.281.207 2.297.361 4.473.703 6.743 1.719.427 1.357.923 2.672 1.401 3.948.467 1.244.951 2.526 1.364 3.834-.983 1.404-1.853 2.466-2.694 3.496-.8.976-1.622 1.983-2.547 3.282l.002-.002Zm13.54-21.628-5.036-.164c-.034 0-.065.004-.097.007l-1.859-5.218c2.655 1.297 5.047 3.102 6.991 5.375h.001Zm-17.505-7.773c3.046 0 6.046.566 8.817 1.653a.748.748 0 0 0 .03.365l2.46 6.906c-1.246 1.486-2.861 3.025-4.427 4.517-2.398-1.044-4.715-1.41-6.961-1.764-.446-.07-.903-.144-1.36-.221a38.391 38.391 0 0 0-2.204-6.149l3.299-4.99a.714.714 0 0 0 .113-.315c.077 0 .156-.004.233-.004v.002Zm-4.731 4.326c-1.829-.897-3.542-1.611-5.505-2.101a24.643 24.643 0 0 1 8.314-2.147l-2.807 4.248h-.002Zm-7.433-1.121.168-.093a.711.711 0 0 0 .463.317c2.39.482 4.354 1.303 6.534 2.388.938 2.033 1.613 3.925 2.224 6.234-.729.713-1.451 1.431-2.152 2.127-1.429 1.418-2.904 2.879-4.392 4.271a86.497 86.497 0 0 0-8.019-.273c-1.267-2.138-2.374-4.212-3.446-6.219a.684.684 0 0 0-.123-.164c2.001-3.505 4.987-6.462 8.743-8.588Zm-9.534 10.111c.914 1.712 1.863 3.471 2.928 5.284l-4.938 3.115a20.5 20.5 0 0 1 .609-4.467 21.525 21.525 0 0 1 1.401-3.93v-.002Zm-1.984 10.049a.708.708 0 0 0 .227-.093l5.759-3.631a85.148 85.148 0 0 1 8.112.251c.998 3.079 1.595 4.64 2.639 7.367l.285.747c-1.111 2.549-2.988 4.696-5.206 5.947-1.014.091-2.456.242-3.855.39-1.288.136-2.615.275-3.601.365a21.02 21.02 0 0 1-1.334-1.886 19.979 19.979 0 0 1-3.028-9.457h.002Zm5.532 12.697c.798-.08 1.698-.174 2.578-.267a335.14 335.14 0 0 1 3.39-.345l-.133 4.997a21.727 21.727 0 0 1-5.835-4.385Zm16.834 7.026c-3.364 0-6.675-.69-9.68-2.01a.732.732 0 0 0 .115-.373l.154-5.735c2.209-1.364 4.025-3.449 5.207-5.975 1.459.384 3.215.696 4.919.996 1.654.29 3.362.591 4.682.947a.749.749 0 0 0 .169.024c.467 1.432.949 2.916 1.413 4.598a101.526 101.526 0 0 1-2.656 6.612.738.738 0 0 0-.023.536c-1.43.253-2.87.38-4.3.38Zm12.165-3.206a24.6 24.6 0 0 1-6.364 2.511 102.21 102.21 0 0 0 2.327-5.78c1.801 1 3.796 1.735 5.831 2.149-.577.393-1.174.768-1.793 1.119l-.001.001Zm2.991-1.992a.72.72 0 0 0-.552-.488 19.057 19.057 0 0 1-6.269-2.35c-.492-1.771-.998-3.319-1.487-4.817l-.458.149-.041.015.039-.013.457-.155-.494.166c.937-1.328 1.775-2.354 2.585-3.346.902-1.101 1.833-2.243 2.91-3.8a.899.899 0 0 0 .109.051c1.194.422 2.861.959 4.408 1.278a.717.717 0 0 0 .158.324 30.579 30.579 0 0 1 4.077 6.063.72.72 0 0 0 .315.315c-1.438 2.521-3.383 4.759-5.759 6.608h.002Zm7.945-12.047a21.541 21.541 0 0 1-1.447 4.026 32.159 32.159 0 0 0-3.713-5.528l5.773-3.831a20.451 20.451 0 0 1-.612 5.333h-.001ZM417.653 317.13a.785.785 0 0 1 .556.076 629.651 629.651 0 0 1 25.535 14.748c.176.107.267.268.236.413-.032.147-.18.253-.384.273-.991.105-2.358.297-3.804.502-2.474.35-5.274.746-7.197.837-.326.768-.412 1.541-.5 2.355-.094.876-.192 1.782-.614 2.684a.269.269 0 0 1-.063.083c-.015.112-.097.21-.242.262a.747.747 0 0 1-.493-.014.672.672 0 0 1-.284-.188c-.526-.615-1.019-1.203-1.542-1.826-.567-.675-1.154-1.374-1.83-2.166-2.79.644-8.17 1.131-10.012 1.225a.815.815 0 0 1-.486-.137c-.135-.094-.212-.222-.205-.346.155-3.169.344-6.343.526-9.411.178-2.985.362-6.073.508-9.072.008-.14.118-.254.293-.3l.002.002Zm12.14 19.883.858 1.02c.191-.617.258-1.241.327-1.893.094-.876.192-1.782.615-2.684.003-.007.008-.011.011-.018a138.419 138.419 0 0 1-8.117-7.982c.585 1.243 1.122 2.33 1.646 3.393.833 1.688 1.695 3.432 2.715 5.741a.296.296 0 0 1 .023.168c.03.024.057.049.08.076.68.797 1.27 1.498 1.84 2.177l.002.002Zm-11.822-10.343a937.36 937.36 0 0 0-.5 8.881c2.482-.168 6.907-.634 9.167-1.174-.947-2.124-1.729-3.706-2.554-5.377-.86-1.743-1.749-3.544-2.838-6.006-.087-.196.03-.385.276-.445a.773.773 0 0 1 .709.206c3.646 4.017 6.668 7.051 10.374 10.406 1.848-.111 4.469-.482 6.797-.81a214.5 214.5 0 0 1 2.781-.382 624.42 624.42 0 0 0-23.739-13.708c-.141 2.791-.31 5.643-.474 8.408l.001.001ZM440.215 342.359c1.14-.586 2.737-.604 3.973-.048.83.373 1.49.995 1.814 1.707.268.594.306 1.251.107 1.901-.405 1.325-1.758 2.318-3.445 2.528-.976.122-1.94-.008-2.725-.201.171.308.376.606.617.891 1.129 1.335 3.086 2.347 4.987 2.576 2.004.243 3.912-.392 4.637-1.547.118-.187.445-.245.731-.127.285.118.422.367.304.555-.895 1.421-3.228 2.207-5.674 1.912a9.731 9.731 0 0 1-2.126-.51c-1.504-.542-2.864-1.435-3.791-2.532a6.19 6.19 0 0 1-1.007-1.639c-.782-.306-1.586-.717-2.488-1.273-1.533-.943-2.678-1.879-3.503-2.859-.999-1.186-1.499-2.454-1.408-3.57.017-.217.282-.352.59-.302.308.05.545.265.527.482-.076.947.357 2.036 1.222 3.064.746.887 1.797 1.742 3.212 2.613.553.34 1.062.62 1.546.849a4.704 4.704 0 0 1 .093-2.225c.296-1.015.92-1.792 1.805-2.247l.002.002Zm-.707 2.535a4.211 4.211 0 0 0 .034 2.428c.707.228 1.734.46 2.754.332 1.323-.166 2.39-.962 2.716-2.029.158-.516.134-1.027-.072-1.479-.221-.488-.679-.926-1.225-1.172a2.633 2.633 0 0 0-.188-.076c-.801-.288-1.827-.237-2.566.142-.89.457-1.281 1.261-1.454 1.854h.001ZM17.215 206.841c.162.037.325.069.49.093 2.38.36 4.903-.597 6.43-2.437 1.356-1.631 1.835-3.654 2.258-5.439.868-3.659 1.542-6.552 2.085-8.876 1.041-4.456 1.562-6.693 1.927-7.865.294-.943.41-1.031.697-1.189.355-.103 2.126-.184 3.84-.265 3.18-.148 7.445-.347 10.816-.891-.225 1.654-.486 3.647-.74 5.582-.269 2.038-.544 4.137-.777 5.837-5.584-.329-8.348 2.204-9.689 4.432-1.65 2.739-1.744 6.089-1.082 7.102.728 1.114 2.311 1.903 4.235 2.113 3.215.349 6.594-.845 8.815-3.113 1.776-1.814 2.786-11.638 3.831-23.329.128-1.43.25-2.781.357-3.901a.619.619 0 0 0-.69-.676c-7.004.835-14.74 1.204-22.988 1.096a.618.618 0 0 0-.622.535c-.117.853-.215 1.725-.31 2.567-.193 1.716-.391 3.492-.775 5.275-.65 3.016-1.32 6.131-2 8.901-2.508.668-5.075 1.383-7.234 2.676-2.632 1.577-4.096 3.802-4.019 6.105.087 2.57 2.35 5.019 5.147 5.664l-.002.003Zm-.489-10.706c2.11-1.264 4.733-1.962 7.271-2.636a.618.618 0 0 0 .443-.45c.712-2.878 1.417-6.14 2.096-9.294.397-1.843.6-3.651.796-5.399.074-.656.148-1.33.234-1.995 7.798.083 15.14-.261 21.837-1.023-.09.953-.185 2.024-.285 3.146-.379 4.228-.848 9.49-1.445 13.934-.89 6.614-1.658 8.25-2.036 8.637-1.962 2.004-4.949 3.055-7.794 2.748-1.203-.131-2.711-.608-3.33-1.558-.308-.472-.405-3.273 1.107-5.784 1.204-2.001 3.762-4.283 9.105-3.792a.62.62 0 0 0 .67-.533c.246-1.79.557-4.144.856-6.422.299-2.276.61-4.63.854-6.415a.62.62 0 0 0-.73-.694c-3.392.64-8.07.858-11.488 1.018-3.204.149-3.99.203-4.35.4-.734.401-1.823 3.692-3.267 9.874-.543 2.324-1.218 5.215-2.084 8.871-.41 1.733-.835 3.525-2.005 4.934-.953 1.148-2.91 2.363-5.29 2.003-2.665-.402-4.519-2.69-4.583-4.573-.061-1.839 1.184-3.66 3.417-4.999l.001.002Z"/></g><path fill="#fff" stroke="#20380E" stroke-width="2.813" d="m445.519 382.524-4.171 18.42c-2.134 9.414-11.485 15.313-20.897 13.179l-292.54-66.253 11.889-52.497 292.539 66.253c9.414 2.135 15.314 11.486 13.18 20.898Z"/><path stroke="#20380E" stroke-width="3.094" d="m410.817 355.311-12.394 54.714"/><path fill="#20380E" d="m416.765 356.658-12.51 55.24 15.885 3.597c10.17 2.306 20.274-4.07 22.58-14.24l4.17-18.42c2.306-10.171-4.07-20.274-14.24-22.58l-15.885-3.597Z"/><path fill="#fff" d="m136.823 295.723-11.497 50.805-53.51-38.828 65.007-11.977Z"/><path fill="#20380E" d="m134.816 297.654-10.476 46.27-48.73-35.353 59.215-10.906m4.015-3.86-70.827 13.056 58.299 42.292 12.537-55.338-.009-.01Z"/><path fill="#20380E" d="m96.55 327.551 6.135-27.089-34.67 6.382 28.536 20.707Z"/><path fill="#fff" d="m287.478 242.043-45.541-11.29-32.412-8.619a.731.731 0 0 0-.563.088.634.634 0 0 0-.3.476c-.038.208-.685 5.118 3.316 7.349 1.529.85 4.873 2.115 8.318 3.314-.597.841-1.554 2.576-.888 4.312.088.213.192.414.323.615-.687 1.943-.659 3.552.084 4.802.156.258.355.505.584.725-.134.176-.2.397-.139.609.047.198 1.333 4.702 4.348 5.491.249.067.513.107.765.118.67.029 1.362-.137 2.077-.483 1.057.773 4.195 2.589 10.827 2.878 3.937.172 6.286-2.691 7.049-3.818l38.743 7.44.098.005a.715.715 0 0 0 .708-.529l3.112-12.649a.71.71 0 0 0-.508-.848l-.001.014Z"/><path stroke="#20380E" stroke-linecap="round" stroke-linejoin="round" stroke-width="2.813" d="m287.308 242.726-45.555-11.291-32.411-8.619s-.664 4.629 2.969 6.648c3.632 2.019 18.315 6.618 18.315 6.618M221.193 233.323s-5.426 6.043 5.615 7.225"/><path stroke="#20380E" stroke-linecap="round" stroke-linejoin="round" stroke-width="2.813" d="M226.544 244.033s-.11.918-2.767.579c-2.656-.354-4.889-2.074-3.367-6.19M241.646 244.454c-4.012 1.224-7.336-2.418-7.336-2.418s.153 1.951-1.31 3.425c-1.713 1.744-4.934 1.184-4.934 1.184l-1.601-5.945 6.788-6.166 7.631.795M220.911 244.25s2.477 8.949 8.269 3.159"/><path stroke="#20380E" stroke-linecap="round" stroke-linejoin="round" stroke-width="2.813" d="M227.501 248.714s2.666 2.676 10.792 3.031c4.412.192 6.688-3.891 6.688-3.891l39.215 7.531"/><path fill="#fff" d="M216.601 416.023s2.626 3.919 7.76 2.619c5.135-1.301 10.838-4.101 13.796-7.777 2.958-3.675 14.327-19.936 14.327-19.936l-22.447-9.359s-16.983 34.298-13.436 34.453Z"/><path fill="#fff" d="m236.592 412.434 6.018 20.447-50.346 14.811c-4.223 1.243-7.172-6.174-4.47-11.021l27.653-22.726s8.24 10.529 21.159-1.496l-.014-.015Z"/><path fill="#20380E" d="m236.751 412.974 4.3 14.609-50.346 14.811c-4.223 1.243-6.21-2.901-3.205-6.686l27.579-21.666s8.134 8.804 21.685-1.054l-.013-.014Z"/><path stroke="#20380E" stroke-linecap="round" stroke-linejoin="round" stroke-width="2.813" d="m236.592 412.434 6.018 20.447-50.346 14.811c-4.223 1.243-7.172-6.174-4.47-11.021l27.653-22.726s8.24 10.529 21.159-1.496l-.014-.015ZM215.433 413.929l12.719-27.966M236.592 412.435l12.132-16.76"/><path fill="#20380E" d="m301.91 317.414-27.278 1.971a29.318 29.318 0 0 0-24.03 15.974l-24.735 48.815 24.852 12.261 22.485-49.808 48.671-.785c10.82-.171 19.525-8.925 19.647-19.732l.11-9.879a2.815 2.815 0 0 0-2.055-2.741l-28.019-7.838-7.314 4.758-48.841-9.713a29.065 29.065 0 0 0-27.678 9.52l-2.651 3.353c4.148 1.09 20.961 4.3 38.012 9.115"/><path stroke="#fff" stroke-linecap="round" stroke-linejoin="round" stroke-width="2.813" d="M261.565 322.633s21.434-5.219 38.844-4.151"/><path fill="#20380E" d="M373.325 210.263a19.472 19.472 0 0 0-4.814-2.518c-.873-.835-8.605-2.516-12.207-4.267-2.425-1.169-3.758-3.955-4.624-6.231a11.27 11.27 0 0 0-1.129-2.973c-1.195-2.416-3.36-3.783-3.36-3.783-5.153-3.708-12.339-2.525-16.047 2.628-3.708 5.154-2.525 12.339 2.629 16.047.8.581 1.647 1.037 2.527 1.383 4.62 2.482 5.233 3.488 6.044 6.391.641 2.28.629 5.776.591 7.285-.565 6.536 2.221 13.19 7.945 17.287 8.626 6.195 20.658 4.231 26.853-4.395 6.196-8.626 4.231-20.657-4.394-26.853l-.014-.001Z"/><path stroke="#fff" stroke-linecap="round" stroke-linejoin="round" stroke-width="2.813" d="m368.097 243.496.264-.283c7.034-7.959 6.482-19.999-1.218-26.882a18.208 18.208 0 0 0-4.405-2.906c-.744-.899-8.098-3.235-11.422-5.282-2.234-1.371-3.214-4.239-3.798-6.544a11.445 11.445 0 0 0-.763-3.041c-.884-2.501-2.845-4.027-2.845-4.027-3.528-3.147-8.319-4.895-12.37-2.778"/><path stroke="#20380E" stroke-linecap="round" stroke-linejoin="round" stroke-width="2.813" d="M385.558 235.712c6.438-11.287 3.378-25.156-6.83-30.987a19.165 19.165 0 0 0-5.642-2.135c-1.041-.829-9.923-1.468-14.14-2.911-2.826-.963-4.538-4.031-5.673-6.557a12.737 12.737 0 0 0-1.491-3.324c-1.521-2.654-4.069-3.884-4.069-3.884-6.101-3.484-14.161-.842-18.008 5.9"/><path fill="#20380E" d="M327.165 227.799c10.614-6.066 14.3-19.588 8.234-30.202-6.066-10.614-19.588-14.301-30.202-8.234-10.614 6.066-14.301 19.588-8.234 30.202 6.066 10.614 19.588 14.301 30.202 8.234Z"/><path fill="#fff" stroke="#20380E" stroke-linecap="round" stroke-linejoin="round" stroke-width="2.813" d="M337.327 250.471c.057.604-12.818 2.042-13.743 2.085-.477.021-9.941-21.584-10.221-21.89l12.897-10.893s10.548 24.954 11.053 30.697l.014.001Z"/><path fill="#fff" stroke="#20380E" stroke-linecap="round" stroke-linejoin="round" stroke-width="2.813" d="M327.361 218.889a16.895 16.895 0 0 0 2.014-10.235c-1.116-9.365-9.609-16.044-18.96-14.928-7.311.87-12.959 6.247-14.569 13.002-3.33 3.548-5.126 8.477-4.5 13.68 1.116 9.365 9.609 16.044 18.959 14.927 4.95-.595 9.122-3.238 11.818-6.995a6.58 6.58 0 0 0 12.429-3.71c-.417-3.571-3.621-6.117-7.19-5.769l-.001.028Z"/><path stroke="#20380E" stroke-linecap="round" stroke-linejoin="round" stroke-width="2.813" d="M295.951 216.814c1.378 2.732 5.481 3.582 7.82 1.6M309.271 204.558c1.168-.159 4.556-.85 5.235 2.816M300.593 199.253c2.689.873 4.365 4.779 2.841 7.328-.679 1.131-2.411 2.986-4.931 4.009"/><path fill="#20380E" d="M298.681 206.194c-.26 1.136.183 2.204 1 2.394.818.189 1.69-.57 1.949-1.706.26-1.135-.183-2.204-1-2.393-.817-.19-1.69.569-1.949 1.705ZM307.817 209.991c-.259 1.136.184 2.205 1.001 2.394.817.19 1.69-.57 1.949-1.705.259-1.136-.184-2.205-1.001-2.394-.817-.19-1.689.57-1.949 1.705ZM333.386 211.625c-.179 2.817-.526 5.628-.956 8.421-.038.236-.244.479-.508.425a20.9 20.9 0 0 1-6.901-2.441c-3.917-2.228-7.081-5.709-8.787-9.882-1.856-4.571-2.049-9.769-.474-14.442.177-.538.936-.295.886.207 1.92-1.036 4.376-.579 6.295.302 2.126.974 3.933 2.508 5.626 4.107 1.827 1.716 3.442 3.493 4.203 5.946.749 2.383.764 4.915.614 7.385l.002-.028ZM315.421 240.553l18.59-6.467a1.406 1.406 0 0 1 1.841 1.05l14.149 70.13c.165.819-.416 1.6-1.248 1.678l-54.751 5.131a1.406 1.406 0 0 1-1.502-1.715l8.303-36.161a44.447 44.447 0 0 1 13.03-22.581l3.872-5.384-2.293-5.669c-.002-.006.003-.012.009-.012Z"/><path fill="#20380E" d="M327.059 245.37c-1.823.516-31.654-4.983-38.343-6.227a1.39 1.39 0 0 0-1.614 1.09l-4.466 20.633a1.406 1.406 0 0 0 1.201 1.693l32.156 3.995 11.08-21.184h-.014Z"/><path stroke="#fff" stroke-linecap="round" stroke-linejoin="round" stroke-width="2.813" d="M302.418 265.082c2.365-5.772 6.857-13.199 15.301-18.845"/><path fill="#20380E" d="M343.328 245.645s9.689 3.962 2.003 18.846c-8.358 16.182-17.674 28.365-17.674 28.365l-20.807-16.17 18.298-19.595s9.855-14.257 18.18-11.446Z"/><path fill="#fff" d="m326.489 290.455-15.067-11.82a.714.714 0 0 0-.853-.009l-10.901 8.126c-3.92-2.171-32.939-18.013-44.596-17.249-11.475.757-15.14 7.479-16.319 11.415-.983 3.3-.022 5.957 2.509 6.935a.704.704 0 0 0 .604-.057c.361 1.988 1.388 3.767 3.124 4.374.056.017.111.019.167.036.51 1.449 1.897 3.006 4.812 4.784.041.03.097.032.138.048.473 1.027 1.399 1.921 3.035 2.58.605.236 1.2.374 1.773.399a4.33 4.33 0 0 0 1.932-.363c1.783-.789 2.7-2.568 2.996-3.268 3.257 2.296 8.713.688 10.047.243 1.698.829 11.316 5.459 21.933 9.28l.755.341a17.937 17.937 0 0 0 6.644 1.605 17.721 17.721 0 0 0 11.879-3.916l15.409-12.378a.71.71 0 0 0 .262-.548.652.652 0 0 0-.27-.543l-.013-.015Z"/><path stroke="#fff" stroke-linecap="round" stroke-linejoin="round" stroke-width="2.813" d="m311.586 278.417 18.298-19.595M346.512 265.312c-9.708 14.431-20.034 25.059-20.034 25.059"/><path stroke="#20380E" stroke-linecap="round" stroke-linejoin="round" stroke-width="2.813" d="M259.174 294.749c2.9 4.044 10.75 1.113 10.75 1.113s10.378 5.153 22.166 9.403l.754.34a17.059 17.059 0 0 0 17.792-2.216l15.409-12.378M241.514 287.21c-2.558-.993-2.803-3.704-2.084-6.078.706-2.389 3.533-10.113 15.696-10.925 12.163-.812 44.603 17.39 44.603 17.39l11.264-8.404"/><path stroke="#20380E" stroke-linecap="round" stroke-linejoin="round" stroke-width="2.813" d="M248.664 276.906c-2.173 1.08-5.349 3.333-6.146 7.83-.499 2.762.493 5.994 2.697 6.776"/><path stroke="#20380E" stroke-linecap="round" stroke-linejoin="round" stroke-width="2.813" d="M251.917 281.858s-3.387 1.978-4.856 4.866c-1.638 3.229-3.23 5.734 3.256 9.668"/><path stroke="#20380E" stroke-linecap="round" stroke-linejoin="round" stroke-width="2.813" d="M256.242 286.928s-4.662 2.02-5.442 5.147c-.679 2.74-1.021 5.425 2.609 6.871 3.63 1.445 5.456-1.944 5.883-3.059.411-1.101-1.135-3.169-2.701-1.894"/><path fill="#fff" d="M426.635 14.634H230.26c-5.868 0-10.625 4.201-10.625 9.384v139.217c0 5.183 4.757 9.384 10.625 9.384h196.375c5.869 0 10.626-4.201 10.626-9.384V24.018c0-5.183-4.757-9.384-10.626-9.384Z"/><path stroke="#000" stroke-linecap="round" d="M388.582 104.563c.039.447-.785.691-1.212 0-.461-.61-.122-2.026 1.212-2.435 1.256-.484 3.244.445 3.635 2.435.498 1.914-1.005 4.496-3.635 4.872-2.548.517-5.705-1.578-6.058-4.872-.536-3.213 2.137-6.967 6.058-7.306 3.845-.554 8.162 2.712 8.482 7.306.569 4.514-3.264 9.441-8.482 9.743-5.141.591-10.621-3.849-10.905-9.743-.604-5.817 4.391-11.91 10.905-12.177 6.432-.625 13.082 4.98 13.328 12.177.642 7.118-5.52 14.383-13.328 14.614-7.729.661-15.539-6.115-15.751-14.614-.675-8.417 6.647-16.854 15.751-17.048 9.023-.7 17.999 7.25 18.175 17.048.712 9.722-7.777 19.325-18.175 19.485-10.316.733-20.459-8.383-20.598-19.485-.746-11.02 8.905-21.796 20.598-21.92"/><path stroke="#000" d="m257.348 86.124 9.142-25.798 14.333 22.498 7.485-25.565 13.873 22.564 5.92-25.345 14.702 22.447 4.722-25.177 15.07 22.395 5.092-25.229 14.701 22.447 4.263-25.112 14.702 22.447 3.153-22.447"/><path stroke="#20380E" stroke-dasharray="6.92 6.92" stroke-linecap="round" d="M403.706 171.266c-4.234-.894-7.8-11.169-12.492-17.026-5.513-7.772-11.765-15.893-20.109-20.82-11.202-6.615-27.889-8.282-40.218-4.128-8.696 2.929-15.067 10.691-18.807 18.848-1.302 2.841-4.453 12.244.939 13.081 5.349.831 7.781-6.414 8.358-10.38 1.5-10.3-2.791-18.733-10.387-25.465-10.04-8.896-23.772-12.724-37.22-13.749-7.112-.542-21.263-.279-28.172-4.639-6.018-3.797-20.714-12.037-26.598-27.583"/><path fill="#20380E" d="M427.037 173.247H230.493c-6.334 0-11.493-4.545-11.493-10.126V24.126C219 18.545 224.159 14 230.493 14h196.544c6.334 0 11.493 4.545 11.493 10.126v139.002c0 5.581-5.159 10.126-11.493 10.126v-.007ZM230.493 15.512c-5.39 0-9.776 3.865-9.776 8.614v139.002c0 4.75 4.386 8.614 9.776 8.614h196.544c5.39 0 9.776-3.864 9.776-8.614V24.126c0-4.75-4.386-8.614-9.776-8.614H230.493Z"/><path fill="#20380E" d="M233.37 29.45a4.25 4.25 0 0 1-4.242-4.242 4.25 4.25 0 0 1 4.242-4.243 4.25 4.25 0 0 1 4.243 4.243 4.25 4.25 0 0 1-4.243 4.242Zm0-6.972a2.734 2.734 0 0 0-2.73 2.73 2.734 2.734 0 0 0 2.73 2.73 2.734 2.734 0 0 0 2.73-2.73 2.734 2.734 0 0 0-2.73-2.73ZM245.1 29.45a4.25 4.25 0 0 1-4.243-4.242 4.25 4.25 0 0 1 4.243-4.243 4.25 4.25 0 0 1 4.242 4.243 4.25 4.25 0 0 1-4.242 4.242Zm0-6.972a2.734 2.734 0 0 0-2.73 2.73 2.734 2.734 0 0 0 2.73 2.73 2.734 2.734 0 0 0 2.73-2.73 2.734 2.734 0 0 0-2.73-2.73ZM256.821 29.45a4.25 4.25 0 0 1-4.242-4.242 4.25 4.25 0 0 1 4.242-4.243 4.25 4.25 0 0 1 4.243 4.243 4.25 4.25 0 0 1-4.243 4.242Zm0-6.972a2.734 2.734 0 0 0-2.73 2.73 2.734 2.734 0 0 0 2.73 2.73 2.734 2.734 0 0 0 2.73-2.73 2.734 2.734 0 0 0-2.73-2.73ZM435.384 33.034H225.371v1.27h210.013v-1.27Z"/><path fill="#4A9DB1" d="M53.394 53.806c-19.276-4.885-29.64 14.773-32.412 25.212-8.966 25.341-5.764 35.295-3.01 42.825 2.754 7.529 6.395 8.772 15.781 12.81 9.386 4.038 57.821 15.121 86.743 21.512 23.138 5.112 45.469 17.19 53.742 22.59-2.724 9.471-8.492 29.88-9.775 35.745-1.282 5.864 1.862 6.391 3.595 5.922 11.076 4.811 28.878 2.867 36.395 1.293-4.582-1.412-22.738-12.308-25.314-13.945-2.576-1.637-1.041-1.946-2.453-2.201-1.411-.255 13.219-62.666 18.129-82.877 3.928-16.17-3.229-23.244-7.299-24.76C150.84 85.26 72.669 58.69 53.394 53.807Z"/><path fill="#fff" d="M47.832 108.195c1.68 4.773 3.472 9.016 6.765 14.205a.505.505 0 0 0 .603.205l53.699-19.679a.504.504 0 0 0 .299-.657c-1.938-5.079-4.45-9.533-7.068-14.026a2.132 2.132 0 0 0-2.572-.93 3468.33 3468.33 0 0 1-18.925 6.768c-10.354 3.68-21.063 7.487-31.534 11.402a2.149 2.149 0 0 0-1.266 2.713l-.001-.001Zm1.62-1.763c10.464-3.912 21.168-7.716 31.519-11.396a3470.1 3470.1 0 0 0 18.931-6.77 1.121 1.121 0 0 1 1.35.49c2.514 4.311 4.927 8.585 6.813 13.396l-4.726 1.732a.498.498 0 0 0-.093-.311 2.196 2.196 0 0 1-.371-1.61.508.508 0 0 0-1-.17c-.14.825.059 1.688.545 2.369.01.016.024.03.037.045l-1.963.72a.524.524 0 0 0-.02-.199l-.605-1.955a.507.507 0 0 0-.968.299l.605 1.955a.498.498 0 0 0 .13.213l-1.671.613a.508.508 0 0 0 .014-.384l-.61-1.643a.507.507 0 0 0-.95.353l.61 1.644a.499.499 0 0 0 .256.28l-1.556.57-1.497-4.108a.508.508 0 0 0-.953.346l1.498 4.111-2.082.762a.5.5 0 0 0-.028-.176l-.472-1.332a.506.506 0 1 0-.956.338l.472 1.332a.512.512 0 0 0 .096.162l-1.444.529a.503.503 0 0 0-.048-.405 2.837 2.837 0 0 1-.398-1.335.506.506 0 1 0-1.013.041c.025.639.212 1.266.54 1.815.033.058.078.107.13.145.009.006.02.011.029.018l-1.625.596c-.003-.006-.005-.012-.01-.016a3.571 3.571 0 0 1-.613-1.668.506.506 0 1 0-1.009.101c.069.687.295 1.353.656 1.941l-1.359.498a.5.5 0 0 0-.037-.324l-.763-1.579a.507.507 0 0 0-.914.439l.762 1.58a.492.492 0 0 0 .145.179l-2.234.82a17.421 17.421 0 0 0-1.441-3.883.507.507 0 0 0-.902.463 16.468 16.468 0 0 1 1.383 3.772l-1.62.593a.505.505 0 0 0 .026-.459l-.565-1.279a.507.507 0 1 0-.928.409l.565 1.28a.502.502 0 0 0 .292.27l-1.128.413a.51.51 0 0 0-.045-.266l-.591-1.24a.506.506 0 0 0-.676-.238.506.506 0 0 0-.238.676l.59 1.24a.504.504 0 0 0 .104.144l-1.231.452a.511.511 0 0 0-.026-.221l-.553-1.554a.507.507 0 0 0-.955.34l.554 1.554c.027.076.07.141.124.194l-1.885.69a4.53 4.53 0 0 0-.623-1.9.506.506 0 1 0-.869.521c.284.473.454 1.014.492 1.565a.49.49 0 0 0 .042.164l-1.619.593a.46.46 0 0 0-.013-.122l-.84-3.434a.508.508 0 0 0-.985.241l.84 3.434a.51.51 0 0 0 .108.208l-1.72.631-.412-1.379a.509.509 0 0 0-.63-.341.508.508 0 0 0-.342.631l.422 1.411.011.025-1.084.397a.503.503 0 0 0-.044-.225l-.671-1.461a.507.507 0 1 0-.922.423l.67 1.461c.022.048.051.089.084.125l-1.734.635c-.003-.014-.005-.028-.01-.041L63 116.75a.506.506 0 1 0-.951.351l.605 1.645.017.039-1.73.633a.522.522 0 0 0-.017-.171l-.555-1.895a.507.507 0 0 0-.973.284l.554 1.893c.023.08.064.151.119.206l-1.47.54-1.193-3.858a.507.507 0 0 0-.968.299l1.208 3.907-2.417.886c-3.104-4.953-4.828-9.052-6.447-13.653a1.129 1.129 0 0 1 .664-1.426l.005.002Z"/><path fill="#fff" d="M90.036 96.151a.508.508 0 0 0 .622.357A49.013 49.013 0 0 0 99.854 93a.507.507 0 1 0-.456-.907 48.182 48.182 0 0 1-9.007 3.438.507.507 0 0 0-.358.622h.002ZM53.33 109.197a.509.509 0 0 0 .646.313L88.39 97.541a.506.506 0 1 0-.334-.957l-34.412 11.969a.505.505 0 0 0-.312.645v-.001Z"/><path fill="#20380E" d="M166.407 222.442c9.404 2.854 31.115 4.231 39.969.082.552-.248 1.001-1.056 1.045-1.874.065-.811-.307-1.377-.837-1.349-6.849.528-26.561-12.064-29.122-14.088.069-2.169 1.811-14.557 17.65-84.154 2.717-11.941-.502-22.7-7.487-25.084C152.626 84.145 69.582 56.261 54.547 53.21c-18.96-3.866-26.686 5.081-35.046 24.11-5.514 12.565-7.801 26.752-6.07 37.928 1.59 10.226 6.193 16.949 13.365 19.465 23.736 8.299 44.346 12.854 64.27 17.277 28.959 6.409 54.023 11.976 80.72 27.254-3.908 14.073-7.355 26.774-10 39.001-.021.069-.053.173-.053.249-.085.729.069 1.343.462 1.84.59.745 2.074 1.46 4.191 2.102l.021.007Zm33.095-1.249c-12.878 1.87-33.171-1.116-35.502-3.447 2.677-12.256 6.186-25.089 10.137-39.375.241-.796.056-1.532-.359-1.809-27.152-15.718-52.476-21.326-81.818-27.814-19.883-4.41-40.451-8.953-64.146-17.239-8.324-2.904-11.25-11.27-12.258-17.808-1.6-10.343.529-23.482 5.656-35.145 7.836-17.828 14.686-25.682 32.442-22.03 14.941 3.061 97.934 30.892 132.932 42.722 6.02 2.054 8.828 11.328 6.469 21.641-19.356 85.071-18.154 86.266-17.357 87.075.901.915 14.329 9.787 23.794 13.264l.01-.035Z"/><path fill="#20380E" d="M156.796 229.757c8.076 2.451 37.222 1.439 49.633-7.258.521-.37.877-1.244.775-1.955-.102-.711-.599-1.013-1.12-.642-12.744 8.898-46.398 9.297-49.611 6.509 2.551-11.765 5.336-22.288 9.538-37.404.21-.691.056-1.38-.338-1.575-27.142-15.678-52.476-21.327-81.797-27.808-19.884-4.411-40.442-8.988-64.147-17.24-6.621-2.311-10.688-11.099-10.858-23.539-.257-17.753 7.119-38.024 19.688-54.19.448-.58.618-1.511.328-2.052-.268-.535-.86-.526-1.32.09C14.374 79.65 6.65 100.987 6.937 119.77c.198 13.467 4.626 23.007 11.87 25.508 23.747 8.264 44.346 12.854 64.271 17.277 28.999 6.421 54.084 11.995 80.833 27.326-4.108 14.805-6.852 25.265-9.423 37.099a.733.733 0 0 0-.042.214c-.053.475-.014 1.167.504 1.701.331.328.964.633 1.836.898l.011-.035Z"/><path fill="#fff" d="m119.664 147.978.002-.171c.034-2.672.752-5.951 1.387-8.852.189-.867.368-1.685.515-2.423a.687.687 0 0 1 .185-.349c4.11-4.148 8.063-8.061 11.889-11.845 3.824-3.781 7.777-7.694 11.882-11.838.022-.021.045-.037.068-.055.023-.028.047-.059.077-.084l5.34-4.738c.569-.505 1.225-.807 1.802-1.073 3.464-1.596 7.076.18 8.852 2.757 1.59 2.303 2.135 5.893-1.092 9.059l-4.668 4.58a.601.601 0 0 1-.118.162c-5.864 5.824-11.73 11.866-17.405 17.709-1.955 2.013-3.904 4.022-5.852 6.018a.714.714 0 0 1-.396.201c-3.849.582-7.828 1.183-11.709 1.623a.685.685 0 0 1-.762-.68l.003-.001Zm5.694-1.329c0-.018-.001-.036.001-.055a3.481 3.481 0 0 0-.991-2.817 3.489 3.489 0 0 0-2.722-.969c-.291 1.529-.522 3.045-.591 4.402 1.426-.169 2.864-.359 4.304-.559l-.001-.002Zm-2.968-7.401c-.155.708-.314 1.44-.467 2.176a4.825 4.825 0 0 1 3.408 1.381 4.831 4.831 0 0 1 1.413 3.649 576.57 576.57 0 0 0 4.363-.646c-.264-.97-.538-1.964-.884-2.979a.91.91 0 0 1-.072-.043 7.825 7.825 0 0 1-2.54-.53.681.681 0 0 1-.428-.554c-.107-.901-.209-1.758-.63-2.712-.006-.006-.01-.011-.017-.016l-3.79-1.363c-.11.522-.229 1.069-.354 1.636l-.002.001Zm34.466-19.151a136.363 136.363 0 0 1-8.051-8.689l-1.833 1.627c2.556 2.86 5.464 5.773 8.31 8.605l1.574-1.543Zm-7.26-2.251c-.008.008-.014.019-.023.027l-21.701 20.726c.377.911.518 1.732.618 2.52.597.19 1.25.296 1.897.306l21.347-21.401a230.357 230.357 0 0 1-2.138-2.181v.003Zm-14.991 7.467a1661.486 1661.486 0 0 0-11.15 11.102l3.434 1.235 21.74-20.766c.008-.008.018-.013.025-.02a118.515 118.515 0 0 1-2.669-2.882 1658.273 1658.273 0 0 1-11.379 11.33l-.001.001Zm25.006-7.922c2.227-2.187 2.573-4.917.926-7.307-1.453-2.107-4.376-3.57-7.154-2.291-.515.238-1.047.483-1.466.853l-2.089 1.854a134.869 134.869 0 0 0 7.991 8.624c.004.005.008.008.011.014l1.781-1.747Zm-22.213 22.475c5.521-5.685 11.225-11.558 16.934-17.24a501.79 501.79 0 0 1-1.633-1.631l-21.225 21.277c.333.963.602 1.9.851 2.812a3223.36 3223.36 0 0 0 5.073-5.218Z"/><path fill="#20380E" d="M10.428 98.847c.145.044.322-.015.478-.157l4.658-4.214c.344-.31.522-.899.409-1.348-.113-.45-.466-.557-.81-.246l-4.657 4.214c-.344.311-.522.899-.41 1.349.052.204.166.352.311.396l.021.006ZM9.31 104.477c.145.044.322-.015.499-.151l4.657-4.214c.344-.31.522-.899.41-1.348-.114-.45-.467-.557-.81-.246l-4.658 4.214c-.344.311-.522.899-.409 1.349.051.204.165.352.31.396ZM8.291 111.117c.146.044.323-.015.479-.157l5.5-4.977c.345-.311.523-.899.41-1.349-.113-.45-.466-.557-.81-.246l-5.5 4.978c-.344.311-.523.899-.41 1.349.052.204.165.352.31.396l.021.006ZM7.634 115.9c.145.044.322-.015.478-.157l5.626-5.09c.344-.312.522-.899.41-1.349-.113-.45-.466-.557-.81-.246l-5.626 5.091c-.344.311-.522.899-.41 1.349.052.204.166.352.311.396l.02.006ZM8.26 121.08c.146.044.323-.016.5-.151l5.782-5.232c.344-.311.523-.899.41-1.349-.113-.449-.466-.557-.81-.245l-5.782 5.232c-.344.311-.522.899-.41 1.349.052.204.166.352.31.396ZM8.308 126.53c.145.044.322-.016.478-.157l7.283-6.59c.344-.311.522-.899.41-1.348-.114-.45-.467-.557-.81-.246l-7.283 6.59c-.344.311-.522.899-.41 1.348.052.205.166.353.31.397l.022.006ZM9.093 131.113c.145.044.322-.016.478-.157l7.564-6.845c.344-.311.523-.899.41-1.348-.113-.45-.466-.557-.81-.246l-7.564 6.844c-.344.311-.522.899-.41 1.349.052.204.166.352.311.396l.021.007ZM10.287 135.101c.145.044.322-.016.478-.157l7.814-7.071c.344-.311.522-.899.41-1.349-.114-.449-.466-.556-.81-.245l-7.814 7.07c-.344.311-.523.899-.41 1.349.052.204.165.352.31.396l.022.007ZM12.3 139.224c.145.045.321-.015.478-.156l8.501-7.693c.344-.311.523-.899.41-1.349-.113-.45-.466-.557-.81-.246l-8.501 7.693c-.344.311-.523.899-.41 1.349.052.204.165.352.331.402ZM15.499 142.503c.145.044.322-.016.478-.157l9.346-8.457c.343-.311.522-.899.409-1.348-.113-.45-.466-.557-.81-.246l-9.345 8.456c-.344.311-.522.899-.41 1.349.052.204.166.352.311.396l.02.007ZM19.17 145.125c.145.044.322-.016.478-.157l10.034-9.079c.343-.311.522-.899.409-1.348-.113-.45-.466-.557-.81-.246l-10.033 9.079c-.344.311-.522.899-.41 1.348.052.205.166.353.311.397l.02.006ZM24.176 145.662c.145.044.322-.016.478-.157l10.033-9.079c.344-.311.523-.899.41-1.348-.113-.45-.466-.557-.81-.246l-10.033 9.078c-.344.312-.522.899-.41 1.349.052.205.166.352.311.397l.021.006ZM28.275 147.246c.145.044.322-.015.479-.157l10.032-9.078c.344-.312.523-.899.41-1.349-.113-.45-.466-.557-.81-.246l-10.033 9.079c-.344.311-.522.899-.41 1.348.052.205.166.353.311.397l.021.006ZM32.758 148.909c.146.044.323-.016.479-.157l10.033-9.079c.344-.311.522-.899.41-1.348-.114-.45-.466-.557-.81-.246l-10.033 9.078c-.344.312-.523.9-.41 1.349.052.205.166.352.31.397l.021.006ZM37.223 149.963c.145.044.322-.016.478-.157l10.033-9.079c.344-.311.523-.899.41-1.349-.113-.449-.466-.556-.81-.245L37.3 148.211c-.344.311-.522.899-.41 1.349.052.204.166.352.332.403ZM41.678 150.971c.146.044.322-.015.479-.157l10.033-9.078c.344-.311.522-.899.41-1.349-.114-.45-.467-.557-.81-.246l-10.034 9.079c-.343.311-.522.899-.409 1.349.051.204.165.352.31.396l.021.006ZM46.525 152.105c.146.044.323-.015.479-.157l10.033-9.078c.344-.311.522-.899.41-1.349-.114-.45-.467-.557-.81-.246l-10.033 9.079c-.344.311-.523.899-.41 1.349.052.204.165.352.31.396l.021.006ZM51.354 153.228c.145.044.322-.015.478-.157l10.033-9.079c.344-.311.523-.899.41-1.348-.113-.45-.466-.557-.81-.246l-10.033 9.079c-.344.311-.522.899-.41 1.348.052.205.166.353.311.397l.02.006ZM55.174 154.389c.145.044.322-.016.499-.151l10.033-9.079c.344-.311.522-.899.41-1.348-.114-.45-.466-.557-.81-.246l-10.033 9.079c-.344.311-.523.899-.41 1.348.051.205.165.353.31.397ZM59.648 155.409c.145.044.322-.015.478-.157l10.033-9.078c.344-.312.522-.899.41-1.349-.113-.45-.466-.557-.81-.246l-10.033 9.079c-.344.311-.522.899-.41 1.349.052.204.166.352.311.396l.02.006ZM63.842 156.681c.145.044.322-.015.478-.157l10.034-9.078c.344-.312.522-.899.409-1.349-.113-.45-.466-.557-.81-.246L63.92 154.93c-.344.311-.522.899-.41 1.348.052.205.166.353.311.397l.021.006ZM68.493 157.79c.145.044.322-.016.479-.157l10.033-9.078c.344-.312.522-.9.409-1.349-.113-.45-.466-.557-.81-.246l-10.033 9.079c-.344.311-.522.899-.41 1.348.052.205.166.353.311.397l.021.006ZM73.32 158.919c.145.044.322-.016.479-.157l10.033-9.079c.343-.311.522-.899.409-1.349-.113-.449-.466-.556-.81-.245l-10.033 9.078c-.344.311-.522.899-.41 1.349.052.204.166.352.311.396l.021.007ZM77.421 160.497c.146.044.322-.015.479-.157l10.033-9.078c.344-.311.522-.899.41-1.349-.114-.45-.467-.557-.81-.246l-10.034 9.079c-.343.311-.522.899-.409 1.349.051.204.165.352.31.396l.021.006ZM82.271 160.951c.146.044.323-.016.479-.157l10.033-9.079c.344-.311.522-.899.41-1.348-.114-.45-.466-.557-.81-.246l-10.033 9.078c-.344.312-.523.9-.41 1.349.051.205.165.352.31.397l.021.006ZM86.643 161.637c.145.044.322-.016.478-.157l10.033-9.079c.344-.311.522-.899.41-1.349-.113-.45-.466-.557-.81-.246l-10.033 9.079c-.344.311-.523.899-.41 1.349.052.204.165.352.31.396l.022.007ZM91.19 163.017c.145.044.322-.015.478-.157l10.033-9.078c.344-.312.522-.899.409-1.349-.113-.45-.465-.557-.809-.246l-10.034 9.079c-.343.311-.522.899-.409 1.348.051.205.165.353.31.397l.021.006ZM95.757 164.402c.145.044.322-.015.5-.151l10.032-9.078c.344-.311.523-.899.41-1.349-.113-.45-.466-.557-.81-.246l-10.033 9.079c-.344.311-.522.899-.41 1.349.052.204.166.352.311.396ZM100.304 165.781c.145.044.322-.016.479-.157l10.033-9.079c.343-.311.522-.899.409-1.348-.113-.45-.466-.557-.81-.246l-10.033 9.079c-.344.311-.522.899-.41 1.348.052.205.166.353.332.403ZM104.871 167.167c.146.044.322-.016.479-.157l10.033-9.079c.344-.311.522-.899.409-1.349-.113-.449-.466-.556-.81-.245l-10.033 9.078c-.343.312-.522.899-.409 1.349.051.205.165.352.311.397l.02.006ZM109.417 168.549c.146.044.322-.016.479-.157l10.033-9.079c.344-.311.522-.899.409-1.348-.113-.45-.466-.557-.809-.246l-10.034 9.078c-.343.312-.522.899-.409 1.349.051.205.165.352.31.397l.021.006ZM113.984 169.935c.145.044.322-.016.478-.157l10.034-9.079c.343-.311.522-.899.409-1.349-.113-.449-.466-.557-.81-.245l-10.033 9.078c-.344.311-.522.899-.409 1.349.051.204.165.352.31.396l.021.007ZM118.531 171.315c.145.044.322-.016.479-.157l10.033-9.079c.344-.311.522-.899.409-1.348-.113-.45-.466-.557-.81-.246l-10.033 9.079c-.344.311-.522.899-.409 1.348.051.205.165.353.331.403ZM123.099 172.699c.145.044.322-.016.478-.157l10.034-9.079c.343-.311.522-.899.409-1.348-.113-.45-.466-.557-.81-.246l-10.033 9.079c-.344.311-.522.899-.409 1.348.051.205.165.353.331.403ZM127.666 174.087c.145.044.322-.016.478-.158l10.033-9.078c.344-.311.522-.899.409-1.349-.112-.45-.465-.557-.809-.246l-10.033 9.079c-.344.311-.523.899-.41 1.349.052.204.166.352.311.396l.021.007ZM132.212 175.466c.146.044.323-.015.479-.157l10.033-9.078c.344-.311.522-.899.409-1.349-.113-.45-.466-.557-.809-.246l-10.034 9.079c-.343.311-.522.899-.409 1.349.051.204.165.352.311.396l.02.006ZM136.779 176.854c.146.044.323-.016.5-.151l10.033-9.079c.344-.311.522-.899.409-1.348-.113-.45-.466-.557-.81-.246l-10.033 9.078c-.344.312-.522.899-.409 1.349.051.205.165.352.31.397ZM141.326 178.233c.146.044.322-.016.479-.157l10.033-9.079c.344-.311.522-.899.409-1.349-.113-.449-.466-.556-.809-.245l-10.034 9.078c-.343.311-.522.899-.409 1.349.052.204.165.352.311.396l.02.007ZM145.894 179.616c.145.044.322-.015.478-.157l10.033-9.078c.344-.311.523-.899.41-1.349-.113-.45-.466-.557-.81-.246l-10.033 9.079c-.344.311-.522.899-.409 1.349.051.204.165.352.31.396l.021.006ZM151.071 181.532c.146.044.323-.016.479-.157l10.033-9.079c.344-.311.522-.899.409-1.349-.113-.449-.466-.556-.809-.245l-10.033 9.078c-.344.311-.523.899-.41 1.349.052.204.165.352.311.396l.02.007ZM155.085 184.07c.146.044.322-.016.479-.157l10.033-9.079c.344-.311.522-.899.409-1.349-.113-.449-.466-.557-.809-.245l-10.034 9.078c-.343.311-.522.899-.409 1.349.051.204.165.352.331.403ZM159.471 186.725c.145.044.322-.016.479-.157l10.033-9.079c.344-.311.522-.899.409-1.348-.113-.45-.466-.557-.81-.246l-10.033 9.078c-.344.311-.522.899-.409 1.349.051.205.165.352.331.403ZM163.019 188.781c.146.044.322-.016.479-.157l10.033-9.079c.344-.311.522-.899.409-1.348-.113-.45-.466-.557-.81-.246l-10.033 9.079c-.344.311-.522.899-.409 1.348.051.205.165.353.31.397l.021.006ZM163.743 192.97c.145.044.322-.016.478-.157l7.283-6.59c.344-.311.522-.899.409-1.349-.113-.45-.466-.557-.809-.245l-7.283 6.589c-.344.311-.522.899-.409 1.349.051.204.165.352.331.403ZM162.634 199.465c.145.044.322-.016.499-.151l6.626-5.996c.344-.311.522-.899.409-1.349-.113-.45-.465-.557-.809-.246l-6.627 5.996c-.343.312-.522.899-.409 1.349.051.204.165.352.311.397ZM160.065 207.107c.145.044.322-.015.478-.157l7.564-6.844c.344-.311.522-.899.41-1.349-.113-.449-.466-.556-.81-.245l-7.564 6.844c-.344.311-.522.899-.409 1.349.051.204.165.352.31.396l.021.006ZM158.484 214.258c.145.044.322-.016.478-.157l7.001-6.335c.344-.311.523-.899.41-1.349-.113-.45-.466-.557-.81-.246l-7.001 6.335c-.344.312-.523.899-.41 1.349.052.205.165.352.311.397l.021.006ZM156.644 221.217c.145.044.322-.016.479-.157l6.907-6.25c.344-.312.522-.899.409-1.349-.113-.45-.465-.557-.809-.246l-6.908 6.25c-.344.312-.522.899-.409 1.349.051.205.165.352.31.397l.021.006ZM155.346 227.885c.145.044.322-.016.479-.157l8.657-7.834c.344-.312.523-.899.41-1.349-.113-.45-.466-.557-.81-.246l-8.658 7.834c-.344.311-.522.899-.409 1.349.051.204.165.352.31.396l.021.007ZM159.227 229.89c.145.044.322-.015.478-.157l8.502-7.693c.344-.311.522-.899.409-1.348-.113-.45-.466-.557-.81-.246l-8.501 7.693c-.344.311-.522.899-.41 1.348.052.205.166.353.311.397l.021.006ZM165.451 229.327c.145.044.322-.015.478-.157l7.002-6.335c.343-.311.522-.899.409-1.348-.113-.45-.466-.557-.81-.246l-7.001 6.335c-.344.311-.522.899-.409 1.349.051.204.165.352.31.396l.021.006ZM171.081 229.525c.146.045.322-.015.479-.157l6.032-5.458c.344-.311.522-.899.409-1.349-.112-.45-.465-.557-.809-.246l-6.033 5.459c-.343.311-.522.899-.409 1.349.051.204.165.352.331.402ZM175.997 229.692c.145.044.322-.016.478-.157l5.783-5.232c.344-.312.522-.899.409-1.349-.113-.45-.466-.557-.81-.246l-5.782 5.232c-.344.311-.522.899-.409 1.349.051.204.165.352.331.403ZM180.808 229.302c.146.044.323-.016.479-.157l5.074-4.616c.344-.312.522-.899.409-1.349-.113-.45-.466-.557-.809-.246l-5.095 4.61c-.344.311-.522.899-.41 1.349.052.204.166.352.332.402l.02.007Z"/></g><defs><clipPath id="a"><path fill="#fff" d="M0 0h460v460H0z"/></clipPath></defs></svg>