<?xml version="1.0" encoding="utf-8"?>
<!-- Generator: Adobe Illustrator 27.7.0, SVG Export Plug-In . SVG Version: 6.00 Build 0)  -->
<svg version="1.0" id="Layer_1" xmlns="http://www.w3.org/2000/svg" xmlns:xlink="http://www.w3.org/1999/xlink" x="0px" y="0px"
	 viewBox="0 0 460 460" style="enable-background:new 0 0 460 460;" xml:space="preserve">
<style type="text/css">
	.st0{clip-path:url(#SVGID_00000181778245344473220540000011918919147086606248_);fill:#FFFFFF;}
	.st1{clip-path:url(#SVGID_00000181778245344473220540000011918919147086606248_);fill:#20380E;}
	.st2{clip-path:url(#SVGID_00000181778245344473220540000011918919147086606248_);fill:#94B73D;}
	.st3{clip-path:url(#SVGID_00000181778245344473220540000011918919147086606248_);}
	.st4{clip-path:url(#SVGID_00000178923272079823342280000006705968023235474844_);fill:#20380E;}
	.st5{clip-path:url(#SVGID_00000067206815045548805950000017906659730239902869_);fill:#20380E;}
	.st6{clip-path:url(#SVGID_00000181778245344473220540000011918919147086606248_);fill:#3A2B35;}
	.st7{clip-path:url(#SVGID_00000011003909935860237560000004152791348541390255_);fill:#20380E;}
	.st8{clip-path:url(#SVGID_00000081629329788213516200000000685412883844290748_);fill:#20380E;}
	.st9{clip-path:url(#SVGID_00000104695921125743434490000003702060902838625922_);fill:#20380E;}
	.st10{clip-path:url(#SVGID_00000060009485063484385450000007626876696444671676_);fill:#20380E;}
	.st11{clip-path:url(#SVGID_00000181778245344473220540000011918919147086606248_);fill:#152409;}
	.st12{opacity:0.15;clip-path:url(#SVGID_00000181778245344473220540000011918919147086606248_);}
	.st13{clip-path:url(#SVGID_00000157992250391083796090000002433234256982269332_);fill:#20380E;}
</style>
<g>
	<defs>
		<rect id="SVGID_1_" width="460" height="460"/>
	</defs>
	<clipPath id="SVGID_00000124145699292095047260000016961505610185591181_">
		<use xlink:href="#SVGID_1_"  style="overflow:visible;"/>
	</clipPath>
	
		<rect style="clip-path:url(#SVGID_00000124145699292095047260000016961505610185591181_);fill:#FFFFFF;" width="460" height="460"/>
	<path style="clip-path:url(#SVGID_00000124145699292095047260000016961505610185591181_);fill:#20380E;" d="M346.26,142.41
		c0.81,1.97-3.57,7.02-4.75,8.49c-3.68,4.54-6.83,7.4-11.9,10.18c-8.46,4.64-18.03,7.03-27.62,7.55c-4.63,0.25-9.19,1.23-13.8,1.69
		c-42.65,4.21-81.28,26.49-121.54,39.42c-13.96,4.48-28.09,8.4-42.86,7.2c-13.91-1.13-27.62-5.6-40.01-11.89
		c-23.9-12.16-45.96-35.39-39.3-64.2c0.32-1.39-1.83-1.96-2.14-0.56c-7.01,30.32,16.08,54.36,41.19,67.12
		c12.99,6.6,27.39,10.84,41.94,11.88c16.78,1.2,33.48-4.49,49.13-9.85c20.75-7.1,40.83-15.98,61.42-23.5
		c10.04-3.67,20.22-6.97,30.6-9.54c8.35-2.07,16.77-3.15,25.27-4.31c6.51-0.88,13.14-1.19,19.59-2.32
		c7.6-1.33,15.02-4.18,21.64-8.13c4.54-2.7,7.88-6.47,11.14-10.63c1.7-2.18,4.55-5.62,4.24-8.68c-0.02-0.15-0.03-0.36-0.09-0.51
		C347.86,140.5,345.7,141.08,346.26,142.41L346.26,142.41z"/>
	<path style="clip-path:url(#SVGID_00000124145699292095047260000016961505610185591181_);fill:#20380E;" d="M332.78,180.46
		c-1.91,7.54-5.23,14.69-10.3,20.63c-0.68,0.8,0.45,3.47,1.16,2.64c5.29-6.22,8.76-13.66,10.76-21.55
		C334.64,181.22,333.19,178.82,332.78,180.46L332.78,180.46z"/>
	<path style="clip-path:url(#SVGID_00000124145699292095047260000016961505610185591181_);fill:#20380E;" d="M332.69,177.68
		c-4.48,6.81-8.34,14.93-15.39,19.47c-0.85,0.54,0.13,3.3,1.16,2.64c7.15-4.61,11.13-12.95,15.67-19.85
		C334.67,179.11,333.47,176.5,332.69,177.68L332.69,177.68z"/>
	<path style="clip-path:url(#SVGID_00000124145699292095047260000016961505610185591181_);fill:#20380E;" d="M332.95,170.55
		c-3.41,3.78-6.56,7.78-9.81,11.68c-3.22,3.86-7.36,6.66-11.42,9.56c-0.83,0.59,0.17,3.35,1.16,2.64c4.08-2.91,8.14-5.73,11.42-9.56
		c3.31-3.86,6.4-7.9,9.81-11.68C334.82,172.41,333.69,169.73,332.95,170.55z"/>
	<path style="clip-path:url(#SVGID_00000124145699292095047260000016961505610185591181_);fill:#20380E;" d="M337.61,155.88
		c-0.14,5.08-2.39,10.58-5.44,14.62c-0.63,0.84,0.53,3.48,1.16,2.64c3.4-4.5,5.82-10.5,5.98-16.18
		C339.34,155.83,337.66,153.95,337.61,155.88L337.61,155.88z"/>
	<path style="clip-path:url(#SVGID_00000124145699292095047260000016961505610185591181_);fill:#20380E;" d="M332.12,160.99
		c-0.18,5.55-6.01,9.92-9.79,13.31c-5.07,4.54-9.78,9.39-15.6,12.99c-0.84,0.53,0.11,3.29,1.16,2.64
		c6.55-4.05,11.94-9.65,17.61-14.8c3.78-3.44,8.14-7.6,8.31-13.05C333.86,160.95,332.17,159.06,332.12,160.99L332.12,160.99z"/>
	<path style="clip-path:url(#SVGID_00000124145699292095047260000016961505610185591181_);fill:#20380E;" d="M324.02,163.96
		c-3.06,4.59-7.64,6.72-11.89,9.93c-3.66,2.77-6.28,7.1-10.62,8.9c-1.05,0.44-0.17,3.25,0.79,2.85c4.43-1.84,7.39-6.11,10.99-9.11
		c4.27-3.56,8.96-5.5,12.18-10.32C326.02,165.4,324.82,162.78,324.02,163.96L324.02,163.96z"/>
	<path style="clip-path:url(#SVGID_00000124145699292095047260000016961505610185591181_);fill:#20380E;" d="M309.52,167.99
		c-2.64,5.16-6.85,9.68-12.03,12.34c-1.02,0.52-0.09,3.3,0.79,2.85c5.48-2.81,9.9-7.47,12.69-12.94
		C311.42,169.36,310.15,166.76,309.52,167.99L309.52,167.99z"/>
	<path style="clip-path:url(#SVGID_00000124145699292095047260000016961505610185591181_);fill:#20380E;" d="M298.22,169.32
		c-0.38,2.43-2.35,4.56-3.89,6.36c-1.53,1.79-3.2,3.45-4.85,5.14c-0.74,0.75,0.37,3.45,1.16,2.64c3.25-3.33,8.46-7.54,9.2-12.42
		C299.99,170.08,298.46,167.68,298.22,169.32L298.22,169.32z"/>
	<path style="clip-path:url(#SVGID_00000124145699292095047260000016961505610185591181_);fill:#20380E;" d="M290.95,170.43
		c-3.18,4.1-6.62,7.95-10.72,11.16c-0.81,0.63,0.22,3.38,1.16,2.64c4.11-3.2,7.54-7.06,10.72-11.16
		C292.75,172.24,291.6,169.59,290.95,170.43z"/>
	<path style="clip-path:url(#SVGID_00000124145699292095047260000016961505610185591181_);fill:#20380E;" d="M282.57,171.37
		c-1.7,4.94-5.68,8.62-9.54,11.96c-0.79,0.68,0.27,3.41,1.16,2.64c3.96-3.42,8.07-7.27,9.82-12.35
		C284.33,172.71,282.99,170.14,282.57,171.37L282.57,171.37z"/>
	<path style="clip-path:url(#SVGID_00000124145699292095047260000016961505610185591181_);fill:#20380E;" d="M275.33,172.39
		c-4.87,2.56-6.87,8.39-10.04,12.56c-0.64,0.84,0.53,3.48,1.16,2.64c3.02-3.98,5.04-9.93,9.66-12.35
		C277.14,174.71,276.2,171.94,275.33,172.39L275.33,172.39z"/>
	<path style="clip-path:url(#SVGID_00000124145699292095047260000016961505610185591181_);fill:#20380E;" d="M265.68,174.36
		c-1.67,1.55-2.45,3.69-3.52,5.64c-1.37,2.49-3.65,4.32-4.97,6.84c-0.46,0.87,0.8,3.48,1.44,2.25c1.12-2.14,2.91-3.82,4.28-5.79
		c1.41-2.04,2.1-4.59,3.94-6.31C267.61,176.28,266.54,173.56,265.68,174.36L265.68,174.36z"/>
	<path style="clip-path:url(#SVGID_00000124145699292095047260000016961505610185591181_);fill:#20380E;" d="M256.46,176.54
		c-0.58,2.3-2.61,3.59-4.05,5.34c-1.47,1.79-2.1,4.24-3.34,6.2c-0.52,0.83,0.69,3.45,1.44,2.25c1.47-2.33,2.22-5.06,4.18-7.06
		c1.52-1.54,2.83-2.84,3.38-5C258.33,177.31,256.88,174.9,256.46,176.54L256.46,176.54z"/>
	<path style="clip-path:url(#SVGID_00000124145699292095047260000016961505610185591181_);fill:#20380E;" d="M246.9,180.23
		c-2.32,3.42-4.12,7.19-5.64,11.03c-0.36,0.9,0.95,3.49,1.44,2.25c1.52-3.84,3.32-7.61,5.64-11.03
		C248.9,181.67,247.7,179.04,246.9,180.23z"/>
	<path style="clip-path:url(#SVGID_00000124145699292095047260000016961505610185591181_);fill:#20380E;" d="M238.48,183.08
		c-2.33,4.05-5.01,7.79-6.48,12.28c-0.31,0.95,1.09,3.34,1.63,1.72c1.41-4.28,4.08-7.87,6.3-11.74
		C240.42,184.49,239.18,181.87,238.48,183.08L238.48,183.08z"/>
	<path style="clip-path:url(#SVGID_00000124145699292095047260000016961505610185591181_);fill:#20380E;" d="M229.75,185.25
		c-1.55,4.08-2.85,8.25-3.46,12.59c-0.14,0.95,1.4,3.37,1.63,1.72c0.58-4.15,1.79-8.14,3.27-12.05
		C231.53,186.6,230.22,184.02,229.75,185.25L229.75,185.25z"/>
	<path style="clip-path:url(#SVGID_00000124145699292095047260000016961505610185591181_);fill:#20380E;" d="M222.24,189.12
		c-1.56,3.88-2.57,7.96-4.43,11.72c-0.43,0.88,0.84,3.48,1.44,2.25c1.86-3.76,2.87-7.84,4.43-11.72
		C224.05,190.47,222.74,187.88,222.24,189.12z"/>
	<path style="clip-path:url(#SVGID_00000124145699292095047260000016961505610185591181_);fill:#20380E;" d="M215.96,191.38
		c-2.15,3.34-1.72,7.85-4.18,10.98c-0.65,0.83,0.51,3.47,1.16,2.64c2.61-3.33,2.21-7.87,4.46-11.37
		C217.94,192.81,216.74,190.19,215.96,191.38L215.96,191.38z"/>
	<path style="clip-path:url(#SVGID_00000124145699292095047260000016961505610185591181_);fill:#20380E;" d="M209.71,193.98
		c-1.3,1.54-2.11,3.24-2.7,5.16c-0.57,1.84-0.11,5.03-1.52,6.38c-0.76,0.72,0.33,3.43,1.16,2.64c1.24-1.18,1.35-2.7,1.42-4.33
		c0.11-2.56,1.15-5.26,2.8-7.2C211.56,195.81,210.42,193.14,209.71,193.98z"/>
	<path style="clip-path:url(#SVGID_00000124145699292095047260000016961505610185591181_);fill:#20380E;" d="M202.39,196.41
		c-1.31,2.16-2.59,4.35-3.96,6.47c-1.32,2.03-1.73,4.5-2.38,6.79c-0.27,0.96,1.16,3.36,1.63,1.72c0.61-2.15,1.02-4.33,2.2-6.25
		c1.32-2.16,2.65-4.31,3.96-6.47C204.35,197.83,203.12,195.21,202.39,196.41L202.39,196.41z"/>
	<path style="clip-path:url(#SVGID_00000124145699292095047260000016961505610185591181_);fill:#20380E;" d="M193.68,200.66
		c-0.14,1.95-1.14,3.76-1.77,5.58c-0.59,1.71-0.67,3.5-1.49,5.14c-0.44,0.87,0.83,3.49,1.44,2.25c0.99-1.99,1.13-4.21,1.9-6.28
		c0.69-1.85,1.48-3.62,1.62-5.62C195.46,200.59,193.81,198.72,193.68,200.66L193.68,200.66z"/>
	<path style="clip-path:url(#SVGID_00000124145699292095047260000016961505610185591181_);fill:#20380E;" d="M188.52,202.69
		c-1.63,2.25-2.66,4.77-4.05,7.15c-1.1,1.89-2.31,3.67-2.34,5.92c-0.01,1.12,1.68,3.01,1.7,1.08c0.02-2.13,1.74-4.01,2.67-5.83
		c1.07-2.09,2.08-4.16,3.46-6.06C190.55,204.15,189.37,201.53,188.52,202.69L188.52,202.69z"/>
	<path style="clip-path:url(#SVGID_00000124145699292095047260000016961505610185591181_);fill:#20380E;" d="M179.46,206.14
		c-0.02,1.73-1.14,3.28-1.98,4.73c-0.97,1.68-1.62,3.59-2.34,5.39c-0.36,0.9,0.95,3.49,1.44,2.25c0.86-2.13,1.69-4.27,2.85-6.26
		c0.91-1.57,1.71-3.18,1.73-5.03c0.01-0.65-0.23-1.5-0.81-1.88C179.77,204.98,179.46,205.67,179.46,206.14L179.46,206.14z"/>
	<path style="clip-path:url(#SVGID_00000124145699292095047260000016961505610185591181_);fill:#20380E;" d="M173.08,208.38
		c-1.98,3.9-3.71,8.04-7.15,10.91c-0.8,0.67,0.25,3.4,1.16,2.64c3.55-2.97,5.37-7.26,7.42-11.3
		C174.97,209.75,173.7,207.15,173.08,208.38L173.08,208.38z"/>
	<path style="clip-path:url(#SVGID_00000124145699292095047260000016961505610185591181_);fill:#20380E;" d="M164.83,210.15
		c-0.72,4.85-4.92,8.16-6.17,12.84c-0.26,0.96,1.19,3.36,1.63,1.72c1.25-4.69,5.43-7.92,6.17-12.84
		C166.61,210.91,165.08,208.5,164.83,210.15z"/>
	<path style="clip-path:url(#SVGID_00000124145699292095047260000016961505610185591181_);fill:#20380E;" d="M156.3,212.91
		c-1.76,4.21-4.77,7.81-5.55,12.4c-0.16,0.96,1.34,3.37,1.63,1.72c0.75-4.38,3.7-7.84,5.38-11.87
		C158.12,214.27,156.82,211.68,156.3,212.91L156.3,212.91z"/>
	<path style="clip-path:url(#SVGID_00000124145699292095047260000016961505610185591181_);fill:#20380E;" d="M149.3,215.36
		c-1.33,2.24-2.99,4.25-4.46,6.4c-1.29,1.9-2.99,3.72-3.67,5.95c-0.3,0.96,1.13,3.35,1.63,1.72c0.59-1.91,2.4-3.71,3.49-5.41
		c1.4-2.19,3.12-4.15,4.46-6.4C151.25,216.77,150.02,214.15,149.3,215.36L149.3,215.36z"/>
	<path style="clip-path:url(#SVGID_00000124145699292095047260000016961505610185591181_);fill:#20380E;" d="M141.91,216.39
		c-2.24,4.56-6.94,7.25-9.12,11.87c-0.42,0.88,0.87,3.48,1.44,2.25c2.17-4.6,6.86-7.3,9.12-11.87
		C143.78,217.76,142.52,215.15,141.91,216.39z"/>
	<path style="clip-path:url(#SVGID_00000124145699292095047260000016961505610185591181_);fill:#20380E;" d="M133.62,216.74
		c-1.48,1.89-2.78,3.9-4.04,5.93c-1.07,1.73-2.58,3.4-3.27,5.33c-0.24,0.67-0.12,1.43,0.27,2.03c0.22,0.34,0.94,0.9,1.18,0.23
		c0.62-1.75,1.95-3.17,2.91-4.74c1.28-2.11,2.59-4.19,4.12-6.13C135.44,218.55,134.27,215.91,133.62,216.74z"/>
	<path style="clip-path:url(#SVGID_00000124145699292095047260000016961505610185591181_);fill:#20380E;" d="M127.98,216.84
		c-2.59,0.92-4.29,2.9-6.17,4.81c-1.03,1.05-2.34,1.74-3.49,2.66c-0.99,0.79-1.62,2.09-2.49,2.99c-0.73,0.76,0.38,3.46,1.16,2.64
		c0.73-0.76,1.29-1.59,1.94-2.42c0.87-1.12,2.31-1.81,3.43-2.66c2.31-1.72,3.54-4.16,6.41-5.18
		C129.82,219.32,128.98,216.49,127.98,216.84z"/>
	<path style="clip-path:url(#SVGID_00000124145699292095047260000016961505610185591181_);fill:#20380E;" d="M117.03,215.97
		c-3.79,2.23-6.93,5.95-8.98,9.82c-0.46,0.86,0.8,3.48,1.44,2.25c1.98-3.73,5.05-7.26,8.71-9.42
		C119.05,218.11,118.12,215.33,117.03,215.97L117.03,215.97z"/>
	<path style="clip-path:url(#SVGID_00000124145699292095047260000016961505610185591181_);fill:#20380E;" d="M108.24,214.69
		c-2.61,2.97-4.91,6.18-7.42,9.22c-0.67,0.82,0.47,3.48,1.16,2.64c2.51-3.05,4.81-6.26,7.42-9.22
		C110.09,216.54,108.97,213.87,108.24,214.69z"/>
	<path style="clip-path:url(#SVGID_00000124145699292095047260000016961505610185591181_);fill:#20380E;" d="M101.35,212.84
		c-0.14,1.47-1.97,2.68-2.81,3.78c-1.27,1.67-2.37,3.43-3.48,5.22c-0.52,0.84,0.7,3.45,1.44,2.25c1.24-2.01,2.43-4.06,4.03-5.81
		c1.24-1.35,2.35-2.46,2.52-4.36C103.16,212.77,101.53,210.91,101.35,212.84z"/>
	<path style="clip-path:url(#SVGID_00000124145699292095047260000016961505610185591181_);fill:#20380E;" d="M95.52,209.91
		c-1.2,1.39-2.61,2.56-3.95,3.82c-1.58,1.49-2.73,3.38-4.08,5.06c-0.65,0.83,0.5,3.48,1.16,2.64c1.21-1.52,2.28-3.14,3.6-4.58
		c1.39-1.52,3.07-2.73,4.43-4.3C97.38,211.75,96.24,209.08,95.52,209.91z"/>
	<path style="clip-path:url(#SVGID_00000124145699292095047260000016961505610185591181_);fill:#20380E;" d="M87.17,207.26
		c-1.29,3.22-4.61,5.19-6.71,7.85c-0.65,0.83,0.5,3.48,1.16,2.64c2.2-2.79,5.64-4.84,7-8.24c0.26-0.66,0.11-1.44-0.27-2.03
		C88.12,207.12,87.44,206.6,87.17,207.26z"/>
	<path style="clip-path:url(#SVGID_00000124145699292095047260000016961505610185591181_);fill:#20380E;" d="M80.76,204.43
		c-1.71,3.08-5.49,4.15-7.36,7.16c-0.52,0.84,0.7,3.45,1.44,2.25c1.86-2.99,5.61-4.02,7.36-7.16
		C82.68,205.81,81.44,203.2,80.76,204.43z"/>
	<path style="clip-path:url(#SVGID_00000124145699292095047260000016961505610185591181_);fill:#20380E;" d="M73.11,199.23
		c-2.26,2.52-4.79,4.78-7.24,7.13c-0.76,0.72,0.33,3.44,1.16,2.64c2.44-2.34,4.97-4.6,7.24-7.13
		C74.98,201.09,73.85,198.41,73.11,199.23z"/>
	<path style="clip-path:url(#SVGID_00000124145699292095047260000016961505610185591181_);fill:#20380E;" d="M67.11,195.81
		c-1.68,2.56-4.72,3.79-6.42,6.39c-0.54,0.82,0.67,3.44,1.44,2.25c1.68-2.58,4.72-3.8,6.42-6.39
		C69.09,197.23,67.89,194.62,67.11,195.81z"/>
	<path style="clip-path:url(#SVGID_00000124145699292095047260000016961505610185591181_);fill:#20380E;" d="M62.27,191.49
		c-1.8,2.14-4.31,3.52-6.11,5.66c-0.67,0.81,0.46,3.47,1.16,2.64c1.8-2.14,4.31-3.52,6.11-5.66
		C64.1,193.33,62.97,190.66,62.27,191.49z"/>
	<path style="clip-path:url(#SVGID_00000124145699292095047260000016961505610185591181_);fill:#20380E;" d="M56.18,186.14
		c-1.55,2.07-3.8,3.42-5.58,5.26c-0.73,0.75,0.37,3.45,1.16,2.64c1.79-1.84,4.03-3.19,5.58-5.26
		C57.97,187.94,56.8,185.31,56.18,186.14z"/>
	<path style="clip-path:url(#SVGID_00000124145699292095047260000016961505610185591181_);fill:#20380E;" d="M51.67,179.59
		c-1.94,1.71-3.61,3.69-5.36,5.58c-0.71,0.77,0.41,3.46,1.16,2.64c1.76-1.89,3.42-3.87,5.36-5.58
		C53.61,181.54,52.56,178.82,51.67,179.59z"/>
	<path style="clip-path:url(#SVGID_00000124145699292095047260000016961505610185591181_);fill:#20380E;" d="M47.06,173
		c-0.1,2.19-2.59,4.16-4.15,5.43c-0.8,0.66,0.24,3.39,1.16,2.64c2.14-1.76,4.55-4.03,4.69-7c0.03-0.65-0.24-1.51-0.81-1.88
		C47.36,171.84,47.07,172.53,47.06,173L47.06,173z"/>
	<path style="clip-path:url(#SVGID_00000124145699292095047260000016961505610185591181_);fill:#20380E;" d="M43.42,165.9
		c-0.35,1.79-1.68,3.2-3.33,3.92c-1.04,0.46-0.15,3.26,0.79,2.85c2.13-0.94,3.71-2.75,4.16-5.06c0.13-0.68-0.08-1.51-0.56-2.02
		C44.08,165.16,43.54,165.28,43.42,165.9L43.42,165.9z"/>
	<path style="clip-path:url(#SVGID_00000124145699292095047260000016961505610185591181_);fill:#20380E;" d="M41.45,158.77
		c-0.38,1.29-1.7,1.92-2.77,2.55c-0.85,0.5,0.09,3.27,1.16,2.64c1.5-0.89,2.71-1.71,3.24-3.47c0.19-0.64-0.11-1.54-0.56-2.02
		C42.07,158,41.62,158.2,41.45,158.77z"/>
	<path style="clip-path:url(#SVGID_00000124145699292095047260000016961505610185591181_);fill:#94B73D;" d="M149.78,97.91
		c-73.12,12.62-101.86,32.96-107.76,42.85c-1.38,10.6,1.39,36.04,23.54,53c27.69,21.2,50.37,24.34,73.77,23.74
		c23.41-0.6,59.14-20.53,99.03-33.95s39.41-4.53,81.67-17.93c44.42-14.09,26.66-56.9,5.44-78.13C304.26,66.27,247.4,73.79,243.03,75
		C225.1,76.67,173.99,91,149.78,97.91z"/>
	<path style="clip-path:url(#SVGID_00000124145699292095047260000016961505610185591181_);fill:#FFFFFF;" d="M245.5,100.95
		c-4.5,1.76-9.15,3.57-13.78,5.41c1.88,2.35,5.48,6.44,7.77,8.32c2.6-2.35,4.49-4.18,6.48-6.11c2.08-2.01,4.23-4.1,7.25-6.82
		c0.24-0.22,0.6-0.23,0.85-0.02c0.25,0.2,0.31,0.56,0.15,0.84c-3.7,6.29-6.32,11.31-8.99,17.23c1.38,1.76,3.65,4.12,5.67,6.21
		c0.86,0.89,1.69,1.75,2.4,2.51c2.12-11.16,3.84-21.89,5.25-32.7C254.23,97.54,249.8,99.27,245.5,100.95L245.5,100.95z
		 M237.56,119.57c-0.34,0.52-0.66,1.03-0.98,1.53c1.06-0.22,2.05-0.57,3.08-0.93c1.39-0.49,2.82-1,4.47-1.18c0.01,0,0.02,0,0.04,0
		c2.1-4.64,4.18-8.75,6.79-13.37c-1.5,1.41-2.8,2.66-4.07,3.89c-2.01,1.95-4.09,3.97-6.92,6.52c-0.07,0.06-0.15,0.11-0.24,0.13
		c-0.02,0.05-0.04,0.09-0.06,0.13C238.89,117.5,238.21,118.55,237.56,119.57L237.56,119.57z M259.75,94.29
		c0.18,0.14,0.28,0.37,0.25,0.6c-1.49,11.63-3.34,23.14-5.65,35.18c-0.05,0.25-0.23,0.44-0.47,0.51c-0.24,0.07-0.5-0.01-0.67-0.2
		c-0.81-0.91-1.99-2.14-3.25-3.44c-2.15-2.22-4.58-4.74-5.97-6.59c-1.38,0.19-2.6,0.62-3.89,1.07c-1.39,0.49-2.82,1-4.47,1.18
		c-0.06,0.01-0.11,0-0.17-0.01c-0.18,0.06-0.38,0.04-0.55-0.07c-0.18-0.11-0.29-0.3-0.3-0.5c-0.01-0.14,0.02-0.28,0.1-0.41
		c0.59-0.93,1.16-1.81,1.76-2.75c0.65-1.01,1.33-2.06,2.09-3.26c-2.8-2.34-7.05-7.36-8.4-9.13c-0.08-0.1-0.12-0.22-0.13-0.34
		c-0.01-0.08,0-0.16,0.02-0.23c0.05-0.2,0.2-0.36,0.39-0.43c4.9-1.95,9.84-3.88,14.6-5.74c4.64-1.81,9.44-3.68,14.08-5.53
		C259.32,94.11,259.56,94.14,259.75,94.29L259.75,94.29z"/>
	<path style="clip-path:url(#SVGID_00000124145699292095047260000016961505610185591181_);fill:#FFFFFF;" d="M231.97,134.47
		c-1.35,0.3-2.6,0.87-3.66,1.65c0.12,0.85,0.44,2.03,1.3,2.96c1.12,1.2,3.02,1.73,4.85,1.35c0.88-0.19,1.64-0.55,2.19-1.06
		c0.6-0.54,0.96-1.29,0.98-2c0-0.08,0-0.16-0.01-0.24c-0.09-0.99-0.84-1.97-1.89-2.45C234.45,134.1,232.98,134.24,231.97,134.47
		L231.97,134.47z M236.27,133.48c1.63,0.74,2.7,2.32,2.67,3.91c-0.02,1.07-0.53,2.14-1.4,2.94c-0.72,0.66-1.7,1.14-2.81,1.37
		c-2.27,0.48-4.66-0.2-6.08-1.74c-0.82-0.89-1.26-1.93-1.48-2.84c-0.35,0.37-0.67,0.78-0.95,1.21c-1.28,2.01-1.54,4.63-0.64,6.67
		c0.94,2.15,3.15,3.62,5.38,3.58c0.36-0.01,0.66,0.28,0.67,0.64c0.01,0.36-0.28,0.66-0.64,0.67c-2.74,0.06-5.45-1.74-6.61-4.36
		c-0.34-0.77-0.54-1.6-0.62-2.45c-0.16-1.85,0.3-3.8,1.36-5.45c0.5-0.78,1.11-1.48,1.83-2.09c-0.05-0.98,0.05-2.05,0.3-3.32
		c0.43-2.15,1.1-3.91,2.04-5.38c1.14-1.78,2.74-3.12,4.49-3.77c0.34-0.13,0.72,0.05,0.84,0.39c0.13,0.34-0.05,0.72-0.39,0.84
		c-1.49,0.55-2.85,1.71-3.84,3.25c-0.86,1.33-1.46,2.94-1.86,4.93c-0.15,0.78-0.25,1.47-0.28,2.1c1.03-0.64,2.2-1.12,3.43-1.39
		C233.42,132.8,235,132.9,236.27,133.48L236.27,133.48z"/>
	<path style="clip-path:url(#SVGID_00000124145699292095047260000016961505610185591181_);fill:#FFFFFF;" d="M112.47,147.76
		l31.79,8.18c5.78,1.49,12.14,0.57,17.43-2.53c3.33-1.95,6.46-3.93,9.5-5.96c-5.97-3.3-12.06-6.3-17.96-9.21l-0.01,0
		c-0.59-0.29-0.82-1-0.54-1.58c0.29-0.59,1-0.83,1.58-0.54c6.26,3.08,12.74,6.27,19.08,9.83c0.01,0,0.01,0.01,0.01,0.01
		c6.05-4.17,11.79-8.58,18.05-13.4l0.29-0.23c0.73-0.56,1.05-1.33,0.87-2.05c-0.2-0.76-0.88-1.29-1.84-1.43
		c-5.63-0.84-10.87-1.83-15.93-2.78c-4.84-0.91-9.85-1.85-15.18-2.67c-4.88-0.75-10,0.13-14.42,2.47l-1.09,0.57
		c-11.03,5.84-21.46,11.36-32.05,17.69c-0.85,0.51-1.29,1.29-1.18,2.08C111,146.96,111.58,147.54,112.47,147.76L112.47,147.76z
		 M128.2,172.19c0.52,1.84,1.05,3.73,2.48,5.05c2.15,1.98,6.23,2.46,9.21,2.81c1.61,0.19,3.21,0.38,4.83,0.56
		c9.8,1.08,20.03-0.88,28.8-5.53c1.6-0.85,3.03-1.62,4.28-2.31c-1.52-5.22-4.48-17.09-5.71-23.09c-2.93,1.96-5.97,3.88-9.2,5.76
		c-2.35,1.37-4.88,2.36-7.49,2.93c-3.87,0.86-7.91,0.82-11.72-0.16l-20.92-5.38L128.2,172.19L128.2,172.19z M188.74,164.34
		c0.8-1.8,0.49-3.74,0.19-5.62l-3.03-18.97c-3.91,2.96-7.73,5.78-11.7,8.5c1.02,5.26,4.09,17.66,5.71,23.33
		c0.41-0.23,0.79-0.46,1.14-0.67C183.78,169.3,187.52,167.08,188.74,164.34z M178.95,182.75c0.92,1.71,2.71,2.93,4.64,3.31
		c-0.83-1.25-1.41-2.65-1.24-4.21c0.06-0.58,0.23-1.12,0.38-1.59c0.1-0.32,0.19-0.62,0.25-0.9c0.2-1.05-0.09-2.2-0.78-3.02
		c-0.54-0.65-1.34-1.1-2.18-1.26c-0.03,0.03-0.05,0.06-0.08,0.09C178.1,177.13,177.67,180.39,178.95,182.75L178.95,182.75z
		 M110.86,142.11c10.65-6.36,21.1-11.9,32.16-17.75l1.08-0.57c4.86-2.58,10.5-3.54,15.88-2.72c5.37,0.82,10.4,1.77,15.26,2.68
		c5.04,0.95,10.25,1.93,15.84,2.77c1.9,0.28,3.34,1.5,3.78,3.18c0.43,1.65-0.23,3.38-1.71,4.52l-0.29,0.23
		c-1.64,1.26-3.24,2.49-4.82,3.7l3.23,20.22c0.32,2.01,0.72,4.51-0.37,6.95c-1.53,3.43-5.64,5.87-8.64,7.65
		c-0.13,0.08-0.27,0.16-0.41,0.25c0.83,0.37,1.58,0.93,2.17,1.64c1.14,1.37,1.62,3.23,1.28,4.98c-0.08,0.41-0.2,0.79-0.31,1.16
		c-0.13,0.41-0.25,0.79-0.28,1.14c-0.16,1.5,1.01,2.99,2.22,4.38c0.28,0.32,0.36,0.77,0.22,1.17c-0.14,0.38-0.46,0.67-0.86,0.76
		c-0.02,0-0.04,0.01-0.05,0.01c-3.66,0.63-7.6-1.28-9.35-4.56c-1.27-2.36-1.32-5.28-0.3-7.75c-0.62,0.33-1.27,0.68-1.95,1.04
		c-4.14,2.19-8.6,3.82-13.18,4.83c-5.58,1.24-11.35,1.58-16.98,0.96c-1.62-0.18-3.23-0.37-4.85-0.56c-3.3-0.39-7.82-0.92-10.53-3.42
		c-1.92-1.76-2.6-4.19-3.15-6.15l-5.66-20.12c-0.05-0.17-0.05-0.35-0.02-0.52l-8.36-2.15c-1.81-0.47-3.08-1.8-3.32-3.49
		C108.31,144.82,109.2,143.12,110.86,142.11L110.86,142.11z"/>
	<path style="clip-path:url(#SVGID_00000124145699292095047260000016961505610185591181_);fill:#20380E;" d="M40.74,149.55
		c3.28-12.07,13.81-20.04,24.3-25.78c12.81-7.02,27.06-11.36,41.12-15.09c12.9-3.42,25.99-6.05,39.01-8.97
		c16.12-3.62,31.88-8.79,47.79-13.2c20.62-5.71,41.57-10.68,62.94-12.46c18.39-1.52,38.7-1.01,55.87,6.49
		c29.28,12.79,46.02,55.95,25.79,82.79c-0.92,1.22-5.18,4.7-5.03,6.15c0.35,3.37,0.49,6.74,0.43,10.12
		c-0.17,9.97-2.56,19.81-7.19,28.65c0.64-0.01,1.28-0.02,1.92-0.03c-2.67-3.56-5.66-6.88-8.7-10.12c-3.03-3.21-6.23-6.26-9.55-9.16
		c-1.87-1.64-3.81-3.19-5.78-4.7c-1.61-1.24-3.78-3.48-5.73-3.99c-1.52-0.4-4,0.46-5.51,0.68c-2.39,0.32-4.77,0.69-7.17,0.93
		c-9.99,0.99-19.84,3.18-29.5,5.86c-20.99,5.85-41.12,14.48-61.37,22.43c-10.13,3.98-20.31,7.8-30.68,11.13
		c-9,2.89-18.36,5.74-27.75,6.98c-22.47,2.95-46.83-6.39-65.19-18.72C50.97,196.24,34.98,174.44,40.74,149.55
		c0.32-1.39-1.83-1.96-2.14-0.56c-6.91,29.88,15.47,54.27,39.8,67.83c12.69,7.07,26.84,11.86,41.28,13.59
		c16.18,1.94,31.82-2.8,47.08-7.77c33.82-11.01,65.76-27.62,100.57-35.55c6.78-1.54,13.62-2.36,20.49-3.3
		c2.23-0.3,4.47-0.61,6.71-0.91c0.87-0.12,1.73-0.23,2.6-0.35c1.19-0.16,4.1,2.67,4.98,3.33c8.8,6.6,17.06,14.7,23.67,23.53
		c0.47,0.63,1.5,0.78,1.92-0.03c4.23-8.07,6.54-16.76,7.29-25.81c0.3-3.66,0.27-7.34,0.03-11c-0.13-1.95-0.29-2.53,1.06-4
		c1.27-1.36,2.43-2.81,3.55-4.28c8.84-11.73,10.62-26.13,7.61-40.25c-3.27-15.43-11.72-30.29-24.51-39.72
		c-13.07-9.64-30.08-12.12-45.87-12.88c-41.34-2.01-81.69,12.38-120.93,23.35c-25.46,7.12-51.7,10.53-76.52,20.05
		c-16.2,6.21-35.87,15.97-40.82,34.17C38.22,150.37,40.36,150.93,40.74,149.55L40.74,149.55z"/>
	<path style="clip-path:url(#SVGID_00000124145699292095047260000016961505610185591181_);fill:#20380E;" d="M92.02,445.89h113.39
		c5.39,0,9.77,4.37,9.77,9.77v4.97H153.6H92.02V445.89z"/>
	<path style="clip-path:url(#SVGID_00000124145699292095047260000016961505610185591181_);fill:#20380E;" d="M116.45,460.63H41.19
		L6.45,353.62c-1.88-5.69,2.35-11.55,8.35-11.55h52.57c6.27,0,11.83,4.02,13.81,9.98l35.26,106.58V460.63z"/>
	<path style="clip-path:url(#SVGID_00000124145699292095047260000016961505610185591181_);fill:#FFFFFF;" d="M63.2,400.09
		c2.07,5.32,0.84,10.76-2.75,12.14s-8.15-1.81-10.21-7.13s-0.84-10.76,2.75-12.14S61.15,394.76,63.2,400.09z"/>
	<path style="clip-path:url(#SVGID_00000124145699292095047260000016961505610185591181_);fill:#20380E;" d="M54.76,394.04
		c-0.44,0-0.86,0.07-1.25,0.23c-1.27,0.5-2.21,1.77-2.62,3.58c-0.45,2.02-0.21,4.42,0.68,6.72c1.74,4.5,5.58,7.4,8.38,6.31
		c2.8-1.08,3.68-5.8,1.94-10.32c-0.89-2.31-2.32-4.25-4.02-5.44c-1.06-0.74-2.12-1.12-3.1-1.12L54.76,394.04z M58.67,413.97
		c-3.79,0-7.77-3.27-9.74-8.37c-1.09-2.83-1.39-5.8-0.81-8.37c0.62-2.77,2.18-4.76,4.36-5.61c2.18-0.85,4.67-0.41,6.99,1.2
		c2.15,1.5,3.95,3.89,5.04,6.72c2.38,6.14,0.82,12.29-3.55,13.97c-0.75,0.28-1.51,0.42-2.29,0.42V413.97z"/>
	<polygon style="clip-path:url(#SVGID_00000124145699292095047260000016961505610185591181_);fill:#20380E;" points="215.46,346.48 
		211.77,351.58 170.89,321.94 170.79,321.86 167.68,315.71 174.35,316.74 174.49,316.76 	"/>
	<path style="clip-path:url(#SVGID_00000124145699292095047260000016961505610185591181_);fill:#20380E;" d="M449.62,441.28
		c0,7.11-5.71,13.57-13.58,13.57H227.12c0,0,54.53-100.61,80.37-95.69c1.6,0.3,3.06,0.51,4.39,0.61c22.2,1.77,7.77-22.68,7.77-22.68
		l27.47-15.76c0,0,1.8,27.92,6.76,33.32c1.76,1.92,6.42,2.14,12.2,1.71c10.49-0.77,24.67-3.62,31.92-2.16
		c8.02,1.61,35.15,51.98,50.09,80.85C449.14,437.09,449.62,439.22,449.62,441.28L449.62,441.28z"/>
	<path style="clip-path:url(#SVGID_00000124145699292095047260000016961505610185591181_);fill:#FFFFFF;" d="M407.5,455.31h27.47
		c0,0-16.31-30.56-41.7-28.56c-25.39,1.99-53.3,14.15-53.3,14.15l-20.64-6.88c-6.94-2.32-14.57,0.34-18.58,6.47l-9.69,14.82
		L407.5,455.31L407.5,455.31z"/>
	<g style="clip-path:url(#SVGID_00000124145699292095047260000016961505610185591181_);">
		<defs>
			<path id="SVGID_00000039129701307790870500000017526713412791172022_" d="M407.5,455.31h27.47c0,0-16.31-30.56-41.7-28.56
				c-25.39,1.99-53.3,14.15-53.3,14.15l-20.64-6.88c-6.94-2.32-14.57,0.34-18.58,6.47l-9.69,14.82L407.5,455.31L407.5,455.31z"/>
		</defs>
		<clipPath id="SVGID_00000112596289276436700590000001981152382428233130_">
			<use xlink:href="#SVGID_00000039129701307790870500000017526713412791172022_"  style="overflow:visible;"/>
		</clipPath>
		<path style="clip-path:url(#SVGID_00000112596289276436700590000001981152382428233130_);fill:#20380E;" d="M409.5,455.31
			L409.5,455.31l-4-0.01v0.01H409.5z M291.06,457.31H407.5v-4H291.06V457.31z M299.08,439.39l-9.69,14.82l3.35,2.19l9.69-14.82
			L299.08,439.39z M319.96,432.12c-7.8-2.6-16.38,0.39-20.88,7.27l3.35,2.19c3.51-5.37,10.19-7.69,16.27-5.67L319.96,432.12z
			 M340.6,439l-20.64-6.88l-1.27,3.79l20.64,6.88L340.6,439z M393.11,424.75c-12.92,1.02-26.42,4.61-36.63,7.92
			c-5.12,1.66-9.44,3.25-12.48,4.44c-1.52,0.59-2.72,1.08-3.55,1.42c-0.41,0.17-0.73,0.3-0.95,0.4c-0.11,0.05-0.19,0.08-0.25,0.11
			c-0.03,0.01-0.05,0.02-0.06,0.03c-0.01,0-0.01,0.01-0.02,0.01c0,0,0,0,0,0c0,0,0,0,0,0c0,0,0,0,0.8,1.83
			c0.8,1.83,0.8,1.83,0.8,1.83c0,0,0,0,0,0c0,0,0,0,0,0c0,0,0.01,0,0.01-0.01c0.01-0.01,0.03-0.01,0.06-0.02
			c0.05-0.02,0.13-0.05,0.23-0.1c0.21-0.09,0.51-0.22,0.91-0.38c0.8-0.33,1.98-0.81,3.47-1.39c2.99-1.16,7.23-2.73,12.27-4.36
			c10.09-3.27,23.24-6.75,35.71-7.73L393.11,424.75z M434.96,455.31c1.76-0.94,1.76-0.94,1.76-0.94c0,0,0,0,0,0c0,0,0,0,0-0.01
			c0-0.01-0.01-0.01-0.01-0.02c-0.01-0.02-0.02-0.04-0.04-0.08c-0.04-0.06-0.09-0.16-0.15-0.28c-0.13-0.24-0.33-0.58-0.59-1.01
			c-0.51-0.86-1.27-2.08-2.26-3.53c-1.97-2.9-4.88-6.76-8.61-10.56c-7.41-7.55-18.38-15.19-31.95-14.13l0.31,3.99
			c11.82-0.93,21.69,5.71,28.79,12.94c3.52,3.59,6.28,7.24,8.16,10.01c0.94,1.38,1.65,2.53,2.13,3.33c0.24,0.4,0.42,0.71,0.54,0.92
			c0.06,0.1,0.1,0.18,0.13,0.24c0.01,0.03,0.02,0.04,0.03,0.06c0,0.01,0.01,0.01,0.01,0.01c0,0,0,0,0,0c0,0,0,0,0,0
			C433.2,456.25,433.2,456.25,434.96,455.31z M407.5,457.31h27.47v-4H407.5V457.31z M407.5,455.31v2h2v-2H407.5z M291.06,455.31
			l-1.67-1.09l-2.02,3.09h3.7V455.31z M300.75,440.49l-1.67-1.09l0,0L300.75,440.49z M319.33,434.02l-0.63,1.9l0,0L319.33,434.02z
			 M339.96,440.9l-0.63,1.9l0.73,0.24l0.7-0.31L339.96,440.9z M434.96,455.31v2h3.33l-1.57-2.94L434.96,455.31z M407.5,455.31v-2h-2
			v2H407.5z"/>
	</g>
	<polygon style="clip-path:url(#SVGID_00000124145699292095047260000016961505610185591181_);fill:#FFFFFF;" points="174.35,316.74 
		170.89,321.94 170.79,321.86 169.23,318.76 167.68,315.71 170.86,316.2 	"/>
	<g style="clip-path:url(#SVGID_00000124145699292095047260000016961505610185591181_);">
		<defs>
			<polygon id="SVGID_00000054263227079975556190000005279163846208118184_" points="174.35,316.74 170.89,321.94 170.79,321.86 
				169.23,318.76 167.68,315.71 170.86,316.2 			"/>
		</defs>
		<clipPath id="SVGID_00000030450567605764585220000006260007972574381463_">
			<use xlink:href="#SVGID_00000054263227079975556190000005279163846208118184_"  style="overflow:visible;"/>
		</clipPath>
		<path style="clip-path:url(#SVGID_00000030450567605764585220000006260007972574381463_);fill:#20380E;" d="M170.78,316.69
			l3.5,0.54l0.15-0.99l-3.5-0.54L170.78,316.69z M167.61,316.2l3.17,0.49l0.15-0.99l-3.17-0.49L167.61,316.2z M169.67,318.53
			l-1.54-3.05l-0.89,0.45l1.54,3.05L169.67,318.53z M171.23,321.64l-1.56-3.1l-0.89,0.45l1.56,3.1L171.23,321.64z M171.18,321.53
			l-0.1-0.07l-0.59,0.81l0.1,0.07L171.18,321.53z M173.94,316.46l-3.46,5.2l0.83,0.55l3.46-5.2L173.94,316.46z M170.86,316.2
			l0.08-0.49h0L170.86,316.2z M167.68,315.71l0.08-0.49l-0.96-0.15l0.44,0.87L167.68,315.71z M169.23,318.76l0.45-0.22l0,0
			L169.23,318.76z M170.79,321.86l-0.45,0.22l0.05,0.11l0.1,0.07L170.79,321.86z M170.89,321.94l-0.29,0.41l0.42,0.3l0.29-0.43
			L170.89,321.94z M174.35,316.74l0.42,0.28l0.43-0.65l-0.77-0.12L174.35,316.74z"/>
	</g>
	<polygon style="clip-path:url(#SVGID_00000124145699292095047260000016961505610185591181_);fill:#3A2B35;" points="170.86,316.2 
		169.23,318.76 167.68,315.71 	"/>
	<path style="clip-path:url(#SVGID_00000124145699292095047260000016961505610185591181_);fill:#FFFFFF;" d="M205.19,334.75
		c-15.77,22.67-3.29,36.83,4.93,41.07v52.98c-1.31,15.44,1.92,21.49,3.7,22.59c16.1,14.13,30.8,8.62,39.02-4.11
		c3.61-10.51-12.46-53.94-20.95-74.34c3.94-5.59,6.57-7.39,6.57-18.07s-17.8-19.99-24.64-13.96
		C211.19,331.05,206.97,332.69,205.19,334.75z"/>
	<path style="clip-path:url(#SVGID_00000124145699292095047260000016961505610185591181_);fill:#20380E;" d="M211.62,428.8v-52.98
		h-3v52.98H211.62z M214.6,450.11c-0.14-0.08-0.52-0.42-0.99-1.27c-0.45-0.82-0.94-2.03-1.35-3.72c-0.82-3.38-1.3-8.58-0.65-16.19
		l-2.99-0.25c-0.67,7.83-0.19,13.37,0.72,17.15c0.46,1.89,1.03,3.36,1.64,4.47c0.6,1.08,1.29,1.91,2.04,2.37L214.6,450.11z
		 M251.57,446.46c-3.95,6.12-9.36,10.35-15.55,11.46c-6.16,1.1-13.41-0.82-21.21-7.67l-1.98,2.25c8.3,7.28,16.44,9.67,23.72,8.37
		c7.24-1.29,13.28-6.18,17.55-12.79L251.57,446.46z M230.5,373.52c4.23,10.17,10.36,26.08,14.96,40.75
		c2.31,7.34,4.22,14.33,5.34,20.11c0.56,2.89,0.91,5.46,1.01,7.6c0.11,2.17-0.05,3.77-0.41,4.81l2.84,0.98
		c0.54-1.58,0.68-3.64,0.57-5.94c-0.11-2.33-0.49-5.04-1.07-8.02c-1.15-5.95-3.1-13.06-5.42-20.45c-4.64-14.78-10.8-30.77-15.06-41
		L230.5,373.52z M236.96,354.87c0,5.22-0.64,8.1-1.67,10.32c-1.07,2.32-2.54,3.93-4.63,6.89l2.45,1.73c1.85-2.63,3.67-4.71,4.9-7.36
		c1.27-2.75,1.95-6.12,1.95-11.58H236.96z M214.8,342.03c1.31-1.15,3.25-1.67,5.64-1.49c2.38,0.17,5.03,1.03,7.54,2.4
		c5.11,2.8,8.98,7.4,8.98,11.93h3c0-6.15-5.03-11.54-10.53-14.56c-2.8-1.54-5.87-2.55-8.76-2.76c-2.88-0.21-5.73,0.37-7.84,2.23
		L214.8,342.03z M206.32,335.73c0.73-0.84,1.62-1.21,2.36-0.95c0.85,0.3,2.38,1.66,3.68,6.52l2.9-0.77c-1.33-5-3.22-7.74-5.58-8.58
		c-2.47-0.87-4.57,0.61-5.63,1.82L206.32,335.73z M210.81,374.48c-3.83-1.98-8.68-6.3-10.72-12.74c-2.01-6.37-1.35-15.09,6.33-26.14
		l-2.46-1.71c-8.09,11.63-9.08,21.31-6.73,28.75c2.32,7.36,7.82,12.24,12.2,14.51L210.81,374.48z M210.12,428.8l1.49,0.13l0.01-0.06
		v-0.06H210.12z M213.81,451.38l0.99-1.13l-0.1-0.08l-0.11-0.07L213.81,451.38z M252.83,447.28l1.26,0.81l0.1-0.15l0.06-0.17
		L252.83,447.28z M231.88,372.94l-1.23-0.87l-0.48,0.68l0.32,0.76L231.88,372.94z M213.81,340.91l-1.45,0.39l0.62,2.34l1.82-1.6
		L213.81,340.91z M205.19,334.75l-1.13-0.98l-0.05,0.06l-0.05,0.07L205.19,334.75z M210.12,375.82h1.5v-0.91l-0.81-0.42
		L210.12,375.82z"/>
	<path style="clip-path:url(#SVGID_00000124145699292095047260000016961505610185591181_);fill:#20380E;" d="M406.43,414.06
		c0,0-83.97,6.19-102.84-24.04c-25.38-40.69-18.5-77.15-18.5-77.15s-18.5-0.79-14.8-26.95c3.7-26.16,31.19-34.35,31.19-34.35
		c0.1-0.17,4.8-8.21,19.9-12.27c5.65-1.52,12.75-2.48,21.6-2.27c32.78,0.79,51.55,34.61,52.61,66.32
		c1.06,31.71,19.56,63.15,25.38,78.74S406.42,414.06,406.43,414.06L406.43,414.06z"/>
	<path style="clip-path:url(#SVGID_00000124145699292095047260000016961505610185591181_);fill:#FFFFFF;" d="M357.61,355.15
		c-3.37,4.26-9.7,10.29-18.7,10.63c-9.28,0.35-11.84-4.99-12.52-8.63c5.16,0.42,6.88-1.66,7.11-4.31c0.33-3.9-2.63-9.01-2.63-9.01
		l15.82-9.26c0,0,0.37,5.83,1.27,11.21c0.61,3.64,1.47,7.08,2.62,8.36C351.59,355.27,354.28,355.4,357.61,355.15L357.61,355.15z"/>
	<g style="clip-path:url(#SVGID_00000124145699292095047260000016961505610185591181_);">
		<defs>
			<path id="SVGID_00000052797064618731019180000001893780634542071208_" d="M357.61,355.15c-3.37,4.26-9.7,10.29-18.7,10.63
				c-9.28,0.35-11.84-4.99-12.52-8.63c5.16,0.42,6.88-1.66,7.11-4.31c0.33-3.9-2.63-9.01-2.63-9.01l15.82-9.26
				c0,0,0.37,5.83,1.27,11.21c0.61,3.64,1.47,7.08,2.62,8.36C351.59,355.27,354.28,355.4,357.61,355.15L357.61,355.15z"/>
		</defs>
		<clipPath id="SVGID_00000122715892328488705970000014587835795874056322_">
			<use xlink:href="#SVGID_00000052797064618731019180000001893780634542071208_"  style="overflow:visible;"/>
		</clipPath>
		<path style="clip-path:url(#SVGID_00000122715892328488705970000014587835795874056322_);fill:#20380E;" d="M357.61,353.15
			L357.61,353.15l0,4h0V353.15z M349.09,355.48c1.02,1.14,2.6,1.51,3.9,1.67c1.4,0.16,3.06,0.12,4.77,0l-0.3-3.99
			c-1.62,0.12-2.98,0.14-4,0.02c-1.13-0.13-1.4-0.38-1.39-0.37L349.09,355.48z M345.99,346.12c0.31,1.86,0.7,3.71,1.16,5.3
			c0.44,1.49,1.04,3.06,1.94,4.07l2.97-2.68c-0.25-0.28-0.65-1.06-1.08-2.52c-0.4-1.37-0.75-3.05-1.05-4.83L345.99,346.12z
			 M346.69,334.57c-2,0.13-2,0.13-2,0.13c0,0,0,0,0,0c0,0,0,0,0,0c0,0,0,0,0,0c0,0,0,0.01,0,0.01c0,0.01,0,0.03,0,0.05
			c0,0.05,0.01,0.11,0.01,0.2c0.01,0.17,0.03,0.43,0.06,0.75c0.05,0.64,0.12,1.55,0.23,2.63c0.21,2.15,0.53,5.01,0.99,7.77
			l3.94-0.66c-0.44-2.63-0.75-5.38-0.96-7.48c-0.1-1.05-0.17-1.93-0.22-2.55c-0.02-0.31-0.04-0.55-0.05-0.72
			c-0.01-0.08-0.01-0.15-0.01-0.19c0-0.02,0-0.04,0-0.05c0-0.01,0-0.01,0-0.01c0,0,0,0,0,0c0,0,0,0,0,0c0,0,0,0,0,0
			C348.68,334.45,348.68,334.45,346.69,334.57z M331.87,345.55l15.82-9.26l-2.02-3.45l-15.82,9.26L331.87,345.55z M335.48,353.01
			c0.2-2.43-0.6-5.04-1.32-6.87c-0.38-0.95-0.76-1.77-1.05-2.35c-0.15-0.29-0.27-0.52-0.36-0.69c-0.04-0.08-0.08-0.15-0.11-0.19
			c-0.01-0.02-0.02-0.04-0.03-0.05c0-0.01-0.01-0.01-0.01-0.02c0,0,0,0,0-0.01c0,0,0,0,0,0c0,0,0,0,0,0c0,0,0,0-1.73,1
			c-1.73,1-1.73,1-1.73,1c0,0,0,0,0,0c0,0,0,0,0,0c0,0,0,0,0,0c0,0,0,0,0,0.01c0,0.01,0.01,0.02,0.02,0.03
			c0.02,0.03,0.04,0.08,0.08,0.14c0.07,0.13,0.18,0.33,0.3,0.58c0.25,0.5,0.58,1.2,0.91,2.02c0.67,1.7,1.18,3.59,1.06,5.07
			L335.48,353.01z M326.22,359.14c2.82,0.23,5.09-0.19,6.74-1.38c1.71-1.24,2.38-3.04,2.52-4.76l-3.99-0.33
			c-0.08,0.93-0.38,1.49-0.88,1.85c-0.56,0.41-1.73,0.82-4.07,0.63L326.22,359.14z M338.83,363.78c-4.23,0.16-6.63-0.97-8.05-2.29
			c-1.46-1.35-2.13-3.14-2.42-4.71l-3.93,0.73c0.38,2.07,1.33,4.78,3.64,6.92c2.35,2.18,5.87,3.54,10.92,3.35L338.83,363.78z
			 M356.04,353.91c-3.24,4.1-9.09,9.56-17.21,9.87l0.15,4c9.89-0.37,16.71-6.97,20.2-11.39L356.04,353.91z M357.61,355.15l0.15,1.99
			l-0.15-3.99V355.15z M350.58,354.14l-1.49,1.34l0,0L350.58,354.14z M347.96,345.78l-1.97,0.33l0,0L347.96,345.78z M346.69,334.57
			l2-0.13l-0.2-3.24l-2.8,1.64L346.69,334.57z M330.86,343.83l-1.01-1.73l-1.72,1.01l1,1.72L330.86,343.83z M333.49,352.84
			l-1.99-0.17l0,0L333.49,352.84z M326.39,357.15l0.16-1.99l-2.6-0.21l0.47,2.57L326.39,357.15z M338.9,365.78l0.08,2h0
			L338.9,365.78z M357.61,355.15v-2h-0.97l-0.6,0.76L357.61,355.15z"/>
	</g>
	<path style="clip-path:url(#SVGID_00000124145699292095047260000016961505610185591181_);fill:#FFFFFF;" d="M287.82,322.06
		c0,0-3.33-6.37-8.74-0.85c-5.41,5.52,4.93,25.4,16.08,17.3L287.82,322.06z"/>
	<g style="clip-path:url(#SVGID_00000124145699292095047260000016961505610185591181_);">
		<defs>
			<path id="SVGID_00000072989854319439087640000010470735528177335452_" d="M287.82,322.06c0,0-3.33-6.37-8.74-0.85
				c-5.41,5.52,4.93,25.4,16.08,17.3L287.82,322.06z"/>
		</defs>
		<clipPath id="SVGID_00000134212379610658311530000011434470158726097336_">
			<use xlink:href="#SVGID_00000072989854319439087640000010470735528177335452_"  style="overflow:visible;"/>
		</clipPath>
		<path style="clip-path:url(#SVGID_00000134212379610658311530000011434470158726097336_);fill:#20380E;" d="M296.99,337.7
			l-7.34-16.45l-3.65,1.63l7.34,16.45L296.99,337.7z M277.65,319.81c-2,2.04-2.31,5.11-1.89,7.87c0.43,2.85,1.7,5.89,3.52,8.44
			c1.81,2.54,4.29,4.79,7.28,5.77c3.09,1.02,6.49,0.62,9.78-1.77l-2.35-3.24c-2.29,1.66-4.36,1.81-6.17,1.21
			c-1.92-0.64-3.78-2.19-5.27-4.29c-1.49-2.09-2.49-4.55-2.82-6.73c-0.34-2.26,0.08-3.75,0.79-4.47L277.65,319.81z M287.82,322.06
			c1.77-0.93,1.77-0.93,1.77-0.93c0,0,0,0,0,0c0,0,0,0,0,0c0,0,0-0.01-0.01-0.01c0-0.01-0.01-0.02-0.02-0.03
			c-0.01-0.02-0.03-0.05-0.05-0.08c-0.04-0.07-0.09-0.16-0.16-0.26c-0.13-0.21-0.32-0.5-0.57-0.82c-0.48-0.62-1.25-1.45-2.29-2.08
			c-1.07-0.64-2.47-1.08-4.11-0.81c-1.61,0.27-3.2,1.19-4.75,2.77l2.86,2.8c1.15-1.18,2.01-1.53,2.55-1.62
			c0.51-0.09,0.96,0.03,1.4,0.29c0.47,0.28,0.87,0.7,1.18,1.1c0.15,0.19,0.26,0.36,0.33,0.48c0.04,0.06,0.06,0.1,0.07,0.12
			c0.01,0.01,0.01,0.02,0.01,0.02c0,0,0,0,0,0c0,0,0,0,0,0c0,0,0,0,0,0c0,0,0,0,0,0C286.05,322.99,286.05,322.99,287.82,322.06z
			 M295.16,338.51l1.18,1.62l1.31-0.95l-0.66-1.48L295.16,338.51z M287.82,322.06l1.83-0.82l-0.03-0.06l-0.03-0.06L287.82,322.06z"
			/>
	</g>
	<path style="clip-path:url(#SVGID_00000124145699292095047260000016961505610185591181_);fill:#FFFFFF;" d="M371.53,308.31
		l-3.43,10.32c0,0-4.85-4.36-8.67-13.73c-11.59,2.21-32.87,2.13-45.73-23.01c-0.15,0.01-0.3,0.02-0.46,0.03
		c-2.77,1.26-19.57,9.73-16.89,27.9c0,0-5.25,2.45-10.95,2.37c1.77,13.15,6.75,31.32,20.72,36.82c22.69,8.93,45.71-2.62,58.5-17.02
		c0,0,10.91,4.11,18.11-5.33C389.95,317.2,388.67,301.47,371.53,308.31L371.53,308.31z"/>
	<g style="clip-path:url(#SVGID_00000124145699292095047260000016961505610185591181_);">
		<defs>
			<path id="SVGID_00000079468237042066724640000016106476279637584289_" d="M371.53,308.31l-3.43,10.32c0,0-4.85-4.36-8.67-13.73
				c-11.59,2.21-32.87,2.13-45.73-23.01c-0.15,0.01-0.3,0.02-0.46,0.03c-2.77,1.26-19.57,9.73-16.89,27.9c0,0-5.25,2.45-10.95,2.37
				c1.77,13.15,6.75,31.32,20.72,36.82c22.69,8.93,45.71-2.62,58.5-17.02c0,0,10.91,4.11,18.11-5.33
				C389.95,317.2,388.67,301.47,371.53,308.31L371.53,308.31z"/>
		</defs>
		<clipPath id="SVGID_00000103973109136957206070000012007579285425436069_">
			<use xlink:href="#SVGID_00000079468237042066724640000016106476279637584289_"  style="overflow:visible;"/>
		</clipPath>
		<path style="clip-path:url(#SVGID_00000103973109136957206070000012007579285425436069_);fill:#20380E;" d="M369.53,308.3
			L369.53,308.3l4,0v0H369.53z M384.33,327.86c3.86-5.07,5.69-12.07,3.82-17.18c-0.98-2.67-2.98-4.8-6.09-5.65
			c-3-0.82-6.77-0.38-11.26,1.42l1.48,3.72c4.07-1.62,6.89-1.78,8.73-1.27c1.73,0.47,2.81,1.58,3.39,3.17
			c1.25,3.41,0.1,8.99-3.24,13.38L384.33,327.86z M364.63,331.98c-0.71,1.87-0.7,1.87-0.7,1.87c0,0,0,0,0,0c0,0,0,0,0.01,0
			c0,0,0.01,0,0.01,0c0.01,0,0.02,0.01,0.04,0.01c0.03,0.01,0.07,0.03,0.12,0.04c0.1,0.04,0.25,0.08,0.43,0.14
			c0.36,0.11,0.87,0.25,1.5,0.38c1.26,0.26,3.01,0.51,5.03,0.42c4.08-0.17,9.22-1.69,13.26-7l-3.18-2.43
			c-3.16,4.15-7.07,5.29-10.25,5.43c-1.61,0.07-3.03-0.13-4.04-0.34c-0.51-0.11-0.9-0.21-1.17-0.29c-0.13-0.04-0.23-0.07-0.29-0.09
			c-0.03-0.01-0.05-0.02-0.06-0.02c-0.01,0-0.01,0-0.01,0c0,0,0,0,0,0c0,0,0,0,0,0c0,0,0,0,0,0
			C365.33,330.11,365.33,330.11,364.63,331.98z M305.39,350.86c23.76,9.35,47.62-2.79,60.73-17.55l-2.99-2.66
			c-12.47,14.04-34.65,25-56.27,16.49L305.39,350.86z M283.42,312.45c0.9,6.68,2.62,14.73,5.95,21.86
			c3.33,7.13,8.37,13.55,16.01,16.55l1.47-3.72c-6.33-2.49-10.76-7.91-13.86-14.53c-3.09-6.62-4.74-14.22-5.61-20.7L283.42,312.45z
			 M296.36,309.81c-0.85-1.81-0.85-1.81-0.85-1.81c0,0,0,0,0,0c0,0,0,0,0,0c0,0,0,0,0,0c0,0,0,0-0.01,0c-0.01,0-0.02,0.01-0.03,0.01
			c-0.03,0.01-0.08,0.04-0.15,0.07c-0.14,0.06-0.34,0.15-0.61,0.25c-0.54,0.21-1.32,0.5-2.27,0.78c-1.91,0.57-4.44,1.11-7.01,1.07
			l-0.06,4c3.13,0.05,6.08-0.6,8.21-1.24c1.08-0.32,1.96-0.64,2.59-0.89c0.31-0.12,0.56-0.23,0.73-0.3c0.09-0.04,0.16-0.07,0.2-0.09
			c0.02-0.01,0.04-0.02,0.06-0.03c0.01,0,0.01-0.01,0.02-0.01c0,0,0,0,0.01,0c0,0,0,0,0,0c0,0,0,0,0,0
			C297.2,311.62,297.2,311.62,296.36,309.81z M312.41,280.09c-1.49,0.68-6.66,3.25-11.12,8.07c-4.51,4.87-8.36,12.11-6.91,21.94
			l3.96-0.59c-1.23-8.34,1.98-14.41,5.89-18.63c3.96-4.27,8.58-6.57,9.85-7.15L312.41,280.09z M313.57,279.89
			c-0.06,0-0.13,0.01-0.21,0.01c-0.07,0-0.16,0.01-0.25,0.01l0.26,3.99c0.06,0,0.13-0.01,0.21-0.01c0.07,0,0.16-0.01,0.25-0.01
			L313.57,279.89z M359.05,302.93c-5.6,1.07-13.43,1.56-21.36-1.17c-7.87-2.71-16.01-8.65-22.21-20.79l-3.56,1.82
			c6.66,13.02,15.58,19.69,24.47,22.75c8.82,3.04,17.42,2.46,23.42,1.32L359.05,302.93z M368.1,318.63
			c1.34-1.49,1.34-1.49,1.34-1.49c0,0,0,0,0,0c0,0,0,0,0,0c0,0,0,0,0,0c0,0,0,0,0,0c0,0-0.01-0.01-0.03-0.02
			c-0.03-0.02-0.07-0.07-0.13-0.12c-0.12-0.12-0.3-0.3-0.54-0.55c-0.47-0.51-1.15-1.29-1.95-2.36c-1.6-2.14-3.68-5.43-5.52-9.94
			l-3.7,1.51c1.98,4.86,4.24,8.44,6.02,10.82c0.89,1.19,1.66,2.08,2.22,2.69c0.28,0.3,0.51,0.53,0.67,0.69
			c0.08,0.08,0.15,0.14,0.19,0.19c0.02,0.02,0.04,0.04,0.06,0.05c0.01,0.01,0.01,0.01,0.02,0.02c0,0,0,0,0.01,0.01c0,0,0,0,0,0
			c0,0,0,0,0,0C366.76,320.11,366.76,320.11,368.1,318.63z M369.64,307.67L366.2,318l3.8,1.26l3.43-10.32L369.64,307.67z
			 M371.53,308.3l-0.74-1.86l-1.26,0.5v1.36H371.53z M382.74,326.64l-1.59-1.21l0,0L382.74,326.64z M364.63,331.98l0.71-1.87
			l-1.29-0.49l-0.91,1.03L364.63,331.98z M306.12,349l-0.73,1.86l0,0L306.12,349z M285.41,312.18l0.03-2l-2.32-0.03l0.31,2.3
			L285.41,312.18z M296.36,309.81l0.85,1.81l1.35-0.63l-0.22-1.47L296.36,309.81z M313.24,281.91l-0.13-2l-0.37,0.02l-0.33,0.15
			L313.24,281.91z M313.7,281.88l1.78-0.91l-0.6-1.17l-1.31,0.09L313.7,281.88z M359.43,304.9l1.85-0.76l-0.62-1.52l-1.61,0.31
			L359.43,304.9z M368.1,318.63l-1.34,1.49l2.27,2.04l0.96-2.9L368.1,318.63z M371.53,308.31l1.9,0.63l0.1-0.31v-0.32H371.53z"/>
	</g>
	<path style="clip-path:url(#SVGID_00000124145699292095047260000016961505610185591181_);fill:#FFFFFF;" d="M369.32,274.08
		c-17.81-35.17-67.98-22.7-68.3-22.63c0.1-0.17,4.77-8.36,19.78-12.5C365.13,240.42,369.32,274.08,369.32,274.08z"/>
	<g style="clip-path:url(#SVGID_00000124145699292095047260000016961505610185591181_);">
		<defs>
			<path id="SVGID_00000084531705018098725750000016594379561985037235_" d="M369.32,274.08c-17.81-35.17-67.98-22.7-68.3-22.63
				c0.1-0.17,4.77-8.36,19.78-12.5C365.13,240.42,369.32,274.08,369.32,274.08z"/>
		</defs>
		<clipPath id="SVGID_00000028297733391909276690000014791645220589143963_">
			<use xlink:href="#SVGID_00000084531705018098725750000016594379561985037235_"  style="overflow:visible;"/>
		</clipPath>
		<path style="clip-path:url(#SVGID_00000028297733391909276690000014791645220589143963_);fill:#20380E;" d="M320.73,240.95
			c21.58,0.72,33.15,9.22,39.36,17.33c3.14,4.09,4.95,8.14,5.98,11.16c0.52,1.51,0.83,2.75,1.02,3.61c0.09,0.43,0.15,0.76,0.19,0.98
			c0.02,0.11,0.03,0.19,0.04,0.24c0,0.02,0.01,0.04,0.01,0.05c0,0,0,0.01,0,0.01c0,0,0,0,0,0c0,0,0,0,0,0c0,0,0,0,1.98-0.25
			c1.98-0.25,1.98-0.25,1.98-0.25c0,0,0,0,0,0c0,0,0-0.01,0-0.01c0-0.01,0-0.02,0-0.03c0-0.02-0.01-0.05-0.01-0.09
			c-0.01-0.08-0.03-0.19-0.05-0.33c-0.05-0.28-0.12-0.67-0.23-1.16c-0.22-0.99-0.57-2.38-1.14-4.05c-1.14-3.34-3.14-7.79-6.59-12.3
			c-6.96-9.09-19.66-18.14-42.41-18.9L320.73,240.95z M302.76,252.43c-0.11,0.19,4.18-7.59,18.57-11.56l-1.06-3.86
			c-15.62,4.31-20.69,12.92-20.99,13.44L302.76,252.43z M371.1,273.17c-9.35-18.47-27.19-24.32-42.32-25.62
			c-7.58-0.65-14.59-0.17-19.71,0.47c-2.56,0.32-4.66,0.68-6.14,0.97c-0.74,0.14-1.32,0.27-1.73,0.36c-0.2,0.05-0.36,0.08-0.47,0.11
			c-0.1,0.02-0.2,0.05-0.18,0.04l0.93,3.89c0.11-0.03,12.48-3.1,26.96-1.86c14.49,1.24,30.64,6.75,39.09,23.44L371.1,273.17z
			 M320.8,238.95l0.07-2l-0.3-0.01l-0.29,0.08L320.8,238.95z M301.02,251.45l-1.74-0.98l-2.26,3.99l4.46-1.06L301.02,251.45z
			 M369.32,274.08l-1.78,0.9l3.77-1.15L369.32,274.08z"/>
	</g>
	
		<ellipse style="clip-path:url(#SVGID_00000124145699292095047260000016961505610185591181_);fill:#20380E;" cx="335.84" cy="319.55" rx="2.41" ry="4.02"/>
	<path style="clip-path:url(#SVGID_00000124145699292095047260000016961505610185591181_);fill:#20380E;" d="M305.43,321.08
		c0.13,2.21,1.31,3.95,2.64,3.87c1.33-0.08,2.3-1.93,2.17-4.15c-0.13-2.21-1.31-3.95-2.64-3.87
		C306.27,317.01,305.3,318.86,305.43,321.08z"/>
	<path style="clip-path:url(#SVGID_00000124145699292095047260000016961505610185591181_);fill:#152409;" d="M331.37,337.72
		c1.25,0.07,2.45,0.2,3.56,0.21c0.55,0,1.08-0.02,1.53-0.11c0.45-0.07,0.81-0.22,1-0.38c0.1-0.07,0.17-0.15,0.24-0.25
		c0.1-0.15,0.18-0.29,0.25-0.45c0.14-0.3,0.22-0.65,0.23-1.08c0.02-0.44-0.05-0.94-0.16-1.48c-0.11-0.54-0.28-1.12-0.43-1.72
		l-0.01-0.06c-0.06-0.23,0.08-0.46,0.31-0.52c0.1-0.03,0.2-0.01,0.29,0.03c0.66,0.32,1.18,0.77,1.64,1.32
		c0.46,0.55,0.84,1.21,1.05,1.99c0.21,0.77,0.23,1.7-0.06,2.55c-0.14,0.43-0.35,0.83-0.59,1.19c-0.29,0.4-0.67,0.76-1.08,1.03
		c-0.42,0.27-0.85,0.43-1.27,0.54c-0.43,0.11-0.83,0.14-1.22,0.15c-0.78,0-1.48-0.12-2.14-0.32c-0.66-0.19-1.28-0.46-1.86-0.78
		c-0.58-0.32-1.12-0.68-1.63-1.14c-0.17-0.16-0.18-0.43-0.03-0.6c0.09-0.1,0.21-0.14,0.33-0.14h0.03V337.72z"/>
	<g style="opacity:0.15;clip-path:url(#SVGID_00000124145699292095047260000016961505610185591181_);">
		<g>
			<defs>
				<rect id="SVGID_00000001623755512863963290000008635205116011135900_" width="460" height="460"/>
			</defs>
			<clipPath id="SVGID_00000045621365130342882250000000857663755881059250_">
				<use xlink:href="#SVGID_00000001623755512863963290000008635205116011135900_"  style="overflow:visible;"/>
			</clipPath>
			<path style="clip-path:url(#SVGID_00000045621365130342882250000000857663755881059250_);fill:#20380E;" d="M223.62,32.69
				c0.27-0.53,0.2-1.23-0.19-1.71c-0.2-0.25-0.68-0.43-1.15-0.48c-0.33-0.04-0.65-0.01-0.86,0.1c-1.13,0.59-0.78,1.76-0.74,1.89
				c0.19,0.56,0.77,1,1.39,1.04C222.7,33.58,223.35,33.22,223.62,32.69z M221.9,34.69c-1.05-0.11-1.99-0.86-2.32-1.83
				c-0.27-0.83-0.3-2.45,1.31-3.29c1.01-0.53,2.76-0.18,3.45,0.68c0.68,0.84,0.8,2.04,0.31,2.98c-0.49,0.94-1.58,1.55-2.65,1.48
				C221.97,34.7,221.94,34.7,221.9,34.69L221.9,34.69z"/>
			<path style="clip-path:url(#SVGID_00000045621365130342882250000000857663755881059250_);fill:#20380E;" d="M231.56,51.63
				c0.09-1.8-1.18-3.41-2.95-3.75c-6.02-1.15-12.07-1.79-17.97-1.9c-1.76-0.03-3.29,1.2-3.64,2.94c-0.25,1.24-0.5,2.61-0.76,4.19
				c-0.16,0.99,0.08,1.97,0.67,2.78c0.59,0.8,1.47,1.31,2.45,1.45c5.97,0.79,11.98,1.58,17.59,2.31c0.03,0,0.06,0.01,0.08,0.01
				c1.93,0.21,3.68-1.11,4-3.04C231.3,54.98,231.48,53.3,231.56,51.63z M221.96,43.44c-0.19,0-0.37-0.01-0.56-0.02
				c-0.16-0.01-0.32-0.02-0.47-0.04c-0.55-0.06-1.1-0.16-1.63-0.3l-0.17,2.23c0.86,0.09,1.72,0.18,2.58,0.29L221.96,43.44
				L221.96,43.44z M231.84,36.3c1.88-3.72,1.4-8.63-1.19-11.95c-1.19-1.53-3.55-2.76-6.3-3.29c-0.43-0.08-0.85-0.15-1.28-0.19
				c-2.28-0.25-4.41,0.05-5.87,0.84c-6.25,3.38-6.15,9.92-5.1,13.25c1.25,3.96,5.19,7.03,9.38,7.31
				C225.66,42.52,229.92,40.07,231.84,36.3L231.84,36.3z M207.04,27.52c0.62,0.43,1.6,0.25,2.03-0.36c0.21-0.29,0.28-0.69,0.21-1.09
				c-0.07-0.4-0.28-0.74-0.58-0.95c-0.18-0.13-0.4-0.2-0.62-0.22c-0.53-0.06-1.11,0.16-1.41,0.59
				C206.25,26.11,206.43,27.09,207.04,27.52L207.04,27.52z M226.91,60.81c-0.04,0-0.07-0.01-0.11-0.01
				c-5.61-0.73-11.62-1.52-17.59-2.31c-1.3-0.17-2.45-0.85-3.24-1.91c-0.79-1.06-1.1-2.36-0.89-3.66c0.18-1.12,0.36-2.13,0.54-3.07
				c-0.13-0.04-0.24-0.11-0.32-0.23c-2.25-3.22-3.51-7.16-3.57-11.09c-0.05-3.93,1.1-7.9,3.26-11.18c0.1-0.15,0.25-0.23,0.41-0.26
				c-0.22-0.75-0.13-1.6,0.33-2.26c0.8-1.15,2.5-1.46,3.65-0.67c0.55,0.38,0.94,1,1.06,1.7c0.13,0.7-0.02,1.42-0.4,1.97
				c-0.55,0.8-1.55,1.19-2.48,1.08c-0.41-0.04-0.82-0.19-1.17-0.43c-0.18-0.12-0.33-0.27-0.47-0.43c-2,3.08-3.07,6.79-3.02,10.46
				c0.05,3.49,1.12,6.99,3.01,9.92c0.56-2.15,2.51-3.66,4.75-3.62c2.42,0.04,4.86,0.18,7.31,0.4l0.19-2.49
				c-3.34-1.25-6.1-4-7.17-7.42c-1.16-3.67-1.27-10.88,5.66-14.63c4.24-2.29,12.05-0.74,14.93,2.95c2.9,3.72,3.42,9.03,1.31,13.2
				c-1.86,3.66-5.7,6.19-9.74,6.57l-0.27,2.36c1.98,0.27,3.97,0.59,5.96,0.97c2.33,0.45,4.01,2.58,3.9,4.96
				c-0.08,1.72-0.26,3.44-0.54,5.11C231.76,59.34,229.45,61.08,226.91,60.81L226.91,60.81z"/>
			<path style="clip-path:url(#SVGID_00000045621365130342882250000000857663755881059250_);fill:#20380E;" d="M228.5,50.65
				c-0.1-0.11-0.22-0.17-0.34-0.19c-0.02,0-0.03,0-0.05,0c-0.11,0-0.22-0.02-0.31-0.08c-0.1,0.03-0.29,0.19-0.34,0.43
				c-0.03,0.15,0.01,0.33,0.11,0.49c0.1,0.15,0.24,0.25,0.38,0.28c0.15,0.03,0.32-0.02,0.46-0.12c0.14-0.1,0.23-0.24,0.25-0.38
				C228.68,50.94,228.62,50.78,228.5,50.65L228.5,50.65z M227.87,52.75c-0.05-0.01-0.09-0.01-0.14-0.02
				c-0.45-0.09-0.86-0.37-1.13-0.78c-0.27-0.41-0.38-0.91-0.28-1.37c0.12-0.57,0.53-1.07,1.05-1.27c0.3-0.12,0.61-0.12,0.88,0
				c0.41,0.03,0.81,0.23,1.11,0.56c0.35,0.38,0.52,0.87,0.46,1.35c-0.05,0.46-0.31,0.9-0.72,1.19
				C228.74,52.67,228.3,52.8,227.87,52.75L227.87,52.75z"/>
			<path style="clip-path:url(#SVGID_00000045621365130342882250000000857663755881059250_);fill:#20380E;" d="M227.9,56.29
				c-0.1-0.11-0.22-0.17-0.34-0.19c-0.02,0-0.03,0-0.05,0c-0.11,0-0.22-0.02-0.31-0.08c-0.1,0.03-0.29,0.19-0.34,0.43
				c-0.03,0.15,0.01,0.33,0.11,0.49c0.1,0.15,0.24,0.25,0.38,0.28c0.14,0.03,0.32-0.02,0.46-0.12c0.14-0.1,0.23-0.24,0.25-0.38
				C228.07,56.58,228.01,56.42,227.9,56.29L227.9,56.29z M227.26,58.39c-0.05-0.01-0.09-0.01-0.14-0.02
				c-0.45-0.09-0.86-0.37-1.13-0.78c-0.27-0.41-0.38-0.91-0.28-1.37c0.12-0.57,0.53-1.07,1.05-1.27c0.3-0.12,0.61-0.12,0.88,0
				c0.41,0.03,0.81,0.23,1.11,0.56c0.35,0.38,0.52,0.87,0.46,1.35c-0.05,0.46-0.31,0.9-0.72,1.19
				C228.13,58.31,227.69,58.44,227.26,58.39L227.26,58.39z"/>
			<path style="clip-path:url(#SVGID_00000045621365130342882250000000857663755881059250_);fill:#20380E;" d="M211.23,48.79
				c-0.1-0.11-0.22-0.17-0.34-0.19c-0.02,0-0.03,0-0.05,0c-0.11,0-0.22-0.02-0.31-0.08c-0.1,0.03-0.29,0.19-0.34,0.43
				c-0.03,0.15,0.01,0.33,0.11,0.49c0.1,0.15,0.24,0.25,0.38,0.28c0.15,0.03,0.32-0.02,0.46-0.12c0.14-0.1,0.23-0.24,0.25-0.38
				C211.41,49.08,211.35,48.92,211.23,48.79L211.23,48.79z M210.6,50.89c-0.05-0.01-0.09-0.01-0.14-0.02
				c-0.45-0.09-0.86-0.37-1.13-0.78c-0.27-0.41-0.38-0.91-0.28-1.37c0.12-0.57,0.53-1.07,1.05-1.27c0.3-0.12,0.61-0.12,0.88,0
				c0.41,0.03,0.81,0.23,1.11,0.56c0.35,0.38,0.52,0.87,0.46,1.35c-0.05,0.46-0.31,0.9-0.72,1.19
				C211.47,50.81,211.03,50.94,210.6,50.89L210.6,50.89z"/>
			<path style="clip-path:url(#SVGID_00000045621365130342882250000000857663755881059250_);fill:#20380E;" d="M210.63,54.43
				c-0.1-0.11-0.22-0.17-0.34-0.19c-0.02,0-0.03,0-0.05,0c-0.11,0-0.22-0.02-0.31-0.08c-0.1,0.03-0.29,0.19-0.34,0.43
				c-0.03,0.15,0.01,0.33,0.11,0.49c0.1,0.15,0.24,0.25,0.38,0.28c0.14,0.03,0.32-0.02,0.46-0.12c0.14-0.1,0.23-0.24,0.25-0.38
				C210.81,54.72,210.75,54.56,210.63,54.43L210.63,54.43z M209.99,56.53c-0.05-0.01-0.09-0.01-0.14-0.02
				c-0.45-0.09-0.86-0.37-1.13-0.78c-0.27-0.41-0.38-0.91-0.28-1.37c0.12-0.57,0.53-1.07,1.05-1.27c0.3-0.12,0.61-0.12,0.88,0
				c0.41,0.03,0.81,0.23,1.11,0.56c0.35,0.38,0.52,0.87,0.46,1.35c-0.05,0.46-0.31,0.9-0.72,1.19
				C210.86,56.45,210.42,56.57,209.99,56.53z"/>
			<path style="clip-path:url(#SVGID_00000045621365130342882250000000857663755881059250_);fill:#20380E;" d="M227.48,22.86
				c2.76,1.28,4.56,4.41,4.28,7.44c-0.03,0.32-0.31,0.56-0.64,0.53c0,0-0.01,0-0.01,0c-0.32-0.03-0.55-0.32-0.52-0.63
				c0.24-2.55-1.28-5.19-3.61-6.27c-0.29-0.14-0.42-0.48-0.28-0.78C226.85,22.86,227.19,22.73,227.48,22.86z"/>
			<path style="clip-path:url(#SVGID_00000045621365130342882250000000857663755881059250_);fill:#20380E;" d="M234.14,38.3
				c-0.06-0.01-0.12-0.02-0.17-0.05c-0.3-0.13-0.43-0.47-0.3-0.77c1.05-2.38,1.42-5,1.09-7.58c-0.04-0.32,0.18-0.61,0.5-0.65
				c0.32-0.04,0.61,0.18,0.65,0.5c0.36,2.79-0.04,5.63-1.17,8.2C234.64,38.19,234.39,38.32,234.14,38.3L234.14,38.3z"/>
			<path style="clip-path:url(#SVGID_00000045621365130342882250000000857663755881059250_);fill:#20380E;" d="M235.75,27.4
				c-0.14-0.29-0.01-0.64,0.28-0.78c0.29-0.14,0.64-0.01,0.78,0.28c2.04,4.33,1.63,9.69-1.05,13.66c-0.13,0.19-0.34,0.28-0.55,0.25
				c-0.09-0.01-0.18-0.04-0.26-0.1c-0.27-0.18-0.34-0.54-0.16-0.81C237.25,36.27,237.62,31.36,235.75,27.4L235.75,27.4z"/>
			<path style="clip-path:url(#SVGID_00000045621365130342882250000000857663755881059250_);fill:#20380E;" d="M210.3,23.25
				c-0.3-0.11-0.46-0.44-0.35-0.75c0.65-1.82,2.2-3.31,4.05-3.89c0.31-0.1,0.63,0.08,0.73,0.38s-0.08,0.63-0.38,0.73
				c-1.5,0.47-2.77,1.68-3.3,3.16c-0.09,0.26-0.35,0.41-0.61,0.38C210.39,23.27,210.34,23.26,210.3,23.25L210.3,23.25z"/>
			<path style="clip-path:url(#SVGID_00000045621365130342882250000000857663755881059250_);fill:#20380E;" d="M209.72,20.46
				c-0.07-0.01-0.13-0.03-0.2-0.06c-0.29-0.14-0.41-0.49-0.26-0.78c1.01-2.02,3.02-3.48,5.26-3.8c0.32-0.05,0.62,0.18,0.66,0.5
				c0.05,0.32-0.18,0.62-0.5,0.66c-1.86,0.27-3.54,1.48-4.38,3.16C210.2,20.37,209.96,20.49,209.72,20.46L209.72,20.46z"/>
			<path style="clip-path:url(#SVGID_00000045621365130342882250000000857663755881059250_);fill:#20380E;" d="M208.45,32.67
				c0.32,0.02,0.57,0.29,0.55,0.61c-0.08,1.69,0.49,3.4,1.56,4.71c0.21,0.25,0.17,0.62-0.08,0.82c-0.13,0.1-0.28,0.15-0.43,0.13
				c-0.15-0.02-0.29-0.09-0.39-0.21c-1.25-1.53-1.92-3.53-1.82-5.51C207.85,32.9,208.12,32.65,208.45,32.67L208.45,32.67z"/>
			<path style="clip-path:url(#SVGID_00000045621365130342882250000000857663755881059250_);fill:#20380E;" d="M208.64,39.55
				c-0.13,0.1-0.28,0.14-0.43,0.13c-0.15-0.02-0.29-0.09-0.39-0.21c-1.68-2.07-2.45-4.78-2.13-7.43c0.04-0.32,0.33-0.54,0.64-0.51
				c0,0,0.01,0,0.01,0c0.32,0.04,0.55,0.33,0.51,0.65c-0.28,2.3,0.43,4.75,1.88,6.55C208.93,38.98,208.9,39.35,208.64,39.55
				L208.64,39.55z"/>
			<path style="clip-path:url(#SVGID_00000045621365130342882250000000857663755881059250_);fill:#20380E;" d="M138.83,346.43
				c-0.04,0.36-0.09,0.7-0.15,1.02c-0.38,2.16-1.09,3.43-2.74,5.15c1.43,0.57,2.73,1.11,3.91,1.6c4.78,1.97,7.93,3.28,10.7,3.4
				c0.3,0.01,0.57-0.15,0.69-0.43c0.05-0.12,0.11-0.25,0.17-0.37c0.17-0.38,0.34-0.77,0.49-1.14c0.12-0.3,0.02-0.65-0.24-0.84
				C147.56,351.79,143.33,348.67,138.83,346.43L138.83,346.43z M103.4,330.15c-0.23-0.15-0.44-0.28-0.66-0.41
				c-0.43-0.24-1.06-0.5-1.59-0.35c-0.51,0.14-0.92,0.63-1.37,1.21c-0.41,0.53-0.78,1.04-0.76,1.54c0.02,0.78,0.97,1.32,1.27,1.47
				c0.26,0.13,0.53,0.24,0.82,0.36c0.29,0.12,0.59,0.24,0.88,0.39c0.29-1.35,0.96-2.81,1.9-3.92
				C103.71,330.35,103.55,330.25,103.4,330.15L103.4,330.15z M103.58,337.03c0.03,0.01,0.05,0.02,0.08,0.04
				c0.11,0.06,0.23,0.12,0.34,0.18c0.01-0.98,0.5-1.9,0.81-2.47c0.82-1.53,1.75-3.25,3.04-4.64c-0.74-0.25-1.48-0.11-2.2,0.42
				c-1.67,1.23-2.73,4.12-2.51,5.69C103.19,336.55,103.3,336.92,103.58,337.03L103.58,337.03z M137.58,345.83
				c-9.02-5.3-18.58-10.38-28.46-15.11c-1.34,1.31-2.26,3.02-3.15,4.68c-0.41,0.77-0.84,1.66-0.57,2.33
				c0.04,0.09,0.05,0.18,0.05,0.27c9.78,5.12,19.13,9.94,29.17,14.08C136.61,350.1,137.24,348.99,137.58,345.83L137.58,345.83z
				 M153.22,355.76c-0.02,0.12-0.06,0.25-0.1,0.37l0.96,0.44c0.28,0.13,0.42,0.42,0.37,0.71c-0.01,0.05-0.03,0.11-0.05,0.16
				c-0.15,0.33-0.54,0.47-0.87,0.32l-0.92-0.42c0,0,0,0,0,0.01c-0.06,0.12-0.11,0.25-0.16,0.37c-0.34,0.77-1.11,1.24-1.95,1.21
				c-3-0.13-6.24-1.47-11.14-3.5c-1.42-0.59-3.04-1.25-4.82-1.96l0,0c0,0,0,0,0,0c-10.86-4.44-20.85-9.67-31.43-15.2
				c-0.13-0.05-0.26-0.12-0.38-0.21c-0.21,0.47-0.1,1.13,0.2,1.58c0.44,0.68,1.18,1.14,2.04,1.62c5.27,2.98,10.92,5.45,16.38,7.85
				c0.28,0.12,0.43,0.42,0.38,0.71c-0.01,0.05-0.02,0.1-0.05,0.15c-0.15,0.33-0.53,0.48-0.86,0.34c-5.49-2.41-11.17-4.9-16.5-7.91
				c-0.97-0.55-1.89-1.12-2.5-2.05c-0.63-0.98-0.78-2.5,0.14-3.47c-0.04-0.14-0.07-0.28-0.09-0.43c-0.03-0.21-0.04-0.43-0.04-0.66
				c-0.36-0.23-0.78-0.41-1.21-0.59c-0.3-0.12-0.61-0.25-0.91-0.41c-1.23-0.62-1.96-1.57-1.98-2.61c-0.03-1,0.61-1.83,1.04-2.37
				c0.46-0.59,1.08-1.4,2.05-1.67c0.77-0.21,1.64-0.06,2.58,0.47c0.26,0.14,0.5,0.3,0.73,0.45c0.26,0.17,0.51,0.32,0.76,0.46
				c0,0,0,0,0.01-0.01c1.22-0.9,2.54-1.05,3.83-0.43c10.31,4.91,20.3,10.2,29.69,15.72c0.04,0.01,0.07,0.02,0.11,0.04
				c4.96,2.31,9.52,5.68,13.93,8.95C153.06,354.23,153.35,355.01,153.22,355.76L153.22,355.76z"/>
			<path style="clip-path:url(#SVGID_00000045621365130342882250000000857663755881059250_);fill:#20380E;" d="M85.8,263.28
				c-9.4,6.98-18.84,14.24-27.96,21.26c-5.47,4.21-11.13,8.55-16.73,12.81c-0.32,0.25-0.49,0.63-0.46,1.02
				c0.01,0.15,0.05,0.3,0.12,0.45c2.37,4.67,4.75,9.22,7.91,13.62l4.21-3.17c-0.1-0.06-0.18-0.15-0.22-0.26
				c-0.22-0.55-0.67-1.01-1.21-1.24c-0.27-0.11-0.39-0.43-0.28-0.7c0.12-0.27,0.43-0.39,0.7-0.28c0.81,0.35,1.45,1.01,1.78,1.83
				c0.01,0.02,0.01,0.04,0.02,0.06l1.75-1.32c-0.06-0.03-0.12-0.07-0.16-0.13l-1.38-1.64c-0.19-0.23-0.16-0.56,0.07-0.75
				s0.56-0.16,0.75,0.07l1.38,1.64c0.06,0.07,0.1,0.15,0.11,0.24l1.49-1.12c-0.13-0.02-0.26-0.09-0.35-0.21l-1.1-1.47
				c-0.18-0.23-0.13-0.57,0.11-0.74s0.57-0.13,0.74,0.11l1.1,1.47c0.06,0.08,0.1,0.18,0.1,0.28c0,0.04,0,0.07,0,0.11l1.39-1.04
				l-2.76-3.66c-0.18-0.23-0.13-0.57,0.1-0.74c0.23-0.18,0.57-0.13,0.74,0.1l2.77,3.66l1.86-1.4c-0.05-0.03-0.1-0.07-0.14-0.13
				l-0.9-1.17c-0.18-0.23-0.14-0.57,0.1-0.74c0.23-0.18,0.57-0.14,0.74,0.1l0.9,1.17c0.04,0.05,0.07,0.12,0.09,0.18l1.29-0.97
				c-0.14-0.04-0.26-0.13-0.33-0.27c-0.22-0.44-0.55-0.83-0.95-1.11c-0.24-0.17-0.3-0.5-0.13-0.74c0.17-0.24,0.5-0.3,0.74-0.13
				c0.55,0.39,0.99,0.91,1.29,1.51c0.03,0.06,0.05,0.13,0.05,0.2c0,0.01,0,0.02,0,0.04l1.45-1.09c0-0.01-0.01-0.01-0.01-0.02
				c-0.24-0.58-0.63-1.1-1.12-1.49c-0.23-0.18-0.27-0.52-0.08-0.75c0.18-0.23,0.52-0.27,0.75-0.08c0.57,0.45,1.02,1.03,1.33,1.68
				l1.21-0.91c-0.11-0.04-0.2-0.11-0.26-0.22l-0.96-1.57c-0.15-0.25-0.07-0.58,0.18-0.73c0.25-0.15,0.58-0.07,0.73,0.18l0.96,1.57
				c0.04,0.07,0.07,0.15,0.07,0.23l1.99-1.5c-1-1.05-1.87-2.22-2.6-3.48c-0.15-0.25-0.06-0.58,0.2-0.73
				c0.25-0.15,0.58-0.06,0.73,0.2c0.7,1.22,1.56,2.35,2.53,3.36l1.44-1.09c-0.16-0.01-0.32-0.09-0.42-0.24l-0.8-1.23
				c-0.16-0.24-0.09-0.58,0.15-0.74c0.24-0.16,0.58-0.09,0.74,0.15l0.8,1.23c0.05,0.08,0.08,0.17,0.09,0.25c0,0.05,0,0.11-0.01,0.16
				l1.01-0.76c-0.08-0.04-0.16-0.11-0.21-0.19l-0.75-1.23c-0.15-0.25-0.08-0.58,0.17-0.73c0.25-0.15,0.58-0.08,0.73,0.17l0.75,1.23
				c0.03,0.05,0.06,0.11,0.07,0.17l1.1-0.83c-0.07-0.03-0.13-0.08-0.18-0.15l-1.05-1.37c-0.18-0.23-0.13-0.57,0.1-0.74
				c0.23-0.18,0.57-0.13,0.74,0.1l1.05,1.37c0.05,0.07,0.08,0.14,0.1,0.22l1.68-1.27c-0.55-0.44-1.01-1-1.32-1.63
				c-0.13-0.26-0.02-0.58,0.24-0.71s0.58-0.02,0.71,0.24c0.25,0.52,0.63,0.98,1.1,1.32c0.05,0.04,0.09,0.08,0.12,0.13l1.44-1.09
				c-0.04-0.02-0.07-0.05-0.1-0.08l-2.54-2.69c-0.2-0.21-0.19-0.55,0.02-0.75c0.21-0.2,0.55-0.19,0.75,0.02l2.54,2.69
				c0.06,0.06,0.1,0.14,0.12,0.21l1.53-1.15l-0.98-1.15c-0.19-0.22-0.16-0.56,0.06-0.75c0.22-0.19,0.56-0.16,0.75,0.06l1,1.17
				c0.01,0.01,0.01,0.02,0.02,0.02l0.97-0.73c-0.07-0.04-0.13-0.1-0.17-0.17l-0.9-1.42c-0.16-0.25-0.09-0.58,0.16-0.73
				c0.25-0.16,0.58-0.09,0.73,0.16l0.9,1.42c0.03,0.05,0.05,0.09,0.06,0.14l1.55-1.16c-0.01-0.01-0.02-0.02-0.03-0.03l-1.1-1.47
				c-0.18-0.23-0.13-0.57,0.11-0.74c0.23-0.18,0.57-0.13,0.74,0.11l1.1,1.47c0.01,0.01,0.02,0.02,0.02,0.04l1.54-1.16
				c-0.05-0.03-0.1-0.07-0.14-0.11l-1.35-1.57c-0.19-0.22-0.17-0.56,0.05-0.75c0.22-0.19,0.56-0.17,0.75,0.05l1.35,1.56
				c0.06,0.07,0.1,0.14,0.11,0.22l1.31-0.99l-2.72-3.24c-0.19-0.23-0.16-0.56,0.07-0.75c0.23-0.19,0.56-0.16,0.75,0.07l2.75,3.29
				l2.15-1.62c-2.59-5.55-5.22-9.4-8.35-13.44C87.04,263,86.31,262.89,85.8,263.28L85.8,263.28z M88.27,262.86
				c3.24,4.19,5.96,8.19,8.65,14.04c0.03,0.06,0.04,0.12,0.05,0.18c0.01,0.18-0.06,0.35-0.21,0.46l-47.88,36.07
				c-0.11,0.09-0.26,0.12-0.4,0.1c-0.14-0.02-0.27-0.1-0.35-0.21c-3.37-4.6-5.86-9.34-8.32-14.2c-0.49-0.96-0.22-2.14,0.64-2.79
				c5.6-4.25,11.26-8.6,16.73-12.81c9.13-7.02,18.57-14.28,27.98-21.27C86.13,261.71,87.53,261.9,88.27,262.86L88.27,262.86z"/>
			<path style="clip-path:url(#SVGID_00000045621365130342882250000000857663755881059250_);fill:#20380E;" d="M53.66,293.15
				c0.08,0.09,0.13,0.2,0.13,0.32c0.01,0.16-0.05,0.32-0.17,0.43c-2.56,2.3-5.36,4.35-8.32,6.1c-0.25,0.15-0.58,0.06-0.73-0.19
				c-0.15-0.25-0.06-0.58,0.19-0.73c2.9-1.71,5.65-3.72,8.15-5.97C53.13,292.92,53.47,292.93,53.66,293.15L53.66,293.15z"/>
			<path style="clip-path:url(#SVGID_00000045621365130342882250000000857663755881059250_);fill:#20380E;" d="M86.02,268.26
				c0.07,0.09,0.1,0.19,0.11,0.29c0.01,0.17-0.06,0.34-0.2,0.46l-30.12,23.48c-0.23,0.18-0.57,0.14-0.75-0.09
				c-0.18-0.23-0.14-0.57,0.09-0.75l30.12-23.48C85.51,267.99,85.84,268.03,86.02,268.26L86.02,268.26z"/>
			<path style="clip-path:url(#SVGID_00000045621365130342882250000000857663755881059250_);fill:#20380E;" d="M138.63,23.51
				c-1.08,0.79-1.8,2.02-2.04,3.33c0,0.04-0.01,0.08-0.02,0.12c-0.13,0.8-0.08,1.63,0.17,2.4c0.67,2.09,2.76,3.62,4.95,3.64
				s4.31-1.48,5.01-3.56c0.71-2.08-0.05-4.55-1.8-5.88C143.09,22.19,140.46,22.17,138.63,23.51L138.63,23.51z M116.3,48.48
				c6.21-5.21,15.53-13.09,20.01-17.16c-0.33-0.49-0.6-1.01-0.78-1.58c-0.15-0.46-0.24-0.94-0.28-1.43
				C129.74,33.61,122.46,41.51,116.3,48.48L116.3,48.48z M134.18,62.66l2.05-2.43c-0.02-0.09-0.02-0.18,0-0.27l6.31-25.77
				c-0.29,0.04-0.58,0.06-0.87,0.06c-0.52,0-1.04-0.08-1.54-0.21c-0.35-0.09-0.69-0.22-1.01-0.37
				C137.03,43.22,135.37,52.96,134.18,62.66L134.18,62.66z M133.19,69.9c1.06-0.28,2.08-0.69,3.15-1.12
				c0.3-0.32,0.55-0.71,0.81-1.14l-2.41-1.73c-0.06,0.07-0.12,0.13-0.19,0.21c-0.17,0.17-0.42,0.43-0.91,1.06
				C133.45,68.13,133.31,69.02,133.19,69.9L133.19,69.9z M140.04,65.5c0.36-0.57,0.71-1.11,1.04-1.66c-1.31-0.92-2.56-1.92-3.73-3
				l-2.6,3.08c-0.13,0.15-0.18,0.23-0.2,0.28c0.05,0.05,0.16,0.14,0.2,0.17l3.46,2.49c0.03,0.01,0.05,0.02,0.08,0.03
				c0.06,0.04,0.12,0.09,0.16,0.14l0.42,0.3C139.29,66.68,139.67,66.08,140.04,65.5L140.04,65.5z M148.38,50.94
				c-0.4-0.78-1.03-1.38-1.81-1.73c-1.31,1.92-2.57,3.82-3.8,5.65c-1.24,1.85-2.51,3.76-3.84,5.71c0.62,0.53,1.25,1.05,1.9,1.54
				C144.25,58.03,146.59,54.57,148.38,50.94z M149.95,20.58c0.02-0.26-0.34-0.58-0.6-0.81c-0.82-0.68-1.68-1.32-2.57-1.91
				c-0.16-0.11-0.49-0.33-0.69-0.29c-0.2,0.04-0.43,0.36-0.57,0.55l-2.35,3.3c0.89,0.19,1.74,0.57,2.48,1.13
				c0.63,0.48,1.15,1.07,1.56,1.74l2.4-3.13C149.76,20.99,149.94,20.75,149.95,20.58z M141.77,21.24l2.73-3.84
				c0.25-0.35,0.67-0.94,1.37-1.06c0.69-0.12,1.28,0.27,1.6,0.48c0.92,0.61,1.82,1.28,2.68,1.99c0.33,0.28,1.11,0.92,1.05,1.85
				c-0.03,0.56-0.37,0.99-0.59,1.28l-2.79,3.63c0.48,1.37,0.54,2.89,0.07,4.28c-0.63,1.85-2.15,3.33-3.97,4l-6.27,25.57
				c0.03,0.02,0.05,0.04,0.08,0.06c0.09,0.08,0.18,0.17,0.27,0.25c1.28-1.89,2.53-3.75,3.73-5.55c1.31-1.97,2.67-4,4.08-6.07
				c0.16-0.23,0.44-0.33,0.71-0.24c1.42,0.45,2.53,1.46,3.13,2.84c0.07,0.17,0.07,0.36-0.01,0.52c-1.85,3.8-4.25,7.39-7.78,11.63
				c0.14,0.1,0.28,0.19,0.41,0.29c0.27,0.18,0.36,0.55,0.19,0.83c-0.42,0.73-0.88,1.45-1.37,2.2c-0.47,0.74-0.96,1.49-1.49,2.38
				c-0.09,0.15-0.24,0.26-0.41,0.29c-0.1,0.02-0.2,0.02-0.29-0.01c-0.07-0.02-0.14-0.05-0.2-0.1l-0.53-0.38
				c-0.3,0.5-0.63,0.98-1.03,1.38c-0.06,0.06-0.13,0.1-0.2,0.14c-1.39,0.57-2.83,1.15-4.37,1.44c-0.09,0.02-0.19,0.01-0.28-0.01
				c-0.1-0.03-0.19-0.08-0.27-0.15c-0.14-0.14-0.22-0.34-0.19-0.54c0.16-1.21,0.33-2.46,0.61-3.84c0.02-0.09,0.06-0.18,0.11-0.25
				c0.59-0.78,0.9-1.09,1.1-1.29c0.03-0.03,0.06-0.06,0.08-0.08c-0.14-0.13-0.28-0.29-0.36-0.51c-0.02,0-0.04,0-0.07,0
				c-0.03,0-0.06-0.01-0.09-0.02c-0.3-0.08-0.5-0.37-0.46-0.68c1.22-10.32,2.97-20.7,5.2-30.85c0.01-0.03,0.02-0.06,0.03-0.08
				c-0.31-0.22-0.6-0.47-0.87-0.74c-7.07,6.42-25.92,22.1-26.11,22.26c-0.16,0.14-0.37,0.18-0.56,0.12
				c-0.11-0.03-0.2-0.08-0.28-0.16c-0.23-0.23-0.24-0.6-0.03-0.85c7.13-8.3,17.99-20.37,25.26-27.19c0.33-1.56,1.21-3.02,2.5-3.97
				c1.12-0.82,2.49-1.23,3.86-1.22C141.75,21.26,141.76,21.25,141.77,21.24L141.77,21.24z"/>
			<path style="clip-path:url(#SVGID_00000045621365130342882250000000857663755881059250_);fill:#20380E;" d="M366.57,92.6
				c-0.01,0.24,0.22,1.38,3.93,6.17c1,1.29,2.11,2.67,3.26,4.06c3.69-2.54,7.31-5.25,10.78-8.07c0.07-0.06,0.15-0.1,0.24-0.13
				c-0.4-0.51-0.81-1.01-1.21-1.52c-2.37-2.94-4.97-5.85-8.41-6.47c-1.81-0.32-3.79,0.15-5.46,1.31
				C368.03,89.1,366.9,90.8,366.57,92.6L366.57,92.6z M378.43,108.41c0.13,0.16,0.26,0.31,0.39,0.46l1.31-8.73
				c-1.77,1.33-3.58,2.62-5.39,3.87C376.01,105.55,377.29,107.06,378.43,108.41L378.43,108.41z M381.8,112.44
				c0.7,0.86,1.39,1.66,2.18,2.13c0.09-5.91,0.45-11.87,1.07-17.74c0.04-0.42,0.42-0.73,0.84-0.68c0.04,0,0.07,0.01,0.1,0.02
				c-0.11-0.14-0.22-0.28-0.33-0.42c-0.04,0.07-0.1,0.14-0.17,0.2c-1.19,0.97-2.4,1.92-3.63,2.86l-1.7,11.35
				c-0.01,0.08-0.04,0.16-0.08,0.23C380.75,111.16,381.32,111.85,381.8,112.44L381.8,112.44z M388.74,113.64
				c0.03-4.32,0.26-8.68,0.69-12.98c0-0.02,0.01-0.04,0.01-0.07c-0.94-1.23-1.9-2.46-2.86-3.68c0,0.03,0,0.05,0,0.08
				c-0.63,5.96-0.99,12.03-1.07,18.03C386.6,115.02,387.69,114.39,388.74,113.64z M393.45,107.51c-0.02-1.5-0.98-2.9-2.05-4.32
				c-0.2-0.27-0.4-0.53-0.6-0.8c-0.29,3.34-0.47,6.71-0.52,10.06C392.04,111.01,393.48,109.4,393.45,107.51L393.45,107.51z
				 M365.06,92.34c0.39-2.2,1.76-4.26,3.76-5.65c1.99-1.39,4.4-1.96,6.6-1.56c0.89,0.16,1.72,0.44,2.5,0.82
				c2.72,1.31,4.86,3.75,6.84,6.21c2.67,3.31,5.32,6.72,7.87,10.12c1.23,1.63,2.33,3.26,2.36,5.22c0.04,2.91-2.26,5.05-4.74,6.94
				c-0.01,0.01-0.03,0.02-0.04,0.03c-0.11,0.25-0.35,0.43-0.63,0.46c-1.4,1-3,1.87-4.75,1.58c-1.95-0.32-3.31-1.99-4.21-3.1
				c-0.86-1.05-2.01-2.42-3.35-4.01C368.73,99.32,364.73,94.19,365.06,92.34L365.06,92.34z"/>
			<path style="clip-path:url(#SVGID_00000045621365130342882250000000857663755881059250_);fill:#20380E;" d="M418.22,255.1
				c1.72-1.45,2.9-3.45,3.97-5.37c1.21-2.17,2.38-4.49,2.23-6.94c-0.13-2.01-1.23-4.13-3.1-5.96c-2.94-2.88-6.97-4.41-10.79-4.1
				c-3.73,0.31-7.16,2.41-8.98,5.45c-0.15,0.26-0.29,0.52-0.42,0.79c-2.47,5.14-1.57,11.35,2.17,15.11
				C407.31,258.1,414.14,258.56,418.22,255.1L418.22,255.1z M418.72,257.69c0.34,0.29,0.76,0.42,1.07,0.32
				c0.13-0.04,0.25-0.12,0.36-0.21c0.03-0.04,0.06-0.08,0.1-0.12c0.04-0.03,0.07-0.05,0.11-0.07c0.07-0.07,0.15-0.15,0.21-0.22
				l1.28-1.35c0.21-0.22,0.42-0.45,0.5-0.68c0.11-0.36-0.1-0.78-0.36-1.04c-0.26-0.27-0.62-0.46-0.99-0.64
				c-0.61,0.82-1.29,1.58-2.09,2.26c-0.31,0.26-0.64,0.5-0.98,0.73C418.17,257.05,418.41,257.42,418.72,257.69L418.72,257.69z
				 M433.08,269.08c0.62,0.39,1.19,0.65,1.5,0.68c0.39,0.04,0.87-0.14,0.98-0.49c0.12-0.37-0.16-0.86-0.86-1.49
				c-1.12-1.03-3.66-3.49-6.11-5.87c-2.17-2.1-4.39-4.26-5.65-5.44c-0.1,0.12-0.2,0.22-0.29,0.32l-1.28,1.35
				c2.34,2.59,9.35,9.48,11.69,10.94L433.08,269.08L433.08,269.08z M402.53,254.86c-2.04-2.04-3.33-4.74-3.73-7.8
				c-0.38-2.91,0.09-5.95,1.34-8.55c1.83-3.8,5.87-6.49,10.29-6.86c4.13-0.34,8.49,1.31,11.65,4.41c1.46,1.43,3.24,3.75,3.42,6.67
				c0.17,2.74-1.13,5.33-2.36,7.54c-0.25,0.45-0.51,0.9-0.78,1.35c-0.23,0.39-0.47,0.77-0.72,1.15c0.39,0.2,0.79,0.43,1.13,0.77
				c0.54,0.55,0.79,1.26,0.68,1.91c1.2,1.12,3.59,3.43,5.9,5.67c2.45,2.38,4.99,4.83,6.09,5.85c0.42,0.39,1.54,1.41,1.16,2.62
				c-0.04,0.12-0.09,0.24-0.15,0.34c-0.4,0.68-1.26,0.98-1.97,0.91c-0.65-0.06-1.52-0.55-1.97-0.84l-0.01-0.01
				c-2.47-1.54-9.53-8.48-11.94-11.15c-0.13,0.08-0.28,0.15-0.44,0.2c-0.68,0.21-1.48,0.01-2.11-0.54c-0.43-0.38-0.74-0.85-1-1.3
				C412.51,259.55,406.34,258.68,402.53,254.86z"/>
			<path style="clip-path:url(#SVGID_00000045621365130342882250000000857663755881059250_);fill:#20380E;" d="M417.01,253.1
				c1.35-1.13,2.27-2.71,3.1-4.23c0.94-1.72,1.84-3.55,1.69-5.49c-0.13-1.6-1.04-3.3-2.56-4.79c-2.39-2.34-5.64-3.62-8.69-3.42
				c-2.95,0.19-5.63,1.8-7.04,4.16c-0.13,0.22-0.25,0.44-0.35,0.67c-1.9,4.06-1.1,9.03,1.95,12.08
				C408.36,255.33,413.81,255.8,417.01,253.1L417.01,253.1z M402.17,239.53c1.44-3.08,4.7-5.22,8.31-5.45
				c3.36-0.22,6.92,1.18,9.53,3.73c1.21,1.18,2.69,3.09,2.88,5.48c0.18,2.24-0.84,4.32-1.82,6.1c-0.23,0.42-0.46,0.84-0.71,1.26
				c-0.71,1.19-1.54,2.36-2.64,3.28c-3.62,3.04-9.74,2.54-13.38-1.09C400.97,249.48,400.08,244.01,402.17,239.53L402.17,239.53z"/>
			<path style="clip-path:url(#SVGID_00000045621365130342882250000000857663755881059250_);fill:#20380E;" d="M409.52,237.3
				c1.61-0.79,3.67-0.69,5.52,0.25c1.83,0.93,3.18,2.51,4.04,3.61c0.14,0.18,0.15,0.43,0.04,0.61c-0.03,0.06-0.08,0.11-0.13,0.15
				c-0.24,0.18-0.58,0.14-0.77-0.1c-1.26-1.63-2.43-2.68-3.67-3.31c-1.55-0.79-3.25-0.88-4.55-0.24c-0.27,0.13-0.6,0.02-0.73-0.25
				S409.25,237.43,409.52,237.3z"/>
			<path style="clip-path:url(#SVGID_00000045621365130342882250000000857663755881059250_);fill:#20380E;" d="M170.57,389.14
				c-3.05,0.8-10.1,11.31-10.64,13.37c-0.02,0.18,0.35,1.01,2.16,2.48c3.36,2.73,8.17,4.95,10.05,4.69c5.4-7.64,7.23-13.1,5.59-16.7
				c-0.37-0.82-1.16-1.67-2.13-2.36c-0.01,0.01-0.01,0.02-0.02,0.03l-4.24,7.55c-0.21,0.37-0.67,0.5-1.03,0.29
				c-0.03-0.01-0.05-0.03-0.08-0.05c-0.31-0.22-0.41-0.64-0.22-0.98l4.24-7.55c0.02-0.03,0.04-0.05,0.06-0.08
				C173.04,389.18,171.66,388.85,170.57,389.14L170.57,389.14z M184.89,370.39c1.66,1.41,2.38,3.71,1.79,5.71
				c-0.66,2.24-3.06,3.8-5.12,3.34c-0.75-0.17-1.36-0.53-1.95-0.89c-0.23-0.14-0.45-0.27-0.68-0.39c-0.36-0.19-1.26-0.58-1.89-0.19
				c-0.75,0.46-0.74,1.79-0.26,2.73c0.2,0.4,0.46,0.77,0.72,1.18c0.5,0.75,1.03,1.53,1.25,2.51c0.43,1.89-0.57,4-2.23,5.01
				c1.16,0.85,2.1,1.9,2.58,2.95c1.91,4.17-0.02,10.21-5.9,18.45c-0.1,0.14-0.24,0.24-0.4,0.29c-2.34,0.71-7.24-1.65-10.63-4.11
				c-0.8-0.58-1.52-1.18-2.1-1.73c-1.3-1.25-1.83-2.27-1.61-3.1c0.52-2.02,7.68-13.41,11.72-14.46c1.49-0.39,3.25,0,4.83,0.8
				c0.07-0.06,0.15-0.11,0.25-0.15c1.37-0.49,2.33-2.21,2.01-3.6c-0.16-0.7-0.58-1.33-1.03-2c-0.28-0.42-0.58-0.86-0.82-1.33
				c-0.8-1.57-0.71-3.77,0.82-4.71c0.93-0.57,2.14-0.53,3.4,0.14c0.26,0.14,0.51,0.29,0.76,0.44c0.51,0.31,0.99,0.6,1.49,0.71
				c1.31,0.29,2.9-0.8,3.34-2.29c0.42-1.41-0.12-3.1-1.32-4.12c-1.1-0.94-2.7-1.38-4.5-1.27c-0.42,0.03-0.78-0.29-0.81-0.71
				c-0.03-0.42,0.29-0.78,0.71-0.81C181.5,368.62,183.49,369.2,184.89,370.39L184.89,370.39z"/>
			<path style="clip-path:url(#SVGID_00000045621365130342882250000000857663755881059250_);fill:#20380E;" d="M38.95,92.68
				c-1.93,3.26-6.33,4.8-9.8,3.45c-3.52-1.38-5.64-5.58-4.63-9.17c0.8-2.87,3.62-5.01,6.53-5.29c0.73-0.07,1.46-0.02,2.17,0.16
				c0.11,0.03,0.22,0.03,0.34,0.02c2.2-0.34,4.64,1.13,5.78,3.48C40.43,87.56,40.27,90.45,38.95,92.68z M53.83,79.48
				c0.73-0.07,1.46-0.02,2.17,0.16c0.11,0.03,0.22,0.03,0.34,0.02c2.21-0.34,4.64,1.13,5.78,3.48c0.05,0.1,0.09,0.2,0.14,0.31
				c0.02,0.1,0.06,0.19,0.11,0.27c0.81,2.14,0.58,4.74-0.63,6.77c-1.93,3.26-6.33,4.8-9.8,3.45c-3.52-1.38-5.64-5.58-4.63-9.17
				C48.1,81.89,50.92,79.75,53.83,79.48L53.83,79.48z M41.45,86.17c0.54-0.51,1.23-0.86,1.96-0.98c0.68-0.11,1.39-0.01,2.03,0.27
				c-0.54,4.1,1.96,8.52,5.88,10.05c1.33,0.52,2.77,0.69,4.2,0.55c3.08-0.3,6.07-2.02,7.67-4.71c1.46-2.45,1.75-5.46,0.83-8.05
				c1.35-2.62,1.84-5.64,1.35-8.56c-0.53-3.17-2.13-5.85-4.52-7.58c-0.27-0.89-1.09-1.57-2.04-1.63c-1.09-0.06-2.11,0.73-2.33,1.8
				c-0.09,0.46,0.2,0.91,0.66,1s0.91-0.2,1-0.66c0.05-0.24,0.33-0.46,0.58-0.45c0.25,0.01,0.5,0.26,0.53,0.51
				c0.02,0.25,0.16,0.48,0.37,0.63c2.16,1.46,3.61,3.83,4.09,6.66c0.36,2.13,0.12,4.33-0.66,6.33c-1.59-2.36-4.23-3.72-6.79-3.4
				c-4.25-0.98-8.95,1.69-10.42,5.85c-0.86-0.32-1.79-0.42-2.69-0.28c-0.84,0.13-1.64,0.48-2.33,0.98
				c-1.44-2.89-4.35-4.64-7.19-4.37c-0.05,0.01-0.1,0.01-0.16,0.02c-3.42-0.79-7.13,0.78-9.21,3.59c0.11-4.67,2-9.2,5.33-12.53
				c0.06-0.06,0.11-0.13,0.15-0.21c0.07-0.14,0.28-0.24,0.44-0.2c0.15,0.04,0.3,0.22,0.3,0.38c0,0.47,0.38,0.85,0.85,0.85
				c0.47,0,0.85-0.38,0.85-0.85c0-0.93-0.68-1.81-1.59-2.03c-0.86-0.21-1.8,0.19-2.27,0.94c-4.33,4.38-6.42,10.65-5.57,16.79
				c0,0.04,0.02,0.07,0.02,0.11c-0.92,4.28,1.63,9.11,5.77,10.73c1.33,0.52,2.77,0.69,4.2,0.55c3.08-0.3,6.07-2.02,7.67-4.71
				C41.74,91.3,42.1,88.59,41.45,86.17L41.45,86.17z"/>
			<path style="clip-path:url(#SVGID_00000045621365130342882250000000857663755881059250_);fill:#20380E;" d="M9.15,221.7
				c-0.44-1.39,0.19-2.87,1.48-3.52c8.51-4.28,17.35-7.5,26.29-9.57c4.09,10.53,8.13,22.68,12.35,37.1
				c-9.43,5.29-18.49,8.03-28.44,8.6C15.51,241.36,11.8,230.09,9.15,221.7L9.15,221.7z M41.21,210.46c0.01,0.02,0.02,0.03,0.03,0.05
				c4.17,6.88,11.41,33.24,12.48,37.2c-4.61,2.76-10.17,5.34-16.14,7.5c-0.08-0.34-0.16-0.67-0.23-1.01
				c-0.07-0.36-0.41-0.59-0.77-0.54c-1.13,0.16-5.96,1.39-7.27,1.85c-0.18,0.06-0.33,0.2-0.4,0.38c-0.08,0.18-0.08,0.38,0,0.55
				c0.2,0.45,0.38,0.89,0.55,1.33c-0.8,0.22-1.59,0.41-2.36,0.6c-0.02-0.02-0.04-0.05-0.06-0.07c-0.91-0.85-1.68-1.86-2.28-2.96
				c8.84-1.02,17.09-3.84,25.65-8.71c0.01-0.01,0.02-0.01,0.03-0.02c0.25-0.16,0.37-0.48,0.28-0.77
				c-4.19-14.39-8.22-26.54-12.28-37.08C39.99,209.19,40.84,209.72,41.21,210.46L41.21,210.46z M37.67,260.06
				c-0.88-0.31-1.75-0.66-2.59-1.04c-0.22-0.1-0.46-0.08-0.66,0.05c-0.02,0.01-0.04,0.02-0.05,0.04c-0.88,0.7-1.66,1.49-2.33,2.37
				c-0.36-1.62-0.88-3.23-1.57-4.88c1.5-0.44,4.29-1.15,5.69-1.45C36.54,256.81,37.04,258.46,37.67,260.06L37.67,260.06z
				 M24.06,259.02c-0.7-0.17-2.53-2.35-2.73-3.36c0.66-0.04,1.32-0.09,1.97-0.15c0.57,1.17,1.33,2.27,2.22,3.22
				c-0.49,0.1-0.98,0.2-1.45,0.29C24.07,259.02,24.07,259.02,24.06,259.02L24.06,259.02z M22.57,259.67c0.72,0.6,1.3,0.82,1.79,0.69
				c1.74-0.33,3.62-0.76,5.57-1.29c0.49,1.44,0.84,2.86,1.06,4.29c0.05,0.29,0.27,0.52,0.55,0.57c0.29,0.05,0.57-0.08,0.72-0.33
				c0.68-1.18,1.59-2.27,2.63-3.16c1.23,0.54,2.5,1.01,3.78,1.39c0.2,0.06,0.4,0.03,0.57-0.08c0.05-0.03,0.1-0.07,0.14-0.12
				c0.18-0.2,0.22-0.49,0.11-0.73c-0.63-1.41-1.15-2.87-1.58-4.35c6.3-2.26,12.14-5,16.94-7.93c0.01,0,0.01-0.01,0.02-0.01
				c0.25-0.16,0.37-0.47,0.29-0.75c-0.33-1.24-8.16-30.42-12.75-38.03c-0.67-1.31-2.05-2.08-4.76-2.65
				c-0.03-0.01-0.06-0.01-0.09-0.01c-0.12-0.04-0.25-0.05-0.38-0.02c-9.24,2.09-18.39,5.39-27.18,9.81
				c-1.9,0.96-2.82,3.13-2.17,5.16c2.69,8.52,6.47,19.98,11.91,33.18c0.05,0.11,0.12,0.2,0.21,0.27
				C20.03,256.98,21.64,258.89,22.57,259.67L22.57,259.67z"/>
			<path style="clip-path:url(#SVGID_00000045621365130342882250000000857663755881059250_);fill:#20380E;" d="M14.13,222.32
				c6.23-2.77,12.5-4.86,18.64-6.2c1.51,2.57,2.53,5.45,2.99,8.39c-6.02,3.24-12.26,5.38-18.55,6.35
				C15.79,228.33,14.76,225.46,14.13,222.32L14.13,222.32z M16.94,232.29c6.75-0.98,13.45-3.27,19.89-6.8
				c0.01-0.01,0.03-0.02,0.04-0.03c0.22-0.14,0.34-0.4,0.31-0.67c-0.46-3.45-1.67-6.85-3.5-9.81c-0.15-0.25-0.44-0.37-0.73-0.31
				c-6.55,1.4-13.25,3.63-19.89,6.62c-0.29,0.13-0.45,0.44-0.39,0.75c0.68,3.67,1.88,7.01,3.58,9.91
				C16.39,232.2,16.67,232.33,16.94,232.29z"/>
			<path style="clip-path:url(#SVGID_00000045621365130342882250000000857663755881059250_);fill:#20380E;" d="M40.23,232.47
				l-18.66,6.63c-0.36,0.13-0.54,0.52-0.42,0.88s0.52,0.54,0.88,0.42l18.66-6.63c0.05-0.02,0.1-0.04,0.14-0.07
				c0.26-0.17,0.38-0.5,0.27-0.81C40.98,232.53,40.59,232.35,40.23,232.47L40.23,232.47z"/>
			<path style="clip-path:url(#SVGID_00000045621365130342882250000000857663755881059250_);fill:#20380E;" d="M42.77,236.86
				l-20.3,7.64c-0.35,0.13-0.53,0.53-0.4,0.88c0.13,0.35,0.53,0.53,0.88,0.4l20.3-7.64c0.05-0.02,0.09-0.04,0.13-0.07
				c0.26-0.17,0.38-0.51,0.27-0.82C43.52,236.9,43.12,236.72,42.77,236.86L42.77,236.86z"/>
			<path style="clip-path:url(#SVGID_00000045621365130342882250000000857663755881059250_);fill:#20380E;" d="M240.51,223.08
				l15.64,4.17c2.85,0.76,5.98,0.33,8.61-1.17c1.65-0.95,3.2-1.91,4.71-2.9c-2.93-1.66-5.92-3.16-8.81-4.62l0,0
				c-0.29-0.15-0.4-0.5-0.26-0.78c0.14-0.29,0.49-0.4,0.78-0.26c3.07,1.55,6.25,3.15,9.37,4.93c0,0,0.01,0,0.01,0.01
				c3-2.03,5.85-4.18,8.96-6.53l0.15-0.11c0.36-0.27,0.52-0.65,0.44-1.01c-0.09-0.37-0.43-0.64-0.9-0.72
				c-2.77-0.44-5.35-0.95-7.84-1.44c-2.38-0.47-4.85-0.95-7.47-1.38c-2.4-0.39-4.93,0.02-7.12,1.16l-0.54,0.28
				c-5.47,2.83-10.63,5.51-15.88,8.59c-0.42,0.25-0.64,0.63-0.59,1.02C239.79,222.68,240.08,222.97,240.51,223.08L240.51,223.08z
				 M248.16,235.19c0.25,0.91,0.5,1.85,1.2,2.5c1.05,0.99,3.06,1.24,4.53,1.43c0.79,0.1,1.58,0.2,2.38,0.3
				c4.83,0.57,9.88-0.35,14.23-2.6c0.79-0.41,1.5-0.78,2.12-1.12c-0.73-2.58-2.13-8.45-2.72-11.41c-1.46,0.95-2.96,1.89-4.56,2.8
				c-1.16,0.67-2.42,1.14-3.71,1.41c-1.91,0.41-3.9,0.37-5.78-0.13l-10.29-2.74L248.16,235.19L248.16,235.19z M278.05,231.58
				c0.4-0.88,0.26-1.84,0.12-2.77l-1.41-9.37c-1.94,1.44-3.84,2.81-5.81,4.14c0.48,2.6,1.94,8.72,2.71,11.53
				c0.2-0.11,0.39-0.22,0.57-0.32C275.59,234.01,277.44,232.93,278.05,231.58z M273.14,240.62c0.45,0.85,1.33,1.46,2.27,1.65
				c-0.4-0.62-0.68-1.31-0.59-2.08c0.03-0.29,0.12-0.55,0.19-0.78c0.05-0.16,0.1-0.31,0.13-0.44c0.1-0.52-0.04-1.09-0.37-1.49
				c-0.26-0.32-0.66-0.55-1.07-0.63c-0.01,0.02-0.03,0.03-0.04,0.04C272.75,237.85,272.52,239.45,273.14,240.62L273.14,240.62z
				 M239.74,220.29c5.28-3.09,10.45-5.78,15.93-8.61l0.54-0.28c2.41-1.25,5.2-1.7,7.84-1.27c2.65,0.43,5.12,0.92,7.51,1.39
				c2.48,0.49,5.05,0.99,7.8,1.43c0.93,0.15,1.64,0.76,1.85,1.58c0.2,0.81-0.13,1.67-0.86,2.22l-0.15,0.11
				c-0.81,0.61-1.61,1.21-2.4,1.8l1.51,9.98c0.15,0.99,0.34,2.23-0.21,3.43c-0.77,1.68-2.81,2.87-4.29,3.73
				c-0.07,0.04-0.13,0.08-0.21,0.12c0.41,0.19,0.77,0.46,1.06,0.82c0.56,0.68,0.78,1.6,0.61,2.46c-0.04,0.2-0.1,0.39-0.16,0.57
				c-0.06,0.2-0.13,0.39-0.14,0.56c-0.09,0.74,0.48,1.48,1.08,2.17c0.14,0.16,0.18,0.38,0.1,0.58c-0.07,0.19-0.23,0.33-0.43,0.37
				c-0.01,0-0.02,0-0.03,0.01c-1.81,0.3-3.74-0.67-4.59-2.29c-0.62-1.17-0.63-2.61-0.11-3.82c-0.31,0.16-0.63,0.33-0.97,0.5
				c-2.05,1.06-4.26,1.84-6.52,2.33c-2.76,0.59-5.6,0.73-8.38,0.4c-0.8-0.09-1.59-0.2-2.39-0.3c-1.63-0.21-3.85-0.49-5.18-1.73
				c-0.94-0.88-1.27-2.08-1.53-3.04l-2.71-9.94c-0.02-0.09-0.02-0.17-0.01-0.25l-4.11-1.1c-0.89-0.24-1.51-0.9-1.62-1.74
				C238.48,221.61,238.92,220.78,239.74,220.29L239.74,220.29z"/>
			<path style="clip-path:url(#SVGID_00000045621365130342882250000000857663755881059250_);fill:#20380E;" d="M202.68,275.54
				c-0.32-1.96-0.62-3.82-0.96-5.4l-39.83-8.21c-2.07,2.85-5.96,8.76-7.31,10.83c6,1.46,12.05,2.85,18.12,4.17
				c0.94-1.39,1.74-2.87,2.38-4.42c-3.98-0.76-7.98-1.45-11.96-2.08c-0.01,0-0.02,0-0.03-0.01c-0.32-0.07-0.54-0.37-0.49-0.7
				c0.05-0.34,0.37-0.57,0.71-0.52c10.71,1.68,21.48,3.85,32.01,6.44c0.33,0.08,0.54,0.42,0.45,0.75s-0.42,0.53-0.75,0.45
				c-2.9-0.71-5.82-1.39-8.75-2.04l1.25,5.16c5.52,1.08,11.05,2.09,16.57,3.03C203.55,280.86,203.11,278.16,202.68,275.54
				L202.68,275.54z M206.22,247.18c0.28-1.35-0.59-2.68-1.95-2.96l-34.39-7.09c-1.35-0.28-2.68,0.59-2.96,1.95l-4.47,21.7l39.29,8.1
				L206.22,247.18z M176.32,272.74c-0.62,1.56-1.4,3.05-2.32,4.46c4.05,0.87,8.12,1.71,12.19,2.51l-1.25-5.2
				C182.07,273.89,179.2,273.3,176.32,272.74L176.32,272.74z M154.61,275.46c0.78,0.66,1.92,0.9,2.93,1.11l43.38,9.01
				c0.98,0.2,1.85,0.35,2.57,0.06c0.35-0.14,0.66-0.49,0.76-0.85c0.06-0.2,0.04-0.37-0.04-0.51c-8.24-1.4-16.5-2.95-24.74-4.65
				s-17.12-3.69-25.58-5.76C153.84,274.43,154.16,275.07,154.61,275.46z M205.44,285.11c-0.2,0.73-0.78,1.38-1.48,1.67
				c-1.07,0.44-2.26,0.22-3.16,0.04c-0.04-0.01-0.09-0.02-0.13-0.03l-43.38-9.01c-1.09-0.23-2.46-0.51-3.48-1.38
				c-1.08-0.92-1.65-2.67-0.69-3.9c0.07-0.09,0.17-0.16,0.28-0.2c1.25-1.92,5.72-8.72,7.79-11.5l4.53-21.97
				c0.42-2.02,2.4-3.33,4.42-2.91l34.39,7.09c2.02,0.42,3.33,2.4,2.91,4.42l-4.57,22.16c0.37,1.68,0.7,3.66,1.03,5.75
				c0.49,2.99,0.99,6.07,1.65,8.25c0.06,0.18,0.02,0.38-0.09,0.54C205.54,284.44,205.53,284.77,205.44,285.11z"/>
			<path style="clip-path:url(#SVGID_00000045621365130342882250000000857663755881059250_);fill:#20380E;" d="M165.7,258.03
				l33.92,6.99c0.13,0.03,0.26-0.06,0.29-0.19l3.67-17.81c0.03-0.13-0.06-0.26-0.19-0.29l-33.92-6.99L165.7,258.03L165.7,258.03z
				 M169.11,238.4l34.53,7.12c0.8,0.16,1.32,0.95,1.15,1.75l-3.67,17.81c-0.16,0.8-0.95,1.32-1.75,1.15l-34.53-7.12
				c-0.33-0.07-0.55-0.4-0.48-0.73l4.02-19.5C168.45,238.54,168.78,238.33,169.11,238.4L169.11,238.4z"/>
			<path style="clip-path:url(#SVGID_00000045621365130342882250000000857663755881059250_);fill:#20380E;" d="M333.24,28.87
				c-2.67-3.9-5.42-7.92-8.2-11.92c-1.82,2.31-4.91,6.64-6.2,9.24c2.82,1.95,4.97,3.34,7.25,4.81c2.38,1.53,4.83,3.11,8.09,5.38
				c0.26,0.18,0.35,0.52,0.21,0.81s-0.47,0.42-0.77,0.33c-6.81-2.13-12.17-3.51-18.38-4.73c-1.37,1.7-3.11,4.39-4.65,6.77
				c-0.66,1.02-1.29,2-1.86,2.84c11.09-0.46,21.68-1.19,32.28-2.25C338.41,36.42,335.79,32.59,333.24,28.87L333.24,28.87z
				 M313.76,25.44c-0.57-0.21-1.12-0.4-1.67-0.6c0.44,0.96,1,1.82,1.57,2.73c0.77,1.21,1.57,2.47,2.11,3.99c0,0.01,0,0.02,0.01,0.03
				c4.88,0.97,9.25,2.04,14.23,3.5c-1.67-1.12-3.16-2.07-4.6-3.01c-2.3-1.48-4.68-3.01-7.73-5.15c-0.08-0.05-0.14-0.12-0.18-0.2
				c-0.05-0.01-0.09-0.02-0.14-0.03C316.03,26.25,314.87,25.84,313.76,25.44L313.76,25.44z M342.73,40.95
				c-0.09,0.21-0.29,0.35-0.52,0.37c-11.4,1.16-22.76,1.94-34.72,2.41c-0.24,0.01-0.47-0.12-0.59-0.34
				c-0.12-0.22-0.1-0.48,0.04-0.68c0.69-0.97,1.6-2.37,2.56-3.85c1.64-2.54,3.5-5.41,4.95-7.14c-0.48-1.27-1.16-2.34-1.88-3.47
				c-0.77-1.21-1.57-2.47-2.11-3.99c-0.02-0.05-0.03-0.11-0.03-0.16c-0.1-0.16-0.13-0.35-0.06-0.54c0.07-0.2,0.22-0.34,0.41-0.4
				c0.13-0.04,0.27-0.04,0.41,0c1.02,0.35,1.98,0.7,3,1.06c1.11,0.4,2.25,0.81,3.56,1.26c1.61-3.18,5.44-8.34,6.83-10.02
				c0.08-0.09,0.18-0.16,0.3-0.2c0.07-0.02,0.15-0.03,0.23-0.03c0.2,0.01,0.39,0.11,0.5,0.27c2.95,4.23,5.87,8.5,8.69,12.63
				c2.75,4.01,5.59,8.17,8.38,12.17C342.81,40.5,342.83,40.75,342.73,40.95L342.73,40.95z"/>
			<path style="clip-path:url(#SVGID_00000045621365130342882250000000857663755881059250_);fill:#20380E;" d="M298.35,23.42
				c-0.58-1.22-1.4-2.28-2.38-3.12c-0.79,0.3-1.83,0.86-2.53,1.89c-0.9,1.33-0.98,3.26-0.21,4.91c0.37,0.8,0.89,1.44,1.49,1.85
				c0.65,0.45,1.44,0.63,2.12,0.49c0.07-0.02,0.15-0.04,0.22-0.06c0.92-0.3,1.69-1.23,1.92-2.34
				C299.25,25.7,298.79,24.33,298.35,23.42L298.35,23.42z M300.24,27.29c-0.34,1.72-1.61,3.09-3.13,3.41
				c-1.03,0.22-2.16-0.03-3.1-0.68c-0.79-0.54-1.46-1.36-1.93-2.37c-0.96-2.06-0.84-4.48,0.31-6.17c0.66-0.98,1.56-1.62,2.38-2.03
				c-0.43-0.25-0.89-0.47-1.36-0.63c-2.2-0.78-4.74-0.44-6.49,0.86c-1.84,1.37-2.75,3.8-2.21,5.91c0.09,0.34-0.12,0.69-0.46,0.78
				c-0.34,0.09-0.69-0.12-0.78-0.46c-0.66-2.59,0.45-5.57,2.69-7.25c0.66-0.49,1.41-0.87,2.2-1.13c1.73-0.57,3.68-0.55,5.49,0.09
				c0.85,0.3,1.65,0.73,2.39,1.27c0.92-0.26,1.96-0.41,3.22-0.45c2.14-0.07,3.96,0.18,5.57,0.75c1.95,0.69,3.58,1.92,4.58,3.44
				c0.2,0.29,0.12,0.69-0.18,0.89c-0.3,0.19-0.69,0.12-0.89-0.18c-0.86-1.29-2.26-2.33-3.95-2.94c-1.46-0.52-3.12-0.74-5.1-0.68
				c-0.77,0.02-1.45,0.09-2.06,0.2c0.84,0.84,1.55,1.84,2.08,2.96C300.26,24.43,300.51,25.96,300.24,27.29L300.24,27.29z"/>
			<polygon style="clip-path:url(#SVGID_00000045621365130342882250000000857663755881059250_);fill:#20380E;" points="27.26,33.45 
				22.76,35.8 23.63,30.8 20,27.26 25.03,26.53 27.26,22 29.5,26.53 34.5,27.26 30.9,30.8 31.74,35.8 			"/>
			<polygon style="clip-path:url(#SVGID_00000045621365130342882250000000857663755881059250_);fill:#20380E;" points="
				36.26,380.45 31.76,382.8 32.63,377.8 29,374.26 34.03,373.53 36.26,369 38.5,373.53 43.5,374.26 39.9,377.8 40.74,382.8 			"/>
			<path style="clip-path:url(#SVGID_00000045621365130342882250000000857663755881059250_);fill:#20380E;" d="M425.34,188.57
				c-1.26-5.08-2.01-9.49-2.81-14.17c-0.05-0.3-0.1-0.6-0.15-0.9c-0.62,0.16-1.3,0.15-1.94-0.05c-0.91-0.28-1.65-0.9-2.04-1.69
				c-0.13-0.26-0.22-0.52-0.31-0.77c-0.14-0.41-0.27-0.77-0.51-0.99c-0.38-0.35-1.08-0.36-2.09-0.03l-0.14,0.04
				c-0.9,0.29-2.02,0.66-3.05,0.19c-0.03-0.01-0.06-0.03-0.09-0.04c-0.66-0.34-1.16-0.98-1.54-1.95c-0.08-0.2-0.14-0.4-0.21-0.59
				c-0.16-0.48-0.32-0.93-0.57-1.3c-0.56-0.83-1.69-1.23-2.66-0.96c-2.7,1.65-5.43,3.25-8.27,4.9c-2.02,1.18-4.1,2.4-6.18,3.64
				c-0.84,0.5-1.31,1.38-1.26,2.35c0.05,0.97,0.6,1.8,1.48,2.21c6.1,2.88,11.57,5.34,17.35,7.94c3.64,1.64,7.41,3.33,11.39,5.15
				c0.93,0.42,1.95,0.29,2.73-0.36C425.27,190.55,425.59,189.57,425.34,188.57L425.34,188.57z M421.48,168.37l-0.04-0.2l0.09-0.18
				c1.6-3.12,3.34-6.94,4.75-10.01c0.59-1.29,1.12-2.44,1.58-3.42l-10.15-5.19c-1.76,4.15-4.4,9.94-6.38,13.34l-0.07,0.13
				l-0.12,0.08c-0.71,0.45-1.41,0.9-2.12,1.34c0.76,0.24,1.44,0.72,1.88,1.38c0.34,0.5,0.53,1.05,0.71,1.59
				c0.06,0.19,0.13,0.37,0.2,0.55c0.28,0.72,0.61,1.15,1.01,1.34c0.6,0.27,1.4,0.01,2.17-0.24l0.14-0.04
				c1.45-0.47,2.56-0.37,3.28,0.29c0.46,0.42,0.66,0.99,0.83,1.48c0.08,0.23,0.15,0.44,0.25,0.63c0.25,0.5,0.73,0.89,1.32,1.07
				c0.47,0.15,0.96,0.14,1.38,0C421.96,171.04,421.73,169.74,421.48,168.37L421.48,168.37z M429.7,152.29l-11.81-6.03
				c-0.41-0.21-0.91-0.05-1.12,0.36c-0.21,0.41-0.05,0.91,0.36,1.12l11.81,6.03c0.41,0.21,0.91,0.05,1.12-0.36
				C430.27,153,430.11,152.5,429.7,152.29z M421.25,192.65c-3.97-1.82-7.74-3.51-11.38-5.15c-5.79-2.6-11.26-5.06-17.37-7.94
				c-0.04-0.02-0.08-0.04-0.11-0.06c-1.22-0.62-1.99-1.81-2.06-3.19c-0.07-1.43,0.62-2.72,1.85-3.45c2.08-1.24,4.17-2.47,6.19-3.65
				c2.82-1.65,5.52-3.23,8.2-4.86l-0.02-0.04c0.06-0.03,0.12-0.04,0.19-0.06c1.21-0.74,2.42-1.49,3.63-2.26
				c1.95-3.39,4.55-9.08,6.27-13.16l-0.04-0.02c-1-0.51-1.4-1.74-0.89-2.74s1.74-1.4,2.74-0.89l11.81,6.03
				c1,0.51,1.4,1.74,0.89,2.74c-0.41,0.81-1.3,1.23-2.16,1.08c-0.46,0.99-1,2.15-1.59,3.46c-1.38,3.02-3.1,6.76-4.68,9.87
				c0.37,2.06,0.7,3.98,1.02,5.84c0.79,4.65,1.54,9.05,2.79,14.08c0.36,1.43-0.13,2.9-1.26,3.85
				C424.12,193.06,422.59,193.26,421.25,192.65L421.25,192.65z"/>
			<path style="clip-path:url(#SVGID_00000045621365130342882250000000857663755881059250_);fill:#20380E;" d="M406.5,170.58
				c-0.67-0.34-1.49-0.08-1.83,0.59s-0.08,1.49,0.59,1.83c0.67,0.34,1.49,0.08,1.83-0.59C407.43,171.74,407.16,170.92,406.5,170.58z
				 M404.71,174.07c-1.26-0.64-1.76-2.19-1.12-3.45c0.64-1.26,2.19-1.76,3.45-1.12s1.76,2.19,1.12,3.45S405.97,174.71,404.71,174.07
				z"/>
			<path style="clip-path:url(#SVGID_00000045621365130342882250000000857663755881059250_);fill:#20380E;" d="M417.13,179.55
				c-0.37-0.19-0.83-0.04-1.03,0.33c-0.19,0.37-0.04,0.83,0.33,1.02c0.37,0.19,0.83,0.04,1.02-0.33
				C417.66,180.2,417.51,179.74,417.13,179.55z M415.89,181.98c-0.97-0.49-1.35-1.68-0.86-2.65c0.49-0.97,1.68-1.35,2.65-0.86
				c0.97,0.49,1.35,1.68,0.86,2.65C418.04,182.09,416.86,182.48,415.89,181.98z"/>
			<path style="clip-path:url(#SVGID_00000045621365130342882250000000857663755881059250_);fill:#20380E;" d="M417.41,160.63
				c-0.37-0.19-0.83-0.04-1.03,0.33c-0.19,0.37-0.04,0.83,0.33,1.02c0.37,0.19,0.83,0.04,1.02-0.33
				C417.93,161.29,417.78,160.83,417.41,160.63z M416.17,163.07c-0.97-0.49-1.35-1.68-0.86-2.65c0.49-0.97,1.68-1.35,2.65-0.86
				c0.97,0.49,1.35,1.68,0.86,2.65C418.32,163.18,417.14,163.56,416.17,163.07z"/>
			<path style="clip-path:url(#SVGID_00000045621365130342882250000000857663755881059250_);fill:#20380E;" d="M424.51,155.8
				c-0.37-0.19-0.83-0.04-1.03,0.33c-0.19,0.37-0.04,0.83,0.33,1.02c0.37,0.19,0.84,0.04,1.03-0.33
				C425.03,156.45,424.89,155.99,424.51,155.8z M423.27,158.23c-0.97-0.49-1.35-1.68-0.86-2.65c0.49-0.97,1.68-1.35,2.65-0.86
				c0.97,0.49,1.35,1.68,0.86,2.65C425.42,158.34,424.24,158.73,423.27,158.23z"/>
			<path style="clip-path:url(#SVGID_00000045621365130342882250000000857663755881059250_);fill:#20380E;" d="M437.3,47.08
				c-0.37,1.49-0.9,2.92-1.55,4.29c-1.11-2.08-2.45-4.06-3.98-5.89l6.19-4.08C437.99,43.28,437.77,45.19,437.3,47.08L437.3,47.08z
				 M428.78,59.91c-0.09-0.26-0.31-0.47-0.59-0.52c-2.36-0.43-4.68-1.3-6.72-2.5c-0.53-1.89-1.07-3.54-1.59-5.13l-0.49,0.16
				l-0.04,0.02l0.04-0.01l0.49-0.17l-0.53,0.18c1-1.41,1.9-2.51,2.77-3.56c0.97-1.17,1.96-2.39,3.12-4.05
				c0.04,0.02,0.08,0.04,0.12,0.06c1.28,0.45,3.07,1.02,4.72,1.36c0.03,0.12,0.08,0.24,0.17,0.35c1.72,1.98,3.19,4.15,4.37,6.46
				c0.08,0.15,0.2,0.26,0.34,0.34C433.41,55.56,431.33,57.94,428.78,59.91L428.78,59.91z M425.58,62.03
				c-2.18,1.23-4.48,2.11-6.82,2.67c0.89-2.02,1.73-4.09,2.49-6.16c1.93,1.06,4.07,1.85,6.25,2.29
				C426.88,61.26,426.24,61.66,425.58,62.03L425.58,62.03z M412.54,65.45c-3.6,0-7.15-0.73-10.37-2.14c0.07-0.12,0.12-0.25,0.12-0.4
				l0.17-6.11c2.37-1.45,4.31-3.67,5.58-6.37c1.56,0.41,3.44,0.74,5.27,1.06c1.77,0.31,3.6,0.63,5.02,1.01
				c0.06,0.02,0.12,0.02,0.18,0.02c0.5,1.53,1.02,3.11,1.51,4.9c-0.86,2.37-1.82,4.74-2.85,7.04c-0.08,0.19-0.09,0.39-0.02,0.57
				C415.62,65.31,414.08,65.45,412.54,65.45z M394.51,57.96c0.85-0.09,1.82-0.19,2.76-0.28c1.28-0.13,2.6-0.27,3.63-0.37l-0.14,5.32
				C398.44,61.44,396.32,59.87,394.51,57.96z M388.58,44.44c0.08-0.02,0.17-0.05,0.24-0.1l6.17-3.87c2.89-0.05,5.81,0.04,8.69,0.27
				c1.07,3.28,1.71,4.94,2.83,7.85l0.31,0.8c-1.19,2.72-3.2,5-5.58,6.34c-1.09,0.1-2.63,0.26-4.13,0.42
				c-1.38,0.14-2.8,0.29-3.86,0.39c-0.51-0.64-0.99-1.31-1.43-2.01C389.88,51.42,388.79,47.98,388.58,44.44L388.58,44.44z
				 M390.71,33.73c0.98,1.82,2,3.7,3.14,5.63l-5.29,3.32c0.04-1.58,0.26-3.18,0.65-4.76C389.57,36.47,390.08,35.07,390.71,33.73
				L390.71,33.73z M400.92,22.96c0.06-0.03,0.12-0.06,0.18-0.1c0.11,0.17,0.28,0.3,0.5,0.34c2.56,0.51,4.67,1.39,7,2.54
				c1.01,2.17,1.73,4.18,2.38,6.64c-0.78,0.76-1.56,1.52-2.31,2.27c-1.53,1.51-3.11,3.07-4.71,4.55c-2.85-0.23-5.73-0.33-8.59-0.29
				c-1.36-2.28-2.54-4.49-3.69-6.63c-0.04-0.07-0.08-0.12-0.13-0.17C393.7,28.38,396.9,25.23,400.92,22.96z M408.89,24.16
				c-1.96-0.95-3.8-1.72-5.9-2.24c2.87-1.3,5.89-2.05,8.91-2.29L408.89,24.16L408.89,24.16z M413.96,19.55
				c3.26,0,6.48,0.6,9.45,1.76c-0.02,0.13-0.01,0.26,0.03,0.39l2.64,7.36c-1.33,1.58-3.07,3.22-4.74,4.81
				c-2.57-1.11-5.05-1.5-7.46-1.88c-0.48-0.07-0.97-0.15-1.46-0.24c-0.65-2.38-1.39-4.44-2.36-6.55l3.53-5.32
				c0.07-0.1,0.11-0.22,0.12-0.34C413.79,19.55,413.87,19.55,413.96,19.55L413.96,19.55z M432.71,27.83l-5.4-0.17
				c-0.04,0-0.07,0-0.1,0.01l-1.99-5.56C428.06,23.49,430.63,25.41,432.71,27.83L432.71,27.83z M418.2,50.87
				c-1.38-0.34-3.03-0.63-4.63-0.91c-1.85-0.32-3.75-0.66-5.27-1.06c-0.01-0.02-0.02-0.03-0.03-0.04l-0.32-0.83
				c-1.11-2.89-1.75-4.54-2.81-7.8c1.57-1.46,3.11-2.99,4.61-4.46c0.82-0.8,1.66-1.64,2.5-2.46c0.46,0.08,0.92,0.15,1.37,0.22
				c2.46,0.39,4.79,0.75,7.22,1.83c0.46,1.45,0.99,2.85,1.5,4.21c0.5,1.32,1.02,2.69,1.46,4.08c-1.05,1.5-1.98,2.63-2.89,3.72
				C420.07,48.41,419.19,49.49,418.2,50.87L418.2,50.87z M437.88,40.06c-0.24-0.13-0.53-0.12-0.78,0.04l-6.35,4.19
				c-1.32-0.24-3.04-0.73-4.9-1.38c-0.22-0.08-0.46-0.04-0.64,0.07c-0.44-1.36-0.93-2.68-1.42-3.96c-0.49-1.3-0.99-2.64-1.43-4
				c1.84-1.74,3.74-3.54,5.17-5.31c0.11-0.14,0.17-0.31,0.17-0.48l6,0.2c0,0,0.02,0,0.02,0c0.07,0,0.14-0.01,0.2-0.03
				c0.26,0.36,0.5,0.72,0.74,1.1C436.53,33.43,437.61,36.7,437.88,40.06z M400.17,21.61c-6.26,3.52-10.8,9.33-12.46,15.93
				c-1.55,6.14-0.55,12.46,2.81,17.81c0.54,0.86,1.13,1.67,1.76,2.44c0.02,0.02,0.04,0.05,0.06,0.07
				c4.91,5.92,12.44,9.15,20.22,9.15c4.67,0,9.44-1.16,13.77-3.61c6.26-3.52,10.8-9.33,12.46-15.93c1.55-6.14,0.55-12.46-2.81-17.81
				C428.76,18.16,412.69,14.55,400.17,21.61z"/>
			<path style="clip-path:url(#SVGID_00000045621365130342882250000000857663755881059250_);fill:#20380E;" d="M419.97,310.67
				c-0.17,2.9-0.35,5.89-0.5,8.88c2.48-0.17,6.91-0.63,9.17-1.17c-0.95-2.12-1.73-3.71-2.55-5.38c-0.86-1.74-1.75-3.54-2.84-6.01
				c-0.09-0.2,0.03-0.38,0.28-0.44c0.25-0.06,0.55,0.03,0.71,0.21c3.65,4.02,6.67,7.05,10.37,10.41c1.85-0.11,4.47-0.48,6.8-0.81
				c0.99-0.14,1.95-0.28,2.78-0.38c-7.99-4.85-15.78-9.34-23.74-13.71C420.3,305.05,420.13,307.9,419.97,310.67L419.97,310.67z
				 M431.79,321.01c0.29,0.35,0.57,0.68,0.86,1.02c0.19-0.62,0.26-1.24,0.33-1.89c0.09-0.88,0.19-1.78,0.61-2.68
				c0-0.01,0.01-0.01,0.01-0.02c-2.9-2.64-5.4-5.09-8.12-7.98c0.59,1.24,1.12,2.33,1.65,3.39c0.83,1.69,1.69,3.43,2.71,5.74
				c0.03,0.06,0.03,0.12,0.02,0.17c0.03,0.02,0.06,0.05,0.08,0.08C430.63,319.63,431.22,320.33,431.79,321.01L431.79,321.01z
				 M419.65,301.13c0.17-0.05,0.39-0.02,0.56,0.08c8.57,4.69,16.93,9.51,25.54,14.75c0.18,0.11,0.27,0.27,0.24,0.41
				c-0.03,0.15-0.18,0.25-0.38,0.27c-0.99,0.1-2.36,0.3-3.8,0.5c-2.47,0.35-5.27,0.75-7.2,0.84c-0.33,0.77-0.41,1.54-0.5,2.35
				c-0.09,0.88-0.19,1.78-0.61,2.68c-0.01,0.03-0.04,0.06-0.06,0.08c-0.01,0.11-0.1,0.21-0.24,0.26c-0.15,0.05-0.33,0.05-0.49-0.01
				c-0.11-0.04-0.21-0.1-0.28-0.19c-0.53-0.61-1.02-1.2-1.54-1.83c-0.57-0.68-1.15-1.37-1.83-2.17c-2.79,0.64-8.17,1.13-10.01,1.22
				c-0.1,0.01-0.21-0.01-0.31-0.05c-0.06-0.02-0.12-0.05-0.17-0.09c-0.14-0.09-0.21-0.22-0.21-0.35c0.16-3.17,0.34-6.34,0.53-9.41
				c0.18-2.99,0.36-6.07,0.51-9.07C419.37,301.29,419.48,301.17,419.65,301.13L419.65,301.13z"/>
			<path style="clip-path:url(#SVGID_00000045621365130342882250000000857663755881059250_);fill:#20380E;" d="M441.51,328.89
				c-0.23,0.79-0.21,1.63,0.03,2.43c0.71,0.23,1.73,0.46,2.75,0.33c1.32-0.17,2.39-0.96,2.72-2.03c0.16-0.52,0.13-1.03-0.07-1.48
				c-0.22-0.49-0.68-0.93-1.23-1.17c-0.06-0.03-0.12-0.05-0.19-0.08c-0.8-0.29-1.83-0.24-2.57,0.14
				C442.07,327.5,441.68,328.3,441.51,328.89L441.51,328.89z M442.22,326.36c1.14-0.59,2.74-0.6,3.97-0.05
				c0.83,0.37,1.49,1,1.81,1.71c0.27,0.59,0.31,1.25,0.11,1.9c-0.41,1.32-1.76,2.32-3.45,2.53c-0.98,0.12-1.94-0.01-2.73-0.2
				c0.17,0.31,0.38,0.61,0.62,0.89c1.13,1.33,3.09,2.35,4.99,2.58c2,0.24,3.91-0.39,4.64-1.55c0.12-0.19,0.44-0.25,0.73-0.13
				c0.29,0.12,0.42,0.37,0.3,0.55c-0.89,1.42-3.23,2.21-5.67,1.91c-0.72-0.09-1.44-0.26-2.13-0.51c-1.5-0.54-2.86-1.44-3.79-2.53
				c-0.44-0.52-0.77-1.07-1.01-1.64c-0.78-0.31-1.59-0.72-2.49-1.27c-1.53-0.94-2.68-1.88-3.5-2.86c-1-1.19-1.5-2.45-1.41-3.57
				c0.02-0.22,0.28-0.35,0.59-0.3c0.31,0.05,0.54,0.27,0.53,0.48c-0.08,0.95,0.36,2.04,1.22,3.06c0.75,0.89,1.8,1.74,3.21,2.61
				c0.55,0.34,1.06,0.62,1.55,0.85c-0.14-0.74-0.12-1.5,0.09-2.22C440.7,327.59,441.33,326.81,442.22,326.36L442.22,326.36z"/>
		</g>
	</g>
</g>
</svg>
