<svg xmlns="http://www.w3.org/2000/svg" xmlns:xlink="http://www.w3.org/1999/xlink" xml:space="preserve" id="Layer_1" x="0" y="0" style="enable-background:new 0 0 460 460" version="1.0" viewBox="0 0 460 460"><style>.st0,.st1{clip-path:url(#SVGID_00000008862375033836134850000003730446700654102400_)}.st0{fill:#fff}.st1{opacity:.15}.st2{clip-path:url(#SVGID_00000057139476808531985080000000275391069756426670_);fill:#20380e}.st3,.st4,.st5,.st6,.st7{clip-path:url(#SVGID_00000008862375033836134850000003730446700654102400_);fill:#20380e}.st4,.st5,.st6,.st7{fill:#94b73d}.st5,.st6,.st7{fill:#ebefe7}.st6,.st7{fill:#ed9d42}.st7{fill:#4a9db1}</style><defs><path id="SVGID_1_" d="M0 0h460v460H0z"/></defs><clipPath id="SVGID_00000181802100151115227840000013667439603942344594_"><use xlink:href="#SVGID_1_" style="overflow:visible"/></clipPath><path d="M0 0h460v460H0z" style="clip-path:url(#SVGID_00000181802100151115227840000013667439603942344594_);fill:#fff"/><g style="opacity:.15;clip-path:url(#SVGID_00000181802100151115227840000013667439603942344594_)"><defs><path id="SVGID_00000182498432487384907860000017373364679451317929_" d="M0 0h460v460H0z"/></defs><clipPath id="SVGID_00000012471069344269275560000014239910383214613635_"><use xlink:href="#SVGID_00000182498432487384907860000017373364679451317929_" style="overflow:visible"/></clipPath><path d="M51.08 327.42c-.1-.85-.75-1.62-1.58-1.87-.45-.14-1.16.03-1.75.34-.41.22-.77.51-.93.81-.87 1.6.48 2.71.63 2.83.67.52 1.71.57 2.48.12.77-.44 1.25-1.38 1.15-2.23zm-.44 3.75c-1.34.71-3.04.58-4.21-.32-.98-.76-2.32-2.66-1.08-4.95.78-1.44 3.12-2.42 4.64-1.95 1.47.46 2.58 1.77 2.75 3.28.17 1.5-.64 3.09-1.96 3.86-.05.03-.09.06-.14.08z" style="clip-path:url(#SVGID_00000012471069344269275560000014239910383214613635_);fill:#20380e"/><path d="M75.6 343.51c-1.34-2.2-4.13-3.1-6.49-2.09-8.05 3.44-15.72 7.51-22.8 12.11-2.11 1.37-2.93 4.05-1.96 6.39.69 1.67 1.49 3.49 2.45 5.57.6 1.3 1.67 2.27 3.01 2.75 1.34.47 2.78.39 4.06-.25 7.71-3.83 15.45-7.7 22.67-11.31.04-.02.07-.04.11-.06a5.211 5.211 0 0 0 2.31-6.79 59.9 59.9 0 0 0-3.36-6.32zm-17.9-2.03c-.22.15-.45.29-.67.42-.19.11-.39.22-.59.33-.7.37-1.43.69-2.17.95l1.58 2.78c1.09-.58 2.18-1.16 3.29-1.72l-1.44-2.76zm5.99-16.35c-.74-5.91-5.24-11.34-10.96-13.21-2.63-.86-6.4-.44-10.1 1.13-.57.24-1.13.51-1.67.79-2.9 1.53-5.18 3.58-6.28 5.69-4.7 9 .64 16.66 4.54 19.76 4.64 3.7 11.77 4.18 16.94 1.16 5.19-3.01 8.28-9.31 7.53-15.32zm-36.37 9.41c1.07.01 2.1-.98 2.12-2.05.01-.51-.22-1.04-.62-1.46-.4-.41-.93-.65-1.44-.66-.32 0-.63.08-.91.23-.67.36-1.18 1.07-1.19 1.83-.03 1.08.97 2.1 2.04 2.11zm50.11 23.56c-.05.02-.09.05-.14.08-7.22 3.61-14.97 7.48-22.68 11.31-1.68.84-3.58.95-5.36.33a6.86 6.86 0 0 1-3.98-3.62c-.68-1.47-1.28-2.82-1.82-4.07-.18.06-.38.06-.57-.01-5.23-2.02-9.88-5.67-13.08-10.28-3.2-4.61-5-10.23-5.08-15.85 0-.25.11-.48.29-.63-.87-.71-1.44-1.79-1.42-2.94.02-2 1.8-3.73 3.79-3.71.95.01 1.91.43 2.62 1.16.71.73 1.11 1.7 1.1 2.65-.02 1.38-.88 2.64-2.08 3.27-.53.28-1.12.43-1.73.43-.31 0-.61-.05-.89-.14.09 5.24 1.78 10.5 4.77 14.8 2.85 4.09 6.9 7.38 11.49 9.34-1.06-2.99.05-6.35 2.73-8.08 2.9-1.88 5.9-3.67 8.98-5.37l-1.76-3.09c-4.96 1.19-10.42.13-14.42-3.06-4.3-3.42-10.19-11.87-4.98-21.84 3.19-6.1 13.68-10.51 20.04-8.43 6.41 2.09 11.27 7.96 12.09 14.59.73 5.82-1.81 11.89-6.29 15.56l1.57 3.01c2.57-1.27 5.18-2.47 7.83-3.6 3.12-1.33 6.81-.15 8.57 2.76a63.16 63.16 0 0 1 3.45 6.49c1.54 3.33.2 7.23-3.04 8.94z" style="clip-path:url(#SVGID_00000012471069344269275560000014239910383214613635_);fill:#20380e"/><path d="M71.21 344.8c-.2-.05-.4-.03-.55.05a.21.21 0 0 0-.06.04c-.13.09-.27.14-.43.16-.09.11-.19.46-.06.78.08.21.28.39.52.49.24.1.48.11.68.02.2-.08.36-.27.45-.51.08-.23.08-.47-.01-.65-.1-.18-.29-.32-.54-.38zm.93 2.99-.18.09c-.6.25-1.32.25-1.96-.02a2.65 2.65 0 0 1-1.43-1.4c-.31-.77-.22-1.69.23-2.34.27-.38.63-.63 1.04-.7.51-.29 1.14-.37 1.76-.23.72.17 1.31.62 1.63 1.23.31.59.34 1.31.1 1.98-.22.6-.65 1.1-1.19 1.39zM75 351.96c-.2-.05-.4-.03-.55.05a.21.21 0 0 0-.06.04c-.13.09-.27.14-.43.16-.09.11-.19.46-.06.78.08.2.28.39.52.49.24.1.48.11.68.02.19-.08.36-.27.45-.51.08-.23.08-.47-.01-.65-.1-.18-.3-.32-.54-.38zm.92 2.99-.18.09c-.6.25-1.32.25-1.96-.02a2.65 2.65 0 0 1-1.43-1.4c-.31-.77-.22-1.69.23-2.34.26-.38.63-.63 1.04-.7.51-.29 1.14-.37 1.76-.23.72.17 1.31.62 1.63 1.23.31.59.34 1.31.1 1.98-.22.61-.65 1.11-1.19 1.39zM49.28 356.39c-.2-.05-.4-.03-.55.05a.21.21 0 0 0-.06.04c-.13.09-.27.14-.43.16-.09.11-.19.46-.06.78.08.21.28.39.52.49.24.1.48.11.68.02.2-.08.36-.27.45-.51.08-.23.08-.47-.01-.65-.1-.18-.3-.32-.54-.38zm.92 2.99-.18.09c-.6.25-1.32.25-1.96-.02a2.65 2.65 0 0 1-1.43-1.4c-.31-.77-.22-1.69.23-2.34.27-.38.63-.63 1.04-.7.51-.29 1.14-.37 1.76-.23.72.17 1.31.62 1.63 1.23.31.59.34 1.31.1 1.98-.22.6-.65 1.1-1.19 1.39zM53.06 363.55c-.2-.05-.4-.03-.55.05a.21.21 0 0 0-.06.04c-.13.09-.27.14-.43.16-.09.11-.19.46-.06.78.08.2.28.39.52.49.24.1.48.11.68.02.19-.08.36-.27.45-.51.08-.23.08-.47-.01-.65-.1-.18-.3-.32-.54-.38zm.93 2.99-.18.09c-.6.25-1.32.25-1.96-.02a2.65 2.65 0 0 1-1.43-1.4c-.31-.77-.22-1.69.23-2.34.26-.38.63-.63 1.04-.7.52-.29 1.14-.37 1.76-.23.72.17 1.31.62 1.63 1.23.31.59.34 1.31.1 1.98-.23.6-.65 1.1-1.19 1.39zM47.81 312.7c4.29-.69 8.92 1.58 11.01 5.39.22.4.07.91-.33 1.13 0 0-.01 0-.01.01-.4.21-.9.06-1.12-.34-1.76-3.21-5.66-5.13-9.28-4.54a.85.85 0 0 1-.96-.69.83.83 0 0 1 .69-.96zM68.02 325.66a.62.62 0 0 1-.24.08.838.838 0 0 1-.97-.67c-.66-3.65-2.31-7.06-4.77-9.85-.3-.35-.27-.87.07-1.18s.87-.27 1.18.07a22.06 22.06 0 0 1 5.16 10.65c.07.38-.12.73-.43.9z" style="clip-path:url(#SVGID_00000012471069344269275560000014239910383214613635_);fill:#20380e"/><path d="M61.22 311.47a.823.823 0 0 1-.29-1.14c.23-.4.75-.53 1.14-.29 5.88 3.5 9.68 10.18 9.67 17.02 0 .32-.18.6-.45.74-.12.06-.25.1-.39.1-.46 0-.83-.37-.83-.83.01-6.29-3.47-12.4-8.85-15.6zM27.77 326.88c-.45.11-.9-.15-1.01-.6-.68-2.68-.04-5.68 1.69-7.84a.83.83 0 0 1 1.17-.13c.36.29.42.81.13 1.17-1.41 1.76-1.93 4.2-1.38 6.38.1.38-.08.77-.42.94-.06.04-.12.07-.18.08zM24.86 324.05a.837.837 0 0 1-1.22-.63c-.43-3.2.8-6.53 3.19-8.7.34-.31.87-.28 1.18.06.31.34.28.87-.06 1.18-1.99 1.8-3.01 4.58-2.66 7.24.05.35-.13.68-.43.85zM33.1 339.52c.39-.24.91-.11 1.14.28a9.989 9.989 0 0 0 5.61 4.33c.44.13.69.6.56 1.04-.07.22-.22.4-.41.5s-.41.13-.63.06c-2.7-.81-5.09-2.65-6.56-5.07-.23-.39-.11-.9.29-1.14zM38.82 347.51c-.07.22-.22.39-.41.49-.19.1-.42.13-.64.06-3.64-1.12-6.72-3.7-8.46-7.09-.21-.41-.05-.9.35-1.12h.01a.83.83 0 0 1 1.12.36c1.51 2.95 4.3 5.29 7.46 6.26.46.13.71.6.57 1.04zM69.13 213.59c-9.56 7.1-19.15 14.48-28.43 21.61-5.56 4.28-11.31 8.7-17.01 13.02a1.187 1.187 0 0 0-.34 1.5c2.4 4.74 4.83 9.38 8.05 13.85l4.28-3.23a.582.582 0 0 1-.23-.26c-.22-.55-.68-1.03-1.23-1.26a.543.543 0 0 1-.28-.71c.12-.27.44-.4.71-.28.82.35 1.48 1.03 1.8 1.86.01.02.01.04.02.06l1.78-1.34a.7.7 0 0 1-.17-.13l-1.4-1.67a.54.54 0 1 1 .83-.69l1.4 1.67c.06.07.1.15.11.24l1.52-1.14a.542.542 0 0 1-.35-.21l-1.12-1.5a.543.543 0 1 1 .87-.65l1.12 1.5c.06.09.1.18.11.28v.11l1.41-1.06-2.81-3.72c-.18-.24-.13-.58.1-.76s.58-.13.76.1l2.81 3.72 1.89-1.42a.427.427 0 0 1-.14-.13l-.92-1.19a.541.541 0 1 1 .86-.66l.92 1.19c.04.06.07.12.09.18l1.31-.99a.582.582 0 0 1-.34-.28c-.22-.45-.56-.84-.96-1.13a.542.542 0 0 1-.13-.75c.17-.24.51-.3.75-.13.56.39 1.01.92 1.31 1.53.03.06.05.13.05.2v.04l1.47-1.11c0-.01-.01-.01-.01-.02-.24-.59-.64-1.11-1.14-1.51a.54.54 0 0 1 .68-.84c.58.46 1.04 1.05 1.36 1.71l1.23-.93a.523.523 0 0 1-.27-.22l-.97-1.6a.537.537 0 0 1 .18-.74c.25-.16.59-.07.74.18l.97 1.6c.04.07.07.15.08.23l2.03-1.53c-1.02-1.07-1.9-2.26-2.64-3.54a.541.541 0 1 1 .94-.54c.71 1.24 1.58 2.39 2.58 3.42l1.47-1.11a.546.546 0 0 1-.43-.24l-.82-1.25a.553.553 0 0 1 .15-.75c.25-.16.59-.09.75.15l.82 1.25c.05.08.08.17.09.26 0 .05 0 .11-.01.16l1.02-.77a.546.546 0 0 1-.21-.19l-.77-1.25a.529.529 0 0 1 .18-.74c.25-.16.59-.08.74.18l.77 1.25c.03.06.06.11.07.18l1.12-.84a.517.517 0 0 1-.18-.15l-1.07-1.39a.541.541 0 1 1 .86-.66l1.07 1.39c.05.07.08.14.1.22l1.71-1.29a4.82 4.82 0 0 1-1.34-1.66.536.536 0 0 1 .25-.72c.27-.13.59-.02.72.25.26.53.64.99 1.12 1.35.05.04.09.08.12.13l1.47-1.11c-.04-.02-.07-.05-.1-.08l-2.59-2.74c-.2-.22-.19-.56.02-.76.22-.2.56-.2.76.02l2.59 2.74c.06.06.1.14.12.22l1.56-1.17-.99-1.17a.538.538 0 1 1 .82-.7l1.02 1.19c.01.01.01.02.02.02l.98-.74a.462.462 0 0 1-.17-.17l-.92-1.45a.54.54 0 0 1 .17-.75.54.54 0 0 1 .75.17l.92 1.45c.03.05.05.1.06.15l1.57-1.18-.03-.03-1.12-1.49a.543.543 0 1 1 .87-.65l1.12 1.49c.01.01.02.02.03.04l1.57-1.18a.526.526 0 0 1-.14-.12l-1.37-1.59a.53.53 0 0 1 .06-.76c.23-.2.57-.17.76.06l1.37 1.59c.06.07.1.14.12.23l1.33-1-2.76-3.3a.54.54 0 1 1 .83-.69l2.8 3.34 2.19-1.65c-2.64-5.64-5.31-9.56-8.49-13.67-.46-.54-1.21-.64-1.73-.25zm2.52-.43c3.3 4.26 6.06 8.32 8.8 14.27a.539.539 0 0 1-.16.66L31.6 264.76c-.12.09-.26.12-.4.1a.553.553 0 0 1-.36-.22c-3.42-4.67-5.96-9.5-8.46-14.44-.5-.98-.22-2.18.65-2.84 5.7-4.33 11.45-8.75 17.01-13.02 9.29-7.14 18.89-14.52 28.45-21.62a2.3 2.3 0 0 1 3.16.44z" style="clip-path:url(#SVGID_00000012471069344269275560000014239910383214613635_);fill:#20380e"/><path d="M36.46 243.97c.08.09.13.21.14.32.01.16-.05.32-.18.44a52.36 52.36 0 0 1-8.46 6.2c-.26.15-.59.06-.74-.19a.538.538 0 0 1 .19-.74c2.95-1.74 5.74-3.78 8.29-6.07.22-.2.56-.18.76.04zM69.36 218.66c.07.09.11.19.11.29.01.17-.06.35-.21.46l-30.62 23.87c-.24.18-.58.14-.76-.09a.549.549 0 0 1 .09-.76l30.62-23.87c.25-.18.59-.14.77.1zM389.62 259.03c.08.55.37 1.02.59 1.38l1.98 3.18c.03.05.06.1.1.15-1.08 1.6-2.2 3.24-3.67 4.48-1.58 1.34-3.43 1.99-5.06 1.78-1.26-.16-2.4-.78-3.61-1.45-.81-.44-1.65-.9-2.55-1.23-2.45-.88-5.25-.64-7.54.57.85-2.79 2.34-5.23 4.29-6.98 2.57-2.31 5.96-3.41 9.07-2.94.71.11 1.42.29 2.17.48 1.37.35 2.78.72 4.23.58zm2.4-1.42c.23-.1.48-.17.74-.26.34-.11.69-.22 1.03-.38 1.14 1.35 1.9 2.9 2.19 4.43-.62.66-1.34 1.21-2.15 1.63-.19.1-.27.12-.31.12-.06-.05-.16-.21-.2-.27l-1.98-3.18c-.23-.37-.41-.68-.41-.96.01-.47.55-.91 1.09-1.13zm7.04-2.78c8.79-4.11 17.89-8.36 27.35-10.97 1.01-.28 1.63-.26 1.92.07.28.32.15.9-.12 1.26-.38.5-1.04.83-1.62 1.12-9.56 4.8-19.44 9.77-29.35 14.49-.33-1.44-1.02-2.88-2-4.19 1.27-.59 2.57-1.19 3.82-1.78zm-15.64 1.81c-3.51-.52-7.31.7-10.17 3.27-2.54 2.28-4.36 5.61-5.13 9.38-.06.28.07.56.3.7l.01.01c.24.15.56.12.78-.06 2.12-1.75 5.15-2.28 7.73-1.35.8.29 1.56.7 2.36 1.14 1.27.7 2.58 1.41 4.09 1.6 2 .25 4.22-.51 6.09-2.09 1.62-1.36 2.79-3.09 3.93-4.76.46.04.86-.16 1.05-.26.89-.46 1.69-1.06 2.38-1.77.06-.01.12-.03.18-.06 10.18-4.84 20.34-9.94 30.17-14.88.68-.34 1.52-.76 2.09-1.51.6-.79.82-2.1.06-2.97-.88-1-2.3-.75-3.29-.48-9.57 2.64-18.71 6.92-27.56 11.05-1.33.62-2.71 1.27-4.07 1.9a.678.678 0 0 0-.77 0c-.36.25-.81.4-1.29.56-.27.09-.56.18-.84.3-.6.25-1.22.68-1.59 1.26-1.34.26-2.73-.1-4.2-.48-.76-.19-1.53-.39-2.31-.5zM273.78 76.02c-.01.17.16 1 2.83 4.45.72.93 1.52 1.93 2.35 2.93 2.65-1.83 5.27-3.78 7.77-5.82.05-.04.11-.07.17-.09-.29-.37-.58-.73-.87-1.09-1.7-2.12-3.58-4.22-6.06-4.66-1.3-.23-2.73.11-3.93.94-1.21.82-2.03 2.04-2.26 3.34zm8.54 11.39c.1.11.19.22.28.33l.94-6.29c-1.28.96-2.58 1.89-3.88 2.79.92 1.11 1.83 2.19 2.66 3.17zm2.43 2.9c.5.62 1 1.19 1.57 1.54.07-4.26.33-8.55.77-12.78.03-.3.3-.52.61-.49.03 0 .05.01.07.01-.08-.1-.16-.2-.23-.3-.03.05-.07.1-.12.14-.86.7-1.73 1.39-2.61 2.06l-1.23 8.18c-.01.06-.03.11-.06.16.47.56.88 1.05 1.23 1.48zm4.99.86c.02-3.11.18-6.26.49-9.35 0-.02.01-.03.01-.05-.68-.89-1.37-1.77-2.06-2.65v.06c-.45 4.3-.71 8.67-.77 12.99.79 0 1.58-.45 2.33-1zm3.4-4.41c-.01-1.08-.71-2.09-1.48-3.11-.14-.19-.29-.38-.44-.58-.21 2.4-.34 4.83-.37 7.25 1.28-1.04 2.31-2.2 2.29-3.56zm-20.45-10.93c.28-1.59 1.27-3.07 2.71-4.07 1.44-1 3.17-1.41 4.76-1.12.64.12 1.24.32 1.8.59 1.96.94 3.5 2.7 4.93 4.47 1.92 2.39 3.83 4.84 5.67 7.29.88 1.18 1.68 2.35 1.7 3.76.03 2.1-1.63 3.64-3.42 5-.01.01-.02.01-.03.02-.08.18-.25.31-.45.33-1.01.72-2.16 1.35-3.42 1.14-1.4-.23-2.39-1.43-3.04-2.23-.62-.76-1.45-1.74-2.42-2.89-6.15-7.26-9.03-10.96-8.79-12.29zM422.14 432.14c2.13-1.81 3.61-4.28 4.94-6.67 1.51-2.7 2.96-5.59 2.77-8.62-.16-2.5-1.52-5.13-3.85-7.41-3.65-3.58-8.67-5.48-13.41-5.09-4.64.38-8.9 3-11.16 6.78-.19.32-.37.64-.53.98-3.07 6.39-1.96 14.11 2.7 18.77 4.98 4.98 13.47 5.55 18.54 1.26zm.62 3.21c.42.36.94.52 1.33.4.16-.05.31-.14.45-.26.03-.05.07-.1.12-.14a.42.42 0 0 1 .14-.09l.27-.27 1.59-1.68c.26-.27.53-.55.62-.85.14-.44-.13-.97-.45-1.29-.33-.33-.77-.57-1.23-.79-.76 1.01-1.61 1.97-2.59 2.81-.39.33-.79.63-1.21.9.28.46.58.92.96 1.26zm17.85 14.16c.77.48 1.48.81 1.86.84.48.04 1.08-.17 1.22-.61.14-.46-.2-1.07-1.06-1.86-1.39-1.27-4.54-4.33-7.59-7.29-2.69-2.61-5.46-5.29-7.02-6.76-.12.15-.25.28-.36.4l-1.59 1.67c2.91 3.22 11.62 11.78 14.53 13.6l.01.01zm-37.96-17.68c-2.53-2.54-4.13-5.89-4.63-9.7-.47-3.62.12-7.39 1.67-10.62 2.27-4.72 7.29-8.07 12.79-8.52 5.14-.42 10.55 1.63 14.47 5.48 1.81 1.78 4.02 4.66 4.25 8.29.22 3.4-1.4 6.62-2.94 9.37a48.287 48.287 0 0 1-1.87 3.11c.49.24.98.54 1.4.96.67.68.98 1.56.85 2.37 1.5 1.39 4.46 4.26 7.33 7.05 3.05 2.95 6.2 6.01 7.57 7.27.52.48 1.91 1.76 1.44 3.26-.05.15-.11.29-.19.43-.5.84-1.57 1.22-2.45 1.13-.81-.08-1.88-.68-2.45-1.04l-.02-.01c-3.06-1.91-11.85-10.54-14.84-13.86-.17.1-.34.19-.54.25-.84.26-1.84.01-2.62-.67-.54-.47-.91-1.06-1.24-1.61-5.59 2.89-13.25 1.81-17.98-2.94z" style="clip-path:url(#SVGID_00000012471069344269275560000014239910383214613635_);fill:#20380e"/><path d="M420.64 429.65c1.67-1.41 2.82-3.37 3.85-5.26 1.17-2.13 2.29-4.42 2.1-6.82-.16-1.98-1.29-4.1-3.18-5.95-2.97-2.91-7.01-4.5-10.8-4.26-3.66.24-7 2.23-8.75 5.17-.16.27-.31.54-.44.83-2.36 5.05-1.37 11.22 2.42 15.01 4.05 4.04 10.82 4.63 14.8 1.28zm-18.44-16.86c1.79-3.82 5.84-6.48 10.33-6.77 4.17-.27 8.6 1.46 11.84 4.64 1.5 1.47 3.34 3.85 3.58 6.81.22 2.78-1.05 5.37-2.26 7.58-.28.52-.58 1.04-.89 1.56-.89 1.48-1.91 2.93-3.29 4.08-4.5 3.78-12.11 3.16-16.63-1.35-4.17-4.19-5.28-11-2.68-16.55z" style="clip-path:url(#SVGID_00000012471069344269275560000014239910383214613635_);fill:#20380e"/><path d="M411.34 410.01c1.99-.98 4.56-.86 6.86.31 2.27 1.16 3.95 3.12 5.02 4.49a.665.665 0 0 1-.12.95c-.3.23-.72.18-.95-.12-1.57-2.02-3.02-3.33-4.57-4.12-1.92-.98-4.04-1.1-5.65-.3-.34.16-.74.03-.91-.31s-.02-.73.32-.9zM375.9 42.96c-1.01 1.49-.72 3.47.65 4.5 8.21 6.18 16.79 11.65 25.08 16.93 4.9 3.12 9.96 6.35 14.82 9.65 1.45.99 3.49.55 4.54-.98 3.5-5.12 6.67-9.68 9.73-14.1 2.65-3.83 5.15-7.44 7.75-11.23.52-.76.72-1.66.56-2.55a3.16 3.16 0 0 0-1.31-2.06c-.02-.02-.05-.03-.07-.05-6.39-4.1-13.91-9.09-21.17-13.9-6.31-4.18-12.83-8.51-18.42-12.12-1.46-.95-3.42-.51-4.47.99-2.37 3.39-4.84 6.81-7.23 10.12-3.48 4.81-7.07 9.77-10.46 14.8zm14.41 19.2c2.47 1.71 4.84 3.44 7.12 5.21.5-.89 1.06-1.77 1.65-2.6-2.43-1.55-4.88-3.12-7.34-4.72l-1.43 2.11zm-7.51-2.97-.45.63c5.69 4.59 12.16 9.02 18.46 13.32.16-.17.32-.35.47-.53-5.59-4.66-11.65-9.06-18.48-13.42zm9.46-42.07c1.57-2.25 4.52-2.9 6.71-1.48 5.59 3.62 12.12 7.95 18.44 12.13 7.26 4.82 14.78 9.79 21.15 13.89 1.11.71 1.84 1.83 2.08 3.16.23 1.33-.07 2.68-.85 3.82-2.6 3.79-5.11 7.41-7.76 11.24-3.06 4.42-6.22 8.98-9.72 14.09-1.57 2.29-4.62 2.95-6.81 1.46-4.84-3.29-9.9-6.51-14.78-9.62-.09-.06-.19-.12-.28-.18-.58.81-1.12 1.65-1.61 2.52a.7.7 0 0 1-.15.19c1.46 1.15 2.88 2.3 4.28 3.48.33.28.37.79.09 1.15-.47.6-.96 1.22-1.65 1.84-.29.26-.7.29-1.01.08-6.71-4.57-13.64-9.31-19.69-14.24-.33-.27-.38-.76-.12-1.12l1.38-1.93c.26-.36.74-.47 1.11-.24 2.04 1.29 4.01 2.58 5.92 3.89l1.42-2.09c-1.83-1.2-3.67-2.42-5.5-3.67-3.14-2.14-6.27-4.36-9.36-6.68-2.06-1.55-2.49-4.51-.98-6.75 3.41-5.05 7-10.03 10.48-14.84 2.38-3.3 4.85-6.72 7.21-10.1z" style="clip-path:url(#SVGID_00000012471069344269275560000014239910383214613635_);fill:#20380e"/><path d="M380.95 46.34c7.2 5.35 14.7 10.12 21.95 14.73 4.28 2.72 8.71 5.54 12.96 8.4 1.23.83 2.9.54 3.72-.65 2.9-4.2 5.51-7.95 8.05-11.58 2.19-3.14 4.27-6.11 6.42-9.23.38-.56.53-1.23.41-1.9-.13-.72-.55-1.36-1.15-1.77-.02-.02-.04-.03-.07-.05-5.59-3.58-12.17-7.91-18.53-12.11-5.52-3.64-11.23-7.4-16.11-10.55-1.23-.8-2.84-.5-3.67.66-1.97 2.79-4.02 5.6-6 8.31-2.88 3.94-5.85 8.01-8.65 12.14-.78 1.15-.49 2.73.67 3.6zm12.67-24.98a4.324 4.324 0 0 1 5.89-1.15c4.89 3.15 10.6 6.92 16.13 10.56 6.36 4.19 12.93 8.53 18.51 12.1 1.01.65 1.71 1.69 1.92 2.87a4.23 4.23 0 0 1-.7 3.18c-2.15 3.12-4.23 6.09-6.42 9.23-2.53 3.63-5.14 7.38-8.04 11.57-1.34 1.94-4.03 2.46-5.98 1.14-4.24-2.86-8.66-5.67-12.93-8.38-4.8-3.05-9.72-6.18-14.59-9.5-2.5-1.71-5-3.47-7.46-5.3a4.285 4.285 0 0 1-.99-5.86c2.82-4.15 5.8-8.24 8.68-12.19 1.97-2.69 4.02-5.49 5.98-8.27zM103.71 47.75l.69-.44c.29-.18.67-.1.86.19.18.29.1.67-.19.86l-.74.47c.75 1.2 1.66 2.3 2.72 3.26l.73-1.08c.19-.29.58-.36.86-.17.28.19.36.58.17.86l-.8 1.19c.97.76 2.04 1.41 3.18 1.92 1 .45 2.05.78 3.13 1.01.19-.54.25-1.14.18-1.7a.62.62 0 1 1 1.23-.15c.09.7.03 1.4-.17 2.07 2.07.28 4.2.18 6.27-.3l-.45-1.59c-.09-.33.1-.67.43-.77.33-.09.67.1.77.43l.45 1.61c.72-.22 1.43-.49 2.12-.81.8-.37 1.73-.88 2.64-1.55l-.99-.8a.61.61 0 0 1-.09-.87.61.61 0 0 1 .87-.09l1.1.89c.03.02.06.05.08.08.81-.73 1.57-1.61 2.15-2.66.73-1.31 1.17-2.84 1.32-4.6l-1.68.02c-.03 0-.07 0-.1-.01-.3-.04-.53-.3-.53-.61 0-.34.27-.62.62-.63l1.75-.02c.01-.93-.04-1.93-.17-2.99-.16-1.28-.38-2.44-.66-3.5l-1.36.53c-.1.04-.21.05-.32.04a.627.627 0 0 1-.49-.39c-.12-.32.03-.68.35-.8l1.45-.56c-.55-1.58-1.26-2.89-2.17-3.96-.22-.26-.45-.51-.68-.75l-.92 1.37c-.14.21-.38.3-.61.27a.55.55 0 0 1-.25-.1.616.616 0 0 1-.17-.86l.94-1.39c.04-.05.08-.1.13-.14-1.87-1.66-4.02-2.74-6.42-3.21l-.21 2.18c-.03.34-.34.59-.68.56h-.03a.619.619 0 0 1-.53-.67l.22-2.25c-.24-.03-.49-.05-.73-.06-3.13-.19-6.11.58-8.46 1.6l.52.93a.625.625 0 0 1-.64.92.65.65 0 0 1-.45-.31l-.57-1c-1.25.64-2.25 1.33-2.89 1.92-.14.13-.28.26-.41.4.07.05.13.11.17.18l.65 1.04a.629.629 0 0 1-.62.95.657.657 0 0 1-.44-.29l-.59-.96c-1.51 1.85-2.51 4.12-2.91 6.51l1.82-.02c.34 0 .62.27.63.61 0 .34-.27.62-.61.63l-1.9.02c-.03 0-.06 0-.1-.01-.1 1.32-.03 2.65.25 3.96.25 1.23.69 2.44 1.28 3.59zm2.41 5.44a9.2 9.2 0 0 0-2.14 2.53c-.06.11-.26.45-.22.65.03.15.25.29.68.44.69.24 1.08.25 1.29.05.13-.12.22-.34.32-.58.04-.1.09-.21.14-.31.35-.72.91-1.32 1.58-1.69-.53-.38-1.04-.79-1.53-1.23-.02.05-.06.1-.12.14zm18.5 4.82c.02.11.04.23.05.34.04.25.07.49.16.64.23.36.91.4 1.48.39.52-.01.83-.08.91-.22.09-.15 0-.52-.04-.64a8.786 8.786 0 0 0-1.35-2.87l-.18.09c-.57.26-1.14.49-1.73.69.35.46.59 1 .7 1.58zm-6.98-32.22c-.02-.08-.03-.16-.02-.24l.35-2.62c-.92-.15-1.84-.21-2.78-.19a.625.625 0 0 1-.64-.61c-.01-.34.27-.63.61-.64 1.11-.02 2.22.06 3.3.26.09-.03.19-.05.29-.03.13.02.25.08.34.16.58.13 1.15.28 1.72.47.33.11.5.46.39.79a.63.63 0 0 1-.68.42c-.04-.01-.07-.01-.11-.02-.41-.14-.82-.25-1.23-.35l-.33 2.54c-.01.03-.01.07-.02.1.07 0 .13 0 .2.01 4.31.27 7.95 2.12 10.83 5.51 1.85 2.17 2.98 5.22 3.48 9.3.48 3.94.04 7.07-1.35 9.58-1.28 2.31-3.26 3.86-5.03 4.86.65.95 1.14 2.02 1.44 3.13.12.46.22 1.06-.1 1.59-.48.81-1.52.82-1.96.83-.23 0-.57.01-.95-.05-.58-.09-1.22-.32-1.6-.92-.24-.38-.29-.78-.35-1.14-.01-.1-.03-.19-.04-.28-.09-.48-.32-.93-.65-1.29-.07.01-.14.02-.21.01s-.13-.03-.19-.06c-2.37.58-4.83.7-7.2.35-1.55-.23-3.05-.66-4.47-1.29-.68-.3-1.33-.65-1.95-1.04-.03.18-.14.35-.31.44-.46.25-.84.66-1.09 1.16-.04.09-.08.17-.12.26-.14.32-.3.69-.61.99-.51.49-1.15.53-1.69.45-.35-.05-.65-.16-.85-.22-.36-.12-1.31-.44-1.5-1.36-.12-.58.12-1.11.35-1.51a10.34 10.34 0 0 1 2.44-2.89c.01-.01.03-.02.04-.03-2.08-2.18-3.57-4.9-4.18-7.8-1.09-5.16.66-10.73 4.44-14.2 1.96-1.84 6.63-4.34 11.99-4.43z" style="clip-path:url(#SVGID_00000012471069344269275560000014239910383214613635_);fill:#20380e"/><path d="M117.12 41.91c.19.24.46.39.72.4.26.01.54-.11.75-.34.15-.16.25-.35.29-.55l-1.13-.95c-.07-.06-.17-.06-.29-.02-.23.08-.49.33-.56.66-.05.26.03.56.22.8zm-.08-2.62c.14-.05.28-.08.42-.09a.588.588 0 0 1-.06-.47c.41-1.53.61-3.12.61-4.7 0-.34.28-.62.62-.62.34 0 .62.28.62.62 0 1.69-.21 3.38-.65 5.02-.04.15-.13.27-.24.35.07.04.13.08.19.14l1.36 1.14c.12.1.2.25.22.41.03.26 0 .52-.07.77.05-.02.11-.03.18-.03 1.82-.05 3.64.17 5.4.66.33.09.53.43.43.77-.09.33-.43.52-.77.43-1.64-.45-3.33-.66-5.03-.62-.04 0-.07 0-.11-.01a.633.633 0 0 1-.5-.42l-.16.19c-.46.49-1.09.75-1.71.72-.07 0-.14-.01-.21-.02-.55-.08-1.06-.38-1.43-.85-.42-.53-.59-1.18-.47-1.8a2.1 2.1 0 0 1 1.36-1.59zM135.3 28.54l-.01-.05c-.39-1.43-1.39-2.84-3.08-4.3-1.34-1.17-2.55-1.83-3.67-1.99-.26-.04-.51-.05-.76-.04-.83.04-1.7.55-2.17 1.26-.23.35-.47.9-.24 1.51.22.6.8 1.09 1.31 1.53 1.67 1.42 3.41 2.89 5.15 4.29.9.73 1.91.54 2.56.13.62-.42 1.19-1.25.91-2.34zm-.24 3.37c-.73.47-1.57.65-2.37.53-.58-.09-1.15-.33-1.64-.73-1.75-1.41-3.49-2.88-5.18-4.31-.6-.51-1.34-1.14-1.67-2.04-.31-.85-.18-1.78.38-2.62.69-1.04 1.92-1.75 3.15-1.81 1.67-.08 3.41.68 5.31 2.34 1.87 1.63 3.01 3.24 3.46 4.91l.02.07c.36 1.41-.21 2.85-1.46 3.66zM101.68 27.82c.57.64 1.38.83 2.16.49 1.95-.85 3.92-1.76 5.82-2.65.58-.27 1.23-.57 1.59-1.08.42-.58.3-1.26.19-1.62-.24-.79-.84-1.46-1.54-1.73-.21-.08-.44-.14-.67-.17-1.03-.15-2.29.13-3.8.87-1.94.94-3.2 1.97-3.96 3.25l-.03.04c-.6 1.04-.25 2.05.24 2.6zm-1.28-3.29c.88-1.47 2.34-2.7 4.48-3.73 2.18-1.06 3.97-1.3 5.46-.74 1.06.4 1.94 1.37 2.29 2.53.3.99.17 1.95-.37 2.7-.55.78-1.4 1.17-2.08 1.49-1.91.89-3.88 1.81-5.85 2.67-.57.25-1.15.32-1.71.24-.7-.1-1.35-.46-1.87-1.04-1.01-1.13-1.16-2.73-.38-4.06l.03-.06zM74.91 425.02a.5.5 0 0 0-.44-.43c-.79-.08-1.7-.16-2.34-.63-.32-.23-.57-.62-.63-1a.869.869 0 0 1 .14-.67c.12-.17.32-.3.53-.45.13-.09.26-.18.4-.29.45-.37.87-1.04.58-1.72-.26-.59-.83-.73-1.29-.84-.23-.06-.45-.11-.59-.2-.18-.11-.23-.31-.25-.45-.04-.33.09-.7.31-.94.47-.49 1.23-.67 1.97-.85.89-.22 1.81-.49 2.43-1.21.4-.47.57-1.17.44-1.78-.11-.5-.4-.89-.83-1.09-.89-.42-1.76.11-2.46.53-.06.04-.13.08-.19.11-.38.23-.88.32-1.16.22a.297.297 0 0 1-.19-.17c-.02-.06-.03-.16-.04-.26-.02-.18-.04-.4-.16-.62-.29-.57-.99-.8-1.87-.61l-.1.02c-.37.08-.75.16-.94.02a.308.308 0 0 1-.12-.23.75.75 0 0 1 .15-.56c.26-.34.73-.54 1.19-.73.49-.2 1.17-.48 1.59-1.07.61-.84.44-1.88.29-2.8-.01-.09-.03-.18-.04-.26-.11-.73.28-1.9.89-2.17a.56.56 0 0 0 .15-.1c2.86 1.29 5.33 3.95 6.41 7.28 1.55 4.85-.05 10.57-3.83 13.95zm-9.65 3.25h-.02a12.14 12.14 0 0 1-3.84-.98c.29-.44.57-.92.74-1.45.28-.9.17-1.82-.3-2.46-.25-.34-.58-.59-.89-.83-.38-.28-.71-.53-.79-.86-.06-.25.01-.59.08-.93.12-.59.27-1.33-.3-1.88-.36-.35-.83-.4-1.21-.44-.17-.02-.34-.04-.47-.08-.49-.15-.81-.8-.69-1.38.12-.58.6-1.1 1.27-1.4.68-.31 1.45-.37 2.18-.4l.24-.01c.77-.02 1.57-.05 2.31-.4.92-.44 1.63-1.52 1.25-2.56-.11-.29-.28-.52-.44-.73-.17-.23-.32-.42-.32-.6-.01-.23.19-.44.51-.77.15-.15.29-.3.43-.47.82-1.06.61-2.54.03-3.53-.45-.77-1.42-1.62-2.47-2.44 1.44-.46 2.96-.67 4.47-.59.04 0 .08 0 .12-.01.7-.13 1.42-.16 2.13-.1.66.06 1.33.19 1.98.4-.7.68-1.06 1.92-.92 2.84.01.09.03.18.04.27.12.76.25 1.55-.12 2.06-.24.33-.67.53-1.17.74-.52.22-1.17.49-1.59 1.04-.28.37-.41.85-.34 1.3.05.37.24.69.52.89.55.4 1.2.26 1.73.15l.1-.02c.38-.08.72-.04.79.1.03.05.04.16.05.27.02.15.03.32.1.49.14.36.41.63.78.76.65.23 1.47.01 1.99-.31.06-.04.13-.08.2-.12.55-.33 1.11-.68 1.52-.49.18.09.26.27.29.41.07.31-.03.7-.23.94-.42.5-1.15.71-1.91.89-.83.2-1.78.43-2.45 1.12-.43.45-.66 1.12-.58 1.74.06.5.31.91.7 1.17.28.18.6.26.89.33.35.08.57.15.62.28.06.13-.08.38-.3.56-.1.08-.21.16-.33.24-.26.18-.55.38-.77.68-.28.39-.4.89-.31 1.41.1.65.49 1.26 1.03 1.65.83.59 1.86.71 2.72.8 0 0-.01 0-.01.01-2.59 1.98-5.87 2.96-9.04 2.7zm-10.31-7.1c-1.9-3.94-1.56-8.84.86-12.49 1.37-2.06 3.37-3.65 5.63-4.61.73.56 2.22 1.69 2.71 2.53.4.68.58 1.74.04 2.43-.09.12-.22.25-.35.38-.36.37-.82.83-.8 1.49.02.49.28.85.52 1.16.13.17.25.33.3.49.18.48-.25 1.09-.75 1.33-.55.27-1.21.29-1.91.31l-.24.01c-.79.03-1.72.1-2.55.48-.96.43-1.64 1.21-1.83 2.1-.23 1.09.38 2.22 1.36 2.53.22.07.45.09.66.12.28.03.52.05.64.17.16.15.13.43.01.97-.09.42-.18.9-.07 1.36.17.67.69 1.07 1.15 1.41.27.2.53.39.69.62.28.39.34.98.15 1.58-.14.46-.41.9-.69 1.32-2.36-1.26-4.35-3.25-5.53-5.69zM74.7 404c-2.39-1.69-5.12-2.37-7.7-1.91-4.69-.23-9.4 2.14-12 6.05-2.62 3.93-2.98 9.21-.93 13.46 1.3 2.7 3.54 4.9 6.21 6.24.03.03.05.06.09.08.07.05.16.08.24.09h.01c1.43.67 2.96 1.1 4.54 1.24h.03c3.41.29 6.94-.77 9.69-2.9 4.56-3.54 6.58-10.09 4.8-15.58-.89-2.73-2.66-5.13-4.98-6.77z" style="clip-path:url(#SVGID_00000012471069344269275560000014239910383214613635_);fill:#20380e"/><path d="M61.14 439.9c-.09-.52.01-1.05.3-1.51.35-.56.92-.93 1.57-1.01 4-.51 8.19-.77 12.45-.78.06 0 .13 0 .19.01 1.06.09 1.92.95 2 2.03-5.44.51-11.06.89-16.51 1.26zm17.49-1.3a3.19 3.19 0 0 0-3.17-2.98c-2.1 0-4.19.07-6.24.19-.05-.94-.04-1.49-.04-1.93.01-.79.01-1.27-.27-2.96a.504.504 0 0 0-.57-.41c-.11.02-.2.07-.27.14-1.08.16-2.17.18-3.25.09-4.23-.37-8.31-2.57-10.8-6.03-3.18-4.41-3.63-10.61-1.1-15.43 2.52-4.82 7.87-7.99 13.31-7.88a.49.49 0 0 0 .02-.98c-5.8-.11-11.51 3.27-14.2 8.41-2.69 5.14-2.22 11.76 1.18 16.46 2.66 3.69 7.01 6.05 11.53 6.44 1.09.09 2.19.07 3.27-.07.17 1.15.17 1.56.17 2.22 0 .46-.01 1.02.04 2.01-1.81.13-3.6.3-5.35.52-.95.12-1.78.66-2.29 1.47-.5.8-.61 1.78-.31 2.67l.01.04c.06.19.23.31.42.33h.08c5.75-.39 11.69-.79 17.42-1.33.13-.01.25-.08.33-.18.08-.1.12-.23.11-.36l-.03-.45zM417.8 310.15c-1.88 2.57-5.67 3.51-8.46 2.09-2.83-1.43-4.27-5.11-3.13-8.03.9-2.33 3.43-3.89 5.88-3.89.61 0 1.22.1 1.8.31.09.03.18.05.28.04 1.87-.1 3.79 1.31 4.55 3.37.73 1.95.37 4.35-.92 6.11zm13.5-9.84c.62 0 1.22.1 1.8.31.09.03.18.05.28.04 1.87-.11 3.79 1.31 4.55 3.37l.09.27c.01.08.03.16.07.24.5 1.86.1 4-1.07 5.61-1.88 2.57-5.67 3.51-8.46 2.09-2.83-1.43-4.27-5.11-3.13-8.03.89-2.34 3.41-3.9 5.87-3.9zm-10.88 4.6c.49-.38 1.1-.62 1.72-.66.58-.03 1.16.11 1.67.39-.78 3.39.95 7.28 4.11 8.87 1.07.54 2.26.8 3.46.8 2.6 0 5.23-1.2 6.79-3.32 1.42-1.93 1.9-4.42 1.34-6.66 1.34-2.08 1.99-4.57 1.82-7.04-.19-2.69-1.31-5.06-3.17-6.7-.15-.77-.79-1.4-1.57-1.52-.9-.14-1.82.44-2.09 1.31a.7.7 0 0 0 .47.89c.37.12.77-.09.89-.47.06-.2.32-.36.52-.33.21.03.4.26.4.47 0 .21.09.42.26.55 1.69 1.4 2.71 3.49 2.88 5.89.13 1.81-.25 3.62-1.06 5.23-1.14-2.1-3.24-3.45-5.4-3.39-3.47-1.16-7.62.69-9.18 4.05a4.5 4.5 0 0 0-2.22-.45c-.71.04-1.41.27-2.03.63-.97-2.53-3.26-4.23-5.65-4.23h-.13c-2.79-.93-6.02.08-7.99 2.26.47-3.9 2.42-7.53 5.46-10.04.06-.05.11-.1.15-.16.07-.11.26-.18.38-.13.12.04.23.21.22.34a.708.708 0 1 0 1.41.14c.07-.78-.43-1.57-1.16-1.82-.7-.24-1.52.01-1.97.6-3.97 3.31-6.22 8.38-6.01 13.59 0 .03.01.06.01.09-1.12 3.51.63 7.75 3.96 9.43 1.07.54 2.26.8 3.46.8 2.6 0 5.23-1.2 6.79-3.32 1.28-1.78 1.8-4.01 1.46-6.09zM351.54 319.25c-.37-1.17.16-2.41 1.25-2.96 7.16-3.6 14.6-6.31 22.12-8.05 3.44 8.86 6.84 19.08 10.39 31.21-7.93 4.45-15.56 6.76-23.92 7.24-4.49-10.9-7.61-20.38-9.84-27.44zm26.97-9.45c.01.01.01.03.02.04 3.51 5.79 9.6 27.96 10.5 31.3-3.88 2.32-8.55 4.5-13.58 6.31-.07-.28-.13-.56-.19-.85a.57.57 0 0 0-.65-.45c-.95.14-5.01 1.17-6.12 1.56-.15.05-.28.17-.34.32a.61.61 0 0 0 0 .46c.17.38.32.75.47 1.12-.67.18-1.34.35-1.99.5-.02-.02-.03-.04-.05-.06a9.979 9.979 0 0 1-1.92-2.49c7.44-.86 14.38-3.23 21.58-7.33.01-.01.02-.01.03-.02.21-.14.31-.4.24-.65-3.53-12.11-6.91-22.33-10.33-31.19 1.3.36 2.01.81 2.33 1.43zm-2.98 41.72c-.74-.26-1.47-.55-2.18-.88a.567.567 0 0 0-.55.04c-.02.01-.03.02-.04.03-.74.59-1.39 1.25-1.96 2-.3-1.36-.74-2.72-1.32-4.11 1.26-.37 3.61-.97 4.78-1.22.32 1.41.74 2.8 1.27 4.14zm-11.45-.87c-.59-.15-2.13-1.97-2.3-2.83.56-.03 1.11-.08 1.66-.13.48.99 1.12 1.91 1.87 2.71-.41.09-.82.17-1.23.25.01 0 .01 0 0 0zm-1.25.55c.6.5 1.1.69 1.51.58 1.47-.28 3.04-.64 4.69-1.09.41 1.21.7 2.4.89 3.61a.585.585 0 0 0 1.08.2c.57-1 1.34-1.91 2.21-2.66 1.03.45 2.1.85 3.18 1.17.16.05.34.02.48-.07.04-.03.08-.06.12-.1.15-.17.19-.41.09-.62-.53-1.19-.97-2.41-1.33-3.66 5.3-1.9 10.22-4.2 14.25-6.67l.01-.01c.21-.14.31-.39.24-.63-.28-1.04-6.86-25.59-10.73-32-.57-1.11-1.73-1.75-4-2.23-.03-.01-.05-.01-.08-.01a.578.578 0 0 0-.32-.02c-7.78 1.76-15.47 4.53-22.87 8.26a3.62 3.62 0 0 0-1.83 4.34c2.26 7.16 5.45 16.81 10.02 27.91.04.09.1.17.17.23.09 1.2 1.43 2.81 2.22 3.47z" style="clip-path:url(#SVGID_00000012471069344269275560000014239910383214613635_);fill:#20380e"/><path d="M355.72 319.78c5.24-2.33 10.52-4.09 15.68-5.22 1.27 2.16 2.13 4.58 2.51 7.06-5.07 2.73-10.31 4.53-15.6 5.34-1.18-2.13-2.05-4.54-2.59-7.18zm2.38 8.38c5.68-.83 11.31-2.75 16.73-5.72.01-.01.03-.01.04-.02.19-.12.29-.34.26-.56-.39-2.9-1.4-5.76-2.94-8.25a.572.572 0 0 0-.61-.26c-5.51 1.18-11.14 3.05-16.74 5.57-.24.11-.38.37-.33.63.57 3.09 1.58 5.89 3.01 8.34.11.2.34.31.58.27zM377.69 328.32l-15.7 5.58a.579.579 0 0 0 .39 1.09l15.7-5.58.12-.06a.58.58 0 0 0-.51-1.03zM379.82 332l-17.07 6.42c-.3.11-.45.44-.34.74.11.3.44.45.74.34l17.07-6.42c.04-.01.08-.03.11-.06.22-.14.32-.43.23-.69a.577.577 0 0 0-.74-.33zM418.25 114.91c-2.59-3.79-5.27-7.7-7.97-11.58-1.77 2.24-4.78 6.45-6.03 8.98 2.74 1.9 4.83 3.25 7.05 4.68 2.31 1.49 4.7 3.03 7.86 5.23a.625.625 0 0 1-.54 1.11c-6.62-2.07-11.83-3.41-17.87-4.6-1.33 1.65-3.02 4.27-4.52 6.58-.64.99-1.26 1.94-1.8 2.76 10.78-.44 21.07-1.16 31.37-2.18-2.52-3.64-5.07-7.36-7.55-10.98zm-18.94-3.33c-.55-.2-1.09-.39-1.63-.58.43.93.97 1.77 1.53 2.65.75 1.18 1.53 2.4 2.05 3.88 0 .01 0 .02.01.03 4.74.94 8.99 1.98 13.83 3.4-1.63-1.09-3.07-2.01-4.48-2.92-2.24-1.44-4.55-2.93-7.52-5a.65.65 0 0 1-.18-.19c-.05-.01-.09-.01-.13-.03-1.27-.46-2.39-.86-3.48-1.24zm28.17 15.08c-.09.2-.28.34-.5.36a547.756 547.756 0 0 1-33.75 2.35.628.628 0 0 1-.53-.99c.67-.94 1.55-2.3 2.49-3.74 1.59-2.47 3.4-5.26 4.81-6.94-.47-1.23-1.13-2.28-1.83-3.37-.75-1.18-1.53-2.4-2.05-3.88a.415.415 0 0 1-.03-.16.646.646 0 0 1-.06-.53c.07-.19.22-.33.4-.39a.68.68 0 0 1 .4 0c.99.34 1.93.68 2.92 1.04 1.08.39 2.19.78 3.46 1.23 1.56-3.09 5.29-8.11 6.64-9.74.08-.09.18-.16.29-.19a.78.78 0 0 1 .22-.03c.19.01.37.11.49.27 2.86 4.11 5.7 8.26 8.45 12.27 2.67 3.9 5.44 7.94 8.15 11.83.1.17.12.41.03.61zM384.34 109.61a9.184 9.184 0 0 0-2.31-3.03c-.77.29-1.78.84-2.46 1.84-.87 1.29-.95 3.17-.2 4.78.36.78.86 1.4 1.45 1.8.63.43 1.4.61 2.06.47l.22-.06c.89-.29 1.64-1.2 1.86-2.28.25-1.3-.2-2.63-.62-3.52zm1.83 3.77c-.33 1.67-1.56 3-3.05 3.31-1 .21-2.1-.03-3.02-.66-.77-.53-1.42-1.32-1.87-2.3-.93-2-.81-4.36.3-6 .64-.95 1.52-1.58 2.31-1.98-.42-.25-.86-.45-1.32-.62-2.14-.75-4.61-.43-6.31.84-1.79 1.34-2.67 3.7-2.15 5.74.08.33-.11.67-.45.76a.636.636 0 0 1-.76-.45c-.64-2.52.43-5.42 2.61-7.05.64-.48 1.37-.85 2.13-1.1 1.68-.55 3.58-.54 5.33.08.83.29 1.61.71 2.33 1.24.9-.26 1.91-.4 3.13-.44 2.08-.07 3.85.17 5.42.73 1.89.68 3.48 1.86 4.46 3.34.19.29.11.67-.17.86-.29.19-.67.11-.86-.17-.83-1.25-2.2-2.27-3.84-2.86-1.42-.51-3.04-.72-4.96-.66-.75.02-1.41.09-2 .2.81.82 1.5 1.79 2.02 2.88.74 1.53.99 3.01.72 4.31zM27.75 55.49a71.634 71.634 0 0 0 3.66-20.56c8.16-.5 20.93.14 30.52 2.71.33 15.21-2.59 28.16-8.67 38.56-.18.03-.34.16-.41.34-.05.12-.05.25-.01.37-.41.68-.83 1.34-1.27 1.99-5.12.19-28.08-3.29-33.38-4.62 4.1-5.76 7.32-12.08 9.56-18.79zM17.1 75.12c3.56 1.2 29.76 5.24 34.81 4.86.02 0 .04 0 .06-.01.14-.03.27-.11.36-.23.5-.74.98-1.49 1.45-2.26 1.54.53 3.2.79 4.82.75.03 0 .06 0 .09-.01.16-.03.3-.13.38-.27 3.87-6.82 6.58-14.31 8.06-22.26 1.48-7.92 1.66-15.94.55-23.83a.552.552 0 0 0-.48-.47c-11.08-1.39-21.82-2.11-32.21-2.8a.533.533 0 0 0-.4.14.56.56 0 0 0-.19.38c-.1 1.59-.11 3.01-.11 4.38h1.1c0-1.19 0-2.42.07-3.76 10.07.67 20.47 1.37 31.17 2.7 2.09 15.48-.88 31.32-8.37 44.69-1.32 0-2.65-.22-3.91-.63 2.94-5.09 5.16-10.83 6.61-17.1 1.57-6.78 2.26-14.25 2.06-22.2a.568.568 0 0 0-.4-.52c-9.95-2.75-23.45-3.39-31.78-2.83-.28.02-.51.25-.51.54-.33 14.44-5 28.23-13.49 39.89-.1.14-.13.32-.08.49.05.17.18.3.34.36z" style="clip-path:url(#SVGID_00000012471069344269275560000014239910383214613635_);fill:#20380e"/><path d="M53.75 42.1c.41-.6.83-1.18 1.26-1.74.1.67.18 1.35.26 2.03l-1.52-.29zm1.18-3.41c-1.41 1.7-2.7 3.67-3.95 5.58a.549.549 0 1 0 .92.6l1.2-1.83c.07.05.15.09.24.11l2.02.38c.06.7.1 1.39.13 2.09.01.3.27.54.57.53.03 0 .05 0 .08-.01a.56.56 0 0 0 .45-.56c-.08-2.22-.32-4.45-.7-6.63a.562.562 0 0 0-.4-.44.53.53 0 0 0-.56.18z" style="clip-path:url(#SVGID_00000012471069344269275560000014239910383214613635_);fill:#20380e"/><path d="M55.59 48.73c.96-.18 1.86-.59 2.58-1.23 1.89-1.68 2.33-4.77.97-6.87a.542.542 0 0 0-.76-.16c-.26.17-.33.51-.16.76 1.07 1.66.73 4.11-.78 5.44-1.48 1.32-3.92 1.43-5.56.25-1.61-1.16-2.34-3.49-1.69-5.41.64-1.89 2.59-3.32 4.62-3.4.3-.01.54-.27.53-.57a.555.555 0 0 0-.57-.53c-2.51.09-4.83 1.8-5.62 4.14-.82 2.4.06 5.2 2.09 6.66 1.24.9 2.86 1.19 4.35.92zM35.12 39.18c1.91-.04 3.85.05 5.75.25.05.01.11 0 .16-.01.23-.04.42-.23.45-.48.03-.3-.19-.58-.49-.61-1.95-.21-3.93-.3-5.89-.26-.3.01-.55.26-.54.56s.26.56.56.55zM34.25 42.38c2.75-.29 5.59 0 8.22.84.09.03.18.03.27.02a.546.546 0 0 0 .06-1.06c-2.78-.89-5.77-1.2-8.67-.89-.3.03-.52.3-.49.61.03.29.3.51.61.48zM32.74 51.44c7.07 1.48 14.29 2.67 21.46 3.54.06.01.11.01.17-.01a.553.553 0 0 0-.03-1.09c-7.14-.87-14.33-2.05-21.37-3.53a.55.55 0 0 0-.65.43c-.07.3.12.6.42.66zM30.9 57.04a244.11 244.11 0 0 0 24.4 2.89c.05 0 .09 0 .14-.01.24-.05.43-.25.45-.51.02-.3-.21-.57-.51-.59-8.11-.55-16.28-1.52-24.29-2.88-.3-.05-.59.15-.64.45-.06.31.15.6.45.65zM29.84 62.87l22.52 1.93c.05 0 .1 0 .15-.01.24-.04.43-.24.45-.49.03-.3-.2-.57-.5-.6l-22.52-1.93c-.3-.03-.57.2-.6.5-.03.3.2.57.5.6zM49.12 69.5 27.8 67.28c-.3-.03-.57.19-.61.49-.03.3.19.57.49.61L49 70.59c.05.01.11 0 .16-.01.23-.04.42-.24.45-.49a.546.546 0 0 0-.49-.59zM434.8 373.07l-4.38 2.29.85-4.86-3.53-3.44 4.89-.71 2.17-4.41 2.17 4.41 4.86.71-3.5 3.44.82 4.86zM224.65 296.39c-3.57-2.26-6.48-4.42-9.55-6.7l-.59-.44c-.27.44-.67.81-1.16 1.06-.69.34-1.47.4-2.13.16-.22-.08-.42-.18-.61-.28-.31-.16-.59-.3-.85-.3-.42.01-.83.39-1.24 1.15l-.05.1c-.36.67-.81 1.51-1.67 1.81-.03.01-.05.02-.08.03-.57.17-1.22.08-1.99-.28a6.33 6.33 0 0 1-.45-.23c-.36-.19-.71-.36-1.06-.44-.79-.17-1.67.23-2.09.92-.66 2.47-1.36 4.93-2.09 7.48-.52 1.81-1.05 3.69-1.57 5.58-.21.76.01 1.54.58 2.08s1.36.71 2.1.47c5.17-1.73 9.73-3.35 14.56-5.06 3.04-1.08 6.19-2.2 9.53-3.35.78-.27 1.3-.92 1.39-1.73.08-.83-.28-1.59-.98-2.03zm-13.54-9.63-.13-.1-.05-.16c-.81-2.71-1.92-5.92-2.82-8.49-.37-1.08-.71-2.05-.99-2.88l-8.82 2.64c1.29 3.41 2.98 8.26 3.73 11.35l.03.11-.03.11c-.16.66-.32 1.31-.49 1.97a2.95 2.95 0 0 1 1.87-.25c.48.1.9.32 1.3.53l.42.21c.56.26 1 .33 1.34.22.5-.17.82-.77 1.13-1.35l.06-.1c.58-1.09 1.28-1.65 2.08-1.66.51-.01.93.21 1.31.4.17.09.34.17.49.23.42.15.92.11 1.37-.11.36-.18.64-.45.81-.77-.84-.61-1.7-1.25-2.61-1.9zm-4.19-13.98-10.26 3.07a.67.67 0 0 0-.45.83c.11.35.48.56.83.45l10.26-3.07a.67.67 0 0 0 .45-.83.67.67 0 0 0-.83-.45zm17.62 28.28c-3.33 1.16-6.48 2.27-9.52 3.35-4.83 1.72-9.4 3.34-14.58 5.07-.03.01-.06.02-.1.03-1.06.32-2.17.06-2.98-.71-.84-.79-1.15-1.93-.85-3.04.52-1.89 1.06-3.77 1.58-5.58.72-2.53 1.42-4.97 2.07-7.42l-.03-.01c.02-.05.05-.09.07-.14.29-1.11.58-2.22.85-3.35-.75-3.07-2.42-7.84-3.69-11.18l-.04.01a1.646 1.646 0 0 1-.95-3.15l10.26-3.07c.87-.26 1.79.23 2.05 1.1.21.71-.08 1.44-.66 1.84.28.83.62 1.81 1 2.91.88 2.53 1.97 5.67 2.78 8.37 1.37.99 2.63 1.93 3.86 2.84 3.06 2.27 5.95 4.42 9.49 6.66 1.01.64 1.55 1.77 1.41 2.95-.12 1.15-.9 2.13-2.02 2.52z" style="clip-path:url(#SVGID_00000012471069344269275560000014239910383214613635_);fill:#20380e"/><path d="M203.6 296.42c-.58.17-.91.79-.74 1.36s.79.91 1.36.74c.58-.17.91-.79.74-1.36a1.08 1.08 0 0 0-1.36-.74zm.91 3.03a2.08 2.08 0 0 1-2.58-1.39 2.08 2.08 0 0 1 1.39-2.58c1.09-.33 2.25.3 2.58 1.39.32 1.1-.3 2.25-1.39 2.58zM214.82 295.71c-.33.1-.51.44-.41.77.1.33.44.51.77.41.32-.1.51-.44.41-.77a.624.624 0 0 0-.77-.41zm.63 2.11c-.84.25-1.73-.23-1.98-1.07s.23-1.73 1.07-1.98c.84-.25 1.73.23 1.98 1.07s-.23 1.73-1.07 1.98zM204.41 284.52c-.33.1-.51.44-.41.77.1.33.44.51.77.41.32-.1.51-.44.41-.77a.62.62 0 0 0-.77-.41zm.64 2.11c-.84.25-1.73-.23-1.98-1.07s.23-1.73 1.07-1.98c.84-.25 1.73.23 1.98 1.07s-.23 1.73-1.07 1.98zM205.86 277.73c-.33.1-.51.44-.41.77.1.33.44.51.77.41.32-.1.51-.44.41-.77a.624.624 0 0 0-.77-.41zm.63 2.11c-.84.25-1.73-.23-1.98-1.07s.23-1.73 1.07-1.98c.84-.25 1.73.23 1.98 1.07s-.23 1.73-1.07 1.98zM348.99 46.71c-.33 1.33-.8 2.61-1.38 3.83-.99-1.86-2.17-3.63-3.54-5.26l5.5-3.64c.03 1.68-.16 3.38-.58 5.07zm-7.57 11.45a.677.677 0 0 0-.53-.46c-2.1-.38-4.16-1.16-5.97-2.23-.47-1.68-.95-3.16-1.42-4.58l-.44.14-.04.01.04-.01.44-.15-.47.16c.89-1.26 1.69-2.24 2.46-3.18.86-1.05 1.75-2.13 2.77-3.61.03.02.07.04.1.05 1.14.4 2.72.91 4.2 1.21.02.11.07.22.15.31 1.53 1.77 2.83 3.71 3.88 5.77.07.14.18.24.3.3-1.36 2.39-3.21 4.51-5.47 6.27zm-2.85 1.9c-1.94 1.1-3.98 1.89-6.06 2.39.79-1.8 1.53-3.65 2.22-5.5 1.72.95 3.61 1.65 5.55 2.04-.55.38-1.12.73-1.71 1.07zm-11.58 3.05c-3.2 0-6.36-.66-9.22-1.91.07-.1.11-.22.11-.35l.15-5.45c2.1-1.3 3.83-3.28 4.96-5.68 1.39.37 3.06.66 4.68.95 1.57.28 3.2.56 4.46.9.05.01.11.02.16.02.45 1.36.9 2.77 1.35 4.37-.76 2.11-1.61 4.23-2.53 6.29-.07.17-.08.35-.02.51-1.37.23-2.74.35-4.1.35zm-16.03-6.68c.76-.08 1.62-.17 2.45-.25 1.14-.12 2.31-.24 3.23-.33l-.13 4.75a20.9 20.9 0 0 1-5.55-4.17zm-5.27-12.08c.08-.02.15-.04.22-.09l5.48-3.45c2.57-.04 5.16.04 7.72.24.95 2.93 1.52 4.41 2.51 7.01l.27.71c-1.06 2.42-2.84 4.47-4.96 5.66-.97.09-2.34.23-3.67.37-1.23.13-2.49.26-3.43.35-.45-.57-.88-1.17-1.27-1.79-1.71-2.78-2.69-5.85-2.87-9.01zm1.89-9.56c.87 1.63 1.77 3.3 2.79 5.03l-4.7 2.96a20.024 20.024 0 0 1 1.91-7.99zm9.08-9.61c.05-.03.11-.06.16-.09.1.15.25.26.44.3 2.28.46 4.15 1.24 6.22 2.27.89 1.93 1.54 3.73 2.12 5.93l-2.05 2.02c-1.36 1.35-2.76 2.74-4.18 4.06-2.53-.2-5.1-.29-7.64-.26-1.21-2.03-2.26-4.01-3.28-5.91a.61.61 0 0 0-.12-.16c1.91-3.33 4.75-6.14 8.33-8.16zm7.08 1.07c-1.74-.85-3.37-1.53-5.24-2 2.55-1.16 5.24-1.83 7.92-2.04l-2.68 4.04zm4.5-4.12c2.9 0 5.76.54 8.4 1.57-.02.11-.01.23.03.35l2.34 6.57c-1.19 1.41-2.72 2.88-4.22 4.29-2.28-.99-4.49-1.34-6.63-1.68-.43-.07-.86-.14-1.3-.21-.57-2.12-1.23-3.96-2.1-5.85l3.14-4.75c.06-.09.1-.19.11-.3.08.01.16.01.23.01zm16.67 7.39-4.8-.16c-.03 0-.06 0-.09.01l-1.77-4.96c2.53 1.24 4.81 2.95 6.66 5.11zm-12.89 20.57c-1.23-.3-2.69-.56-4.11-.81-1.64-.29-3.33-.59-4.68-.95-.01-.01-.02-.03-.03-.04l-.28-.74c-.99-2.58-1.55-4.05-2.5-6.96 1.39-1.3 2.77-2.67 4.1-3.98.72-.72 1.47-1.46 2.22-2.19.41.07.82.13 1.22.2 2.19.34 4.26.67 6.42 1.63.41 1.29.88 2.54 1.33 3.75.45 1.18.91 2.4 1.3 3.65-.94 1.34-1.76 2.34-2.57 3.32-.76.93-1.54 1.89-2.42 3.12zm17.49-9.65a.683.683 0 0 0-.69.03l-5.64 3.74c-1.17-.22-2.7-.65-4.35-1.23-.2-.07-.4-.04-.57.06-.39-1.21-.83-2.39-1.26-3.54-.44-1.16-.88-2.35-1.27-3.57 1.63-1.55 3.32-3.16 4.6-4.74.1-.12.15-.27.15-.43l5.33.17h.02c.06 0 .12-.01.18-.03.23.32.45.64.66.98 1.63 2.65 2.59 5.56 2.84 8.56zm-33.52-16.47c-5.56 3.14-9.6 8.33-11.07 14.22-1.37 5.48-.49 11.13 2.5 15.9.48.77 1 1.49 1.57 2.18.02.02.03.04.05.06 4.36 5.28 11.05 8.16 17.97 8.16 4.15 0 8.39-1.04 12.24-3.22 5.56-3.14 9.6-8.33 11.07-14.22 1.37-5.48.49-11.13-2.5-15.9-6.42-10.25-20.7-13.48-31.83-7.18z" style="clip-path:url(#SVGID_00000012471069344269275560000014239910383214613635_);fill:#20380e"/></g><path d="m121.21 358.99 68.45-28.42c16.4-6.81 34.9-6.33 50.92 1.33l125.11 35.77c25.27 12.07 36.37 83.95 36.37 92.05H94.62l26.59-100.73z" style="clip-path:url(#SVGID_00000181802100151115227840000013667439603942344594_);fill:#20380e"/><path d="M336.46 274.59c-5.73-5.37-10.81-4.48-14.06-2.82-.45.23-.9.49-1.31.78 6.98-13.75 8.08-25.4 3.25-34.72-4.2-8.1-13.07-14.42-25.65-18.3-9.45-2.91-17.78-3.44-17.85-3.44a.86.86 0 0 0-.66.27c-1.25 1.42-30.61 35.01-35.21 55.68-4.6 20.71-6.09 27.25-6.09 27.25-.05.23 0 .47.13.66.09.13 5.9 7.85 19.13 12.06l-7.17 16.76c-.09.23-.09.48.03.7.16.29 2.51 4.37 13.57 7.52 7.8 2.23 19.93 4.02 38.68 3.68.35 0 .65-.23.75-.56l13.14-38.77c5.26 1.98 12.4-.23 17.48-5.86 6.2-6.89 7-16.06 1.83-20.91l.01.02z" style="clip-path:url(#SVGID_00000181802100151115227840000013667439603942344594_);fill:#fff"/><path d="M340.76 224.27a29.135 29.135 0 0 0-19.76 1.3c17.04 10.46 25.66 31.84 19.72 52.61-.26.91-.56 1.81-.87 2.7 9.8-2.48 18.06-9.94 21.05-20.35 4.46-15.58-4.56-31.8-20.14-36.26z" style="clip-path:url(#SVGID_00000181802100151115227840000013667439603942344594_);fill:#20380e"/><path d="m316.7 289.5 17.48 4.05 15.16-16.27c7.5-8.04 9.93-19.57 6.3-29.95-4.04-11.55-9.16-24.83-11.5-25.49-2.65-.75-32.47-14.14-51.6-20.71-10.76-3.7-22.47 2.03-26.17 12.79l-3.61 23.82 18.31-21.88s12.03 23.78 41.87 30.06l-6.25 43.59h.01z" style="clip-path:url(#SVGID_00000181802100151115227840000013667439603942344594_);fill:#20380e"/><path d="M289.48 246.11c-1.75 0-3.5.44-5.07 1.33a10.402 10.402 0 0 0-4.98 6.28c-.77 2.69-.44 5.51.91 7.95 1.35 2.44 3.59 4.21 6.28 4.98 2.69.77 5.52.44 7.95-.91 2.44-1.35 4.21-3.59 4.98-6.28.77-2.69.44-5.51-.91-7.95a10.402 10.402 0 0 0-6.28-4.98c-.95-.27-1.92-.4-2.9-.4l.02-.02zm.04 23.55c-1.21 0-2.42-.17-3.61-.51-3.35-.96-6.13-3.17-7.84-6.22-1.69-3.05-2.11-6.57-1.14-9.94.96-3.35 3.17-6.13 6.22-7.84 3.05-1.69 6.57-2.09 9.94-1.14 3.35.96 6.13 3.17 7.84 6.22 1.69 3.05 2.11 6.57 1.14 9.94-.96 3.35-3.17 6.13-6.22 7.84a13.055 13.055 0 0 1-6.33 1.65zM273.85 282.96c-.06 0-.14 0-.22-.01l-11.86-1.98c-.7-.12-1.18-.79-1.07-1.49.12-.7.79-1.18 1.49-1.07l11.86 1.98c.7.12 1.18.79 1.07 1.49-.1.64-.65 1.09-1.29 1.09l.02-.01z" style="clip-path:url(#SVGID_00000181802100151115227840000013667439603942344594_);fill:#20380e"/><path d="M314.57 298.87c4.86 4.37 13.57 2.61 19.45-3.92s6.73-15.38 1.88-19.76c-4.85-4.37-13.57-2.61-19.45 3.92l-1.88 19.76z" style="clip-path:url(#SVGID_00000181802100151115227840000013667439603942344594_);fill:#fff"/><path d="M321.22 302.56c-2.85 0-5.48-.88-7.52-2.72a1.296 1.296 0 0 1 1.74-1.92c4.31 3.89 12.21 2.17 17.62-3.83 2.66-2.96 4.31-6.48 4.64-9.94.31-3.31-.64-6.15-2.66-7.98-2.04-1.83-4.95-2.48-8.21-1.82-3.4.69-6.74 2.69-9.41 5.65a1.296 1.296 0 0 1-1.92-1.74c3.04-3.37 6.89-5.67 10.82-6.46 4.09-.83 7.81.04 10.46 2.44 2.66 2.39 3.91 6 3.51 10.16-.38 4-2.26 8.07-5.3 11.43-3.95 4.38-9.12 6.74-13.77 6.74v-.01zM278.5 249.75c-.12 0-.23-.01-.36-.05l-7.78-2.22a1.31 1.31 0 0 1-.9-1.61c.19-.69.91-1.09 1.61-.9l7.78 2.22c.69.19 1.09.92.9 1.61-.17.57-.69.95-1.25.95zM287.52 253.95c-.65 2.26-.19 4.37 1 4.72 1.2.34 2.7-1.21 3.34-3.47.65-2.26.19-4.37-1-4.72-1.2-.34-2.71 1.21-3.34 3.47zM263.35 243.64c-.65 2.26-.19 4.37 1 4.72 1.2.34 2.7-1.21 3.34-3.47.65-2.26.19-4.37-1-4.72-1.2-.33-2.71 1.21-3.34 3.47z" style="clip-path:url(#SVGID_00000181802100151115227840000013667439603942344594_);fill:#20380e"/><path d="M321.27 276.1c-.27 0-.53-.08-.77-.25l-20.48-15c-.58-.43-.7-1.23-.29-1.82.43-.58 1.23-.7 1.82-.29l20.48 15c.58.43.7 1.23.29 1.82-.25.36-.64.54-1.05.54zM275.91 315.2c-26.12 0-36.79-14.24-37.31-14.96-.22-.3-.3-.69-.22-1.05 0 0 1.49-6.55 6.09-27.25 4.63-20.8 34.07-54.47 35.32-55.9.47-.53 1.3-.6 1.83-.12.55.47.6 1.3.12 1.83-.3.34-30.25 34.59-34.73 54.74-3.82 17.17-5.5 24.6-5.96 26.65 2.4 2.82 17.2 18.17 50.03 11.94.71-.13 1.39.32 1.52 1.04.13.7-.32 1.39-1.04 1.52-5.74 1.09-10.95 1.55-15.66 1.55h.01zM303.24 341.18c-.14 0-.27-.03-.42-.06a1.31 1.31 0 0 1-.82-1.65l13.27-39.14c.23-.68.97-1.04 1.65-.82.68.23 1.04.96.82 1.65l-13.27 39.14c-.18.54-.69.88-1.23.88z" style="clip-path:url(#SVGID_00000181802100151115227840000013667439603942344594_);fill:#20380e"/><path d="M251.72 330.4c-.17 0-.34-.04-.51-.1-.66-.29-.96-1.04-.69-1.7l7.39-17.28c.29-.66 1.05-.96 1.7-.69.66.29.96 1.04.69 1.7l-7.39 17.28c-.21.49-.69.79-1.19.79zM260.34 257.36c-1.21 0-2.42-.17-3.6-.51-6.93-1.98-10.95-9.23-8.97-16.15 1.98-6.93 9.23-10.95 16.15-8.97 5.94 1.7 9.91 7.39 9.43 13.55-.05.71-.68 1.25-1.39 1.2-.71-.05-1.25-.68-1.2-1.39.38-4.92-2.81-9.49-7.56-10.85-5.54-1.59-11.36 1.64-12.94 7.19-1.59 5.55 1.64 11.36 7.19 12.94 1.36.39 2.75.49 4.15.32.71-.09 1.36.42 1.44 1.13.09.71-.42 1.36-1.13 1.44-.53.06-1.05.09-1.59.09h.02z" style="clip-path:url(#SVGID_00000181802100151115227840000013667439603942344594_);fill:#20380e"/><path d="M263.96 273.09c-.36 0-.74-.16-.99-.45-1.52-1.79-6.44-7.85-6.12-10.85.09-.86.53-1.35.88-1.62 1.48-1.13 12.1-13.83 18.44-21.57.45-.56 1.27-.64 1.83-.18s.64 1.27.18 1.83c-1.68 2.04-16.16 19.71-18.75 21.89-.08 1.14 2.44 5.18 5.52 8.81.47.55.4 1.36-.14 1.83-.25.21-.55.31-.84.31h-.01zM303.29 334.82l-48.36-13.83a7.435 7.435 0 0 0-9.19 5.1l-7.1 24.82a7.435 7.435 0 0 0 5.1 9.19l48.36 13.83a7.435 7.435 0 0 0 9.19-5.1l7.1-24.82a7.435 7.435 0 0 0-5.1-9.19z" style="clip-path:url(#SVGID_00000181802100151115227840000013667439603942344594_);fill:#20380e"/><path d="M168.97 458.43c-.69 0-1.26-.53-1.3-1.22l-1.78-31.41c-.04-.71.51-1.33 1.22-1.36.71-.04 1.33.51 1.36 1.22l1.78 31.41c.04.71-.51 1.33-1.22 1.38h-.08l.02-.02z" style="clip-path:url(#SVGID_00000181802100151115227840000013667439603942344594_);fill:#fff"/><path d="m166.36 380.55 10.91-29.72a54.61 54.61 0 0 0-1.46-41.19l-16.75-37.25a8.877 8.877 0 0 0-8.42-5.24c-5.56.19-9.58 5.41-8.36 10.82l6.25 27.85-39.51-1.27-37.42-29.91a9.055 9.055 0 0 0-11.71.34 4.813 4.813 0 0 0-.23 6.93l63.5 65.26-4.35 22.84-12.66 49.52s44.35 12.18 59.55 7.11c2.66-.88.64-46.08.64-46.08h.02z" style="clip-path:url(#SVGID_00000181802100151115227840000013667439603942344594_);fill:#fff"/><path d="M107.74 418.59c7.19 1.88 43.67 11.06 57.21 6.91 1.18-3.09.99-24.96.1-44.89 0-.17.01-.34.08-.51l10.9-29.72c4.83-13.15 4.33-27.43-1.43-40.22l-16.75-37.25c-1.27-2.83-4.12-4.57-7.2-4.47a7.596 7.596 0 0 0-5.74 2.95 7.529 7.529 0 0 0-1.39 6.3l6.25 27.85c.09.39 0 .81-.27 1.12-.26.31-.64.48-1.04.47l-39.51-1.27c-.29 0-.55-.1-.77-.29l-37.42-29.91a7.716 7.716 0 0 0-10.02.29 3.506 3.506 0 0 0-.17 5.05l63.5 65.26c.3.3.43.73.35 1.14l-4.35 22.84-12.36 48.35h.03zm47.86 10.57c-18.96 0-48.27-7.98-49.77-8.38-.69-.18-1.09-.88-.91-1.57l12.66-49.52 4.2-22.1-63.05-64.77a6.064 6.064 0 0 1-1.73-4.46c.05-1.68.77-3.22 2.01-4.34a10.32 10.32 0 0 1 13.38-.39l37.08 29.64 37.41 1.21-5.89-26.21a10.187 10.187 0 0 1 9.58-12.42c4.15-.14 7.95 2.21 9.65 6l16.75 37.25c6.03 13.4 6.56 28.38 1.49 42.18l-10.82 29.47c2.05 45.91-.47 46.75-1.53 47.12-2.74.91-6.38 1.29-10.51 1.29z" style="clip-path:url(#SVGID_00000181802100151115227840000013667439603942344594_);fill:#20380e"/><path d="m89.27 299.57-7.55-33.88c-.7-3.13 2.44-5.73 5.39-4.47 3.76 1.61 6.67 4.73 8.02 8.59l12.2 31.93-18.06-2.18v.01z" style="clip-path:url(#SVGID_00000181802100151115227840000013667439603942344594_);fill:#fff"/><path d="M107.32 303.05c-.52 0-1.01-.31-1.21-.83l-12.2-31.93c-1.23-3.55-3.9-6.39-7.32-7.86-.92-.4-1.95-.25-2.72.39-.78.65-1.1 1.61-.9 2.6l7.55 33.88a1.3 1.3 0 0 1-2.54.56l-7.55-33.88c-.43-1.92.25-3.91 1.77-5.17a5.216 5.216 0 0 1 5.41-.78c4.08 1.75 7.26 5.17 8.73 9.36l12.19 31.9c.26.68-.08 1.42-.75 1.68-.15.04-.31.08-.46.08z" style="clip-path:url(#SVGID_00000181802100151115227840000013667439603942344594_);fill:#20380e"/><path d="m141.71 333.59-20.97-21.01-5.03-32.39c-.69-4.42-3.65-8.16-7.81-9.82-2.69-1.08-5.6.92-5.57 3.82l.49 40.23 38.88 19.18h.01z" style="clip-path:url(#SVGID_00000181802100151115227840000013667439603942344594_);fill:#fff"/><path d="M141.71 334.89c-.34 0-.66-.13-.92-.38l-20.97-21.01c-.19-.19-.32-.44-.36-.71l-5.03-32.39a11.41 11.41 0 0 0-7-8.81c-.87-.35-1.82-.25-2.59.29-.78.53-1.21 1.38-1.2 2.31l.49 40.23c0 .71-.57 1.31-1.29 1.31h-.01c-.71 0-1.29-.57-1.3-1.29l-.49-40.23c-.03-1.79.84-3.47 2.33-4.48a5.392 5.392 0 0 1 5.03-.56c4.56 1.83 7.85 5.98 8.6 10.82l4.96 31.98 20.67 20.71c.51.51.51 1.33 0 1.83-.26.25-.58.38-.92.38z" style="clip-path:url(#SVGID_00000181802100151115227840000013667439603942344594_);fill:#20380e"/><path d="m333.35 269.66-23.6-30.06c-.65-.83-1.68-1.3-2.73-1.26a3.24 3.24 0 0 0-2.62 1.47 19.452 19.452 0 0 0-.32 21.05l5.2 8.33-2.38 13.7-7.33-1.43c-1.16-.22-2.33-.3-3.51-.27l-1.35-5.56c-1.04-4.27-5.12-7.19-9.5-6.77l-2.86.27c-.65.06-1.17.6-1.21 1.25l-1.22 20.18c-.04.65.4 1.18 1 1.35l-1.27 7.09c-.01.08 0 .16 0 .22a12.539 12.539 0 0 0-3.78 5.54c-.04.1-.05.21-.06.32l-.61 7.67c-2.13 1.52-1.96 3.81-2.82 6.33l-.22 1.56c-1.31 3.9-.12 7.02 3.56 8.89l3.9 2.48-.12 3.53c-.6 8.81 3.53 17.39 10.8 22.4l.7.49-15.12 41.66c-.14.38-.09.79.1 1.14.21.35.56.58.96.64l45.92 6.52s.13.01.18.01c.3 0 .6-.1.84-.3.29-.23.47-.57.49-.95l9.26-136.59c.03-.32-.08-.64-.28-.9z" style="clip-path:url(#SVGID_00000181802100151115227840000013667439603942344594_);fill:#fff"/><path d="M323.03 408.37h-.09c-.71-.05-1.26-.66-1.21-1.39l9.23-136.1-23.29-29.65a.701.701 0 0 0-.55-.26c-.13 0-.36.05-.53.3-3.65 5.47-3.77 12.62-.27 18.19l5.47 8.76c.17.27.23.6.18.91L309.38 284c-.12.7-.79 1.18-1.51 1.05-.7-.12-1.18-.79-1.05-1.51l2.49-14.38-5.2-8.34c-4.03-6.45-3.9-14.7.32-21.01a3.23 3.23 0 0 1 2.6-1.46c1.04-.05 2.04.42 2.69 1.25l23.6 30.05c.19.25.3.57.27.9l-9.25 136.59a1.3 1.3 0 0 1-1.3 1.21l-.01.02z" style="clip-path:url(#SVGID_00000181802100151115227840000013667439603942344594_);fill:#20380e"/><path d="M280.97 300.53c-.08 0-.16 0-.23-.03-.7-.13-1.18-.81-1.05-1.51l1.48-8.23s.03-.12.05-.18c1.25-3.73 4.24-6.69 7.99-7.9l2.18-.7c2.62-.84 5.46-1.03 8.17-.49l17.57 3.4a1.297 1.297 0 1 1-.49 2.55l-17.57-3.4c-2.29-.44-4.66-.3-6.89.42l-2.18.7a9.886 9.886 0 0 0-6.29 6.16l-1.46 8.13c-.12.62-.66 1.07-1.27 1.07l-.01.01z" style="clip-path:url(#SVGID_00000181802100151115227840000013667439603942344594_);fill:#20380e"/><path d="M276.52 314.16h-.1c-.71-.05-1.25-.69-1.2-1.4l.61-7.67c0-.1.03-.21.06-.31 1.25-3.73 4.24-6.69 7.99-7.9l2.18-.7c2.64-.84 5.46-1.01 8.17-.49l17.57 3.4a1.297 1.297 0 1 1-.49 2.55l-17.57-3.4c-2.29-.44-4.66-.3-6.89.42l-2.18.7a9.933 9.933 0 0 0-6.28 6.11l-.6 7.51a1.3 1.3 0 0 1-1.3 1.2h.03z" style="clip-path:url(#SVGID_00000181802100151115227840000013667439603942344594_);fill:#20380e"/><path d="M284.51 334.3c-.14 0-.27-.03-.4-.06l-6.98-2.3a8.307 8.307 0 0 1-5.73-8.11l.14-6.38c.05-2.47 1.59-4.63 3.79-5.37l5.41-1.74c2.62-.84 5.46-1.03 8.17-.49l17.57 3.4a1.297 1.297 0 1 1-.49 2.55l-17.57-3.4a13.8 13.8 0 0 0-6.87.42l-5.35 1.73c-1.21.4-2.03 1.59-2.05 2.96l-.14 6.38a5.672 5.672 0 0 0 3.94 5.57l6.52 2.14c1.08-.51 3.96-2.47 2.05-8.6-.21-.69.17-1.42.86-1.62.69-.21 1.42.17 1.62.86 1.07 3.44 1 6.33-.21 8.6-1.39 2.61-3.81 3.37-3.91 3.4-.12.04-.25.05-.38.05l.01.01z" style="clip-path:url(#SVGID_00000181802100151115227840000013667439603942344594_);fill:#20380e"/><path d="M277.11 401.86c-.14 0-.3-.03-.44-.08a1.29 1.29 0 0 1-.78-1.66l15.14-41.68-.73-.51c-7.22-4.99-11.36-13.53-10.78-22.28l-.21-3.59a1.32 1.32 0 0 1 1.22-1.38c.7-.04 1.34.51 1.38 1.22l.22 3.66v.17c-.55 7.89 3.17 15.57 9.67 20.06l1.56 1.08c.48.34.69.96.48 1.51l-15.48 42.63c-.19.53-.69.86-1.22.86l-.03-.01zM282.15 292.98h-.03c-.71 0-1.29-.6-1.27-1.33l.32-21.22c0-.66.52-1.21 1.18-1.27l2.86-.27c4.38-.42 8.43 2.48 9.46 6.74l1.48 6.11c.17.7-.26 1.4-.96 1.57-.69.17-1.4-.26-1.57-.96l-1.48-6.11c-.73-3.01-3.6-5.07-6.69-4.77l-1.7.16-.31 20.06c0 .71-.6 1.27-1.3 1.27l.01.02z" style="clip-path:url(#SVGID_00000181802100151115227840000013667439603942344594_);fill:#20380e"/><path d="M262.59 456.81c-.13 0-.26-.03-.39-.07a1.29 1.29 0 0 1-.84-1.64l16.89-52.89c.22-.69.95-1.07 1.64-.84.69.22 1.07.95.84 1.64l-16.89 52.89c-.17.55-.69.91-1.23.91h-.02zM317.7 457.2h-.07c-.71-.04-1.27-.64-1.23-1.36l2.65-55.45c.04-.71.65-1.27 1.36-1.23.71.04 1.27.64 1.23 1.36L319 455.96c-.04.7-.61 1.24-1.3 1.24z" style="clip-path:url(#SVGID_00000181802100151115227840000013667439603942344594_);fill:#fff"/><path d="M138.91 128.41s-4.15 3.07-7.92 4.07c-3.77 1-7.26 1.24-11.14 3.92-3.87 2.68-10.12 7.61-14.37 11.46s-15.65 15.05-18.88 17.76-11.72 10-15.76 11.2c-4.04 1.2-15.43 1.08-19.3.02-3.88-1.06-15.8-5.55-20.15-8.38-4.35-2.83-16.52-11.86-18.43-15.98-1.91-4.12-6.11-10.88-7.57-13.48-1.46-2.6-2.33-5.77-1.29-8.99 1.05-3.22 3.9-9.94 6.95-12.77 3.05-2.83 15.16-11.85 20.12-14.54s16.34-9.11 20.41-13.09c4.06-3.98 15.03-10.92 19.7-13.04s13.01-5.7 18.72-6.18 8.32-1.29 15.73.07 16.47 6.31 19.26 8.78c2.79 2.47 12.7 13.7 13.44 14.78.75 1.08 7.19 11.99 7.6 13.42.41 1.43 2.03 11.07.04 14.3-2 3.25-7.15 6.66-7.16 6.67z" style="clip-path:url(#SVGID_00000181802100151115227840000013667439603942344594_);fill:#94b73d"/><path d="M103.68 121.27c-6.24-1.36-11.49-2.93-17.04-4.58-.35-.11-.71-.21-1.07-.32-.15.77-.53 1.5-1.1 2.1-.8.84-1.88 1.32-2.95 1.33-.35 0-.68-.04-1.01-.08-.53-.07-.99-.12-1.36.02-.59.23-.98.99-1.17 2.27l-.03.17c-.16 1.15-.37 2.57-1.44 3.44-.03.03-.07.05-.1.08-.72.54-1.7.75-2.97.63-.26-.02-.51-.06-.76-.09-.61-.08-1.19-.15-1.74-.08-1.22.17-2.26 1.19-2.49 2.39.34 3.85.62 7.7.9 11.71.2 2.85.41 5.79.65 8.74.1 1.19.8 2.18 1.9 2.65 1.09.47 2.3.31 3.22-.42 6.46-5.13 12.1-9.79 18.07-14.72 3.76-3.11 7.66-6.32 11.8-9.69.97-.78 1.37-1.97 1.08-3.18-.26-1.22-1.16-2.1-2.39-2.37zm-24.2-6.69-.24-.07-.15-.2c-2.56-3.44-5.79-7.41-8.39-10.61-1.09-1.34-2.07-2.54-2.89-3.58l-11.17 8.32c3.6 4.18 8.51 10.2 11.16 14.2l.1.15.02.18c.11 1.02.22 2.03.32 3.05.68-.7 1.57-1.18 2.53-1.32.74-.1 1.44-.01 2.12.08.24.03.47.06.7.08.93.09 1.59-.04 2.01-.38.62-.51.77-1.52.91-2.51l.03-.18c.27-1.85.97-3 2.09-3.43.71-.27 1.43-.19 2.07-.11.29.04.56.07.82.07.68 0 1.36-.32 1.89-.87.42-.44.68-.97.75-1.51-1.5-.44-3.05-.89-4.68-1.36zM66.3 96.89l-12.99 9.67c-.45.33-.54.97-.21 1.42.33.45.97.54 1.42.21l12.99-9.67c.45-.33.54-.97.21-1.42-.33-.45-.97-.54-1.42-.21zm39.64 31.07c-4.14 3.36-8.03 6.58-11.79 9.68-5.98 4.94-11.63 9.6-18.09 14.73l-.12.09c-1.35 1-3.06 1.2-4.6.53-1.6-.69-2.64-2.15-2.78-3.89-.24-2.95-.45-5.9-.65-8.75-.28-3.97-.55-7.8-.89-11.61h-.05l.03-.24c-.16-1.73-.33-3.46-.52-5.2-2.66-3.97-7.49-9.89-11.02-13.98l-.05.04c-1.1.82-2.66.59-3.48-.51-.82-1.1-.59-2.66.51-3.48l12.99-9.67c1.1-.82 2.66-.59 3.48.51.66.89.64 2.09.02 2.95.83 1.04 1.82 2.26 2.92 3.61 2.56 3.15 5.73 7.04 8.28 10.46 2.46.7 4.74 1.38 6.95 2.04 5.52 1.65 10.74 3.2 16.93 4.55a4.61 4.61 0 0 1 3.53 3.46c.4 1.76-.2 3.55-1.6 4.68z" style="clip-path:url(#SVGID_00000181802100151115227840000013667439603942344594_);fill:#fff"/><path d="M73.8 132.19c-.73.55-.89 1.59-.34 2.32s1.59.89 2.32.34c.73-.55.89-1.59.34-2.32a1.67 1.67 0 0 0-2.32-.34zm2.85 3.84a3.139 3.139 0 0 1-4.38-.64c-1.03-1.38-.74-3.35.64-4.38s3.35-.74 4.38.64a3.12 3.12 0 0 1-.64 4.38zM89.37 125.39a.928.928 0 1 0 1.11 1.49c.41-.31.5-.89.19-1.3-.3-.41-.89-.5-1.3-.19zm1.99 2.67c-1.06.79-2.57.57-3.36-.49s-.57-2.57.49-3.36 2.57-.57 3.36.49c.8 1.06.57 2.57-.49 3.36zM68.8 114.86a.928.928 0 1 0 1.11 1.49c.41-.31.5-.89.19-1.3-.3-.41-.89-.5-1.3-.19zm1.99 2.67c-1.06.79-2.57.57-3.36-.49s-.57-2.57.49-3.36 2.57-.57 3.36.49c.8 1.07.58 2.57-.49 3.36zM67.34 104.47a.928.928 0 1 0 1.11 1.49c.41-.31.5-.89.19-1.3-.3-.41-.88-.5-1.3-.19zm2 2.68c-1.06.79-2.57.57-3.36-.49s-.57-2.57.49-3.36 2.57-.57 3.36.49.57 2.56-.49 3.36z" style="clip-path:url(#SVGID_00000181802100151115227840000013667439603942344594_);fill:#fff"/><path d="M5.27 140.31c-2.11-8.09.41-14.14 3.58-18.76 3.87-5.64 9.21-9.68 14.66-13.29 4.99-3.32 10.32-6.14 15.52-9.15 6.44-3.72 12.24-8.42 18.35-12.64 7.91-5.46 16.2-10.48 25.65-13.46 8.13-2.56 17.77-3.98 28.05-.6 17.53 5.76 38.35 32.23 36.98 51.33-.06.87-1 3.48-.49 4.41 1.18 2.14 2.26 4.31 3.25 6.51 2.92 6.47 4.77 13.03 5.27 19.15l.89-.18c-2.32-2.07-4.71-3.97-7.11-5.79-2.38-1.82-4.79-3.51-7.22-5.1-1.37-.9-2.74-1.74-4.11-2.54-1.13-.66-2.81-1.92-3.88-2.09-.83-.13-1.73.64-2.37.91-1.02.42-2.02.86-3.06 1.22-4.37 1.5-8.31 3.75-12.01 6.33-8.05 5.58-14.85 12.9-21.91 19.78-3.53 3.44-7.14 6.79-10.98 9.83-3.33 2.63-6.84 5.29-10.85 6.9-9.61 3.84-23.79-.11-36.08-6.51-13.25-6.91-27.29-19.63-32.1-36.22-.28-.93-1.45-1.11-1.18-.18 5.78 19.91 23.58 33.77 39.02 40.44 8.06 3.48 16.11 5.36 23.37 5.24 8.14-.14 14.02-4.54 19.65-9.07 12.48-10.02 22.39-23.51 36.27-31.63 2.7-1.58 5.64-2.7 8.57-3.9.95-.39 1.9-.78 2.86-1.16.37-.15.74-.3 1.1-.45.51-.21 2.72 1.37 3.33 1.72 6.1 3.52 12.4 8.04 18.15 13.18.41.37.94.38.89-.18-.45-5.58-1.99-11.4-4.37-17.32-.96-2.39-2.09-4.77-3.3-7.12-.64-1.25-.9-1.61-.7-2.68.18-.99.29-2.02.37-3.07.6-8.35-2.91-17.81-8.56-26.69-6.18-9.7-14.6-18.58-23.41-23.58-9.01-5.11-17.7-5.25-25.31-4.39-19.94 2.23-34.45 15.02-49.47 25.47-9.75 6.79-20.98 11.25-29.7 19.54-5.7 5.41-11.94 13.41-8.78 25.61.25.93 1.42 1.1 1.17.18z" style="clip-path:url(#SVGID_00000181802100151115227840000013667439603942344594_);fill:#20380e"/><path d="M145.81 109.44c.97 1.2.45 4.85.34 5.9-.35 3.25-.96 5.37-2.49 7.6-2.56 3.73-6.3 6.09-10.63 7.25-2.08.56-3.92 1.58-5.94 2.28-18.65 6.39-29.98 24.12-44.89 35.94-5.17 4.1-10.59 7.84-17.85 8.34-6.84.47-14.59-1.24-22.27-4.25-14.83-5.81-32.13-18.94-37.7-38.15-.27-.93-1.45-1.11-1.17-.18 5.86 20.21 23.89 33.77 39.45 39.87 8.06 3.15 16.06 4.66 23.16 4.08 8.2-.67 14.28-5.77 19.98-10.59 7.55-6.37 14.26-13.84 21.61-20.48 3.58-3.23 7.34-6.24 11.42-8.8 3.28-2.05 6.88-3.48 10.51-4.96 2.77-1.13 5.78-1.9 8.45-3.18 3.15-1.51 5.76-3.99 7.66-7.12 1.3-2.14 1.73-4.86 2-7.83.14-1.56.43-4.03-.63-5.98-.05-.1-.13-.23-.19-.32-.64-.8-1.48-.24-.82.57v.01zM150.98 135.22c1.38 5.04 1.98 9.95 1.4 14.22-.07.58 1.26 2.2 1.33 1.6.6-4.48-.02-9.59-1.46-14.85-.17-.64-1.58-2.07-1.27-.97z" style="clip-path:url(#SVGID_00000181802100151115227840000013667439603942344594_);fill:#20380e"/><path d="M150.1 133.43c-.04 4.79.6 10.37-1.32 13.91-.23.43 1.06 2.13 1.34 1.61 1.95-3.59 1.3-9.33 1.34-14.18.01-.59-1.35-2.17-1.36-1.34zM148.07 128.79c-.46 2.74-.72 5.59-1.06 8.39-.34 2.77-1.43 4.94-2.45 7.17-.21.45 1.09 2.15 1.34 1.61 1.03-2.23 2.07-4.41 2.45-7.17.39-2.78.6-5.66 1.06-8.4.09-.56-1.24-2.2-1.34-1.6z" style="clip-path:url(#SVGID_00000181802100151115227840000013667439603942344594_);fill:#20380e"/><path d="M145.84 118.91c1.46 3.3 2.07 7.05 1.86 9.92-.04.6 1.3 2.2 1.33 1.6.23-3.2-.45-7.29-2.08-10.98-.32-.73-1.67-1.8-1.11-.54zM144.8 122.68c1.58 3.6.18 6.93-.56 9.45-1 3.37-1.74 6.91-3.37 9.74-.23.41 1.05 2.12 1.34 1.61 1.84-3.18 2.67-7.27 3.77-11.09.73-2.54 1.51-5.62-.05-9.16-.33-.73-1.68-1.8-1.13-.55zM141.92 125.3c-.05 3.23-1.54 5-2.56 7.45-.88 2.1-.79 5.13-2.28 6.67-.36.37.9 2.12 1.23 1.77 1.52-1.57 1.62-4.59 2.39-6.84.92-2.67 2.53-4.33 2.58-7.72.01-.58-1.34-2.17-1.35-1.33h-.01zM136.36 129.14c.33 3.56-.29 6.85-1.9 9.02-.32.42.95 2.14 1.23 1.77 1.71-2.29 2.37-5.68 2.03-9.46-.06-.6-1.44-2.17-1.36-1.33zM131.48 130.98c.55 1.61.28 3.15.1 4.45s-.46 2.51-.72 3.74c-.11.55 1.22 2.2 1.34 1.61.51-2.43 1.68-5.6.56-8.82-.22-.64-1.65-2.07-1.28-.98zM128.42 132.32c-.26 2.93-.69 5.71-1.64 8.14-.19.48 1.12 2.17 1.34 1.61.95-2.43 1.4-5.21 1.64-8.14.04-.59-1.29-2.21-1.34-1.61zM124.79 133.65c.69 3.34-.06 6.07-.85 8.55-.17.51 1.15 2.18 1.34 1.61.82-2.55 1.58-5.4.86-8.83-.13-.61-1.52-2.16-1.35-1.33zM121.72 134.93c-1.5 2.07-.68 6.01-.91 8.99-.04.59 1.29 2.21 1.34 1.61.21-2.83-.64-6.85.79-8.82.31-.43-.96-2.14-1.22-1.78zM117.8 137.03c-.31 1.14-.04 2.59.05 3.95.11 1.73-.4 3.11-.26 4.86.05.6 1.43 2.18 1.35 1.33-.12-1.48.21-2.72.25-4.11.05-1.44-.4-3.15-.06-4.42.14-.53-1.18-2.19-1.34-1.61h.01zM114.16 139.23c.42 1.54-.14 2.55-.29 3.8-.15 1.29.3 2.92.31 4.3 0 .58 1.36 2.17 1.35 1.33-.02-1.63-.49-3.46-.18-4.93.25-1.13.47-2.08.08-3.52-.17-.64-1.57-2.07-1.27-.98zM110.8 142.44c-.05 2.42.25 5.01.69 7.62.1.61 1.49 2.18 1.35 1.33-.44-2.61-.74-5.2-.69-7.62.02-.57-1.34-2.16-1.35-1.33zM107.72 145.01c.13 2.82.01 5.47.67 8.5.14.64 1.52 2.07 1.28.97-.63-2.89-.47-5.44-.59-8.13-.02-.6-1.4-2.19-1.36-1.34zM104.3 147.16c.51 2.78 1.15 5.58 2.18 8.44.22.62 1.67 2.06 1.28.97-.98-2.74-1.62-5.42-2.11-8.08-.12-.61-1.51-2.16-1.35-1.33zM101.96 150.31c.44 2.64 1.2 5.36 1.46 7.96.07.61 1.44 2.18 1.35 1.33-.26-2.59-1.02-5.31-1.47-7.96-.1-.61-1.49-2.18-1.34-1.33zM99.71 152.31c.01 2.35 1.56 5.22 1.35 7.46-.05.6 1.28 2.2 1.34 1.61.22-2.38-1.34-5.28-1.34-7.74-.01-.57-1.36-2.17-1.35-1.33zM97.57 154.52c-.14 1.1-.01 2.28.29 3.56.29 1.24 1.46 3.26 1.21 4.26-.13.53 1.19 2.19 1.34 1.61.22-.87-.18-1.86-.64-2.92-.72-1.67-1.05-3.5-.86-4.9.07-.57-1.26-2.2-1.34-1.61zM94.88 156.73c.04 1.51.1 3.03.1 4.53 0 1.42.54 3.06.94 4.59.17.64 1.56 2.08 1.28.97-.36-1.44-.83-2.88-.86-4.23-.04-1.51-.06-3.02-.1-4.53-.02-.58-1.38-2.17-1.36-1.33zM92.1 160.23c.53 1.28.6 2.53.85 3.76.24 1.15.74 2.32.85 3.45.06.6 1.44 2.18 1.35 1.33-.13-1.37-.74-2.82-1-4.22-.24-1.25-.4-2.47-.94-3.77-.31-.74-1.64-1.82-1.11-.55zM90.29 161.98c-.08 1.59.19 3.32.26 4.97.05 1.32.02 2.57.69 4.03.33.73 1.69 1.8 1.12.56-.63-1.38-.4-2.75-.51-4-.13-1.44-.28-2.87-.21-4.22.03-.56-1.31-2.16-1.35-1.33v-.01zM87.11 164.99c.51 1.12.46 2.22.5 3.23.06 1.17.32 2.46.52 3.69.1.61 1.49 2.18 1.35 1.33-.24-1.45-.49-2.9-.56-4.29-.05-1.09-.16-2.2-.71-3.41-.19-.42-.56-.95-.95-1.14-.36-.18-.3.28-.15.59zM84.8 166.99c.25 2.69.69 5.51-.05 7.67-.17.5 1.14 2.18 1.34 1.61.76-2.23.32-5.15.06-7.95-.07-.61-1.44-2.18-1.35-1.33zM81.48 168.83c1.13 3.2.16 5.7.99 8.83.17.65 1.57 2.07 1.28.97-.82-3.14.15-5.58-.99-8.83-.23-.63-1.66-2.05-1.28-.97zM78.33 171.36c.45 2.88.12 5.46 1.14 8.5.22.63 1.64 2.07 1.28.97-.97-2.9-.64-5.39-1.06-8.13-.1-.61-1.49-2.18-1.36-1.34zM75.8 173.55c.05 1.57-.12 3.01-.15 4.52-.03 1.34-.27 2.67.08 4.16.15.64 1.54 2.07 1.28.97-.3-1.28.01-2.61 0-3.8 0-1.54.21-2.96.15-4.52-.03-.59-1.39-2.17-1.36-1.33zM72.65 174.84c.32 3.14-1.06 5.29-.69 8.46.07.6 1.45 2.18 1.35 1.33-.37-3.16 1-5.31.69-8.46-.06-.61-1.43-2.19-1.35-1.33zM68.89 175.79c-.12 1.35-.13 2.76-.1 4.18.03 1.21-.18 2.42.08 3.73.09.46.38.93.74 1.29.2.2.71.5.62.05-.24-1.19-.04-2.22-.07-3.32-.04-1.47-.05-2.93.08-4.32.03-.59-1.3-2.2-1.35-1.61zM66.29 176.34c-.93.82-1.13 2.24-1.43 3.64-.17.77-.57 1.33-.83 2.01-.23.6-.13 1.49-.26 2.15-.11.55 1.22 2.2 1.34 1.61.11-.55.13-1.14.18-1.73.07-.8.53-1.37.8-2.01.56-1.31.4-3 1.43-3.9.37-.33-.88-2.09-1.23-1.77zM60.91 176.71c-1.1 1.78-1.45 4.44-1.24 7.12.05.59 1.42 2.18 1.35 1.33-.19-2.58.17-5.13 1.23-6.85.24-.39-1.03-2.1-1.34-1.6zM56.42 176.64c-.33 2.14-.43 4.42-.69 6.6-.07.58 1.27 2.2 1.34 1.61.25-2.19.36-4.47.69-6.6.08-.57-1.25-2.2-1.34-1.61zM52.64 176.03c.38.97-.12 1.9-.18 2.69-.09 1.19-.07 2.42-.05 3.67.01.59 1.37 2.18 1.35 1.33-.03-1.41-.09-2.84.13-4.1.18-.98.35-1.8-.14-3.04-.29-.74-1.61-1.8-1.11-.55zM49.03 174.63c-.15 1-.45 1.88-.69 2.81-.29 1.1-.26 2.42-.38 3.62-.05.59 1.28 2.21 1.34 1.61.11-1.08.12-2.23.31-3.27.19-1.11.62-2.03.77-3.16.07-.57-1.27-2.2-1.35-1.61zM44.33 173.64c.37 2.19-.59 3.75-.77 5.66-.05.59 1.28 2.21 1.34 1.61.19-2 1.17-3.62.79-5.92-.08-.45-.39-.94-.74-1.29-.22-.21-.7-.49-.62-.06zM40.49 172.36c.13 2.14-1.31 3.15-1.28 5.26.01.59 1.37 2.18 1.35 1.33-.03-2.09 1.41-3.08 1.28-5.27-.04-.59-1.4-2.18-1.35-1.32zM35.35 169.66c-.3 1.82-.8 3.5-1.23 5.23-.13.53 1.19 2.2 1.34 1.61.44-1.73.94-3.4 1.23-5.23.09-.57-1.24-2.2-1.34-1.61zM31.52 167.96c-.02 1.8-1.06 2.86-1.08 4.68-.01.58 1.35 2.17 1.35 1.33.01-1.81 1.05-2.86 1.08-4.68.01-.58-1.35-2.16-1.35-1.33zM27.95 165.59c-.2 1.54-.95 2.64-1.15 4.19-.07.58 1.26 2.21 1.34 1.61.2-1.54.95-2.64 1.15-4.18.07-.59-1.26-2.21-1.34-1.62zM23.49 162.65c-.1 1.47-.74 2.54-1.02 3.88-.11.55 1.22 2.2 1.34 1.61.28-1.35.92-2.41 1.02-3.88.04-.6-1.3-2.2-1.34-1.61zM19.42 158.8c-.39 1.27-.58 2.69-.82 4.06-.1.56 1.23 2.2 1.34 1.61.25-1.38.43-2.8.82-4.07.15-.51-1.17-2.18-1.34-1.6zM15.28 154.93c.61 1.43.04 2.92-.3 3.87-.18.5 1.13 2.17 1.34 1.61.48-1.32.91-3 .08-4.93-.18-.42-.57-.96-.95-1.14-.38-.18-.31.29-.17.59zM11.44 150.65c.38 1.19.18 2.21-.37 2.82-.35.38.91 2.12 1.22 1.78.71-.79.91-2.1.42-3.63-.14-.45-.49-.97-.87-1.26-.32-.25-.54-.12-.41.28l.01.01zM8.38 146.21c.21.87-.22 1.39-.53 1.88-.25.4 1.03 2.11 1.34 1.61.44-.71.75-1.34.47-2.53-.1-.43-.52-.99-.87-1.26-.36-.25-.51-.09-.41.3zM169.57 165.05c-26.17 0-47.46 21.29-47.46 47.46s21.29 47.46 47.46 47.46 47.46-21.29 47.46-47.46-21.29-47.46-47.46-47.46zm0 95.96c-26.74 0-48.51-21.76-48.51-48.51s21.76-48.5 48.51-48.5 48.51 21.76 48.51 48.51-21.76 48.51-48.51 48.5z" style="clip-path:url(#SVGID_00000181802100151115227840000013667439603942344594_);fill:#20380e"/><path d="M217.55 212.51c0 26.5-21.48 47.98-47.98 47.98s-47.98-21.48-47.98-47.98h95.96z" style="clip-path:url(#SVGID_00000181802100151115227840000013667439603942344594_);fill:#ebefe7"/><path d="M203.5 178.58c18.74 18.74 18.74 49.11 0 67.86-18.74 18.74-49.11 18.74-67.86 0l67.86-67.86z" style="clip-path:url(#SVGID_00000181802100151115227840000013667439603942344594_);fill:#ebefe7"/><path d="M169.57 164.53c26.5 0 47.98 21.48 47.98 47.98s-21.48 47.98-47.98 47.98v-95.96z" style="clip-path:url(#SVGID_00000181802100151115227840000013667439603942344594_);fill:#fff"/><path d="M169.57 260.48c2.48 0 4.92-.19 7.3-.55-7.72 1.2-15.85.52-23.71-2.34l16.41-45.09v47.98zM183.22 258.51z" style="clip-path:url(#SVGID_00000181802100151115227840000013667439603942344594_);fill:#ebefe7"/><path d="M176.45 260c-.75.11-1.5.2-2.25.27.75-.08 1.5-.17 2.25-.27zM169.57 164.53v47.98l33.93 33.93c-.57.57-1.15 1.12-1.74 1.65 9.7-8.78 15.79-21.47 15.79-35.58 0-26.5-21.48-47.98-47.98-47.98zM171.79 260.43c-.74.03-1.48.05-2.22.05.74.01 1.49-.02 2.22-.05zM174.12 260.27zM191.66 255.11zM201.59 248.23zM197.68 251.39c-.49.35-.98.7-1.48 1.03.5-.33.99-.68 1.48-1.03zM193.69 253.99c-.52.3-1.04.59-1.56.87.53-.28 1.05-.57 1.56-.87z" style="clip-path:url(#SVGID_00000181802100151115227840000013667439603942344594_);fill:#ebefe7"/><path d="M169.57 261.01c-26.74 0-48.51-21.76-48.51-48.51 0-.29.24-.53.53-.53s.53.24.53.53c0 25.99 21 47.17 46.93 47.45v-47.23l-33.77-33.77c-.21-.21-.21-.54 0-.74s.54-.21.74 0l33.93 33.93c.1.1.15.23.15.37v47.98c-.01.29-.24.53-.53.52z" style="clip-path:url(#SVGID_00000181802100151115227840000013667439603942344594_);fill:#20380e"/><path d="M169.57 183.13c-16.2 0-29.38 13.18-29.38 29.38s13.18 29.38 29.38 29.38 29.38-13.18 29.38-29.38-13.18-29.38-29.38-29.38zm0 59.81c-16.78 0-30.43-13.65-30.43-30.43s13.65-30.43 30.43-30.43S200 195.73 200 212.51s-13.65 30.43-30.43 30.43zM198.29 186.06c-.14 0-.27-.05-.37-.15a.513.513 0 0 1 0-.74l14.36-14.36c.1-.1.23-.15.37-.15h3.15c.29 0 .53.24.53.53s-.24.53-.53.53h-2.93l-14.21 14.21c-.11.09-.24.14-.37.13z" style="clip-path:url(#SVGID_00000181802100151115227840000013667439603942344594_);fill:#20380e"/><path d="M198.29 186.06c-.14 0-.27-.05-.37-.15a.513.513 0 0 1 0-.74l6.42-6.42c.21-.21.54-.21.74 0s.21.54 0 .74l-6.42 6.42c-.11.11-.24.15-.37.15zM235.29 171.59h-15.64c-.29 0-.53-.24-.53-.53s.24-.53.53-.53h15.64c.29 0 .53.24.53.53s-.24.53-.53.53zM235.29 174.75h-15.64c-.29 0-.53-.24-.53-.53s.24-.53.53-.53h15.64c.29 0 .53.24.53.53s-.24.53-.53.53zM229.22 177.9h-9.57c-.29 0-.53-.24-.53-.53s.24-.53.53-.53h9.57c.29 0 .53.24.53.53s-.24.53-.53.53zM136.53 197.27c-.14 0-.27-.05-.37-.15l-14.21-14.21h-2.93c-.29 0-.53-.24-.53-.53s.24-.53.53-.53h3.15c.14 0 .27.06.37.15l14.36 14.36c.21.21.21.54 0 .74-.1.12-.23.17-.37.17zM115.17 182.8H99.53c-.29 0-.53-.24-.53-.53s.24-.53.53-.53h15.64c.29 0 .53.24.53.53s-.24.53-.53.53zM115.17 185.95H99.53c-.29 0-.53-.24-.53-.53s.24-.53.53-.53h15.64c.29 0 .53.24.53.53s-.24.53-.53.53zM109.1 189.11h-9.57c-.29 0-.53-.24-.53-.53s.24-.53.53-.53h9.57c.29 0 .53.24.53.53s-.24.53-.53.53z" style="clip-path:url(#SVGID_00000181802100151115227840000013667439603942344594_);fill:#20380e"/><path d="m221.56 10.58 6.65.55 5.86 2.98 7.56 10.06s9.76 15.07 12.68 27.58c2.92 12.5 8.7 37.19.28 44.58-8.42 7.39-16.3 10.52-22.58 12.99-6.28 2.47-42.4 14.66-42.4 14.66s-9.65 2.87-14.67 2.46-9.14-1.19-11.66-2.33c-2.52-1.14-7.39-7.87-9.03-11.49-1.64-3.62-8.16-20.31-8.12-25.11.03-4.8-2.48-26.1-2.48-26.1s1.37-12.53 1.65-13.66c.28-1.14 4.66-8.21 4.66-8.21l5.1-5.9 7.23-4.19s5.83-2.66 11.25-4.01c5.43-1.34 15.23-5.14 17.5-6.04 2.26-.9 10.89-4.03 15.86-6.01 7.38-2.94 14.67-2.81 14.67-2.81h-.01z" style="clip-path:url(#SVGID_00000181802100151115227840000013667439603942344594_);fill:#ed9d42"/><path d="m221.32 11.03-.01-.01.5-.88.01.01-.5.88zm-14.6 1.9c3.74-1.49 7.46-2.2 10.23-2.54 1.39-.17 2.54-.25 3.35-.28.41-.02.72-.02.94-.03h.34l-.01.51-.01.51h-.31c-.21 0-.52.01-.91.02-.79.03-1.92.11-3.27.27-2.72.33-6.34 1.03-9.98 2.48l-.37-.94zm-15.87 6.01c1.14-.45 3.87-1.46 6.92-2.6 3.06-1.14 6.46-2.42 8.94-3.41l.38.94c-2.49.99-5.9 2.27-8.96 3.42-3.07 1.14-5.78 2.15-6.9 2.59l-.38-.94zm-17.43 6.02c5.39-1.33 15.16-5.12 17.43-6.02l.37.94c-2.26.89-12.1 4.71-17.56 6.06l-.24-.98zm-11.13 4.5-.21-.46s.01 0 .01-.01c.01-.01.03-.01.05-.02.04-.02.11-.05.2-.09.17-.08.42-.19.74-.32.64-.27 1.54-.65 2.61-1.07 2.14-.84 4.98-1.85 7.72-2.53l.24.98c-2.68.66-5.47 1.66-7.6 2.49-1.06.41-1.95.79-2.58 1.06-.31.13-.56.24-.73.32-.08.04-.15.07-.19.09-.02.01-.04.02-.05.02-.01 0-.01 0-.01.01.01-.01.01-.01-.2-.47zm-7.48 3.75 7.23-4.19.51.88-7.23 4.19-.51-.88zm-5.23 6.01 5.1-5.9.77.66-5.1 5.9-.77-.66zm-4.77 8.42c.05-.2.17-.48.32-.78.15-.31.35-.69.58-1.1.45-.83 1.03-1.83 1.6-2.78.57-.96 1.12-1.88 1.54-2.56.21-.34.38-.62.5-.82.06-.1.11-.17.14-.23.02-.03.03-.05.04-.06 0-.01.01-.01.01-.02l.43.27.43.27s-.01.01-.01.02c-.01.01-.02.03-.04.06l-.14.23c-.12.2-.29.48-.5.81-.41.68-.97 1.6-1.53 2.55-.56.95-1.13 1.94-1.58 2.75-.22.41-.41.77-.56 1.06-.15.31-.23.5-.25.58l-.98-.25zm-1.16 13.78c-.5-.05-.5-.05-.5-.06v-.04c0-.02.01-.06.01-.11.01-.09.02-.23.04-.4.04-.34.09-.84.16-1.44.13-1.19.31-2.79.5-4.43.19-1.64.39-3.31.55-4.65.17-1.31.31-2.35.39-2.67l.98.25c-.06.25-.2 1.2-.37 2.55-.17 1.33-.36 3-.55 4.64-.19 1.64-.37 3.24-.5 4.43-.07.6-.12 1.09-.16 1.43-.02.17-.03.31-.04.4-.01.05-.01.08-.01.1v.04c0 .02 0 .02-.5-.04zm1.97 26.1c.02-2.37-.6-8.86-1.23-14.8-.31-2.96-.63-5.77-.86-7.84-.12-1.04-.22-1.89-.28-2.48-.03-.3-.06-.53-.08-.68-.01-.08-.02-.14-.02-.18 0-.02 0-.04-.01-.05v-.01l.5-.06.5-.06v.01c0 .01 0 .03.01.05 0 .04.01.1.02.18.02.16.05.39.08.68.07.59.17 1.44.28 2.48.24 2.07.55 4.89.86 7.85.62 5.91 1.25 12.47 1.23 14.91h-1zm8.17 25.32c-.83-1.83-2.87-6.92-4.71-12.15-.92-2.62-1.78-5.28-2.42-7.59-.63-2.29-1.05-4.3-1.04-5.58l1.01.01c-.01 1.12.37 3 1.01 5.3.63 2.28 1.49 4.92 2.4 7.52 1.83 5.22 3.86 10.28 4.67 12.07l-.92.42zm9.28 11.74c-.72-.33-1.55-1.02-2.4-1.87-.86-.87-1.77-1.95-2.64-3.1-1.75-2.29-3.4-4.92-4.24-6.77l.92-.42c.8 1.76 2.4 4.32 4.13 6.58.86 1.13 1.74 2.17 2.56 3 .83.84 1.55 1.42 2.09 1.66l-.42.92zm11.83 2.37c-5.03-.41-9.22-1.19-11.83-2.37l.42-.92c2.44 1.1 6.48 1.87 11.49 2.28l-.08 1.01zm14.71-2.96.14.49h-.01s-.01 0-.02.01c-.02.01-.05.01-.08.02l-.32.09c-.28.08-.68.19-1.17.32-.99.26-2.36.61-3.89.95-3.04.67-6.77 1.3-9.37 1.08l.08-1.01c2.43.2 6.03-.4 9.07-1.06a85.35 85.35 0 0 0 4.99-1.26l.31-.09c.04-.01.06-.02.08-.02.01 0 .02 0 .02-.01.03 0 .03 0 .17.49zm42.59-14.2c-3.15 1.24-13.77 4.91-23.58 8.27-4.91 1.68-9.62 3.28-13.1 4.46-1.74.59-3.18 1.08-4.18 1.41-.5.17-.89.3-1.16.39-.13.04-.23.08-.3.1-.03.01-.06.02-.08.03-.01 0-.02.01-.02.01l-.16-.48-.16-.48s.01 0 .02-.01c.02-.01.04-.01.08-.03.07-.02.17-.06.3-.1.27-.09.66-.22 1.16-.39 1-.34 2.44-.82 4.18-1.41 3.48-1.18 8.2-2.78 13.1-4.46 9.82-3.36 20.41-7.02 23.53-8.25l.37.94zm22.72-13.07c-8.49 7.45-16.44 10.6-22.72 13.08l-.37-.94c6.27-2.47 14.08-5.57 22.43-12.9l.66.76zm-.12-45.08c1.46 6.25 3.64 15.58 4.4 24.28.38 4.35.41 8.57-.2 12.18-.6 3.6-1.85 6.66-4.08 8.62l-.67-.76c1.98-1.74 3.16-4.53 3.75-8.03.59-3.49.56-7.61.19-11.92-.75-8.62-2.92-17.88-4.38-24.14l.99-.23zm-13.17-27.46c.42-.28.42-.28.43-.27l.01.01c0 .01.01.02.02.03.02.03.05.07.08.13l.32.5c.27.44.67 1.08 1.15 1.89.96 1.61 2.28 3.9 3.69 6.57 2.81 5.34 6 12.28 7.48 18.6l-.99.23c-1.44-6.19-4.59-13.04-7.39-18.36-1.4-2.66-2.7-4.92-3.66-6.53-.48-.8-.87-1.44-1.14-1.87-.14-.22-.24-.38-.31-.5-.04-.06-.06-.1-.08-.13-.01-.01-.02-.02-.02-.03 0 0 0-.01-.01-.01s-.01.01.42-.26zm-7.16-10.37 7.56 10.06-.81.61-7.56-10.06.81-.61zm-6.03-3.13 5.86 2.98-.46.9-5.86-2.98.46-.9zm-6.83-.6 6.65.55-.08 1.01-6.65-.55.08-1.01zm-.03.51.25-.44 1.71.98-1.97-.04.01-.5zM206.9 13.4l-.19-.47.19.47zm-44.61 16.06-.25-.44.02-.01.02-.01.21.46zm-7.23 4.19-.38-.33.06-.06.07-.04.25.43zm-5.1 5.9-.43-.27.02-.03.03-.03.38.33zm-6.31 21.87-.5.06-.01-.06.01-.06.5.06zm45.96 62.57.16.48h-.02l-.14-.48zm52.02-99.81.4-.3.01.01.01.01-.42.28zm-7.56-10.07.23-.45.1.05.07.09-.4.31zm-5.86-2.98.04-.5.1.01.09.05-.23.44zm-6.65-.55-.25.44-1.97-1.13 2.26.19-.04.5z" style="clip-path:url(#SVGID_00000181802100151115227840000013667439603942344594_);fill:#20380e"/><path d="M189.35 72.65c.02-.01.05-.01.07-.02 1.25-2.64 2.08-5.18 2.88-7.64.7-2.14 1.42-4.33 2.41-6.57l-1.26.44c-6.3 2.22-9.22 3.25-16.55 5.16-2.2 3.62-5.65 11.34-6.93 14.24 7.12-1.42 12-2.84 19.38-5.61zM178.9 99.46l17.94-6.44c-1.8-5.96-4.13-12.36-6.94-19.04-.1.01-.2 0-.3-.03-2.79 1.04-5.22 1.89-7.57 2.63-3.37 1.06-6.55 1.87-10.29 2.66 2.53 6.65 4.93 13.45 7.16 20.22zm19.36-6.22 4.69-1.47-2.36-8.76c-.05-.17-.02-.35.07-.51s.24-.26.42-.3c2.83-.62 5.12-1.32 7.2-2.2a.646.646 0 0 1 .86.37c1.01 2.78 1.86 5.58 2.68 8.3.03.1.03.21.01.31l3.32-1.04a.68.68 0 0 1 .11-.31c-1.59-6.89-3.58-13.76-5.93-20.42a.62.62 0 0 1-.02-.33c-4.39-4.36-7.12-6.72-11.3-9.74-.05-.03-.09-.06-.14-.1-.25-.18-.51-.37-.78-.55-1.64 3-2.57 5.87-3.56 8.89-.78 2.4-1.59 4.87-2.79 7.45.08.06.14.15.18.24 3 7.11 5.47 13.89 7.34 20.17zm9.89-11.77c-1.82.72-3.8 1.33-6.13 1.86l2.17 8.05 6.55-2.05a.545.545 0 0 1-.17-.27c-.74-2.49-1.52-5.05-2.42-7.59zm24.93-.1c-1.95-6.78-3.99-13.25-5.97-19.52-3.79 1.47-7.72 2.75-11.81 4.03-.79.25-1.59.5-2.39.75-.72.23-1.44.45-2.17.68 2.25 6.48 4.18 13.13 5.73 19.81 5.58-1.74 11.16-3.67 16.61-5.75zm-15.94-29.99c-4.32 1.2-7.83 2.33-11.88 3.65-1.74.56-3.53 1.15-5.51 1.77 3.75 2.76 6.43 5.13 10.58 9.26.73-.23 1.46-.46 2.19-.68 5.68-1.77 11.06-3.45 16.16-5.56-2.24-1.76-8.31-6.49-11.54-8.44zm-24.59-6.81c-1.31.39-2.76.68-4.17.96-1.53.3-3.12.62-4.46 1.05.61 1.88.95 3.26 1.11 5.3 3.1-.81 6.16-1.84 9.12-3.06-.4-1.32-.89-2.69-1.6-4.25zm-16.62 18.55c.09-.14.23-.24.39-.29 7.46-1.94 10.35-2.96 16.69-5.19.73-.26 1.51-.53 2.35-.83l.12-.03c.16-.32.33-.64.51-.97-.35-1.26-.63-2.37-.89-3.44-.2-.79-.39-1.55-.59-2.3a73.26 73.26 0 0 1-9.93 3.26.651.651 0 0 1-.81-.6c-.13-2.65-.51-4.02-1.35-6.53a.65.65 0 0 1 .41-.82.61.61 0 0 1 .48.03c.03-.01.05-.03.08-.04 1.44-.48 3.11-.81 4.73-1.13 1.58-.31 3.21-.64 4.57-1.09h.01c.31-.1.65.05.78.34 1.58 3.35 2.18 5.77 2.87 8.57.23.91.46 1.85.74 2.88.05.02.11.04.15.08.41.28.8.56 1.18.83 2.35-.74 4.42-1.41 6.42-2.06 4.15-1.35 7.73-2.51 12.21-3.74.17-.05.35-.02.5.07 3.97 2.32 12.43 9.08 12.79 9.36a.644.644 0 0 1-.15 1.1c-.62.27-1.24.53-1.87.78 2.05 6.48 4.16 13.17 6.17 20.21.09.32-.08.66-.39.79a273.1 273.1 0 0 1-16.51 5.76l-.59.18c-.02.26-.19.49-.45.57l-18.14 5.67a.655.655 0 0 1-.82-.42l-19.12 6.86c-.01 0-.02.01-.03.01-.33.1-.69-.07-.81-.4-.07-.2-.04-.41.07-.58a489.23 489.23 0 0 0-7.26-20.52c-.47.1-.95.19-1.45.29a.633.633 0 0 1-.63-.23.65.65 0 0 1-.09-.67c.21-.45 4.92-11.34 7.66-15.76z" style="clip-path:url(#SVGID_00000181802100151115227840000013667439603942344594_);fill:#fff"/><path d="M196 70.13c.43 1.07 1.4 1.94 2.57 2.33 1.58.52 3.38.01 4.36-1.23 1.04-1.31 1.14-3.4.24-4.87-.82-1.34-2.49-2.02-3.8-1.61-.11.04-.22.08-.33.13-.05.02-.1.04-.16.05-.78.16-1.93.72-2.59 1.77-.62.99-.73 2.34-.29 3.43zm-.81-4.11c.86-1.37 2.28-2.1 3.36-2.34 1.94-.89 4.5 0 5.73 2 1.19 1.94 1.05 4.61-.33 6.36-.64.81-1.51 1.38-2.47 1.69-1.05.33-2.21.34-3.32-.03-1.53-.5-2.79-1.65-3.37-3.08-.6-1.49-.45-3.26.4-4.6zM226.35 70.66a35.75 35.75 0 0 1-1.36-4.53c-1.71.36-3.35.81-4.94 1.26.5 1.54.95 3.12 1.33 4.7 1.68-.37 3.35-.85 4.97-1.43zm-7.74-3.5a.642.642 0 0 1 .44-.83c2.01-.58 4.1-1.17 6.33-1.6.35-.07.69.16.76.51.39 1.89.95 3.77 1.67 5.57.07.16.06.34-.01.5-.07.16-.2.28-.36.35-.73.28-1.47.53-2.21.76-1.38.43-2.78.79-4.19 1.08a.642.642 0 0 1-.76-.49c-.47-1.98-1.02-3.95-1.67-5.85zM183.16 79.57c-2.24-.36-4.11.19-5.68.87l1.57 4.81 5.54-1.8c-.54-1.27-1.02-2.57-1.43-3.88zm1.13-.76c.49 1.62 1.09 3.23 1.79 4.77.08.17.08.36 0 .53s-.22.3-.39.36l-6.85 2.22h-.01c-.34.11-.7-.08-.81-.42l-1.95-5.98a.66.66 0 0 1 .34-.79c1.95-.91 4.35-1.76 7.39-1.13.23.04.42.21.49.44z" style="clip-path:url(#SVGID_00000181802100151115227840000013667439603942344594_);fill:#fff"/><path d="M167.61 125.54c.4 1.11 1.32 2.03 2 2.84.35.42.45 2.04-.15 1.32-.87-1.05-1.84-2.13-2.35-3.55-.11-.31-.24-.87-.04-1.1.2-.24.47.27.54.49zM170.36 125.92c.78 1.25 1.49 2.62 2.51 3.54.38.34.58 2.04.04 1.56-1.1-.99-1.87-2.43-2.71-3.77-.21-.34-.35-.81-.3-1.21.05-.32.28-.41.46-.12zM173.43 125.94c1.23 1.7 2.23 3.81 3.77 5.03.39.31.61 2 .04 1.56-1.62-1.29-2.67-3.49-3.97-5.27-.32-.44-.39-2.08.16-1.32zM176.13 125.57c1.12 2.09 2.69 3.66 4.11 5.36.35.42.45 2.04-.15 1.32-1.51-1.81-3.1-3.46-4.3-5.68-.31-.58-.19-1.99.34-1zM179.1 125.64c1.83 1.69 3.34 3.97 5.2 5.62.38.34.59 2.04.04 1.56-1.86-1.64-3.37-3.92-5.2-5.62-.38-.35-.57-2.05-.04-1.56zM189.84 140.88c2.39.94 4.58 2.92 7.02 2.63.47-.05.87 1.65.43 1.7-2.52.3-4.74-1.68-7.21-2.65-.45-.17-.74-1.88-.24-1.68zM187.12 136.46c3.2 1.26 6.39 2.87 9.52 2 .44-.12.87 1.59.43 1.7-3.2.87-6.44-.74-9.71-2.02-.44-.17-.74-1.88-.24-1.68z" style="clip-path:url(#SVGID_00000181802100151115227840000013667439603942344594_);fill:#20380e"/><path d="M184.54 131.3c1.46 1.12 3.21 1.58 4.76 2.13 2.33.81 4.59 1.2 6.91 1.4.5.05.85 1.74.43 1.7-2.26-.19-4.48-.51-6.75-1.3-1.75-.6-3.67-1.12-5.31-2.39-.4-.3-.61-2-.04-1.56v.02zM181.19 125c4.64 4.88 10.59 5.58 15.8 7.06.45.13.76 1.84.24 1.69-5.29-1.5-11.29-2.25-16-7.19-.35-.38-.53-2.08-.04-1.56zM186.43 124.39c1.24 1.58 3.25 2.01 4.76 2.53 1.98.67 3.95 1.79 5.94 1.89.5.02.85 1.73.43 1.71-2.07-.1-4.08-1.21-6.13-1.91-1.72-.58-3.74-1.11-5.15-2.9-.34-.42-.43-2.06.15-1.32zM191.4 123.24c1.41 1.26 3.15 2 4.68 2.83 1.25.68 2.54.71 3.72 1.76.38.34.59 2.03.04 1.56-1.29-1.15-2.84-1.12-4.2-2.03-1.4-.94-2.88-1.35-4.21-2.55-.37-.35-.58-2.05-.03-1.57zM194.96 122.03c.95 1.2 2.28 1.67 3.41 2.37 1.28.78 2.51 1.48 3.83 2.04.45.19.74 1.9.24 1.69-1.56-.66-3-1.57-4.51-2.45-1.1-.64-2.21-1.18-3.13-2.34-.34-.43-.43-2.05.16-1.31zM198.68 120.75c2.11 1.22 3.98 3.11 5.84 4.98.37.37.55 2.07.04 1.56-1.8-1.8-3.62-3.67-5.65-4.84-.43-.26-.69-1.96-.23-1.7zM201.91 120.18c.77.92 1.73 1.4 2.62 2.02 1.01.71 1.88 1.77 2.93 2.36.45.25.7 1.95.24 1.69-1.17-.67-2.15-1.84-3.29-2.61-.93-.63-1.85-1.18-2.65-2.15-.36-.42-.45-2.03.15-1.31zM204.72 118.79c2.25 1.1 3.99 3.75 6.22 4.9.45.23.72 1.93.24 1.69-2.24-1.14-3.99-3.79-6.22-4.9-.46-.22-.73-1.92-.24-1.69zM208.28 117.22c2.3 1.18 4.22 3.56 6.33 5.31.39.32.6 2.02.04 1.56-2.04-1.7-3.92-4.03-6.14-5.17-.44-.24-.71-1.94-.23-1.7zM212.11 116.12c1.96 1.33 3.12 4.08 5.02 5.55.4.3.61 2 .04 1.56-1.9-1.45-3.07-4.21-5.02-5.55-.39-.27-.62-1.96-.04-1.56zM215.05 114.96c2.44.65 4.05 3.56 6.05 5.49.37.36.57 2.06.04 1.56-1.93-1.86-3.5-4.73-5.86-5.36-.44-.12-.75-1.83-.23-1.69zM218.97 113.52c2.21 1.16 4.26 3.38 6 5.64.34.44.42 2.07-.15 1.32-1.61-2.1-3.55-4.21-5.61-5.28-.46-.23-.72-1.93-.24-1.68zM222.7 112.37c.72 1.17 1.87 1.69 2.8 2.45 1.02.83 1.93 1.78 2.67 3.06.33.58.21 1.97-.34 1-.68-1.2-1.73-2.1-2.7-2.84-.9-.68-1.88-1.23-2.58-2.35-.29-.47-.35-2.12.15-1.32zM226.09 111.38c1.51 1.77 3.15 3.3 4.65 5.07.25.3.4.72.41 1.14.01.23-.12.71-.36.42-1.51-1.77-3.15-3.3-4.65-5.07-.25-.29-.39-.72-.41-1.14 0-.23.12-.72.36-.42zM229.69 109.78c.61 1.18 1.56 1.8 2.33 2.75.75.93 1.33 2.05 2.17 2.83.37.35.57 2.05.04 1.55-.97-.9-1.62-2.21-2.52-3.22-.85-.95-1.72-1.65-2.37-2.91-.3-.58-.17-2 .35-1zM233.01 108.4c1.78 1.57 3.27 3.69 4.73 5.76.32.45.4 2.1-.15 1.32-1.42-1.99-2.83-4.01-4.54-5.52-.38-.35-.59-2.04-.04-1.56zM235.96 107.32c1.71 1.6 3.07 3.82 4.81 5.37.38.34.58 2.03.04 1.56-1.75-1.55-3.09-3.77-4.81-5.37-.37-.36-.57-2.05-.04-1.56zM238.44 106.25c1.82 1.36 3.27 3.5 4.99 5.1.37.35.57 2.05.04 1.56-1.71-1.6-3.16-3.74-4.99-5.1-.4-.3-.62-1.99-.04-1.56zM240.88 104.73c1.75 1.67 3.42 3.47 5.31 4.79.4.28.63 1.96.04 1.56-1.89-1.32-3.57-3.12-5.31-4.79-.37-.36-.57-2.06-.04-1.56zM243.43 103.64c1.9 1.56 3.69 3.44 5.7 4.72.44.27.68 1.97.24 1.69-2.08-1.32-3.92-3.23-5.89-4.85-.4-.33-.6-2.02-.05-1.56zM246.13 102.17c1.85 1.88 3.93 3.13 5.92 4.64.4.3.62 1.99.04 1.56-1.99-1.51-4.07-2.76-5.92-4.64-.36-.38-.55-2.08-.04-1.56zM248.93 100.81c2.1 1.02 3.88 3.1 5.96 4.17.45.23.72 1.93.24 1.69-2.08-1.06-3.87-3.15-5.96-4.17-.45-.22-.72-1.93-.24-1.69zM251.65 98.77c2.25 1.23 4.45 2.64 6.52 4.47.38.34.59 2.04.04 1.56-2.01-1.77-4.14-3.14-6.33-4.33-.44-.26-.7-1.96-.23-1.7zM254.59 96.34c2.21.27 4.05 2.71 6.23 3.31.45.12.76 1.83.24 1.69-2.18-.6-4.02-3.04-6.23-3.31-.42-.06-.78-1.76-.24-1.69zM256.09 93.33c.77.55 1.46 1.27 2.2 1.88.96.78 2.1 1.25 3.11 1.91.43.28.67 1.97.24 1.69-.97-.64-1.97-1.15-2.94-1.78-.9-.59-1.68-1.51-2.56-2.14-.4-.3-.63-1.98-.05-1.56zM257.53 90.7c1.77 1.46 3.7 2.28 5.58 3.27.44.24.71 1.94.24 1.69-1.95-1.04-3.94-1.89-5.77-3.4-.39-.33-.6-2.03-.05-1.56zM258.2 86.93c1.64 1.02 3.37 1.42 5.03 2.37.45.25.7 1.95.24 1.69-1.65-.94-3.39-1.35-5.03-2.37-.45-.27-.69-1.96-.24-1.69zM258.77 82.45c1.49 1.63 3.37 2.01 5.07 2.83.45.22.72 1.92.24 1.69-1.77-.85-3.71-1.27-5.26-2.97-.35-.38-.52-2.08-.05-1.55zM259.08 78.06c.99 1.72 2.85 1.74 4.18 2.39.45.22.72 1.92.24 1.69-1.72-.84-3.5-.87-4.76-3.08-.32-.58-.2-1.97.34-1zM258.82 72.39c1.01 1.31 2.55 2.2 3.82 2.07.47-.05.87 1.66.43 1.7-1.51.16-3.22-.91-4.41-2.45-.33-.44-.42-2.08.16-1.32zM258.24 68.45c1.09 1.45 2.94 1.91 4.28 1.95.49.02.86 1.72.43 1.7-1.6-.05-3.57-.61-4.86-2.34-.33-.44-.42-2.07.15-1.31zM257.56 63.26c.57 1.33 2.65 1.55 3.5 1.28.43-.13.88 1.57.43 1.71-1.23.38-3.47-.16-4.26-1.99-.15-.36-.29-.84-.17-1.2.11-.33.4-.07.5.2zM256.16 57.18c1 .43 2.03.89 3.04.91.49.01.86 1.71.43 1.7-1.08-.02-2.16-.47-3.23-.92-.45-.19-.73-1.9-.24-1.69zM254.76 51.65c.6.96 1.81.96 2.54.8.45-.1.87 1.61.43 1.7-.97.22-2.34.05-3.12-1.19-.21-.33-.35-.81-.3-1.21.04-.32.27-.41.45-.1zM252.48 44.58c.37.77 1.54.69 2.01.52.42-.16.87 1.54.43 1.7-.87.33-2.18.03-2.78-1.23-.17-.35-.29-.85-.18-1.2.12-.33.4-.05.52.21zM250.2 39.18c.75.38 1.51.71 2.28.76.5.02.85 1.73.43 1.7-.84-.04-1.64-.36-2.46-.78-.45-.22-.72-1.92-.25-1.68zM247.43 32.96c.75.26 1.49.22 2.24.57.44.21.73 1.92.24 1.69-.74-.36-1.5-.31-2.24-.57-.45-.16-.75-1.88-.24-1.69zM244.56 27.31c.48.37 1.01.16 1.43-.02.4-.18.87 1.51.43 1.71-.57.27-1.19.37-1.82-.12-.39-.31-.6-2-.04-1.57zM241.76 22.9l.91-.23c.61-.15 1.03 1.55.43 1.7l-.91.23c-.62.16-1.04-1.55-.43-1.7z" style="clip-path:url(#SVGID_00000181802100151115227840000013667439603942344594_);fill:#20380e"/><path d="M257.11 52.05c-4.06-10.67-8.41-21.34-15.23-29.67-3.8-4.64-8.13-8.18-12.86-10.04-5-1.97-10.11-1.74-14.82-.58-4.79 1.17-9.41 3.22-14.07 4.86-4.74 1.66-9.46 3.38-14.11 5.31-7.56 3.14-15.62 4.57-23.12 7.89-6.36 2.81-13.06 7.09-15.87 15.53-2.03 6.11-2.48 13.39-2.36 20.44.27 15.62 3.71 32.96 10.81 47.06 2.6 5.15 5.87 9.84 9.81 13.13 5.78 4.82 12.56 5.68 18.63 5.37.16-.01.34.19.43.37 3.83 7.58 9.62 15.43 15.57 19.29-.16.3-.33.59-.49.89-3.24-7.03-3.55-15.87-2.18-22.76.14-.69 1.05-.63 1.47-.76 1.15-.35 2.29-.73 3.43-1.1 2.36-.8 4.69-1.65 7.02-2.51 4.19-1.55 8.42-2.95 12.65-4.38 8.66-2.91 17.23-6.17 25.48-10.33 3.5-1.77 7.14-3.56 10.36-5.99 2.25-1.7 3.73-4.61 4.65-7.86 1.97-6.99 1.27-15.72.05-23.51-1.07-6.93-2.76-14.04-5.23-20.6-.3-.78.49-1.35.79-.56 2.47 6.55 4.13 13.54 5.27 20.44 1.25 7.66 1.86 15.72.49 22.86-.6 3.12-1.69 5.95-3.31 8.17-2.11 2.91-5.29 4.29-8.08 5.86-7.59 4.28-15.56 7.58-23.61 10.52-8.69 3.17-17.46 6.19-26.21 9.17-1.13.38-2.28.75-3.43 1.1-1.32.41-1.26 2.12-1.43 3.75-.34 3.1-.19 6.41.31 9.65.42 2.75 1.15 5.76 2.31 8.27.22.47-.06 1.17-.49.89-4.05-2.62-7.8-6.88-10.96-11.25-1.4-1.93-2.68-4.01-3.87-6.15-.35-.62-.68-1.26-1.01-1.89-.27-.51-1.31-.23-1.62-.22-1.31.03-2.63-.04-3.95-.17-3.63-.35-7.37-1.52-10.88-3.65-10.28-6.24-16.47-21.78-19.86-35.06-3.74-14.63-5.38-31.24-2.52-44.99.57-2.76 1.39-5.38 2.52-7.71 1.66-3.43 4.33-5.81 6.94-7.86 6.78-5.3 14.96-7.38 22.79-9.73 7.63-2.28 14.98-5.54 22.51-8.18 8.02-2.82 16-6.8 24.88-5.44 7.77 1.19 14.81 7.15 20.5 15.16 5.48 7.73 9.2 17.2 12.71 26.43.3.78-.49 1.35-.79.56l-.02-.02z" style="clip-path:url(#SVGID_00000181802100151115227840000013667439603942344594_);fill:#20380e"/><path d="M233.23 13.33c6.81 6.23 11.87 14.09 15.9 23.6 3.08 7.27 5.67 14.62 7.41 22.42 2.95 13.22 5.36 33.07-3.96 40.13-3.27 2.48-6.99 4.24-10.55 6.02-3.78 1.91-7.63 3.59-11.53 5.18-8.51 3.45-17.27 6.05-25.87 9.22-6.43 2.38-12.84 4.54-19.54 5.88-6.83 1.36-14.51 2.09-21.7-.57-.39-.15-.78-.33-1.17-.52-.61-.3-.43-1.52.18-1.22 3.92 1.89 8.08 2.03 11.98 2.06 3.68.03 7.24-.41 10.79-1.12 6.74-1.35 13.18-3.6 19.64-5.98 8.59-3.17 17.35-5.79 25.86-9.23 4.12-1.67 8.17-3.51 12.16-5.56 3.35-1.72 6.98-3.39 9.97-5.96 4.11-3.54 5.26-10.82 5.32-17.48.06-7.24-1.12-14.76-2.79-21.99-1.67-7.21-4.16-13.98-6.98-20.73-3.9-9.31-8.89-17.02-15.52-23.09-.56-.49-.14-1.56.4-1.06z" style="clip-path:url(#SVGID_00000181802100151115227840000013667439603942344594_);fill:#20380e"/><path d="M384.22 131c47.62 15.39 64.87 31.71 67.87 38.87-.09 7.21-4.36 23.93-20.76 33.14-20.5 11.52-35.94 11.46-51.52 8.83s-37.53-19.34-62.89-32.09c-25.36-12.76-25.88-6.78-52.82-19.75-28.32-13.64-12.38-40.53 3.8-52.68s53.43-1.72 56.23-.5c11.82 2.82 44.58 17.26 60.09 24.18z" style="clip-path:url(#SVGID_00000181802100151115227840000013667439603942344594_);fill:#4a9db1"/><path d="M383.49 141.14h-1.27v.01l1.27-.01zm2.02-.87a2.507 2.507 0 0 0-3.12.44l.92.87c.4-.43 1.04-.52 1.54-.22l.66-1.09zm21.99 13.14-21.99-13.14-.65 1.09 21.99 13.14.65-1.09zm.57 3.83c1.06-1.17.78-3.02-.58-3.83l-.65 1.09c.67.4.81 1.32.29 1.9l.94.84zm-9.05 10.03 9.06-10.03-.94-.85-9.06 10.03.94.85zm-3.14.47c1.03.6 2.33.4 3.13-.48l-.94-.85c-.39.44-1.04.53-1.55.24l-.64 1.09zm-13.3-7.86 13.3 7.86.64-1.09-13.3-7.86-.64 1.09zm-.39-.11c.14 0 .27.03.39.1l.65-1.08c-.32-.19-.69-.29-1.07-.29l.03 1.27zm-11.74 2.27 11.85-2.28-.24-1.24-11.85 2.28.24 1.24zm6.38-7.29-6.92 6.2.84.94 6.92-6.2-.84-.94zm-2.59-.73 2.67 1.73.69-1.06-2.67-1.73-.69 1.06zm-.61-3.9c-1.13 1.21-.8 3.15.65 3.93l.6-1.12c-.72-.39-.88-1.35-.33-1.94l-.92-.87zm8.76-9.42-8.76 9.42.93.86 8.76-9.42-.93-.86zm.46.44h-.63l.01 1.59 1.08-1.16-.46-.43zm2.33-.33-.33.54.33-.54zm21.99 13.14-.32.54.32-.54zm.43 2.86-.47-.42.47.42zm-9.05 10.03.47.43-.47-.43zm-2.35.36-.32.54.32-.54zm-13.3-7.87-.33.54.33-.54zm-.73-.19-.01-.63h-.05l-.05.01.11.62zm-11.84 2.28-.42-.47-1.7 1.53 2.25-.43-.13-.63zm6.92-6.2.42.47.62-.55-.69-.45-.35.53zm-2.67-1.73.34-.53-.02-.01-.02-.01-.3.55zm-.49-2.93.46.43-.46-.43zm8.76-9.42h.63l-.01-1.6-1.09 1.17.47.43zM394.8 159.32c-.19-.2-.22-.69.27-.92.26-.13.74-.21 1.51-.01.77.2 1.8.66 3.12 1.55l.71-1.05c-1.39-.95-2.56-1.49-3.52-1.74-.96-.24-1.76-.2-2.37.1-1.26.61-1.43 2.13-.62 2.95l.9-.88zm1.34-.81c-.27.3-.65.55-.99.69a1 1 0 0 1-.37.09c-.07 0-.04-.02.02.03l-.9.89c.26.27.6.34.89.34.28 0 .57-.07.83-.18.52-.2 1.06-.57 1.46-1.01l-.94-.85zm-.18-3.81c.92.99 1.04 1.79.95 2.36-.1.62-.47 1.12-.78 1.45l.93.86c.36-.4.93-1.12 1.09-2.1.17-1.02-.13-2.2-1.27-3.42l-.92.85zm-7.5 1.72c.04-.38.33-.83.92-1.26.58-.43 1.37-.79 2.24-1.01.87-.22 1.77-.31 2.56-.21.8.1 1.41.36 1.79.77l.93-.86c-.65-.7-1.6-1.05-2.56-1.16-.97-.12-2.04-.01-3.03.24-.99.26-1.94.68-2.68 1.22-.72.54-1.33 1.26-1.42 2.14l1.25.13zm2.21.62c-.46.49-1.12.67-1.59.56a.755.755 0 0 1-.48-.31c-.1-.16-.19-.43-.14-.87l-1.26-.14c-.07.66.04 1.25.34 1.71.31.46.76.73 1.25.85.95.22 2.06-.15 2.79-.92l-.91-.88zm-2.58-6.89c1.7.5 2.56 1.95 2.88 3.52.16.78.17 1.56.08 2.19-.04.32-.11.59-.18.8-.08.22-.16.34-.2.38l.92.87c.21-.22.36-.52.47-.83.11-.31.2-.67.25-1.06.1-.77.09-1.69-.1-2.61-.37-1.83-1.44-3.8-3.76-4.49l-.36 1.23zm-4.38 2.58c-.31-.05-.47-.14-.54-.21-.06-.05-.08-.1-.08-.18-.01-.21.14-.61.62-1.08.92-.9 2.64-1.62 4.38-1.1l.36-1.21c-2.27-.67-4.44.25-5.62 1.41-.58.56-1.03 1.3-1 2.04.02.4.18.77.49 1.06.3.28.71.44 1.18.52l.21-1.25zm.6-3.99c.28.77.28 1.9.05 2.82-.11.46-.27.8-.43 1-.08.1-.14.14-.17.16-.02.01-.04.01-.05.01l-.22 1.25c.64.11 1.13-.24 1.44-.64.31-.39.52-.93.66-1.47.27-1.09.3-2.49-.09-3.56l-1.19.43zm-1-1.81.16.61h-.04c-.01 0 0 0 0 0 .02 0 .06.01.13.04.13.07.45.31.75 1.14l1.19-.43c-.37-1.01-.85-1.56-1.35-1.83-.25-.13-.47-.18-.65-.19-.09 0-.17 0-.22.01-.03 0-.06.01-.08.01-.01 0-.02 0-.03.01h-.02c0 .02 0 .02.16.63zm11.04 12.83.45-.44-.45.44zm2.08-5.49.46-.43-.46.43zm-8.6 2.08.63.07-.63-.07zm3.3 1.13-.46-.44.46.44zm-7.53-4.13.11-.62-.11.62zM352.61 168.88c-.67 1.55-2.38 2.32-3.89 1.76-9.04-3.37-17.7-7.39-26.08-11.27-4.95-2.29-10.06-4.67-15.13-6.84-1.52-.65-2.2-2.48-1.52-4.08 2.27-5.36 4.29-10.17 6.23-14.83 1.69-4.03 3.28-7.84 4.96-11.81.34-.79.95-1.41 1.73-1.74.75-.31 1.56-.31 2.29 0 .03.01.05.02.07.03 6.48 2.98 14.22 6.4 21.71 9.71 6.5 2.87 13.22 5.85 18.9 8.44 1.49.68 2.14 2.45 1.48 4.04-1.48 3.59-2.94 7.28-4.35 10.84-2.03 5.17-4.14 10.52-6.4 15.75zm-22.48-1.68c-2.6-1.09-5.17-2.08-7.72-3 .45-.85.86-1.73 1.22-2.62 2.46 1.14 4.94 2.28 7.44 3.41l-.94 2.21zm6.15 4.43-.27.68c-6.51-2.18-13.28-5.06-19.87-7.86.05-.22.12-.43.18-.64 6.51 2.05 13.05 4.62 19.96 7.82zm28.49-28.77c.98-2.38.01-5.04-2.22-6.05-5.69-2.59-12.42-5.57-18.92-8.45-7.48-3.31-15.22-6.73-21.69-9.71-1.12-.52-2.38-.53-3.55-.05a4.816 4.816 0 0 0-2.59 2.6c-1.68 3.98-3.28 7.79-4.96 11.82-1.95 4.65-3.96 9.46-6.23 14.82-1.02 2.4.01 5.15 2.29 6.13 5.05 2.17 10.15 4.53 15.09 6.83.09.04.19.09.29.13-.35.87-.74 1.72-1.18 2.55-.04.07-.06.14-.08.22-1.64-.57-3.28-1.12-4.92-1.62-.39-.12-.82.11-.96.51-.23.68-.48 1.38-.62 2.23-.06.36.13.7.44.84 7.01 2.99 14.26 6.08 21.22 8.37.38.12.8-.08.95-.47l.83-2.07a.777.777 0 0 0-.37-1c-2.05-.96-4.07-1.86-6.07-2.71l.93-2.18c1.88.84 3.77 1.68 5.69 2.49 3.29 1.4 6.62 2.76 10.02 4.02 2.27.85 4.83-.32 5.83-2.64 2.27-5.25 4.39-10.61 6.44-15.8 1.41-3.55 2.86-7.22 4.34-10.81z" style="clip-path:url(#SVGID_00000181802100151115227840000013667439603942344594_);fill:#fff"/><path d="M347.38 166.59c-7.88-2.99-15.44-6.51-22.75-9.91-4.32-2.01-8.78-4.09-13.2-6-1.28-.55-1.89-2.02-1.36-3.27 1.86-4.42 3.5-8.38 5.09-12.22 1.38-3.33 2.68-6.47 4.05-9.74.25-.59.71-1.04 1.3-1.29a2.59 2.59 0 0 1 1.99.02c.02.01.05.02.07.03 5.66 2.61 12.41 5.62 18.95 8.53 5.67 2.53 11.54 5.14 16.5 7.41 1.25.57 1.84 1.99 1.33 3.24-1.21 2.96-2.4 6.01-3.54 8.95-1.66 4.27-3.38 8.68-5.23 12.98-.53 1.18-1.93 1.75-3.2 1.27zm13.35-22.65c.83-2.03-.08-4.33-2.07-5.24-4.97-2.27-10.84-4.89-16.51-7.41-6.53-2.91-13.28-5.92-18.93-8.52-1.02-.47-2.2-.49-3.24-.06a4.01 4.01 0 0 0-2.16 2.16c-1.38 3.28-2.68 6.42-4.06 9.75-1.59 3.83-3.23 7.8-5.09 12.21-.86 2.05.09 4.43 2.13 5.31 4.4 1.91 8.86 3.98 13.17 5.99 4.85 2.25 9.8 4.56 14.89 6.73 2.62 1.12 5.27 2.2 7.96 3.22 2.02.77 4.28-.19 5.13-2.18 1.86-4.33 3.58-8.75 5.25-13.03 1.14-2.94 2.32-5.98 3.53-8.93z" style="clip-path:url(#SVGID_00000181802100151115227840000013667439603942344594_);fill:#fff"/><path d="M318.92 136.86c6.44.11 12.97-.07 19.4-.51.05 0 .1-.01.15-.03.19-.08.33-.27.31-.49a.491.491 0 0 0-.52-.46c-6.4.44-12.9.61-19.31.51-.27 0-.5.21-.5.48-.02.27.2.49.47.5zM318.7 146.74c11.45-.4 23.04-1.18 34.43-2.32.07-.01.13-.02.19-.03.32-.09.54-.3.5-.53-.04-.27-.42-.45-.85-.41a536.912 536.912 0 0 1-34.28 2.31c-.43.01-.77.25-.77.52.01.27.36.48.78.46zM331.89 156.22l20.05-2.1c.05-.01.09-.02.13-.03a.493.493 0 0 0-.23-.95l-20.05 2.1c-.27.03-.47.27-.44.54.02.27.27.47.54.44z" style="clip-path:url(#SVGID_00000181802100151115227840000013667439603942344594_);fill:#fff"/><path d="M452.1 175.86c-1.04-8.37-7.31-14.69-13.77-19.52-7.89-5.91-16.98-10.16-26.02-13.99-8.29-3.51-16.78-6.51-25.19-9.7-10.42-3.95-20.45-8.91-30.65-13.36-13.23-5.78-26.74-11.09-40.84-14.31-12.14-2.77-25.74-4.36-37.92-.98-20.77 5.75-36.05 32.98-25.1 52.82.5.9 3.01 3.63 2.77 4.59-.55 2.21-.97 4.45-1.25 6.71-.84 6.67-.18 13.47 2.08 19.81-.43-.07-.85-.13-1.28-.2 2.12-2.12 4.43-4.06 6.77-5.93 2.33-1.86 4.76-3.58 7.25-5.21 1.4-.92 2.85-1.77 4.31-2.59 1.19-.68 2.86-1.96 4.2-2.12 1.05-.12 2.63.69 3.61.98 1.56.44 3.12.92 4.7 1.3 6.58 1.61 12.94 4.01 19.14 6.72 13.46 5.9 26.07 13.58 38.84 20.82 6.38 3.62 12.82 7.14 19.42 10.35 5.73 2.78 11.71 5.58 17.86 7.3 14.72 4.11 31.87.19 45.31-6.3 14.49-7 27.24-20.03 25.76-37.19-.08-.96 1.4-1.13 1.49-.17 1.77 20.61-15.5 34.76-33.03 41.5-9.15 3.51-19.05 5.36-28.85 5.14-10.99-.25-20.98-4.9-30.69-9.67-21.53-10.57-41.28-24.7-63.76-33.31-4.38-1.68-8.87-2.87-13.36-4.15-1.46-.42-2.92-.83-4.39-1.25l-1.7-.48c-.78-.22-2.99 1.39-3.65 1.75-6.51 3.57-12.79 8.19-18.05 13.45-.38.37-1.08.38-1.28-.2-2.05-5.79-2.77-11.81-2.41-17.93.15-2.47.52-4.93 1.02-7.35.27-1.29.44-1.66-.33-2.77-.72-1.03-1.36-2.11-1.96-3.2-4.79-8.68-4.6-18.46-1.25-27.6 3.65-9.99 10.71-19.11 20.15-24.18 9.64-5.19 21.23-5.23 31.85-4.23 27.8 2.59 53.36 16.05 78.52 27.1 16.32 7.17 33.52 11.95 49.18 20.67 10.23 5.69 22.43 14.08 24 26.7.11.96-1.37 1.13-1.5.18z" style="clip-path:url(#SVGID_00000181802100151115227840000013667439603942344594_);fill:#20380e"/><path d="M248.8 142c-.73 1.24 1.72 5.03 2.37 6.12 2.02 3.38 3.86 5.59 6.98 7.93 5.21 3.9 11.37 6.41 17.73 7.67 3.07.61 6.02 1.7 9.06 2.44 28.08 6.87 51.75 25.43 77.39 37.89 8.89 4.32 17.96 8.28 27.93 8.89 9.39.57 18.98-1.11 27.85-4.13 17.11-5.84 34.06-19.25 32.35-39.12-.08-.96 1.4-1.13 1.49-.17 1.8 20.91-15.91 34.76-33.89 40.89-9.3 3.17-19.32 4.63-29.13 3.94-11.32-.8-21.92-6.18-31.87-11.25-13.17-6.72-25.74-14.56-38.77-21.54-6.35-3.4-12.83-6.58-19.52-9.28-5.38-2.18-10.89-3.7-16.46-5.28-4.26-1.21-8.66-2.04-12.86-3.41-4.95-1.61-9.63-4.22-13.68-7.49-2.77-2.24-4.64-5.07-6.42-8.16-.93-1.61-2.5-4.19-2.01-6.2.03-.1.05-.24.11-.33.46-.84 1.85-.25 1.35.59zM254.18 168.69c.56 5.21 2.09 10.3 4.91 14.75.38.6-.63 2.27-1.03 1.65-2.94-4.66-4.55-9.96-5.13-15.41-.07-.66 1.13-2.13 1.25-.99z" style="clip-path:url(#SVGID_00000181802100151115227840000013667439603942344594_);fill:#20380e"/><path d="M254.5 166.84c2.34 4.97 4.15 10.76 8.42 14.46.51.44-.4 2.19-1.03 1.65-4.34-3.76-6.2-9.71-8.57-14.75-.28-.59.77-2.22 1.18-1.36zM255.01 162.05c1.91 2.85 3.64 5.82 5.44 8.73 1.78 2.89 4.28 5.15 6.71 7.47.5.47-.43 2.22-1.03 1.65-2.44-2.33-4.89-4.6-6.71-7.47-1.84-2.89-3.52-5.88-5.44-8.73-.4-.58.61-2.26 1.03-1.65z" style="clip-path:url(#SVGID_00000181802100151115227840000013667439603942344594_);fill:#20380e"/><path d="M253.29 151.82c-.39 3.41.59 7.29 2.24 10.28.34.62-.69 2.27-1.03 1.65-1.84-3.33-2.89-7.57-2.45-11.37.09-.76 1.39-1.86 1.24-.56zM256.47 155.75c-.41 3.72 3.07 7.19 5.27 9.82 2.95 3.51 5.63 7.2 9.18 10.16.51.43-.39 2.19-1.03 1.65-3.99-3.33-7.05-7.58-10.35-11.56-2.2-2.65-4.71-5.85-4.31-9.51.09-.75 1.39-1.85 1.24-.56zM261.59 158.51c1.61 3.36 4.46 5.21 7 7.76 2.18 2.2 3.51 5.34 6.24 6.95.66.39-.2 2.18-.8 1.83-2.79-1.65-4.36-4.78-6.47-7.13-2.51-2.79-5.46-4.53-7.15-8.05-.28-.59.77-2.23 1.18-1.36zM270.89 162.57c1.27 3.7 3.65 7.11 6.86 9.39.63.45-.25 2.21-.8 1.83-3.39-2.4-5.9-5.93-7.24-9.85-.21-.63.88-2.25 1.18-1.37zM278.31 164.54c.02 1.66 1.14 3.27 1.99 4.62.85 1.34 1.81 2.61 2.75 3.89.42.57-.58 2.27-1.03 1.65-1.85-2.53-4.93-5.84-4.96-9.17 0-.65 1.25-2.11 1.25-.99zM283.06 165.97c1.74 3.04 3.66 5.94 6.1 8.47.48.5-.47 2.24-1.03 1.65-2.44-2.53-4.36-5.43-6.1-8.47-.35-.61.68-2.27 1.03-1.65zM288.56 167.4c.67 3.46 2.97 6.3 5.23 8.89.46.53-.51 2.25-1.03 1.65-2.32-2.66-4.7-5.62-5.38-9.18-.11-.63 1.02-2.22 1.18-1.36zM293.3 168.77c3.01 2.17 3.79 6.26 5.51 9.35.34.62-.68 2.27-1.03 1.65-1.64-2.94-2.42-7.11-5.28-9.17-.62-.45.27-2.22.8-1.83zM299.55 171c.96 1.19 1.28 2.7 1.82 4.1.68 1.79 2.03 3.23 2.67 5.04.22.63-.87 2.25-1.18 1.36-.54-1.53-1.58-2.83-2.31-4.28-.75-1.5-.96-3.26-2.03-4.59-.44-.53.54-2.24 1.03-1.63zM305.5 173.34c.17 1.59 1.4 2.64 2.19 3.95.81 1.33 1 3.03 1.64 4.46.27.6-.79 2.24-1.18 1.36-.76-1.7-1-3.59-2.12-5.11-.87-1.18-1.62-2.17-1.78-3.66-.06-.67 1.13-2.14 1.25-1zM311.54 176.71c1.22 2.51 2.06 5.19 2.71 7.9.15.64-.97 2.24-1.18 1.36-.65-2.71-1.49-5.39-2.71-7.9-.29-.59.76-2.23 1.18-1.36zM316.89 179.42c1.17 2.93 2.6 5.68 3.16 8.81.12.67-1.05 2.13-1.25.99-.53-2.99-1.98-5.64-3.09-8.44-.25-.61.83-2.24 1.18-1.36zM322.51 181.69c.64 2.87 1.12 5.78 1.11 8.73 0 .65-1.26 2.11-1.25.99.01-2.83-.42-5.61-1.04-8.36-.14-.62.98-2.22 1.18-1.36zM327.15 184.99c.67 2.74.96 5.56 1.84 8.25.2.63-.89 2.25-1.18 1.36-.88-2.68-1.17-5.5-1.84-8.25-.15-.63.97-2.23 1.18-1.36zM331.13 187.1c1.12 2.44.4 5.4 1.74 7.73.36.62-.67 2.27-1.03 1.65-1.42-2.47-.72-5.47-1.9-8.02-.26-.59.79-2.23 1.19-1.36zM335.06 189.43c.72 1.15 1.1 2.37 1.31 3.7.2 1.28-.41 3.37.41 4.4.44.56-.55 2.26-1.03 1.65-.71-.91-.65-1.93-.54-3.03.17-1.72-.27-3.62-1.18-5.08-.38-.59.64-2.26 1.03-1.64zM339.72 191.75c.67 1.57 1.31 3.15 2.03 4.7.69 1.48.73 3.17.94 4.76.09.67-1.1 2.13-1.25.99-.2-1.49-.27-2.99-.87-4.38-.68-1.57-1.36-3.13-2.03-4.7-.27-.61.8-2.24 1.18-1.37zM345.13 195.42c-.1 1.31.41 2.62.65 3.89.23 1.19.11 2.4.51 3.57.21.63-.89 2.25-1.18 1.36-.47-1.42-.35-2.92-.67-4.37-.29-1.3-.65-2.56-.55-3.9.06-.77 1.33-1.86 1.24-.55zM348.38 197.27c.87 1.66 1.32 3.44 2.02 5.16.55 1.36 1.2 2.67 1 4.18-.1.75-1.41 1.85-1.24.56.19-1.43-.78-2.84-1.23-4.15-.52-1.49-1-2.98-1.73-4.38-.31-.59.72-2.23 1.18-1.37zM354.1 200.43c-.15 1.16.45 2.3.87 3.35.49 1.21.74 2.55 1.05 3.82.16.64-.96 2.24-1.18 1.36-.37-1.5-.72-3.01-1.31-4.45-.46-1.14-.84-2.28-.68-3.52.05-.43.29-.98.72-1.18.43-.18.57.31.53.62zM358.14 202.53c.95 2.79 1.71 5.72 3.73 7.96.47.52-.49 2.25-1.03 1.65-2.09-2.32-2.89-5.36-3.88-8.25-.21-.62.89-2.24 1.18-1.36zM363.48 204.5c.02 3.31 2.51 5.92 2.89 9.16.08.67-1.12 2.13-1.25.99-.39-3.25-2.87-5.8-2.89-9.16 0-.65 1.24-2.11 1.25-.99zM368.92 207.16c.77 2.98 2.44 5.67 2.52 8.81.02.66-1.22 2.12-1.25.99-.08-3-1.72-5.59-2.46-8.44-.16-.63.95-2.24 1.19-1.36zM373.36 209.46c.67 1.62 1.59 3.12 2.37 4.7.68 1.39 1.64 2.77 1.88 4.32.11.67-1.07 2.13-1.25.99-.21-1.33-1.25-2.71-1.81-3.95-.73-1.6-1.69-3.07-2.37-4.7-.26-.61.81-2.24 1.18-1.36zM378.19 210.85c1.06 3.26 3.94 5.5 4.96 8.79.19.63-.91 2.24-1.18 1.36-1.01-3.28-3.89-5.53-4.96-8.79-.2-.63.9-2.24 1.18-1.36zM383.69 211.87c.81 1.4 1.49 2.87 2.13 4.35.55 1.26 1.4 2.52 1.67 3.87.09.47-.06.97-.37 1.33-.18.21-.71.51-.81.04-.25-1.22-1-2.31-1.49-3.44-.66-1.53-1.33-3.04-2.17-4.49-.34-.62.69-2.27 1.04-1.66zM387.45 212.48c1.64.86 2.59 2.34 3.66 3.8.59.8 1.4 1.38 2.07 2.1.59.62.89 1.55 1.38 2.24.41.58-.58 2.27-1.03 1.65-.42-.58-.71-1.18-1.06-1.8-.47-.83-1.37-1.43-2.04-2.1-1.38-1.37-1.97-3.11-3.79-4.07-.66-.35.17-2.16.81-1.82zM394.84 212.94c2.32 1.85 4.06 4.63 5.06 7.41.22.62-.86 2.25-1.18 1.36-.97-2.68-2.68-5.33-4.92-7.12-.51-.42.38-2.18 1.04-1.65zM400.84 212.92c1.46 2.23 2.69 4.59 4.08 6.86.37.61-.65 2.28-1.03 1.65-1.39-2.27-2.62-4.64-4.08-6.86-.39-.59.62-2.27 1.03-1.65zM405.61 212.34c-.05 1 1.06 1.98 1.52 2.79.69 1.24 1.26 2.52 1.83 3.82.27.61-.79 2.24-1.18 1.36-.64-1.46-1.24-2.94-2.14-4.26-.7-1.02-1.33-1.87-1.27-3.15.04-.78 1.31-1.87 1.24-.56zM409.78 210.94c.67 1.04 1.5 1.96 2.28 2.93.91 1.14 1.5 2.51 2.24 3.77.36.61-.66 2.27-1.03 1.65-.67-1.13-1.23-2.32-1.97-3.4-.78-1.15-1.79-2.12-2.55-3.29-.38-.61.63-2.28 1.03-1.66zM415.61 209.96c.55 2.27 2.58 3.91 3.73 5.88.36.61-.67 2.27-1.03 1.65-1.21-2.07-3.3-3.77-3.89-6.16-.11-.46.07-.97.37-1.33.2-.22.7-.5.82-.04zM420.16 208.68c.85 2.22 3.27 3.29 4.23 5.48.27.61-.79 2.24-1.18 1.36-.95-2.18-3.36-3.22-4.23-5.48-.24-.61.84-2.24 1.18-1.36zM425.76 205.95c1.27 1.9 2.74 3.65 4.15 5.45.44.56-.55 2.26-1.03 1.65-1.41-1.8-2.88-3.54-4.15-5.45-.39-.59.62-2.28 1.03-1.65zM430.09 204.23c.88 1.87 2.79 2.98 3.68 4.88.28.6-.78 2.24-1.18 1.36-.88-1.88-2.79-2.99-3.68-4.88-.28-.6.77-2.23 1.18-1.36zM433.74 201.81c1 1.6 2.54 2.76 3.54 4.36.37.6-.64 2.27-1.03 1.65-1-1.6-2.54-2.76-3.54-4.36-.37-.6.64-2.27 1.03-1.65zM438.31 198.82c.84 1.53 2.21 2.64 3.23 4.04.41.57-.58 2.27-1.03 1.65-1.02-1.4-2.39-2.51-3.23-4.04-.34-.62.69-2.27 1.03-1.65zM441.94 194.87c1.13 1.33 2.06 2.81 3.05 4.24.4.58-.6 2.27-1.03 1.65-.99-1.43-1.91-2.91-3.05-4.24-.45-.53.52-2.25 1.03-1.65zM445.65 190.91c-.14 1.47 1.34 3.02 2.25 4.02.47.52-.49 2.24-1.03 1.65-1.26-1.38-2.66-3.13-2.46-5.12.04-.43.31-.99.72-1.18.43-.18.56.31.52.63zM448.76 186.51c.07 1.23.82 2.3 1.85 2.94.65.4-.21 2.19-.8 1.83-1.33-.83-2.21-2.19-2.3-3.78-.02-.47.2-1 .57-1.29.31-.25.65-.12.68.3zM450.75 181.94c.13.9.95 1.44 1.61 1.97.52.42-.37 2.17-1.03 1.65-.92-.73-1.65-1.4-1.83-2.62-.07-.45.22-1.02.57-1.29.34-.28.62-.1.68.29z" style="clip-path:url(#SVGID_00000181802100151115227840000013667439603942344594_);fill:#20380e"/></svg>