<svg xmlns="http://www.w3.org/2000/svg" xmlns:xlink="http://www.w3.org/1999/xlink" viewBox="0 0 460 460" xmlns:v="https://vecta.io/nano"><style><![CDATA[.B{clip-path:url(#B)}.C{fill:#20380e}.D{clip-path:url(#AF)}.E{fill:#fff}.F{clip-path:url(#D)}.G{fill:#94b73d}.H{fill:#386118}]]></style><defs><path id="A" d="M0 0h460v460H0z"/></defs><clipPath id="B"><use xlink:href="#A"/></clipPath><path d="M0 0h460v460H0z" class="B E"/><g opacity=".2" class="B"><defs><path id="C" d="M0 0h460v460H0z"/></defs><clipPath id="D"><use xlink:href="#C"/></clipPath><g class="C"><path d="M45.4 160.5c-.1-.6-.6-1.2-1.2-1.4-.3-.1-1 0-1.3.3-.3.2-.6.4-.7.6-.7 1.2.4 2 .5 2.2.5.4 1.3.4 2 .1.6-.3 1-1 1-1.7zm-.3 2.8a3 3 0 0 1-3.2-.2c-.7-.6-1.8-2-.8-3.7.6-1 2.4-1.8 3.5-1.5 1 .3 2 1.3 2 2.5s-.5 2.3-1.5 3c0 0-.1 0-.1.1zm19 9.4a4 4 0 0 0-4.9-1.6l-17.3 9.2a4 4 0 0 0-1.5 4.8l2 4.2a3.9 3.9 0 0 0 2.3 2.1c1 .4 2 .3 3-.2l17.2-8.6h.1a4 4 0 0 0 1.8-5.2 46 46 0 0 0-2.5-4.8zm-13.6-1.5a10.1 10.1 0 0 1-1 .6l-1.6.7 1.2 2 2.5-1.3-1-2zm4.6-12.4c-.6-4.5-4-8.6-8.3-10-2-.7-5-.3-7.7 1-.4.2-1 .4-1.3.6-2.2 1.2-4 2.7-4.8 4.3-3.6 6.8.5 12.6 3.5 15 3.5 2.8 9 3.2 13 1 4-2.3 6.3-7 5.7-11.6zm-27.6 7c.8 0 1.6-.7 1.6-1.6 0-.4-.2-.8-.5-1-.3-.3-.7-.5-1-.5-.2 0-.5.1-.7.2-.5.3-1 .8-1 1.4 0 .8.7 1.6 1.6 1.6zm38 18s-.1 0-.1.1L48 192.4c-1.3.6-2.7.7-4 .3a5.2 5.2 0 0 1-3-2.7l-1.4-3c-.1.1-.3.1-.4 0a22 22 0 0 1-10-7.8c-2.5-3.5-3.8-7.8-4-12 0-.2.1-.4.2-.5-.7-.5-1-1.4-1-2.2 0-1.5 1.4-2.8 3-2.8.7 0 1.4.3 2 1s.8 1.3.8 2c0 1-.7 2-1.6 2.5-.4.2-1 .3-1.3.3a2.6 2.6 0 0 1-.7-.1 21 21 0 0 0 3.6 11.2c2.2 3 5.2 5.6 8.7 7a5 5 0 0 1 2-6 93 93 0 0 1 6.8-4l-1.3-2.3c-3.8 1-8 .1-11-2.3-3.3-2.6-7.7-9-3.8-16.6a15 15 0 0 1 15.2-6.4c5 1.6 8.6 6 9.2 11 .5 4.4-1.4 9-4.8 11.8l1.2 2.3a119 119 0 0 1 6-2.7c2.4-1 5.2-.1 6.5 2 1 1.6 1.8 3.3 2.6 5 1.2 2.6.2 5.5-2.3 6.8z" class="F"/><path d="M60.7 173.7a.6.6 0 0 0-.4 0c0 0 0 0 0 0-.1.1-.2.1-.3.1-.1.1-.1.3 0 .6.1.2.2.3.4.4.2.1.4.1.5 0s.3-.2.3-.4c.1-.2.1-.4 0-.5 0-.1-.2-.2-.4-.3zm.7 2.3c0 0-.1.1-.1.1-.5.2-1 .2-1.5 0-.5-.2-1-.6-1-1-.2-.6-.2-1.3.2-1.8.2-.3.5-.5.8-.5.4-.2 1-.3 1.3-.2.5.1 1 .5 1.2 1 .2.4.3 1 .1 1.5-.2.5-.5.8-1 1zm2.2 3.2a.6.6 0 0 0-.4 0c0 0 0 0 0 0-.1.1-.2.1-.3.1-.1.1-.1.3 0 .6.1.2.2.3.4.4.2.1.4.1.5 0 .1-.1.3-.2.3-.4.1-.2.1-.4 0-.5-.1-.1-.2-.2-.4-.3zm.7 2.3c0 0-.1.1-.1.1-.5.2-1 .2-1.5 0-.5-.2-1-.6-1-1-.2-.6-.2-1.3.2-1.8.2-.3.5-.5.8-.5.4-.2 1-.3 1.3-.2.5.1 1 .5 1.2 1 .2.4.3 1 .1 1.5-.2.5-.5.8-1 1zm-20.2 1a.6.6 0 0 0-.4 0c0 0 0 0 0 0-.1.1-.2.1-.3.1-.1.1-.1.3 0 .6.1.2.2.3.4.4.2.1.4.1.5 0s.3-.2.3-.4c.1-.2.1-.4 0-.5 0-.1-.2-.2-.4-.3zm.7 2.3c0 0-.1.1-.1.1-.5.2-1 .2-1.5 0-.5-.2-1-.6-1-1-.2-.6-.2-1.3.2-1.8.2-.3.5-.5.8-.5.4-.2 1-.3 1.3-.2.5.1 1 .5 1.2 1 .2.4.3 1 .1 1.5-.2.5-.5.8-1 1zM47 188a.6.6 0 0 0-.4 0c0 0 0 0 0 0-.1.1-.2.1-.3.1-.1.1-.1.3 0 .6.1.2.2.3.4.4.2.1.4.1.5 0 .1-.1.3-.2.3-.4.1-.2.1-.4 0-.5 0-.1-.2-.2-.4-.3zm.7 2.3c0 0-.1.1-.1.1-.5.2-1 .2-1.5 0-.5-.2-1-.6-1-1-.2-.6-.2-1.3.2-1.8.2-.3.5-.5.8-.5.4-.2 1-.3 1.3-.2.5.1 1 .5 1.2 1 .2.4.3 1 .1 1.5-.2.4-.5.8-1 1zm-4.7-41c3.3-.5 6.8 1.2 8.4 4 .2.3.1.7-.2 1h0c-.3.2-.7.1-1-.3a7 7 0 0 0-7-3.4.6.6 0 0 1-.7-.5c0-.3.2-.7.5-.7zm15.3 9.8a.6.6 0 0 1-.9-.4c-.5-2.8-1.8-5.4-3.6-7.5a.6.6 0 0 1 .1-.9c.3-.2.7-.2 1 .1 2 2.3 3.4 5 4 8 0 .3-.1.5-.3.7z" class="F"/><path d="M53 148.4a.6.6 0 0 1 .6-1.1c4.5 2.7 7.4 7.7 7.3 13 0 .2-.1.4-.3.6-.1.1-.2.1-.3.1-.4 0-.6-.3-.6-.6a14 14 0 0 0-6.7-11.8zM27.7 160a.6.6 0 0 1-.8-.5c-.5-2 0-4.3 1.3-6 .2-.3.6-.3 1-.1s.3.6.1 1c-1 1.3-1.5 3.2-1 4.8.1.3-.1.6-.3.7 0 0-.1.1-.1.1zm-2.2-2.2c-.1 0-.1.1-.2.1-.4.1-.7-.2-.7-.5-.3-2.4.6-5 2.4-6.6.3-.2.7-.2 1 0 .2.3.2.7 0 1-1.5 1.4-2.3 3.5-2 5.5 0 .3-.1.5-.3.6zm6.3 11.8c.3-.2.7-.1 1 .2 1 1.6 2.5 2.8 4.3 3.3.3.1.5.4.4.8 0 .2-.2.3-.3.4-.1.1-.3.1-.5.1a8.8 8.8 0 0 1-5-3.8c-.2-.3-.1-.7.2-1z" class="F"/><path d="M36 175.7c0 .2-.2.3-.3.4s-.3.1-.5.1c-2.8-.8-5-2.8-6.4-5.4a.6.6 0 0 1 .3-.8h0a.6.6 0 0 1 .9.3c1 2.2 3.3 4 5.7 4.8.3.1.5.5.4.8zM267.8 57.3l1 .6a10 10 0 0 1 4.4 5.1l3.4-3.5a41 41 0 0 0 8.2-10.1.8.8 0 0 0-.2-.9l-.3-.3-1-1a.8.8 0 0 0-1-.1 93 93 0 0 0-14.5 10.3zm-32.5 31.2l-.7.5c-.4.4-1 1-1 1.6-.1.6.3 1.3.7 2s.8 1.3 1.3 1.5c.8.3 1.8-.5 2-.7.3-.2.5-.5.7-.7l.8-.8c-1.3-1-2.6-2.2-3.4-3.7l-.5.4zm7.5 2.7h.1l.3-.3c-1-.4-1.8-1.3-2.3-2-1.3-1.5-2.7-3.2-3.7-5.2-.6.7-.7 1.5-.5 2.5a8 8 0 0 0 5 5c.3.1.8.1 1-.1zm24-33a449 449 0 0 0-28.3 24.2c.8 2 2.3 3.7 3.7 5.4.7.8 1.4 1.6 2.3 1.6.1 0 .2 0 .3.1L272 64.2c-1.2-3-2.2-4-5.4-5.8zM284 45.8l.4.3 1-.8a.8.8 0 1 1 1.1 1.1l-1 .8h0l.3.3c.7.7 1 1.7.5 2.6-1.4 3.2-4.2 6-8.5 10.5l-4.2 4.4a432 432 0 0 1-29.7 27.4c-.1.1-.2.2-.4.3.4.4 1.2.6 1.8.5 1-.2 1.7-.8 2.6-1.5l15.4-14.3a.8.8 0 0 1 1.1 0c.3.3.3.8 0 1L249 92.8c-1 .8-2 1.6-3.3 1.8-1.3.3-3-.2-3.7-1.6h-.5c-.2 0-.5-.1-.7-.2-.4.3-.8.7-1.2 1l-.8.8c-1.2 1-2.5 1.4-3.7 1-1-.4-1.7-1.4-2-2-.4-.7-1-1.8-1-3 .1-1 .6-1.8 1.6-2.6.3-.2.5-.4.8-.6l.8-.6h0c-.4-1.7-.1-3.2 1.2-4.3L266 57h.1c4.6-4.4 10-7.8 15.5-11.2.8-.5 1.7-.5 2.5 0zM55.7 229l-26.2 20-15.7 12a1.1 1.1 0 0 0-.3 1.4 94 94 0 0 0 7.4 12.8l4-3a.5.5 0 0 1-.2-.2c-.2-.5-.6-1-1-1.2a.5.5 0 0 1 .4-.9c.8.3 1.4 1 1.7 1.7v.1l1.6-1.2a.4.4 0 0 1-.1-.1L26 269c-.2-.2-.1-.5.1-.7s.5-.1.7.1l1.3 1.5c.1.1.1.1.1.2l1.4-1a.5.5 0 0 1-.3-.2l-1-1.4a.5.5 0 0 1 .1-.7c.2-.2.5-.1.7.1l1 1.4c.1.1.1.2.1.3v.1l1.3-1-2.6-3.4a.5.5 0 0 1 .1-.7c.2-.2.5-.1.7.1l2.6 3.4 1.7-1.3a.5.5 0 0 1-.1-.1l-1-1a.5.5 0 0 1 .1-.7c.2-.2.5-.1.7.1l1 1c0 .1.1.1.1.2l1.2-1a.5.5 0 0 1-.3-.3c-.2-.4-.5-.8-1-1a.5.5 0 0 1-.1-.7c.2-.2.5-.3.7-.1a5 5 0 0 1 1.2 1.4v.2h0l1.4-1a3.5 3.5 0 0 0-1-1.4.5.5 0 0 1-.1-.7c.2-.2.5-.2.7-.1.5.4 1 1 1.3 1.6l1-1a.5.5 0 0 1-.2-.2l-1-1.5a.5.5 0 0 1 .2-.7c.2-.1.5-.1.7.2l1 1.5c0 .1.1.1.1.2l2-1.4a16.8 16.8 0 0 1-2.4-3.3.5.5 0 0 1 .2-.7c.2-.1.5-.1.7.2.7 1 1.5 2.2 2.4 3l1.4-1a.5.5 0 0 1-.4-.2l-.7-1a.5.5 0 0 1 .8-.6l.8 1c0 .1.1.2.1.2v.1l1-.7a.5.5 0 0 1-.2-.2l-1.3-1a.5.5 0 0 1 .2-.7c.2-.1.5-.1.7.2l.7 1.2c0 .1 0 .1.1.2l1-.8a.6.6 0 0 1-.2-.1l-1-1.3a.5.5 0 0 1 .1-.7c.2-.2.5-.1.7.1l1 1.3c0 .1.1.1.1.2l1.6-1.2c-.5-.4-1-1-1.2-1.5a.5.5 0 1 1 .9-.4c.2.5.6 1 1 1.2l.1.1 1.4-1a.3.3 0 0 1-.1-.1l-2.4-2.5c-.2-.2-.2-.5 0-.7s.5-.2.7 0l2.4 2.5c.1.1.1.1.1.2l1.4-1-1-1a.5.5 0 0 1 .1-.7c.2-.2.5-.2.7.1l1 1 1-.7a.5.5 0 0 1-.2-.2l-1-1.3a.5.5 0 0 1 .1-.7.5.5 0 0 1 .7.2l1 1.3s0 .1.1.1l1.5-1h0l-1-1.4a.5.5 0 0 1 .1-.7c.2-.2.5-.1.7.1l1 1.4 1.4-1a.4.4 0 0 1-.1-.1L59 244a.5.5 0 0 1 0-.7c.2-.2.5-.2.7.1L61 245c0 .1.1.1.1.2l1.2-1-2.5-3a.5.5 0 0 1 .1-.7c.2-.2.5-.2.7.1l2.6 3 2-1.5a63 63 0 0 0-7.8-12.6c-.4-.4-1-.6-1.5-.2zm2.3-.4a64 64 0 0 1 8.1 13.2v.2c0 .2-.1.3-.2.4l-45 33.8a.5.5 0 0 1-.7-.1c-3.2-4.3-5.5-8.7-7.8-13.3a2 2 0 0 1 .6-2.6c5.3-4 10.5-8 15.7-12a2064 2064 0 0 1 26.2-19.9c1-.7 2.2-.5 3 .4zM25.6 257a.5.5 0 0 1 0 .7 48 48 0 0 1-7.8 5.7c-.2.1-.5.1-.7-.2s-.1-.5.2-.7a47 47 0 0 0 7.6-5.6c.2-.2.5-.2.7 0zM56 233.8c.1.1.1.2.1.3 0 .2 0 .3-.2.4l-28.2 22c-.2.2-.5.1-.7-.1a.5.5 0 0 1 .1-.7l28.2-22c.2-.2.5-.1.7.1zM414 310c-.1 1 .3 2.2 1 3 0 0 0 .1.1.1.4.5 1 1 1.6 1.2 1.7.7 3.8.2 5-1.2s1.4-3.6.4-5-3-2.4-4.7-2c-1.8.4-3.3 2-3.4 4zm4 27.8l-.2-22-1.4-.4c-.4-.1-.7-.4-1-.6l2.7 23zm18.7-3.8l-.5-2.6c-.1 0-.1-.1-.2-.1l-13-18a5.1 5.1 0 0 1-1.4 1.5c-.2.2-.5.3-.8.4l16 18.8zm4 4.5c.4-.8.7-1.7 1-2.6 0-.4-.2-.7-.3-1l-2.4.6v.2c0 .2.1.5.2 1.2l1.5 1.8zm1-6.7l-.5-1.6-4 .8.6 3.3a1 1 0 0 0 .1.3h.2l3.5-1h.1.2l.4-.1-.6-1.7zm-5-13.2c-.7-.2-1.4-.1-2 .2l1.6 5.5 1.6 5.5 2-.4a47 47 0 0 0-3.1-10.8zM418 301.3c-.2-.1-.6-.1-.8-.1a26 26 0 0 0-2.6.6c-.1 0-.5.1-.6.3-.1.1 0 .5.1.7l1 3.3c.6-.5 1.3-.8 2-1 .6-.1 1.3-.2 2-.1l-.7-3.2c0-.2-.1-.4-.2-.5zm-4 5.6l-1-3.8c-.1-.4-.2-1 .1-1.4.3-.5 1-.7 1.2-.8a25 25 0 0 1 2.7-.6c.4-.1 1.2-.2 1.8.3.3.3.4.8.5 1l.8 3.7a5.5 5.5 0 0 1 2.8 2.3c1 1.4 1 3.2.4 4.7l13 17.8h.1.3a578 578 0 0 0-1.6-5.4l-1.7-6c-.1-.2 0-.5.2-.6 1-.7 2.3-.8 3.5-.5.1 0 .3.1.3.3 1.4 3.2 2.4 6.7 3.3 11.2h.4c.3-.1.5.1.6.3.2.7.5 1.3.7 2l.7 2.2c.1.1 0 .3 0 .4a.7.7 0 0 1-.2.2c-.1 0-.1.1-.2.1l-.5.1c.2.5.3 1 .3 1.4v.2l-1.4 3.6c0 .1-.1.1-.2.2a.5.5 0 0 1-.2.1.5.5 0 0 1-.4-.2l-2-2.5a.5.5 0 0 1-.1-.2c-.2-.8-.2-1.2-.2-1.4v-.1h-.5l-.1.1a.5.5 0 0 1-.7-.1 266.3 266.3 0 0 1-17-19.9v-.1c-.3.1-.6.1-1 .2.3 8 .2 28.5.2 28.7s-.1.3-.2.4a.5.5 0 0 1-.8-.4l-3.8-30.8c-.8-1-1.3-2.4-1.2-3.7.1-1.2.6-2.3 1.3-3zM202 20c0 .2.2 1.3 3.7 5.8l3 3.8 10-7.6c.1-.1.1-.1.2-.1l-1-1.4c-2.2-2.7-4.7-5.5-8-6-1.7-.3-3.6.1-5 1.2s-2.6 2.7-3 4.4zm11 14.8l.4.4 1.2-8.2-5 3.6 3.5 4zm3.2 3.8c.7.8 1.3 1.5 2 2a188 188 0 0 1 1-16.6c0-.4.4-.7.8-.6h.1l-.3-.4c0 .1-.1.1-.2.2l-3.4 2.7-1.6 10.6a.7.7 0 0 1-.1.2l1.6 2zm6.5 1c0-4 .2-8 .6-12.2v-.1l-2.7-3.4h0a160 160 0 0 0-1 17c1 0 2-.6 3-1.3zM227 34c0-1.4-1-2.7-2-4l-.6-.7a129 129 0 0 0-.5 9.4c1.7-1.4 3-3 3-4.6zm-26.6-14.2c.4-2 1.7-4 3.5-5.3 2-1.3 4-1.8 6.2-1.5.8.2 1.6.4 2.3.8a20 20 0 0 1 6.4 5.8l7.4 9.5c1.2 1.5 2.2 3 2.2 5 0 2.7-2 4.7-4.4 6.5-.1.2-.3.4-.6.4-1.3 1-2.8 1.8-4.4 1.5-1.8-.3-3-2-4-3l-3-3.8c-8-9.4-11.7-14.2-11.4-16zM425 234.3c1.8 1 4 1.6 6 2 2.3.4 4.7.8 6.8-.1 1.8-.7 3.3-2.3 4.4-4.5 1.7-3.5 2-7.5.4-10.8-1.4-3.2-4.3-5.7-7.5-6.4-.3-.1-.6-.1-.8-.1-5.3-.7-10.6 2-12.8 6.4-2.4 4.8-.8 11 3.5 13.6zm-2 1.2c-.2.4-.1.8 0 1l.3.3c.1 0 .1 0 .1.1s.1.1.1.1c.1 0 .2.1.3.1l1.6.7c.3.1.5.2.8.2.4 0 .7-.3.8-.6s.2-.7.3-1c-1-.3-1.8-.7-2.6-1.2-.3-.2-.6-.4-1-.7-.3.3-.5.6-.7 1zm-6 16.2c-.2.7-.2 1.3-.2 1.5.1.3.4.7.7.7.4 0 .7-.4 1-1.2l3.4-7.2 3-6.6c-.1-.1-.3-.1-.4-.2l-1.6-.7a98 98 0 0 0-6.2 13.6h0zm3.6-31.4c1.2-2.4 3.2-4.4 5.8-5.6 2.5-1.2 5.3-1.7 8-1.3 4 .5 7.5 3.3 9 7 1.5 3.6 1.4 8-.4 11.7a10 10 0 0 1-4.9 5c-2.4 1-5 .6-7.4.1l-1.4-.3-1.2-.3a4 4 0 0 1-.4 1.2c-.3.6-1 1-1.5 1.2l-3.3 7-3.4 7.2c-.2.5-.8 1.8-2 1.8h-.4c-.7-.2-1.2-.8-1.4-1.5-.1-.6 0-1.5.2-2h0a96 96 0 0 1 6.4-13.9l-.3-.3c-.4-.5-.4-1.3-.1-2 .2-.5.5-1 1-1.3a12 12 0 0 1-2.2-13.6zm6 12.3c1.4 1 3 1.2 4.7 1.5 1.8.3 3.7.6 5.4-.1 1.4-.6 2.6-2 3.5-3.7a11 11 0 0 0 .5-8.7c-1-2.6-3.3-4.5-5.8-5a7.9 7.9 0 0 0-.7-.1c-4.2-.5-8.4 1.7-10.2 5.3-2 3.8-.7 8.8 2.6 11zm7.6-17.2c3.2.4 6 2.6 7.3 5.8 1.2 3 1 6.5-.5 9.6-.7 1.4-2 3.3-4 4.2-2 .8-4 .5-6 .2l-1.3-.3c-1.3-.3-2.6-.7-3.7-1.4-3.8-2.3-5.2-8-3-12.2 2-4 6.6-6.4 11.2-6zm4.3 6c1.2 1.2 1.7 3 1.4 5s-1.3 3.6-2 4.7a.5.5 0 0 1-.5.2.5.5 0 0 1-.2-.1.5.5 0 0 1-.1-.7c1-1.6 1.7-3 2-4.2.2-1.6-.2-3.2-1-4-.2-.2-.2-.5 0-.7s.5-.2.7 0zm-45 180c-.3 1.4.5 2.8 2 3.2a312 312 0 0 0 24 4.9l14 2.7c1.4.3 2.8-.7 3-2l3-13.6 2.4-10.8c.2-.7 0-1.5-.4-2-.4-.6-1-1-1.6-1h-.1l-20.2-4c-6-1.2-12.2-2.4-17.6-3.4-1.4-.3-2.7.7-3 2l-2.3 9.8-3.3 14.3zm16.7 10l7 1.7.4-2.5-7-1.3-.4 2zm-6.6.1l-.1.6a239 239 0 0 0 17.9 4.3l.2-.5c-5.6-1.8-11.5-3.2-18-4.4zm-6-34.4c.5-2.2 2.5-3.6 4.6-3.2l17.6 3.4 20 4c1 .2 2 .8 2.5 1.7.6 1 .8 2 .5 3l-2.4 10.8-3 13.6c-.5 2.2-2.6 3.6-4.6 3.2-4.6-1-9.4-1.8-14-2.6-.1 0-.2 0-.3-.1-.2.8-.3 1.6-.4 2.4 0 .1 0 .1-.1.2l4.3 1.3c.3.1.5.5.4.8-.2.6-.3 1.2-.7 2-.1.3-.4.4-.7.4l-19-4.6c-.3-.1-.5-.4-.4-.8l.4-2c.1-.4.4-.6.8-.5l5.6 1 .4-2-5.3-1-9-2c-2-.5-3.3-2.6-2.8-4.8 1-4.8 2-9.7 3.3-14.4l2.3-9.8z" class="F"/><path d="M398.2 402.4l21 4.3 12.3 2.3c1.2.2 2.3-.5 2.6-1.6l2.5-11.2 2-9c.1-.5 0-1-.3-1.6-.3-.5-.8-1-1.4-1 0 0 0 0-.1 0l-17.6-3.4c-5.3-1-10.7-2-15.3-3-1.2-.2-2.3.5-2.5 1.6l-2 8-2.7 11.8c-.2 1 .5 2.2 1.6 2.5zm1.8-22.6c.4-2 2.2-3 4-2.7l15.4 3 17.6 3.4c1 .2 1.8.7 2.3 1.6.5.8.6 1.7.5 2.6l-2 9-2.4 11.2c-.4 2-2.3 3-4 2.7a455 455 0 0 0-12.3-2.3l-14-2.6-7.2-1.7a3.5 3.5 0 0 1-2.6-4.1 335 335 0 0 1 2.8-11.8l2-8zM73.3 368.2c-3 1-9 12.4-9.3 14.5 0 .2.5 1 2.4 2.3 3.7 2.4 8.7 4 10.6 3.6 4.6-8.2 6-14 3.8-17.3-.5-.8-1.3-1.6-2.4-2 0 0 0 0 0 0l-3.5 8c-.2.4-.6.6-1 .4 0 0 0 0-.1 0a.8.8 0 0 1-.3-1l3.5-8c0 0 0-.1 0-.1-1.4-.5-2.8-.7-3.8-.3zM85.7 348c1.8 1.2 2.8 3.5 2.4 5.5-.4 2.3-2.7 4-4.8 4-.8-.1-1.4-.4-2-.7l-.7-.3c-.4-.1-1.3-.4-2 0-.7.6-.6 2 0 2.8.2.4.5.7.8 1 .6.7 1.2 1.4 1.5 2.4.6 1.8-.2 4-1.7 5.3 1.3.7 2.3 1.7 3 2.7 2.3 4 1 10.2-4 19-.1.1-.2.3-.4.3-2.3 1-7.4-1-11-3l-2.3-1.5c-1.4-1-2-2-2-3 .3-2 6.3-14.2 10.2-15.7 1.5-.6 3.3-.3 5 .3.1-.1.1-.1.2-.2 1.3-.6 2-2.5 1.6-3.8-.2-.7-.7-1.3-1.2-2-.3-.4-.7-.8-1-1.2-1-1.5-1-3.7.3-4.8 1-.7 2-.7 3.4-.2l.8.4c.5.3 1 .5 1.6.6 1.3.1 2.8-1 3-2.6.3-1.5-.5-3-1.8-4-1.2-.8-2.8-1-4.7-.8a.8.8 0 0 1-.3-1.5c2.2-.4 4.2 0 5.8 1zm159.6 66l.6-.4c.2-.1.6-.1.7.2s.1.6-.2.7l-.6.4c.6 1 1.4 2 2.2 2.7l.6-1c.2-.2.5-.3.7-.1.2.2.3.5.1.7l-.7 1c.8.6 1.7 1 2.6 1.6.8.4 1.7.6 2.6.8.2-.4.2-1 .1-1.4 0-.3.2-.5.4-.6.3 0 .5.2.6.4.1.6 0 1-.1 1.7 1.7.2 3.4.1 5-.2l-.4-1.3a.5.5 0 1 1 1-.3l.4 1.3c.6-.2 1.2-.4 1.7-.7.6-.3 1.4-.7 2-1.3l-.8-.7a.5.5 0 0 1-.1-.7c.2-.2.5-.2.7-.1l1 .7c0 0 .1 0 .1.1.7-.6 1.3-1.3 1.8-2.2.6-1 1-2.3 1-3.7H267c0 0-.1 0-.1 0a.5.5 0 0 1-.4-.5c0-.3.2-.5.5-.5h1.4l-.1-2.4c-.1-1-.3-2-.5-3l-1 .4c-.1 0-.2 0-.3 0a.5.5 0 0 1-.4-.3c-.1-.3 0-.6.3-.7l1.2-.5c-.4-1.3-1-2.4-1.8-3.2l-.6-.6-.7 1c-.1.2-.3.3-.5.2a.6.6 0 0 1-.2-.1.5.5 0 0 1-.1-.7l.8-1c0 0 .1-.1.1-.1a11 11 0 0 0-5.2-2.6l-.2 1.8c0 .3-.3.5-.6.5h0a.5.5 0 0 1-.4-.6l.2-1.8c-.2 0-.4 0-.6-.1-2.6-.2-5 .5-7 1.3l.4.8c.1.2.1.6-.2.7-.1.1-.2.1-.3.1a.5.5 0 0 1-.4-.2l-.5-.8c-1 .5-1.8 1-2.4 1.6l-.3.3c.1 0 .1.1.1.1l.5 1c.2.2.1.6-.2.7-.1.1-.2.1-.3.1a.5.5 0 0 1-.4-.2l-.5-.8a11.3 11.3 0 0 0-2.4 5.3h1.5c.3 0 .5.2.5.5s-.2.5-.5.5H244c0 0-.1 0-.1 0-.1 1 0 2.2.2 3.2.2 1 .6 2 1 3zm2 4.4c-.7.6-1.3 1.3-1.7 2-.1.1-.2.4-.2.5 0 .1.2.2.6.4.6.2 1 .2 1 0 .1-.1.2-.3.3-.5 0-.1.1-.2.1-.2.3-.6.7-1 1.3-1.4l-1.2-1c0 0-.1.1-.1.1zm15 4v.3c0 .2.1.4.1.5.2.3.7.3 1.2.3.4 0 .7-.1.7-.2.1-.1 0-.4 0-.5-.2-.8-.6-1.6-1-2.3-.1 0-.1.1-.1.1-.5.2-1 .4-1.4.6.3.4.5.8.6 1.3zm-5.7-26.3a.4.4 0 0 1 0-.2l.3-2c-.7-.1-1.5-.2-2.3-.2a.5.5 0 0 1-.5-.5c0-.3.2-.5.5-.5 1 0 1.8.1 2.7.2a.5.5 0 0 1 .2 0c.1 0 .2.1.3.1.5.1 1 .2 1.4.4.3.1.4.4.3.6-.1.2-.3.4-.6.3 0 0-.1 0-.1 0-.3-.1-.7-.2-1-.3l-.3 2c0 0 0 .1 0 .1.1 0 .1 0 .2 0 3.5.2 6.5 1.7 8.8 4.5 1.5 1.8 2.4 4.3 2.8 7.6.4 3.2 0 5.8-1 7.8-1 2-2.7 3-4 4 .5.8 1 1.6 1.2 2.6.1.4.2 1-.1 1.3-.4.7-1.2.7-1.6.7-.2 0-.5 0-.8 0-.5-.1-1-.3-1.3-.7-.2-.3-.2-.6-.3-1v-.2c-.1-.4-.3-.8-.5-1-.1 0-.1 0-.2 0a.5.5 0 0 1-.1-.1c-2 .5-4 .6-6 .3-1.3-.2-2.5-.5-3.7-1l-1.6-1a.5.5 0 0 1-.3.4c-.4.2-.7.5-1 1l-.1.2c-.1.3-.2.6-.5.8-.4.4-1 .4-1.4.4-.3 0-.5-.1-.7-.2-.3-.1-1-.4-1.2-1-.1-.5.1-1 .3-1.2a8.2 8.2 0 0 1 2-2.4c0 0 0 0 0 0-1.7-1.8-3-4-3.4-6.4-1-4.2.5-8.7 3.6-11.6 1.6-1.4 5.4-3.5 9.8-3.6z" class="F"/><path d="M256.2 409.2c.2.2.4.3.6.3s.4-.1.6-.3c.1-.1.2-.3.2-.4l-1-.8c-.1-.1-.1-.1-.2 0a.7.7 0 0 0-.4.5c0 .2 0 .4.2.6zm-.1-2c.1 0 .2-.1.3-.1a.5.5 0 0 1-.1-.4c.3-1.2.5-2.5.5-3.8 0-.3.2-.5.5-.5s.5.2.5.5c0 1.4-.2 2.8-.5 4 0 .1-.1.2-.2.3.1 0 .1.1.2.1l1 1c.1.1.2.2.2.3 0 .2 0 .4-.1.6 0 0 .1 0 .1 0 1.5 0 3 .1 4.4.5.3.1.4.4.4.6s-.4.4-.6.4c-1.3-.4-2.7-.5-4-.5 0 0-.1 0-.1 0a.5.5 0 0 1-.4-.3c0 .1-.1.1-.1.1-.4.4-1 .6-1.4.6-.1 0-.1 0-.2 0-.4-.1-1-.3-1.2-.7-.3-.4-.5-1-.4-1.5.1-.6.5-1 1-1.3zm15-8.8h0c-.3-1.2-1-2.3-2.5-3.5-1-1-2-1.5-3-1.6-.2 0-.4 0-.6 0-.7 0-1.4.4-1.8 1-.2.3-.4.7-.2 1.2.2.5.6 1 1 1.3l4.2 3.5c.7.6 1.6.4 2 .1.5-.3 1-1 .7-2zm-.2 2.7c-.6.4-1.3.5-2 .4-.5-.1-1-.3-1.3-.6a187 187 0 0 1-4.2-3.5c-.5-.4-1-1-1.4-1.7-.2-.7-.1-1.4.3-2 .6-1 1.6-1.4 2.6-1.5 1.4-.1 2.8.6 4.3 2 1.5 1.3 2.4 2.6 2.8 4h0a2.7 2.7 0 0 1-1.2 3zm-27.2-3.3c.5.5 1 .7 1.8.4l4.7-2.2c.5-.2 1-.5 1.3-1 .3-.5.2-1 .2-1.3-.2-.6-.7-1.2-1.2-1.4-.2-.1-.4-.1-.6-.1-.8-.1-2 .1-3 .7-1.6.8-2.6 1.6-3.2 2.6h0c-.5.8-.2 1.7.2 2zm-1-2.7c.7-1.2 2-2.2 3.7-3 1.8-1 3.2-1 4.4-.6 1 .3 1.6 1 2 2 .2.8.1 1.6-.3 2.2-.4.6-1 1-1.7 1.2l-4.8 2.2c-.5.2-1 .3-1.4.2-.6-.1-1-.4-1.5-1-.8-1-1-2.2-.3-3.3h0zm-69.8-261c-1.5 2-4.6 2.8-6.8 1.7-2.3-1.2-3.4-4-2.5-6.4.7-2 2.8-3 4.7-3 .5 0 1 .1 1.4.3.1 0 .2 0 .2 0 1.5-.1 3 1 3.7 2.7.6 1.6.3 3.5-.7 5zm10.8-8c.5 0 1 .1 1.4.3.1 0 .2 0 .2 0 1.5-.1 3 1 3.7 2.7v.2c0 .1 0 .1.1.2.4 1.5.1 3.2-1 4.5-1.5 2-4.6 2.8-6.8 1.7-2.3-1.2-3.4-4-2.5-6.4.7-2 2.7-3 4.7-3zm-8.7 3.7c.4-.3 1-.5 1.4-.5.5 0 1 .1 1.3.3-.6 2.7.8 5.8 3.3 7 1 .4 1.8.6 2.8.6 2 0 4.2-1 5.4-2.7 1-1.6 1.5-3.5 1-5.3a9.3 9.3 0 0 0 1.5-5.7c-.2-2.2-1-4-2.5-5.4-.1-.6-.6-1-1.3-1.2-.7-.1-1.5.3-1.7 1-.1.3.1.6.4.7s.6-.1.7-.4c.1-.2.3-.3.4-.3s.3.2.3.4.1.3.2.4c1.3 1 2.2 2.8 2.3 4.7.1 1.5-.2 3-.8 4.2-1-1.7-2.6-2.8-4.3-2.7-2.8-1-6 .6-7.4 3.2a3.5 3.5 0 0 0-1.8-.4c-.6 0-1 .2-1.6.5-.8-2-2.6-3.4-4.5-3.4h-.1c-2.2-.7-4.8.1-6.4 1.8.4-3 2-6 4.4-8 .1 0 .1-.1.1-.1.1-.1.2-.1.3-.1s.2.2.2.3c0 .3.2.6.5.6s.6-.2.6-.5c.1-.6-.3-1.2-1-1.5-.6-.2-1.2 0-1.6.5-3.2 2.7-5 6.7-4.8 11 0 0 0 .1 0 .1-1 2.8.5 6.2 3.2 7.6 1 .4 1.8.6 2.8.6 2 0 4.2-1 5.4-2.7 1-1.4 1.4-3.2 1.2-5zm142-72.3c-.3-1 .1-2.2 1-2.7 6.5-3.3 13.2-5.7 20-7.3l9.4 28.3c-7.2 4-14 6-21.7 6.6a317 317 0 0 1-8.9-24.9zm24.5-8.6c0 0 0 0 0 0 3.2 5.3 8.7 25.4 9.5 28.4a71 71 0 0 1-12.3 5.7l-.2-.8a.5.5 0 0 0-.6-.4 58 58 0 0 0-5.6 1.4c-.1 0-.2.2-.3.3-.1.1-.1.3 0 .4l.4 1-1.8.5a.1.1 0 0 0-.1 0 9.2 9.2 0 0 1-1.7-2.3c6.8-.8 13-3 19.6-6.7 0 0 0 0 0 0 .2-.1.3-.4.2-.6L339 47.7c1.2.4 1.8.8 2 1.3zm-2.7 38l-2-.8a.5.5 0 0 0-.5 0c0 0 0 0 0 0-.7.5-1.3 1-1.8 1.8a22 22 0 0 0-1.2-3.7l4.3-1 1.2 3.8zM328 86c-.5-.1-2-1.8-2-2.6l1.5-.1c.4 1 1 1.7 1.7 2.5l-1 .2zm-1 .5c.6.5 1 .6 1.4.5l4.3-1c.4 1 .6 2.2.8 3.3 0 .2.2.4.4.4s.4-.1.6-.2a9.3 9.3 0 0 1 2-2.4l3 1c.1 0 .3 0 .4-.1 0 0 .1-.1.1-.1a.5.5 0 0 0 .1-.6c-.5-1-1-2.2-1.2-3.3a72 72 0 0 0 12.9-6h0c.2-.1.3-.4.2-.6-.2-1-6.2-23.2-9.7-29-.5-1-1.6-1.6-3.6-2 0 0-.1 0-.1 0a.6.6 0 0 0-.3 0c-7 1.6-14 4-20.7 7.5a3.3 3.3 0 0 0-1.7 3.9c2 6.5 5 15.3 9 25.3 0 .1.1.2.2.2 0 1 1.3 2.5 2 3z" class="F"/><path d="M320.5 58a74 74 0 0 1 14.2-4.7c1 2 2 4.2 2.3 6.4a44 44 0 0 1-14.1 4.9c-1-2-2-4-2.4-6.5zm2 7.6c5-.7 10.3-2.5 15.2-5.2 0 0 0 0 0 0 .2-.1.3-.3.2-.5-.4-2.6-1.3-5.2-2.7-7.5a.5.5 0 0 0-.6-.2 76 76 0 0 0-15.2 5 .5.5 0 0 0-.3.6c.5 2.8 1.4 5.4 2.7 7.6.1.2.3.3.5.3zm17.8.1l-14.2 5c-.3.1-.4.4-.3.7.1.3.4.4.7.3l14.2-5c0 0 .1 0 .1-.1a.5.5 0 0 0-.5-.9zm2 3.3L327 75a.5.5 0 0 0 .4 1l15.5-5.8c0 0 .1 0 .1 0 .2-.1.3-.4.2-.6a.5.5 0 0 0-.7-.3zM258 190.5l12 3.2c2.2.6 4.6.3 6.6-1a68.9 68.9 0 0 0 3.6-2.2c-2.3-1.3-4.6-2.4-6.8-3.6a.4.4 0 0 1-.2-.6c.1-.2.4-.3.6-.2l7.2 3.8h0l7-5h.1c.3-.2.4-.5.3-.8-.1-.3-.3-.5-.7-.6l-6-1c-1.8-.4-3.7-.7-5.8-1a9 9 0 0 0-5.5.9l-.4.2c-4.2 2.2-8.2 4.3-12.3 6.6-.3.2-.5.5-.5.8 0 .3.3.5.6.6zm6 9.4c.2.7.4 1.4 1 2 .8.8 2.4 1 3.5 1h1.8c3.7.4 7.6-.3 11-2l1.6-1-2-8.8-3.5 2.2c-1 .5-2 1-3 1-1.5.3-3 .3-4.5-.1l-8-2 2 7.4zm23-2.8c.3-.7.2-1.4.1-2l-1-7.2-4.5 3.2a149 149 0 0 0 2.1 8.9l.4-.2c1-.6 2.5-1.4 3-2.5zm-3.8 7c.3.7 1 1 1.8 1.3-.3-.5-.5-1-.5-1.6 0-.2.1-.4.1-.6 0-.1.1-.2.1-.3a1.4 1.4 0 0 0-.3-1.2c-.2-.2-.5-.4-.8-.5h0c-.7.7-1 2-.4 3zm-25.8-15.7l12.3-6.7.4-.2a9.8 9.8 0 0 1 6.1-1l5.8 1 6 1c.7.1 1.3.6 1.4 1.2.2.6-.1 1.3-.7 1.7l-.1.1-2 1.4 1.2 7.7c.1.8.3 1.7-.2 2.7-.6 1.3-2.2 2.2-3.3 3l-.2.1c.3.1.6.4.8.6.4.5.6 1.2.5 2l-.1.4c-.1.2-.1.3-.1.4-.1.6.4 1 .8 1.7.1.1.1.3.1.4a.5.5 0 0 1-.3.3h0c-1.4.2-3-.5-3.6-1.8-.5-1-.5-2-.1-3l-.7.4A20.1 20.1 0 0 1 270 204l-1.8-.2c-1.3-.2-3-.4-4-1.3-.7-.7-1-1.6-1.2-2.3l-2-7.7a.5.5 0 0 1 0-.2l-3.2-.8c-.7-.2-1.2-.7-1.2-1.3-.1-.7.3-1.3 1-1.7zm-200.8 147l-.8-4.3-31.8-6.6-6 8.7 14.5 3.3a20 20 0 0 0 1.9-3.5L25 331h0a.5.5 0 0 1 .2-1l25.6 5c.3.1.4.3.4.6s-.3.4-.6.4l-7-1.6 1 4 13.3 2.4-1-6zm2.8-22.7c.2-1-.5-2-1.6-2.4l-27.5-5.7c-1-.2-2 .5-2.4 1.6l-3.6 17.4 31.4 6.5 3.6-17.4zm-24 20.4l-2 3.6 9.7 2-1-4.2-7-1.4zM18 335.2c.6.5 1.5.7 2.3 1l34.7 7.2c.8.2 1.5.3 2 .1.3-.1.5-.4.6-.7 0-.2 0-.3 0-.4L38 338.5 17.5 334c0 .4.2 1 .6 1.3zm40.6 7.7c-.2.6-.6 1-1.2 1.3-1 .4-1.8.2-2.5 0 0 0-.1 0-.1 0L20.2 337c-1-.2-2-.4-2.8-1-1-.7-1.3-2-.6-3 .1-.1.1-.1.2-.2l6.2-9.2L27 306a3 3 0 0 1 3.5-2.3l27.5 5.7a3 3 0 0 1 2.3 3.5l-3.6 17.7.8 4.6 1.3 6.6c0 .1 0 .3-.1.4 0 .2 0 .5 0 .8z" class="F"/><path d="M27 321.2l27 5.6c.1 0 .2-.1.2-.1l3-14.2a.2.2 0 0 0-.1-.2l-27-5.6-3 14.6zm2.7-15.7l27.6 5.7c.6.1 1 .8 1 1.4l-3 14.2c-.1.6-.8 1-1.4 1L26.3 322a.5.5 0 0 1-.4-.6L29 306c.1-.3.3-.4.6-.4zM418 30l-13.5.6a63 63 0 0 0 4.3 9.5l7.4-3.4 8.3-3.8c.3-.1.6 0 .8.2.2.3.1.6-.1.8l-13 12.3 3 7 1.3 3 14.2-26.8-12.8.6zM405.6 44l-1.3 1c1 .1 2 .1 3 .1 1.4 0 2.7 0 4.2.3 0 0 0 0 0 0l9.8-9.6-4.7 2.2-8 3.6c-.1 0-.2 0-.2 0 0 0-.1.1-.1.1l-2.8 2.2zm26.7-15.3c.1.2.1.4 0 .6A521 521 0 0 1 417 57.9c-.1.2-.3.3-.6.3a.6.6 0 0 1-.5-.4l-1.8-4-3.2-7.5c-1.2-.2-2.4-.2-3.7-.2-1.4 0-2.7 0-4.2-.3a.4.4 0 0 1-.1-.1c-.2 0-.3-.1-.5-.2a.6.6 0 0 1-.1-.5c0-.1.1-.2.2-.3l2.3-2 2.8-2.2c-1.7-3-4-8.5-4.6-10.4a.5.5 0 0 1 0-.3c0-.1.1-.1.1-.2.1-.2.3-.2.5-.3L418 29l13.8-.6c.2 0 .4.1.5.3zm-36 26.6a9 9 0 0 0-3.7.3 5 5 0 0 0 .3 3c.6 1.4 2 2.4 3.8 2.6.8.1 1.6 0 2.2-.3.7-.3 1.2-.8 1.4-1.4 0-.1.1-.1.1-.2.2-1-.1-2-1-2.7-1-1-2.2-1.2-3.2-1.3zm4 .4c1.2 1 1.7 2.8 1 4.2-.3 1-1 1.7-2 2-.8.4-1.8.5-2.8.4a6 6 0 0 1-4.7-3.3c-.4-1-.5-2-.4-3-.4.2-.8.5-1.2.8-1.7 1.4-2.7 3.5-2.5 5.6.2 2 1.7 4 3.6 4.7.3.1.5.4.4.8-.1.3-.4.5-.7.4-2.4-.8-4.2-3-4.4-5.7-.1-.8 0-1.5.2-2.3.4-1.6 1.4-3.2 2.8-4.3.7-.5 1.4-1 2.2-1.3.3-1 .6-1.8 1.2-2.8 1-1.7 2-3 3.4-4 1.5-1.2 3.3-2 5-2 .3 0 .6.3.6.6s-.2.6-.6.6c-1.4 0-3 .6-4.3 1.7-1 1-2 2-3 3.7-.4.6-.6 1.2-1 1.7a10 10 0 0 1 3.4-.2c1.6.2 3 .8 4 1.6zM24.8 26.7L20.6 29l.8-4.7L18 21l4.7-.7 2-4.2 2 4.3 4.7.7-3.4 3.3.8 4.7zm19 388l-4.2 2.2.8-4.7L37 409l4.7-.7 2-4.2 2 4.3 4.7.7-3.4 3.3.8 4.7zM310.2 140l-9.5-11c-.2-.2-.4-.5-.6-.7-.5.4-1 .8-1.7 1-1 .2-2 0-2.6-.5-.2-.2-.4-.3-.6-.5-.3-.3-.6-.5-1-.6-.5-.1-1 .2-2 1l-.1.1c-.6.7-1.4 1.6-2.6 1.7 0 0-.1 0-.1 0-.7 0-1.5-.3-2.3-1-.2-.1-.3-.3-.5-.4-.4-.3-.7-.7-1-1-1-.5-2-.2-2.8.5L278 137l-3.6 6.3c-.5 1-.5 2 .1 2.7s1.4 1.3 2.4 1.2l19.2-1.7 12.6-1.2c1-.1 2-.7 2.2-1.7.4-1 .1-2-.6-2.7zM296.7 124h-.1v-.2l-.8-11.2-.3-3.8-11.5.5 1 15v.2.1l-1.2 2.2c.8-.2 1.6-.1 2.3.3.6.3 1 .7 1.4 1l.4.4c.6.5 1 .7 1.6.7.7-.1 1.2-.7 1.8-1.3l.1-.1c1-1 2-1.6 3-1.4.6.1 1 .5 1.5 1a5 5 0 0 0 .5.4c.5.3 1 .4 1.7.3.5-.1 1-.3 1.2-.7l-2.6-3zM296 106l-13.4.6c-.5 0-.8.4-.8 1s.4.8 1 .8l13.4-.6c.5 0 .8-.4.8-1a.8.8 0 0 0-.9-.8zm12.7 39.7l-12.6 1.2c-6.4.6-12.4 1.2-19.2 1.7 0 0-.1 0-.1 0a3.8 3.8 0 0 1-3.4-1.8c-.8-1.2-.8-2.7-.1-4 1.2-2 2.4-4.2 3.6-6.3 1.6-2.8 3.3-5.6 4.8-8.4h0c0 0 .1-.1.1-.2l2-3.8-1-14.7h-.1a2.1 2.1 0 0 1-.2-4.1l13.4-.6c1 0 2 .8 2 2 0 1-.5 1.7-1.4 2l.3 3.8.8 11 3.8 4.6 9.5 11a3.8 3.8 0 0 1 .8 4 3.8 3.8 0 0 1-3.2 2.4z" class="F"/><path d="M284.7 133.5c-.8 0-1.3.7-1.3 1.4s.7 1.3 1.4 1.3 1.3-.7 1.3-1.4a1.4 1.4 0 0 0-1.4-1.3zm.2 4a2.6 2.6 0 1 1 2.5-2.7 2.6 2.6 0 0 1-2.5 2.7zm13.7-1.4c-.4 0-.7.4-.7.8 0 .4.4.8.8.7.4 0 .8-.4.7-.8a.8.8 0 0 0-.8-.7zm.1 2.8c-1 .1-2-.8-2-2a2 2 0 0 1 1.9-2.1c1-.1 2 .8 2 2a2 2 0 0 1-1.9 2.1zm-9.3-19.5c-.4 0-.7.4-.7.8 0 .4.4.8.8.7.4 0 .8-.4.7-.8a.8.8 0 0 0-.8-.7zm.1 2.8c-1 0-2-.8-2-2a2 2 0 0 1 1.9-2.1c1 0 2 .8 2 2 .1 1-.8 2-2 2zm3.7-10.5c-.4 0-.7.4-.7.8 0 .4.4.8.8.7.4 0 .8-.4.7-.8a.8.8 0 0 0-.8-.7zm.1 2.8c-1 0-2-.8-2-2a2 2 0 0 1 1.9-2.1 2 2 0 0 1 2.1 1.9c0 1-.8 2-2 2zM429.7 90c-.2 0-1 0-4.8 1.8l-3.3 1.7c1.2 3 2.6 5.8 4 8.6 0 .1.1.1.1.2l1.2-.6c2.4-1.2 4.8-2.6 5.7-5 .5-1.2.4-2.6-.1-4-.6-1.3-1.6-2.3-2.8-2.8zm-12.6 6c-.1.1-.2.1-.4.2l5.8 2.2-2-4.3c-1.2.7-2.5 1.3-3.6 2zm-3.3 1.7c-.7.4-1.3.7-1.8 1.2a140 140 0 0 1 12.1 3.3c.3.1.4.4.4.7v.1l.3-.2a.8.8 0 0 1-.1-.1l-1.4-3-7.6-2.8a.5.5 0 0 1-.1-.1l-1.7 1zM412 102a96 96 0 0 1 8.8 2.3c0 0 0 0 0 0a200 200 0 0 0 2.9-1.4c0 0 0 0-.1 0a140 140 0 0 0-12.3-3.3c-.1.7.1 1.6.5 2.4zm3.5 4c1 .2 2-.3 3.3-.8l.6-.3a100 100 0 0 0-6.9-1.8c.8 1.4 1.6 2.7 3 3zM430 89c1.5.6 2.7 1.8 3.4 3.4s.7 3.3.1 4.8c-.2.6-.6 1-1 1.6-1.3 1.7-3.3 2.8-5.3 3.8a252.8 252.8 0 0 1-8.1 4c-1.3.6-2.6 1-4 1-2-.4-3.2-2.3-4-4.3 0 0 0 0 0 0a.5.5 0 0 1-.2-.5c-.5-1-1-2.3-.4-3.5.5-1.3 2-2 2.7-2.5l3.2-1.7c8.2-4.4 12.3-6.4 13.5-6zm-315 92.6c1.5-1 3.4-1.4 5.2-2a.5.5 0 0 0 .3-.3l1.5-6.7.6-4 .2-1.4 15.7-.7-.2 2.3-1 10c-.6 4.7-1.2 6-1.5 6.2-1.4 1.4-3.6 2.2-5.6 2-1-.1-2-.4-2.4-1-.2-.3-.3-2.3.8-4.2 1-1.4 2.7-3 6.5-2.7.2 0 .4-.2.5-.4l.6-4.6.6-4.6a.4.4 0 0 0-.1-.4c-.1-.1-.2-.1-.4-.1-2.4.5-5.8.6-8.2.7-2.3.1-3 .2-3 .3-.5.3-1.3 2.7-2.3 7l-1.5 6.4c-.3 1.2-.6 2.5-1.4 3.5-.7.8-2 1.7-3.8 1.4-2-.3-3.2-2-3.3-3.3s.8-2.7 2.5-3.6zm.3 7.7l.3.1c1.7.3 3.5-.4 4.6-1.7 1-1.2 1.3-2.6 1.6-4l1.5-6.4 1.4-5.6c.2-.7.3-.7.5-.8.3-.1 1.5-.1 2.8-.2 2.3-.1 5.3-.2 7.8-.6l-.5 4-.6 4.2c-4-.2-6 1.6-7 3.2-1.2 2-1.2 4.4-.8 5 .5.8 1.7 1.4 3 1.5 2.3.3 4.7-.6 6.3-2.2 1.3-1.3 2-8.3 2.8-16.7l.3-2.8a.5.5 0 0 0-.1-.4.4.4 0 0 0-.4-.1c-5 .6-10.6 1-16.5.8-.2 0-.4.2-.5.4l-.2 1.8-.6 3.8-1.4 6.4c-1.8.5-3.6 1-5.2 2-2 1-3 2.7-3 4.4.1 1.8 1.7 3.6 3.7 4z" class="F"/></g></g><path d="M369.6 192.7s8 5.3 14.2 13.3c7.5 9.5 14 22.7 20.8 35.8 12.6 24-15 83.8-19 95.8-6.4 20-37.3 13.6-41.7-7-.8-3.6 5.2-13.7 7-18.7 14.2-41.5 33.6-51.8 18.8-119z" class="B E"/><g class="B"><defs><path id="E" d="M369.6 192.7s8 5.3 14.2 13.3c7.5 9.5 14 22.7 20.8 35.8 12.6 24-15 83.8-19 95.8-6.4 20-37.3 13.6-41.7-7-.8-3.6 5.2-13.7 7-18.7 14.2-41.5 33.6-51.8 18.8-119z"/></defs><clipPath id="F"><use xlink:href="#E"/></clipPath><path d="M352.7 312.4l11-26.5a177 177 0 0 0 9.4-23.5c5-16.6 6-36.4-1.4-70.2l-4 .8c7.3 33.4 6 52.5 1.5 68.3a172 172 0 0 1-9.2 23l-11 26.8 3.7 1.3zM346 330c-.1-.4 0-1.2.5-2.7.4-1.4 1-3 2-5 1.5-3.4 3.5-7.4 4.4-10L349 311c-.8 2.4-2.6 6-4.3 9.7a49 49 0 0 0-2.1 5.3c-.5 1.6-1 3.3-.6 4.7l4-.8zm38 7c-1.4 4.5-4.2 7.4-7.6 9a19 19 0 0 1-11.8 1.3c-8.4-1.6-16.6-8-18.6-17.3l-4 .8c2.4 11.3 12 18.6 21.7 20.4 5 1 10 .5 14.2-1.6 4.4-2 8-6 9.6-11.4l-3.8-1.2zm19-94.3a41 41 0 0 1 2.7 22.3 156 156 0 0 1-6.1 28.6l-9.2 26.6-6.4 16.8 3.8 1.2c1-3 3.3-8.8 6.3-16.5l9.3-27a159 159 0 0 0 6.3-29.4c1-9.3.3-18-3-24.5l-3.5 1.8zm-20.6-35.5c7.3 9.3 13.7 22.3 20.6 35.5l3.5-1.8c-6.8-13-13.4-26.5-21-36l-3 2.4zm-12.6-14.5l-1 1.6c0 0 0 0 .1 0 .1 0 .1.1.3.2l1 .7c.8.6 2 1.5 3.3 2.6 2.7 2.3 6 5.5 9.2 9.3l3-2.4a69 69 0 0 0-9.7-9.9 80.3 80.3 0 0 0-3.5-2.8l-1-.7-.3-.2a.9.9 0 0 0-.1-.1c0 0 0 0 0 0h0l-1 1.6zm-18.8 119l2 .6-2-.6zm-7 18.7l2-.4-2 .4zm41.7 7l2 .6-2-.6zm19-95.8l1.8-1-1.7 1zM383.8 206l-1.6 1.2 1.6-1.2zm-14.2-13.3l1-1.6-4-2.7 1 4.8 2-.4z" clip-path="url(#F)" class="C"/><path d="M350.8 311.8c-1.7 5-7.6 15-7 18.7 1.6 7.3 6.3 12.7 12.2 16 9.3-9.6 17-28 19.7-34.3 12-28.2 19.4-60.3 18-91l-10-15.3c-6.2-8-14.2-13.3-14.2-13.3 14.8 67.3-4.6 77.7-18.8 119z" class="E"/><defs><path id="G" d="M350.8 311.8c-1.7 5-7.6 15-7 18.7 1.6 7.3 6.3 12.7 12.2 16 9.3-9.6 17-28 19.7-34.3 12-28.2 19.4-60.3 18-91l-10-15.3c-6.2-8-14.2-13.3-14.2-13.3 14.8 67.3-4.6 77.7-18.8 119z"/></defs><clipPath id="H"><use xlink:href="#G"/></clipPath><path d="M349 311.4l4 .8h0l-4-.8zM367.7 193c7.3 33.4 6 52.5 1.5 68.3a172 172 0 0 1-9.2 23l-11 26.8 3.7 1.3 11-26.5a177 177 0 0 0 9.4-23.5c5-16.6 6-36.4-1.4-70.2l-4 .8zm17.7 11.6a69 69 0 0 0-9.7-9.9 80.3 80.3 0 0 0-3.5-2.8l-1-.7-.3-.2a.9.9 0 0 0-.1-.1c0 0 0 0 0 0h0l-1 1.6-1 1.6c0 0 0 0 .1 0 .1 0 .1.1.3.2l1 .7c.8.6 2 1.5 3.3 2.6 2.7 2.3 6 5.5 9.2 9.3l3-2.4zm10 15.5l-10-15.5-3 2.4a119 119 0 0 1 9.7 15l3.4-2zM377.7 313c12-28.4 19.5-60.8 18-91.8l-4 .2c1.5 30.3-6 62-17.7 90l3.6 1.6zm-20 35c5-5 9.2-12.2 12.7-18.8l7.5-16-3.6-1.5-7.3 15.8a80 80 0 0 1-12 17.9l2.8 2.7zM342 331a26 26 0 0 0 13.2 17.3l2-3.5c-5.4-3-9.8-8-11.2-14.7l-4 .8zm7-19.7c-.8 2.4-2.6 6-4.3 9.7a49 49 0 0 0-2.1 5.3c-.5 1.6-1 3.3-.6 4.7l4-.8c-.1-.4 0-1.2.5-2.7.4-1.4 1-3 2-5 1.5-3.4 3.5-7.4 4.4-10l-3.7-1.3zm2 .6l-2-.6v.1.1l2 .4zm18.8-119l1-1.6-4-2.7 1 4.8 2-.4zm14.2 13.3l-1.6 1.2 1.6-1.2zm10 15.3l2-.1v-.5l-.2-.4-1.7 1zm-18 91l-1.8-.8 1.8.8zM356 346.5l-1 1.7 1.3.7 1-1-1.4-1.4zm-12.2-16l2-.4-2 .4zm7-18.7l2 .6v-.1-.1l-2-.4z" clip-path="url(#H)" class="C"/><path d="M379 300.3s-13.6 34.5-21.6 45.3c0 0 13 10.7 26.7-3.4s12.4-35 12.4-35l-17.5-6.7z" class="E"/><defs><path id="I" d="M379 300.3s-13.6 34.5-21.6 45.3c0 0 13 10.7 26.7-3.4s12.4-35 12.4-35l-17.5-6.7z"/></defs><clipPath id="J"><use xlink:href="#I"/></clipPath><path d="M397.2 305.2l-17.5-6.7-1.4 3.7 17.5 6.7 1.4-3.7zm-11.7 38.3c7.3-7.4 10.5-16.6 12-24a58 58 0 0 0 1.1-9.1 53 53 0 0 0 0-2.7v-.7-.2h0-2l-2 .1h0c0 0 0 .1 0 .2v.6 2.4c-.1 2-.3 5-1 8.4-1.3 6.8-4.3 15.2-10.8 22l2.8 2.8zm-28 2l-1.3 1.5h0 0c0 0 0 0 0 0 0 0 .1.1.1.1l.5.4 1.8 1c1.6 1 3.8 2 6.5 2.4 5.6 1 13 0 20.3-7.6l-2.8-2.8c-6.4 6.6-12.4 7.3-16.7 6.4a18 18 0 0 1-5.3-1.9l-1.5-1-.4-.3c0 0-.1-.1-.1-.1h0c0 0 0 0-1.2 1.5zm21.6-45.3l-1.8-.7s0 0 0 0v.1c0 .1-.1.2-.1.3l-.4 1-1.6 4-5.5 13-13.5 26.3 3.2 2.4c4-5.6 9.6-17 14-27l5.6-13 1.6-4 .4-1 .1-.3v-.1c0 0 0 0 0 0h0c0 0 0 0-2-.7zm17.5 6.7h2l-.1-1.3-1.2-.4-.7 2zm-12.4 35l1.4 1.4-1.4-1.4zm-26.7 3.4l-1.6-1.2-1 1.5 1.4 1.2 1.3-1.5zm21.6-45.3l.7-1.8-1.8-.7-.7 1.8 1.8.7z" clip-path="url(#J)" class="C"/><path d="M296.5 251c-1.8-.5-2.4-.3-5.4-4.3-2.3-3-2.2-6-1-8 22.2-26 45.7-42.6 53-39.7 12 4.8 1.5 15.7 1.5 15.7L310.3 244l-12 8.3-2-1.6z" fill="#efa797"/><path d="M347.2 195c-7-2.2-31.6 12-50 34 1.5 7 11 16.3 18.3 18.8 15-14 32.4-33 32.4-33s12.7-15.7-.8-19.8z" class="C"/><path d="M356.3 187.6s-2.2-.6-11 2.6l-8.6 8.8s11.7 2.4 18-3.3c0 0 5.7-5.3 1.8-8z" class="E"/><defs><path id="K" d="M356.3 187.6s-2.2-.6-11 2.6l-8.6 8.8s11.7 2.4 18-3.3c0 0 5.7-5.3 1.8-8z"/></defs><clipPath id="L"><use xlink:href="#K"/></clipPath><path d="M354.5 195.7l1.4 1.4h0c0 0 0 0 0 0a.2.2 0 0 0 .1-.1l.2-.2.7-.7c.5-.6 1.2-1.5 1.8-2.5.5-1 1-2.3 1-3.7 0-1.5-.7-3-2.2-4l-2.3 3.2c.5.3.5.6.5 1 0 .4-.1 1-.5 1.7-.4.7-1 1.3-1.3 1.8l-.5.6-.1.1c0 0 0 0 0 0h0a40 40 0 0 1 1.4 1.4zm-18 3.3l-.4 2h0c0 0 0 0 0 0 0 0 .1 0 .1 0h.4a44 44 0 0 0 1.5.2 36 36 0 0 0 5 .2c4-.1 9-1 12.6-4.3l-2.7-3c-2.6 2.4-6.5 3.2-10 3.3-1.7.1-3.3-.1-4.4-.2l-1.3-.2h-.3c0 0-.1 0-.1 0h0c0 0 0 0-.4 2zm7.2-10.2l-8.6 8.8 2.8 2.8 8.6-8.8-2.8-2.8zm12.5-1.2l.5-2h0c0 0 0 0 0 0 0 0-.1 0-.1 0a5.3 5.3 0 0 0-.8-.1c-.5 0-1 0-2 .2-1.8.3-4.7 1-9.3 2.6l1.3 3.7 8.5-2.4 1.4-.1c.1 0 .2 0 .2 0s0 0 0 0c0 0 0 0 0 0s0 0 0 0h0c0 0 0 0 .5-2zm-1.8 8l1.3 1.5h0 0l-1.4-1.4zm-18 3.3l-1.4-1.4-2.5 2.6 3.5.7.4-2zm8.6-8.8l-.7-2-.4.2-.3.3 1.4 1.4zm11-2.6l1-1.6-.3-.2-.4-.1-.5 2z" clip-path="url(#L)" class="C"/><path d="M310.3 381.6s.5 4.3 54 44c7.3 5.4 9.2-5.8 9.2-5.8S336 372 328.7 366s-18.4 15.5-18.4 15.5z" class="E"/><defs><path id="M" d="M310.3 381.6s.5 4.3 54 44c7.3 5.4 9.2-5.8 9.2-5.8S336 372 328.7 366c-7.3-6-18.4 15.5-18.4 15.5z"/></defs><clipPath id="N"><use xlink:href="#M"/></clipPath><path d="M330 364.6c-1.3-1-2.7-1.5-4.2-1.5-1.4 0-2.8.5-4 1.2-2.4 1.4-4.7 3.7-6.6 6l-4.8 7-1.4 2.4-.4.7c0 .1-.1.1-.1.2 0 0 0 0 0 .1l1.8 1 1.8 1h0c0 0 0 0 0 0l.1-.2.4-.6c.3-.6.8-1.4 1.3-2.3l4.5-6.5a21 21 0 0 1 5.4-5.1c1-.5 1.6-.7 2-.7.5 0 1 .1 1.6.6l2.5-3zm43.4 55.2l1.6-1.2h0c0 0 0 0 0 0a18.2 18.2 0 0 0-.4-.5l-1.2-1.5-4.3-5.5-13.7-17-15-18.2-10.3-11.2-2.5 3a118 118 0 0 1 9.8 10.7l15 18 13.6 17 4.3 5.5 1.2 1.5.3.4h.1c0 0 0 0 0 0h0c0 0 0 0 1.6-1.2zm-10.4 7.4c2 1.6 4.2 2.2 6.2 1.7 2-.5 3.2-1.8 4-3a15 15 0 0 0 1.7-3.8 25 25 0 0 0 .4-1.7v-.1c0 0 0 0 0 0h0l-2-.3-2-.3h0c0 0 0 0 0 .1 0 .1 0 .2-.1.3l-.3 1c-.3 1-.7 2-1.2 2.8-.6 1-1 1.3-1.6 1.4-.4.1-1.3.1-3-1l-2.4 3.2zm-52.7-45.6l-2 .3h0c0 0 0 0 0 0 0 0 0 .1 0 .1 0 .1 0 .1 0 .1l.1.3c.1.2.1.3.3.5.2.3.5.7 1 1.3a70 70 0 0 0 6.2 6l47 37 2.4-3.2-46.8-36.8-5.8-5.6c-.4-.5-.6-.7-.6-.8 0 0 0 0 0 .1 0 0 0 .1.1.2v.1c0 0 0 .1 0 .1 0 0 0 0 0 0h0c0 0 0 0-2 .3zm63 38.2l2 .3.1-1-.5-.7-1.6 1.2zm-9.2 5.8l-1.2 1.6 1.2-1.6zm-54-44l-1.8-1-.3.5.1.6 2-.2z" clip-path="url(#N)" class="C"/><path d="M346.4 386.2c-3.6 6-8.7 11.4-13.4 15.6l31.2 23.8c7.3 5.4 9.2-5.8 9.2-5.8l-27-33.6z" class="E"/><defs><path id="O" d="M346.4 386.2c-3.6 6-8.7 11.4-13.4 15.6l31.2 23.8c7.3 5.4 9.2-5.8 9.2-5.8l-27-33.6z"/></defs><clipPath id="P"><use xlink:href="#O"/></clipPath><path d="M346.2 387.2l.4-2h0l-.4 2zm27.2 32.6l.8-.6a.1.1 0 0 1 0-.1l-.1-.2-.5-.6a2484.6 2484.6 0 0 0-8.1-10.2c-5.2-6.5-12-15-18.2-22.6l-1.5 1.3 18.2 22.5a2680.1 2680.1 0 0 1 8.1 10.2l.5.6c.1.1.1.1.1.2 0 0 0 0 0 0h0c0 0 0 0 .8-.6zm-9.8 6.6c2 1.5 3.8 2 5.4 1.6 1.6-.4 2.7-1.5 3.4-2.7.8-1.2 1.3-2.5 1.6-3.5l.3-1.3c0-.2.1-.3.1-.4 0 0 0-.1 0-.1 0 0 0 0 0 0h0l-1-.2-1-.2h0c0 0 0 0 0 .1 0 .1 0 .2-.1.3l-.3 1c-.3 1-.7 2-1.3 3-.6 1-1.4 1.6-2.2 1.8-.8.2-2 0-3.7-1.2l-1.2 1.6zm-31.2-24l31.2 24 1.2-1.6-31.2-23.8-1.2 1.6zm13.2-17c-3.5 6-8.5 11.2-13.2 15.3l1.3 1.5c4.8-4.2 10-9.7 13.6-15.8l-1.7-1zm.8.5l.2-1-2.8-.6 1.8 2.2.8-.6zm27 33.6l1 .2.1-.4-.3-.3-.8.6zm-9.2 5.8l-.6.8.6-.8zM333 401.8l-.6-.7-1 .8 1 .7.6-.8zm13.4-15.6l1 .5.7-1.2-1.4-.3-.2 1z" clip-path="url(#P)" class="C"/><path d="M348.6 389l-2.2-2.7c-3.6 6-8.7 11.4-13.4 15.6l2.8 2.2c5-4.5 10-9.2 13-15zm-7.8 18.7A53 53 0 0 0 352 396l1-1.7-2-2.6c-3 5.5-7.6 10-12.5 14.3l2.3 1.8c.1-.1.1-.1.2-.2z" class="C"/><path d="M300.3 366.6s-2.2 9-5 75.4c-.4 9 10 4.4 10 4.4l19.8-72.8c1-9.4-24.7-7-24.7-7z" class="E"/><defs><path id="Q" d="M300.3 366.6s-2.2 9-5 75.4c-.4 9 10 4.4 10 4.4l19.8-72.8c1-9.4-24.7-7-24.7-7z"/></defs><clipPath id="R"><use xlink:href="#Q"/></clipPath><path d="M327 373.8c.2-1.7-.3-3-1.2-4.4-1-1.2-2-2-3.4-2.7-2.6-1.2-6-2-9.2-2.2a74 74 0 0 0-8.9-.2l-3 .1h-.8c-.1 0-.2 0-.2 0 0 0-.1 0-.1 0h0l.2 2 .2 2h.1c0 0 .1 0 .2 0l.8-.1a76 76 0 0 1 2.8-.1l8.5.2c3 .3 6 .8 8 1.8 1 .5 1.6 1 2 1.4.3.4.5 1 .4 1.6l4 .4zm-21.7 72.6l2 .6h0c0 0 0 0 0 0 0 0 0-.1 0-.1 0-.1.1-.3.2-.5l.6-2 2.2-7.3 6.6-22.8 6.8-24.6 3.5-15.6-4-.4c-.2 2-1.5 7.7-3.4 15L313 413a3433 3433 0 0 1-6.6 22.8l-2 7.3-.6 2-.2.5c0 .1 0 .1 0 .1 0 0 0 0 0 0h0l2 .6zm-12-4.4c-.1 2.6.5 4.7 2 6 1.4 1.3 3.3 1.6 4.8 1.6a15 15 0 0 0 4.1-.7l1.3-.5.4-.2c.1 0 .1 0 .1-.1 0 0 0 0 0 0h0l-.8-1.8-.8-1.8c0 0 0 0-.1 0-.1 0-.1.1-.3.1l-1 .4c-1 .3-2 .5-3 .5-1 0-1.7-.2-2-.6-.3-.3-.8-1-.7-3h-4zm7-75.3l-2-.5h0c0 0 0 0 0 0 0 0 0 .1 0 .1 0 .1-.1.3-.1.5l-.3 2-1 10.5c-1 10.6-2.2 29.5-3.6 62.7h4l3.6-62.5 1-10.3a49.6 49.6 0 0 1 .3-2.2c0 0 0-.1 0-.1 0 0 0 0-2-.4zm5 79.8l.8 1.8.8-.4v-1l-2-.6zm-10-4.4h2-2zm5-75.4l-.2-2-1.4.1-.3 1.4 2 .5z" clip-path="url(#R)" class="C"/><path d="M316.2 397.8a48 48 0 0 1-18.1-5.6l-2.8 49.8c-.4 9 10 4.4 10 4.4l14-48.6h-3z" class="E"/><defs><path id="S" d="M316.2 397.8a48 48 0 0 1-18.1-5.6l-2.8 49.8c-.4 9 10 4.4 10 4.4l14-48.6h-3z"/></defs><clipPath id="T"><use xlink:href="#S"/></clipPath><path d="M315.2 397.6l2 .4h0l-2-.4zm4-.8c-1 .1-2 .1-3 0l-.2 2c1 .1 2.2.1 3.3 0l-.2-2zm-14 49.6l1 .3h0c0 0 0 0 0-.1 0-.1 0-.1.1-.2l.3-1 1-3.5 3.6-12 9-32-2-.5-9 31.8-3.6 12-1 3.5-.3 1c0 .1-.1.2-.1.2 0 0 0 .1 0 .1h0s0 0 1 .3zm-11-4.4c-.1 2.4.5 4.2 1.7 5.3 1.2 1 2.7 1.4 4 1.3 1.4 0 2.8-.4 3.8-.7l1.2-.4.4-.1c0 0 .1 0 .1 0 0 0 0 0 0 0h0l-.4-1-.4-1s0 0 0 0c0 0 0 0-.1 0-.1 0-.2.1-.3.1l-1 .4a12 12 0 0 1-3.2.6c-1 0-2-.2-2.8-.8-.6-.6-1.2-1.6-1-3.7h-2zm2.8-49.8l-2.8 49.8h2l2.8-49.7-2-.2zm19.2 4.7c-6.4-.5-12.2-2.6-17.8-5.5l-1 1.8a49 49 0 0 0 18.5 5.7l.2-2zm-.1 1l.1-1h-1l-.2 1 1 .2zm3 0l1 .3.4-1.4-1.4.1.1 1zm-14 48.6l.4 1 .4-.2.1-.4-1-.3zm-10-4.4h1-1zm2.8-49.8l.4-1-1.3-.7-.1 1.5 1 .1zm18 5.6l-.1 1 1 .1.2-1-1-.2z" clip-path="url(#T)" class="C"/><path d="M318.4 401.2l1-3.4h-3a48 48 0 0 1-18.1-5.6l-.3 4.2c6.7 3.3 13.5 5 20.6 4.7zm-2 7.4l1-4c-7 .1-13.5-1.5-20-4.5l-.3 4a54 54 0 0 0 19.1 4.6z" class="C"/><path d="M371.3 166.7c-5-5-17.4-1.2-17.4-1.2l-7 31.5s20 8.7 21 4c1.7-10.5 7-31 3.4-34.4z" class="E"/><defs><path id="U" d="M371.3 166.7c-5-5-17.4-1.2-17.4-1.2l-7 31.5s20 8.7 21 4c1.7-10.5 7-31 3.4-34.4z"/></defs><clipPath id="V"><use xlink:href="#U"/></clipPath><path d="M369.8 201.4l1.7-9.2 2-10.6a68 68 0 0 0 1-9.5c0-1.4-.1-2.6-.3-3.7-.2-1-.6-2.2-1.5-3l-2.8 2.8c0 0 .2.3.4 1 .1.7.2 1.7.2 3 0 2.4-.4 5.5-1 9a295 295 0 0 1-1.9 10.4l-1.7 9.3 4 .6zM347 197l-.8 1.8h.1c0 0 .1 0 .2.1l.6.3 2.3 1c2 .8 4.5 1.7 7 2.5 2.6.8 5.4 1.5 7.6 1.7 1 .1 2.3.1 3.2-.2 1-.4 2.2-1.2 2.4-2.7l-4-.6c.1-.4.4-.5.2-.4-.2.1-.8.1-1.7.1-1.8-.2-4.2-.7-6.7-1.5l-7-2.4-2.2-1c-.3-.1-.5-.2-.6-.3-.1 0-.1-.1-.2-.1 0 0 0 0 0 0h0c0 0 0 0-.8 1.8zm5-32l-7 31.5 4 .8 7-31.5-4-.8zm20.7.2c-1.6-1.7-3.8-2.5-6-3a23 23 0 0 0-6.3-.2c-2 .2-3.7.5-5 .8l-1.5.4c-.2.1-.3.1-.4.1h-.1c0 0 0 0 0 0h0l.6 2 .6 2s0 0 0 0c0 0 .1 0 .1 0 .1 0 .2-.1.4-.1l1.4-.3 4.5-.7c1.8-.2 3.6-.2 5.2.1 1.6.3 3 1 3.8 1.8l2.8-2.8zM368 201l2 .3-2-.3zm-21-4l-2-.4-.4 1.6 1.5.7.8-1.8zm7-31.5l-.6-2-1 .3-.2 1 2 .4zm17.4 1.2l-1.4 1.4 1.4-1.4z" clip-path="url(#V)" class="C"/><path d="M380.6 234.3c2.3-10.7-4-32.4-11.8-37.5-6.3 6-14.3 3-20.4-1.3-.5-.4-.6-.8-.6-1.3a35 35 0 0 0-22.4 20.4l-12.2 40-8.3 45.4a81 81 0 0 0 27.6 10.9l30.5 5c5.8-20.7 15-68.6 17.7-81.4z" class="C"/><defs><path id="W" d="M380.6 234.3c2.3-10.7-4-32.4-11.8-37.5-6.3 6-14.3 3-20.4-1.3-.5-.4-.6-.8-.6-1.3a35 35 0 0 0-22.4 20.4l-12.2 40-8.3 45.4a81 81 0 0 0 27.6 10.9l30.5 5c5.8-20.7 15-68.6 17.7-81.4z"/></defs><clipPath id="X"><use xlink:href="#W"/></clipPath><path d="M380.8 233.3l-.4 2h0l.4-2zM364 316c5.8-20.8 15-68.7 17.7-81.5l-2-.4-17.7 81.3 2 .5zm-31.6-4l22 4 6.3.8 1.7.2h.4c.1 0 .1 0 .1 0h0l.1-1v-1h0c0 0-.1 0-.1 0-.1 0-.2 0-.4 0a56 56 0 0 1-1.6-.2l-6.2-.7-22-4-.4 2zM304.8 300l-.6.8h0c0 0 0 0 0 0 0 0 .1 0 .1.1h.4l1.4 1 5.4 3c4.7 2.3 11.7 5 20.8 7l.4-2c-9-2-15.7-4.6-20.3-6.8l-5.2-2.8-1.3-.8c-.1-.1-.2-.2-.3-.2a.9.9 0 0 0-.1-.1c0 0 0 0 0 0 0 0 0 0-.6.8zm7.4-45.7l-4.8 23.2-2.8 15.2-.7 5c-.1.6-.1 1.2-.1 1.6 0 .2 0 .4.1.6 0 .1.1.2.1.4.1.1.2.4.5.5l1-1.7a.8.8 0 0 1 .4.5c0 0 0 0 0 0h0c0 0 0-.1 0-.2 0-.3 0-.7.1-1.4a98 98 0 0 1 .7-5l2.8-15 4.8-23-2-.5zm12.2-40l-12.2 40 2 .5 12-39.8-1.8-.7zm23-21a36 36 0 0 0-23.1 21l2 .7a34 34 0 0 1 21.8-19.9l-.6-2zm1.4 1.4c-.1-.1-.2-.2-.2-.2s0-.1 0-.2l-2-.3c-.1.8.1 1.7 1 2.3l1-1.6zM368 196c-3 2.8-6.2 3.5-9.5 3-3.3-.5-6.7-2.2-9.7-4.4l-1 1.6c3 2.2 6.8 4.2 10.6 4.7 3.8.6 7.7-.3 11-3.5L368 196zm13.5 38.4c1.2-5.6.1-13.8-2.2-21.3a54 54 0 0 0-4.3-10.3c-1.7-3-3.6-5.5-5.7-7l-1 1.6c1.7 1.2 3.5 3.3 5 6.2 1.6 2.8 3 6.3 4 10 2.3 7.3 3.2 15.2 2.2 20.3l2 .4zm-1-.2l1 .2.2-1-1-.2-.2 1zM363 315.7v1h.8l.2-.8-1-.3zm-58-15.7l.6-.8h-.1-.1l-.5 1zm8.3-45.4l1 .3-1-.3zm12.2-40l1 .3-1-.3zm22.4-20.4l1 .2.3-1.6-1.5.5.3 1zm.6 1.3l-.6.8.6-.8zm20.4 1.3l.6-.8-.7-.4-.6.6.7.7zm11.8 37.5l-1-.2-.2 1 1 .2.2-1z" clip-path="url(#X)" class="C"/><path d="M304 455.7l-1 3.7s-25.8-1.3-34.3-7c0 0-3.5-2-.6-5.4 2.2-2.7 35.8 8.8 35.8 8.8z" class="E"/><defs><path id="Y" d="M304 455.7l-1 3.7s-25.8-1.3-34.3-7c0 0-3.5-2-.6-5.4 2.2-2.7 35.8 8.8 35.8 8.8z"/></defs><clipPath id="Z"><use xlink:href="#Y"/></clipPath><path d="M268.8 447.5c-.1.1-.1.1.2 0 .3-.1.7-.1 1.2 0l4.2.6c3.4.7 7.8 2 12 3l11.8 3.7 3.8 1.3 1 .4.3.1h.1c0 0 0 0 0 0l.3-1 .3-1s0 0 0 0c0 0 0 0-.1 0l-.3-.1-1-.4-3.8-1.3-11.8-3.7-12.3-3.2a33 33 0 0 0-4.5-.7c-.6 0-1.2 0-1.6.1-.4.1-1 .2-1.4.7l1.5 1.3zm-.2 4.8l.5-1c0 0-.1 0-.1-.1-.1 0-.2-.1-.3-.2-.2-.2-.5-.4-.6-.8-.2-.3-.3-.7-.2-1 .1-.4.3-1 1-1.8l-1.5-1.3c-.8 1-1.2 2-1.4 2.8-.1 1 .1 1.7.5 2.3.3.6.8 1 1 1.3.2.1.3.3.4.3h.1c0 0 0 0 .1 0 0 0 0 0 0 0h0c0 0 0 0 .5-1zm34.3 7v-1h-.1c-.1 0-.1 0-.2 0l-.8-.1-3-.2a181 181 0 0 1-9.8-1.1L278 455c-3.6-1-6.7-2-8.6-3.4l-1 1.6a31 31 0 0 0 9.3 3.7 106 106 0 0 0 11.5 2.2l10 1 3 .2h.8c.1 0 .2 0 .2 0h.1c0 0 0 0 0-1zm-.1-4l-1 3.7 2 .5 1-3.7-2-.5zm-35-8.6l.8.6-.8-.6zm.6 5.4l.6-.8h0 0l-.5 1zm34.3 7v1h.8l.2-.8-1-.2zm1-3.7l1 .2v-1l-1-.3-.3 1z" clip-path="url(#Z)" class="C"/><path d="M306 446l-2.4 11s-23.3-.6-35-7c0 0-5.8-4 8.7-5l18-2.5s5 7 10.8 3.6z" class="C"/><path d="M289 443.3l-.1.6h0c0 0 0 0 .1 0 .1 0 .2.1.3.1.3.1.6.3 1 .6 1 .5 2 1.4 2.7 2.7l1-.6c-1-1.6-2-2.6-3-3.2-.5-.3-1-.5-1.2-.6l-.4-.1a.3.3 0 0 0-.1 0c0 0 0 0 0 0h0c0 0 0 0-.2.6zm4 4c.2.3.5.4.8.2s.4-.5.2-.8l-1 .6zm-4-4.6c-.3-.1-.6.1-.7.4s.1.6.4.7l.3-1zm-3.7 1.2l-.1.6s0 0 0 0c0 0 0 0 .1 0 .1 0 .2.1.3.1.3.1.6.3 1 .6 1 .5 2 1.4 2.7 2.7l1-.6a8.8 8.8 0 0 0-3.1-3.2c-.5-.3-1-.5-1.2-.6l-.4-.1a.3.3 0 0 0-.1 0c0 0 0 0 0 0h0c0 0 0 0-.2.5zm4 4c.2.3.5.4.8.2s.4-.5.2-.8l-1 .6zm-4-4.6a.6.6 0 0 0-.3 1.1l.3-1zm-4.3 1.2l-.1.6h0c0 0 0 0 .1 0 .1 0 .2.1.3.1.3.1.6.3 1 .6 1 .5 2 1.4 2.7 2.7l1-.6a8.8 8.8 0 0 0-4.3-3.8l-.4-.1a.3.3 0 0 0-.1 0c0 0 0 0 0 0h0c0 0 0 0-.2.6zm4 4c.2.3.5.4.8.2s.4-.5.2-.8l-1 .6zm-4-4.6c-.3-.1-.6.1-.7.4-.1.3.1.6.4.7l.3-1z" class="E"/><path d="M298.2 445.2s1.8-3-.2-4.2c-4-2.7-3.4 1.3-3.4 1.3s-1 2.5 3.6 3z" class="C"/><path d="M378.5 421.6l3 2.3s-11.4 23.2-20 28.7c0 0-3 2.5-5.2-1.6-1.6-3 22.3-29.4 22.3-29.4z" class="E"/><defs><path id="a" d="M378.5 421.6l3 2.3s-11.4 23.2-20 28.7c0 0-3 2.5-5.2-1.6-1.6-3 22.3-29.4 22.3-29.4z"/></defs><clipPath id="b"><use xlink:href="#a"/></clipPath><path d="M357 450.6c.1.1 0 .1.1-.2.1-.3.2-.6.4-1a31 31 0 0 1 2.2-3.6c2-3 4.8-6.4 7.7-10l8-9.3 2.7-3 .8-.8v-.2c0 0 0 0 .1-.1h0l-.7-.7-.7-.7h0c0 0 0 0-.1.1-.1.1-.1.1-.2.2l-.8.8-2.7 3-8 9.4c-3 3.5-5.7 7-7.8 10-1 1.5-2 2.8-2.4 4-.3.5-.5 1-.6 1.5-.1.4-.2 1 .1 1.5l1.8-1zm4.4 2l-.6-.8h0c0 0 0 0-.1.1a2.9 2.9 0 0 1-1.2.5c-.4 0-.7 0-1-.2-.4-.2-1-.7-1.3-1.6l-1.8 1c.6 1 1.3 2 2 2.4.8.5 1.6.6 2.3.5a4.9 4.9 0 0 0 2.1-.8l.1-.1c0 0 0 0 0 0h0c0 0 0 0-.6-.8zm20-28.7l-1-.4c0 0 0 0 0 .1 0 0-.1.1-.1.2l-.4.7c-.3.6-.8 1.6-1.4 2.7l-5 8.5a104 104 0 0 1-6.4 9.5c-2.3 3-4.5 5.3-6.6 6.6l1 1.7c2.3-1.5 4.8-4 7-7 2.3-3 4.6-6.4 6.6-9.7a180.3 180.3 0 0 0 6.3-11.3l.4-.7c0-.1.1-.1.1-.2 0 0 0 0 0-.1l-1-.4zm-3.7-1.5l3 2.3 1.2-1.6-3-2.3-1.2 1.6zM356.2 451l-1 .4 1-.4zm5.2 1.6l-.5-.8h0 0l.6.8zm20-28.7l1 .4.4-.7-.7-.5-.6.8zm-3-2.3l.6-.8-.7-.5-.6.7.7.7z" clip-path="url(#b)" class="C"/><path d="M370.2 415.8l9.3 6.6s-9.7 21-20.4 29.2c0 0-6 3.7-1.2-10s4.8-17.4 4.8-17.4 8.3-1.8 7.5-8.4z" class="C"/><path d="M361.2 430.4l.5.4h0c0 0 0 0 .1-.1.1-.1.1-.1.2-.2.2-.2.5-.5 1-.8.8-.6 2-1.2 3.6-1.4l-.1-1.2c-1.8.2-3.2 1-4 1.6-.5.3-.8.6-1 1-.1.1-.2.2-.3.3 0 0-.1.1-.1.1 0 0 0 0 0 0 0 0 0 0 .4.4zm5.3-2a.6.6 0 0 0-.1-1.2l.1 1.2zm-5.7 1.7c-.2.3-.2.6.1.8s.6.2.8-.1l-1-.7zm-.4 4l.5.4h0c0 0 0 0 .1-.1.1-.1.1-.1.2-.2.2-.2.5-.5 1-.8.8-.6 2-1.2 3.6-1.4l-.1-1.2c-1.8.2-3.2 1-4 1.6-.5.3-.8.6-1 1-.1.1-.2.2-.3.3 0 0-.1.1-.1.1 0 0 0 0 0 0 0 0 0 0 .4.4zm5.3-2a.6.6 0 0 0-.1-1.2l.1 1.2zm-5.7 1.7c-.2.3-.2.6.1.8s.6.2.8-.1l-1-.7zm-.6 4.4l.5.4h0c0 0 0 0 .1-.1.1-.1.1-.1.2-.2.2-.2.5-.5 1-.8.8-.6 2-1.2 3.6-1.4l-.1-1.2c-1.8.2-3.2 1-4 1.6-.5.3-.8.6-1 1-.1.1-.2.2-.3.3 0 0-.1.1-.1.1 0 0 0 0 0 0 0 0 0 0 .4.4zm5.3-2a.6.6 0 0 0-.1-1.2l.1 1.2zm-5.7 1.7c-.2.3-.2.6.1.8s.6.2.8-.1l-1-.7z" class="E"/><path d="M366.5 422.7s-2-2.7-4-1.5c-4 2.5-.2 3.6-.2 3.6s2 1.8 4-2z" class="C"/><path d="M305.5 279.2c14 11.4 46.2 15 60.8 15.2l18.8 69.3c-11.4 14.3-45 13-60 11.2-41.5-8.6-58-23.6-60.4-29.5 3-9.7 27.3-47.4 40.7-66.2z" class="E"/><path d="M385.8 363.5L367 294.2l-1.4.4 18.8 69.3 1.4-.4zm-60.7 12a143 143 0 0 0 31.4.5c6-.6 11.7-1.8 16.8-3.7 5-2 9.4-4.6 12.4-8.3l-1.2-1c-2.7 3.4-7 6-11.8 7.8a68 68 0 0 1-16.4 3.6 141 141 0 0 1-31.1-.5l-.2 1.5zm-61-30c.6 1.6 2.2 3.8 4.8 6.2a61 61 0 0 0 11.1 8 152 152 0 0 0 45.1 15.8l.3-1.5c-20.7-4.3-35-10-44.6-15.7a59 59 0 0 1-10.8-7.7 18 18 0 0 1-4.4-5.6l-1.4.6zm40.8-67l-24.3 36.6-10.7 18c-3 5.2-5 9.4-5.7 12l1.4.4c.7-2.3 2.7-6.4 5.6-11.6 3-5.2 6.6-11.4 10.7-18l24.3-36.5-1.2-1zm61.4 15c-7.3-.1-19-1-30.5-3.4-11.6-2.4-23-6-29.8-11.7l-1 1.2c7 6 18.8 9.6 30.5 12 11.7 2.4 23.4 3.3 30.8 3.4v-1.5zm18.8 70l.6.5.2-.3-.1-.4-.7.2zm-60 11.2l-.1.7h0 0l.1-.7zm-60.4-29.5l-.7-.2v.3.2l.7-.3zm40.7-66.2l.5-.6-.6-.5-.5.6.6.4zm60.8 15.2l.7-.2v-.6h-.6v.8z" class="C"/><defs><path id="c" d="M0 0h460v460H0z"/></defs><clipPath id="d"><use xlink:href="#c"/></clipPath><path d="M385.5 363.7v.1c0-.1 0-.1 0-.1z" clip-path="url(#d)" class="C"/><defs><path id="e" d="M0 0h460v460H0z"/></defs><clipPath id="f"><use xlink:href="#e"/></clipPath><path d="M265 345.5v-.1c0 0-.1 0-.1.1z" clip-path="url(#f)" class="C"/><defs><path id="g" d="M0 0h460v460H0z"/></defs><clipPath id="h"><use xlink:href="#g"/></clipPath><path d="M370.8 372.4c10.2-3.8 14.3-8.6 14.6-8.7-.1-.2-.3-1-.6-2-40.2 3.7-80.4-4.6-115.8-24-2 3.8-3.4 6.6-4 7.8.1.1.2.6.6 1.5 32.2 18 68.4 26.7 105 25.5z" clip-path="url(#h)" class="C"/><defs><path id="i" d="M0 0h460v460H0z"/></defs><clipPath id="j"><use xlink:href="#i"/></clipPath><path d="M382.3 352.6l-2.7-9.7c-35 1.6-70-6-101.2-22l-5 8.6c33.5 17.8 71 25.8 108.8 23z" clip-path="url(#j)" class="C"/><defs><path id="k" d="M0 0h460v460H0z"/></defs><clipPath id="l"><use xlink:href="#k"/></clipPath><path d="M377 333.5l-2.8-10a201 201 0 0 1-85.6-19.1c-2 2.8-3.7 5.6-5.5 8.4a201 201 0 0 0 93.8 20.7z" clip-path="url(#l)" class="C"/><defs><path id="m" d="M0 0h460v460H0z"/></defs><clipPath id="n"><use xlink:href="#m"/></clipPath><path d="M371.6 314a4399 4399 0 0 0-2.9-10.2 201.2 201.2 0 0 1-67.8-15.3l-6.7 8a201.2 201.2 0 0 0 77.3 17.4z" clip-path="url(#n)" class="C"/><path d="M380 127.6c10.3-3.4 20-5.4 30.3-.6 6.6 3 13.7 8 16.3 15 3.2 8.5.8 20.7 8.5 27 5.5 4.6 12 1.4 18 2 7.6.8 4.5 8 1.8 12-3.6 5.5-10.4 11.4-16.5 13.8-4.6 1.8-7.5-1.7-10-4.8-3.8-4.5-6.8-1.7-11.4-.2-4.5 1.5-7 .5-9.7-3.4-4-6-3.6-11-3.8-18-.1-3 0-6.6-2.2-8.8-2-2-5-1.8-7.2-3a28 28 0 0 1-13.3-16.4c-1-4.4-.6-14.5 4.4-16.3" class="C"/><path d="M354.4 119.2c2.6-3 .1-4 4.5-4.2 4.5-.3 9 .2 13.6 1.3 4.5.8 5 6 9 8 2 1 4 2.3 5.3 4 1.7 2 1 3.7 1.3 6 .1 1.5.6 3 .8 4.5.4 2.7 1 5.5.7 8.2-.4 5.4-1.8 10.6-3.8 15.6-2 5-2.6 6.7-7.4 10.3-6.4 4.8-10.6 11.3-23 8.7-5-1-13.4-2.4-14-8-1-7.4-.4-10.6-1.2-12.6-.7-1.8-4-3-4.5-4.6-.1-.6 4.4-4.7 5-7.4.4-2 1-9 1.4-11 2-12.3 7.4-13.2 12.4-19z" class="E"/><defs><path id="o" d="M354.4 119.2c2.6-3 .1-4 4.5-4.2 4.5-.3 9 .2 13.6 1.3 4.5.8 5 6 9 8 2 1 4 2.3 5.3 4 1.7 2 1 3.7 1.3 6 .1 1.5.6 3 .8 4.5.4 2.7 1 5.5.7 8.2-.4 5.4-1.8 10.6-3.8 15.6-2 5-2.6 6.7-7.4 10.3-6.4 4.8-10.6 11.3-23 8.7-5-1-13.4-2.4-14-8-1-7.4-.4-10.6-1.2-12.6-.7-1.8-4-3-4.5-4.6-.1-.6 4.4-4.7 5-7.4.4-2 1-9 1.4-11 2-12.3 7.4-13.2 12.4-19z"/></defs><clipPath id="p"><use xlink:href="#o"/></clipPath><path d="M354 121l.8-4-.8 4zm-10 17.5c1-5.8 2.6-8.8 4.6-11l3.4-3.2c1.3-1 2.6-2.4 4-4l-3-2.6c-1.2 1.4-2.4 2.5-3.6 3.6l-3.7 3.6c-2.5 2.8-4.5 6.5-5.5 13l4 .6zm-1.4 11a65 65 0 0 0 .8-5.7l.6-5.3-4-.6-.6 5.5-.7 5.3 4 1zm-5 6.5c.1.6-.1 1-.1 1 0 .1-.1.1 0 .1.1-.1.2-.2.4-.5l1.6-2 2-2.4c.6-.8 1-1.8 1.3-2.8l-4-1c-.1.3-.3 1-.8 1.6l-1.6 2-1.6 2c-.2.3-.4.5-.6.8l-.3.5c-.1.1-.3.7-.1 1.3l4-.8zm4.4 4.3c-.3-1-1-1.6-1.5-2a17 17 0 0 0-1.6-1.2l-1.2-1c-.3-.3-.2-.3-.2-.2l-4 .8c.2 1 .8 1.7 1.3 2.2.5.5 1 1 1.6 1.3.5.4 1 .7 1.3 1l.3.3c.1.1.1.1.1.1l3.7-1.4zm1.3 13c-.4-3.6-.5-6.2-.6-8.2-.1-2-.2-3.5-.7-4.8l-3.7 1.4c.2.6.3 1.6.4 3.7l.6 8.4 4-.4zm12.5 6.2l-8.4-2.2c-2.6-1-4-2.4-4-4l-4 .4c.4 4 3.6 6 6.5 7.2 3 1.2 6.6 2 9 2.4l.8-4zm21.4-8.3c-1.6 1.2-3.2 2.6-4.6 3.8-1.5 1.2-3 2.3-4.4 3.2-3 1.7-6.6 2.6-12.4 1.3l-.8 4c6.6 1.4 11.3.4 15-1.7 2-1 3.5-2.3 5-3.6l4.5-3.7-2.4-3.2zm6.8-9.4c-1 2.6-1.6 4-2.4 5.3-.8 1.2-2 2.4-4.4 4.2l2.4 3.2c2.5-2 4-3.3 5.2-5 1.2-1.7 2-3.6 3-6L384 162zm3.7-15c-.4 5.2-1.8 10-3.7 15l3.7 1.4c2-5.2 3.5-10.5 4-16.2l-4-.3zm-.7-7.7c.4 2.7.8 5.3.7 7.7l4 .3c.2-3-.3-6-.7-8.6l-4 .6zm-.8-4.6c.1 1 .2 1.7.4 2.4l.4 2 4-.6c-.1-.8-.3-1.6-.5-2.3-.1-.7-.3-1.4-.3-2l-4 .4zm-1-5c.6.7.7 1.3.8 2v1.3c0 .5 0 1 .1 1.8l4-.4c-.1-.5-.1-1-.1-1.5V131c-.1-1.3-.5-2.6-1.6-4l-3 2.5zm-4.7-3.5c2 1 3.5 2 4.7 3.5l3-2.5c-1.7-2-3.7-3.4-6-4.5l-2 3.5zm-8.4-8c1.4.3 2.3 1 3.4 2.8 1 1.5 2.5 3.8 5 5l2-3.5c-1.5-.8-2.3-2-3.6-4-1.2-1.7-3-3.8-6-4.3l-.7 4zm-13-1.2c4.3-.3 8.7.2 13 1.2l1-3.8c-4.6-1-9.5-1.7-14.2-1.3l.3 4zm-3 3.5c1.6-2 1.8-3.5 2-3.7 0 0 0 .1-.2.3-.1.1-.2.2-.2.2.1 0 .5-.1 1.6-.2l-.3-4c-1 .1-2 .2-2.8.5-.4.2-.8.4-1.2.8-.4.4-.5.8-.7 1-.4 1-.2 1.4-1.2 2.5l3 2.6zm-1.5-1.3l.4-2-1-.2-.8 1 1.5 1.3zm-12.4 19l-2-.3 2 .3zm-1.4 11l2 .5-2-.5zm-5 7.4l-2 .4 2-.4zm4.5 4.6l2-.7-2 .7zm1.2 12.6l2-.2-2 .2zm14 8l-.4 2 .4-2zm23-8.7l1.2 1.6-1.2-1.6zm7.4-10.3l-2-.7 2 .7zm3.8-15.6h-2 2zm-.7-8.2l2-.3-2 .3zm-.8-4.5l2-.2-2 .2zm-1.3-6l1.5-1.2-1.5 1.2zm-5.3-4l1-1.7-1 1.7zm-9-8l-.5 2h.1.1l.4-2zM359 115l-.1-2 .1 2zm-4.5 4.2l-.4 2 1 .2.8-1-1.5-1.3z" clip-path="url(#p)" class="C"/><path d="M398.7 133.7l-1-3.5c-3.5-11-17.5-18-28.2-19.4-4-.5-8.2-.8-12.2.1-4.5 1-8.6 3-11.7 6.4-3 3.2-4.3 7-2.4 11 1.2 2.6 3.7 5 6 6.8l3 2 5.4 3.3c2 1.3 4.5 2.2 6 4.2l4 6.3c-.1 1.2.1 5 1 6.6 2 3.7 8-3.7 10.8-3.5 1.2.1 1.4 2 1.3 3-.3 2.6-2.6 4.7-4.2 6.6-3.4 4-6.8 12-6 17.4 6 1.8 15-6.2 18.6-10.5a47 47 0 0 0 9.6-36.7h0z" class="C"/><path d="M375.7 155c-2 5.4-2 8.5-1.8 9.4 5 3 8.6-4 9.8-7.6.7-6-4-7.6-6.3-7.6l-1.8 5.8z" class="E"/><path d="M383 156.4c-.6 1.8-1.7 4.3-3.3 6-.8.8-1.6 1.4-2.5 1.7-1 .2-1.8.2-3-.5l-.7 1.3c1.4.8 2.8 1 4 .6 1.2-.3 2.3-1 3.2-2 1.8-2 3-4.6 3.7-6.6l-1.4-.5zm-5.6-6.6c1 0 2.6.3 3.8 1.3 1 1 2 2.6 1.7 5.4l1.5.2c.4-3.3-.7-5.4-2.2-6.7-1.5-1.3-3.5-1.7-4.8-1.7v1.5zm-1 5.3l1.8-5.8-1.4-.4-1.8 5.8 1.4.4zm-1.8 9c-.1-.3-.2-1.2 0-2.7.2-1.5.7-3.6 1.8-6.2l-1.4-.6c-1 2.7-1.6 5-2 6.6-.2 1.6-.1 2.8.1 3.4l1.4-.5zm9-7.4l.7.2v-.1h0l-.7-.1zm-6.3-7.6v-.7h-.6l-.2.5h.7zm-1.8 5.8l.7.3h0 0-.7zm-1.8 9.4l-.7.2.1.3.3.1.4-.7zM346 146c-.1.5.8 1 2 1.4s2.4.1 2.5-.4c.1-.5-.8-1-2-1.4-1.3-.3-2.4-.1-2.5.4zm.6-4.4c.6-.4 1.8-.7 3.2-.4 1.3.3 3 1.2 4.4 3.4l1.7-1c-1.7-2.6-3.8-4-5.7-4.3-2-.4-3.6.1-4.6.6l1 1.7zm7.6 3c.3.5 1 .6 1.4.3s.6-1 .3-1.4l-1.7 1zm-8.6-4.7c-.5.3-.6 1-.4 1.3.3.5 1 .6 1.4.4l-1-1.7z" class="C"/><path d="M348.4 164.4c-1 6-7.4 7.6-7.4 7.6l-.4-7.5h7.8z" class="E"/><defs><path id="q" d="M348.4 164.4c-1 6-7.4 7.6-7.4 7.6l-.4-7.5h7.8z"/></defs><clipPath id="r"><use xlink:href="#q"/></clipPath><path d="M340.6 166.4l7.8-.1v-4l-7.8.1v4zm2.4 5.4l-.4-7.5-4 .2.4 7.5 4-.2zm3.4-7.8c-.3 2.3-1.7 3.8-3 4.7-.7.5-1.4.8-2 1l-.6.2h-.1c0 0 0 0 0 0l.4 2 .4 2h0c0 0 0 0 0 0 0 0 .1 0 .1 0 .1 0 .2 0 .3-.1l1-.3c.7-.3 1.7-.7 2.7-1.4 2-1.3 4.4-3.7 5-7.5l-4-.6zm-5.8.4v-2h-2l.1 2 2-.1zm.4 7.5h-2l.1 2.3 2.3-.5-.4-2zm7.4-7.6l2 .3.3-2.3h-2.3v2z" clip-path="url(#r)" class="C"/><path d="M377.7 166.7a2.6 2.6 0 0 1-2.5 2.7 2.6 2.6 0 0 1-2.7-2.5 2.6 2.6 0 0 1 2.5-2.7 2.6 2.6 0 0 1 2.7 2.5zM329 217.4c.1-1 .2-2 .3-3l-3-1a53 53 0 0 0 17.6-15.9c1.3 1 1.4 2.4 2.6 3.4a51.2 51.2 0 0 1-17.7 16.5z" class="E"/><defs><path id="s" d="M329 217.4c.1-1 .2-2 .3-3l-3-1a53 53 0 0 0 17.6-15.9c1.3 1 1.4 2.4 2.6 3.4a51.2 51.2 0 0 1-17.7 16.5z"/></defs><clipPath id="t"><use xlink:href="#s"/></clipPath><path d="M345 199.8c-4.3 6.6-10 12-17 16l2 3.4a53.2 53.2 0 0 0 18.4-17.2l-3.3-2.2zm-2.2-.7c.3.2.4.4.8 1 .3.6 1 1.6 2 2.3l2.4-3.2c-.3-.2-.4-.4-.8-1-.3-.6-1-1.6-2-2.3l-2.4 3.2zm-15.4 16a55 55 0 0 0 18.3-16.6l-3.3-2.2a51 51 0 0 1-16.9 15.3l2 3.4zm2.5-2.6l-2.8-1-1.4 3.7a66 66 0 0 0 3 1.1l1.3-3.7zm1 5a63 63 0 0 0 .3-3l-4-.3c-.1 1-.2 2-.3 2.8l4 .5zm15.7-16.8l1.6 1 1-1.6-1.5-1-1.2 1.6zm-2.6-3.4l1.2-1.6-1.7-1.3-1.2 1.8 1.6 1zm-17.6 16l-1-1.7-3.6 2 4 1.5.7-1.8zm3 1l2 .2.1-1.5-1.5-.5-.6 2zm-.3 3l-2-.3-.5 4 3.4-2-1-1.7z" clip-path="url(#t)" class="C"/><path d="M336 225c-.2-1-.4-2-.6-3.2a57 57 0 0 1-3.2.3 64.7 64.7 0 0 0 11.4-23.7l4.6 1.2a69.5 69.5 0 0 1-12.2 25.4z" class="E"/><defs><path id="u" d="M336 225c-.2-1-.4-2-.6-3.2a57 57 0 0 1-3.2.3 64.7 64.7 0 0 0 11.4-23.7l4.6 1.2a69.5 69.5 0 0 1-12.2 25.4z"/></defs><clipPath id="v"><use xlink:href="#u"/></clipPath><path d="M338 225.3l-4-.8h0l4 .8zm8.4-26.3a67.5 67.5 0 0 1-11.9 24.7l3 2.4a71.6 71.6 0 0 0 12.6-26.2l-3.8-1zm-3.2 1.3l2.3.6 2.3.6 1-3.8-2.3-.6-2.3-.6-1 3.8zm-9.4 23a66.8 66.8 0 0 0 11.8-24.4l-3.8-1a62.9 62.9 0 0 1-11.1 23l3 2.4zm1.4-3.4c-1 .1-2 .2-3 .3l.2 4 3.3-.3-.4-4zm2.8 4.8a57 57 0 0 0-.6-3.3l-4 1 .6 3 4-.7zm-2 .3l-2-.4 3.5 1.6-1.6-1.2zm12.2-25.4l2 .5.5-2-2-.5-.5 2zm-4.6-1.2l.5-2-2-.5-.5 2 2 .5zM332.2 222l-1.6-1.2-2.6 3.4 4.3-.3-.1-2zm3.2-.3l2-.4-.4-1.7-1.8.2.2 2zm.6 3.2l2 .4v-.4-.4l-2 .3z" clip-path="url(#v)" class="C"/><path d="M351.8 198a4.5 4.5 0 0 1-5.3 3.4 4.5 4.5 0 0 1-3.4-5.3 4.5 4.5 0 0 1 5.3-3.4c2.4.5 4 3 3.4 5.3z" class="E"/><defs><path id="w" d="M351.8 198a4.5 4.5 0 0 1-5.3 3.4 4.5 4.5 0 0 1-3.4-5.3 4.5 4.5 0 0 1 5.3-3.4c2.4.5 4 3 3.4 5.3z"/></defs><clipPath id="x"><use xlink:href="#w"/></clipPath><path d="M348 194.7c1.4.3 2.2 1.6 2 3l4 .8c.7-3.5-1.5-7-5-7.6l-.8 4zm-3 2c.3-1.3 1.6-2.2 3-2l.8-4c-3.5-.7-7 1.5-7.6 5l4 .8zm2 3a2.5 2.5 0 0 1-1.9-2.9l-4-.8c-.7 3.5 1.5 7 5 7.6l.8-4zm3-2c-.3 1.3-1.6 2.2-3 2l-.8 4c3.5.7 7-1.5 7.6-5l-4-.8z" clip-path="url(#x)" class="C"/><path d="M370 188.6l-20.2 3 1 13.4s15 .4 21.2-5.3c0 0 1.8-8.4-2-11z" class="E"/><defs><path id="y" d="M370 188.6l-20.2 3 1 13.4s15 .4 21.2-5.3c0 0 1.8-8.4-2-11z"/></defs><clipPath id="z"><use xlink:href="#y"/></clipPath><path d="M372 189l-4-.8h0l4 .8zm.1 10.7l2 .4h0c0 0 0 0 0 0 0 0 0-.1 0-.1 0-.1 0-.2.1-.3a24.9 24.9 0 0 0 .4-4.5c0-1.3-.2-2.8-.6-4.3s-1.3-3-2.7-4l-2.3 3.2c.5.4 1 1 1.2 2s.4 2 .4 3a21.3 21.3 0 0 1-.3 3.8c0 .1 0 .2 0 .2 0 0 0 0 0 .1h0c0 0 0 0 2 .4zm-21.2 5.4v2h.7a62.6 62.6 0 0 0 7.9-.6c4.6-.6 10.4-2 14-5.3l-2.7-3c-2.6 2.4-7.4 3.7-12 4.3a56 56 0 0 1-5.6.5h-1.7-.6l-.1 2zm-3-13.3l1 13.4 4-.3-1-13.4-4 .3zm22.2-3.2l-.3-2h0c0 0-.1 0-.1 0-.1 0-.3 0-.5.1l-1.7.3-5.5 1-12.4 1.8.5 4 12.5-1.8 5.5-1 1.7-.3c.2 0 .4-.1.5-.1h.1 0l-.3-2zm0 0l-2-.4-.3 1.3 1 .8 1-1.6zm2 11l1.3 1.5.5-.4.1-.6-2-.4zm-21.2 5.4l-2 .2v1.8h1.8v-2zm-1-13.4l-.2-2-2 .2.2 2 2-.2zm20.3-3l2 .4.6-2.8-3 .5.3 2z" clip-path="url(#z)" class="C"/><path d="M349 210c9.3-17.5 25.5-10.3 32.6-3 1 5-2.7 2.8-5 1.8-8.5-8-19.7-3-22 1.3-11 15.4-11.8 51-10.7 67 4 24.7 20.6 35.8 30.4 41 2.5 2.5-.1 4.3-1.8 5-15.2-5-28-24-31-32.2-9.3-31.8 1-67.2 7-81z" class="E"/><path d="M376.3 209.2c.5.3 1.2.6 2 1 .7.3 1.4.5 2 .6.4 0 .7 0 1-.2.4-.2.7-.5 1-.8.4-.7.3-1.7.1-3l-1.5.3c.3 1.2.2 1.8.1 2-.1.1-.1.1-.1.2-.1 0-.2.1-.4.1-.4 0-1-.2-1.6-.4l-1.8-.8-.6 1.4zm-21 1c.5-1 1.5-2 3-3 1.4-1 3.2-1.7 5.2-2 4-.7 8.6 0 12.6 3.8l1-1c-4.4-4.2-9.6-5-14-4.2-2.2.4-4 1.2-5.7 2.2s-2.8 2.3-3.4 3.5l1.3.7zM344.7 277c-.5-8-.6-20.8.8-33.6 1.4-12.8 4.4-25.4 9.8-33l-1.2-1c-5.7 8-8.6 20.8-10 33.7a207 207 0 0 0-.8 33.9h1.5zm30 40.5c-9.8-5.3-26.2-16.3-30-40.6h-1.5a56 56 0 0 0 30.8 41.7l.7-1.3zm-2 6.3c1-.3 2-1 2.8-2 .4-.5.6-1.2.5-2-.1-.7-.5-1.5-1.2-2.2l-1 1c.6.6.8 1 .8 1.3.1.3 0 .6-.2 1-.4.6-1.3 1.2-2 1.4l.5 1.4zM341 291c1.5 4 5.5 11 11 17.5a48 48 0 0 0 20.4 15.1l.5-1.4c-7.4-2.4-14.3-8.3-19.7-14.7a65 65 0 0 1-10.7-17.1l-1.4.5zm7.2-81.5C342 223.4 331.6 259 341 291l1.4-.4c-9.2-31.6 1-66.8 7-80.4l-1.4-.6zm34-3.3c-3.7-3.7-9.6-7.4-16-8-3.2-.3-6.5.3-9.5 2s-6 4.7-8.3 9.2l1.3.7c2.3-4.3 5-7 7.7-8.6s5.8-2 8.7-1.8c6 .5 11.6 4 15 7.5l1-1zm-5.4 2.3l-.5.5.1.1h.1l.3-.7zm-22 1.3l.6.4h0v-.1l-.7-.3zM344 277h-.7 0 0 .7zm30.4 41l.5-.5-.1-.1h-.1l-.4.7zm-1.8 5l-.2.7.3.1.2-.1-.3-.7zm-31-32.2l-.7.2h0 0l.7-.3zm7-81l-.7-.3h0 0l.7.3zm32.6-3l.7-.2v-.2l-.2-.2-.5.5z" class="C"/><path d="M281.2 219.5c-.1 0-.2 0-.3.1l-13 16c-.1.1-.1.2-.1.3l14.5 61a.3.3 0 0 0 .2.2c0 0 .1 0 .1 0 .1 0 .1-.1.2-.1l12.3-18.7c.1-.1.1-.2 0-.2l-13.7-58.2c0-.1-.1-.2-.2-.2z" class="G"/><path d="M293.5 218c-.1-.1-.2-.1-.3-.1l-11.4 2.8c-.1 0-.1.1-.2.1l-11 14c-.1.1-.1.2-.1.3l13.4 56.3a.3.3 0 0 0 .2.2c0 0 .1 0 .1 0 .1 0 .1-.1.2-.1l9.4-13c0-.1.1-.1.1-.2l-.4-60.2c0-.1 0-.2-.1-.2h0z" class="E"/><path d="M281 232.3l-13.2 3c-.2 0-.3.2-.2.4l14.5 61c0 .2.2.3.4.2l13.2-3c.2 0 .3-.2.2-.4l-14.5-61a.3.3 0 0 0-.4-.2z" class="G"/></g><g class="C"><path transform="rotate(346.7 277.3 245.5)" d="M270.3 243.8h14v3.4h-14z" class="B"/><path transform="rotate(346.7 280 256.6)" d="M273 252.2h14v8.6h-14z" class="B"/></g><path d="M294.6 216.8c0-.1-.1-.2-.2-.2s-.2 0-.3.1l-13 15.6c-.1.1-.1.2-.1.3l14.5 61c0 .1.1.2.3.2 0 0 .1 0 .1 0 .1 0 .1-.1.2-.1l12.4-18.7c.1-.1.1-.2 0-.2l-14-58z" class="B G"/><path d="M300.4 241.3l-3.6-15-13.5 16.4 4 16.6 13.2-18z" class="B C"/><path d="M296.4 217a.3.3 0 0 0-.3.1L282.8 233c-.1.1-.1.2-.1.3l14 61.2a.3.3 0 0 0 .2.2c0 0 .1 0 .1 0 .1 0 .1-.1.2-.1l12.5-18.6c.1-.1.1-.2.1-.2l-13-58.3a.3.3 0 0 0-.2-.2z" class="B G"/><path d="M308.7 215.7a.3.3 0 0 0-.3-.1l-11.4 2.7c-.1 0-.1.1-.2.1l-11 14c-.1.1-.1.2-.1.3l13 56.5c0 .1.1.2.2.2 0 0 .1 0 .1 0 .1 0 .1-.1.2-.1l9.5-13c0-.1.1-.1.1-.2l.2-60.2c0-.1 0-.2-.1-.2z" class="B E"/><path d="M296.2 229.8l-13.2 3c-.2 0-.3.2-.2.4l14 61.2c0 .2.2.3.4.2l13.2-3c.2 0 .3-.2.2-.4l-14-61c0-.2-.2-.3-.4-.2z" fill="#a9c563" class="B"/><g class="H"><path transform="rotate(347.2 292.3 243)" d="M285.2 241.3h14v3.4h-14z" class="B"/><path transform="rotate(347.2 294.7 254.1)" d="M287.7 249.8h14v8.6h-14z" class="B"/></g><path d="M309.7 214.5a.3.3 0 0 0-.2-.2.4.4 0 0 0-.3.1L296 230c-.1.1-.1.2-.1.3l14 61.2a.3.3 0 0 0 .2.2c0 0 .1 0 .1 0 .1 0 .1-.1.2-.1l12.6-18.6c.1-.1.1-.2.1-.2l-13.3-58z" fill="#a9c563" class="B"/><path d="M315.4 239l-3.5-15-13.7 16.3L302 257l13.4-17.8z" class="B H"/><g class="B"><defs><path id="AA" d="M315.4 239l-3.5-15-13.7 16.3L302 257l13.4-17.8z"/></defs><clipPath id="AB"><use xlink:href="#AA"/></clipPath><path d="M316.3 239.3l-2-.4h0l2 .4zm-13.5 18.2l13.4-17.8-1.6-1.2-13.4 17.8 1.6 1.2zm-5.6-17L301 257l2-.4-3.8-16.7-2 .4zm14-17l-13.7 16.3 1.6 1.2 13.7-16.2-1.5-1.3zm5.2 15.5l-3.5-15-2 .4 3.5 15 2-.4zm-1 .2l.8.6.1-.2v-.2l-1-.2zM302 257h-1l.5 2 1.3-1.7-.8-.6zm-3.8-16.7l-.8-.6-.3.4.1.4 1-.2zM312 224l1-.2-.4-2-1.3 1.5.8.6zm3.5 15l1 .2v-.2l-.1-.2-1 .2z" clip-path="url(#AB)" class="H"/><path d="M375.8 211.8c3.7 6.4-6.4 35-23.8 57.6-7 .1-18.4-7-22.4-13.6l25-39s14.3-17.4 21.3-5.2z" class="C"/><path d="M328 264.6l18.2-32.5-1.7-1-18.2 32.5 1.7 1zm18.2-32.5c.3-.5.1-1-.4-1.3a1 1 0 0 0-1.4.4l1.7 1zm-20 31.5c-.3.5-.1 1 .4 1.4s1 .1 1.4-.4l-1.7-1zm25 7l17-27.4-1.7-1-17 27.4 1.7 1zm17-27.4a1 1 0 0 0-.3-1.4 1 1 0 0 0-1.4.3l1.7 1zm-18.8 26.3a1 1 0 0 0 1.7 1.1l-1.7-1zm-32-25.6l16.2-20.4-1.6-1.2-16.2 20.4 1.6 1.2zm16.2-20.4a1 1 0 0 0-1.6-1.2l1.6 1.2zM316 242.6a1 1 0 0 0 .2 1.4c.4.3 1 .3 1.4-.2l-1.6-1.2z" fill="#4b702f"/><path d="M324.7 265l5.8-7.7L351 270l-10.6 11c-13.5 5.3-45.5 3-59.2 1.2l-11.2-.6c-8-2.6-3.5-11.7-1.7-14.6l7 1.4-4-3.8c9.3-1.4 14 3 15 5.5l38.6-5z" class="E"/><defs><path id="AC" d="M324.7 265l5.8-7.7L351 270l-10.6 11c-13.5 5.3-45.5 3-59.2 1.2l-11.2-.6c-8-2.6-3.5-11.7-1.7-14.6l7 1.4-4-3.8c9.3-1.4 14 3 15 5.5l38.6-5z"/></defs><clipPath id="AD"><use xlink:href="#AC"/></clipPath><path d="M352 268.4l-20.6-12.7-2 3.4 20.6 12.7 2-3.4zm-10.3 14l10.6-11-2.8-2.8-10.6 11 2.8 2.8zm-61 1.8l30 2c11.4.1 23-.6 30.3-3.4l-1.4-3.7c-6.4 2.5-17.4 3.2-28.8 3l-29.5-2-.5 4zm-11-.6l11.2.6.2-4-11.2-.6v4zm-3.3-17.7c-1 1.6-2.7 5-3 8.3a9 9 0 0 0 .9 5.4c1 1.8 2.6 3 5 4l1.2-3.8c-1.6-.5-2.4-1.3-2.8-2-.4-.8-.6-1.8-.4-3 .3-2.5 1.7-5.2 2.6-6.7l-3.4-2zm9 .5l-7-1.4-.8 4 7 1.4.8-4zm-5.7-.5l4 3.8 2.7-3-4-3.8-2.7 3zm18 3.4c-1.4-3.6-7-8.2-17-6.7l.6 4c8.6-1.3 12.2 2.7 12.8 4.3l3.7-1.5zm36.5-6.2l-38.6 5 .5 4 38.6-5-.5-4zm4.5-7L323 264l3.2 2.4 5.8-7.7-3.2-2.4zm22 14l1.4 1.4 1.7-1.8-2-1.3-1 1.7zm-10.6 11l.7 1.8.4-.1.3-.3-1.4-1.4zm-59.2 1.2l.2-2h-.1-.1l-.1 2zm-11.2-.6l-.6 2h.3.3v-2zm-1.7-14.6l.4-2-1.4-.3-.7 1.2 1.7 1zm7 1.4l-.4 2 6.8 1.4-5-4.8-1.4 1.4zm-4-3.8l-.3-2-4 .6 3 2.8 1.4-1.4zm15 5.5l-1.8.7.6 1.4 1.5-.2-.2-2zm38.6-5l.3 2h.8l.5-.7-1.6-1.2zm5.8-7.7l1-1.7-1.5-1-1 1.4 1.6 1.2z" clip-path="url(#AD)" class="C"/><path d="M266.5 272c.5.8 1.7 1.5 3.5 2a25 25 0 0 0 8.2.7l-.1-2a23 23 0 0 1-7.6-.6c-1.6-.5-2.3-1-2.4-1.2l-1.6 1zm11.7 2.7c.6 0 1-.5 1-1s-.5-1-1-1l.1 2zm-10-3.8a1 1 0 0 0-1.4-.3c-.5.3-.6 1-.3 1.4l1.7-1zm-2.5 4.4c.4 1 1.4 1.7 3 2.2 1.6.5 4 .8 7 .3l-.3-2c-3 .4-5 .2-6.3-.2-1.3-.4-1.7-1-1.8-1l-1.8.8zm10.2 2.5c.5-.1 1-.6.8-1a1 1 0 0 0-1.1-.8l.3 2zm-8.4-3.3a1 1 0 0 0-1.3-.5c-.5.2-.7.8-.5 1.3l1.8-.8z" class="C"/><path d="M193.3 86.6s-6 2.7-10.8 3-9.4.1-14.8 2.4L147 102.3l-27.7 16.3-22.3 9.6a79 79 0 0 1-24.2-3.3 139 139 0 0 1-23.3-12.8c-4.8-4-18-16-19.4-21L23.7 75c-1.2-3-1.6-6.8.4-10.2s7-10.3 11.6-13 21.7-10.4 28.5-12.5 22.5-7.2 28.5-11a138 138 0 0 1 27.6-11c6.3-1.5 17.6-4 25-3.6 7.3.5 10.7 0 19.7 2.8 9 2.8 19.2 9.8 22 13s12.8 17.3 13.5 18.7a169 169 0 0 1 6.5 16.1c.2 1.7 0 12.6-3.2 15.8-3.2 3.2-10.4 6-10.4 6z" fill="#ed9d42"/></g><g class="E"><path d="M143.7 44c-1.3-1.6-2.5-3.2-2.8-4.7-.4-2.7 1.8-5 2.8-6 2.5-2 5.4-3 8-2.7 3 .4 5.5 2.8 6 5.5.3 2.3-.8 4.5-2 6.8-1.2 2.2-2.4 4.5-2.2 7h0c-2.2 1-4.5 1-6.6.4.1-2.2-1.5-4.3-3-6.3zm8 12c-.7.1-1.4 0-2.3-.1-1-.1-2-.3-2.5-1-.4-.4-.7-1-.7-2v-.5c1.7 1 3.7 1 5.6.6.5-.1 1-.3 1.4-.5.2-.1.3-.4.2-.5s-.3-.3-.6-.2a7 7 0 0 1-6.4-.2l.2-.5a11 11 0 0 0 7.1-.4c.2.7.5 1.4.5 2 0 .4 0 .7-.1 1-2 .5-4.3.5-6.3.1a.4.4 0 0 0-.5.3c0 .2.1.4.3.5 2 .4 4 .4 6 0-.1.1-.1.2-.2.3-.4.5-1 .8-2 1zm-5.4-.4c.8.8 2 1 3 1 1 .1 1.7.2 2.5.1l.6-.1c.7-.2 1.4-.5 1.8-1 .6-.7 1-1.7.8-3-.1-1-.4-2-.7-2.7a.3.3 0 0 0-.2-.2c-.1-2.2 1-4.3 2-6.5 1.2-2.3 2.5-4.6 2.2-7.3-.4-3-3.2-5.7-6.6-6.2-3-.4-6 .6-8.7 3-1 1-3.6 3.5-3 6.6.3 1.8 1.6 3.5 3 5 1.6 2 3.2 4 3 6v.2c-.2.7-.4 1.5-.4 2.3-.1 1 .3 2 1 2.5zM139 48c.1 0 .1-.1.2-.1.5-.5 1-1 1.6-1.3.2-.1.2-.4.1-.6a.4.4 0 0 0-.6-.1c-.6.4-1.2 1-1.7 1.4a.4.4 0 0 0 0 .6c.1.1.3.1.4.1zm-1-8.8c.2 0 .3-.2.3-.4a.4.4 0 0 0-.4-.4l-2-.1a.4.4 0 0 0-.4.4c0 .2.2.4.4.4l2 .1h.1zm2.6-7.5a.4.4 0 0 0 .2-.2.4.4 0 0 0-.1-.6c-.4-.3-.8-.6-1-1a.4.4 0 0 0-.6-.1c-.2.1-.2.4-.1.6.4.5.8 1 1.3 1.2.1.1.2.1.3.1zm7-3.2c.2-.1.3-.3.3-.5l-.4-1.8a.4.4 0 0 0-.5-.3c-.2.1-.4.3-.3.5l.4 1.8c.1.2.3.4.5.3h0zm7 .3l1.2-1.8c.1-.2.1-.4-.1-.6a.4.4 0 0 0-.6.1l-1.2 1.8c-.1.2-.1.4.1.6.1.1.2.1.3.1s.2-.1.2-.2zm4.6 14.8a.4.4 0 1 0-.3.8c.6.3 1.2.7 1.6 1.2.1.1.3.2.4.1.1 0 .1 0 .2-.1.2-.1.2-.4 0-.6a5.1 5.1 0 0 0-1.9-1.4zm-13.7-8.8c.2-.1.3-.3.2-.5a.4.4 0 0 0-.5-.2c-1.6.6-2.4 2.5-2.4 4 0 1.6.6 3 1 4.5.1.2.3.3.5.3.2-.1.3-.3.2-.5-.5-1.3-1-2.7-1-4 0-1.2.6-2.7 2-3.2zm2.4 7.7c-.3 0-.7-.2-.8-.4a.6.6 0 0 1 0-.5c0-.1.1-.1.2-.2.3 0 .5.4.6.8v.3zm3-1.4l.3-.7c.1 0 .1-.1.2-.1h.2c.1 0 .1.2.1.3 0 .2-.2.4-.3.5l-.6.5.2-.5zm-4.7 0c-.2.4-.2 1 .1 1.4.3.5 1 .8 1.7.8.2 1.6 0 3.2-.6 4.7-.1.2 0 .5.2.5s.4 0 .5-.2c.6-1.6.8-3.3.6-5 .3 0 .6-.1 1-.2-.1 2.2.4 4.4 1.6 6.2.1.1.3.2.4.2h.1c.2-.1.2-.4.1-.6-1.2-1.8-1.7-4-1.5-6 .5-.3 1-.6 1.3-1 .2-.2.4-.5.5-1s-.1-1-.4-1.2c-.4-.3-1-.2-1.4.2-.3.3-.4.7-.5 1l-.3 1.3c-.4.1-.8.3-1.2.3 0-.2-.1-.3-.1-.5-.2-1-.8-1.5-1.4-1.5-.4 0-.7.3-1 .6zm16.4-7a.4.4 0 0 0-.5-.2l-2 .7c-.2.1-.3.3-.2.5s.3.3.5.3l2-.7c.2-.1.3-.3.3-.5zM88.3 95l-1-7 45.2-25.6a271 271 0 0 1 13 10.3l-20.4 12a32.3 32.3 0 0 1-4.6-4.4l13.7-7.2c.4-.2.5-.7.3-1a.8.8 0 0 0-1.1-.3 489.4 489.4 0 0 0-36.3 20.3c-.4.2-.5.7-.3 1s.7.5 1 .3a843 843 0 0 1 9.8-6l.5 6.8-19 10.2a132 132 0 0 0-1.2-9.6zM73 62a3.2 3.2 0 0 1 1.2-4.4l39-22a3.2 3.2 0 0 1 4.4 1.2l14 24.6L87 86.6 73 62zm46.3 19.3a33.5 33.5 0 0 0 4.6 4.5l-14 7.8-.5-6.8 9.8-5.5zm27.4-5.2c-.7 1-2 1.8-3 2.5l-49 28c-1 .6-2 1.2-3 1-.5 0-1-.3-1.2-.7-.2-.2-.2-.4-.2-.6a919.9 919.9 0 0 0 57-32.3c.3.7.1 1.6-.3 2.2zm-58 31.6c.5.8 1.5 1.4 2.5 1.5 1.5.1 2.8-.6 3.8-1.2h.2l49-28c1.2-.7 2.8-1.6 3.7-3 1-1.5 1-4-.7-5a.7.7 0 0 0-.4-.1l-14-11-14-25a4.8 4.8 0 0 0-6.5-1.8l-39 22a4.8 4.8 0 0 0-1.8 6.5l14.2 25c.2 2.2.6 4.7 1 7.4.6 4 1.3 8 1.3 11 0 .3.1.5.3.6 0 .4.2.8.4 1.2zm37.7-48.4L88 81a.3.3 0 0 1-.4-.1L76 60.7a.3.3 0 0 1 .1-.4l38.5-21.7 11.7 20.7zm-11.8-22.5l-39 22c-1 .5-1.2 1.7-.7 2.6l11 20.3c.5 1 1.7 1.2 2.6.7l39-22c.4-.2.5-.7.3-1l-12.5-22a.8.8 0 0 0-1.1-.3z" class="B"/><path d="M83.4 67.3l13.3-14c0 0 .1-.1.1-.1.1-.2 0-.4-.1-.6a.5.5 0 0 0-.7 0l-13.2 14c-.2.2-.2.5 0 .7.2.2.5.2.7 0zm7.3 5.4a531.5 531.5 0 0 0 22.6-26c0 0 .1-.1.1-.2.2-.3.2-.6 0-.7-.2-.2-.6 0-1 .3a531.8 531.8 0 0 1-22.5 25.9c-.3.3-.4.7-.2 1 .2.2.6.1 1-.2zm15-5L118.3 52c0 0 0-.1.1-.1a.5.5 0 0 0-.8-.5L105 67.2c-.2.2-.1.5.1.7.2.2.5.1.7-.1z" class="B"/></g><g class="C"><path d="M23.2 76.5c-.8-9.3 3.7-15.5 8.7-20a69 69 0 0 1 21.4-12.1c7-2.8 14.3-5 21.5-7.4 9-3 17.3-7.2 26-10.8a138 138 0 0 1 35.2-10.4c10.8-1.4 23.2-1.3 35.3 4.2 20.6 9.4 40.7 42.3 34.7 63-.3 1-2 3.7-1.6 4.8l2.6 7.8c2.2 7.7 3 15.2 2.3 22 .4 0 .8 0 1.2 0a137 137 0 0 0-7.6-7.6l-8-7-4.6-3.5c-1.3-1-3-2.6-4.4-3-1-.3-2.3.4-3.2.6l-4 .8c-5.8 1-11.3 2.7-16.5 5-11.3 4.8-21.5 11.7-32 18l-16 9a63 63 0 0 1-15.2 5.7C86 138 69 131.2 55.2 122c-15-10-29.7-26.4-32-45.6-.1-1-1.6-1.5-1.4-.4 2.7 23 22 41.4 39.7 51.4 9.3 5.3 19 8.7 28 10 10.2 1.3 18.6-2.6 26.7-6.6 18-9 33.4-22 52.6-28.6 3.8-1.3 7.7-2 11.6-2.8l3.8-.8 1.5-.3c.7-.1 3 2 3.8 2.5 6.8 5 13.7 11 19.7 17.7.4.5 1 .6 1.2 0a59 59 0 0 0-1.5-19.9 81 81 0 0 0-2.5-8.4c-.5-1.5-.8-2-.3-3l1.2-3.3c2.7-9 .4-20.2-4.7-31-5.5-11.8-14-23-24-30-10-7.2-21-9-30.7-9.2-25.5-1-46.5 10.6-67.7 19.5-13.8 5.8-28.8 8.8-41.6 16.4-8.4 5-18 12.7-16.8 26.7.1 1 1.5 1.5 1.4.4v.1z" class="B"/><path d="M206.3 67c1 1.5-.5 5.4-1 6.6-1.2 3.5-2.4 5.8-4.8 8-4 3.7-9.3 5.6-15 6.2-2.7.3-5.3 1-8 1.5-24.8 3.8-43 21.4-64.4 32-7.4 3.6-15 6.8-24.2 6a72 72 0 0 1-26.9-8.6c-17.2-9-36-26.5-38.5-48.7-.1-1-1.6-1.5-1.4-.4 2.7 23.3 22.2 41.4 40.4 51 9.4 5 19 8 28 8.5 10.4.7 19.2-4 27.4-8.2l31.7-18.8A116 116 0 0 1 166 94c4.6-1.7 9.4-2.6 14.3-3.7 3.7-.8 7.7-1 11.3-2 4.3-1 8-3.4 11.2-6.5 2-2 3.3-5 4.3-8.3.5-1.7 1.5-4.4.6-6.7 0-.1-.1-.3-.2-.4-.6-1-1.8-.5-1.2.5h0zm.6 29.4c.6 5.8.2 11.3-1.5 16-.2.6 1 2.7 1.3 2a38 38 0 0 0 1.6-16.7c-.1-.7-1.5-2.6-1.4-1.3z" class="B"/><path d="M206.2 94c-1 5.3-1.6 11.5-4.8 15-.4.4.8 2.5 1.3 2 3.3-3.6 3.8-10 5-15.4.2-.7-1.2-2.6-1.4-1.7zm-1.5-5.5c-1.2 3-2.2 6-3.2 9-1 3-3 5.2-4.7 7.5-.4.5 1 2.6 1.3 2 1.8-2.3 3.6-4.5 4.7-7.5 1-3 2-6 3.2-9 .2-.6-1-2.6-1.3-2z" class="B"/><path d="M204.2 77.4c1 4 1 8 .1 11.3-.2.7 1 2.7 1.3 2 1-3.5 1-8-.1-12.5-.2-1-1.7-2.3-1.3-.8zm-2.2 4c1.2 4.3-1.3 7.7-2.8 10.3-2 3.5-3.7 7.3-6.4 10.2-.4.4.8 2.5 1.3 2 3-3.2 5-7.6 7.2-11.6 1.5-2.7 3.2-6 2-10-.3-1-1.7-2.3-1.3-.8zm-4.2 2.4c-.8 3.6-3 5.3-5 7.8-1.6 2.2-2.2 5.5-4.4 7-.5.3.7 2.5 1 2.2 2.3-1.5 3-4.8 4.6-7 1.8-2.8 4.2-4.3 5-8 .1-.6-1.2-2.6-1.4-1.7h0zM190 87c-.4 4-2 7.5-4.4 9.6-.5.4.7 2.5 1 2.2 2.7-2.2 4.3-6 4.7-10 .1-.7-1.3-2.6-1.4-1.7zm-6.5 1.2c.3 2-.4 3.5-1 5s-1 2.7-1.7 4c-.3.6 1 2.6 1.3 2 1.2-2.6 3.4-6 2.7-9.6-.1-.7-1.6-2.6-1.4-1.3zm-4.2 1c-1 3.2-2.2 6.2-4 8.7-.3.5 1 2.6 1.3 2 1.7-2.5 3-5.5 4-8.7.2-.7-1-2.7-1.3-2zm-4.8.8c.1 3.8-1.4 6.7-3 9.3-.3.5 1 2.6 1.3 2 1.6-2.7 3.2-5.7 3-9.6 0-.7-1.4-2.7-1.4-1.7zm-4 1c-2.3 2-2.2 6.5-3.2 9.8-.2.7 1 2.7 1.3 2 1-3 .8-7.7 3-9.6.5-.4-.7-2.5-1-2.2zm-5.4 1.7c-.6 1.2-.6 3-.8 4.4-.2 2-1.2 3.4-1.4 5.3-.1.7 1.3 2.7 1.4 1.7.2-1.7 1-3 1.3-4.5.4-1.6.2-3.5 1-5 .3-.6-1-2.6-1.3-2h0zm-5 1.8c.2 1.8-.7 2.8-1.2 4-.5 1.4-.3 3.3-.6 4.8-.1.6 1.2 2.6 1.4 1.7.3-1.8.2-4 1-5.5.6-1.2 1-2.2 1-4-.1-.7-1.5-2.6-1.4-1.3zm-5 3a41 41 0 0 0-.9 8.5c0 .7 1.4 2.7 1.4 1.7a41 41 0 0 1 .9-8.5c.2-.6-1.2-2.6-1.4-1.7zm-4.4 2.3c-.5 3-1.2 6-1 9.5 0 .7 1.4 2.5 1.4 1.3-.1-3.3.7-6 1-9 .1-.7-1.3-2.6-1.4-1.7zm-4.8 1.8c0 3.2.2 6.4.8 9.7.1.7 1.6 2.6 1.4 1.3-.6-3.2-.8-6.3-.8-9.3 0-.7-1.4-2.7-1.4-1.7zm-3.6 3c-.1 3 .3 6 0 9-.1.7 1.3 2.7 1.4 1.7.3-3-.1-6 0-9 0-.7-1.4-2.7-1.4-1.7zm-3.3 1.8c-.5 2.6.8 6 0 8.5-.2.7 1 2.7 1.3 2 .8-2.6-.5-6 .1-8.8.1-.6-1.2-2.6-1.4-1.7zm-3.2 2c-.4 1.2-.5 2.5-.4 4 .1 1.4 1 3.8.5 5-.3.6 1 2.6 1.3 2 .5-1 .2-2-.1-3.3-.5-2-.5-4 0-5.5.2-.6-1-2.7-1.3-2zm-4 2c-.3 1.7-.6 3.4-1 5-.3 1.6 0 3.5.1 5.2.1.7 1.5 2.6 1.4 1.3-.1-1.7-.4-3.3-.1-4.8l1-5c.1-.6-1.2-2.6-1.4-1.7zm-4.3 3.4c.4 1.5.2 3 .2 4.3 0 1.3.4 2.7.3 4-.1.7 1.3 2.7 1.4 1.7.1-1.5-.3-3.2-.3-4.8 0-1.4.1-2.8-.3-4.3-.2-1-1.6-2.3-1.3-.8zm-2.7 1.6c-.5 1.7-.5 3.7-.8 5.5-.2 1.5-.5 2.8 0 4.6.3 1 1.7 2.3 1.3.8-.5-1.6.1-3 .3-4.5.2-1.6.3-3.2.7-4.7.2-.6-1.2-2.6-1.4-1.7h0zM120 118c.4 1.3.1 2.5-.1 3.7-.2 1.3-.2 2.8-.2 4.2 0 .7 1.4 2.7 1.4 1.7 0-1.6 0-3.3.3-4.8.2-1.2.3-2.5-.1-4-.2-.5-.5-1.2-1-1.4-.4-.3-.5.3-.4.6h0zm-3.4 1.8c-.3 3-.4 6.2-1.8 8.5-.3.5 1 2.6 1.3 2 1.5-2.3 1.6-5.6 2-8.8.1-.7-1.3-2.7-1.4-1.7zm-4.6 1.5c.7 3.7-1 6.3-.8 10 .1.7 1.5 2.6 1.4 1.3-.3-3.6 1.5-6 .8-10-.1-.7-1.6-2.6-1.4-1.3zm-4.5 2.2c-.1 3.3-1 6-.5 9.6.1.7 1.6 2.6 1.4 1.3-.5-3.4.4-6 .5-9.2 0-.7-1.4-2.7-1.4-1.7zm-3.7 2c-.3 1.7-.8 3.3-1.2 5-.3 1.5-1 3-.8 4.6 0 .7 1.5 2.6 1.4 1.3-.1-1.5.6-3 1-4.2.3-1.7 1-3.2 1.2-5 .1-.7-1.2-2.6-1.4-1.7zm-4.2 1c-.3 3.5-2.5 5.7-2.8 9.2 0 .7 1.3 2.7 1.4 1.7.3-3.6 2.5-5.7 2.8-9.2 0-.7-1.3-2.7-1.4-1.7zm-5 .4a41 41 0 0 0-1.1 4.6c-.2 1.3-.8 2.7-.7 4 0 .5.3 1 .6 1.6.2.3.8.7.8.2 0-1.3.5-2.4.7-3.7.3-1.6.6-3.2 1-4.7.2-.7-1-2.7-1.3-2zm-3.4.2c-1.3.7-2 2.3-2.6 3.8-.4.8-1 1.4-1.5 2-.4.6-.5 1.6-.8 2.3-.3.6 1 2.6 1.3 2 .3-.6.4-1.2.6-2 .3-1 1-1.4 1.5-2 1-1.3 1.2-3.2 2.7-4 .5-.3-.6-2.5-1.2-2.2zm-6.8-.5c-1.8 1.8-2.8 4.7-3.2 7.6-.1.7 1.3 2.7 1.4 1.7.3-3 1.4-5.6 3-7.3.4-.4-.8-2.5-1.3-2zm-5.6-1l-2.4 7.2c-.2.6 1 2.7 1.3 2 .8-2.4 1.5-5 2.4-7.2.2-.6-1-2.7-1.3-2zm-4.6-1.3c.3 1-.6 2-.8 3-.4 1.3-.6 2.7-1 4-.1.7 1.2 2.6 1.4 1.7.3-1.6.5-3.2 1-4.5.4-1 .8-2 .5-3.4-.2-1-1.6-2.3-1.3-.8zm-4.2-2.2c-.4 1-1 2-1.5 3-.6 1.2-1 2.6-1.3 4-.2.6 1 2.7 1.3 2l1-3.6c.5-1.2 1.2-2 1.7-3.4.2-.6-1-2.7-1.3-2zm-5.7-2c0 2.5-1.6 4-2.2 6-.2.6 1 2.7 1.3 2 .7-2.2 2.3-3.8 2.3-6.4 0-.5-.3-1-.6-1.5-.2-.3-.8-.7-.8-.2zm-4.5-2c-.3 2.4-2.4 3.3-2.8 5.6-.1.7 1.2 2.6 1.4 1.7.4-2.3 2.5-3.2 2.8-5.6.1-.7-1.3-2.7-1.4-1.7zm-5.8-4c-.8 2-1.8 3.7-2.7 5.6-.3.6 1 2.6 1.3 2l2.7-5.6c.2-.6-1-2.6-1.3-2zm-4.4-2.5c-.4 2-2 3-2.4 5-.1.6 1.2 2.6 1.4 1.7.4-2 2-3 2.4-5 .1-.6-1.2-2.6-1.4-1.7zm-4-3.2c-.6 1.7-1.8 2.8-2.4 4.4-.2.6 1 2.7 1.3 2 .6-1.7 1.8-2.7 2.4-4.4.2-.6-1-2.7-1.3-2zm-5-4c-.5 1.6-1.5 2.7-2.2 4-.3.6 1 2.6 1.3 2 .7-1.4 1.7-2.5 2.2-4 .2-.7-1-2.7-1.3-2zm-4.2-5c-.8 1.3-1.3 3-2 4.3-.3.6 1 2.7 1.3 2 .6-1.5 1.2-3 2-4.3.3-.5-1-2.6-1.3-2zm-4.3-5c.5 1.7-.6 3.2-1.3 4.2-.3.5 1 2.6 1.3 2 1-1.4 1.8-3.2 1.2-5.4-.1-.5-.5-1.2-1-1.4-.4-.3-.4.3-.3.6zM28.6 89c.2 1.4-.3 2.5-1 3-.5.4.7 2.5 1 2.2 1-.7 1.6-2.2 1.4-4-.1-.5-.4-1.2-.8-1.5-.4-.3-.6-.2-.6.2h0zm-2.8-5.4c.1 1-.6 1.5-1 2-.4.4.8 2.5 1.3 2 .7-.7 1.3-1.3 1.2-2.7 0-.5-.4-1.2-.8-1.5-.4-.3-.6-.2-.6.3z" class="B"/></g><g class="B"><defs><path id="AE" d="M0 0h460v460H0z"/></defs><clipPath id="AF"><use xlink:href="#AE"/></clipPath><path d="M70.8 286.3c-9-12.7 31.2-59.4 39.4-68.6.8-1 2.2-1 3-.3l26 19.3s-25.5 44-44.3 53.2c-14.6 7.2-24-3.6-24-3.6z" class="D G"/><path d="M72 279c-1.6 5.2 3.3 10 8.5 8.5 1.8-.6 3.8-1.5 6.2-3 14.7-9 28.8-44.3 34.6-55.8.5-1 0-2-1-2.4-2.6-.7-4.5-2.4-6-4.8-.6-1-2-1-2.7-.2-6.8 7.7-33.7 39-39.4 57.5h0z" class="D E"/><path d="M107.4 251a.7.7 0 0 0-.9.1L95 264.3a95 95 0 0 0-17 23.3v.1c.5 0 1 0 1.5-.1 4.8-9.4 9.7-15 16.5-22.5a737 737 0 0 0 11.5-13.3c.2-.3.2-.7-.1-1zm-35 31.8c0-.3.1-.6.2-1 5.7-18.6 32.6-49.8 39.5-57.5.7-.8 2-.8 2.7.2l.3.4c-5.5 6-33 36-42.6 58zm47.8-56.5c-.1 0-.2-.1-.3-.1l-1.2-.5a9.4 9.4 0 0 1-1.6-1c-.3-.3-.7-.5-1-.8-.7-.7-1.3-1.5-2-2.4-.6-1-2-1-2.7-.2-6.8 7.7-33.7 39-39.4 57.5-.5 1.6-.3 3 .2 4.5 0 .1.1.2.2.3v.1c.2.4.4.7.6 1 8.8-21.5 37-52.4 43-59 .4.4.8 1 1.2 1.2a244 244 0 0 0-43.6 58.2l1 1a238 238 0 0 1 43.6-58.3l.5.3a302 302 0 0 1-21.2 28.2c-8 10-15.7 19.2-21.5 30.6.4.2.8.3 1.3.4 5.7-11 13-20 21.2-30l21.4-28.5a8 8 0 0 0 1.2.4h.1l.3-.7c.5-1 0-2.2-1-2.4z" class="D" fill="#b4cc77"/><path d="M120.8 327.6l-50-41.3s8 4 17-6.8c7.8-9.3 28.7-46.5 34.3-56.4a2.3 2.3 0 0 1 3.5-.7l62.8 52-39 60c-7.8 6-19.4-.5-19.4-.5l-9.2-6.4h0z" class="D G"/><circle transform="rotate(346.3 121.5 272.7)" cx="121.5" cy="272.7" r="15.5" class="C D"/><path d="M123.7 272.7l.6-.8c.6-1 1.2-1 2-.3l1.5 1c.6.5.8 1 .3 1.7l-.7 1-3.7-2.7zm-3.7-5.5l1 .8c1 .6 1 1.2.3 2l-.5.6-3.2-2.4.6-.8c.2-.3.5-.5.8-.6s.6.1 1 .3zm12 5.6c-.2-1.2-1-2.2-2-3l-1.2-1c-1.3-1-2.6-1.2-4-.8-.1-1.2-.7-2.3-2-3.2l-.8-.6c-1-.8-2.3-1.2-3.5-1-1.2.2-2.2 1-3 2l-2.6 3.5c-.1.1-.1.2-.1.3 0 .1.1.2.2.3l14.5 10.7c.1 0 .1.1.2.1.2 0 .3 0 .4-.2l2.7-3.7c.8-1 1.2-2.3 1-3.5h0z" class="D E"/><path d="M105.7 320.3c-4.7.1 5 5.8 9.8 2.5 3.7-2.6 2.7-4.6-.2-4.7-2.8-.1-6.4 2-9.6 2.2z" class="C D"/><path d="M102 317.7c.8 4.4 7.2 5 10.5 1.6s1-5.7-4.3-4.2-6.2 2.6-6.2 2.6z" class="D E"/><path d="M113.2 319.7c.8-1 1.4-1.7 1.6-2.5.3-.8.2-1.6-.3-2.3-.5-.6-1.2-1-2-1-1-.1-2-.1-3.2.2l.3 1.4c1-.2 2-.2 2.7-.1.7.1 1 .3 1.2.5.1.2.2.5.1 1-.2.5-.6 1-1.3 2l1 1zm-11.8-2c.5 2.6 2.6 4 5 4.3 2.3.3 5-.5 7-2.4l-1-1c-1.5 1.6-3.7 2.2-5.6 2-2-.2-3.4-1.4-3.7-3l-1.4.3zm7.8-3.7c-.4.1-.7.5-.6 1s.5.6.8.6l-.3-1.4zm3.4 5.2l.5.5-.5-.5zm-9.8-1.7a.7.7 0 0 0-1.4.3l1.4-.2z" class="C D"/><path d="M97 314c1.2 3.7 4 6 8.4 4.2 4.3-2 6.5-7 4.8-8.4-1.6-1.4-13.3 4.2-13.2 4.2z" class="D E"/><path d="M105.8 318.8c2.3-1 4-3 5-4.7.5-1 .8-1.8.8-2.6 0-.8-.2-1.7-.8-2.2l-1 1c.2.1.3.4.3 1 0 .6-.2 1.3-.7 2-.8 1.6-2.3 3.2-4.3 4l.6 1.3zm-9.4-4.6a8 8 0 0 0 3.4 4.6c1.7 1 3.7 1 6 0l-.6-1.3c-2 1-3.5.7-4.7.1-1.2-.7-2.2-2-2.7-3.8l-1.4.4zm14.4-5a.7.7 0 0 0-1 .1c-.2.3-.2.8.1 1l1-1zm-5.3 9l.3.7-.3-.7zm-7.7-4.4a.7.7 0 0 0-.9-.5c-.4.1-.6.5-.5 1l1.4-.4z" class="C D"/><path d="M97 307.8c-3.5 2.7-5.2 9 1.8 8s10.6-5.5 10-9c-.4-2.6-6 .2-8.5 1.7-.8.5-1.8.4-2.6-.2l-.8-.6z" class="D E"/><path d="M109.4 307c-.1-.7-.5-1.2-1.2-1.5-.6-.2-1.2-.2-2-.1-1.3.2-2.8 1-4 1.5l.6 1.3c1.3-.6 2.7-1.2 3.7-1.4.5-.1 1-.1 1 0 .1.1.2.1.3.4l1.4-.2zm-10.7 9.8c3.6-.5 6.4-2 8.3-3.7 1.8-1.8 2.7-4 2.4-6l-1.4.2c.2 1.4-.4 3.2-2 4.8-1.6 1.6-4 3-7.4 3.3l.2 1.4zm-2.3-9.4c-1 .7-1.8 1.7-2.4 2.8-.6 1-1 2.2-1 3.3 0 1 .4 2 1.4 2.8 1 .6 2.4 1 4.2.6l-.2-1.4c-1.7.2-2.7 0-3.2-.4-.5-.4-.8-1-.8-1.6 0-.7.3-1.6.8-2.5a7.9 7.9 0 0 1 2-2.3l-1-1zm5.8-.5c-.4.2-.5.6-.3 1s.6.5 1 .3l-.6-1.3zm6.4.2l-.7.1.7-.1zm-11.4 1.4c.3-.2.4-.7.1-1a.7.7 0 0 0-1-.1l1 1.2z" class="C D"/><path d="M206 337c4 16.3-47 20.8-70 12.6-20-7-15.2-22-15.2-22l51.7-4.2a49 49 0 0 1 19.6 2.2c6 2 12 5.4 14 11.3z" fill="#152409" class="D"/><path d="M206.3 394.2c7 5.2 13.8 20 14.6 20.3s6.7 1.2 7-8c.2-9.2-4.2-17.5-4.2-17.5s2-10.4-6-15.3c-8-5-17.2 4.6-17.2 4.6s-1.4 7.6 6 16h0z" class="C D"/><path d="M179.4 352.6l-2.2 28.5 25.3-6.7s8.2 12.8 5.5 25.4c0 0-33.2 21.2-50.3 23-17 1.8-20.8-45.4-18-58.4 3-13 24.3-27.2 39.6-11.8z" class="D E"/><g class="D"><defs><path id="AG" d="M179.4 352.6l-2.2 28.5 25.3-6.7s8.2 12.8 5.5 25.4c0 0-33.2 21.2-50.3 23s-20.8-45.4-18-58.4c3-13 24.3-27.2 39.6-11.8z"/></defs><clipPath id="AH"><use xlink:href="#AG"/></clipPath><path d="M179.7 350.6l-.6 4h0l.6-4zm-38 14.2c1.3-5.8 6.8-12 14-15.2 7-3 15.2-2.7 22.2 4.4l2.8-2.8c-8.3-8.4-18.4-8.7-26.6-5.2a28 28 0 0 0-16.3 18l4 1zm15.7 56c-3 .3-6-1.5-8.5-5.6a53 53 0 0 1-5.8-16.5c-1.3-6.5-2-13.4-2.3-19.6-.2-6.2.1-11.4.8-14.4l-4-1a68 68 0 0 0-.9 15.4l2.3 20.2c1.4 6.7 3.4 13 6.3 17.8 3 4.6 7 8 12.3 7.5l-.4-4zm50.5-21l-1-1.7s0 0 0 0c0 0 0 0-.1 0l-.3.2-1 .7-4 2.4-13.2 7.4-16.3 7.7a58 58 0 0 1-14.5 4.2l.4 4c4.5-.5 10-2.2 15.6-4.5l16.7-8 13.4-7.5 4-2.4c.5-.3.8-.5 1-.7l.3-.2h.1c0 0 0 0 0 0h0c0 0 0 0-1-1.7zm-5.5-25.4l-1.7 1s0 0 0 0c0 0 0 .1.1.1v.4c.2.4.5 1 .8 1.5a44 44 0 0 1 2.4 5.5c1.7 4.6 3 10.6 1.6 16.4l4 1c1.5-7 0-13.6-1.8-18.6a47.1 47.1 0 0 0-3.6-7.7l-.3-.5-.1-.1c0 0 0 0 0 0h0c0 0 0 0-1.7 1zm-24.8 8.6l25.3-6.7-1-4-25.3 6.7 1 4zm-.4-30.6l-2.2 28.5 4 .3 2.2-28.5-4-.3zm2 .2l-.3 2 6 1-4.2-4.3-1.4 1.4zm-39.6 11.8l2 .4-2-.4zM208 400l1 1.7.7-.4.2-.8-2-.4zm-5.5-25.4l1.7-1-.8-1.2-1.4.4.5 2zm-25.3 6.7h-2l-.2 2.8 2.7-.7-.5-2zm2.2-28.5l.3-2-2-.3-.2 2 2 .1z" clip-path="url(#AH)" class="C"/><path d="M202.5 374.5l-5 1.3c.1.5.3 1 .6 1.5.1.1 7 11.3 4.8 21.5-.3 1.4 0 2.7.7 3.8 2.7-1.6 4.4-2.7 4.4-2.7 2.8-12.7-5.5-25.4-5.4-25.4z" class="E"/><defs><path id="AI" d="M202.5 374.5l-5 1.3c.1.5.3 1 .6 1.5.1.1 7 11.3 4.8 21.5-.3 1.4 0 2.7.7 3.8 2.7-1.6 4.4-2.7 4.4-2.7 2.8-12.7-5.5-25.4-5.4-25.4z"/></defs><clipPath id="AJ"><use xlink:href="#AI"/></clipPath><path d="M202.2 376.4l.6-4h0l-.6 4zm7.7 24c1.5-7 0-13.6-1.8-18.6a48.7 48.7 0 0 0-2.6-6l-1-1.7-.3-.5-.1-.1c0 0 0 0 0 0h0l-1.7 1-1.7 1s0 0 0 0c0 0 0 .1.1.1v.4c.2.4.5 1 .8 1.5a44 44 0 0 1 2.4 5.5c1.7 4.6 3 10.6 1.6 16.4l4 1zm-5.3 4a312.6 312.6 0 0 0 3.3-2l1-.5.2-.1c0 0 .1 0 .1 0 0 0 0 0 0 0l-1-1.7-1-1.7c0 0 0 0-.1 0l-.2.1-1 .5-3.2 2 2 3.4zm-3.6-6c-.4 2 0 3.8 1 5.3l3.4-2c-.4-.7-.6-1.5-.4-2.3l-4-1zm-4.5-20c0-.1 1.6 2.6 3 6.5 1.4 4 2.4 9 1.4 13.5l4 1c1.2-5.7-.1-11.4-1.6-15.7a40 40 0 0 0-3.5-7.4l-3.3 2.2zm-1-2c.2.7.4 1.4 1 2l3.4-2c-.2-.2-.3-.6-.4-1l-4 1zm6.4-3.7l-5 1.3 1 4 5-1.3-1-4zm.5 2l.3-2-4.4-.6 2.4 3.7 1.7-1zM208 400l1 1.7.7-.4.2-.8-2-.4zm-4.4 2.7l-1.7 1 1 1.7 1.7-1-1-1.7zm-.7-3.8l-2-.4h0l2 .4zm-4.7-21.5l-1.7 1h0 0l1.7-1zm-.6-1.5l-.5-2-2 .5.5 2 2-.5zm5-1.3l.5 2-.2-4-.3 2z" clip-path="url(#AJ)" class="C"/><path d="M116.5 441c-2.7 10-8 17.8-10.7 18.2-2.8.4-10.5-2-16.3-7-5.8-5-19.2-9.6-20.6-15-.4-1.6-.5-3-.3-4.4.3-2.6 2.8-4.3 5.4-3.7 7 1.7 21.5 4.3 28.2-2.4 8.8-9 17.2 3.7 14.4 14.2z" class="C"/><path d="M189.3 337.5c-.5 24-19.5 31.6-19.5 31.6l-21 32-26 41.8s-17 4.4-26-15.7l27-49.6c9.3-14.7 21.4-46.7 21.4-46.7s11.5-17.4 36.7-5.8c4.8 2.2 8 7 7.7 12.4z" class="E"/><defs><path id="AK" d="M189.3 337.5c-.5 24-19.5 31.6-19.5 31.6l-21 32-26 41.8s-17 4.4-26-15.7l27-49.6c9.3-14.7 21.4-46.7 21.4-46.7s11.5-17.4 36.7-5.8c4.8 2.2 8 7 7.7 12.4z"/></defs><clipPath id="AL"><use xlink:href="#AK"/></clipPath><path d="M189.6 335.6l-.6 4h0l.6-4zm-9-8.6c4 2 6.7 6 6.6 10.5l4 .1c.1-6-3.4-11.7-9-14.2l-1.7 3.6zm-36 4l1.7 1s0 0 0 0c0 0 0-.1.1-.1.1-.1.2-.3.3-.4.3-.4.8-1 1.5-1.6 1.3-1.3 3.4-3 6.2-4.3 5.5-2.6 14-4 26 1.5l1.7-3.6c-13-6-23-4.6-29.5-1.4a27.2 27.2 0 0 0-7.2 5.1c-.8.8-1.4 1.5-1.8 2a18.9 18.9 0 0 0-.6.8c0 0 0 0 0 .1 0 0 0 0 0 0h0c0 0 0 0 1.7 1zM125 378.7c4.7-7.5 10-19.3 14.3-29l5.2-12.6 1.5-3.8.4-1 .1-.3v-.1c0 0 0 0 0 0l-2-.7-2-.7s0 0 0 0 0 0 0 .1c0 .1-.1.1-.1.3l-.4 1-1.5 3.8-5.2 12.6-14 28.6 3.4 2zm-28.6 48.5l1.8 1s0 0 0 0h0c0-.1.1-.2.2-.3l.6-1 2-4 7-13.6 17-30.2-3.4-2-17 30.4-7 13.6-2 4-.6 1c-.1.1-.1.2-.2.3 0 0 0 .1 0 .1 0 0 0 0 0 0 0 0 0 0 1.8 1zm26 15.7l-.5-2h0c0 0 0 0-.1 0h-.5l-1.8.2c-1.6.1-3.8 0-6.3-.6-4.8-1.3-11-4.8-15-14.2l-3.6 1.6c4.7 10.6 11.8 15 17.8 16.5 3 .8 5.6 1 7.5.7l2.3-.2h.7.2c0 0 0 0 .1 0h0c0 0 0 0-.5-2zm24.4-43l-26 41.8 3.4 2 26-41.8-3.4-2zm21-32l-21 32 3.3 2.2 21-32-3.3-2.2zm19.2-30.5c-.3 11.5-5 19-9.4 23.5a31.7 31.7 0 0 1-6.2 4.9l-2 1-.5.2c-.1 0-.1 0-.1.1 0 0 0 0 0 0l.7 2 .7 2h0s0 0 0 0 0 0 .1 0h.2l.7-.3c.6-.3 1.4-.7 2.3-1.3 2-1 4.4-3 7-5.5 5-5.2 10.2-13.6 10.5-26.2l-4-.1zm2 .1l-.3 2 2.3.3.1-2.3-2-.1zm-7.7-12.4l.8-1.8-.8 1.8zm-36.7 5.8l-1.7-1h-.1v.2l2 .7zm-21.4 46.7l-1.7-1 1.7 1zm-27 49.6l-1.8-1-.4 1 .4 1 1.8-.8zm26 15.7l.5 2 .8-.2.4-.7-1.7-1zm26-42l-1.7-1h0 0l1.7 1zm21-32l-.7-2-.6.2-.3.5 1.7 1zm19.5-31.6l.3-2-2.2-.3v2.3h2z" clip-path="url(#AL)" class="C"/><path d="M125.3 438.5c-1-.7-2.5-1-4-.7-1.3.3-13.3 2.6-20.2-12.8a5.1 5.1 0 0 0-2.4-2.5l-2.3 4.6c9 20 26 15.7 26 15.7l2.7-4.4z" class="E"/><defs><path id="AM" d="M125.3 438.5c-1-.7-2.5-1-4-.7-1.3.3-13.3 2.6-20.2-12.8a5.1 5.1 0 0 0-2.4-2.5l-2.3 4.6c9 20 26 15.7 26 15.7l2.7-4.4z"/></defs><clipPath id="AN"><use xlink:href="#AM"/></clipPath><path d="M124.3 444l2.7-4.4-3.4-2-2.7 4.4 3.4 2zm-29.6-16c4.7 10.6 11.8 15 17.8 16.5 3 .8 5.6 1 7.5.8l2.3-.2h.7.2c0 0 0 0 .1 0h0l-.5-2-.5-2h0c0 0 0 0-.1 0h-.5l-1.8.2c-1.6.1-3.8 0-6.3-.6-4.8-1.3-11-4.8-15-14.2l-3.7 1.6zm2.4-6.3l-1.7 3.4-.5 1-.1.2c0 0 0 .1 0 .1 0 0 0 0 0 0l1.8 1 1.8 1c0 0 0 0 0-.1 0-.1.1-.1.1-.2l.5-1 1.7-3.4-3.6-1.8zm6 2.6a7 7 0 0 0-3.3-3.4l-1.8 3.6c.6.3 1.2.8 1.5 1.5l3.7-1.6zm18 11.6c-.5.1-3.4.7-7-.4-3.4-1-7.7-4-11-11.2l-3.7 1.6c3.7 8.2 8.8 12 13.4 13.4 4.5 1.5 8.2.7 9 .5l-1-4zm5.5 1c-1.6-1-3.5-1.4-5.5-1l1 4c.8-.2 1.7 0 2.4.4l2-3.4zm-3.8 6l.5 2 .8-.2.4-.7-1.7-1zm-26-15.7l-1.8-1-.4 1 .4 1 1.8-.8zm2.3-4.6l1-1.8-1.8-1-1 1.8 1.8 1zm2.4 2.5l-1.8.8 1.8-.8zm20.2 12.8l.5 2-.5-2zm4 .7l1.7 1 1-1.7-1.7-1-1 1.7z" clip-path="url(#AN)" class="C"/><path d="M163.5 349.8c-.1 0-6.4-2.2-6-7.5a.6.6 0 0 0-.6-.7.6.6 0 0 0-.7.6c-.2 2.4.8 4.3 2 5.6-1 3-12 37.8-49 87.6.4.3.7.5 1 .7 35.4-47.6 47-81.6 49-87.2 1.8 1.5 3.7 2.2 3.8 2.2 0 0 .1 0 .1 0 .3.1.6-.1.7-.4.1-.3-.1-.7-.4-.8zM236.3 204c.7-4-1.5-7.8-5.3-10 2-1.5 3.4-3.6 3.8-6 1-5-2.7-9.6-8.2-11 .2-.4.3-1 .4-1.4 1-5.4-3.4-10.5-9.8-11.3-.7-.1-1.4-.1-2-.1-.1-4.7-4.2-9-10-9.6-2-.3-4.2 0-6 .6-1.7-2.8-4.8-5-8.7-5.4-4.8-.6-9.4 1.3-11.7 4.7-1-.4-2.2-.8-3.5-1-6.4-.8-12.4 3-13.3 8.4-.2 1.2-.2 2.4.1 3.6-4.8.8-8.7 4-9.4 8.3-1 5.4 3.4 10.5 9.8 11.3 2.5.3 5-.1 7-1 1.5 2.2 4 3.8 7 4.5 0 0 0 .1 0 .1-.7 4.3 1.8 8.3 6 10.2-.4 3.5 1.3 6.7 4.3 8.8-2.5 1.5-4.3 3.8-4.8 6.6-.4 2.4.2 4.7 1.6 6.6-1.4 1.4-2.4 3-2.7 5-1 5.4 3.4 10.5 9.8 11.3 3.4.4 6.7-.4 9.2-2.2 1.5 1 3.4 1.7 5.4 2 6.4.8 12.4-3 13.3-8.4.1-.7.2-1.4.1-2 6.2.5 11.8-3.2 12.7-8.4.4-2.5-.2-5-1.7-6.8 3.4-1.4 6-4 6.6-7.5h0z" class="C"/><path d="M158.7 231.4c3.7 7.3 2.7 22.3 2.7 22.3l24-5 .5-25.4-27.2 8z" class="E"/><defs><path id="AO" d="M158.7 231.4c3.7 7.3 2.7 22.3 2.7 22.3l24-5 .5-25.4-27.2 8z"/></defs><clipPath id="AP"><use xlink:href="#AO"/></clipPath><path d="M185.3 221.4l-27.2 8 1 3.8 27.2-8-1-3.8zm2 27.4l.5-25.4-4-.1-.5 25.4 4 .1zm-25.5 6.8l24-5-.8-4-24 5 .8 4zm-5-23.3a36 36 0 0 1 2.5 13.1 86 86 0 0 1 .1 5.8l-.1 1.8v.5c0 .1 0 .1 0 .1h0l2 .1 2 .1v-.1c0 0 0-.1 0-.1v-.5l.1-1.8-.1-6c-.2-4.7-1-10.6-3-14.7l-3.6 1.8zm29-9h2l.1-2.7-2.6.8.6 2zm-.5 25.4l.4 2 1.6-.3v-1.6h-2zm-24 5l-2-.1-.2 2.6 2.6-.5-.4-2zm-2.7-22.3l-.6-2-2.3.7 1 2 1.8-1z" clip-path="url(#AP)" class="C"/><path d="M169.4 176.2c-13 10.3-12.8 21.4-17 22.7-2 .6-3.6 1.4-5 2-1.5.8-1.8 2.8-.7 4l2 2.2c1 1.2 1.4 3 1 4.4-1.2 4.5-2.8 14.3 3 19.7 8 7.2 27.7 8 43-3.8s17.3-59-26.3-51.4z" class="E"/><defs><path id="AQ" d="M169.4 176.2c-13 10.3-12.8 21.4-17 22.7-2 .6-3.6 1.4-5 2-1.5.8-1.8 2.8-.7 4l2 2.2c1 1.2 1.4 3 1 4.4-1.2 4.5-2.8 14.3 3 19.7 8 7.2 27.7 8 43-3.8 15.3-11.7 17.3-59-26.3-51.4z"/></defs><clipPath id="AR"><use xlink:href="#AQ"/></clipPath><path d="M197 229.2c4.3-3.3 7.5-9 9.2-15a40 40 0 0 0 .5-19.9c-1.6-6.6-5.2-12.6-11.5-16.5-6.2-4-14.8-5.4-26-3.5l.7 4c10.6-1.8 18-.3 23.3 3 5.2 3.2 8.3 8.3 9.7 14a36 36 0 0 1-.4 17.9c-1.6 5.7-4.4 10.4-7.8 13l2.4 3.2zm-45.6 3.7c4.5 4 12 6 20.2 5.7a46 46 0 0 0 25.4-9.4l-2.4-3.2c-7.3 5.6-15.7 8.2-23.2 8.6-7.6.4-14-1.6-17.3-4.7l-2.7 3zm-3.7-21.6c-.6 2.3-1.4 6-1.2 10 .2 4 1.4 8.3 5 11.5l2.7-3c-2.4-2.2-3.4-5.4-3.6-8.8s.5-6.7 1-9l-4-1zm-.6-2.6c.6.7.8 1.7.6 2.6l4 1c.6-2.2.1-4.5-1.4-6.2l-3 2.6zm-2-2.2l2 2.2 3-2.6-2-2.2-3 2.6zm1.3-7c-2.6 1.4-3 5-1.3 7l3-2.6a.7.7 0 0 1 .2-1l-2-3.5zm5.3-2.3a29 29 0 0 0-5.3 2.3l2 3.5a25 25 0 0 1 4.5-2l-1.2-3.8zm16.5-22.4a44 44 0 0 0-12.4 15.4l-2.6 5.2c-.8 1.3-1.2 1.7-1.5 1.8l1.2 3.8c1.8-.6 3-2 3.8-3.6l2.7-5.4a40 40 0 0 1 11.3-14l-2.5-3zm-15.5 56.8l1.3-1.5-1.3 1.5zm-3-19.7l-2-.5h0l2 .5zm-1-4.4l-1.5 1.3h0l1.5-1.3zm-2-2.2l1.5-1.3-1.5 1.3zm.7-4l-1-1.7h0l1 1.7zm5-2l.6 2-.6-2zm17-22.7l-.3-2-.5.1-.4.3 1.2 1.6z" clip-path="url(#AR)" class="C"/><path d="M181.6 169.4c-6.3-.8-12.6 2.7-13.7 8-1 5 2.7 10 8.4 11.3 0 0 0 .1 0 .1-.7 4.3 1.8 8.3 6 10.2-.4 3.5 1.3 6.7 4.3 8.8-2.5 1.5-4.3 4-4.8 6.7-1 5.2 3.4 10.3 9.5 11.2 6.5 1 12.7-2.8 13.7-8.3l3.3-18.4c2.5-14.2-9-27.4-25.6-29.5l-1-.1z" class="C"/><path d="M187.2 209.8c9-.7 10.6 15-3 15s-7.7-15.6 3-15z" class="E"/><defs><path id="AS" d="M187.2 209.8c9-.7 10.6 15-3 15s-7.7-15.6 3-15z"/></defs><clipPath id="AT"><use xlink:href="#AS"/></clipPath><path d="M184.2 222.8c-3 0-4.6-1-5.3-1.7-.7-.8-1-2-.5-3.4 1-3 4.3-6 8.7-5.7l.3-4c-6.4-.4-11.4 4-12.8 8.6-.7 2.4-.5 5 1.2 7 1.7 2 4.6 3.2 8.3 3.2v-4zm3.2-11c1.6-.1 2.8.5 3.6 1.4.8 1 1.3 2.3 1.2 3.8a5.5 5.5 0 0 1-1.9 3.9c-1.2 1-3.2 2-6.2 2v4c3.8 0 6.8-1 9-3a9.5 9.5 0 0 0 3.2-6.7c.1-2.4-.6-4.8-2.2-6.6-1.6-1.8-4-3-7-2.7l.3 4zm-.2-2l-.1 2h.1.1l-.2-2z" clip-path="url(#AT)" class="C"/><path d="M186.8 246.7c0-3-2.4-5.2-5.2-5.2-27.7.3-33.8 8.4-42 32.4l-18.7 53.6s3.6 19.7 32.6 13.6c22.2-4.7 49-11 52.7-4.3 0 0 3.3 5.5-8.6-22.3-9.5-22-10.6-55-10.6-67.8h0z" class="C"/></g><g opacity=".6" class="D"><defs><path id="AU" d="M0 0h460v460H0z"/></defs><clipPath id="AV"><use xlink:href="#AU"/></clipPath><path d="M187 250.8l-6.5-.2-10 52.7c6.4-7 14-10.5 20.3-12.3-3-15.2-3.7-30.8-3.8-40.3z" clip-path="url(#AV)" fill="#4a6c8f"/></g><path d="M185.4 256.2c.7-9.3 8-16.8 17.2-17.4.1 0 .2 0 .3 0 11.6-.6 43 65.7 42 83.7S225.4 348 212 345c-12-2.7-29-56-26.7-88.6z" class="D E"/><g class="D"><defs><path id="AW" d="M185.4 256.2c.7-9.3 8-16.8 17.2-17.4.1 0 .2 0 .3 0 11.6-.6 43 65.7 42 83.7S225.4 348 212 345c-12-2.7-29-56-26.7-88.6z"/></defs><clipPath id="AX"><use xlink:href="#AW"/></clipPath><path d="M185.7 254.3l-.6 4h0l.6-4zm26.8 88.7c-1-.2-2.2-1-3.7-2.6-1.5-1.6-3-4-4.6-6.8-3.2-5.7-6.3-13.5-9-22.3-5.4-17.6-9-38.8-8-54.8l-4-.3c-1.2 16.7 2.5 38.4 8 56.3 2.8 9 6 17 9.3 23a41 41 0 0 0 5.1 7.5c1.7 2 3.6 3.4 5.7 4l1-4zm30.5-20.6c-.4 8.2-5 14-11 17.4-6 3.5-13.5 4.5-19.7 3l-1 4c7 1.6 15.7.4 22.6-3.6 7-4 12.3-11 13-20.7l-4-.2zm-40-81.6c.2 0 .7.1 1.4.4.7.3 1.5 1 2.4 1.8 1.8 1.7 4 4 6 7.3l14 24.3a248 248 0 0 1 11.7 27.8 64 64 0 0 1 4.4 20l4 .2c.3-5-1.7-12.8-4.7-21.5-3-8.8-7.3-19-12-28.3-4.6-9.4-9.7-18.3-14.3-25a50 50 0 0 0-6.7-7.9c-1-1-2-1.8-3.2-2.3-1-.6-2.2-1-3.4-1v4zm-.3 0c0 0 .1 0 .1 0 .1 0 .1 0 .2 0l-.3-4h-.1-.2l.3 4zm-15.4 15.6c.6-8.3 7-15 15.3-15.6l-.3-4c-10.3.7-18.3 9-19 19.3l4 .3zm-2-.1l2 .1.1-1.8-1.8-.3-.3 2zM212 345l-.4 2 .4-2zm-9-106l-.1-2h0l.2 2zm-.3 0l.1 2h0l-.2-2zm-17.2 17.4l-2-.1-.1 2 1.8.3.3-2z" clip-path="url(#AX)" class="C"/><path d="M203.2 269.2c.3-12.7-4-22-9.6-27.2a19 19 0 0 0-8.1 14.2C183 289 200 342.2 212 345c6 1.4 13.4.5 19.6-2.6-7.5-7-21.2-25.7-28.5-73h0z" class="E"/><defs><path id="AY" d="M203.2 269.2c.3-12.7-4-22-9.6-27.2a19 19 0 0 0-8.1 14.2C183 289 200 342.2 212 345c6 1.4 13.4.5 19.6-2.6-7.5-7-21.2-25.7-28.5-73h0z"/></defs><clipPath id="AZ"><use xlink:href="#AY"/></clipPath><path d="M201.6 270.4h0l3.2-2.4h0l-3.2 2.4zm31.5 70.4c-7-6.5-20.6-24.8-28-72l-4 .6c7.4 47.7 21.3 67 29.2 74.3l2.7-3zm-21.4 6c6.6 1.5 14.4.6 21-2.7l-1.8-3.6c-5.8 3-12.6 3.7-18.3 2.4l-1 4zM183.4 256c-1.2 16.7 2.5 38.4 8 56.3 2.8 9 6 17 9.3 23a41 41 0 0 0 5.1 7.5c1.7 2 3.6 3.4 5.7 4l1-4c-1-.2-2.2-1-3.7-2.6-1.5-1.6-3-4-4.6-6.8-3.2-5.7-6.3-13.5-9-22.3-5.4-17.6-9-38.8-8-54.8l-4-.3zm9-15.7a21 21 0 0 0-9 15.8l4 .3a17 17 0 0 1 7.3-12.7l-2.3-3.3zm12.8 29c.3-13-4.2-23-10.3-28.7l-2.7 3c5.2 4.8 9.3 13.5 9 25.7l4 .1zm-2-.1l1.6-1.2-3.6 1.5 2-.3zm28.5 73l1 1.8 2.6-1.3-2-2-1.4 1.5zM212 345l-.4 2 .4-2zm-26.7-88.6l-2-.1 2 .1zm8-14.2l1.4-1.5-1.2-1-1.3 1 1 1.7zm9.6 27.2l-1.6 1.2 3.5 4.7.1-6h-2z" clip-path="url(#AZ)" class="C"/><path d="M227.2 270.7c-9-.4-17 4.6-15.7 16.4 7.5 30.5 14.8 42.6 20 47.3 3.3 3 8.5 2 10.7-2 1.6-3 2.6-6.2 2.8-10 .5-9.4-8-32.3-17.8-51.8h0z" class="E"/><defs><path id="Aa" d="M227.2 270.7c-9-.4-17 4.6-15.7 16.4 7.5 30.5 14.8 42.6 20 47.3 3.3 3 8.5 2 10.7-2 1.6-3 2.6-6.2 2.8-10 .5-9.4-8-32.3-17.8-51.8h0z"/></defs><clipPath id="Ab"><use xlink:href="#Aa"/></clipPath><path d="M228.4 272.3h0L226 269h0l2.4 3.2zm18.7 50.3c.1-2.6-.3-6-1.2-10-1-4-2.2-8.3-4-13-3.3-9.4-8-20-13-30l-3.6 1.8a257 257 0 0 1 12.7 29.4c1.6 4.6 3 9 3.8 12.6 1 3.7 1.3 6.7 1 8.8l4 .2zm-3 11c1.8-3 2.8-6.8 3-11l-4-.2c-.2 3.5-1 6.6-2.6 9.2l3.5 2zm-13.8 2.4c4.3 4 11 2.6 13.8-2.4l-3.5-2c-1.6 2.8-5.3 3.5-7.6 1.4l-2.7 3zm-20.6-48.3c7.5 30.5 15 43.2 20.6 48.3l2.7-3c-4.7-4.2-12-15.8-19.4-46.3l-4 1zm17.7-19c-5-.2-9.7 1-13 4-3.5 3.2-5.3 8-4.6 14.5l4-.4c-.6-5.4 1-9 3.3-11 2.4-2.2 6-3.3 10.3-3l.2-4zm-.1 2L226 269l-1.4 1 .8 1.5 1.8-1zm17.8 51.8l-2-.1 2 .1zm-2.8 10l-1.7-1 1.8 1zm-10.7 2l1.3-1.5-1.3 1.5zm-20-47.3l-2 .2v.1.1l2-.5zm15.7-16.4l1.2 1.6 4.5-3.4-5.6-.2-.1 2z" clip-path="url(#Ab)" class="C"/><path d="M200.7 259c5.3 27.8 20 42 31 39.4s-2.2-30.3-11-44.7c-8.8-14.4-13.5-18-24.2-15-10.7 3-6.5 7.6-6.5 7.6s5.2 3.5 10.8 12.6z" class="E"/><defs><path id="Ac" d="M200.7 259c5.3 27.8 20 42 31 39.4s-2.2-30.3-11-44.7c-8.8-14.4-13.5-18-24.2-15-10.7 3-6.5 7.6-6.5 7.6s5.2 3.5 10.8 12.6z"/></defs><clipPath id="Ad"><use xlink:href="#Ac"/></clipPath><path d="M198.7 258.8l4 .6h0l-4-.6zm-8.8-12.3l-1 1.7s0 0 0 0l.1.1c.1.1.3.3.6.5l2.2 2a52 52 0 0 1 7.3 9.4l3.4-2c-3-4.7-5.7-8-7.8-10a32.2 32.2 0 0 0-2.6-2.3 13 13 0 0 0-.7-.6h-.2-.1c0 0 0 0 0 0 0 0 0 0-1 1.6zm6-9.5c-5.5 1.5-8.2 3.7-8.7 6.4-.2 1.3.1 2.4.4 3 .2.4.4.7.5 1 .1.1.1.2.2.3 0 0 .1.1.1.1h0 0 0l1.5-1.3 1.5-1.3h0s0 0 0-.1c0-.1-.1-.1-.2-.3-.1-.2-.2-.5-.1-.7.1-.3.6-2 5.8-3.4l-1-3.8zm26.4 15.8a45 45 0 0 0-12-14.6c-4.3-2.7-8.8-2.8-14.4-1.2l1 3.8c5-1.4 8.2-1.2 11.2.7 3.2 2 6.3 6 10.8 13.4l3.4-2zm9.8 47.7c2-.4 3.3-1.4 4.3-3a10 10 0 0 0 1.4-5 36 36 0 0 0-2.4-12.6 148 148 0 0 0-13.2-27.2l-3.4 2c4.4 7 9.8 17.5 12.8 26.4 1.5 4.5 2.3 8.3 2.2 11a6 6 0 0 1-.8 3c-.4.6-1 1-1.8 1.2l1 4zm-33.4-41c2.7 14.2 7.8 25 13.7 32 6 7 13 10.5 19.6 9l-1-4c-4.5 1-10.2-1.2-15.7-7.6-5.4-6.4-10.3-16.5-12.8-30.2l-4 .7zm2-.4l2 .3.1-.7-.4-.6-1.7 1zM190 246.5l-1.5 1.3.2.2h.2l1-1.7zm6.5-7.6l-.5-2 .5 2zm24.2 15l1.7-1-1.7 1zm-20 5.3l-2-.3v.3.3l2-.4z" clip-path="url(#Ad)" class="C"/><path d="M228.5 286.4c.3 2-.2 4-1.2 4-1 .2-2-1.4-2.4-3.4-.3-2 .2-4 1.2-4 1-.2 2 1.4 2.4 3.4z" fill="#18203d"/><path d="M157.6 245.5c23.3-13.2 38.8 3 44.3 13 0 2.7-3 2-4.5 0-10.7-16.5-24.7-15.5-30.4-13-33 12-21.6 52.3-15.2 65.7 15 20.4 37.3 18 46.5 13.4 4-2 5.4-1 5 1.3-19.3 10.4-38.5 2.5-45.6-2.7-28.6-25.8-12-62.6 0-77.8z" class="E"/></g><g class="C"><path d="M196.8 259c.8 1.2 2.2 2 3.3 2 .6.1 1.3-.1 1.8-.6.5-.5.7-1.2.7-2H201c0 .5-.2.8-.3 1s-.3.2-.6.2c-.7-.1-1.6-.6-2.2-1.5l-1.2 1zm-29.5-12.7c5.4-2.4 19-3.4 29.5 12.7l1.3-.8c-11-16.8-25.4-16-31.3-13.2l.6 1.4zM152.5 311c-3.2-6.6-7.6-20-7-33 .2-6.5 1.7-13 5-18.5 3.4-5.5 8.7-10.2 17-13.2l-.5-1.4c-8.4 3-14 8-17.6 13.8-3.6 5.8-5 12.5-5.3 19.3a79 79 0 0 0 7.3 33.7l1.3-.6zm45.5 13c-9 4.4-30.8 6.8-45.6-13.2l-1.2 1a39 39 0 0 0 47.4 13.6l-.7-1.4zm6 2.2c.1-.7.1-1.3 0-2a1.9 1.9 0 0 0-1.2-1.3c-.6-.2-1.3-.2-2 0-.8.2-1.7.5-2.7 1l.7 1.4 2.4-1c.6-.1 1-.1 1.2 0 .2.1.3.1.3.3.1.2.1.6 0 1l1.5.3zm-46.8-2.2c7.3 5.3 26.8 13.3 46.4 2.7l-.7-1.3a44 44 0 0 1-44.8-2.6l-1 1.2zm-.2-79a79 79 0 0 0-15.4 35.3c-2 14.5 1 30.4 15.4 43.5l1-1c-14-12.7-17-28-15-42.2 2-14.2 9.2-27 15-34.6l-1.2-1zm45.5 13c-2.8-5-8.2-11.7-15.8-15.4-7.7-3.8-17.7-4.6-29.5 2.2l.7 1.3c11.4-6.5 20.8-5.7 28-2.2a37 37 0 0 1 15.2 14.8l1.3-.7zm-5 .4l-.6.4h0 0l.6-.4zm-30.4-13l.3.7h0 0l-.3-.7zm-15.2 65.7l-.7.3v.1h0l.6-.4zm46.5 13.4l.3.7-.3-.7zm5 1.3l.3.7.3-.2v-.4l-.7-.1zm-45.6-2.7l-.5.6h0 0l.4-.6zm0-77.8l-.4-.7h-.1-.1l.6.5zm44.3 13h.8v-.2l-.1-.2-.7.4z" class="D"/><path d="M176 244.4c-14.6.6-30 51.4-30 51.4l11.3 16.5s19.7-3.8 32.8-38.8c9.3-25-6.5-29.4-14.2-29z" class="D"/></g><path d="M157 261.5c5.8-5.2 6-15 2-13 0 0-.3-3.2-2.8-4.4-2.6-1.2-3.8 2.7-3.8 2.7s-3.3-1-4.5 3c0 0-3.3-1-4.5 3.2 0 0-2-.1-3 3s1.6 7.4 1.6 7.4 8.4 6.3 15.2-2h0z" class="D E"/><g class="D"><defs><path id="Ae" d="M157 261.5c5.8-5.2 6-15 2-13 0 0-.3-3.2-2.8-4.4-2.6-1.2-3.8 2.7-3.8 2.7s-3.3-1-4.5 3c0 0-3.3-1-4.5 3.2 0 0-2-.1-3 3s1.6 7.4 1.6 7.4 8.4 6.3 15.2-2h0z"/></defs><clipPath id="Af"><use xlink:href="#Ae"/></clipPath><path d="M156 261.8h0l2-.6h0l-2 .6zm-14.2 1.7l-.6.8h0c0 0 0 0 0 0 0 0 .1 0 .1.1l.3.2c.3.2.7.4 1 .6 1 .5 2.3 1 4 1.4 3.3.6 7.4 0 11-4.5l-1.6-1.3c-3 3.8-6.5 4.3-9.2 3.8a12.3 12.3 0 0 1-4.3-1.7c-.1-.1-.2-.1-.2-.2h-.1c0 0 0 0-.6.8zm-2.5-7.7c-.6 1.8-.1 4 .4 5.5l.8 2 .3.6c0 .1.1.1.1.2 0 0 0 0 0 0l1-.5 1-.5h0c0 0 0 0 0 0 0 0 0-.1-.1-.1l-.3-.5-.7-1.7c-.5-1.4-.8-3-.4-4.2l-2-.6zm4-2.6v-1h-.2c-.1 0-.2 0-.4 0-.3.1-.7.2-1 .4-1 .5-1.8 1.4-2.4 3.2l2 .6c.4-1.3 1-1.8 1.4-2 .2-.1.4-.2.5-.2.1 0 .1 0 .1 0h0 0l.1-1zm4.5-3.2l.3-1h0s0 0 0 0c0 0 0 0-.1 0h-.2a4.5 4.5 0 0 0-2.2.1c-1.3.4-2.7 1.5-3.4 4l2 .5c.5-1.8 1.4-2.4 2-2.5.3-.1.7-.1 1-.1h.3c0 0 .1 0 .1 0h0c0 0 0 0 .3-1zm4.5-3l.3-1h0c0 0 0 0-.1 0h-.2a4.9 4.9 0 0 0-2.1 0c-1.3.3-2.7 1.3-3.4 3.6l2 .6c.5-1.7 1.3-2 2-2.2.3-.1.7-.1 1-.1.1 0 .2 0 .3.1 0 0 .1 0 .1 0h0c0 0 0 0 .3-1zm4.2-3.6c-1-.4-1.7-.4-2.5-.1-.7.3-1.2.8-1.6 1.3a6.9 6.9 0 0 0-.8 1.4l-.2.5-.1.2c0 0 0 0 0 0h0l1 .3 1 .3s0 0 0 0c0 0 0-.1 0-.1l.2-.4c.1-.3.3-.7.6-1s.5-.6.8-.7c.2-.1.5-.1 1 .1l.8-1.8zm2.4 5.3l1-.1v-.1c0 0 0-.1 0-.1 0-.1 0-.3-.1-.4-.1-.4-.2-1-.4-1.4-.4-1-1.3-2.4-3-3.2l-.8 1.8c1 .4 1.5 1.3 2 2 .2.4.3.8.3 1l.1.3c0 0 0 .1 0 .1h0c0 0 0 0 1-.1zm-1.3 13.6a16 16 0 0 0 5-9.8c.2-1.5 0-3-.6-4-.3-.5-.8-1-1.5-1-.7-.1-1.3 0-2 .3l1 1.8c.4-.2.6-.2.7-.2.1 0 .2.1.3.2.3.4.5 1.3.3 2.7a14 14 0 0 1-4.4 8.5l1.3 1.5zm-.7-.8l1-.3-.6-1.7-1.2 1.4.8.6zm-15.2 2l-1 .5v.2.1l.6-.8zm1.5-10.3l-.1 1h.8l.2-.8-1-.3zm4.5-3.2l-.3 1 1 .3.3-1-1-.3zm4.5-3l-.3 1 1 .3.3-1-1-.3zm6.7 1.7l-1 .1v1.5l1.3-.7-.4-1zm-2 13l-1 .3.5 1.5 1-1-.7-.7z" clip-path="url(#Af)" class="C"/><path d="M166.2 300c2.3-9.7-9.2-38.4-9.2-38.4a17 17 0 0 1-15.2 2s-6.3 33.2 2.2 42.3c8.4 9 19.5 10.2 22.3-6z" class="C"/><path d="M157 261.5a17 17 0 0 1-15.2 2s-.4 2-.8 5c1 .3 2.2.6 3.3.8a22 22 0 0 0 14.6-3l-2-5h0z" opacity=".3" class="E"/><path d="M165.5 197.5c-.6 1.6-2 2.5-3 2s-1.4-2-.8-3.5c.6-1.6 2-2.5 3-2 1 .4 1.4 2 .8 3.5zm-1.8-7c1.3-.4 2.5-.5 3.4-.1 1 .4 2 1.3 2.5 4l3-.7c-.7-3.2-2.2-5.2-4.2-6-2-.8-4-.5-5.6 0l1 2.8zm6 3.8c.2.8 1 1.3 1.8 1s1.3-1 1-1.8l-3 .7zm-7-6.7c-.8.3-1.2 1-1 2s1 1.2 2 1l-1-2.8zm-9.2 33.4c1.2 1 2.7 2 4.5 2.2 1.8.3 4 .2 6.3-.5l-1-3c-2 .6-3.6.7-4.8.4s-2.2-.8-3-1.6l-2 2.3zm10.8 1.7c.8-.2 1.2-1 1-2a1.5 1.5 0 0 0-1.9-1l1 3zm-8.8-4c-.6-.5-1.6-.5-2 .2-.5.6-.5 1.6.2 2l2-2.3zm32.3-3.2c-.4.5-1 1.2-2 1.8-1 .6-2 1-3 .7l-.4 3c2 .3 3.6-.4 5-1.2s2.3-1.8 3-2.5l-2.4-1.8zm-5 2.6c-.8-.1-1.6.4-1.7 1.3-.1.8.4 1.6 1.3 1.7l.4-3zm7.3-.7c.5-.7.4-1.6-.3-2-.7-.5-1.6-.4-2 .3l2.4 1.8z" class="C"/></g></g></svg>