<svg xmlns="http://www.w3.org/2000/svg" xmlns:xlink="http://www.w3.org/1999/xlink" xml:space="preserve" id="Layer_1" x="0" y="0" style="enable-background:new 0 0 220 220" version="1.1" viewBox="0 0 220 220"><style>.st0{fill:#f5f5f5}.st0,.st1{clip-path:url(#SVGID_00000034805515854741738990000015341792641273622717_)}.st2{fill:#20380e}.st2,.st3,.st4{clip-path:url(#SVGID_00000099654404876484432930000015438024167278454953_)}.st3{fill:#94b73d}.st4{fill:#fff}.st5{fill:#f4f7eb}.st5,.st6{clip-path:url(#SVGID_00000099654404876484432930000015438024167278454953_)}.st7{clip-path:url(#SVGID_00000121277667139733290340000012227536360214438550_)}.st10,.st7,.st8,.st9{fill:#20380e}.st8,.st9{clip-path:url(#SVGID_00000147193802019725352660000014313962207225320108_)}.st9{clip-path:url(#SVGID_00000031900709686478967080000004008477388691787397_)}.st10{clip-path:url(#SVGID_00000176744048936072893790000009165324747009435819_)}.st11{clip-path:url(#SVGID_00000171687856886807057970000006553533257840516024_)}.st11,.st12,.st13{fill:#20380e}.st12{clip-path:url(#SVGID_00000134208052596419025680000016689108112196764830_)}.st13{clip-path:url(#SVGID_00000063607989322913486630000000728850521595280573_)}.st14{clip-path:url(#SVGID_00000099654404876484432930000015438024167278454953_);fill:#ea170e}</style><switch><g><defs><path id="SVGID_1_" d="M0 0h220v220H0z"/></defs><clipPath id="SVGID_00000139260275770689153680000018276239768080504238_"><use xlink:href="#SVGID_1_" style="overflow:visible"/></clipPath><path d="M100.5 36.4c25-2 48.9 6.1 65.9 17.2 17.1 11.2 27.2 25.4 28.3 40.6 1.1 15.3-6.6 29.8-17.9 44.2-11.5 14.1-26.7 28.1-44.2 37.1-33.7 18.9-72.3 3.6-90.7-42.1-18.5-45.5 7.3-94.4 58.6-97z" style="clip-path:url(#SVGID_00000139260275770689153680000018276239768080504238_);fill:#f5f5f5"/><g style="clip-path:url(#SVGID_00000139260275770689153680000018276239768080504238_)"><defs><path id="SVGID_00000089533417541088281970000002421725346420831666_" d="M0 0h220v220H0z"/></defs><clipPath id="SVGID_00000168797333908957354110000009775727760001757836_"><use xlink:href="#SVGID_00000089533417541088281970000002421725346420831666_" style="overflow:visible"/></clipPath><path d="M109.7 208.8c-.3 6.1-.7 15.1-.3 17.1.6 3.1 0 22.3 0 22.3l-16.2-9.3C90 227 88.7 214 88.2 207c-.2-3.3-.3-5.2-.3-5.2l22.2 1.3s-.2 2.5-.4 5.7zm22.6-7s-.1 2-.3 5.3c-.5 7-1.8 19.9-5 31.8l-16.2 9.3s-.6-19.2 0-22.3c.4-2 0-11-.3-17.1-.2-3.3-.3-5.7-.3-5.7l22.1-1.3z" style="clip-path:url(#SVGID_00000168797333908957354110000009775727760001757836_);fill:#20380e"/><path d="M145.3 197.9c-9.3 8.5-35.3 7.4-35.3 7.4-25.2 1-35.7-7.4-35.7-7.4.1-.5.1-1 .2-1.5 7.3-56.9 14.6-74 14.6-74h40.1c6.9 6.4 14.6 63.9 15.8 74l.3 1.5z" style="clip-path:url(#SVGID_00000168797333908957354110000009775727760001757836_);fill:#94b73d"/><path d="M98.8 145.4s2.8.1 3.8-2 4.6-9.7 7.1-8.6c0 0 .3 17.9.1 22.8 0 0-6.8 4.4-13.3 2.3.1-.1-1.9-10.2 2.3-14.5z" style="clip-path:url(#SVGID_00000168797333908957354110000009775727760001757836_);fill:#fff"/><path d="M120.5 145.4s-2.8.1-3.8-2-4.6-9.7-7.1-8.6c0 0-.3 17.9-.1 22.8 0 0 6.8 4.4 13.3 2.3-.1-.1 1.9-10.2-2.3-14.5z" style="clip-path:url(#SVGID_00000168797333908957354110000009775727760001757836_);fill:#fff"/><path d="M89.2 122.4s-10.4-.8-16.4 16.1c-6 16.9 11.8 20.1 11.8 20.1s6.8 2.1 12 1.7c0 0 1-13.3 3.9-15.2 0 0-13.1-4.6-13.1-5.9.1-1.2 1.8-16.8 1.8-16.8zm39.7 0s10.4-.8 16.4 16.1c6 16.9-11.8 20.1-11.8 20.1s-6.8 2.1-12 1.7c0 0-1-13.3-3.9-15.2 0 0 13.1-4.6 13.1-5.9 0-1.2-1.8-16.8-1.8-16.8z" style="clip-path:url(#SVGID_00000168797333908957354110000009775727760001757836_);fill:#94b73d"/><path d="M129.7 135.9c.8 1.1.8 2.5-.1 3.2-.9.7-2.3.4-3.1-.7l-7.2-9.2c-.8-1.1-.8-2.5.1-3.2.9-.7 2.3-.4 3.1.7l7.2 9.2z" style="clip-path:url(#SVGID_00000168797333908957354110000009775727760001757836_);fill:#f4f7eb"/><g style="clip-path:url(#SVGID_00000168797333908957354110000009775727760001757836_)"><defs><path id="SVGID_00000136390636718342671180000009043671568932449683_" d="M129.7 135.9c.8 1.1.8 2.5-.1 3.2-.9.7-2.3.4-3.1-.7l-7.2-9.2c-.8-1.1-.8-2.5.1-3.2.9-.7 2.3-.4 3.1.7l7.2 9.2z"/></defs><clipPath id="SVGID_00000089557741338680185630000000918421243337439896_"><use xlink:href="#SVGID_00000136390636718342671180000009043671568932449683_" style="overflow:visible"/></clipPath><path d="m130.4 136.6-1.4-1.4 1.4 1.4zm-8.6-9.3 7.2 9.2 1.6-1.2-7.2-9.2-1.6 1.2zm-1.7-.5c.3-.2 1.1-.3 1.7.5l1.6-1.2c-1.1-1.4-3.1-2-4.5-.9l1.2 1.6zm0 1.8c-.6-.8-.4-1.5-.1-1.8l-1.2-1.6c-1.5 1.1-1.3 3.2-.3 4.6l1.6-1.2zm7.2 9.2-7.2-9.2-1.6 1.2 7.2 9.2 1.6-1.2zm1.7.5c-.3.2-1.1.3-1.7-.5l-1.6 1.2c1.1 1.4 3.1 2 4.5.9l-1.2-1.6zm-.1-1.8c.6.8.4 1.5.1 1.8l1.2 1.6c1.5-1.1 1.3-3.2.3-4.6l-1.6 1.2zm.8-.6-.8.6.7.9.8-.8-.7-.7zm-7.1-9.2-.8.6.8-.6zm-3.1-.7-.6-.8.6.8zm-.1 3.2.8-.6-.8.6zm7.1 9.2-.8.6.8-.6zm3.1.7.6.8-.6-.8zm.1-3.2.8-.6-.7-.9-.8.8.7.7z" style="clip-path:url(#SVGID_00000089557741338680185630000000918421243337439896_);fill:#20380e"/></g><path d="M129.2 127.6c.2.3.1.7-.1.9l-9.4 6.6c-.3.2-.7.1-.9-.1-.2-.3-.1-.7.1-.9l9.4-6.6c.3-.2.7-.2.9.1z" style="clip-path:url(#SVGID_00000168797333908957354110000009775727760001757836_);fill:#f4f7eb"/><g style="clip-path:url(#SVGID_00000168797333908957354110000009775727760001757836_)"><defs><path id="SVGID_00000100352848232800466190000002663512397215598739_" d="M129.2 127.6c.2.3.1.7-.1.9l-9.4 6.6c-.3.2-.7.1-.9-.1-.2-.3-.1-.7.1-.9l9.4-6.6c.3-.2.7-.2.9.1z"/></defs><clipPath id="SVGID_00000125604323876850003040000015442985302939791801_"><use xlink:href="#SVGID_00000100352848232800466190000002663512397215598739_" style="overflow:visible"/></clipPath><path d="M128.9 128.3c-.2.1-.4.1-.5-.1l1.6-1.2c-.5-.7-1.5-.9-2.3-.4l1.2 1.7zm-9.4 6.6 9.4-6.6-1.2-1.6-9.4 6.6 1.2 1.6zm.1-.5c.1.2.1.4-.1.5l-1.2-1.6c-.7.5-.9 1.5-.4 2.3l1.7-1.2zm-.5-.1c.2-.1.4-.1.5.1l-1.6 1.2c.5.7 1.5.9 2.3.4l-1.2-1.7zm9.3-6.6-9.4 6.6 1.2 1.6 9.4-6.6-1.2-1.6zm0 .5c-.1-.2-.1-.4.1-.5l1.2 1.6c.7-.5.9-1.5.4-2.3l-1.7 1.2zm-.1-.7-.6-.8.6.8zm-9.4 6.6.6.8-.6-.8zm.8 1 .6.8-.6-.8zm9.3-6.6-.6-.8.6.8z" style="clip-path:url(#SVGID_00000125604323876850003040000015442985302939791801_);fill:#20380e"/></g><path d="M131.8 131.9c.2.3.1.7-.1.9l-9.4 6.6c-.3.2-.7.1-.9-.1-.2-.3-.1-.7.1-.9l9.4-6.6c.3-.2.7-.1.9.1z" style="clip-path:url(#SVGID_00000168797333908957354110000009775727760001757836_);fill:#f4f7eb"/><g style="clip-path:url(#SVGID_00000168797333908957354110000009775727760001757836_)"><defs><path id="SVGID_00000103965353395976754640000006778243477903766708_" d="M131.8 131.9c.2.3.1.7-.1.9l-9.4 6.6c-.3.2-.7.1-.9-.1-.2-.3-.1-.7.1-.9l9.4-6.6c.3-.2.7-.1.9.1z"/></defs><clipPath id="SVGID_00000021081772209567156330000015978291745231586218_"><use xlink:href="#SVGID_00000103965353395976754640000006778243477903766708_" style="overflow:visible"/></clipPath><path d="M131.8 132.9v-2 2zm-.3-.3c-.2.1-.4.1-.5-.1l1.6-1.2c-.5-.7-1.5-.9-2.3-.4l1.2 1.7zm-9.3 6.6 9.4-6.6-1.2-1.6-9.4 6.6 1.2 1.6zm.1-.5c.1.2.1.4-.1.5l-1.2-1.6c-.7.5-.9 1.5-.4 2.3l1.7-1.2zm-.6-.1c.2-.1.4-.1.5.1l-1.6 1.2c.5.7 1.5.9 2.3.4l-1.2-1.7zm9.4-6.6-9.4 6.6 1.2 1.6 9.4-6.6-1.2-1.6zm-.1.5c-.1-.2-.1-.4.1-.5l1.2 1.6c.7-.5.9-1.5.4-2.3l-1.7 1.2zm.8-.6-.8.6.3.4h.5v-1zm-.8-.1-.6-.8.6.8zm-9.4 6.6-.6-.8.6.8zm-.2.9-.8.6.8-.6zm.9.1-.6-.8.6.8zm9.4-6.6.6.8-.6-.8zm.1-.9.8-.6-.3-.4h-.5v1z" style="clip-path:url(#SVGID_00000021081772209567156330000015978291745231586218_);fill:#20380e"/></g><path d="M131.2 62.2s6.2-9 17 0c2.9 2.4 4.7 8.3 1.4 15.5l-3.5 1.1s-1.1-4.7-2-5.3c0 0 .6 4.7-.8 5.9 0 0 .2-8.7-5.8-10l-6.3-7.2z" style="clip-path:url(#SVGID_00000168797333908957354110000009775727760001757836_);fill:#20380e"/><path d="M130.2 61.8s3.3-2.3 7.2 2.5c0 0 2.3 4.1-.4 6l-6.8-8.5z" style="clip-path:url(#SVGID_00000168797333908957354110000009775727760001757836_);fill:#94b73d"/><path d="M88.8 63.2s-6.2-9-17 0c-2.9 2.4-4.7 8.3-1.4 15.5l3.5 1.1s1.1-4.7 2-5.3c0 0-.6 4.7.8 5.9 0 0-.2-8.7 5.8-10l6.3-7.2z" style="clip-path:url(#SVGID_00000168797333908957354110000009775727760001757836_);fill:#20380e"/><path d="M89.8 62.8s-3.3-2.3-7.2 2.5c0 0-2.3 4.1.4 6l6.8-8.5z" style="clip-path:url(#SVGID_00000168797333908957354110000009775727760001757836_);fill:#94b73d"/><path d="m137.2 95.8-52.2.8c-3.2-2.8-8.1-12.6-3.2-23.8.9-2.1 2.2-4.3 4-6.6 1.4-1.8 2.9-3.3 4.4-4.4 9.9-7.9 20.6-3.1 20.6-3.1 10.1-3.7 17.7 1.9 17.7 1.9.4.3.7.6 1.1.8 5.2 4.1 8.3 8.3 10 12.3 4.9 11.9-2.4 22.1-2.4 22.1z" style="clip-path:url(#SVGID_00000168797333908957354110000009775727760001757836_);fill:#20380e"/><path d="M88 94.4s-4.3-2.3-5.8.6c-1.2 2.5-.2 9.1 7.6 8.6L88 94.4z" style="clip-path:url(#SVGID_00000168797333908957354110000009775727760001757836_);fill:#fff"/><g style="clip-path:url(#SVGID_00000168797333908957354110000009775727760001757836_)"><defs><path id="SVGID_00000029038213964245812730000009004840999732766624_" d="M88 94.4s-4.3-2.3-5.8.6c-1.2 2.5-.2 9.1 7.6 8.6L88 94.4z"/></defs><clipPath id="SVGID_00000122718664472159915160000008396445972351885491_"><use xlink:href="#SVGID_00000029038213964245812730000009004840999732766624_" style="overflow:visible"/></clipPath><path d="M90.8 103.4 89 94.2l-2 .4 1.8 9.2 2-.4zm-9.5-8.8c-.8 1.6-.8 4.2.5 6.4 1.3 2.3 3.9 3.9 8.1 3.7l-.1-2c-3.6.2-5.4-1.1-6.3-2.7-.9-1.6-.9-3.6-.4-4.5l-1.8-.9zm6.7-.2.5-.9s-.1 0-.2-.1-.3-.2-.6-.3c-.5-.2-1.1-.4-1.9-.5-.7-.1-1.6-.2-2.4.1-.9.3-1.6.8-2.1 1.8l1.8.9c.2-.5.6-.7.9-.8.4-.1.9-.1 1.5 0 .5.1 1.1.3 1.5.4.2.1.3.1.5.2.1 0 .1 0 .1.1-.1 0-.1 0 .4-.9zm1.8 9.2.1 1 1.1-.1-.2-1.1-1 .2zM82.2 95l-.9-.4.9.4zm5.8-.6 1-.2-.1-.5-.4-.2-.5.9z" style="clip-path:url(#SVGID_00000122718664472159915160000008396445972351885491_);fill:#20380e"/></g><path d="M133 93.4s4.3-2.3 5.8.6c1.2 2.5.2 9.1-7.6 8.6l1.8-9.2z" style="clip-path:url(#SVGID_00000168797333908957354110000009775727760001757836_);fill:#fff"/><g style="clip-path:url(#SVGID_00000168797333908957354110000009775727760001757836_)"><defs><path id="SVGID_00000006683085500012380600000000987170226371166908_" d="M133 93.4s4.3-2.3 5.8.6c1.2 2.5.2 9.1-7.6 8.6l1.8-9.2z"/></defs><clipPath id="SVGID_00000145743127179319962590000000122564470460355464_"><use xlink:href="#SVGID_00000006683085500012380600000000987170226371166908_" style="overflow:visible"/></clipPath><path d="m132.2 102.8 1.8-9.2-2-.4-1.8 9.2 2 .4zm5.7-8.4c.5.9.5 2.8-.4 4.5-.9 1.5-2.7 2.9-6.3 2.7l-.1 2c4.2.3 6.8-1.4 8.1-3.7 1.2-2.2 1.2-4.8.5-6.4l-1.8.9zm-4.9-1 .5.9s.1 0 .1-.1c.1-.1.3-.1.5-.2.4-.2.9-.3 1.5-.4.6-.1 1.1-.1 1.5 0 .4.1.7.3.9.8l1.8-.9c-.5-1-1.3-1.6-2.1-1.8-.8-.3-1.7-.2-2.4-.1s-1.4.4-1.9.5l-.6.3c-.1 0-.1.1-.2.1s-.1 0 .4.9zm-1.8 9.2-1-.2-.2 1.1 1.1.1.1-1zm7.6-8.6.9-.4-.9.4zm-5.8-.6-.5-.9-.4.2-.1.5 1 .2z" style="clip-path:url(#SVGID_00000145743127179319962590000000122564470460355464_);fill:#20380e"/></g><path d="M86.1 86.7s-5 27.8 22.3 29.9 26.1-21.8 25.5-29c0 0-2.8-20.6-25.1-18.1C86.6 72 86.1 86.7 86.1 86.7z" style="clip-path:url(#SVGID_00000168797333908957354110000009775727760001757836_);fill:#fff"/><g style="clip-path:url(#SVGID_00000168797333908957354110000009775727760001757836_)"><defs><path id="SVGID_00000148635759327163216300000010672088276033480592_" d="M86.1 86.7s-5 27.8 22.3 29.9 26.1-21.8 25.5-29c0 0-2.8-20.6-25.1-18.1C86.6 72 86.1 86.7 86.1 86.7z"/></defs><clipPath id="SVGID_00000181773135471144352910000010021098187536421804_"><use xlink:href="#SVGID_00000148635759327163216300000010672088276033480592_" style="overflow:visible"/></clipPath><path d="M84.1 86.7h4-4zm24.6-19.2C97 68.8 90.8 73.4 87.5 77.9c-1.6 2.2-2.5 4.4-2.9 6-.2.8-.3 1.5-.4 2 0 .2-.1.4-.1.6v.3l2 .1 2 .1v-.5c0-.3.1-.8.3-1.4.3-1.2 1-2.9 2.3-4.7 2.5-3.5 7.7-7.5 18.4-8.7l-.4-4.2zM134 87.6l2-.3V87c0-.2-.1-.4-.1-.7-.1-.6-.3-1.5-.7-2.5-.7-2-1.8-4.7-3.7-7.4-3.9-5.4-10.8-10.3-22.8-8.9l.4 4c10.4-1.2 16 3 19.1 7.3 1.6 2.2 2.6 4.5 3.1 6.3.3.9.5 1.6.6 2.1.1.3.1.4.1.6v.1l2-.3zm-25.7 31c7.1.5 12.6-.6 16.7-2.9 4.2-2.3 6.8-5.7 8.5-9.3 3.3-7.1 2.8-15.4 2.5-19l-4 .3c.3 3.6.7 10.9-2.1 17-1.4 3-3.5 5.6-6.8 7.5-3.3 1.8-7.9 2.9-14.5 2.4l-.3 4zM86.1 86.7c-2-.4-2-.4-2-.3v.4c0 .2-.1.6-.1 1-.1.8-.2 2-.2 3.4 0 2.8.2 6.5 1.4 10.4 1.2 3.9 3.3 7.9 7 11.1 3.7 3.2 9 5.5 16.2 6l.3-4c-6.5-.5-10.9-2.5-13.9-5.1-3-2.6-4.8-5.9-5.8-9.2-1-3.3-1.2-6.7-1.2-9.2 0-1.2.1-2.3.2-3 0-.4.1-.6.1-.8v-.2c0-.1 0-.1-2-.5zm0 0-2-.1h2zm22.8-17.2-.2-2 .2 2zM134 87.6l2-.2v-.2l-2 .4zm-47.9-.9 2 .4v-.4h-2z" style="clip-path:url(#SVGID_00000181773135471144352910000010021098187536421804_);fill:#20380e"/></g><path d="M88.8 69.4s-5.9 5.9-3.5 16.5c0 0 3.5 2.1 7.9 1.6l5.4-11.9s3.5 7.9 4.7 9l12.9-.1s4.4-6.3 4.4-9.3l5.6 11.6s6.5.6 8.5-.4c0 0 3.5-15.9-9.7-19.7-13.1-4.1-31.9-2.8-36.2 2.7z" style="clip-path:url(#SVGID_00000168797333908957354110000009775727760001757836_);fill:#20380e"/><path d="M145.1 196.4c.1 1 .2 1.5.2 1.5-9.3 8.5-35.3 7.4-35.3 7.4-25.2 1-35.7-7.4-35.7-7.4.1-.5.1-1 .2-1.5 5.5 2.5 18.5 6.5 35.5 6.8 22.5.3 30-4.8 35.1-6.8z" style="clip-path:url(#SVGID_00000168797333908957354110000009775727760001757836_);fill:#fff"/><g style="clip-path:url(#SVGID_00000168797333908957354110000009775727760001757836_)"><defs><path id="SVGID_00000063611013871620517030000017825026966182593689_" d="M145.1 196.4c.1 1 .2 1.5.2 1.5-9.3 8.5-35.3 7.4-35.3 7.4-25.2 1-35.7-7.4-35.7-7.4.1-.5.1-1 .2-1.5 5.5 2.5 18.5 6.5 35.5 6.8 22.5.3 30-4.8 35.1-6.8z"/></defs><clipPath id="SVGID_00000124874597814716927380000015239035633654697917_"><use xlink:href="#SVGID_00000063611013871620517030000017825026966182593689_" style="overflow:visible"/></clipPath><path d="M146.1 196.4h-2 2zm-36 7.7c11.3.2 18.9-1 24.3-2.5 5.4-1.5 8.7-3.4 11.1-4.3l-.7-1.9c-2.7 1-5.7 2.7-10.9 4.2s-12.6 2.6-23.7 2.5l-.1 2zm-36-6.8c5.6 2.6 18.8 6.6 35.9 6.8v-2c-16.9-.3-29.8-4.2-35.1-6.7l-.8 1.9zm1.2.7c.1-.5.1-1 .2-1.5l-2-.3c-.1.5-.1 1-.2 1.5l2 .3zm34.7 6.3c-12.5.5-21.3-1.3-26.9-3.2-2.8-1-4.9-2-6.2-2.7-.7-.4-1.1-.7-1.5-.9-.2-.1-.3-.2-.3-.2s-.1 0-.1-.1l-.6.8-.6.8s.1 0 .1.1c.1.1.2.2.4.3.4.2.9.6 1.6 1 1.4.8 3.6 1.8 6.5 2.8 5.9 2 14.9 3.9 27.7 3.3l-.1-2zm34.6-7.1c-2.2 2-5.4 3.5-9.1 4.5-3.7 1.1-7.7 1.7-11.5 2.1-3.8.4-7.3.5-9.8.5h-4.1v2h4.3c2.6 0 6.2-.1 10-.5 3.9-.4 8-1.1 11.9-2.2 3.8-1.1 7.3-2.7 9.8-5l-1.5-1.4zm-.5-.7c.1.5.1.9.1 1.1v.4l1-.1 1-.1v-.4c0-.3-.1-.6-.1-1.1l-2 .2zm1-.1.4.9.6-.2v-.7h-1zm-35 6.7v1-1zm-35.6-6.7.4-.9-1.2-.6-.2 1.3 1 .2zm-.2 1.5-1-.1-.1.6.4.3.7-.8zm35.7 7.4v-1 1zm35.3-7.4.7.7.4-.3-.1-.5-1 .1zm-.2-1.5 1-.1-2 .1h1z" style="clip-path:url(#SVGID_00000124874597814716927380000015239035633654697917_);fill:#20380e"/></g><path d="M87.3 246.8s.9-8.4 8-9.5c7.1-1.1 12.8 6.4 12.8 6.4s5.7 8.4-6.1 9.9-15.1-1.8-14.7-6.8z" style="clip-path:url(#SVGID_00000168797333908957354110000009775727760001757836_);fill:#ea170e"/><path d="M132.7 246.8s-.9-8.4-8-9.5c-7.1-1.1-12.8 6.4-12.8 6.4s-5.7 8.4 6.1 9.9 15.1-1.8 14.7-6.8z" style="clip-path:url(#SVGID_00000168797333908957354110000009775727760001757836_);fill:#ea170e"/><path d="M119.6 145.1c-.2 0-.4-.1-.4-.3-.1-.2 0-.5.3-.6.1 0 10.8-4 12.2-4.7 1.6-.8 4.7-1.2 7.1-.5.2.1.4.3.3.5-.1.2-.3.4-.5.3-2.1-.6-5.1-.2-6.5.5-1.5.7-11.9 4.6-12.3 4.7 0 .1-.1.1-.2.1z" style="clip-path:url(#SVGID_00000168797333908957354110000009775727760001757836_);fill:#20380e"/><path d="M131.9 140.4c-.1 0-.2 0-.3-.1-.2-.1-.2-.4-.1-.6.1-.1 2.3-2.9 4.6-3.4.2 0 .5.1.5.3 0 .2-.1.5-.3.5-2 .4-4.1 3-4.1 3.1 0 .1-.2.2-.3.2zm-9 20.4c-.2 0-.4-.2-.4-.4s.2-.4.4-.4c.1 0 9-.1 15.6-3 .2-.1.5 0 .6.2.1.2 0 .5-.2.6-6.8 2.9-15.6 3-16 3zm-23.3-16c.2 0 .4-.1.4-.3.1-.2 0-.5-.3-.6-.1 0-10.8-4-12.2-4.7-1.6-.8-4.7-1.2-7.1-.5-.2.1-.4.3-.3.5.1.2.3.4.5.3 2.1-.6 5.1-.2 6.5.5 1.5.7 11.9 4.6 12.3 4.7.1.1.2.1.2.1z" style="clip-path:url(#SVGID_00000168797333908957354110000009775727760001757836_);fill:#20380e"/><path d="M87.4 140.1c.1 0 .2 0 .3-.1.2-.1.2-.4.1-.6-.1-.1-2.3-2.9-4.6-3.4-.2 0-.5.1-.5.3 0 .2.1.5.3.5 2 .4 4.1 3 4.1 3.1 0 .1.1.2.3.2zm9 20.4c.2 0 .4-.2.4-.4s-.2-.4-.4-.4c-.1 0-9-.1-15.6-3-.2-.1-.5 0-.6.2-.1.2 0 .5.2.6 6.8 2.9 15.6 3 16 3zm13.3-3c-.2 0-.4-.2-.4-.4l-.1-21.6c0-.2.2-.4.4-.4s.4.2.4.4l.1 21.6c0 .2-.2.4-.4.4z" style="clip-path:url(#SVGID_00000168797333908957354110000009775727760001757836_);fill:#20380e"/><path d="M114.6 145.3c-.2 0-.3-.1-.4-.3-.1-.2-1.9-4.1-2.8-6.8-.4-1.3-.8-1.6-1-1.6-.2-.1-.3 0-.3.1-.2.2-.5.1-.6 0s-.1-.5 0-.6c0 0 .5-.4 1.1-.2.7.2 1.2.9 1.6 2.2.9 2.7 2.8 6.7 2.8 6.7.1.2 0 .5-.2.6-.1-.1-.2-.1-.2-.1z" style="clip-path:url(#SVGID_00000168797333908957354110000009775727760001757836_);fill:#20380e"/><path d="M104.6 145.2h-.2c-.2-.1-.3-.4-.2-.6 0 0 1.9-4.1 2.8-6.7.4-1.3.9-2 1.6-2.2.6-.2 1.1.2 1.1.2.2.2.2.4 0 .6-.2.2-.4.2-.6.1 0 0-.1-.1-.3-.1-.2.1-.6.3-1 1.6-.9 2.7-2.8 6.7-2.8 6.8-.1.2-.3.3-.4.3z" style="clip-path:url(#SVGID_00000168797333908957354110000009775727760001757836_);fill:#20380e"/><path d="M100.9 123.9c2.8-2.7 2.6-7.2 2.2-9.2 4.8 1 9.2 1.4 13.2 1-1.3 3.4.4 6.6 1.8 8.2 0 0-1.8 3.4-8.8 2.9s-8.4-2.9-8.4-2.9z" style="clip-path:url(#SVGID_00000168797333908957354110000009775727760001757836_);fill:#fff"/><path d="M109.2 127.8c3.7.3 6.1-.5 7.6-1.4.8-.4 1.3-.9 1.6-1.3.2-.2.3-.4.4-.5 0-.1.1-.1.1-.2v-.1l-.9-.5-.9-.5v.1c0 .1-.1.2-.2.3-.2.2-.6.6-1.1.9-1.1.7-3.1 1.4-6.5 1.1l-.1 2.1zm-8.3-3.9-.9.5.1.1c.1.1.2.2.3.4.3.3.8.7 1.4 1.1 1.4.7 3.6 1.5 7.2 1.7l.1-2c-3.4-.2-5.4-.9-6.4-1.5-.5-.3-.8-.5-1-.7l-.2-.2c.3.1.3.1-.6.6zm15.3-9.2c-3.8.5-8.1 0-12.9-1l-.4 2c4.9 1 9.4 1.5 13.5 1l-.2-2zm2.6 8.6c-1.2-1.5-2.7-4.3-1.6-7.2l-1.9-.7c-1.5 3.9.5 7.5 1.9 9.2l1.6-1.3zm-16.7-8.3c.2.9.3 2.3.1 3.9-.2 1.6-.8 3.2-2 4.3l1.4 1.4c1.6-1.6 2.3-3.6 2.6-5.4.3-1.8.1-3.6-.1-4.7l-2 .5zm7.2 11.8.1-1-.1 1zm7-11.1.9.4c.1-.3.1-.7-.1-1-.2-.3-.6-.4-.9-.4l.1 1zm1.8 8.2.9.5c.2-.4.1-.8-.1-1.1l-.8.6zm-17.2 0-.7-.7c-.3.3-.4.8-.2 1.2l.9-.5zm2.2-9.2.2-1c-.3-.1-.7 0-.9.3s-.3.6-.3.9l1-.2zm21.3-20.5c-.7-1-2-2.2-3.8-2.6-1.9-.4-4.1.2-6.3 2.4l1.4 1.4c1.8-1.8 3.4-2.1 4.5-1.9 1.2.2 2.1 1 2.6 1.7l1.6-1zm-10.1-.2c-.4.4-.4 1 0 1.4.4.4 1 .4 1.4 0l-1.4-1.4zm8.5 1.3c.3.5.9.6 1.4.2s.6-.9.2-1.4l-1.6 1.2zm-15.5-1.1c-.7-1-2-2.2-3.8-2.6-1.9-.4-4.1.2-6.3 2.4l1.4 1.4c1.8-1.8 3.4-2.1 4.5-1.9 1.2.2 2.1 1 2.6 1.7l1.6-1zM97.2 94c-.4.4-.4 1 0 1.4.4.4 1 .4 1.4 0L97.2 94zm8.4 1.3c.3.5.9.6 1.4.2s.6-.9.2-1.4l-1.6 1.2zm2.4 12.8c1 .5 2.6 1 4.4 1.1 1.8.1 3.9-.3 5.8-1.7l-1.2-1.6c-1.4 1-3 1.3-4.5 1.3-1.5-.1-2.8-.5-3.6-.9l-.9 1.8zm10.2-.6c.4-.3.5-1 .2-1.4-.3-.4-1-.5-1.4-.2l1.2 1.6zm-9.3-1.2c-.5-.2-1.1 0-1.3.4-.2.5 0 1.1.4 1.3l.9-1.7z" style="clip-path:url(#SVGID_00000168797333908957354110000009775727760001757836_);fill:#20380e"/></g></g></switch></svg>