<svg version="1.1" id="Layer_1" xmlns="http://www.w3.org/2000/svg" xmlns:xlink="http://www.w3.org/1999/xlink" x="0" y="0" viewBox="0 0 470 250" style="enable-background:new 0 0 470 250" xml:space="preserve"><style>.st3{clip-path:url(#SVGID_00000124141069591451129100000000382131429781261462_);fill:#20380e}.st4{fill:#fff}.st4,.st5{clip-path:url(#SVGID_00000124141069591451129100000000382131429781261462_)}.st6{clip-path:url(#SVGID_00000065767539954587474630000012511734138841634730_);fill:#20380e}.st7,.st8,.st9{clip-path:url(#SVGID_00000124154210562652512610000004054947357974251187_);fill:#20380e}.st8,.st9{clip-path:url(#SVGID_00000010283793528533346800000005711071657851788968_)}.st9{clip-path:url(#SVGID_00000101788648695870134030000014295054604417082527_)}.st10{clip-path:url(#SVGID_00000124141069591451129100000000382131429781261462_);fill:#b4cc77}.st11,.st12{clip-path:url(#SVGID_00000097485924230264667560000012196879323976197789_);fill:#20380e}.st12{clip-path:url(#SVGID_00000176750250880298881870000007951038615399928463_)}.st13{clip-path:url(#SVGID_00000124141069591451129100000000382131429781261462_);fill:#f6a100}.st14,.st15{clip-path:url(#SVGID_00000031193462065983502550000001164301065680074897_);fill:#20380e}.st15{clip-path:url(#SVGID_00000026845447247624613830000012623609413715382167_)}.st16{clip-path:url(#SVGID_00000124141069591451129100000000382131429781261462_);fill:#94b73d}.st17,.st18{clip-path:url(#SVGID_00000107587815901422086090000006749155443837232793_);fill:#20380e}.st18{clip-path:url(#SVGID_00000116203895884835262610000002818204755683453089_)}.st19,.st20,.st21{clip-path:url(#SVGID_00000031919323764665760540000013675330566342199185_);fill:#20380e}.st20,.st21{clip-path:url(#SVGID_00000000218650606036863350000018179544752422045630_)}.st21{clip-path:url(#SVGID_00000153698872976742191400000006627553091072896384_)}.st22{clip-path:url(#SVGID_00000124141069591451129100000000382131429781261462_);fill:#386118}</style><switch><g><defs><filter id="Adobe_OpacityMaskFilter" filterUnits="userSpaceOnUse" x="0" y="0" width="470" height="283"><feColorMatrix values="1 0 0 0 0 0 1 0 0 0 0 0 1 0 0 0 0 0 1 0"/></filter></defs><mask maskUnits="userSpaceOnUse" x="0" y="0" width="470" height="283" id="SVGID_1_"><g style="filter:url(#Adobe_OpacityMaskFilter)"><path d="M0 20C0 9 9 0 20 0h430c11 0 20 9 20 20v230H0V20z" style="fill:#f4f7eb"/></g></mask><g style="mask:url(#SVGID_1_)"><defs><path id="SVGID_00000157994490583482411400000011943144255093847473_" d="M0 0h470v250H0z"/></defs><clipPath id="SVGID_00000130621296937777987170000009333531862001487246_"><use xlink:href="#SVGID_00000157994490583482411400000011943144255093847473_" style="overflow:visible"/></clipPath><path style="clip-path:url(#SVGID_00000130621296937777987170000009333531862001487246_);fill:#20380e" d="M293.5 129.8c-3.2-6.9 3.5-13.1 6.2-19.4 2.5-6.4 3.3-13.1 2.8-19.8-1.3-.5-2.1-.7-2.1-.7l-44.3-33.7c-7.7 3.9-14.9 8.2-19.3 15.2-10.1 17-6.8 43.7-18.9 58.4 6.1 4.2 47.5 24.5 76.1 17.9 0 0-.2-8-.1-9.1.1-1.1 2.6 8.6 2.6 8.6s2.4-.2 4.1-1.4l-.6-4.8c-2.6-3.7-5-7.4-6.5-11.2z"/><path style="clip-path:url(#SVGID_00000130621296937777987170000009333531862001487246_);fill:#20380e" d="M236.8 71.3c4.4-7 11.6-11.3 19.3-15.2l-3.7-2.8s-20-.9-27.8 19c-5.5 14-2.8 18.8-5.1 27.2-2.8 10.1-10.7 11.9-14.9 20.5 0 0 .6 3.9 8.8 8.1 0 0 2.7-3 5.7-6.6 0 0-1.6 6.4-2.1 7.6 0 .1.2.4.8.7 12.2-14.8 8.9-41.5 19-58.5zM303 145.5s2.7-.3 7.1-3.6c0 0 1.9-3.2-.1-10.2-1.2-4.3-4.7-8.5-4.8-12.7-.2-4.3 5.3-32.1-3.5-44.4-2.3-3.3-5.6 12.1.7 16.1.5 6.6-2.8 11.6-5.3 18-2.7 6.3-6.9 14.3-3.7 21.1 1.5 3.8 4 7.5 6.4 11.2l-.1-.8 3.3 5.3z"/><path style="clip-path:url(#SVGID_00000130621296937777987170000009333531862001487246_);fill:#fff" d="M204.9 84.5s4.4-8 3-10.1c-1.3-2-3.7 2.7-3.7 2.7s1.7-11.6-.3-11.6-3.1 9-3.1 9l-.6-.1c-1.7-.2-3.4-.2-5.1.1l-.5.1c-.8.1-1.4.7-1.6 1.4-.5 2-1.4 5.8-.4 8.5 0 0-.4 8.9 1.8 20.9 5.2-.9 10.2-2.5 14.9-4.7-2.7-8.4-4.4-16.2-4.4-16.2z"/><g style="clip-path:url(#SVGID_00000130621296937777987170000009333531862001487246_)"><defs><path id="SVGID_00000056428562678876016050000000502047486429254788_" d="M204.9 84.5s4.4-8 3-10.1c-1.3-2-3.7 2.7-3.7 2.7s1.7-11.6-.3-11.6-3.1 9-3.1 9l-.6-.1c-1.7-.2-3.4-.2-5.1.1l-.5.1c-.8.1-1.4.7-1.6 1.4-.5 2-1.4 5.8-.4 8.5 0 0-.4 8.9 1.8 20.9 5.2-.9 10.2-2.5 14.9-4.7-2.7-8.4-4.4-16.2-4.4-16.2z"/></defs><clipPath id="SVGID_00000133530823432120736660000004287013866148987275_"><use xlink:href="#SVGID_00000056428562678876016050000000502047486429254788_" style="overflow:visible"/></clipPath><path style="clip-path:url(#SVGID_00000133530823432120736660000004287013866148987275_);fill:#20380e" d="m203.5 85.9 2.8-2.8-2.8 2.8zm7.8 14.3C209.9 96 208.8 92 208 89c-.4-1.5-.7-2.7-.9-3.6-.1-.4-.2-.8-.2-1 0-.1 0-.2-.1-.3V84l-2 .4-2 .4v.1c0 .1 0 .2.1.3.1.2.1.6.2 1 .2.9.5 2.1.9 3.7.8 3 1.9 7.2 3.3 11.5l4-1.2zm-16.5 7.3c5.4-.9 10.6-2.6 15.4-4.9l-1.8-3.6c-4.4 2.2-9.3 3.7-14.3 4.6l.7 3.9zm-2.2-22.8-2-.1v1.6c0 1.1 0 2.6.1 4.5.2 3.8.6 9.1 1.8 15.2l3.9-.7c-1.1-5.9-1.6-11-1.7-14.7-.1-1.8-.1-3.3-.1-4.3V84.7h-2zm-1.5-9.1c-.3 1-.7 2.6-.8 4.3-.2 1.7-.1 3.7.5 5.4l3.7-1.4c-.3-.9-.4-2.2-.3-3.7.1-1.4.4-2.7.7-3.7l-3.8-.9zm3.2-2.9c-1.6.2-2.8 1.4-3.2 2.9l3.9 1.1-.7-4zm.5-.1-.5.1.6 4 .5-.1-.6-4zm5.7-.1c-1.9-.2-3.8-.2-5.7.1l.6 4c1.5-.2 3.1-.3 4.6-.1l.5-4zm.6.1-.6-.1-.5 4 .6.1.5-4zm2.9-9c-1 0-1.8.6-2.2 1.1-.4.5-.7 1-1 1.5-.5 1-.8 2.3-1.1 3.5-.3 1.2-.5 2.4-.6 3.2-.1.4-.1.8-.2 1.1v.4l2 .3 2 .3v-.4c0-.2.1-.6.2-1 .1-.8.3-1.9.6-3s.6-2.1.9-2.7c.2-.3.3-.5.3-.5s-.2.3-.8.3l-.1-4.1zm.3 13.6 2 .3v-.1c0-.1 0-.2.1-.4 0-.3.1-.8.2-1.3.1-1.1.3-2.6.4-4.1.1-1.5.1-3.1 0-4.3-.1-.6-.2-1.3-.5-1.9-.3-.6-1-1.7-2.4-1.7v4c-.4 0-.8-.2-1-.4l-.2-.2c0-.1-.1-.1-.1-.1l.1.2c0 .1.1.3.1.5.1.9.1 2.2 0 3.7-.1 1.4-.2 2.8-.4 3.9-.1.5-.1 1-.2 1.3v.5c-.1-.2-.1-.2 1.9.1zm5.3-3.8c-.3-.5-.8-1-1.6-1.3-.7-.3-1.4-.1-2 .1-.9.4-1.6 1.1-2 1.6-.5.6-.9 1.2-1.1 1.7l-.3.6c0 .1-.1.1-.1.2v.1l1.8.9 1.8.9s0-.1.1-.1c.1-.1.1-.3.2-.4.2-.4.5-.8.8-1.2.1-.2.3-.3.4-.4.1-.1.1-.1 0 0-.1 0-.4.1-.8 0s-.5-.3-.5-.3l3.3-2.4zm-4.7 11.1 1.8 1v-.1c0-.1.1-.2.1-.3l.5-1c.4-.8.9-1.9 1.4-3.1.5-1.2.9-2.5 1.2-3.7.1-.6.2-1.2.2-1.9 0-.6-.1-1.4-.6-2.1l-3.3 2.2c-.1-.2-.1-.3-.1 0 0 .2 0 .5-.1 1-.2.9-.5 1.9-1 3-.4 1.1-.9 2.1-1.3 2.8-.2.4-.3.7-.5.9-.1.1-.1.2-.1.2v.1c.1.1.1.1 1.8 1zm0 0 1.4-1.4-4.8-4.8 1.4 6.7 2-.5zm4.4 16.3.9 1.8 1.6-.8-.5-1.6-2 .6zm-14.8 4.8-2 .4.4 1.9 1.9-.3-.3-2zm-1.9-20.9 2 .1v-.4l-.1-.4-1.9.7zm.4-8.6-1.9-.5 1.9.5zm1.6-1.4.3 2-.3-2zm.5-.1.3 2-.3-2zm5.2-.1-.3 2 .3-2zm.6.1-.2 2 2 .2.3-2-2.1-.2zm3.1-9v2-2zm.3 11.6-2-.3 3.8 1.2-1.8-.9zm3.6-2.7-1.7 1.1 1.7-1.1zm-3 10-1.4 1.4 1.9 1.9 1.3-2.4-1.8-.9z"/></g><path style="clip-path:url(#SVGID_00000130621296937777987170000009333531862001487246_);fill:#20380e" d="M210.8 98.3c-4.6 2.3-14 5.6-19.2 6.5 3.5 18.8 16.5 45.8 45.1 57.5 1.6-9.3 2.3-15.4 4-24.7-8.7-3.5-24.8-15.8-29.9-39.3z"/><path style="clip-path:url(#SVGID_00000130621296937777987170000009333531862001487246_);fill:#20380e" d="M240.7 137.6s27.8-.1 31 .8c3.2.9 1.2 3.9 1.2 3.9s-8.1 11.8-21.8 7.7c-13.7-4.1-15.1-11.9-15.1-11.9s1.1-.7 4.7-.5z"/><path style="clip-path:url(#SVGID_00000130621296937777987170000009333531862001487246_);fill:#fff" d="M265.9 138.8v-9.2c-7 1.7-13.9 1.4-21 0l-.3 9.1s-3.8-.6-5.7-.3c-3.2 9.9-4.4 28.8-4.4 28.8l1 37.1c22.3 8.7 47.5-1.1 47.5-1.1l3.6-32.3c3-20.8 3.2-18.7-4-29.3-8.3-.9-16.7-2.8-16.7-2.8z"/><g style="clip-path:url(#SVGID_00000130621296937777987170000009333531862001487246_)"><defs><path id="SVGID_00000000222428170944157880000008751689775819500177_" d="M265.9 138.8v-9.2c-7 1.7-13.9 1.4-21 0l-.3 9.1s-3.8-.6-5.7-.3c-3.2 9.9-4.4 28.8-4.4 28.8l1 37.1c22.3 8.7 47.5-1.1 47.5-1.1l3.6-32.3c3-20.8 3.2-18.7-4-29.3-8.3-.9-16.7-2.8-16.7-2.8z"/></defs><clipPath id="SVGID_00000115479502174771521930000007294937198099660418_"><use xlink:href="#SVGID_00000000222428170944157880000008751689775819500177_" style="overflow:visible"/></clipPath><path style="clip-path:url(#SVGID_00000115479502174771521930000007294937198099660418_);fill:#20380e" d="M265.9 136.8v4-4zm17 2.9c-4.1-.5-8.3-1.2-11.4-1.7-1.6-.3-2.9-.6-3.8-.7-.5-.1-.8-.2-1.1-.2-.1 0-.2 0-.3-.1h-.1l-.4 2-.4 2h.1c.1 0 .2 0 .3.1.3.1.6.1 1.1.2.9.2 2.3.5 3.9.8 3.2.6 7.4 1.3 11.7 1.8l.4-4.2zm5.8 31.5c.8-5.2 1.3-9 1.7-11.9.3-2.9.4-5.1.2-7.1-.6-4-2.7-6.6-6.2-11.7l-3.3 2.2c3.8 5.5 5.1 7.2 5.5 10 .2 1.4.1 3.2-.2 6.1-.3 2.8-.9 6.6-1.7 11.8l4 .6zm-3.6 32.2 3.6-32.3-4-.4-3.6 32.3 4 .4zm-50.2 2.8c11.6 4.5 23.9 4.2 33.1 2.8 4.6-.7 8.6-1.7 11.4-2.5 1.4-.4 2.5-.8 3.3-1 .4-.1.7-.2.9-.3.1 0 .2-.1.2-.1h.1l-.7-1.9-.7-1.9s-.1 0-.2.1c-.2.1-.4.2-.8.3-.7.2-1.7.6-3.1 1-2.6.8-6.4 1.7-10.8 2.4-8.9 1.3-20.4 1.6-31.1-2.6l-1.6 3.7zm-2.4-38.9 1 37.1 4-.1-1-37.1-4 .1zm4.5-29.5c-1.7 5.2-2.8 12.5-3.5 18.5-.3 3-.6 5.7-.8 7.7-.1 1-.1 1.8-.2 2.3v.8l2 .1 2 .1v-.8c0-.5.1-1.3.2-2.3.2-1.9.4-4.6.7-7.5.7-6 1.8-13 3.3-17.7l-3.7-1.2zm7.6.9.3-2h-.1c-.1 0-.3 0-.5-.1-.4-.1-1-.1-1.6-.2-1.2-.1-2.8-.2-4.1-.1l.6 4c.7-.1 1.9 0 3.1.1.6.1 1.1.1 1.5.2.2 0 .3 0 .4.1h.1l.3-2zm-1.7-9.1-.3 9.1 4 .1.3-9.1-4-.1zm22.5-1.9c-6.7 1.6-13.2 1.3-20.1 0l-.8 3.9c7.3 1.4 14.5 1.7 21.8 0l-.9-3.9zm2.5 11.1v-9.2h-4v9.2h4zm-2 0 .4-2h-.4v2zm16.8 2.9 1.7-1.1-.5-.8-.9-.1-.3 2zm4 29.2-2-.3 2 .3zm-3.6 32.3.7 1.9 1.1-.4.1-1.2-1.9-.3zm-47.5 1.1-2 .1v1.3l1.2.5.8-1.9zm-1.1-37.1-2-.1v.2l2-.1zm4.4-28.8-.3-2-1.2.2-.4 1.2 1.9.6zm5.7.3-.3 2 2.2.4.1-2.3-2-.1zm.3-9.1.4-2-2.3-.4-.1 2.3 2 .1zm21 0h2v-2.5l-2.5.6.5 1.9zm0 9.2h-2v2h2v-2z"/></g><path style="clip-path:url(#SVGID_00000130621296937777987170000009333531862001487246_);fill:#fff" d="m275.9 232.5 13.3 39 3.1 9c9 1.1 11.1.2 11.1.2l-1.4-10.8-6.5-41.9-19.6 4.5z"/><g style="clip-path:url(#SVGID_00000130621296937777987170000009333531862001487246_)"><defs><path id="SVGID_00000137814142833256137470000004699822590436085932_" d="m275.9 232.5 13.3 39 3.1 9c9 1.1 11.1.2 11.1.2l-1.4-10.8-6.5-41.9-19.6 4.5z"/></defs><clipPath id="SVGID_00000028285710626242304970000017323480485267567542_"><use xlink:href="#SVGID_00000137814142833256137470000004699822590436085932_" style="overflow:visible"/></clipPath><path style="clip-path:url(#SVGID_00000028285710626242304970000017323480485267567542_);fill:#20380e" d="m295.9 230-19.6 4.5-.9-3.9 19.6-4.5.9 3.9zm4.1 40.2-6.5-41.9 4-.6 6.5 41.9-4 .6zm1.4 10.8-1.4-10.8 4-.5 1.4 10.8-4 .5zm-8.9-2.5c4.4.5 7.1.6 8.6.5.8 0 1.2-.1 1.5-.1h.2l.7 1.9.7 1.9h-.1c-.1 0-.1 0-.2.1-.1 0-.3.1-.5.1-.4.1-1.1.2-2 .2-1.8.1-4.7 0-9.2-.5l.3-4.1zm-1.4-7.7 3.1 9-3.8 1.3-3.1-9 3.8-1.3zm-13.3-39 13.3 39-3.8 1.3-13.3-39 3.8-1.3zm17.7-3.8-.4-1.9 2.1-.5.3 2.1-2 .3zm6.5 41.9 2-.3-2 .3zm1.4 10.8 2-.3.2 1.6-1.5.6-.7-1.9zm-11.1-.2-.2 2-1.2-.1-.4-1.2 1.8-.7zm-3.1-9-1.9.6 1.9-.6zm-13.3-39-1.9.6-.7-2.1 2.2-.5.4 2z"/></g><path style="clip-path:url(#SVGID_00000130621296937777987170000009333531862001487246_);fill:#fff" d="m254.7 235.1-3.3 36.9-.8 8.5c-8.5 1-11.1 0-11.1 0l-1-10-4.1-39.7 20.3 4.3z"/><g style="clip-path:url(#SVGID_00000130621296937777987170000009333531862001487246_)"><defs><path id="SVGID_00000090989912530709663480000012214237026649033904_" d="m254.7 235.1-3.3 36.9-.8 8.5c-8.5 1-11.1 0-11.1 0l-1-10-4.1-39.7 20.3 4.3z"/></defs><clipPath id="SVGID_00000075863314925680570470000007405624783126159788_"><use xlink:href="#SVGID_00000090989912530709663480000012214237026649033904_" style="overflow:visible"/></clipPath><path style="clip-path:url(#SVGID_00000075863314925680570470000007405624783126159788_);fill:#20380e" d="M254.7 237.1v-4 4zm-19.9-8.2 20.4 4.2-.8 3.9-20.4-4.2.8-3.9zm1.7 41.8-4.1-39.7 4-.4 4.1 39.7-4 .4zm1 10-1-10 4-.4 1 10-4 .4zm13.4 1.8c-4.4.5-7.3.5-9.1.4-.9-.1-1.6-.2-2.1-.3-.2 0-.4-.1-.6-.1-.1 0-.1 0-.2-.1h-.1l.7-1.9.7-1.9s.1 0 .3.1c.3.1.8.1 1.5.2 1.6.1 4.2.1 8.4-.4l.5 4zm2.5-10.3-.8 8.5-4-.4.8-8.5 4 .4zm3.3-37-3.3 36.9-4-.4 3.3-36.9 4 .4zm-2-.1.4-2-.4 4v-2zm-20.3-4.3-2 .2-.3-2.7 2.7.6-.4 1.9zm4.1 39.7-2 .2 2-.2zm1 10-.7 1.9-1.1-.4-.1-1.2 1.9-.3zm11.1 0 2 .2-.1 1.6-1.6.2-.3-2zm.8-8.5 2 .2-2-.2zm3.3-36.9-2-.2.2-1.8h1.8v2z"/></g><path style="clip-path:url(#SVGID_00000130621296937777987170000009333531862001487246_);fill:#b4cc77" d="M226.1 230.7c10.4 10.4 32.1 5 32.1 5l3.1-.2 3.1.2 5.9-.2c11 .8 19.7-2 25.6-4.8 5.6-2.7 8.6-5.6 8.6-5.6l-11.1-31.7-64-1.5-.5 5.8-2.8 33z"/><g style="clip-path:url(#SVGID_00000130621296937777987170000009333531862001487246_)"><defs><path id="SVGID_00000118383021535976862550000018419046281991458976_" d="M226.1 230.7c10.4 10.4 32.1 5 32.1 5l3.1-.2 3.1.2 5.9-.2c11 .8 19.7-2 25.6-4.8 5.6-2.7 8.6-5.6 8.6-5.6l-11.1-31.7-64-1.5-.5 5.8-2.8 33z"/></defs><clipPath id="SVGID_00000171708226363364445660000015339904824527977092_"><use xlink:href="#SVGID_00000118383021535976862550000018419046281991458976_" style="overflow:visible"/></clipPath><path style="clip-path:url(#SVGID_00000171708226363364445660000015339904824527977092_);fill:#20380e" d="m231.1 197.8-3 33.1-4-.4 3-33.1 4 .4zm.5-5.7-.5 5.8-4-.4.5-5.8 4 .4zm61.9 3.3-64-1.5.1-4 64 1.5-.1 4zm9.2 30.3L291.6 194l3.8-1.3 11.1 31.7-3.8 1.3zm-7.6 3.1c2.7-1.3 4.7-2.6 6.1-3.6.7-.5 1.2-.9 1.5-1.2.2-.1.3-.2.4-.3l.1-.1 1.4 1.5 1.4 1.5-.1.1c-.1.1-.3.2-.5.4-.4.3-1 .8-1.8 1.4-1.5 1.1-3.8 2.6-6.7 4l-1.8-3.7zm-24.6 4.7c10.6.7 19-1.9 24.6-4.7l1.8 3.6c-6.1 3-15.2 5.9-26.6 5l.2-3.9zm-6.1.2 5.9-.2.1 4-5.9.2-.1-4zm-2.9-.2 3.1.2-.3 4-3.1-.2.3-4zm-3.4.2 3.1-.2.3 4-3.1.2-.3-4zm-30.6-4.4c4.6 4.6 11.9 5.9 18.5 5.8 3.2 0 6.2-.4 8.3-.7 1.1-.2 1.9-.3 2.5-.5.3-.1.5-.1.7-.1h.2l.5 1.9.5 1.9H258.4c-.2 0-.4.1-.7.2-.6.1-1.6.3-2.7.5-2.3.4-5.4.7-8.9.7-6.9.1-15.6-1.2-21.4-7l2.8-2.7zm1.6-31.6 2 .2-2-.2zm.5-5.8-2-.2.2-1.9h1.9l-.1 2.1zm63.9 1.5v-2h1.4l.5 1.3-1.9.7zm11.1 31.7 1.9-.7.4 1.2-1 .9-1.3-1.4zm-8.6 5.5-.9-1.8.9 1.8zm-25.7 4.9-.1-2h.2l-.1 2zm-5.8.2.1 2h-.2l.1-2zm-3.2-.2-.1-2h.2l-.1 2zm-3.1.2-.5-1.9h.4l.1 1.9zm-32.1-5-1.4 1.4-.7-.7.1-.9 2 .2z"/></g><path style="clip-path:url(#SVGID_00000130621296937777987170000009333531862001487246_);fill:#20380e" d="M249 145.7c7.5 2.4 19-2.6 22.7-7.3 0 0 12.6-.5 15 5.8 4.9 13.2 8.5 54 8.5 54s-11.9 15.4-37.3 13.6c-25.3-1.8-28.8-8.1-28.8-8.1s2-22.9 1.6-28.4c-.4-5.5-.2-22.3 8.1-38.3.1.1 2.7 6.3 10.2 8.7z"/><path style="clip-path:url(#SVGID_00000130621296937777987170000009333531862001487246_);fill:#fff" d="M230.2 71.5s-2.7 13.4-5.3 29.3c-2 12.9 6.3 27.2 21.9 30.7 14.7 3.3 31-.2 38.9-20.3 7.9-20 7.3-37.6-10.8-45.2-18.1-7.5-37.1-9.7-44.7 5.5z"/><g style="clip-path:url(#SVGID_00000130621296937777987170000009333531862001487246_)"><defs><path id="SVGID_00000081626317433850007310000013777136031834193570_" d="M230.2 71.5s-2.7 13.4-5.3 29.3c-2 12.9 6.3 27.2 21.9 30.7 14.7 3.3 31-.2 38.9-20.3 7.9-20 7.3-37.6-10.8-45.2-18.1-7.5-37.1-9.7-44.7 5.5z"/></defs><clipPath id="SVGID_00000109725055409660635540000000975220390620392834_"><use xlink:href="#SVGID_00000081626317433850007310000013777136031834193570_" style="overflow:visible"/></clipPath><path style="clip-path:url(#SVGID_00000109725055409660635540000000975220390620392834_);fill:#20380e" d="M232.2 71.6h-4 4zm43.5-7.4c-9.2-3.8-18.8-6.4-27.2-6-8.5.4-15.9 4-20.1 12.4l3.6 1.8c3.4-6.8 9.3-9.8 16.7-10.2 7.5-.4 16.5 1.9 25.4 5.7l1.6-3.7zm11.9 47.8c4-10.2 6-20 4.5-28.3-1.6-8.5-6.7-15.3-16.4-19.4l-1.5 3.7c8.5 3.5 12.7 9.3 14 16.4 1.3 7.3-.4 16.3-4.2 26.2l3.6 1.4zm-41.2 21.5c7.6 1.7 15.8 1.7 23.2-1.5 7.4-3.2 13.9-9.5 18-20l-3.7-1.5c-3.8 9.6-9.5 15.1-15.8 17.8-6.4 2.8-13.7 2.9-20.7 1.3l-1 3.9zm-23.4-33c-2.2 13.9 6.8 29.2 23.4 32.9l.9-3.9c-14.6-3.3-22.2-16.5-20.3-28.4l-4-.6zm7.2-29-2-.4v.1c0 .1-.1.3-.1.5-.1.4-.2 1-.3 1.7-.3 1.5-.7 3.7-1.2 6.4-1 5.3-2.3 12.7-3.6 20.7l4 .6c1.3-7.9 2.6-15.3 3.6-20.6.5-2.7.9-4.8 1.2-6.3.1-.7.3-1.3.3-1.7 0-.2.1-.3.1-.4V72c0-.1 0-.1-2-.5zm0 .1h-2l3.8.9-1.8-.9zm44.7-5.5-.8 1.8.8-1.8zm-28.1 65.4.4-2-.4 2zM225 100.8l-2-.3 2 .3zm5.2-29.3h2l-4-.4 2 .4z"/></g><path style="clip-path:url(#SVGID_00000130621296937777987170000009333531862001487246_);fill:#f6a100" d="m252.8 70.5.2-.2s0 .1-.2.2z"/><path style="clip-path:url(#SVGID_00000130621296937777987170000009333531862001487246_);fill:#fff" d="m279.3 120.7 5.4-11.6s11.7-2.3 10.5 9.2c-1.2 11.5-13.3 10.2-15.9 2.4z"/><g style="clip-path:url(#SVGID_00000130621296937777987170000009333531862001487246_)"><defs><path id="SVGID_00000126321058750430660760000015304314351423741878_" d="m279.3 120.7 5.4-11.6s11.7-2.3 10.5 9.2c-1.2 11.5-13.3 10.2-15.9 2.4z"/></defs><clipPath id="SVGID_00000077324911617451032460000008955214648769529258_"><use xlink:href="#SVGID_00000126321058750430660760000015304314351423741878_" style="overflow:visible"/></clipPath><path style="clip-path:url(#SVGID_00000077324911617451032460000008955214648769529258_);fill:#20380e" d="M293.2 118.1c-.3 2.5-1.1 4.1-2.1 5.1s-2.2 1.5-3.4 1.5c-2.6.1-5.5-1.6-6.5-4.7l-3.8 1.3c1.6 4.8 6.1 7.6 10.4 7.4 2.2-.1 4.4-.9 6.1-2.7 1.7-1.8 2.9-4.3 3.2-7.5l-3.9-.4zm-8.5-9 .4 2h.4c.3 0 .7-.1 1.1-.1 1 0 2.1 0 3.2.4 1.1.3 2 .9 2.6 1.8.6.9 1.1 2.4.8 5l4 .4c.3-3.2-.2-5.7-1.5-7.6-1.3-1.9-3.1-2.9-4.7-3.4-1.7-.5-3.4-.6-4.6-.6-.6 0-1.1.1-1.5.1-.2 0-.3 0-.4.1h-.1c-.1-.1-.1-.1.3 1.9zm-3.6 12.4 5.4-11.6-3.6-1.7-5.4 11.6 3.6 1.7zm3.6-12.4-.4-2-1 .2-.4.9 1.8.9zm-5.4 11.6-1.8-.8-.3.7.3.8 1.8-.7z"/></g><path style="clip-path:url(#SVGID_00000130621296937777987170000009333531862001487246_);fill:#20380e" d="M288 114.8c0 .6-.1 1.6-.6 2.6-.4 1-1.1 1.8-2.1 2.2l1.2 2.7c1.9-.8 3-2.4 3.6-3.8.6-1.4.8-2.9.8-3.8H288zm-2.6 4.9c-.8.3-1.1 1.2-.8 2 .3.8 1.2 1.1 2 .8l-1.2-2.8zm5.6-4.9c0-.8-.7-1.5-1.5-1.5s-1.5.7-1.5 1.5h3z"/><path style="clip-path:url(#SVGID_00000130621296937777987170000009333531862001487246_);fill:#fff" d="M259 114.4c-1 2.9-3.2 6.3-7.8 6.2-5.8-.1-7.8-3.4-8.6-6.2 6.6-1.4 12.6-.7 16.4 0z"/><g style="clip-path:url(#SVGID_00000130621296937777987170000009333531862001487246_)"><defs><path id="SVGID_00000075145080814734582370000000434200631016843664_" d="M259 114.4c-1 2.9-3.2 6.3-7.8 6.2-5.8-.1-7.8-3.4-8.6-6.2 6.6-1.4 12.6-.7 16.4 0z"/></defs><clipPath id="SVGID_00000078744547159936260810000016784356876662570655_"><use xlink:href="#SVGID_00000075145080814734582370000000434200631016843664_" style="overflow:visible"/></clipPath><path style="clip-path:url(#SVGID_00000078744547159936260810000016784356876662570655_);fill:#20380e" d="M243 116.4c6.3-1.3 12-.7 15.6 0l.8-3.9c-4-.8-10.3-1.5-17.2 0l.8 3.9zm8.2 2.2c-2.5 0-3.9-.8-4.9-1.6-1-.9-1.5-2-1.8-3.2l-3.9 1c.4 1.6 1.3 3.6 3 5.1 1.7 1.6 4.2 2.6 7.5 2.6l.1-3.9zm5.9-4.8c-.4 1.3-1.1 2.5-2 3.4-.9.8-2.1 1.5-3.9 1.4l-.1 4c2.9 0 5.1-1 6.7-2.5 1.6-1.5 2.5-3.4 3-5l-3.7-1.3zm-14.6.6-.4-2-2.1.4.6 2 1.9-.4zm8.6 6.2v-2 2zm7.9-6.2 1.9.6.7-2.2-2.2-.4-.4 2z"/></g><path style="clip-path:url(#SVGID_00000130621296937777987170000009333531862001487246_);fill:#20380e" d="M271.3 100.8c-.6-1.2-1.9-2.8-3.8-3.6-2-.9-4.5-1-7.3.7l1.5 2.6c1.9-1.2 3.4-1 4.5-.5 1.2.5 2 1.5 2.4 2.3l2.7-1.5zm-11.1-3c-.7.4-.9 1.3-.5 2.1.4.7 1.3.9 2.1.5l-1.6-2.6zm8.4 4.4c.4.7 1.3 1 2 .6s1-1.3.6-2l-2.6 1.4zM246.5 96.2c-.8-1.1-2.4-2.4-4.4-2.9-2.1-.6-4.7-.4-7.4 1.4l1.7 2.5c2-1.3 3.7-1.4 4.9-1 1.3.4 2.3 1.2 2.8 1.9l2.4-1.9zm-11.8-1.5c-.7.5-.9 1.4-.4 2.1.5.7 1.4.9 2.1.4l-1.7-2.5zm9.4 3.4c.5.7 1.4.8 2.1.3.7-.5.8-1.4.3-2.1l-2.4 1.8z"/><path style="clip-path:url(#SVGID_00000130621296937777987170000009333531862001487246_);fill:#20380e" d="M280.1 59.9s22.5 6.8 23.1 19.5c.6 12.7-4.6 36.2-4.6 36.2s-13.1-13.8-19.8-16.8c-1.1-.5 2.3-16.2 1.1-16.8-1.3-.5-4.1 10.9-5.6 10.6-10.3-1.9-36.9-8.2-39.1-10.9l6.8-12S229.6 86.2 227.7 87c-1.9.8-3.2 6.6-6.4 4.2-3.2-2.4 4.6-25.6 12.5-32.4 7.8-6.6 28.5-9.8 46.3 1.1z"/><path style="clip-path:url(#SVGID_00000130621296937777987170000009333531862001487246_);fill:#20380e" d="M282 61.2s5.7-5.1 3.5-6.1-4.5 4.1-4.5 4.1 2.1-9.3-1.1-8.2c-3.2 1.1-2.9 8.1-.6 9.7"/><path style="clip-path:url(#SVGID_00000130621296937777987170000009333531862001487246_);fill:#94b73d" d="m203.9 115.4-6.9 25.9c-.5 2 .6 4 2.6 4.6l.4.1c2.1.6 4.2-.6 4.7-2.7l6.5-26c.7-2.8-1.9-5.3-4.7-4.5-1.3.4-2.3 1.4-2.6 2.6z"/><g style="clip-path:url(#SVGID_00000130621296937777987170000009333531862001487246_)"><defs><path id="SVGID_00000127742383395365180750000011843493560354075031_" d="m203.9 115.4-6.9 25.9c-.5 2 .6 4 2.6 4.6l.4.1c2.1.6 4.2-.6 4.7-2.7l6.5-26c.7-2.8-1.9-5.3-4.7-4.5-1.3.4-2.3 1.4-2.6 2.6z"/></defs><clipPath id="SVGID_00000067941098394790091010000002672970657960019584_"><use xlink:href="#SVGID_00000127742383395365180750000011843493560354075031_" style="overflow:visible"/></clipPath><path style="clip-path:url(#SVGID_00000067941098394790091010000002672970657960019584_);fill:#20380e" d="M203.9 116.4v-2 2zm2.2-4.6c-1.6.5-2.8 1.7-3.2 3.3l1.9.5c.2-.9.9-1.6 1.9-1.9l-.6-1.9zm6 5.7c.9-3.6-2.5-6.8-6-5.7l.6 1.9c2-.6 4 1.2 3.5 3.3l1.9.5zm-6.4 26 6.5-26-1.9-.5-6.5 26 1.9.5zm-6 3.4c2.6.8 5.3-.8 6-3.4l-1.9-.5c-.4 1.5-1.9 2.4-3.5 2l-.6 1.9zm-.4-.1.4.1.6-1.9-.4-.1-.6 1.9zm-3.2-5.8c-.7 2.5.8 5 3.2 5.8l.6-1.9c-1.4-.4-2.2-1.9-1.9-3.3l-1.9-.6zm6.9-25.8-6.9 25.9 1.9.5 6.9-25.9-1.9-.5zm.9.2-1-.3-.3 1.3h1.3v-1zm2.5-2.6.3 1-.3-1zm4.8 4.5 1 .2-1-.2zm-6.5 26-1-.2 1 .2zM200 146l-.3 1 .3-1zm-.4-.1-.3 1 .3-1zm-2.5-4.6-1-.3 1 .3zm6.8-25.9 1 .3.3-1.3h-1.3v1z"/></g><path style="clip-path:url(#SVGID_00000130621296937777987170000009333531862001487246_);fill:#94b73d" d="M224.6 97.6c-24.8-16.3-58.7-29-58.7-29L151 118.2s38.7 7 65.6 6.7c5.4-10 7.3-20.3 8-27.3z"/><g style="clip-path:url(#SVGID_00000130621296937777987170000009333531862001487246_)"><defs><path id="SVGID_00000127724251064810890740000003342059068799356049_" d="M224.6 97.6c-24.8-16.3-58.7-29-58.7-29L151 118.2s38.7 7 65.6 6.7c5.4-10 7.3-20.3 8-27.3z"/></defs><clipPath id="SVGID_00000054969686067081488790000001953153817577554315_"><use xlink:href="#SVGID_00000127724251064810890740000003342059068799356049_" style="overflow:visible"/></clipPath><path style="clip-path:url(#SVGID_00000054969686067081488790000001953153817577554315_);fill:#20380e" d="M218.4 125.8c5.5-10.2 7.5-20.8 8.2-28l-4-.4c-.7 6.9-2.6 16.9-7.8 26.5l3.6 1.9zm-67.3-7.6-.4 2h.1c.1 0 .2 0 .3.1.3.1.7.1 1.3.2 1.1.2 2.7.5 4.8.8 4.1.7 9.8 1.5 16.3 2.4 13.1 1.7 29.6 3.4 43.1 3.2l-.1-4c-13.3.2-29.6-1.5-42.6-3.2-6.5-.9-12.2-1.7-16.2-2.4-2-.3-3.6-.6-4.7-.8-.6-.1-1-.2-1.3-.2-.1 0-.3 0-.3-.1h-.1c.1 0 .1 0-.2 2zM164 67.9l-14.9 49.6 3.8 1.1L167.8 69l-3.8-1.1zm61.7 28c-12.5-8.2-27.3-15.5-38.9-20.8-5.8-2.6-10.9-4.7-14.4-6.2-1.8-.7-3.2-1.3-4.2-1.7-.5-.2-.9-.3-1.1-.4-.1 0-.2-.1-.3-.1h-.1l-.7 1.9-.7 1.9h.1c.1 0 .2.1.3.1.3.1.6.2 1.1.4 1 .4 2.4.9 4.2 1.7 3.5 1.4 8.5 3.5 14.3 6.1 11.5 5.2 26.1 12.4 38.4 20.5l2-3.4zm-9.1 28.9v2h1.2l.6-1-1.8-1zm-65.5-6.6-1.9-.6-.6 2.1 2.2.4.3-1.9zm14.8-49.7.7-1.9-2-.8-.6 2.1 1.9.6zm58.7 29.1 2 .2.1-1.2-1-.7-1.1 1.7z"/></g><path style="clip-path:url(#SVGID_00000130621296937777987170000009333531862001487246_);fill:#fff" d="M227.6 113.2c2.3-7.1 1.8-12.4 1.8-12.4-1.5-1.1-3.1-2.2-4.7-3.2-.7 7-2.7 17.4-8 27.3 1.9 0 3.8-.1 5.6-.2-.1-.1 2.8-3.6 5.3-11.5z"/><g style="clip-path:url(#SVGID_00000130621296937777987170000009333531862001487246_)"><defs><path id="SVGID_00000127725550544906813580000009259365974766346666_" d="M227.6 113.2c2.3-7.1 1.8-12.4 1.8-12.4-1.5-1.1-3.1-2.2-4.7-3.2-.7 7-2.7 17.4-8 27.3 1.9 0 3.8-.1 5.6-.2-.1-.1 2.8-3.6 5.3-11.5z"/></defs><clipPath id="SVGID_00000158728007318697411870000016673713892623904901_"><use xlink:href="#SVGID_00000127725550544906813580000009259365974766346666_" style="overflow:visible"/></clipPath><path style="clip-path:url(#SVGID_00000158728007318697411870000016673713892623904901_);fill:#20380e" d="M227.6 115.2v-4 4zm-5.4 9.4 1.6 1.3s.1-.1.1-.2c.1-.1.2-.3.4-.6.3-.5.8-1.2 1.3-2.2 1.1-2 2.5-4.9 3.8-9l-3.8-1.2c-1.2 3.8-2.5 6.5-3.4 8.3-.5.9-.9 1.5-1.1 1.9-.1.2-.2.3-.3.4l-.1.1 1.5 1.2zm-5.6 2.2c2 0 3.9-.1 5.7-.2l-.2-4c-1.8.1-3.6.2-5.5.2v4zm6-29.4c-.7 6.9-2.6 16.9-7.8 26.5l3.5 1.9c5.5-10.2 7.5-20.8 8.2-28l-3.9-.4zm7.9 1.8-4.8-3.3-2.2 3.3c1.6 1.1 3.2 2.1 4.7 3.2l2.3-3.2zm-1 14.6c1.2-3.7 1.7-7 1.8-9.4.1-1.2.1-2.1.1-2.8v-1.1l-2 .2-2 .2v.7c0 .6 0 1.4-.1 2.4-.2 2.1-.6 5-1.7 8.4l3.9 1.4zm-1.9-.6v-2h-1.5l-.4 1.4 1.9.6zm-5.4 11.4.1 2h.9l.6-.7-1.6-1.3zm-5.6.2-1.8-.9-1.6 3h3.4v-2.1zm8-27.2 1.1-1.7-2.8-1.8-.3 3.3 2 .2zm4.8 3.2 2-.2-.1-.9-.8-.5-1.1 1.6zm-1.8 12.4v2h1.5l.4-1.4-1.9-.6z"/></g><ellipse transform="rotate(-73.328 158.493 93.318)" style="clip-path:url(#SVGID_00000130621296937777987170000009333531862001487246_);fill:#fff" cx="158.5" cy="93.3" rx="25.9" ry="15.5"/><g style="clip-path:url(#SVGID_00000130621296937777987170000009333531862001487246_)"><defs><ellipse id="SVGID_00000182488195281115759630000011757161528729779628_" transform="rotate(-73.328 158.493 93.318)" cx="158.5" cy="93.3" rx="25.9" ry="15.5"/></defs><clipPath id="SVGID_00000034788749799957779420000015469799950119972286_"><use xlink:href="#SVGID_00000182488195281115759630000011757161528729779628_" style="overflow:visible"/></clipPath><path style="clip-path:url(#SVGID_00000034788749799957779420000015469799950119972286_);fill:#20380e" d="M145.6 89.5c2-6.6 5.3-11.9 9-15.3 3.8-3.4 7.6-4.6 10.7-3.7l1.1-3.8c-5-1.5-10.3.6-14.6 4.6-4.3 4-8 10-10.2 17.2l4 1zm6 26.7c-3.2-.9-5.7-4.1-7-9-1.2-4.9-1.1-11.2.9-17.8l-3.8-1.1c-2.1 7.1-2.4 14.2-.9 19.9 1.4 5.7 4.6 10.3 9.7 11.8l1.1-3.8zm19.8-19c-2 6.6-5.3 11.9-9 15.3-3.8 3.4-7.6 4.6-10.7 3.7l-1.1 3.8c5 1.5 10.3-.6 14.6-4.6 4.3-4 8-10 10.2-17.2l-4-1zm-6-26.8c3.2.9 5.7 4.1 7 9 1.2 4.9 1.1 11.2-.9 17.8l3.8 1.1c2.1-7.1 2.4-14.2.9-19.9-1.4-5.7-4.6-10.3-9.7-11.8l-1.1 3.8z"/></g><path style="clip-path:url(#SVGID_00000130621296937777987170000009333531862001487246_);fill:#20380e" d="M157.1 94.1c1.2-3.8 5.2-6 9-4.9 1.7.5 3 1.6 4 2.9 2-10-.4-18.8-5.9-20.5-6.2-1.9-14 6-17.5 17.6s-1.2 22.4 5 24.3c4.8 1.4 10.6-3 14.6-10.4-1.3.4-2.8.5-4.3 0-3.8-1.1-6-5.1-4.9-9z"/><path style="clip-path:url(#SVGID_00000130621296937777987170000009333531862001487246_);fill:#94b73d" d="M170.1 92.2c-.9-1.4-2.3-2.4-4-2.9-3.8-1.2-7.9 1-9 4.9-1.2 3.8 1 7.9 4.9 9 1.4.4 2.9.4 4.3 0 1.2-2.2 2.1-4.6 2.9-7.1.4-1.4.7-2.7.9-3.9z"/><path style="clip-path:url(#SVGID_00000130621296937777987170000009333531862001487246_);fill:#fff" d="M274.1 146.6s-17.2 6-38.1 17.9c-12.8-11.4-24.1-24.7-24.1-24.7s-3-12.6-6.3-13.5c-3.4-.9-1.3 6.4-1.3 6.4s-5.7-8.4-12.7 6.3c0 0-2.3 5.2 11.5 11 0 0 7.5 15.9 25 32.1 2.1 2 5.7 2.6 9.2 1.6 2.7-.3 6-.8 10-1.7 3.1-.6 23.3-7.2 36.6-18.2 8.3-6.9 4.6-16.4-3.2-21.2-2 .1-5.2 3.6-6.6 4z"/><g style="clip-path:url(#SVGID_00000130621296937777987170000009333531862001487246_)"><defs><path id="SVGID_00000071528202416910067380000006239929353960807054_" d="M274.1 146.6s-17.2 6-38.1 17.9c-12.8-11.4-24.1-24.7-24.1-24.7s-3-12.6-6.3-13.5c-3.4-.9-1.3 6.4-1.3 6.4s-5.7-8.4-12.7 6.3c0 0-2.3 5.2 11.5 11 0 0 7.5 15.9 25 32.1 2.1 2 5.7 2.6 9.2 1.6 2.7-.3 6-.8 10-1.7 3.1-.6 23.3-7.2 36.6-18.2 8.3-6.9 4.6-16.4-3.2-21.2-2 .1-5.2 3.6-6.6 4z"/></defs><clipPath id="SVGID_00000021079092049388669370000001648912552352378754_"><use xlink:href="#SVGID_00000071528202416910067380000006239929353960807054_" style="overflow:visible"/></clipPath><path style="clip-path:url(#SVGID_00000021079092049388669370000001648912552352378754_);fill:#20380e" d="M274.1 144.6v4-4zm6.1-4c-.9.1-1.8.6-2.4 1-.7.4-1.3.9-1.9 1.4-.6.5-1.2.9-1.6 1.3-.5.4-.7.4-.7.4l.9 3.9c.8-.2 1.6-.7 2.1-1.1.6-.4 1.2-.9 1.8-1.4.6-.5 1.1-.9 1.6-1.2.5-.3.7-.4.7-.4l-.5-3.9zm4.8 24.7c4.7-3.9 6.2-8.7 5.1-13.4-1-4.5-4.3-8.4-8.6-11.1l-2.1 3.4c3.6 2.2 6 5.4 6.8 8.6.7 3-.1 6.4-3.8 9.4l2.6 3.1zm-37.5 18.6c1.7-.4 7.7-2.2 14.9-5.4 7.2-3.1 15.7-7.6 22.6-13.3l-2.6-3.1c-6.4 5.3-14.6 9.6-21.6 12.7-7 3.1-12.7 4.8-14.1 5.1l.8 4zm-10.2 1.8c2.8-.3 6.2-.9 10.2-1.7l-.8-3.9c-4 .8-7.2 1.4-9.8 1.7l.4 3.9zm-10.7-2.2c2.8 2.6 7.2 3.2 11.1 2.1l-1.1-3.8c-3 .9-5.8.3-7.2-1.1l-2.8 2.8zM203 149.9l-1.8.9s0 .1.1.2.2.3.3.6c.2.5.6 1.2 1.1 2.1 1 1.8 2.5 4.3 4.6 7.4 4.1 6.1 10.5 14.3 19.3 22.5l2.7-2.9c-8.6-8-14.7-15.9-18.7-21.8-2-3-3.4-5.4-4.4-7.1-.5-.9-.8-1.5-1.1-2-.1-.2-.2-.4-.3-.5 0-.1 0-.1-.1-.1.1-.1.1-.1-1.7.7zM191.5 139l-1.8-.8v.2c0 .1-.1.2-.1.4-.1.3-.1.7-.1 1.1 0 .9.2 2.1 1 3.4 1.5 2.6 4.8 5.5 11.9 8.5l1.5-3.7c-6.7-2.8-9.1-5.3-10-6.8-.4-.7-.5-1.2-.4-1.4v-.2c-.2.1-.2.1-2-.7zm12.7-6.3 1.7-1.1s0-.1-.1-.1l-.3-.3c-.2-.3-.5-.6-1-1-.8-.7-2.1-1.6-3.8-1.8-3.7-.4-7.4 2.3-11 9.8l3.6 1.7c3.4-7.3 6-7.6 6.9-7.5.6.1 1.2.4 1.6.8l.5.5c.1.1.1.1.1.2.1-.1.1-.1 1.8-1.2zm1.8-8.3c-.7-.2-1.5-.2-2.3.1-.8.3-1.3 1-1.6 1.5-.5 1.1-.5 2.3-.5 3.2.1 1 .2 2 .4 2.7.1.4.2.7.2.9 0 .1.1.2.1.3v.1l1.9-.5 1.9-.5s0-.1-.1-.2c0-.2-.1-.4-.2-.7-.1-.6-.3-1.4-.3-2.1v-.9c0-.2.1-.3.1-.3s-.1.2-.4.3c-.3.1-.4 0-.3.1l1.1-4zm5.8 15.4 1.9-.5v-.1c0-.1-.1-.2-.1-.4-.1-.4-.2-.9-.4-1.5-.3-1.2-.8-2.9-1.4-4.6-.6-1.7-1.3-3.5-2.2-4.9-.4-.7-.9-1.4-1.4-2-.5-.6-1.3-1.2-2.2-1.4l-1 3.9c-.1 0 0 0 .3.3s.6.7.9 1.3c.7 1.2 1.3 2.7 1.9 4.3.6 1.6 1 3.1 1.4 4.3.2.6.3 1.1.4 1.4 0 .2.1.3.1.4v.1c-.1-.1-.1-.1 1.8-.6zm25.5 23.2c-6.3-5.6-12.3-11.7-16.7-16.5-2.2-2.4-4-4.4-5.3-5.8-.6-.7-1.1-1.3-1.4-1.6l-.4-.4-.1-.1-1.5 1.3-1.5 1.3.1.1c.1.1.2.3.4.4.3.4.8 1 1.5 1.7 1.3 1.4 3.1 3.5 5.3 5.9 4.5 4.8 10.5 11 17 16.7l2.6-3zm36.8-16.4-.7-1.9s-.1 0-.2.1c-.1 0-.3.1-.6.2-.5.2-1.3.5-2.3.9-2 .8-4.8 1.9-8.3 3.4-7 3-16.6 7.5-27.1 13.5l2 3.5c10.4-5.9 19.9-10.4 26.7-13.4 3.4-1.5 6.2-2.6 8.1-3.3 1-.4 1.7-.6 2.2-.8.2-.1.4-.2.6-.2.1 0 .1 0 .1-.1.1-.1.1-.1-.5-1.9zm0 0v2h.2l.2-.1-.4-1.9zm6.4-4.1 1.1-1.7-.6-.4-.7.1.2 2zm3.2 21.2 1.3 1.5-1.3-1.5zM247.1 182l.4 2-.4-2zm-10 1.7-.2-2h-.4l.6 2zm-9.2-1.6 1.4-1.4-1.4 1.4zM203 149.9l1.8-.9-.3-.7-.7-.3-.8 1.9zM191.5 139l-1.8-.9 1.8.9zm12.7-6.3-1.7 1.1 3.6-1.7-1.9.6zm1.3-6.4.5-1.9-.5 1.9zm6.3 13.5-1.9.5.1.5.3.4 1.5-1.4zm24.2 24.7-1.3 1.5 1.1 1 1.2-.7-1-1.8zm38.1-17.9v-2h-.3l-.3.1.6 1.9z"/></g><path style="clip-path:url(#SVGID_00000130621296937777987170000009333531862001487246_);fill:#20380e" d="M288.1 144.1c-5.5-5.5-9.3-5-15.2-1.8-5.9 3.2-34 19.4-38.1 18.9-4.1-.5-11.9-11.9-11.9-11.9-1.9 4.3-14.6 13.2-14.6 13.2s8 16.2 23 23c15.6 7.1 50.6-12.5 56.9-24.9 2.7-5.8 4.9-11.5-.1-16.5z"/><path style="clip-path:url(#SVGID_00000130621296937777987170000009333531862001487246_);fill:#386118" d="M231.4 185.4c-7.4-3.3-13.1-9.1-17-13.9l-.4.3c3.9 4.9 9.6 10.7 17.2 14.1l.2-.5zm56.6-24.8c-1.7 3-5.2 6.4-9.6 9.9-4.4 3.4-9.9 6.8-15.5 9.6-5.7 2.8-11.6 5-17.1 6.1-5.5 1.1-10.5 1-14.3-.8l-.2.5c4 1.8 9.1 1.9 14.6.8 5.5-1.1 11.5-3.3 17.3-6.1 5.7-2.8 11.2-6.2 15.6-9.7 4.5-3.5 7.9-7 9.7-10l-.5-.3zm-73.6 10.8c-.1-.1-.2-.1-.4 0s-.1.2 0 .4l.4-.4zm16.9 14.2.1-.2-.1.2zm57.1-24.8c.1-.1 0-.3-.1-.3-.1-.1-.3 0-.3.1l.4.2zM234.8 161.5c.3 0 .7 0 1.1-.1.4-.1 1-.2 1.6-.4 1.2-.4 2.6-1 4.3-1.8 3.3-1.5 7.4-3.6 11.5-5.8 8.3-4.4 16.8-9.3 19.8-10.9l-.2-.4c-3 1.6-11.5 6.5-19.7 10.9-4.1 2.2-8.2 4.3-11.5 5.8-1.6.7-3.1 1.3-4.2 1.7-.6.2-1.1.3-1.5.4-.4.1-.7.1-.9.1l-.3.5zm-9.5-8.5c1.3 1.7 3 3.7 4.7 5.4.8.8 1.7 1.6 2.5 2.1s1.6.9 2.3 1l.1-.5c-.6-.1-1.3-.4-2.1-.9s-1.6-1.2-2.4-2.1c-1.7-1.6-3.3-3.6-4.7-5.3l-.4.3zm47.7-10.4c.1-.1.2-.2.1-.3-.1-.1-.2-.2-.3-.1l.2.4zm-38.2 18.7v-.2.2zm-9.1-8.6c-.1-.1-.2-.1-.4 0-.1.1-.1.2 0 .4l.4-.4z"/><path style="clip-path:url(#SVGID_00000130621296937777987170000009333531862001487246_);fill:#386118" d="M231.6 159.6h.2v-.1c0-.1 0-.2.1-.4.1-.4.2-.9.3-1.5.3-1.3.6-3 1.1-4.9.9-3.8 2.2-8.2 3.5-10.8l-.4-.2c-1.3 2.7-2.6 7.1-3.5 10.9-.5 1.9-.8 3.6-1.1 4.9-.1.6-.2 1.1-.3 1.5 0 .2-.1.3-.1.4v.1l.2.1zm5.3-17.7c.1-.1 0-.3-.1-.3-.1-.1-.3 0-.3.1l.4.2zm-5.5 17.6c0 .1.1.3.2.3s.3-.1.3-.2l-.5-.1z"/><path style="clip-path:url(#SVGID_00000130621296937777987170000009333531862001487246_);fill:#94b73d" d="m106.7 113.5 28.2-6-.5-6.2-29.7 1.8zM102.5 85.3l27.9 7.3 2.3-5.9-27.4-11.6zM115.7 59.2 136 79.6l5-3.8-17.6-23.9z"/></g></g></switch></svg>