<svg xmlns="http://www.w3.org/2000/svg" xmlns:xlink="http://www.w3.org/1999/xlink" xml:space="preserve" id="Layer_1" x="0" y="0" style="enable-background:new 0 0 220 220" version="1.1" viewBox="0 0 220 220"><style>.st0{fill:#f5f5f5}.st0,.st1{clip-path:url(#SVGID_00000106830613964509457900000013505278756164114099_)}.st2{fill:#fff}.st2,.st3{clip-path:url(#SVGID_00000083052550419744836350000010241044941315569574_)}.st4,.st5{clip-path:url(#SVGID_00000175317893853266509240000000819457758005255321_);fill:#20380e}.st5{clip-path:url(#SVGID_00000140698755296956221590000012371645462799263372_)}.st6{clip-path:url(#SVGID_00000083052550419744836350000010241044941315569574_)}.st6,.st7,.st8{fill:#20380e}.st7{clip-path:url(#SVGID_00000041264908525688452580000004485319532445627273_)}.st8{clip-path:url(#SVGID_00000078036098673003060730000016935119222776866471_)}.st9{clip-path:url(#SVGID_00000136402892897465277210000013966188767842129596_)}.st10{fill:#e9ebf5}.st10,.st11,.st12{clip-path:url(#SVGID_00000083052550419744836350000010241044941315569574_)}.st11{fill:#94b73d}.st12{fill:#a9c563}.st13,.st14{clip-path:url(#SVGID_00000156566777176083621450000006019879177234353341_);fill:#20380e}.st14{clip-path:url(#SVGID_00000036944025853152372560000016076892064425718691_)}</style><switch><g><defs><path id="SVGID_1_" d="M0 0h220v220H0z"/></defs><clipPath id="SVGID_00000150815128078912334540000003592952875469880465_"><use xlink:href="#SVGID_1_" style="overflow:visible"/></clipPath><path d="M100.5 36.4c25-2 48.9 6.1 65.9 17.2 17.1 11.2 27.2 25.4 28.3 40.6 1.1 15.3-6.6 29.8-17.9 44.2-11.5 14.1-26.7 28.1-44.2 37.1-33.7 18.9-72.3 3.6-90.7-42.1-18.5-45.5 7.3-94.4 58.6-97z" style="clip-path:url(#SVGID_00000150815128078912334540000003592952875469880465_);fill:#f5f5f5"/><g style="clip-path:url(#SVGID_00000150815128078912334540000003592952875469880465_)"><defs><path id="SVGID_00000084498654901095713750000013260237439125653387_" d="M0 0h220v220H0z"/></defs><clipPath id="SVGID_00000170269549081626890940000016130952293112998064_"><use xlink:href="#SVGID_00000084498654901095713750000013260237439125653387_" style="overflow:visible"/></clipPath><path d="m107.8 200.6.3 4.3.3 6.6.5 11.2.6 8.3h29.9l-2.3-24.2-.5-6.2z" style="clip-path:url(#SVGID_00000170269549081626890940000016130952293112998064_);fill:#fff"/><g style="clip-path:url(#SVGID_00000170269549081626890940000016130952293112998064_)"><defs><path id="SVGID_00000065773533927634516690000003248506430483517354_" d="m107.8 200.6.3 4.3.3 6.6.5 11.2.6 8.3h29.9l-2.3-24.2-.5-6.2z"/></defs><clipPath id="SVGID_00000120558591017133732280000005260424641879018641_"><use xlink:href="#SVGID_00000065773533927634516690000003248506430483517354_" style="overflow:visible"/></clipPath><path d="M136.6 202.6h-28.8v-4h28.8v4zm-1.5 4.3-.5-6.1 4-.3.5 6.1-4 .3zm2.3 24.3-2.3-24.2 4-.4 2.3 24.2-4 .4zm-27.9-2.2h29.9v4h-29.9v-4zm1.4-6.4.6 8.3-4 .3-.6-8.3 4-.3zm-.5-11.2.6 11.2-4 .2-.6-11.2 4-.2zm-.3-6.6.3 6.6-4 .2-.3-6.6 4-.2zm-.3-4.3.2 4.2-4 .2-.2-4.2 4-.2zm26.8.1v-2h1.8l.2 1.8-2 .2zm.5 6.2-2 .2 2-.2zm2.3 24.2 2-.2.2 2.2h-2.2v-2zm-29.9 0v2h-1.9l-.1-1.9 2-.1zm-.6-8.3-2 .1 2-.1zm-.5-11.2 2-.1-2 .1zm-.3-6.6-2 .1 2-.1zm-.3-4.3-2 .1-.1-2.1h2.1v2z" style="clip-path:url(#SVGID_00000120558591017133732280000005260424641879018641_);fill:#20380e"/></g><path d="M75.1 231h32.6l.2-7.5c.3-.3.7-.5 1-.8 5-3.8 8.9-8.5 11.1-11.5 1.5-2 2.2-3.3 2.2-3.3l-14.2-3-29.4-6.2-.6 5.6-2.9 26.7z" style="clip-path:url(#SVGID_00000170269549081626890940000016130952293112998064_);fill:#fff"/><g style="clip-path:url(#SVGID_00000170269549081626890940000016130952293112998064_)"><defs><path id="SVGID_00000139263741683341661720000013553642030660747652_" d="M75.1 231h32.6l.2-7.5c.3-.3.7-.5 1-.8 5-3.8 8.9-8.5 11.1-11.5 1.5-2 2.2-3.3 2.2-3.3l-14.2-3-29.4-6.2-.6 5.6-2.9 26.7z"/></defs><clipPath id="SVGID_00000016779257549388070790000006801483640297982112_"><use xlink:href="#SVGID_00000139263741683341661720000013553642030660747652_" style="overflow:visible"/></clipPath><path d="m80 204.6-2.9 26.7-4-.4 2.9-26.7 4 .4zm.6-5.7-.6 5.6-4-.4.6-5.6 4 .4zm27 7.9-29.4-6.2.8-3.9 29.4 6.2-.8 3.9zm14.3 3-14.2-3 .8-3.9 14.2 3-.8 3.9zm-3.5.2c.7-1 1.2-1.8 1.6-2.3.2-.3.3-.5.4-.6 0-.1.1-.1.1-.2l1.7 1 1.7 1v.1s-.1.1-.1.2c-.1.2-.3.4-.5.7-.4.6-1 1.5-1.7 2.5l-3.2-2.4zm-10.7 11.1c4.8-3.6 8.5-8.1 10.7-11.1l3.2 2.4c-2.3 3.2-6.3 8-11.5 11.9l-2.4-3.2zm-1 .8c.3-.2.7-.5 1-.7l2.5 3.2c-.4.3-.7.6-1.1.8l-2.4-3.3zm-.9 9.1.2-7.5 4 .1-.2 7.5-4-.1zm-30.7-2h32.6v4H75.1v-4zm3-24.7 2 .2-2-.2zm.5-5.6-2-.2.2-2.2 2.2.5-.4 1.9zm29.5 6.2.4-2-.4 2zm14.2 3 .4-2 2.7.6-1.4 2.4-1.7-1zm-2.3 3.3-1.6-1.2 1.6 1.2zm-11.1 11.5-1.2-1.6 1.2 1.6zm-1 .8h-2v-1l.8-.6 1.2 1.6zm-.1 7.5h2v2h-2v-2zm-32.7 0v2h-2.2l.2-2.2 2 .2z" style="clip-path:url(#SVGID_00000016779257549388070790000006801483640297982112_);fill:#20380e"/></g><path d="M148.3 91.3s.2-.4.4-1c3.4-9.7-3.2-20-13.4-21.3-3.3-.4-7.1-.1-11.1 1.9 0 0-11.8-13.1-31.5-3.2 0 0-14.6 6.7-14 24.1.1 2.5 0 5.1-.5 7.6-.6 3.2-1.8 7-4.1 10.1-.2.3-.5.6-.8.9-1 .9-3.4 3.4-3.9 7.2-.6 4.3 1.6 8.5 5.2 10.9 2 1.3 4.7 2.3 8.3 1.9 0 0 0 4.8 4.3 8.1 1.6 1.2 3.6 2 5.7 2.2 3 .4 8.3.4 12.4-2.6 0 0 .8 4.1 5.5 6 2.2.9 4.6 1 6.8.5 2.6-.6 6.1-2 8-5.6 0 0 2.5 3.7 8.5 3.2 1.6-.1 3.2-.8 4.4-1.9.9-.9 1.7-2.2 1.8-4 0 0 .9.3 2.2.4 7.9.9 13.5-7.3 9.6-14.2 0-.1-.1-.1-.1-.2-.9-1.6-1.7-3.3-2.2-5.1-.5-2.2-1-5.1-.7-8.2 0-.4.1-.8.2-1.2.5-1.9 1.6-10.5-1-16.5z" style="clip-path:url(#SVGID_00000170269549081626890940000016130952293112998064_);fill:#20380e"/><path d="M77 201.7s32.4 16.2 61.4 2.3l-.3-6.7-2-43.5c-.2-4.4-2.5-8.5-6.1-11l-7.1-4.1-19-1.4-16.1 4.2-7.9 44.3-2.9 15.9z" style="clip-path:url(#SVGID_00000170269549081626890940000016130952293112998064_);fill:#20380e"/><path d="M103.1 127.6v9.9c10.9 7.1 20.5 1.7 20.5 1.7l.2-3.6.2-5.1-20.9-2.9z" style="clip-path:url(#SVGID_00000170269549081626890940000016130952293112998064_);fill:#fff"/><g style="clip-path:url(#SVGID_00000170269549081626890940000016130952293112998064_)"><defs><path id="SVGID_00000000929842290962101770000005426759077393955470_" d="M103.1 127.6v9.9c10.9 7.1 20.5 1.7 20.5 1.7l.2-3.6.2-5.1-20.9-2.9z"/></defs><clipPath id="SVGID_00000038400645938248623970000010846990085177929106_"><use xlink:href="#SVGID_00000000929842290962101770000005426759077393955470_" style="overflow:visible"/></clipPath><path d="M103.1 125.6v4-4zm20.6 6.9-20.8-2.9.6-4 20.8 2.9-.6 4zm-1.9 3 .2-5.1 4 .1-.2 5.1-4-.1zm-.2 3.6.2-3.6 4 .2-.2 3.6-4-.2zm-17.4-3.3c5 3.3 9.6 3.6 13 3.2 1.7-.2 3.1-.6 4-1 .5-.2.8-.3 1.1-.4.1-.1.2-.1.3-.1h.1l1 1.7 1 1.7s-.1 0-.1.1c-.1 0-.2.1-.4.2-.3.2-.8.4-1.4.6-1.2.4-2.9.9-4.9 1.2-4.1.5-9.8 0-15.7-3.8l2-3.4zm.9-8.2v9.9h-4v-9.9h4zm-2 0-.3 2 .3-4v2zm20.9 2.9.3-2 1.8.3-.1 1.8-2-.1zm-.2 5.1 2 .1-2-.1zm-.2 3.5 2 .1-.1 1.1-1 .5-.9-1.7zm-20.5-1.7-1.1 1.7-.9-.6v-1.1h2zm0-9.8v-2h2v2h-2z" style="clip-path:url(#SVGID_00000038400645938248623970000010846990085177929106_);fill:#20380e"/></g><path d="M152.5 109.5c-3.6-6.4-9.5-2.7-12 0-3.2 8 .3 10 2.5 10 11.6-.4 11.2-6.8 9.5-10z" style="clip-path:url(#SVGID_00000170269549081626890940000016130952293112998064_);fill:#fff"/><path d="M143 118.7c-.9 0-2-.4-2.6-1.6-.6-1.2-.8-3.5.8-7.4l-1.4-.6c-1.6 4.1-1.6 6.8-.7 8.6.9 1.8 2.6 2.4 3.9 2.4v-1.4zm8.8-8.9c.8 1.5 1.2 3.6.2 5.3-.9 1.7-3.4 3.4-9.1 3.6l.1 1.5c5.9-.2 9-2 10.4-4.3 1.3-2.4.7-5.1-.2-6.7l-1.4.6zm-10.8.2c1.2-1.3 3.2-2.8 5.2-3.2 1-.2 2-.2 2.9.3.9.4 1.9 1.3 2.7 2.8l1.3-.7c-1-1.7-2.1-2.8-3.4-3.4-1.3-.6-2.6-.6-3.8-.4-2.4.5-4.7 2.2-6 3.6l1.1 1zm2 9.5v.8-.8zm9.5-10 .7-.3-.7.3zm-12 0-.5-.5-.1.1-.1.1.7.3z" style="clip-path:url(#SVGID_00000170269549081626890940000016130952293112998064_);fill:#20380e"/><path d="M92.2 109.1s-7.3-8.4-13.6-3.8c-2.8 2.1-4.2 5.7-3.4 9.1.9 3.8 4.6 7.9 17 5.9v-11.2z" style="clip-path:url(#SVGID_00000170269549081626890940000016130952293112998064_);fill:#fff"/><g style="clip-path:url(#SVGID_00000170269549081626890940000016130952293112998064_)"><defs><path id="SVGID_00000036951392335419280000000009452053284915034543_" d="M92.2 109.1s-7.3-8.4-13.6-3.8c-2.8 2.1-4.2 5.7-3.4 9.1.9 3.8 4.6 7.9 17 5.9v-11.2z"/></defs><clipPath id="SVGID_00000004544939595627716900000003229782270323083184_"><use xlink:href="#SVGID_00000036951392335419280000000009452053284915034543_" style="overflow:visible"/></clipPath><path d="M90.2 120.4v-11.2h4v11.2h-4zM77.1 114c.3 1.4 1.2 2.8 3.1 3.8 2.1 1 5.6 1.6 11.6.6l.6 4c-6.4 1-10.9.5-14-1-3.2-1.6-4.7-4.1-5.3-6.4l4-1zm2.6-7c-2.2 1.6-3.2 4.4-2.6 7l-3.9 1c-1-4.2.7-8.6 4.1-11.2l2.4 3.2zm12.5 2.1-1.5 1.3v-.1l-.2-.2-.8-.8c-.7-.7-1.7-1.5-2.9-2.1-2.3-1.4-4.8-1.9-7-.3l-2.4-3.2c4.1-3 8.5-1.7 11.4 0 1.5.9 2.7 1.9 3.5 2.6.4.4.8.7 1 1l.3.3.1.1c0 .1 0 .1-1.5 1.4zm0 11.3h2v1.7l-1.7.3-.3-2zm-17-6-1.9.5 1.9-.5zm3.3-9-1.2-1.6 1.2 1.6zm13.7 3.7 1.5-1.3.5.6v.7h-2z" style="clip-path:url(#SVGID_00000004544939595627716900000003229782270323083184_);fill:#20380e"/></g><path d="M105.5 87.5c-5.2 5.2-11.3 6.8-14.5 7V122c3.6 9.6 20.8 11 29 10.5 16.4-.8 21.5-8.7 22-12.5V94.5c-2-9.2-13.5-11.8-19-12 .8 12.8-14 15.7-21.5 15.5 5.2-2.8 4.8-8.2 4-10.5z" style="clip-path:url(#SVGID_00000170269549081626890940000016130952293112998064_);fill:#fff"/><path d="M91.8 122V94.5h-1.5V122h1.5zm28.2 9.8c-4 .2-10.3 0-16-1.4-5.7-1.5-10.6-4.1-12.3-8.6l-1.4.5c1.9 5.2 7.5 8 13.3 9.5 5.9 1.5 12.3 1.7 16.4 1.5v-1.5zm21.3-11.9c-.4 3.4-5.1 11.1-21.3 11.8l.1 1.5c16.6-.8 22.1-8.8 22.7-13.2l-1.5-.1zm-.1-25.4V120h1.5V94.5h-1.5zM123 83.2c2.7.1 6.8.8 10.5 2.5 3.7 1.8 6.8 4.6 7.8 8.9l1.5-.3c-1.1-4.9-4.7-8-8.6-9.9-3.9-1.9-8.3-2.6-11.1-2.7l-.1 1.5zm-21.5 15.5c3.8.1 9.5-.6 14.2-3 2.3-1.2 4.5-2.8 6-5s2.3-5 2.1-8.3l-1.5.1c.2 3-.5 5.5-1.8 7.4-1.3 1.9-3.2 3.4-5.4 4.5-4.4 2.2-9.8 2.9-13.5 2.8l-.1 1.5zm3.3-10.9c.4 1.1.7 2.8.2 4.7-.4 1.8-1.5 3.6-3.9 4.9l.7 1.3c2.8-1.5 4.1-3.7 4.6-5.9.5-2.1.2-4.2-.3-5.5l-1.3.5zM91 95.2c3.3-.2 9.6-1.9 15-7.2l-1-1c-5.1 5.1-11 6.6-14 6.8v1.4zm0 26.8h-.8v.2l.8-.2zm29 10.5v-.7.7zm22-12.5.7.1h-.7zm0-25.5h.8v-.2l-.8.2zm-19-12v-.7h-.8l.1.8.7-.1zM101.5 98l-.4-.7-2.5 1.3 2.8.1.1-.7zm4-10.5.7-.3-.4-1.1-.8.9.5.5zm-14.5 7v-.7h-.7v.7h.7z" style="clip-path:url(#SVGID_00000170269549081626890940000016130952293112998064_);fill:#20380e"/><path d="m141.4 178.6 11.2 3.4 1.5-5.1 1.4-4.8-10.9-5.6-1.7 6.3z" style="clip-path:url(#SVGID_00000170269549081626890940000016130952293112998064_);fill:#fff"/><g style="clip-path:url(#SVGID_00000170269549081626890940000016130952293112998064_)"><defs><path id="SVGID_00000088848182419728098010000006177539519290872485_" d="m141.4 178.6 11.2 3.4 1.5-5.1 1.4-4.8-10.9-5.6-1.7 6.3z"/></defs><clipPath id="SVGID_00000121970686899792197360000002561952639253810364_"><use xlink:href="#SVGID_00000088848182419728098010000006177539519290872485_" style="overflow:visible"/></clipPath><path d="m143.9 173.1-1.5 5.8-1.9-.5 1.5-5.8 1.9.5zm1.7-6.4-1.7 6.3-1.9-.5 1.7-6.3 1.9.5zm9.4 6.3-10.9-5.6.9-1.8 10.9 5.6-.9 1.8zm-1.9 3.7 1.4-4.9 1.9.6-1.4 4.9-1.9-.6zm-1.5 5 1.5-5 1.9.6-1.5 5-1.9-.6zm-10-4 11.2 3.3-.6 1.9-11.2-3.3.6-1.9zm1.3-4.9 1 .3-1-.3zm1.7-6.3-1-.3.3-1.2 1.1.6-.4.9zm10.9 5.6.5-.9.7.4-.2.8-1-.3zm-1.4 4.8 1 .3-1-.3zm-1.5 5.1 1 .3-.3 1-1-.3.3-1zm-11.2-3.4-.3 1-.9-.3.2-.9 1 .2z" style="clip-path:url(#SVGID_00000121970686899792197360000002561952639253810364_)"/></g><path d="M130.3 143.6s.6.3 1.4.9c4.6 3.1 7.6 7.9 8.5 13.4l2.6 16s5.9-.7 11.3 4.7l-2.3 8.2c-1.8 6.4-8.8 9.8-14.8 7.2-.1 0-.1-.1-.2-.1l-6.5-50.3z" style="clip-path:url(#SVGID_00000170269549081626890940000016130952293112998064_);fill:#20380e"/><path d="m136.1 162.7 1.9 31.6c.3.1.7.2 1 .3l-1.9-31.9c0-.3-.2-.5-.5-.5s-.6.2-.5.5z" style="clip-path:url(#SVGID_00000170269549081626890940000016130952293112998064_);fill:#fff"/><path d="M149.6 147.4s-.6-1.2-2.4-1.7c-1.4-.4-2.8-.1-4.1.6l-12.4 7.7-20-8.1c-1.2-.6-2.5-.7-3.8-.2-1 .4-2 1.2-2 2.7l25.8 9 18.9-10z" style="clip-path:url(#SVGID_00000170269549081626890940000016130952293112998064_);fill:#e9ebf5"/><path d="m104.9 148.4 22.2 7.6c1.1.4 2.3-.1 2.3-1.3 0-.6-.4-1.3-1-1.6l-17.4-7.7c-1.2-.6-2.3-.8-3.5-.3-1 .4-2.6 1.3-2.6 3.3zm27.1 5.8c0 1.2 1.2 2 2.3 1.4l15.3-8.2s-.6-1.2-2.4-1.7c-1.4-.4-2.8-.1-4.1.6l-10.3 6.5c-.5.3-.8.9-.8 1.4z" style="clip-path:url(#SVGID_00000170269549081626890940000016130952293112998064_);fill:#fff"/><path d="m129.1 155.2-21.7-8.5c-1.2-.5-2.5.3-2.5 1.6v28.1c0 .7.4 1.3 1 1.7l23.2 11.1v-34zm3.2 0 15.3-8.1c1.2-.6 2.5.3 2.5 1.6v28.8c0 .7-.4 1.4-1.1 1.7l-16.7 10v-34z" style="clip-path:url(#SVGID_00000170269549081626890940000016130952293112998064_);fill:#94b73d"/><path d="M136.8 169.5c1.4.9 3.1 1.2 4.8.6 2.5-.9 3.9-3.6 3.3-6.2-.6-2.4-2.7-4-5-4.1-.4 0-.6.5-.3.7.6.5 1.1 1.2 1.3 2.1.8 2.5-.6 5.2-3 6-.3.1-.6.2-1 .2-.3 0-.4.4-.1.7z" style="clip-path:url(#SVGID_00000170269549081626890940000016130952293112998064_);fill:#fff"/><path d="M129.1 155.2h3.3v34h-3.3z" style="clip-path:url(#SVGID_00000170269549081626890940000016130952293112998064_);fill:#a9c563"/><path d="M129.1 155.2V181h.4c1 .1 1.9.1 2.8.1v-26l-3.2.1z" style="clip-path:url(#SVGID_00000170269549081626890940000016130952293112998064_);fill:#a9c563"/><path d="M158.1 163.6s.3-8.2-8-11.6l-.2 4.4c.1 0 6.2 2.1 8.2 7.2z" style="clip-path:url(#SVGID_00000170269549081626890940000016130952293112998064_);fill:#fff"/><g style="clip-path:url(#SVGID_00000170269549081626890940000016130952293112998064_)"><defs><path id="SVGID_00000090991450453733732190000003212160799940568250_" d="M158.1 163.6s.3-8.2-8-11.6l-.2 4.4c.1 0 6.2 2.1 8.2 7.2z"/></defs><clipPath id="SVGID_00000119105639199944381960000017010729600704797098_"><use xlink:href="#SVGID_00000090991450453733732190000003212160799940568250_" style="overflow:visible"/></clipPath><path d="m150 156.4.3-.9h.1c.1 0 .1 0 .2.1.2.1.5.2.8.3.6.3 1.5.7 2.5 1.3 1.9 1.2 4.1 3.2 5.2 6l-1.9.7c-.9-2.3-2.8-4-4.5-5.1-.8-.5-1.6-.9-2.2-1.2-.3-.1-.5-.2-.7-.3-.1 0-.1-.1-.2-.1 0 .1 0 .1.4-.8zm1.1-4.3-.2 4.4-2-.1.2-4.4 2 .1zm7 11.5h-1v-.3c0-.2 0-.5-.1-.9-.1-.8-.3-1.8-.8-3-.9-2.3-2.7-4.9-6.6-6.5l.7-1.9c4.5 1.8 6.6 4.9 7.7 7.6.5 1.3.8 2.6.9 3.4.1.4.1.8.1 1.1v.4c.1.1.1.1-.9.1zm-8.1-7.2-.3.9-.7-.2v-.7h1zm.1-4.4h-1l.1-1.4 1.3.5-.4.9zm8 11.6h1l-1.9.3.9-.3z" style="clip-path:url(#SVGID_00000119105639199944381960000017010729600704797098_);fill:#20380e"/></g><path d="M158.1 166.2c.8-5.2-2.5-10.2-7.6-11.3-.2 0-.3-.1-.5-.1l-2.5-.5c-1.6-.3-3.2.6-3.6 2.2-.2 1 .1 2.3 1.8 3.5 0 0-1.8-.7-2.7.8-.4.6-.5 1.2-.4 1.9.2 1.1 1 3 4.3 3.6l-.1.1c-1.2 1.3-.8 3.4.8 4.2l2.6 1.3v2.9s.1 0 .7-.1c3.7-.6 6.5-3.5 7.1-7.2 0-.4 0-.8.1-1.3z" style="clip-path:url(#SVGID_00000170269549081626890940000016130952293112998064_);fill:#fff"/><g style="clip-path:url(#SVGID_00000170269549081626890940000016130952293112998064_)"><defs><path id="SVGID_00000050623057443425644730000007718242624330684074_" d="M158.1 166.2c.8-5.2-2.5-10.2-7.6-11.3-.2 0-.3-.1-.5-.1l-2.5-.5c-1.6-.3-3.2.6-3.6 2.2-.2 1 .1 2.3 1.8 3.5 0 0-1.8-.7-2.7.8-.4.6-.5 1.2-.4 1.9.2 1.1 1 3 4.3 3.6l-.1.1c-1.2 1.3-.8 3.4.8 4.2l2.6 1.3v2.9s.1 0 .7-.1c3.7-.6 6.5-3.5 7.1-7.2 0-.4 0-.8.1-1.3z"/></defs><clipPath id="SVGID_00000010273018547963205740000004027309825058346378_"><use xlink:href="#SVGID_00000050623057443425644730000007718242624330684074_" style="overflow:visible"/></clipPath><path d="M159.1 166.2h-2 2zm-2.2 1.2c.1-.4.1-.9.2-1.3l2 .3c-.1.5-.1 1-.2 1.4l-2-.4zm-6.3 6.4c3.2-.5 5.7-3.1 6.3-6.4l2 .3c-.7 4.1-3.8 7.4-7.9 8l-.4-1.9zm-.5 1-.1-1h.1c.1 0 .2 0 .5-.1l.3 2c-.3 0-.4.1-.6.1h-.1l-.1-1zm1-2.9v2.9h-2v-2.9h2zm-3.1-2.2 2.6 1.3-.9 1.8-2.6-1.3.9-1.8zm-.5-2.6c-.7.8-.5 2.1.5 2.6l-.9 1.8c-2.1-1.1-2.7-4-1-5.7l1.4 1.3zm-.6-.8.6.8-1.5-1.3c.1-.1.1-.1.1-.2h.1c0-.1 0-.1.7.7zm-3.3-3.8c.1.4.3 1 .7 1.5.5.5 1.3 1 2.7 1.3l-.4 2c-1.8-.3-3-1-3.8-1.9-.8-.9-1.1-1.8-1.3-2.5l2.1-.4zm.2-1.1c-.2.3-.3.7-.2 1.2l-2 .3c-.2-.9 0-1.8.5-2.6l1.7 1.1zm1.9-1.4-.4.9h-.1c-.1 0-.3-.1-.5 0-.3 0-.7.1-.9.5l-1.7-1.1c.7-1.1 1.7-1.4 2.5-1.4.4 0 .7 0 1 .1.1 0 .2.1.3.1h.1c.1 0 .1 0-.3.9zm-.8-3.3c-.1.3-.1.7.1 1.1.2.4.5.9 1.3 1.4l-1.2 1.6c-.9-.7-1.6-1.4-1.9-2.2-.4-.8-.4-1.6-.2-2.3l1.9.4zm2.4-1.4c-1.1-.2-2.2.4-2.4 1.5l-2-.4c.5-2.2 2.7-3.4 4.8-3l-.4 1.9zm2.4.5-2.5-.5.4-2 2.5.5-.4 2zm.6.1c-.2 0-.3-.1-.5-.1l.3-2c.2 0 .4.1.6.1l-.4 2zm6.8 10.1c.7-4.7-2.3-9.2-6.8-10.1l.4-2c5.7 1.2 9.3 6.7 8.4 12.4l-2-.3zm1 .2-1-.1 2 .1h-1zm-.2 1.3-1-.2 1 .2zm-7.1 7.3.2 1-.2-1zm-.7 0 .1 1-1.1.1v-1.1h1zm0-2.9.5-.9.5.3v.6h-1zm-2.6-1.3.5-.9-.5.9zm-.7-4.2.7.7-.7-.7zm.1-.1.2-1 2.1.4-1.7 1.4-.6-.8zm-4.3-3.6 1-.2-1 .2zm.4-1.9-.8-.6.8.6zm2.7-.8.6-.8-.9 1.7.3-.9zm-1.8-3.5-1-.2 1 .2zm3.6-2.2-.2 1 .2-1zm2.5.5-.1 1 .1-1zm.5.1-.2 1 .2-1zm7.6 11.3 1 .1-2-.1h1z" style="clip-path:url(#SVGID_00000010273018547963205740000004027309825058346378_);fill:#20380e"/></g><path d="M99 163.5 84 173l6 12 14-8.5c1.6.4 1.5-1 7 0 4.4 0 4.5-3.7 4-5 6-1 5.3-4.3 2.5-5.5 3.2-1.6 2-4 0-4H105v-3c-2.8.4-5.2 3.2-6 4.5z" style="clip-path:url(#SVGID_00000170269549081626890940000016130952293112998064_);fill:#fff"/><path d="m90.7 184.7-6-12-1.3.7 6 12 1.3-.7zm12.9-8.8-14 8.5.8 1.3 14-8.5-.8-1.3zm7.5-.1c-2.8-.5-4.3-.4-5.2-.2-.2 0-.4.1-.6.1-.2 0-.3.1-.4.1-.2 0-.4.1-.7 0l-.4 1.5c.5.1.9.1 1.3 0 .2 0 .4-.1.5-.1.2 0 .3-.1.5-.1.7-.2 2-.3 4.7.2l.3-1.5zm3.2-4c.2.5.3 1.5-.1 2.4-.2.4-.5.8-1 1.1-.5.3-1.2.5-2.2.5v1.5c1.2 0 2.2-.3 2.9-.7.8-.4 1.3-1.1 1.6-1.7.6-1.3.5-2.8.2-3.6l-1.4.5zm2.9-5.1c1.3.5 1.7 1.4 1.6 2-.1.3-.3.7-.9 1.1-.6.4-1.6.8-3 1l.2 1.5c1.6-.3 2.8-.7 3.6-1.2.9-.5 1.4-1.2 1.6-2 .3-1.6-1-3-2.5-3.7l-.6 1.3zm.3-3.9c.7 0 1.1.4 1.2.8.1.3-.1 1.1-1.5 1.8l.7 1.3c1.7-.9 2.6-2.1 2.4-3.4-.2-1.2-1.4-2-2.7-2v1.5zm-12.5 0h12.5v-1.5H105v1.5zm-.8-3.8v3h1.5v-3h-1.5zm-4.6 4.9c.4-.6 1.1-1.6 2.1-2.4 1-.9 2.2-1.6 3.4-1.7l-.2-1.5c-1.6.2-3 1.1-4.1 2.1-1.1 1-2 2-2.4 2.8l1.2.7zm-15.2 9.7 15-9.5-.8-1.3-15 9.5.8 1.3zM90 185l-.7.3.4.7.7-.4-.4-.6zm14-8.5.2-.7-.3-.1-.3.2.4.6zm7 0-.1.7h.2v-.7zm4-5-.1-.7-.9.1.3.9.7-.3zm2.5-5.5-.3-.7-1.5.7 1.5.6.3-.6zm-12.5-4h-.8v.8h.8v-.8zm0-3h.8v-.9l-.9.1.1.8zm-6 4.5.4.6.1-.1.1-.1-.6-.4zM84 173l-.4-.6-.6.4.3.6.7-.4z" style="clip-path:url(#SVGID_00000170269549081626890940000016130952293112998064_);fill:#20380e"/><path d="m87.8 141.4-4.3 1.2c-4.9 1.3-8.9 4.9-10.9 9.6l-10.2 24.4s-1.1 2.7-1.3 6.1c-.6 8 6.2 14.4 14.1 13.4 1-.1 2.1-.3 3.2-.7 1.5-.4 2.9-1.1 4.3-1.8l18-10s-2.2-11.1-8.9-17.1l-9.4 5 5.4-30.1z" style="clip-path:url(#SVGID_00000170269549081626890940000016130952293112998064_);fill:#20380e"/><path d="m82.4 171.7-9.4 4.5c-.3.1-.6 0-.7-.3-.1-.3 0-.6.3-.7l10.1-4.8-.3 1.3z" style="clip-path:url(#SVGID_00000170269549081626890940000016130952293112998064_);fill:#fff"/><path d="m82.4 171.7 2.6-14.3c.1-.4-.2-.8-.6-.8-.3 0-.6.2-.7.6l-2.6 15.1 1.3-.6zm-4.6 25.5c1.7-.5 4.4-1.8 4.4-1.8l19-10.3-.5-1.4-18 10c-1.4.7-2.8 1.4-4.3 1.8-.1 0-.1 0-.2.1l-.4 1.6z" style="clip-path:url(#SVGID_00000170269549081626890940000016130952293112998064_);fill:#fff"/><ellipse cx="130.8" cy="107.2" rx="2.5" ry="3.3" style="clip-path:url(#SVGID_00000170269549081626890940000016130952293112998064_);fill:#20380e"/><ellipse cx="110.9" cy="107.2" rx="2.5" ry="3.3" style="clip-path:url(#SVGID_00000170269549081626890940000016130952293112998064_);fill:#20380e"/><path d="M104.3 120.7c1.6 1.9 6.3 4.8 12.4 1.9l-.9-1.8c-5.2 2.4-8.9 0-10-1.4l-1.5 1.3zm12.4 1.9c.5-.2.7-.8.5-1.3s-.8-.7-1.3-.5l.8 1.8zm-10.9-3.2c-.4-.4-1-.5-1.4-.1-.4.4-.5 1-.1 1.4l1.5-1.3zm31.5-19.1c-.9-1-2.5-2.1-4.6-2.4-2.1-.3-4.6.2-7.2 2.3l1.3 1.5c2.1-1.8 4-2.1 5.6-1.9 1.6.2 2.8 1.1 3.4 1.8l1.5-1.3zm-11.7-.1c-.4.4-.5 1-.1 1.4.4.4 1 .5 1.4.1l-1.3-1.5zm10.3 1.4c.4.4 1 .4 1.4.1s.4-1 .1-1.4l-1.5 1.3zm-18.9-1.3c-.9-1-2.5-2.1-4.6-2.4-2.1-.3-4.6.2-7.2 2.3l1.3 1.5c2.1-1.8 4-2.1 5.6-1.9 1.6.2 2.8 1.1 3.4 1.8l1.5-1.3zm-11.8-.1c-.4.4-.5 1-.1 1.4.4.4 1 .5 1.4.1l-1.3-1.5zm10.3 1.4c.4.4 1 .4 1.4.1s.4-1 .1-1.4l-1.5 1.3zm31.4 9.2c.1.4.2 1.1.2 1.9-.1.8-.3 1.6-.8 2.2l1.6 1.2c.8-1 1.1-2.2 1.2-3.3.1-1-.1-2-.2-2.6l-2 .6zm-.7 4.1c-.3.4-.3 1.1.2 1.4s1.1.3 1.4-.2l-1.6-1.2zm2.6-4.6c-.2-.5-.7-.8-1.2-.7s-.8.7-.7 1.2l1.9-.5zm-65.8-.7c-.4.7-.9 1.8-.9 3.1s.5 2.8 1.9 4l1.3-1.5c-.9-.8-1.2-1.7-1.2-2.5s.3-1.6.6-2l-1.7-1.1zm1 7.1c.4.4 1.1.3 1.4-.1s.3-1.1-.1-1.4l-1.3 1.5zm.7-6.1c.3-.5.2-1.1-.3-1.4s-1.1-.2-1.4.3l1.7 1.1zm33.5 54.7c-1.2.4-4.7 1-9.3 0l-.2 1c4.7 1 8.5.4 9.8 0l-.3-1zm-9.3 0c-.3-.1-.5.1-.6.4s.1.5.4.6l.2-1zm9.6 1c.3-.1.4-.4.3-.6-.1-.3-.4-.4-.6-.3l.3.9zm-3.2 4.2c-.9.4-3.6.9-7.1 0l-.3 1c3.8 1 6.7.4 7.8 0l-.4-1zm-7.2 0c-.3-.1-.5.1-.6.4-.1.3.1.5.4.6l.2-1zm7.6 1c.3-.1.4-.4.3-.7-.1-.3-.4-.4-.7-.3l.4 1zm29.9-11.1c1.4.4 4.8 1.3 7.2 1.3v-1c-2.2 0-5.5-.8-6.9-1.2l-.3.9zm7.2 1.3c.3 0 .5-.2.5-.5s-.2-.5-.5-.5v1zm-6.9-2.2c-.3-.1-.5.1-.6.3s.1.5.3.6l.3-.9zm2.2 7.2c.7.3 2.8.9 5.2.9v-1c-2.3 0-4.2-.5-4.8-.8l-.4.9zm5.1.8c.3 0 .5-.2.5-.5s-.2-.5-.5-.5v1zm-4.8-1.8c-.3-.1-.5 0-.6.3-.1.3 0 .5.3.6l.3-.9z" style="clip-path:url(#SVGID_00000170269549081626890940000016130952293112998064_);fill:#20380e"/></g></g></switch></svg>