<svg width="101" height="101" viewBox="0 0 101 101" fill="none" xmlns="http://www.w3.org/2000/svg">
<mask id="mask0_451_16165" style="mask-type:alpha" maskUnits="userSpaceOnUse" x="0" y="0" width="101" height="101">
<rect x="0.00195312" y="0.0273438" width="100" height="100" fill="#D9D9D9"/>
</mask>
<g mask="url(#mask0_451_16165)">
<path d="M84.7887 28.8749C74.8104 25.5626 65.1492 22.9016 54.9222 20.0869L53.9197 19.8113C49.422 18.5722 44.578 18.8088 40.2804 20.4723C35.9851 22.1357 32.0021 23.8406 28.1484 25.487C24.1507 27.1968 20.0189 28.9627 15.5456 30.6823C14.0285 31.2652 13.0553 32.5384 13.0041 34.0043C12.9529 35.4458 13.8139 36.758 15.2481 37.4288L15.5334 37.5629C17.1213 38.3044 18.6725 39.0288 20.2043 39.7386L21.2409 57.0585C21.3433 58.7805 21.4726 60.922 22.819 62.7416C24.7117 65.2953 28.5606 66.5612 31.3704 67.4856C31.4948 67.527 31.6241 67.5685 31.7582 67.6124C31.1387 68.0734 30.6216 68.671 30.2655 69.3637C29.5752 70.7052 29.5216 72.3345 30.1216 73.7199C30.2631 74.0467 30.4313 74.3394 30.5923 74.6199C30.7704 74.9321 30.9411 75.2272 31.0362 75.515C31.446 76.7248 30.7509 78.1712 29.9996 79.5493C29.8265 79.8663 29.8386 80.2517 30.0313 80.559C30.2143 80.8517 30.5362 81.0273 30.8777 81.0273C30.8923 81.0273 30.9094 81.0273 30.924 81.0273C34.0705 80.8786 36.973 78.5712 37.8291 75.5419C38.4486 73.3516 37.9559 70.9271 36.6534 69.0783C37.2266 69.2393 37.8266 69.4076 38.4559 69.5807C42.2853 70.6369 46.2683 71.1613 50.2489 71.1613C55.0905 71.1613 59.9271 70.3832 64.4785 68.8368C65.7858 68.3929 67.0858 67.9392 68.3859 67.4856C71.0445 66.5587 74.6836 65.288 76.4739 62.7245C77.7398 60.9122 77.8593 58.7756 77.9568 57.0609L78.952 39.3776C78.9617 39.2239 78.9325 39.08 78.8764 38.9459L85.396 35.6336C86.8058 34.9165 87.6156 33.5775 87.5058 32.1335C87.3936 30.6481 86.3521 29.4018 84.7838 28.8798L84.7887 28.8749ZM35.9071 74.9931C35.4607 76.5736 34.1997 77.9175 32.6753 78.5834C33.1338 77.3956 33.3582 76.1345 32.929 74.8711C32.7704 74.4028 32.5338 73.9906 32.3265 73.6272C32.185 73.3808 32.0533 73.1491 31.9558 72.9247C31.5972 72.0954 31.6289 71.0832 32.0436 70.2808C32.3729 69.6417 32.9485 69.1222 33.6143 68.8417C33.6412 68.8636 33.668 68.8832 33.6948 68.9027C35.5754 70.1856 36.529 72.8052 35.9095 74.9955L35.9071 74.9931ZM24.4239 61.5513C23.4312 60.2098 23.3312 58.5463 23.2336 56.939L22.2629 40.6874C26.0386 42.4191 29.7191 44.0484 33.5021 45.5729C33.6192 50.112 33.3582 60.9318 33.0582 65.927C32.6777 65.8075 32.3216 65.6928 31.9924 65.5855C29.4362 64.744 25.9361 63.5952 24.4239 61.5513ZM75.9617 56.9414C75.8714 58.5561 75.7763 60.2244 74.8348 61.5732C73.4153 63.6074 70.1274 64.7538 67.7273 65.5904C66.4322 66.0416 65.137 66.4953 63.8346 66.9368C55.9197 69.6271 47.0951 69.8807 38.9876 67.6465C37.512 67.2392 36.1876 66.8636 35.0241 66.5221C35.3266 61.922 35.5949 51.5608 35.5168 46.368C38.3047 47.451 41.1682 48.4802 44.1878 49.4486C46.3829 50.1535 48.661 50.5022 50.9269 50.5022C54.288 50.5022 57.6198 49.7339 60.5955 48.2241L76.9153 39.9337L75.9568 56.9414H75.9617ZM84.4936 33.8433L59.693 46.4412C55.1807 48.7339 49.7537 49.1364 44.8024 47.5461C41.6853 46.5436 38.7315 45.4777 35.851 44.3533C40.1828 40.524 44.6707 36.9263 49.0196 33.4409H49.0245C49.4562 33.0921 49.522 32.4652 49.1781 32.0335C48.8318 31.6018 48.2025 31.5335 47.7708 31.8799C43.156 35.5775 38.3827 39.402 33.7851 43.5118C33.7802 43.5143 33.7778 43.5192 33.7753 43.524C28.002 41.1801 22.4482 38.5849 16.3822 35.7482L16.0969 35.6141C15.3895 35.2848 14.9822 34.7068 15.0042 34.0726C15.0286 33.4116 15.4993 32.8409 16.2652 32.5482C20.7701 30.8164 24.9215 29.0408 28.9362 27.3261C32.7729 25.6846 36.7437 23.9894 41.0048 22.3357C44.9048 20.8235 49.3049 20.6113 53.3904 21.7382L54.3953 22.0138C64.5956 24.8212 74.2323 27.4749 84.1618 30.7725C84.9619 31.0384 85.4692 31.5994 85.5204 32.2774C85.5668 32.9092 85.1863 33.4945 84.4984 33.8433H84.4936Z" fill="#20380E"/>
</g>
</svg>
