<svg id="Layer_1" data-name="Layer 1" xmlns="http://www.w3.org/2000/svg" viewBox="0 0 430 250"><defs><clipPath id="clippath"><path class="cls-8" d="M260.48 183.76s-10.29-4.56-11.59-5.1c-1.3-.54-3.71-1.82-5.08-1.68-1.37.15-3.26.86-3.83 1.95a14.11 14.11 0 0 1-1.12 1.8s-.91-.24-1.6.63c-.69.87-4.11 2.39-4.11 2.39s-1.09-.22-1.73 1.11c-.64 1.33-.11 3.93 1.42 5.27.9.79 6.58 2.39 6.58 2.39s.16 2.06 3.22 3.23c3.07 1.17 6.04 2.27 8.61 1.65 2.57-.61 7.5-1.45 9.25-1.05l1.53.43 1.54-11.72-3.09-1.31Z"/></clipPath><clipPath id="clippath-1"><path class="cls-8" d="m240.55 191.64-5.44 5.12c-.16.15-.42 0-.37-.22l1.75-7.26s.67-.39 2.37.59c1.7.99 1.69 1.76 1.69 1.76Z"/></clipPath><clipPath id="clippath-2"><path class="cls-8" d="M295.78 120.44c-7.57-24.48-45.38-41.97-64.41-9.15 0 0-4.66 8.75-2.3 18.15 2.35 9.4 3.56 11.43 3.33 13.01-.23 1.58-.72 3.47-1.5 4.67-.77 1.19 6.96 5.77 6.96 5.77s.26 2.1 1.4 4.72c0 0 1.8 4.23 5.6 7.05 3.81 2.68 9.66 4.12 18.61 1.7l2.3 4.16s11.83-4.29 15.19-5.08 7.6-1.14 7.6-1.14l-1.79-7.88s15.86-13.81 9.01-35.97Z"/></clipPath><clipPath id="clippath-3"><path class="cls-8" d="M258.62 142.96c.61 4.34 3.8 7.47 7.13 7.01 3.32-.47 5.52-4.37 4.91-8.71-.61-4.34-3.8-7.47-7.13-7.01s-5.52 4.37-4.91 8.71Z"/></clipPath><clipPath id="clippath-4"><path class="cls-8" d="m217.42 210.93-7.04-2.04s-3.86-4.54-4.54-5.9c-.68-1.36-3.18-2.5-5.68-2.73-2.5-.23-7.04 0-7.04 0s-2.27.23-3.18 1.59c0 0-2.65.06-4.24.74-1.59.68-3.03 2.96-3.03 2.96s-2.27 1.07-2.95 3.57 3.63 2.95 5.22 3.18c1.59.23 5.34.68 6.76 3.41s7.55 6.13 12.77 6.13h10.9l2.04-10.9Z"/></clipPath><clipPath id="clippath-5"><path class="cls-8" d="m263.47 172.36-2.43-3.38s3.44-3.88 13.62-7.18c10.18-3.31 14.98-2.35 14.98-2.35l2.18 4.03-28.36 8.89Z"/></clipPath><clipPath id="clippath-6"><path class="cls-8" d="m215.07 208.81-2.04 10.83a4.902 4.902 0 0 0 3.42 5.61l28.69 8.61s10.45 1.48 15.32-5.34h63.8s-3.97-26.91-11.58-42.35c-7.61-15.44-19.13-22.36-20.86-22.7 0 0-4.98-1.36-17 1.99-9.2 2.56-12.09 6.87-13.57 8.57-1.48 1.7-7.38 3.29-15.21 32.7l-2.25 4.91-22.51-6.64c-2.79-.82-5.68.94-6.22 3.8Z"/></clipPath><style>.cls-8{clip-rule:evenodd;fill:none}.cls-11,.cls-8,.cls-9{stroke-width:0}.cls-9{fill:#20380e}.cls-11{fill:#fff}</style></defs><path d="M201.41 43.83c26.41-2.07 51.77 6.5 69.7 18.17 18.12 11.9 28.8 26.91 29.97 42.94 1.18 16.19-6.95 31.57-18.98 46.76-12.19 14.96-28.3 29.73-46.76 39.31-35.68 20.02-76.56 3.81-96.04-44.57-19.51-48.08 7.8-99.84 62.1-102.61Z" style="fill:#f5f5f5;stroke-width:0"/><path class="cls-9" d="m197.03 211.52.57 2.46-37.6-13.62-.57-2.46 37.6 13.62zM240.67 204.08c-.47.04-13.94-1.14-23.76 1.14-11.38 2.63-19.31 8.76-19.31 8.76l-.57-2.46s7.1-5.96 19.31-8.76c12.21-2.8 23.76-1.14 23.76-1.14l.57 2.46Z"/><path class="cls-9" d="M278.9 191.49s-9.16 1.57-18.98 3.84c-11.38 2.63-19.26 8.75-19.26 8.75l-.57-2.46s6.87-5.9 19.26-8.75 18.98-3.84 18.98-3.84l.57 2.46Z"/><path class="cls-11" d="M197.03 211.52s7.92-6.13 19.31-8.76c9.82-2.27 23.28-1.1 23.76-1.14l-38.82-14.06c-.47.04-13.94-1.14-23.76 1.14-11.39 2.64-19.31 8.76-19.31 8.76l38.82 14.06ZM240.1 201.62s7.87-6.11 19.26-8.75c9.82-2.27 18.98-3.84 18.98-3.84l-38.82-14.06s-9.16 1.57-18.98 3.84c-11.38 2.63-19.26 8.75-19.26 8.75l38.82 14.06Z"/><path class="cls-9" d="M196.38 206.93c-.16 0-.32-.08-.41-.23a.463.463 0 0 1 .17-.64c3.44-2.02 8.94-4.76 15.62-6.31 3.67-.85 8.26-1.32 13.65-1.41.26 0 .47.21.47.46 0 .26-.2.47-.46.48-5.32.08-9.85.55-13.45 1.38-6.57 1.52-11.97 4.21-15.35 6.2-.07.04-.16.07-.24.07ZM190.46 204.07c-.16 0-.32-.08-.41-.23a.477.477 0 0 1 .17-.65c3.44-2.02 8.94-4.76 15.62-6.31 3.2-.74 6.47-1.16 10.29-1.32a.47.47 0 1 1 .04.94c-3.76.16-6.98.57-10.12 1.3-6.57 1.52-11.97 4.21-15.35 6.2-.07.04-.16.07-.24.07ZM181.7 201.29a.471.471 0 0 1-.25-.87c.1-.06 2.37-1.48 6.89-3.12 4.15-1.51 11.06-3.51 20.38-4.41.26-.02.49.16.51.42.02.26-.16.49-.42.51-9.22.89-16.05 2.86-20.15 4.36-4.42 1.61-6.69 3.02-6.71 3.04-.08.05-.16.07-.25.07ZM172.83 199.08c-.16 0-.32-.08-.41-.23a.477.477 0 0 1 .17-.65c.24-.14.49-.29.77-.46 3.7-2.23 10.57-6.39 26.88-7.64.26-.02.48.17.5.43.02.26-.17.48-.43.5-16.08 1.23-22.83 5.31-26.46 7.5-.28.17-.53.32-.78.47-.07.04-.16.07-.24.07ZM237.69 201.22c-.05 0-.11 0-.16-.03l-35.19-12.75a.463.463 0 0 1-.28-.6c.09-.25.36-.37.6-.28l35.19 12.75c.25.09.37.36.28.6-.07.19-.25.31-.44.31ZM235.66 197.37a.46.46 0 0 1-.37-.18c-.16-.2-.12-.5.08-.66.08-.06 8.08-6.21 19.44-8.83 2.27-.53 4.7-1.06 7.22-1.58.25-.05.5.11.56.36.05.25-.11.5-.36.56-2.51.52-4.94 1.05-7.2 1.58-11.16 2.58-19 8.6-19.07 8.66-.08.07-.19.1-.29.1ZM229.08 194.29a.46.46 0 0 1-.37-.18c-.16-.2-.12-.5.08-.66.08-.06 8.08-6.21 19.44-8.83 2.31-.53 4.78-1.08 7.34-1.61.25-.05.5.11.56.36.05.25-.11.5-.36.56-2.55.53-5.01 1.07-7.31 1.6-11.16 2.58-19 8.6-19.07 8.66-.08.07-.19.1-.29.1ZM222.04 191.59a.46.46 0 0 1-.37-.18c-.16-.2-.12-.5.08-.66.08-.06 8.08-6.21 19.44-8.83 2.56-.59 5.31-1.19 8.17-1.78.26-.05.5.11.56.36.05.25-.11.5-.36.56-2.86.59-5.6 1.18-8.15 1.78-11.16 2.58-19 8.6-19.07 8.66-.08.07-.19.1-.29.1Z"/><path class="cls-11" d="M260.48 183.76s-10.29-4.56-11.59-5.1c-1.3-.54-3.71-1.82-5.08-1.68-1.37.15-3.26.86-3.83 1.95a14.11 14.11 0 0 1-1.12 1.8s-.91-.24-1.6.63c-.69.87-4.11 2.39-4.11 2.39s-1.09-.22-1.73 1.11c-.64 1.33-.11 3.93 1.42 5.27.9.79 6.58 2.39 6.58 2.39s.16 2.06 3.22 3.23c3.07 1.17 6.04 2.27 8.61 1.65 2.57-.61 7.5-1.45 9.25-1.05l1.53.43 1.54-11.72-3.09-1.31Z"/><path class="cls-9" d="M258.57 183.76h3.83-3.83Zm5.75-.46-3.09-1.31-1.49 3.53 3.09 1.31 1.49-3.53Zm-.38 13.74 1.54-11.72-3.8-.5-1.54 11.72 3.8.5Zm-3.94 1.17 1.53.43 1.03-3.69-1.53-.43-1.03 3.69Zm-8.3 1.07c1.22-.29 3.03-.64 4.74-.87.85-.11 1.65-.19 2.33-.22.71-.03 1.14 0 1.31.04l.85-3.73c-.7-.16-1.55-.17-2.33-.14-.83.04-1.75.13-2.67.25-1.84.25-3.78.62-5.12.94l.89 3.73Zm-9.73-1.73c1.52.58 3.14 1.19 4.73 1.57 1.59.38 3.31.56 5.01.16l-.89-3.73c-.87.21-1.93.15-3.23-.16-1.31-.31-2.7-.83-4.25-1.42l-1.36 3.58Zm-2.54-5.02q-1.91.14-1.91.15v.1c0 .05.01.1.02.16.02.12.06.28.11.46.11.36.29.83.61 1.33.65 1.03 1.79 2.09 3.69 2.81l1.36-3.58c-1.17-.44-1.64-1-1.83-1.29-.1-.16-.15-.29-.17-.35 0-.03-.01-.04 0-.04v.08l-1.91.15Zm-7.85-.95c.31.28.69.48.96.61.31.15.66.3 1.01.44.71.28 1.55.57 2.33.82.79.26 1.54.48 2.1.65.28.08.51.15.67.2.08.02.14.04.19.05.02 0 .04.01.05.01h.01l.52-1.84.52-1.84h-.01s-.02 0-.04-.01c-.04-.01-.1-.03-.18-.05-.15-.04-.37-.11-.64-.19-.54-.16-1.26-.38-2-.62-.75-.24-1.5-.5-2.11-.74-.3-.12-.55-.23-.72-.31-.21-.11-.21-.13-.12-.05l-2.54 2.87Zm-1.87-7.54c-.58 1.21-.54 2.69-.24 3.92.31 1.27.99 2.63 2.11 3.62l2.54-2.87c-.41-.36-.75-.97-.93-1.67-.18-.74-.09-1.23-.03-1.34l-3.45-1.66Zm3.45-.28.37-1.88h-.08c-.04 0-.08-.01-.12-.02-.09 0-.21-.02-.34-.02-.27 0-.62.04-1.02.16-.85.27-1.7.91-2.25 2.05l3.45 1.66c.09-.19.11-.11-.04-.06-.04.01-.08.02-.13.02h-.18l.37-1.88Zm2.61-3.58c.05-.06-.04.04-.45.31-.35.22-.79.47-1.24.7-.44.23-.87.44-1.18.59-.16.07-.29.13-.38.17l-.1.05c-.01 0-.02 0-.02.01l.78 1.75.78 1.75s.02 0 .03-.01c.03-.01.07-.03.12-.05.1-.05.24-.11.42-.19.35-.16.82-.39 1.32-.65.49-.26 1.04-.56 1.52-.86.42-.27 1.01-.67 1.41-1.17l-3.01-2.37Zm3.1.56.49-1.85h-.06c-.03 0-.06-.01-.1-.02-.08-.01-.17-.03-.29-.04-.22-.02-.52-.03-.86.03-.72.11-1.58.48-2.27 1.35l3.01 2.38s-.06.05-.15.06h-.23l.49-1.85Zm-.57-2.7c-.25.47-.49.86-.67 1.14-.09.14-.16.24-.21.31-.02.03-.04.06-.05.07v.01l1.52 1.17 1.52 1.17v-.01s.02-.02.03-.04c.02-.03.05-.07.09-.12.07-.1.18-.25.29-.43.24-.36.56-.87.88-1.48l-3.39-1.78Zm5.31-2.96c-.89.1-1.91.37-2.82.79-.85.4-1.92 1.07-2.5 2.17l3.39 1.78s.15-.21.72-.48c.52-.24 1.13-.4 1.61-.46l-.42-3.81Zm6.02 1.81c-.29-.12-.64-.28-1.1-.49-.43-.2-.93-.42-1.45-.62-.51-.2-1.07-.4-1.62-.54-.53-.13-1.19-.24-1.85-.17l.41 3.81h.14c.1.01.22.03.38.07.32.08.7.21 1.13.38.42.17.86.36 1.28.55.41.18.84.38 1.2.53l1.47-3.54Zm10.85 6.87.78-1.75h-.02c-.02 0-.05-.02-.09-.04a3.7 3.7 0 0 1-.33-.15c-.28-.13-.69-.31-1.18-.52-.99-.44-2.31-1.02-3.68-1.63-2.72-1.2-5.64-2.49-6.32-2.77l-1.47 3.54c.62.26 3.49 1.52 6.24 2.73 1.37.6 2.69 1.19 3.68 1.63.49.22.9.4 1.18.52.14.06.25.11.33.15.04.02.07.03.09.04h.02l.78-1.75Zm0 0 .75-1.76-2.66-1.12v2.89h1.92Zm3.1 1.31 1.9.25.19-1.45-1.34-.57-.75 1.76Zm-1.54 11.72-.52 1.84 2.13.6.29-2.19-1.9-.25Zm-1.53-.43.52-1.84h-.04l-.04-.02-.43 1.87Zm-9.25 1.05-.45-1.86.45 1.86Zm-11.83-4.88 1.91-.14-.1-1.34-1.29-.36-.52 1.84Zm-6.58-2.38 1.27-1.43-1.27 1.43Zm.31-6.39-.37 1.88.6.12.55-.25-.78-1.75Zm4.11-2.4-1.5-1.19 1.51 1.19Zm1.6-.62-.49 1.85 1.23.33.78-1.01-1.52-1.17Zm4.95-3.75-.2-1.9.21 1.9Zm5.08 1.67-.74 1.77.73-1.77Zm11.58 5.1-.78 1.75 2.69 1.19v-2.94h-1.92Z" style="clip-path:url(#clippath)"/><path class="cls-9" d="m252.4 166.11.59.34c.96.56 1.29 1.79.73 2.74l-13.18 22.44-4.06-2.36 13.18-22.44a2 2 0 0 1 2.74-.73Z"/><path class="cls-11" d="m240.55 191.64-5.44 5.12c-.16.15-.42 0-.37-.22l1.75-7.26s.67-.39 2.37.59c1.7.99 1.69 1.76 1.69 1.76Z"/><path class="cls-9" d="M239.59 191.64h1.92-1.92Zm-1.21-.94c.76.44 1.05.79 1.16.95.05.08.06.12.06.12v-.12h.96q.96.01.96 0v-.16c0-.07-.03-.15-.05-.24-.05-.18-.15-.4-.3-.64-.31-.47-.86-1.01-1.8-1.55l-.96 1.66Zm-1.89-1.42.48.83h-.01s-.02 0-.02.01c-.02 0-.03.01-.04.02-.02 0-.04.01-.04.01h.13c.2.01.65.1 1.4.54l.96-1.66c-.94-.55-1.68-.75-2.24-.79-.28-.02-.52 0-.7.05-.09.02-.17.05-.24.08-.03.01-.06.03-.09.04-.01 0-.02.01-.04.02h-.02l.48.83Zm-.82 7.48 1.75-7.26-1.86-.45-1.75 7.26 1.86.45Zm-1.22-.7c.54-.51 1.39 0 1.22.7l-1.86-.45c-.27 1.13 1.1 1.95 1.96 1.13l-1.32-1.39Zm5.44-5.12-5.44 5.12 1.31 1.39 5.44-5.12-1.31-1.39Zm.66.7h-.96.96Zm-1.69-1.77.48-.83-.48.83Zm-2.37-.59-.48-.83-.35.21-.1.4.93.22Zm-1.75 7.26-.93-.22.93.22Zm.37.22-.66-.7.66.7Zm5.44-5.12.66.7.3-.28v-.41h-.96Z" style="clip-path:url(#clippath-1)"/><path class="cls-9" d="m235.59 193.01-.85 3.53c-.05.22.21.36.37.22l2.59-2.44c-.14-.26-.4-.62-.9-.9-.5-.29-.93-.38-1.21-.4Z"/><path class="cls-11" d="M295.78 120.44c-7.57-24.48-45.38-41.97-64.41-9.15 0 0-4.66 8.75-2.3 18.15 2.35 9.4 3.56 11.43 3.33 13.01-.23 1.58-.72 3.47-1.5 4.67-.77 1.19 6.96 5.77 6.96 5.77s.26 2.1 1.4 4.72c0 0 1.8 4.23 5.6 7.05 3.81 2.68 9.66 4.12 18.61 1.7l2.3 4.16s11.83-4.29 15.19-5.08 7.6-1.14 7.6-1.14l-1.79-7.88s15.86-13.81 9.01-35.97Z"/><path class="cls-9" d="M295.78 122.36v-3.83 3.83Zm-9.01 34.05 1.26 1.44.01-.01c.01-.01.03-.02.05-.04.04-.03.09-.08.16-.14.13-.12.31-.3.54-.52.45-.46 1.09-1.12 1.81-1.99 1.46-1.73 3.32-4.27 4.95-7.55 3.28-6.57 5.65-16.08 2.05-27.72l-3.66 1.13c3.25 10.52 1.12 19-1.82 24.87a34.305 34.305 0 0 1-4.46 6.79c-.65.77-1.21 1.36-1.59 1.75-.19.19-.34.34-.44.43-.05.05-.09.08-.11.1-.01 0-.02.02-.02.02l1.26 1.44Zm3.65 7.46-1.79-7.88-3.74.85 1.79 7.88 3.74-.85Zm-9.03 3.43c1.59-.37 3.41-.65 4.87-.83.72-.09 1.34-.16 1.78-.2.22-.02.39-.04.51-.05.06 0 .1 0 .13-.01h.03l-.16-1.91-.16-1.91h-.05c-.03 0-.08 0-.15.01-.13.01-.31.03-.54.05-.46.05-1.11.12-1.87.21-1.51.19-3.48.49-5.26.9l.87 3.73Zm-15.63 3.22.65 1.8h.02c.02 0 .06-.02.1-.04.09-.03.21-.08.38-.14l1.38-.5c1.16-.41 2.74-.97 4.42-1.56 3.41-1.18 7.1-2.41 8.67-2.78l-.87-3.73c-1.8.42-5.71 1.73-9.05 2.89-1.7.59-3.29 1.15-4.45 1.57-.58.21-1.06.38-1.39.5-.17.06-.3.11-.38.14-.04.02-.08.03-.1.04h-.03l.65 1.8Zm-3.97-3.24 2.3 4.16 3.35-1.85-2.3-4.16-3.35 1.85Zm-18.04-1.06c4.38 3.08 10.85 4.52 20.21 1.98l-1-3.7c-8.53 2.31-13.76.87-17.01-1.42l-2.2 3.13Zm-4.5-8.61-1.76.75v.02c0 .01.01.03.02.05.02.04.04.1.08.17.07.14.16.34.29.59.25.49.63 1.16 1.13 1.93 1 1.52 2.55 3.48 4.68 5.07l2.29-3.07c-1.66-1.23-2.92-2.8-3.77-4.1-.42-.64-.73-1.2-.94-1.59-.1-.2-.18-.35-.22-.45-.02-.05-.04-.09-.05-.11v-.02l-1.76.75Zm-1.4-4.72-1.9.23v.04c0 .02 0 .06.01.1.01.08.03.19.05.33.05.27.12.66.24 1.13.23.94.61 2.23 1.24 3.65l3.51-1.54c-.52-1.19-.84-2.25-1.02-3.02-.09-.38-.15-.69-.19-.89-.02-.1-.03-.18-.04-.22v-.05l-1.9.23Zm-8.56-6.82c-.72 1.12-.19 2.22.02 2.59.27.47.66.9 1.01 1.24.73.7 1.72 1.46 2.66 2.12.96.67 1.93 1.3 2.66 1.76.37.23.67.42.89.55.11.07.19.12.25.15.03.02.05.03.07.04 0 0 .01 0 .02.01l.98-1.65.98-1.65h-.01c-.01 0-.03-.02-.06-.04l-.23-.14c-.2-.12-.49-.3-.84-.52-.7-.44-1.61-1.03-2.49-1.65-.9-.63-1.69-1.25-2.2-1.74-.12-.12-.21-.21-.28-.29-.07-.08-.09-.11-.08-.1a1.285 1.285 0 0 1 .11.35c.04.26.01.66-.24 1.05l-3.21-2.08Zm1.21-3.9c-.22 1.51-.66 3.07-1.21 3.9l3.21 2.09c1.01-1.55 1.54-3.79 1.79-5.43l-3.79-.56Zm-3.29-12.26c1.19 4.75 2.09 7.65 2.66 9.53.29.96.47 1.57.56 2.03.09.44.08.62.07.7l3.79.57c.11-.71.03-1.38-.11-2.05-.14-.65-.37-1.43-.64-2.35-.57-1.88-1.45-4.7-2.61-9.35l-3.72.93Zm4.16-18.62-1.69-.9s0 .02-.01.03c-.01.02-.03.05-.05.09-.04.08-.1.19-.16.33-.14.29-.32.69-.54 1.21-.43 1.03-.97 2.51-1.43 4.29-.92 3.55-1.55 8.43-.27 13.55l3.72-.93c-1.07-4.29-.56-8.48.27-11.66.41-1.58.89-2.88 1.26-3.79.19-.45.34-.8.45-1.03.05-.11.1-.2.12-.25.01-.03.02-.05.03-.06v-.01l-1.69-.9Zm66.24 8.59c-3.99-12.91-15.87-23.86-29.25-27.35-6.73-1.75-13.91-1.64-20.68 1.13-6.78 2.77-13.02 8.15-17.96 16.67l3.31 1.92c4.58-7.89 10.2-12.63 16.09-15.04 5.9-2.41 12.22-2.55 18.27-.97 12.17 3.17 22.98 13.2 26.56 24.77l3.66-1.13Zm-1.83.56v-1.92h-2.6l.77 2.48 1.83-.57Zm-9.01 35.97-1.26-1.44-.86.75.25 1.12 1.87-.42Zm1.78 7.88.16 1.91 2.19-.18-.49-2.15-1.87.42Zm-22.79 6.23-1.68.93.79 1.43 1.54-.56-.65-1.8Zm-2.3-4.16 1.68-.93-.73-1.32-1.45.39.5 1.85Zm-18.61-1.7-1.14 1.54.02.02h.02l1.1-1.55Zm-5.6-7.05 1.76-.75v-.02l-1.76.77Zm-1.4-4.72 1.9-.23-.11-.94-.81-.48-.98 1.65Zm-6.95-5.77-1.61-1.04 1.61 1.04Zm1.49-4.67-1.89-.28 1.89.28Zm-1.02-31.16-1.66-.96-.02.03-.02.03 1.69.9Zm64.41 9.15v1.92h2.6l-.77-2.48-1.83.57Z" style="clip-path:url(#clippath-2)"/><path class="cls-11" d="M258.62 142.96c.61 4.34 3.8 7.47 7.13 7.01 3.32-.47 5.52-4.37 4.91-8.71-.61-4.34-3.8-7.47-7.13-7.01-3.32.47-5.52 4.37-4.91 8.71Z"/><path class="cls-9" d="M263.26 132.36c-2.38.33-4.22 1.88-5.33 3.86-1.11 1.97-1.57 4.46-1.21 7.01l3.79-.54c-.25-1.79.09-3.42.75-4.6.66-1.18 1.58-1.81 2.53-1.95l-.53-3.79Zm9.29 8.64c-.36-2.55-1.49-4.82-3.1-6.4-1.62-1.59-3.82-2.57-6.19-2.23l.53 3.79c.95-.13 2.01.22 2.97 1.17.96.95 1.74 2.42 1.99 4.21l3.79-.54Zm-6.54 10.87c2.38-.33 4.22-1.88 5.33-3.86 1.11-1.97 1.57-4.46 1.21-7.01l-3.79.54c.25 1.79-.09 3.42-.75 4.6-.66 1.18-1.58 1.81-2.53 1.95l.53 3.79Zm-9.29-8.64c.36 2.55 1.49 4.82 3.1 6.4 1.62 1.59 3.82 2.57 6.19 2.23l-.53-3.79c-.95.13-2.01-.22-2.97-1.17-.96-.95-1.74-2.42-1.99-4.21l-3.79.54Z" style="clip-path:url(#clippath-3)"/><path class="cls-9" d="M241.2 138.19c.55 1.55.07 3.15-1.08 3.55s-2.52-.53-3.08-2.08c-.55-1.55-.07-3.15 1.08-3.55s2.52.53 3.08 2.08Z"/><path class="cls-9" d="M287.02 157.49s-14.43-.98-17.66-9.59c0 0 2.98-4.09.53-9.3-2.45-5.21-7.1-5.26-9.44-2.63 0 0-23.93-13.46-21.97-26.34 0 0-11.44 1.71-8.95 21.64 0 0-4.73-7.51-1.88-16.58 2.84-9.07 19.13-31.38 51.71-17.71 32.5 13.63 16.95 51.6 7.66 60.51Z"/><path class="cls-11" d="m217.42 210.93-7.04-2.04s-3.86-4.54-4.54-5.9c-.68-1.36-3.18-2.5-5.68-2.73-2.5-.23-7.04 0-7.04 0s-2.27.23-3.18 1.59c0 0-2.65.06-4.24.74-1.59.68-3.03 2.96-3.03 2.96s-2.27 1.07-2.95 3.57 3.63 2.95 5.22 3.18c1.59.23 5.34.68 6.76 3.41s7.55 6.13 12.77 6.13h10.9l2.04-10.9Z"/><path class="cls-9" d="M217.42 212.85v-3.83 3.83Zm-.16 9.33 2.04-10.9-3.77-.71-2.04 10.9 3.77.71Zm-12.78 1.57h10.9v-3.83h-10.9v3.83Zm-14.47-7.17c.52 1 1.38 1.92 2.34 2.71.98.81 2.16 1.56 3.45 2.21 2.55 1.29 5.69 2.25 8.67 2.25v-3.83c-2.23 0-4.77-.74-6.95-1.84-1.08-.54-2.02-1.15-2.75-1.75-.75-.62-1.19-1.15-1.37-1.51l-3.4 1.77Zm-5.32-2.39c.83.12 1.96.27 3.05.67 1.1.4 1.88.96 2.27 1.73l3.4-1.77c-1.02-1.96-2.82-2.99-4.35-3.56-1.54-.56-3.08-.76-3.84-.86l-.54 3.79Zm-6.81-5.58c-.34 1.24-.05 2.38.69 3.25.64.76 1.52 1.21 2.24 1.48 1.44.55 3.18.74 3.88.84l.54-3.79c-.89-.13-2.11-.27-3.05-.63-.47-.18-.64-.33-.67-.36v.01s.01.02.02.03c.01.03.03.06.04.1.02.09 0 .13.01.07l-3.7-1.01Zm4.8-3.06-.82-1.73h-.02c-.01 0-.03.01-.04.02-.03.02-.07.04-.12.06-.1.05-.22.12-.37.22-.3.19-.69.46-1.11.84-.84.74-1.84 1.94-2.31 3.65l3.7 1.01c.21-.78.69-1.38 1.16-1.79.23-.21.45-.35.6-.45.07-.05.13-.08.16-.09.02 0 .02-.01.03-.01l-.82-1.73Zm2.28-4.72c-1.22.52-2.22 1.55-2.81 2.25-.32.38-.59.73-.77.99-.09.13-.17.24-.22.32-.03.04-.05.07-.06.09 0 .01-.01.02-.02.03l1.62 1.02 1.62 1.02c0-.01.02-.03.03-.05.03-.05.08-.12.15-.22.14-.19.33-.45.56-.72.52-.61 1.04-1.06 1.4-1.22l-1.51-3.52Zm4.99 1.02-.04-1.92h-.13c-.09 0-.21 0-.36.02-.3.02-.72.05-1.19.1-.9.1-2.19.31-3.25.77l1.51 3.52c.53-.23 1.36-.39 2.18-.48.39-.04.73-.07.98-.08.12 0 .22-.01.28-.01h.08l-.04-1.92Zm3.18-1.59-.19-1.91h-.05c-.03 0-.07 0-.11.01-.09.01-.21.03-.36.06-.29.05-.69.14-1.13.29-.81.27-2.11.84-2.92 2.06l3.19 2.12c.1-.14.39-.37.94-.55.24-.08.46-.13.63-.16.08-.02.14-.02.18-.03h.04l-.19-1.91Zm7.21-1.91c-1.36-.12-3.21-.12-4.67-.09-.74.01-1.4.04-1.87.05-.24 0-.43.02-.56.02h-.2l.1 1.91.1 1.91H193.42c.13 0 .31-.01.54-.02.46-.02 1.09-.04 1.8-.05 1.44-.03 3.11-.03 4.25.08l.35-3.82Zm7.22 3.78c-.63-1.25-1.89-2.11-3.05-2.66-1.23-.58-2.7-.98-4.16-1.11l-.35 3.82c1.04.09 2.07.38 2.88.76.88.42 1.21.8 1.26.91l3.43-1.71Zm2.82 6.76 1.46-1.24s-.02-.02-.03-.04c-.03-.03-.07-.08-.12-.14-.1-.12-.26-.3-.44-.53-.37-.44-.86-1.04-1.38-1.68a48 48 0 0 1-1.48-1.91c-.47-.63-.74-1.04-.82-1.22l-3.42 1.72c.26.51.72 1.17 1.17 1.78.48.65 1.04 1.36 1.58 2.02.53.66 1.05 1.28 1.42 1.74a63.118 63.118 0 0 0 .58.69c.01.02.03.03.03.04v.01l1.46-1.24Zm7.58.2-7.04-2.04-1.07 3.68 7.04 2.04 1.07-3.68Zm-.54 1.84v-1.92h-1.59l-.29 1.56 1.88.35Zm-2.04 10.9v1.92h1.59l.29-1.56-1.88-.35Zm-32.7-16.28.82 1.73.5-.24.3-.47-1.62-1.02Zm7.27-3.7.04 1.92 1-.02.55-.83-1.6-1.06Zm3.18-1.59-.1-1.91h-.1l.19 1.91Zm7.04 0 .17-1.91-.17 1.91Zm5.67 2.73-1.71.86 1.71-.86Zm4.54 5.9-1.46 1.24.37.44.55.16.53-1.84Zm7.04 2.04v1.92l.53-3.76-.53 1.84Z" style="clip-path:url(#clippath-4)"/><path class="cls-11" d="m263.47 172.36-2.43-3.38s3.44-3.88 13.62-7.18c10.18-3.31 14.98-2.35 14.98-2.35l2.18 4.03-28.36 8.89Z"/><path class="cls-9" d="M263.47 174.28v-3.83 3.83Zm27.78-12.63-28.36 8.89 1.15 3.66 28.36-8.89-1.15-3.66Zm-3.29-1.29 2.18 4.03 3.37-1.83-2.18-4.03-3.37 1.83Zm-12.71 3.25c4.96-1.61 8.55-2.16 10.85-2.32 1.15-.08 1.99-.06 2.51-.03.26.02.45.04.55.05.05 0 .09.01.11.02h.01l.37-1.88q.38-1.88.37-1.88h-.04c-.02 0-.04 0-.07-.01-.06 0-.14-.02-.23-.03-.19-.03-.46-.05-.81-.08-.7-.04-1.7-.06-3.02.03-2.64.19-6.54.8-11.77 2.5l1.18 3.64Zm-14.22 5.37 1.43 1.27v-.01l.08-.08c.08-.08.23-.22.43-.4.42-.36 1.09-.89 2.09-1.54 1.99-1.29 5.24-3.01 10.18-4.62l-1.18-3.64c-5.24 1.7-8.8 3.57-11.08 5.05-1.14.74-1.96 1.38-2.51 1.85-.27.24-.48.43-.62.57l-.17.17c-.02.02-.04.04-.05.06l-.02.02 1.43 1.27Zm3.99 2.26-2.43-3.38-3.11 2.24 2.43 3.38 3.11-2.24Zm-1.55 1.12-.57-1.83.57 3.74v-1.92Zm28.36-8.88.57 1.83 2.22-.7-1.11-2.05-1.68.91Zm-2.19-4.03 1.68-.91-.43-.79-.88-.18-.38 1.88Zm-14.98 2.34-.59-1.82.59 1.82Zm-13.63 7.19-1.43-1.27-1.02 1.15.89 1.24 1.56-1.12Zm2.44 3.38v1.92h3.74l-2.18-3.03-1.56 1.12Z" style="clip-path:url(#clippath-5)"/><path class="cls-9" d="M234.72 135.43c.41-.71 2.62-2.67 7.79-.88l.63-1.81c-5.76-1.99-9.08 0-10.08 1.74l1.66.95Zm7.79-.89a.96.96 0 0 0 1.22-.59.96.96 0 0 0-.59-1.22l-.63 1.81Zm-9.46-.06c-.26.46-.1 1.04.36 1.31s1.04.1 1.31-.36l-1.66-.95Z"/><path class="cls-11" d="m215.07 208.81-2.04 10.83a4.902 4.902 0 0 0 3.42 5.61l28.69 8.61s10.45 1.48 15.32-5.34h63.8s-3.97-26.91-11.58-42.35c-7.61-15.44-19.13-22.36-20.86-22.7 0 0-4.98-1.36-17 1.99-9.2 2.56-12.09 6.87-13.57 8.57-1.48 1.7-7.38 3.29-15.21 32.7l-2.25 4.91-22.51-6.64c-2.79-.82-5.68.94-6.22 3.8Z"/><path class="cls-9" d="M216.99 208.81h-3.83 3.83Zm4.84-5.64a6.826 6.826 0 0 0-8.64 5.29l3.77.71a2.998 2.998 0 0 1 3.8-2.32l1.08-3.68Zm22.51 6.64-22.51-6.64-1.08 3.67 22.51 6.64 1.08-3.67Zm-.03-3.88-2.25 4.91 3.48 1.6 2.25-4.91-3.48-1.6Zm15.51-33.15c-.21.24-2.73 1.86-5.41 6.21-2.78 4.51-6.27 12.46-10.21 27.25l3.7.99c3.89-14.62 7.27-22.17 9.77-26.22 2.6-4.22 3.77-4.25 5.04-5.71l-2.89-2.51Zm14.5-9.16c-4.83 1.34-8.08 3.17-10.35 4.94-2.25 1.76-3.5 3.47-4.16 4.22l2.9 2.51c.82-.95 1.75-2.25 3.62-3.71 1.85-1.45 4.64-3.05 9.01-4.27l-1.03-3.69Zm17.51-.14.5-1.85h-.04c-.02 0-.05-.01-.08-.02-.06-.01-.15-.03-.25-.05-.21-.04-.5-.09-.87-.13-.75-.09-1.84-.15-3.3-.11-2.92.08-7.33.61-13.46 2.32l1.03 3.69c5.88-1.64 9.97-2.1 12.55-2.18 1.29-.04 2.19.03 2.75.09.28.03.47.06.59.09.06.01.09.02.11.02 0 0 .01 0 0 0l.5-1.85Zm22.58 21.85c-3.92-7.96-8.86-13.74-13.06-17.58-2.1-1.92-4.02-3.37-5.56-4.36-.77-.5-1.45-.89-2.01-1.18-.51-.26-1.08-.51-1.58-.61l-.74 3.76c-.06-.01.1.02.58.27.42.22.99.54 1.66.98 1.35.88 3.11 2.19 5.06 3.98 3.9 3.57 8.53 8.97 12.21 16.45l3.44-1.69Zm9.86 43.2 1.9-.28v-.08c0-.05-.02-.13-.04-.23-.03-.21-.08-.51-.14-.89-.12-.77-.31-1.9-.56-3.29-.5-2.78-1.23-6.66-2.21-11.02-1.95-8.68-4.88-19.46-8.79-27.39l-3.44 1.69c3.7 7.51 6.55 17.91 8.49 26.54.96 4.29 1.69 8.11 2.18 10.85.24 1.37.43 2.47.55 3.23.06.38.11.67.14.87.02.1.03.17.03.22V228.82l1.9-.28Zm-63.8 1.91h63.8v-3.83h-63.8v3.83Zm-15.33 3.42-.27 1.9h.04c.03 0 .06 0 .11.01.09.01.22.03.39.04.33.03.8.06 1.37.08 1.14.03 2.71 0 4.47-.26 3.46-.52 7.89-1.99 10.77-6l-3.11-2.23c-2.01 2.8-5.23 4-8.22 4.44-1.47.22-2.81.25-3.78.22-.48-.01-.87-.04-1.13-.07-.13-.01-.23-.02-.29-.03h-.08l-.27 1.9Zm-29.24-6.77 28.69 8.61 1.1-3.67-28.69-8.61-1.1 3.67Zm-4.75-7.8c-.65 3.43 1.4 6.8 4.75 7.8l1.1-3.67a2.99 2.99 0 0 1-2.08-3.43l-3.77-.71Zm2.04-10.83-2.04 10.83 3.77.71 2.04-10.83-3.77-.71Zm1.88.35h-1.92l3.8.35-1.88-.35Zm6.22-3.8.54-1.84-.54 1.84Zm22.51 6.63-.54 1.84 1.59.47.69-1.51-1.74-.8Zm2.25-4.91 1.74.8.07-.15.04-.16-1.85-.49Zm15.21-32.69 1.45 1.26-1.45-1.26Zm13.57-8.58.51 1.85-.51-1.85Zm17-1.98-.5 1.85.07.02h.07l.37-1.87Zm20.86 22.7-1.72.85 1.72-.85Zm11.58 42.35v1.92h2.22l-.32-2.2-1.9.28Zm-63.8 0v-1.92h-.98l-.57.8 1.56 1.12Zm-15.33 5.33-.55 1.83.14.04.14.02.27-1.9Zm-28.69-8.6.55-1.83-.55 1.83Zm-3.41-5.62 1.88.35-1.88-.35Zm2.03-10.83h1.92l-3.8-.35 1.88.35Z" style="clip-path:url(#clippath-6)"/><path class="cls-9" d="M192.75 208.27c-.08 0-.15-.02-.22-.08-2.35-1.91-9.1-2.26-9.17-2.26-.19 0-.33-.17-.32-.36 0-.19.18-.32.36-.32.29.01 7.04.36 9.56 2.41.15.12.17.33.05.48-.07.08-.17.13-.26.13ZM199.98 204.88c-.08 0-.15-.02-.22-.08-2.35-1.91-9.1-2.26-9.17-2.26-.19 0-.33-.17-.32-.36 0-.19.17-.33.36-.32.29.01 7.04.36 9.56 2.41.15.12.17.33.05.48-.07.08-.17.13-.26.13ZM242.73 157.49c.91.75 2.47 1.61 4.29 1.74 1.88.13 3.95-.52 5.73-2.65l-1.47-1.23c-1.38 1.65-2.85 2.05-4.12 1.96-1.33-.09-2.53-.74-3.2-1.3l-1.23 1.47Zm10.02-.91a.963.963 0 0 0-.12-1.35.963.963 0 0 0-1.35.12l1.47 1.23Zm-8.79-.56a.963.963 0 0 0-1.35.12.963.963 0 0 0 .12 1.35l1.23-1.47ZM264.48 140.17c.22.88.36 3.27-.93 5.3l1.62 1.03c1.65-2.6 1.48-5.57 1.17-6.79l-1.86.46Zm-.93 5.3a.962.962 0 0 0 .29 1.32c.45.28 1.04.15 1.32-.29l-1.62-1.03Zm2.79-5.76a.962.962 0 0 0-1.16-.7c-.51.13-.83.65-.7 1.16l1.86-.46Z"/><path d="M154.52 56.06v39.78c0 4.83 3.92 8.75 8.75 8.75h51.31c4.83 0 8.75-3.92 8.75-8.75v-4.37h15.31l-15.31-15.31V56.07c0-4.83-3.92-8.75-8.75-8.75h-51.31c-4.83 0-8.75 3.92-8.75 8.75Z" style="fill:#b4cc77;stroke-width:0"/><path class="cls-9" d="M188.45 81.73c-.21 0-.42-.09-.55-.27a37.837 37.837 0 0 0-9.57-8.54l-2.46-1.54a17.322 17.322 0 0 1-7.27-20.27c3.05-9.09 12.92-14 22.01-10.96a17.315 17.315 0 0 1 11.79 18.02l-.26 2.89c-.38 4.33-.03 8.67 1.07 12.88a.714.714 0 0 1-1.38.36 39.053 39.053 0 0 1-1.11-13.36l.26-2.89c.65-7.39-3.8-14.19-10.83-16.55-8.34-2.8-17.41 1.72-20.21 10.06a15.9 15.9 0 0 0 6.68 18.61l2.46 1.54c3.8 2.37 7.14 5.35 9.93 8.86.24.31.19.75-.11 1-.13.11-.28.16-.44.16Z"/><path class="cls-9" d="M201.01 89.11c-4.13 2.06-9.15.38-11.21-3.76l-1.98-3.98 14.96-7.45 1.98 3.98c2.06 4.13.38 9.15-3.76 11.21Z"/><path class="cls-9" d="M191.35 54.87c-.94 0-1.73.84-2.19 2.33-.46 1.48-.18 2.56 1.32 5.05.09.15.19.33.31.53 1.7-1.86 2.75-4.15 2.37-6.3-.15-.87-.89-1.56-1.7-1.6h-.11Zm-9.16 8.99c-.22 0-.43.03-.65.1-.33.1-1.36.48-1.19 1.15.21.77 1.9 1.85 4.54 1.26.37-.09.74-.19 1.11-.33-.75-.81-2.33-2.18-3.81-2.18Zm10.77 15.12c-.26 0-.51-.14-.64-.39l-5.62-11.3c-.5.19-1 .35-1.5.46-3.27.73-5.78-.62-6.22-2.28-.26-.99.16-2.26 2.14-2.87 3.09-.97 6.07 2.63 6.2 2.78.01.01.03.04.04.05.84-.44 1.64-.99 2.37-1.63-.18-.33-.34-.62-.47-.83-1.51-2.51-2.12-4.08-1.46-6.2.68-2.19 2.07-3.42 3.74-3.32 1.48.09 2.75 1.26 3.02 2.78.48 2.77-.89 5.65-3.07 7.85 2.09 4.01 5.8 11.82 5.99 12.21.17.36.01.78-.33.94-.36.17-.78.01-.94-.33-.04-.09-3.66-7.71-5.79-11.82-.75.62-1.57 1.17-2.41 1.61l5.6 11.26a.706.706 0 0 1-.63 1.02ZM205.32 49.95c-.28 0-.55-.17-.66-.45a.72.72 0 0 1 .4-.92l7.09-2.78c.36-.14.77.04.92.4a.72.72 0 0 1-.4.92l-7.09 2.78c-.09.04-.17.05-.26.05ZM200.31 42.29c-.19 0-.38-.08-.53-.23a.71.71 0 0 1 .05-1l5.4-4.87a.71.71 0 0 1 1 .05c.26.29.24.74-.05 1l-5.4 4.87c-.13.12-.31.18-.48.18ZM213.54 60.22a.57.57 0 0 1-.22-.04l-7.04-2.29a.698.698 0 0 1-.45-.89c.12-.37.52-.58.89-.45l7.04 2.29c.37.12.58.52.45.89-.1.3-.38.49-.67.49Z"/></svg>