<svg width="101" height="101" viewBox="0 0 101 101" fill="none" xmlns="http://www.w3.org/2000/svg">
<mask id="mask0_451_16141" style="mask-type:alpha" maskUnits="userSpaceOnUse" x="0" y="0" width="101" height="101">
<rect x="0.00195312" y="0.0273438" width="100" height="100" fill="#D9D9D9"/>
</mask>
<g mask="url(#mask0_451_16141)">
<path d="M77.532 32.2423C77.3469 31.7492 76.7963 31.5002 76.301 31.686L71.8915 33.3493C71.3962 33.535 71.1478 34.0878 71.3352 34.5803C71.5106 35.047 72.0125 35.295 72.4843 35.1641C72.5113 35.1567 72.5405 35.1486 72.5662 35.1366L76.9757 33.4733C77.4711 33.2876 77.7194 32.7348 77.532 32.2423Z" fill="#20380E"/>
<path d="M41.5004 83.4943C43.3625 85.3056 45.997 85.705 48.5349 85.957C50.5704 86.1595 52.4087 86.3054 54.2974 86.0139C54.7313 85.9468 55.1538 85.8563 55.5605 85.7435C57.2704 85.2693 58.7162 84.4013 59.712 83.2372C61.1313 81.5756 61.7736 79.215 61.5202 76.5825C61.3018 74.3202 60.4789 72.182 59.754 70.2924C59.6777 70.0958 59.5384 69.9336 59.3602 69.8233C58.9398 64.6166 61.4137 59.7954 64.0326 54.6943C66.7868 49.3307 69.6354 43.7837 68.7589 37.7526C67.7344 30.6906 61.0743 24.6398 53.2664 23.6814C46.4828 22.8478 39.1236 25.4355 33.0776 30.778C30.565 32.9992 24.8525 38.9509 26.0984 46.2443C26.7975 50.3356 30.0257 54.2458 33.1499 58.0251C36.8357 62.4859 40.6464 67.1008 40.2109 71.8383C40.1996 71.9721 40.2165 72.1029 40.2546 72.223C39.7743 73.9459 39.3146 75.7261 39.3048 77.6016C39.2922 80.0078 40.0709 82.1002 41.502 83.4915L41.5004 83.4943ZM54.0059 84.1252C52.3397 84.3816 50.6301 84.2459 48.7262 84.0553C46.524 83.8361 44.2544 83.5049 42.8332 82.123C41.793 81.1121 41.2046 79.4702 41.2149 77.6139C41.2169 77.2286 41.2427 76.8416 41.2876 76.454C45.2297 78.4362 49.9713 78.8513 54.2335 77.6693C55.3547 77.3583 56.4425 76.9357 57.476 76.4047C57.9462 76.163 58.1294 75.5847 57.8861 75.1174C57.6444 74.6473 57.0661 74.4641 56.5988 74.7074C52.0077 77.0767 46.1644 76.9817 41.6428 74.4803C41.7429 74.0557 41.8502 73.6315 41.9662 73.2122C47.3123 74.5945 53.0499 74.143 58.3283 71.9218C58.9025 73.4515 59.4581 75.1146 59.6198 76.7708C59.7 77.6099 59.6665 78.4226 59.5284 79.1722C54.7485 80.3551 49.6642 80.5625 44.8062 79.7707C44.2841 79.6856 43.7942 80.0393 43.7091 80.5613C43.624 81.0834 43.9777 81.5733 44.4997 81.6584C49.193 82.4232 54.0871 82.2976 58.7498 81.3118C58.6028 81.5582 58.4412 81.7869 58.2627 81.9985C57.3273 83.0927 55.817 83.8503 54.0094 84.129L54.0059 84.1252ZM34.6214 56.8137C31.5217 53.0615 28.593 49.5158 27.9803 45.928C26.8977 39.5814 32.0688 34.2251 34.3402 32.216C39.9756 27.2341 46.7893 24.817 53.0293 25.5836C60.011 26.4422 65.9591 31.7927 66.8641 38.0312C67.6505 43.4582 65.0667 48.4939 62.3275 53.8243C59.674 58.993 56.9306 64.3342 57.4634 70.1558C57.4656 70.1721 57.4722 70.1872 57.472 70.2042C52.5121 72.2645 47.1312 72.6413 42.1465 71.2797C42.2467 66.0569 38.3728 61.3628 34.6175 56.8172L34.6214 56.8137Z" fill="#20380E"/>
<path d="M24.1011 66.5597C24.2651 66.5142 24.4189 66.4231 24.5439 66.2893C25.6253 65.128 26.8358 64.0833 28.145 63.1855C28.5798 62.8859 28.6907 62.2913 28.3934 61.856C28.0937 61.4212 27.4992 61.3103 27.0639 61.6077C25.6412 62.5853 24.3227 63.7204 23.1445 64.986C22.785 65.3736 22.8072 65.9772 23.1926 66.3374C23.4441 66.5725 23.7904 66.6434 24.1005 66.5574L24.1011 66.5597Z" fill="#20380E"/>
<path d="M21.1462 46.2339C21.5304 46.1274 21.8203 45.7856 21.8447 45.3675C21.8754 44.8412 21.4718 44.3893 20.9432 44.3593L16.4814 44.1062C15.9551 44.0755 15.5032 44.4791 15.4731 45.0076C15.4425 45.5339 15.846 45.9858 16.3746 46.0158L20.8365 46.269C20.9447 46.2753 21.0479 46.2636 21.1468 46.2361L21.1462 46.2339Z" fill="#20380E"/>
<path d="M26.8035 28.7508C27.0282 28.6885 27.2321 28.5424 27.3635 28.3269C27.6376 27.8758 27.4965 27.2883 27.0448 27.0119C26.0253 26.3896 25.1317 25.6018 24.3889 24.6682C24.0593 24.2563 23.459 24.1856 23.0449 24.5158C22.6323 24.8432 22.5623 25.4457 22.8925 25.8599C23.7762 26.9698 24.8371 27.9072 26.0484 28.6456C26.284 28.7884 26.5564 28.8193 26.8013 28.7514L26.8035 28.7508Z" fill="#20380E"/>
<path d="M42.7927 20.9436C43.287 20.8065 43.5852 20.3028 43.4655 19.8012L42.4829 15.6821C42.36 15.1693 41.8439 14.8527 41.3305 14.9733C40.8132 15.0974 40.5011 15.6122 40.6217 16.1256L41.6044 20.2448C41.7272 20.7576 42.2411 21.0748 42.7567 20.9536C42.768 20.9505 42.7792 20.9474 42.7904 20.9442L42.7927 20.9436Z" fill="#20380E"/>
<path d="M59.3214 21.2523L61.9261 17.0771C62.206 16.6292 62.0687 16.0382 61.6215 15.7606C61.1736 15.4807 60.5826 15.618 60.305 16.0652L57.7003 20.2404C57.4204 20.6882 57.5571 21.277 58.0049 21.5569C58.2417 21.7041 58.5169 21.7367 58.7663 21.6675C58.9888 21.6058 59.1888 21.4633 59.3214 21.2523Z" fill="#20380E"/>
<path d="M70.6284 55.452C70.1402 55.2535 69.5811 55.4884 69.3826 55.9766C69.184 56.4647 69.4189 57.0239 69.9071 57.2224C71.3311 57.8026 72.6227 58.7172 73.6454 59.866C73.8953 60.1475 74.2757 60.2453 74.615 60.1512C74.7521 60.1132 74.8804 60.0437 74.9932 59.9447C75.387 59.5935 75.4231 58.9907 75.0713 58.5946C73.8552 57.2284 72.3199 56.1419 70.6255 55.4504L70.6284 55.452Z" fill="#20380E"/>
<path d="M38.4361 35.6027C38.9236 35.3974 39.1508 34.8383 38.9477 34.3502C38.7424 33.8627 38.1833 33.6355 37.6952 33.8386C33.9542 35.4084 32.2609 39.6502 32.2436 43.1563C32.2239 46.8372 33.6424 50.3467 34.8937 53.4453C35.0779 53.9 35.5721 54.1379 36.035 54.0096C36.0687 54.0002 36.1046 53.9903 36.1387 53.9736C36.6281 53.7749 36.8656 53.2179 36.6669 52.7285C35.481 49.7957 34.1379 46.4709 34.1553 43.1657C34.17 40.2871 35.501 36.8329 38.4355 35.6005L38.4361 35.6027Z" fill="#20380E"/>
<path d="M40.5552 50.4548C40.0761 51.4757 40.1691 52.7444 40.783 53.6146C41.5554 54.707 42.9334 55.3484 44.6974 55.4448C45.2185 59.1209 44.8237 62.9325 43.5363 66.4133C43.3544 66.909 43.606 67.4586 44.1017 67.6405C44.5974 67.8225 45.147 67.5708 45.329 67.0752C46.7031 63.3574 47.1411 59.2918 46.6147 55.3607C47.3505 55.2655 48.076 55.0982 48.7805 54.8641C48.5716 59.9041 49.9652 65.0079 52.7995 69.1991C53.0364 69.5472 53.4609 69.6907 53.8474 69.5836C53.944 69.5568 54.0385 69.5136 54.1286 69.4548C54.5668 69.159 54.6801 68.5638 54.3849 68.1279C51.6013 64.0146 50.3301 58.9422 50.7499 54.0082C51.8969 53.3804 52.939 52.5663 53.8114 51.5937C54.2508 51.1016 54.7823 50.4267 54.9716 49.5564C55.2015 48.5006 54.8165 47.4265 54.0139 46.8796C53.0756 46.2446 51.6895 46.4378 50.788 47.3315C50.1105 48.0033 49.8036 48.8772 49.5718 49.7255C49.3015 50.7223 49.0982 51.7345 48.9631 52.7567C48.1109 53.1213 47.2064 53.3673 46.286 53.4774C46.2025 53.0892 46.1101 52.7035 46.0058 52.3187C45.4112 50.105 44.1286 48.8565 42.5755 48.9799C41.6993 49.0487 40.9607 49.5874 40.5529 50.4554L40.5552 50.4548ZM51.417 50.2276C51.6032 49.5468 51.7946 49.0243 52.1323 48.6887C52.252 48.5708 52.4093 48.4837 52.5599 48.4419C52.7104 48.4002 52.8513 48.4022 52.9383 48.4628C53.0874 48.5642 53.1603 48.8707 53.1011 49.146C53.0058 49.5789 52.6675 49.9994 52.3832 50.3178C51.9971 50.7491 51.5693 51.1435 51.1111 51.4981C51.1987 51.0721 51.301 50.6469 51.4147 50.2282L51.417 50.2276ZM44.3296 53.4901C43.6109 53.3942 42.7876 53.1386 42.3421 52.5096C42.1226 52.1978 42.0976 51.6628 42.2849 51.2648C42.3536 51.1199 42.4702 50.9472 42.65 50.8974C42.6747 50.8905 42.6971 50.8843 42.7237 50.8842C43.3397 50.8368 43.899 51.8504 44.159 52.8139C44.2213 53.0386 44.2762 53.2629 44.3296 53.4901Z" fill="#20380E"/>
</g>
</svg>
