<svg width="101" height="101" viewBox="0 0 101 101" fill="none" xmlns="http://www.w3.org/2000/svg">
<mask id="mask0_644_2010" style="mask-type:alpha" maskUnits="userSpaceOnUse" x="0" y="0" width="101" height="101">
<rect x="0.00195312" y="0.0273438" width="100" height="100" fill="#D9D9D9"/>
</mask>
<g mask="url(#mask0_644_2010)">
<path d="M77.0546 37.1277C78.0862 37.308 78.9135 38.1353 79.1658 39.2349C79.2319 39.5214 79.296 39.8078 79.3601 40.0942C81.1409 40.7633 82.9677 41.4583 84.5961 42.2876C84.8145 42.3998 84.9727 42.6021 85.0268 42.8424C87.805 55.3976 89.0289 67.2718 88.7685 79.1419C88.7645 79.3702 88.6644 79.5866 88.4921 79.7368C88.3218 79.889 88.0955 79.9632 87.8671 79.9411C77.8859 78.9837 67.6843 82.3849 59.8784 89.2734C58.5864 90.4131 56.9359 91 55.2613 91C54.0715 91 52.8697 90.7036 51.776 90.1006C42.3756 84.9147 30.4835 84.1616 20.7005 88.1216L20.5663 88.2478C20.354 88.4481 20.0495 88.5202 19.7691 88.4361C19.4887 88.352 19.2744 88.1276 19.2042 87.8432C16.3619 76.1654 15.2021 64.159 15.757 52.1527C15.763 52.0205 15.801 51.8943 15.8671 51.7801C16.7745 50.2117 17.8802 49.2422 19.2503 48.8156C19.2704 48.8096 19.2904 48.8076 19.3104 48.8036C19.2864 48.2447 19.2643 47.6858 19.2463 47.129C19.2083 45.9973 19.8112 44.9817 20.7867 44.541C29.1494 40.7493 44.7513 45.0999 49.5666 47.79C49.8691 47.9583 50.1275 48.1205 50.3498 48.2767C50.5581 48.0184 50.8185 47.7399 51.139 47.4315C54.8467 43.86 68.0008 35.5513 77.0526 37.1317L77.0546 37.1277ZM87.142 78.2325C87.3203 66.9052 86.1305 55.5579 83.5065 43.5796C82.3427 43.0107 81.0648 42.4999 79.7808 42.0092C82.0242 52.4251 83.6627 63.3478 84.8606 71.8988C84.9727 72.6961 84.7604 73.4973 84.2757 74.0962C83.841 74.635 83.2361 74.9575 82.5691 75.0076C74.1201 75.6385 65.8655 78.8414 58.961 84.1095C59.3396 85.107 59.618 86.1366 59.8003 87.1842C67.5701 80.7684 77.4192 77.5374 87.142 78.2305V78.2325ZM58.314 88.4121C58.1958 87.3144 57.9574 86.2347 57.6029 85.1891C57.0701 85.6278 56.5453 86.0785 56.0305 86.5432C55.8763 86.6814 55.68 86.7555 55.4797 86.7555C55.4636 86.7555 55.4476 86.7515 55.4316 86.7515C55.3455 86.7816 55.2553 86.7976 55.1652 86.7976C55.041 86.7976 54.9168 86.7696 54.8026 86.7135C54.1837 86.409 53.5587 86.1186 52.9298 85.8421C52.8016 86.8316 52.7876 87.8312 52.8897 88.8247C54.6704 89.666 56.7476 89.4997 58.314 88.4141V88.4121ZM19.3905 50.5162C18.6234 50.8507 17.9784 51.4696 17.3915 52.4351C16.8807 63.8586 17.9443 75.284 20.5543 86.415C25.4959 84.4981 30.9862 83.6688 36.4786 84.0194C41.6205 84.3459 46.6722 85.6999 51.1891 87.9454C51.1611 87.0239 51.2212 86.1025 51.3674 85.1891C43.0427 81.8761 33.8987 80.9407 25.2415 82.5651C24.5584 82.6933 23.8674 82.5331 23.2925 82.1124C22.6736 81.6597 22.2629 80.9487 22.1668 80.1635C21.1292 71.7406 19.9113 60.9922 19.3925 50.5182L19.3905 50.5162ZM38.5798 45.797C34.3955 44.8876 26.6076 43.7078 21.4677 46.0373C21.1071 46.2016 20.8748 46.6182 20.8908 47.0729C21.2834 58.5164 22.6495 70.6589 23.7953 79.9592C23.8373 80.2977 24.0076 80.5981 24.262 80.7844C24.4663 80.9346 24.7066 80.9927 24.939 80.9487C34.6679 79.1219 44.9856 80.4179 54.1637 84.5922L49.7469 49.8972C49.172 49.1841 44.8735 47.1651 38.5798 45.795V45.797ZM60.7457 42.8765C55.2113 45.807 51.7179 48.8496 51.3754 49.6769L56.0906 84.3138C63.6021 77.9561 72.9043 74.0862 82.4489 73.3711C82.7173 73.3511 82.8955 73.1948 82.9997 73.0666C83.198 72.8202 83.2841 72.4777 83.2361 72.1272C81.9361 62.847 80.1173 50.7625 77.5674 39.6015C77.4653 39.1548 77.1468 38.8103 76.7762 38.7462C76.0972 38.628 75.3961 38.5739 74.677 38.5739C69.6894 38.5739 63.9606 41.1739 60.7477 42.8745L60.7457 42.8765Z" fill="#20380E"/>
<path d="M73.689 46.5964C66.9848 45.7411 59.9861 48.3051 55.4191 53.2867C55.2568 53.4629 55.0365 53.5531 54.8142 53.5531C54.6159 53.5531 54.4176 53.481 54.2593 53.3367C53.9248 53.0303 53.9028 52.5115 54.2092 52.177C59.1287 46.8088 66.6743 44.0445 73.8973 44.966C74.348 45.024 74.6665 45.4347 74.6084 45.8854C74.5503 46.336 74.1397 46.6545 73.689 46.5964Z" fill="#20380E"/>
<path d="M46.7481 54.1977C46.6159 54.1977 46.4817 54.1656 46.3595 54.0995C40.146 50.7444 32.8729 49.4324 25.8803 50.4079C25.4296 50.47 25.0169 50.1575 24.9528 49.7068C24.8887 49.2561 25.2032 48.8435 25.6539 48.7794C32.9911 47.7578 40.6228 49.1339 47.1407 52.6533C47.5393 52.8696 47.6896 53.3664 47.4732 53.767C47.325 54.0414 47.0426 54.1977 46.7501 54.1977H46.7481Z" fill="#20380E"/>
<path d="M76.9273 54.6517C76.8732 55.1024 76.4626 55.4229 76.0119 55.3668C70.0788 54.6437 63.7992 56.5005 59.2122 60.3304C59.058 60.4586 58.8717 60.5207 58.6854 60.5207C58.4511 60.5207 58.2167 60.4205 58.0544 60.2262C57.764 59.8777 57.8101 59.3609 58.1586 59.0704C63.0881 54.9542 69.8364 52.9591 76.2102 53.7363C76.6609 53.7904 76.9814 54.201 76.9253 54.6517H76.9273Z" fill="#20380E"/>
<path d="M46.7576 62.5325C46.5913 62.5325 46.425 62.4824 46.2808 62.3782C40.8305 58.4823 33.7216 57.2163 27.2638 58.9911C26.8271 59.1112 26.3744 58.8548 26.2542 58.4162C26.134 57.9795 26.3904 57.5268 26.8291 57.4066C33.7597 55.5017 41.3894 56.8598 47.2383 61.0402C47.6069 61.3046 47.693 61.8174 47.4286 62.1859C47.2683 62.4103 47.0159 62.5305 46.7596 62.5305L46.7576 62.5325Z" fill="#20380E"/>
<path d="M77.5597 62.28C78.0024 62.3822 78.2768 62.8228 78.1767 63.2635C78.0745 63.7062 77.6338 63.9826 77.1932 63.8804C71.5686 62.5885 65.3711 64.1388 61.0164 67.9266C60.8602 68.0628 60.6679 68.1289 60.4776 68.1289C60.2493 68.1289 60.0209 68.0328 59.8587 67.8465C59.5602 67.504 59.5963 66.9852 59.9388 66.6887C64.682 62.5604 71.4344 60.8718 77.5617 62.28H77.5597Z" fill="#20380E"/>
<path d="M47.3034 70.9698C47.1772 70.9698 47.049 70.9397 46.9308 70.8796C41.5526 68.1274 35.1408 67.5205 29.3419 69.2131C28.9073 69.3393 28.4506 69.0909 28.3244 68.6542C28.1982 68.2196 28.4466 67.7629 28.8832 67.6367C35.0807 65.8279 41.9332 66.4769 47.68 69.4174C48.0846 69.6237 48.2428 70.1185 48.0365 70.5231C47.8903 70.8075 47.6038 70.9698 47.3054 70.9698H47.3034Z" fill="#20380E"/>
<path d="M61.564 74.0806C65.9487 71.5407 70.706 69.8341 75.7056 69.0128C76.1523 68.9387 76.5749 69.2432 76.649 69.6899C76.7232 70.1365 76.4187 70.5592 75.972 70.6333C71.1687 71.4225 66.5977 73.061 62.3872 75.5027C62.2571 75.5769 62.1168 75.6129 61.9766 75.6129C61.6942 75.6129 61.4178 75.4667 61.2655 75.2043C61.0372 74.8117 61.1714 74.3089 61.564 74.0826V74.0806Z" fill="#20380E"/>
<path d="M47.8188 78.4513C47.6846 78.4513 47.5484 78.4193 47.4242 78.3492C42.8232 75.8153 37.4229 74.7978 32.215 75.4848C31.7643 75.5449 31.3536 75.2284 31.2936 74.7777C31.2335 74.3291 31.5499 73.9164 32.0006 73.8563C37.5531 73.1252 43.3119 74.2089 48.2154 76.911C48.612 77.1293 48.7582 77.6301 48.5379 78.0267C48.3877 78.2991 48.1072 78.4513 47.8188 78.4513Z" fill="#20380E"/>
<path d="M46.1326 34.6951L42.3057 28.8075C43.0015 27.1674 43.3877 25.382 43.3877 23.5163C43.3877 15.4993 36.3608 9 27.6938 9C19.0269 9 12 15.4993 12 23.5125C12 31.5257 19.0269 38.0288 27.6938 38.0288C32.813 38.0288 37.3586 35.7617 40.2221 32.2521L46.1326 34.6951Z" fill="white" stroke="#20380E" stroke-width="1.35165" stroke-linecap="round" stroke-linejoin="round"/>
<path d="M20.4341 24.9037L24.5516 31.5559L34.5528 20.8779C35.3213 20.0598 35.046 18.7255 34.0176 18.2782C33.3982 18.0068 32.6757 18.1482 32.2016 18.6338L25.5341 25.4771L23.7487 22.8698C23.3053 22.2237 22.4642 21.9828 21.7454 22.304L21.1567 22.5678C20.2544 22.9692 19.9142 24.0702 20.4341 24.9075V24.9037Z" fill="#20380E"/>
</g>
</svg>
