<svg version="1.1" id="Layer_1" xmlns="http://www.w3.org/2000/svg" xmlns:xlink="http://www.w3.org/1999/xlink" x="0" y="0" viewBox="0 0 470 250" style="enable-background:new 0 0 470 250" xml:space="preserve"><style>.st17{fill:#20380e}</style><switch><g><defs><path id="SVGID_1_" d="M0 0h470v250H0z"/></defs><clipPath id="SVGID_00000065774238341806255520000013611654355220349355_"><use xlink:href="#SVGID_1_" style="overflow:visible"/></clipPath><path style="clip-path:url(#SVGID_00000065774238341806255520000013611654355220349355_);fill-rule:evenodd;clip-rule:evenodd;fill:#fff" d="m206.4 232.2.5 34.5c7.6 7.7 13.5 5.5 16.8-4.3l2-32.3-19.3 2.1z"/><g style="clip-path:url(#SVGID_00000065774238341806255520000013611654355220349355_)"><defs><path id="SVGID_00000087372310985498838150000002133711532812618664_" d="m206.4 232.2.5 34.5c7.6 7.7 13.5 5.5 16.8-4.3l2-32.3-19.3 2.1z"/></defs><clipPath id="SVGID_00000000941700268720050190000003948098719774459787_"><use xlink:href="#SVGID_00000087372310985498838150000002133711532812618664_" style="overflow:visible"/></clipPath><path style="clip-path:url(#SVGID_00000000941700268720050190000003948098719774459787_);fill:#20380e" d="M207.4 232.2h-2 2zm18.3-3-19.3 2 .2 2 19.3-2-.2-2zm-.9 33.4 2-32.3-2-.1-2 32.3 2 .1zm-18.5 4.9c3.9 3.9 7.6 5.7 11 4.7 3.4-.9 5.8-4.4 7.5-9.3l-1.9-.6c-1.6 4.8-3.8 7.4-6.1 8.1-2.3.6-5.3-.4-9-4.2l-1.5 1.3zm-.9-35.3.5 34.5h2l-.5-34.5h-2zm1 0h-1v1.1l1.1-.1-.1-1zm19.4-2 1 .1.1-1.2-1.2.1.1 1zm-2 32.3.9.3v-.2l-.9-.1zm-16.8 4.3h-1v.4l.3.3.7-.7zm-.6-34.6h1-2 1z"/></g><path style="clip-path:url(#SVGID_00000065774238341806255520000013611654355220349355_);fill-rule:evenodd;clip-rule:evenodd;fill:#fff" d="M220 277.4c0-.9-1.4-.8-2.1-.8-1.5 0-1 1.6-1.1 2.5 0 .9 1.4.8 2.1.8 1.5 0 1-1.5 1.1-2.5zm-8.6 0c0-.9-1.4-.8-2.1-.8-1.5 0-1 1.6-1.1 2.5 0 .9 1.4.8 2.1.8 1.5 0 1-1.5 1.1-2.5zm17.1 0c0-.9-1.4-.8-2.1-.8-1.5 0-1 1.6-1.1 2.5 0 .9 1.4.8 2.1.8 1.6 0 1-1.5 1.1-2.5zm8.6 0c0-.9-1.4-.8-2.1-.8-1.5 0-1 1.6-1.1 2.5 0 .9 1.4.8 2.1.8 1.6 0 1-1.5 1.1-2.5z"/><g style="clip-path:url(#SVGID_00000065774238341806255520000013611654355220349355_)"><defs><path id="SVGID_00000139262898940006573650000003511780031461227657_" d="M220 277.4c0-.9-1.4-.8-2.1-.8-1.5 0-1 1.6-1.1 2.5 0 .9 1.4.8 2.1.8 1.5 0 1-1.5 1.1-2.5zm-8.6 0c0-.9-1.4-.8-2.1-.8-1.5 0-1 1.6-1.1 2.5 0 .9 1.4.8 2.1.8 1.5 0 1-1.5 1.1-2.5zm17.1 0c0-.9-1.4-.8-2.1-.8-1.5 0-1 1.6-1.1 2.5 0 .9 1.4.8 2.1.8 1.6 0 1-1.5 1.1-2.5zm8.6 0c0-.9-1.4-.8-2.1-.8-1.5 0-1 1.6-1.1 2.5 0 .9 1.4.8 2.1.8 1.6 0 1-1.5 1.1-2.5z"/></defs><clipPath id="SVGID_00000027605154203523556210000003309895534928786092_"><use xlink:href="#SVGID_00000139262898940006573650000003511780031461227657_" style="overflow:visible"/></clipPath><path style="clip-path:url(#SVGID_00000027605154203523556210000003309895534928786092_);fill:#20380e" d="M218.9 280.9c.5 0 1.1-.2 1.5-.5.4-.4.5-.9.6-1.2v-1.7l-2-.2v1.6c.1-.1.1 0-.1 0v2zm-3.1-1.7c0 .5.2 1 .6 1.3.3.3.7.4 1 .5.6.1 1.2.1 1.5.1l-.1-2h-1.1c-.1 0-.2-.1-.1 0s.1.2.1.2l-1.9-.1zm2-3.6c-.5 0-1.1.2-1.5.5-.4.4-.5.9-.6 1.2v1.7l2 .2v-1.6c-.1.1-.1 0 .1 0v-2zm3.2 1.8c0-.5-.2-1-.6-1.3-.3-.3-.7-.4-1-.5-.6-.1-1.2-.1-1.5-.1l.1 2h1.1c.1 0 .2.1.1 0s-.1-.2-.1-.2l1.9.1zm-10.7 3.5c.5 0 1.1-.2 1.5-.5.4-.4.5-.9.6-1.2v-1.7l-2-.2v1.6c.1-.1.1 0-.1 0v2zm-3.1-1.7c0 .5.2 1 .6 1.3.3.3.7.4 1 .5.6.1 1.2.1 1.5.1l-.1-2h-1.1c-.1 0-.2-.1-.1 0s.1.2.1.2l-1.9-.1zm2.1-3.6c-.5 0-1.1.2-1.5.5-.4.4-.5.9-.6 1.2v1.7l2 .2v-1.6c-.1.1-.1 0 .1 0v-2zm3.1 1.8c0-.5-.2-1-.6-1.3-.3-.3-.7-.4-1-.5-.6-.1-1.2-.1-1.5-.1l.1 2h1.1c.1 0 .2.1.1 0s-.1-.2-.1-.2l1.9.1zm15.1 3.5c.5 0 1.1-.2 1.5-.5.4-.4.5-.9.6-1.2v-1.7l-2-.2v1.6c.1-.1.1 0-.1 0v2zm-3.2-1.7c0 .5.2 1 .6 1.3.3.3.7.4 1 .5.6.1 1.2.1 1.5.1l-.1-2h-1.1c-.1 0-.2-.1-.1 0s.1.2.1.2l-1.9-.1zm2.1-3.6c-.5 0-1.1.2-1.5.5-.4.4-.5.9-.6 1.2v1.7l2 .2v-1.6c-.1.1-.1 0 .1 0v-2zm3.1 1.8c0-.5-.2-1-.6-1.3-.3-.3-.7-.4-1-.5-.6-.1-1.2-.1-1.5-.1l.1 2h1.1c.1 0 .2.1.1 0s-.1-.2-.1-.2l1.9.1zm6.5 3.5c.5 0 1.1-.2 1.5-.5.4-.4.5-.9.6-1.2v-1.7l-2-.2v1.6c.1-.1.1 0-.1 0v2zm-3.1-1.7c0 .5.2 1 .6 1.3.3.3.7.4 1 .5.6.1 1.2.1 1.5.1l-.1-2h-1.1c-.1 0-.2-.1-.1 0s.1.2.1.2l-1.9-.1zm2.1-3.6c-.5 0-1.1.2-1.5.5-.4.4-.5.9-.6 1.2v1.7l2 .2v-1.6c-.1.1-.1 0 .1 0v-2zm3.1 1.8c0-.5-.2-1-.6-1.3-.3-.3-.7-.4-1-.5-.6-.1-1.2-.1-1.5-.1l.1 2h1.1c.1 0 .2.1.1 0s-.1-.2-.1-.2l1.9.1zm-19.2 2.5v-1 1zm-2.1-.8-1-.1v.2l1-.1zm1.1-2.5v1-1zm2.1.8 1 .1v-.2l-1 .1zm-9.7 2.5v-1 1zm-2.1-.8-1-.1v.2l1-.1zm1.1-2.5v1-1zm2.1.8 1 .1v-.2l-1 .1zm16 2.5v-1 1zm-2.1-.8-1-.1v.2l1-.1zm1.1-2.5v1-1zm2.1.8 1 .1v-.2l-1 .1zm7.5 2.5v-1 1zm-2.1-.8-1-.1v.2l1-.1zm1.1-2.5v1-1zm2.1.8 1 .1v-.2l-1 .1z"/></g><path style="clip-path:url(#SVGID_00000065774238341806255520000013611654355220349355_);fill-rule:evenodd;clip-rule:evenodd;fill:#fff" d="M207 266.8c5.6-.1 12.1-.1 16.9-5.1 0 0 11.2 6.6 14.6 8.5 1.7 1.2.8 3.6 1.2 5.5.1.9-.7 1.8-1.6 1.7h-29.6c-1 0-2-.9-1.9-2 .1-3 .4-8.6.4-8.6z"/><g style="clip-path:url(#SVGID_00000065774238341806255520000013611654355220349355_)"><defs><path id="SVGID_00000173138379505857973690000009030035543237172152_" d="M207 266.8c5.6-.1 12.1-.1 16.9-5.1 0 0 11.2 6.6 14.6 8.5 1.7 1.2.8 3.6 1.2 5.5.1.9-.7 1.8-1.6 1.7h-29.6c-1 0-2-.9-1.9-2 .1-3 .4-8.6.4-8.6z"/></defs><clipPath id="SVGID_00000129205137178507920510000018222098330840156590_"><use xlink:href="#SVGID_00000173138379505857973690000009030035543237172152_" style="overflow:visible"/></clipPath><path style="clip-path:url(#SVGID_00000129205137178507920510000018222098330840156590_);fill:#20380e" d="m206.3 267.5 1.4-1.4-1.4 1.4zm1.3 8c.1-1.5.2-3.7.3-5.5 0-.9.1-1.7.1-2.3V266.8h-2V267.7c0 .6-.1 1.4-.1 2.3-.1 1.8-.2 4-.3 5.5h2zm.8 1c-.5 0-.9-.4-.9-.9l-2-.1c-.1 1.6 1.3 3.1 2.9 3v-2zm29.6 0h-29.6v2H238v-2zm.6-.7c0 .3-.3.7-.6.7v2c1.5 0 2.8-1.3 2.7-2.8l-2.1.1zm-.7-4.7c.4.3.6.8.7 1.7v1.5c0 .5 0 1.1.1 1.7l2-.4c-.1-.4-.1-.8-.1-1.3v-1.6c0-1.1-.3-2.4-1.5-3.3l-1.2 1.7zm-14-9.4-.5.9s.1 0 .1.1c.1 0 .2.1.4.2.3.2.8.4 1.3.8 1.1.6 2.6 1.5 4.2 2.5 3.2 1.9 6.9 4 8.5 5l1-1.7c-1.7-1-5.3-3.1-8.5-5-1.6-.9-3.1-1.8-4.2-2.5-.6-.3-1-.6-1.3-.8-.2-.1-.3-.2-.4-.2 0 0-.1 0-.1-.1s0-.1-.5.8zm-16.9 6.1c5.5-.1 12.4-.1 17.6-5.4l-1.4-1.4c-4.5 4.6-10.5 4.6-16.2 4.8v2zm0-1 .7-.7-1.6-1.6-.1 2.3h1zm-.4 8.7 1 .1-1-.1zm1.8 2v-1 1zm29.6 0v-1 1zm1.6-1.8 1-.1v-.2l-1 .3zm-1.2-5.5.6-.8-.6.8zm-14.5-8.5.5-.9-.7-.4-.5.6.7.7zm-16.9 5.1-.7.7.3.3h.4v-1z"/></g><path style="clip-path:url(#SVGID_00000065774238341806255520000013611654355220349355_);fill-rule:evenodd;clip-rule:evenodd;fill:#fff" d="m204.1 234.7 24.2-.1 4.1-21.3 8 .7 17.5-10-.4-14.5-54.5.9z"/><g style="clip-path:url(#SVGID_00000065774238341806255520000013611654355220349355_)"><defs><path id="SVGID_00000071546844171389333030000006018486031418871708_" d="m204.1 234.7 24.2-.1 4.1-21.3 8 .7 17.5-10-.4-14.5-54.5.9z"/></defs><clipPath id="SVGID_00000141446149087030531620000014673928081444613504_"><use xlink:href="#SVGID_00000071546844171389333030000006018486031418871708_" style="overflow:visible"/></clipPath><path style="clip-path:url(#SVGID_00000141446149087030531620000014673928081444613504_);fill:#20380e" d="m202 190.5 1.2 44.3 2-.1-1.2-44.3-2 .1zm55.4-2-54.5.9v2l54.5-.9v-2zm1.5 15.5-.5-14.6-2 .1.5 14.6 2-.1zm-18 10.9 17.5-9.9-1-1.7-17.5 9.9 1 1.7zm-8.6-.6 8 .7.2-2-8-.7-.2 2zm-3.1 20.5 4.1-21.3-2-.4-4.1 21.3 2 .4zm-25.1.9 24.1-.1v-2l-24.1.1v2zm-1.1-45.3v-1h-1v1h1zm54.5-.9h1v-1h-1v1zm.4 14.5.5.9.5-.3v-.6h-1zm-17.5 10-.1 1h.3l.3-.2-.5-.8zm-8-.7.1-1-.9-.1-.2.9 1 .2zm-4.1 21.3v1h.8l.2-.8-1-.2zm-24.2.1h-1v1h1v-1z"/></g><path style="clip-path:url(#SVGID_00000065774238341806255520000013611654355220349355_);fill-rule:evenodd;clip-rule:evenodd;fill:#fff" d="m256.8 162.4 13.6 5.9s4.8-2 7-3c2.1-.9 7.8-.8 9.7-.1 1.9.7 4.1 4.5 4 5.8-.3 2.2-10.3.7-9.6 4 .6 1.2 2.8.2 3.9 1.4 2.9 4.5-12.9 3.7-15.5.6-3.2-.4-11.6-1.2-11.6-1.2l-1.5-13.4z"/><g style="clip-path:url(#SVGID_00000065774238341806255520000013611654355220349355_)"><defs><path id="SVGID_00000169522220570075621500000001620513558628293777_" d="m256.8 162.4 13.6 5.9s4.8-2 7-3c2.1-.9 7.8-.8 9.7-.1 1.9.7 4.1 4.5 4 5.8-.3 2.2-10.3.7-9.6 4 .6 1.2 2.8.2 3.9 1.4 2.9 4.5-12.9 3.7-15.5.6-3.2-.4-11.6-1.2-11.6-1.2l-1.5-13.4z"/></defs><clipPath id="SVGID_00000070101788121000259820000013914898973009632646_"><use xlink:href="#SVGID_00000169522220570075621500000001620513558628293777_" style="overflow:visible"/></clipPath><path style="clip-path:url(#SVGID_00000070101788121000259820000013914898973009632646_);fill:#20380e" d="M257.8 162.4h-2 2zm1.6 13.4-1.5-13.5-2 .2 1.5 13.5 2-.2zm10.7.3c-1.6-.2-4.5-.5-7-.7-1.2-.1-2.4-.2-3.2-.3-.4 0-.8-.1-1-.1h-.4l-.1 1-.1 1h.4c.2 0 .6.1 1 .1.8.1 2 .2 3.2.3 2.5.3 5.4.5 7 .7l.2-2zm14.5.9c.3.4.2.5.2.5 0 .1-.1.2-.6.4-.9.4-2.5.6-4.4.6-1.9 0-3.9-.3-5.7-.7-.9-.2-1.6-.5-2.2-.7-.6-.3-1-.6-1.2-.8l-1.5 1.3c.5.5 1.1 1 1.9 1.3.7.3 1.6.6 2.6.9 1.9.5 4.1.7 6.1.7s4-.2 5.3-.8c.7-.3 1.3-.8 1.6-1.5.3-.8.1-1.6-.4-2.4l-1.7 1.2zm-3.9-1.5c.3.6.8.9 1.3 1.1.4.1.9.2 1.3.2.9.1 1.2.1 1.5.4l1.5-1.3c-.8-.9-2.1-1-2.8-1-.4 0-.7-.1-.8-.1h-.1l-1.9.7zm9.4-4.6c.1-.2.2-.2 0 0-.2 0-.5.2-1 .3-.9.2-2.1.3-3.4.5-1.2.2-2.5.4-3.5.8-.5.2-1 .5-1.4 1-.4.5-.5 1.2-.4 1.8l2-.4v-.3c.1-.1.2-.2.5-.4.7-.3 1.7-.5 3-.6 1.2-.1 2.5-.3 3.5-.5.5-.1 1.1-.3 1.5-.5.4-.3.9-.7 1-1.4l-1.8-.3zm-3.3-4.7c.3.1.7.4 1.1.8.4.4.8.9 1.2 1.5.4.6.7 1.1.9 1.6.1.2.2.4.2.6V171l2 .2c.1-.6-.1-1.2-.4-1.8-.3-.6-.6-1.3-1-1.9-.4-.6-.9-1.3-1.5-1.8-.5-.5-1.1-1-1.8-1.3l-.7 1.8zm-9 0c.4-.2 1-.3 1.9-.4.8-.1 1.7-.2 2.7-.2 1.9 0 3.6.2 4.4.5l.7-1.9c-1.1-.4-3.2-.6-5.1-.6-1 0-2 .1-2.9.2-.9.1-1.8.3-2.4.6l.7 1.8zm-7.4 2.1.4.9s.1 0 .2-.1.3-.1.6-.2c.5-.2 1.2-.5 1.9-.8 1.5-.6 3.2-1.4 4.3-1.8l-.8-1.8c-1.1.5-2.8 1.2-4.3 1.8-.7.3-1.4.6-1.9.8-.2.1-.4.2-.6.2-.1 0-.1.1-.2.1.1 0 .1 0 .4.9zm-13.9-5 13.6 5.9.8-1.8-13.6-5.9-.8 1.8zm.3-.9h-1v.2l1-.2zm1.6 13.5-1 .1.1.8.8.1.1-1zm11.6 1.2.8-.7-.3-.3h-.4l-.1 1zm15.5-.6.8-.5v-.1l-.1-.1-.7.7zm-3.9-1.5-1 .2v.1l.1.1.9-.4zm9.5-4 1 .1-1-.1zm-13.7-5.7.4.9-.4-.9zm-7 3-.4.9.4.2.4-.2-.4-.9zm-13.6-5.9.4-.9-1.4-.6v1.5h1z"/></g><path style="clip-path:url(#SVGID_00000065774238341806255520000013611654355220349355_);fill-rule:evenodd;clip-rule:evenodd;fill:#94b73d" d="M201.2 192.9c20 3.2 40 3.5 60.1-2.5-1.4-14.7.6-50.3-13.1-58.1-2.8-1.8-5.5-3.4-5.5-3.4l-19.5-2s-11.6 7.5-15 9.7c-7.1 16.9-5.9 30.9-7 56.3z"/><g style="clip-path:url(#SVGID_00000065774238341806255520000013611654355220349355_)"><defs><path id="SVGID_00000072977773351928202110000018196232109382106289_" d="M0 0h470v250H0z"/></defs><clipPath id="SVGID_00000139979083968294893750000007149870353590197934_"><use xlink:href="#SVGID_00000072977773351928202110000018196232109382106289_" style="overflow:visible"/></clipPath><path style="clip-path:url(#SVGID_00000139979083968294893750000007149870353590197934_);fill-rule:evenodd;clip-rule:evenodd;fill:#94b73d" d="M221.2 145.5s-1.9 7.9-3.2 9.7c-1.3 1.8-4.3 6.5-4.3 6.5s6.6 12.2 6.5 15.5c-.1 3.3-10.6 7.2-10.6 7.2l-9.8-4.3V164l21.4-18.5zM243.9 145.1c-11.6 9.5-4.1 29.4 10 32.1 4.1.9 11.2 0 13.6-3.7"/></g><path style="clip-path:url(#SVGID_00000065774238341806255520000013611654355220349355_);fill-rule:evenodd;clip-rule:evenodd;fill:#94b73d" d="M219.6 129.2c5.8 4.7 20.9 14.2 26.7 2-.5-2.4-2.7-4.4-3.6-3.7l-19.5-2.5c-1.9 1-3.1 2.4-3.6 4.2z"/><path style="clip-path:url(#SVGID_00000065774238341806255520000013611654355220349355_);fill-rule:evenodd;clip-rule:evenodd;fill:#fff" d="M223.2 126.9c10.4 7.2 16.7 8.3 19.5 2v-11l-19.5-3.6v12.6z"/><g style="clip-path:url(#SVGID_00000065774238341806255520000013611654355220349355_)"><defs><path id="SVGID_00000177482268723081305640000014029160011573237385_" d="M223.2 126.9c10.4 7.2 16.7 8.3 19.5 2v-11l-19.5-3.6v12.6z"/></defs><clipPath id="SVGID_00000156553884973643801430000011894254954170214540_"><use xlink:href="#SVGID_00000177482268723081305640000014029160011573237385_" style="overflow:visible"/></clipPath><path style="clip-path:url(#SVGID_00000156553884973643801430000011894254954170214540_);fill:#20380e" d="M224.7 126.9h-3 3zm-3-12.6v12.6h3v-12.6h-3zm21.2 2.1-19.5-3.6-.5 3 19.5 3.6.5-3zm1.3 12.5v-11h-3v11h3zm-21.9-.8c5.2 3.6 9.6 5.9 13.3 6.3 1.9.2 3.6 0 5.1-.9 1.5-.9 2.6-2.3 3.4-4l-2.7-1.2c-.6 1.4-1.4 2.2-2.2 2.7-.8.5-1.8.7-3.2.5-2.8-.3-6.7-2.2-11.9-5.8l-1.8 2.4zm.9-13.8.3-1.5-1.8-.3v1.8h1.5zm19.5 3.6h1.5v-1.3l-1.2-.2-.3 1.5zm0 11 1.4.6.1-.3v-.3h-1.5zm-19.5-2 .9-1.2-2.4-1.6v2.9h1.5z"/></g><path style="clip-path:url(#SVGID_00000065774238341806255520000013611654355220349355_);fill-rule:evenodd;clip-rule:evenodd;fill:#fff" d="M208.1 136.8c-20.5 25.4-18.4 23.1.6 46-.6 2.1-2.5 11.9.9 14.2 1.3.9 9.9-4 10.3-5.8.4-1.8 1.4-7.8 3-8.3 1.5-.5 2 2.5 3.4 2.2 8-1.8-1-9-7.1-9.4-2.2-3.7-9.3-14.9-9.3-14.9l11.3-15.4c.8-6.8-7-11.2-13.1-8.6z"/><g style="clip-path:url(#SVGID_00000065774238341806255520000013611654355220349355_)"><defs><path id="SVGID_00000182507889564142719230000002230416516594682507_" d="M208.1 136.8c-20.5 25.4-18.4 23.1.6 46-.6 2.1-2.5 11.9.9 14.2 1.3.9 9.9-4 10.3-5.8.4-1.8 1.4-7.8 3-8.3 1.5-.5 2 2.5 3.4 2.2 8-1.8-1-9-7.1-9.4-2.2-3.7-9.3-14.9-9.3-14.9l11.3-15.4c.8-6.8-7-11.2-13.1-8.6z"/></defs><clipPath id="SVGID_00000093863032633571603220000017682477070255314081_"><use xlink:href="#SVGID_00000182507889564142719230000002230416516594682507_" style="overflow:visible"/></clipPath><path style="clip-path:url(#SVGID_00000093863032633571603220000017682477070255314081_);fill:#20380e" d="M208.8 136.8h-1.5 1.5zm13.2 8.8c.5-3.8-1.5-6.9-4.3-8.7-2.8-1.7-6.6-2.2-9.9-.8l.6 1.4c2.8-1.2 6.1-.8 8.5.7 2.4 1.5 4 4.1 3.6 7.2l1.5.2zm-11.5 15.8 11.3-15.4-1.2-.9-11.3 15.4 1.2.9zm9.3 14.1c-1.1-1.8-3.5-5.6-5.5-8.8-1-1.6-2-3.2-2.7-4.3-.4-.6-.6-1-.8-1.3-.1-.2-.2-.3-.2-.4 0 0 0-.1-.1-.1l-.6.4-.6.4s0 .1.1.1c.1.1.1.2.2.4.2.3.5.8.8 1.3.7 1.1 1.7 2.6 2.7 4.3 2.1 3.3 4.4 7 5.5 8.8l1.2-.8zm6.7 10.4c2.1-.5 3.4-1.3 3.7-2.7.3-1.3-.5-2.6-1.6-3.7s-2.6-2.2-4.2-2.9c-1.6-.8-3.4-1.3-5.1-1.4l-.1 1.5c1.4.1 3 .6 4.5 1.3 1.5.7 2.9 1.7 3.8 2.6 1 1 1.3 1.8 1.2 2.4-.1.5-.6 1.1-2.6 1.6l.4 1.3zm-3.4-2.2c.1 0 .2 0 .3.1.2.1.4.4.6.7.2.3.5.7.9 1 .4.3.9.6 1.5.5l-.2-1.5s-.1 0-.3-.1c-.2-.2-.4-.4-.6-.8-.2-.3-.5-.7-.9-1-.4-.3-1-.5-1.6-.3l.3 1.4zm-2.4 7.7c.2-.9.5-2.8 1-4.6.2-.9.5-1.7.8-2.3.1-.3.3-.5.4-.7.1-.2.2-.2.2-.2l-.4-1.4c-.4.1-.7.4-.9.7-.2.3-.4.6-.6 1-.4.7-.7 1.6-.9 2.5-.5 1.8-.9 3.8-1 4.7l1.4.3zm-11.5 6.3c.4.3 1 .3 1.3.2.4-.1.9-.2 1.5-.4 1.1-.4 2.3-1 3.5-1.7 1.2-.7 2.4-1.5 3.3-2.2.5-.4.9-.7 1.2-1.1.3-.3.6-.7.7-1.2l-1.5-.3-.1.1c-.1.1-.1.2-.3.3-.2.3-.6.6-1 .9-.8.7-2 1.4-3.1 2.1-1.2.7-2.3 1.2-3.3 1.6-.5.2-.9.3-1.1.3h-.3l-.8 1.4zm-1.2-15.1c-.3 1.1-1 4.1-1.1 7.2-.1 1.5 0 3.1.3 4.5s.9 2.6 2 3.4l.8-1.2c-.6-.4-1.1-1.2-1.4-2.4-.3-1.2-.3-2.6-.3-4.1.1-2.9.7-5.9 1-6.8l-1.3-.6zm-.5-46.3c-5.1 6.3-8.9 11-11.3 14.8-2.4 3.8-3.6 6.7-3.4 9.7.2 3 1.7 5.8 4.3 9.2 2.6 3.4 6.3 7.6 11 13.3l1.2-1c-4.8-5.8-8.5-9.9-11-13.3-2.5-3.4-3.8-5.9-4-8.4-.2-2.5.8-5.1 3.2-8.8 2.4-3.7 6-8.3 11.2-14.6l-1.2-.9zm.6.5h-.8v1.1l1-.4-.2-.7zm13.1 8.7.6.4.1-.2v-.2h-.7zm-11.3 15.4-.6-.4-.3.4.3.4.6-.4zm9.3 15-.6.4.2.3h.4v-.7zm7.1 9.3.1.7-.1-.7zM209.6 197l.4-.6-.4.6zm-.9-14.2.7.2.1-.4-.3-.3-.5.5zm-.6-46h.8v-2.1l-1.3 1.7.5.4z"/></g><g style="clip-path:url(#SVGID_00000065774238341806255520000013611654355220349355_)"><defs><path id="SVGID_00000003102435021478232310000014919049183910598569_" d="M0 0h470v250H0z"/></defs><clipPath id="SVGID_00000105401114298682601680000006360306546675870639_"><use xlink:href="#SVGID_00000003102435021478232310000014919049183910598569_" style="overflow:visible"/></clipPath><path style="clip-path:url(#SVGID_00000105401114298682601680000006360306546675870639_);fill-rule:evenodd;clip-rule:evenodd;fill:#94b73d" d="m198.2 149.7 16.3 7.2 12.2-13.6-11.9-9.5-7.5.3z"/><g style="clip-path:url(#SVGID_00000105401114298682601680000006360306546675870639_)"><defs><path id="SVGID_00000079479291329911038030000006489769583205315995_" d="m198.2 149.7 16.3 7.2 12.2-13.6-11.9-9.5-7.5.3z"/></defs><clipPath id="SVGID_00000019664603602717925350000006986900278143863196_"><use xlink:href="#SVGID_00000079479291329911038030000006489769583205315995_" style="overflow:visible"/></clipPath><path style="clip-path:url(#SVGID_00000019664603602717925350000006986900278143863196_);fill:#20380e" d="m206.6 133.8-9.1 15.5 1.3.8 9.1-15.5-1.3-.8zm8.2-.8-7.6.4.1 1.5 7.6-.4-.1-1.5zm12.3 9.7-11.8-9.5-.9 1.2 11.8 9.5.9-1.2zM215 157.4l12.2-13.6-1.1-1-12.2 13.6 1.1 1zm-17.1-7 16.3 7.2.6-1.4-16.3-7.2-.6 1.4zm9.4-16.3v-.7h-.4l-.2.4.6.3zm7.5-.3.5-.6-.2-.2h-.3v.8zm11.9 9.5.6.5.5-.6-.6-.5-.5.6zm-12.2 13.6-.3.7.5.2.4-.4-.6-.5zm-16.3-7.2-.6-.4-.4.7.8.3.2-.6z"/></g></g><path style="clip-path:url(#SVGID_00000065774238341806255520000013611654355220349355_);fill-rule:evenodd;clip-rule:evenodd;fill:#fff" d="M240.4 214c-2.1-6-1.6-11.5 2-16.6 3.9-1.1 25.9-11.6 28.4-.8.2 5.3-3.2 31.6-3.2 31.6-3.8 11-10.7 11.7-17 2.1l.4-16.2-10.6-.1z"/><g style="clip-path:url(#SVGID_00000065774238341806255520000013611654355220349355_)"><defs><path id="SVGID_00000119090548088203429850000012250111063587907485_" d="M240.4 214c-2.1-6-1.6-11.5 2-16.6 3.9-1.1 25.9-11.6 28.4-.8.2 5.3-3.2 31.6-3.2 31.6-3.8 11-10.7 11.7-17 2.1l.4-16.2-10.6-.1z"/></defs><clipPath id="SVGID_00000058578049475709224430000001725307040298986378_"><use xlink:href="#SVGID_00000119090548088203429850000012250111063587907485_" style="overflow:visible"/></clipPath><path style="clip-path:url(#SVGID_00000058578049475709224430000001725307040298986378_);fill:#20380e" d="M241.4 214h-2 2zm9.6-.9-10.5-.1v2l10.5.1v-2zm.6 17.3.4-16.2h-2l-.4 16.2h2zm15.1-2.5c-1.9 5.4-4.4 7.8-6.7 8.1-2.4.3-5.4-1.5-8.5-6.2l-1.7 1.1c3.2 4.9 6.8 7.5 10.4 7.1 3.6-.4 6.5-3.9 8.4-9.4l-1.9-.7zm3.1-31.3c.1 1.3-.1 3.8-.4 7.1-.3 3.2-.7 7-1.1 10.6-.4 3.6-.8 7.1-1.2 9.6-.2 1.3-.3 2.3-.4 3 0 .4-.1.6-.1.8V228l1 .1 1 .1V227.9c0-.2.1-.5.1-.8.1-.7.2-1.8.4-3.1.3-2.6.7-6 1.2-9.6.4-3.6.8-7.4 1.1-10.6.3-3.2.5-5.9.4-7.3l-2 .1zm-27.1 1.8c.5-.1 1.4-.5 2.3-.8 1-.4 2.2-.8 3.5-1.3 2.6-1 5.8-2 8.9-2.7 3.1-.7 6-1 8.3-.5 1.1.2 2 .6 2.7 1.2.7.6 1.2 1.4 1.5 2.6l1.9-.5c-.4-1.5-1.1-2.7-2.1-3.6-1-.9-2.3-1.4-3.6-1.7-2.7-.6-6-.2-9.1.5-3.2.7-6.4 1.8-9.1 2.8-1.3.5-2.5 1-3.5 1.3-1 .4-1.7.6-2.2.8l.5 1.9zm-1.3 15.3c-2-5.7-1.5-10.9 1.9-15.7l-1.6-1.2c-3.8 5.3-4.3 11.2-2.1 17.5l1.8-.6zm-1 .3h-1v1h1v-1zm10.6.1h1v-1h-1v1zm-.4 16.2h-1v.3l.2.3.8-.6zm17-2.1.9.3v-.2l-.9-.1zm3.2-31.6h1v-.2l-1 .2zm-28.4.8-.3-1-.3.1-.2.3.8.6zm-2 16.6h1v-.2l-.1-.2-.9.4z"/></g><path style="clip-path:url(#SVGID_00000065774238341806255520000013611654355220349355_);fill-rule:evenodd;clip-rule:evenodd;fill:#fff" d="M261.4 242.8c.2-.9-1.2-1.1-1.9-1.2-1.6-.3-1.3 1.5-1.6 2.5-.2.9 1.2 1.1 1.9 1.2 1.5.2 1.3-1.5 1.6-2.5zm-8.5-1.6c.2-.9-1.2-1.1-1.9-1.2-1.5-.3-1.3 1.5-1.6 2.5-.2.9 1.2 1.1 1.9 1.2 1.6.2 1.3-1.5 1.6-2.5zm16.9 3.2c.2-.9-1.2-1.1-1.9-1.2-1.6-.3-1.3 1.5-1.6 2.5-.2.9 1.2 1.1 1.9 1.2 1.6.2 1.3-1.5 1.6-2.5zm8.4 1.6c.2-.9-1.2-1.1-1.9-1.2-1.5-.3-1.3 1.5-1.6 2.5-.2.9 1.2 1.1 1.9 1.2 1.6.2 1.3-1.5 1.6-2.5z"/><g style="clip-path:url(#SVGID_00000065774238341806255520000013611654355220349355_)"><defs><path id="SVGID_00000098932961594199429900000013614729928435719587_" d="M261.4 242.8c.2-.9-1.2-1.1-1.9-1.2-1.6-.3-1.3 1.5-1.6 2.5-.2.9 1.2 1.1 1.9 1.2 1.5.2 1.3-1.5 1.6-2.5zm-8.5-1.6c.2-.9-1.2-1.1-1.9-1.2-1.5-.3-1.3 1.5-1.6 2.5-.2.9 1.2 1.1 1.9 1.2 1.6.2 1.3-1.5 1.6-2.5zm16.9 3.2c.2-.9-1.2-1.1-1.9-1.2-1.6-.3-1.3 1.5-1.6 2.5-.2.9 1.2 1.1 1.9 1.2 1.6.2 1.3-1.5 1.6-2.5zm8.4 1.6c.2-.9-1.2-1.1-1.9-1.2-1.5-.3-1.3 1.5-1.6 2.5-.2.9 1.2 1.1 1.9 1.2 1.6.2 1.3-1.5 1.6-2.5z"/></defs><clipPath id="SVGID_00000081618511986169932160000001259005687404763299_"><use xlink:href="#SVGID_00000098932961594199429900000013614729928435719587_" style="overflow:visible"/></clipPath><path style="clip-path:url(#SVGID_00000081618511986169932160000001259005687404763299_);fill:#20380e" d="M260.4 242.8h2-2zm-.8 3.4c.6.1 1.1 0 1.6-.3.4-.3.7-.8.8-1.1.1-.4.2-.7.2-1 0-.3.1-.5.1-.7l-1.9-.6c-.1.3-.1.7-.2 1 0 .3-.1.5-.1.7-.1.2-.1.2 0 .1s.1 0-.1 0l-.4 1.9zm-2.7-2.4c-.1.5 0 1 .3 1.3.3.3.6.5.9.7.6.2 1.2.3 1.5.4l.3-2c-.2 0-.4-.1-.6-.1-.2 0-.3-.1-.5-.1-.1-.1-.1-.1-.1 0 0 0 0 .1.1.1v.1l-1.9-.4zm2.7-3.2c-.6-.1-1.1 0-1.6.3-.4.3-.7.8-.8 1.1-.1.4-.2.7-.2 1 0 .3-.1.5-.1.7l1.9.6c.1-.3.1-.7.2-1 0-.3.1-.5.1-.7.1-.2.1-.2 0-.1s-.1 0 .1 0l.4-1.9zm2.8 2.4c.1-.5 0-1-.3-1.3-.3-.3-.6-.5-.9-.7-.6-.2-1.2-.3-1.5-.4l-.3 2c.2 0 .4.1.6.1.2 0 .3.1.5.1.1.1.1.1.1 0 0 0 0-.1-.1-.1v-.1l1.9.4zm-10.5-1.8h2-2zm-.7 3.4c.6.1 1.1 0 1.6-.3.4-.3.7-.8.8-1.1.1-.4.2-.7.2-1 0-.3.1-.5.1-.7l-1.9-.6c-.1.3-.1.7-.2 1 0 .3-.1.5-.1.7-.1.2-.1.2 0 .1s.1 0-.1 0l-.4 1.9zm-2.7-2.4c-.1.5 0 1 .3 1.3.3.3.6.5.9.7.6.2 1.2.3 1.5.4l.3-2c-.2 0-.4-.1-.6-.1-.2 0-.3-.1-.5-.1-.1-.1-.1-.1-.1 0 0 0 0 .1.1.1v.1l-1.9-.4zm2.7-3.2c-.6-.1-1.1 0-1.6.3-.4.3-.7.8-.8 1.1-.1.4-.2.7-.2 1 0 .3-.1.5-.1.7l1.9.6c.1-.3.1-.7.2-1 0-.3.1-.5.1-.7.1-.2.1-.2 0-.1s-.1 0 .1 0l.4-1.9zm2.7 2.4c.1-.5 0-1-.3-1.3-.3-.3-.6-.5-.9-.7-.6-.2-1.2-.3-1.5-.4l-.3 2c.2 0 .4.1.6.1.2 0 .3.1.5.1.1.1.1.1.1 0 0 0 0-.1-.1-.1v-.1l1.9.4zm14.9 3h2-2zm-.7 3.4c.6.1 1.1 0 1.6-.3.4-.3.7-.8.8-1.1.1-.4.2-.7.2-1 0-.3.1-.5.1-.7l-1.9-.6c-.1.3-.1.7-.2 1 0 .3-.1.5-.1.7-.1.2-.1.2 0 .1s.1 0-.1 0l-.4 1.9zm-2.8-2.3c-.1.5 0 1 .3 1.3.3.3.6.5.9.7.6.2 1.2.3 1.5.4l.3-2c-.2 0-.4-.1-.6-.1-.2 0-.3-.1-.5-.1-.1-.1-.1-.1-.1 0 0 0 0 .1.1.1v.1l-1.9-.4zm2.8-3.3c-.6-.1-1.1 0-1.6.3-.4.3-.7.8-.8 1.1-.1.4-.2.7-.2 1 0 .3-.1.5-.1.7l1.9.6c.1-.3.1-.7.2-1 0-.3.1-.5.1-.7.1-.2.1-.2 0-.1s-.1 0 .1 0l.4-1.9zm2.7 2.4c.1-.5 0-1-.3-1.3-.3-.3-.6-.5-.9-.7-.6-.2-1.2-.3-1.5-.4l-.3 2c.2 0 .4.1.6.1.2 0 .3.1.5.1.1.1.1.1.1 0 0 0 0-.1-.1-.1v-.1l1.9.4zm6.4 1.4h2-2zm-.7 3.4c.6.1 1.1 0 1.6-.3.4-.3.7-.8.8-1.1.1-.4.2-.7.2-1 0-.3.1-.5.1-.7l-1.9-.6c-.1.3-.1.7-.2 1 0 .3-.1.5-.1.7-.1.2-.1.2 0 .1s.1 0-.1 0l-.4 1.9zm-2.7-2.3c-.1.5 0 1 .3 1.3.3.3.6.5.9.7.6.2 1.2.3 1.5.4l.3-2c-.2 0-.4-.1-.6-.1-.2 0-.3-.1-.5-.1-.1-.1-.1-.1-.1 0 0 0 0 .1.1.1v.1l-1.9-.4zm2.7-3.3c-.6-.1-1.1 0-1.6.3-.4.3-.7.8-.8 1.1-.1.4-.2.7-.2 1 0 .3-.1.5-.1.7l1.9.6c.1-.3.1-.7.2-1 0-.3.1-.5.1-.7.1-.2.1-.2 0-.1s-.1 0 .1 0l.4-1.9zm2.7 2.4c.1-.5 0-1-.3-1.3-.3-.3-.6-.5-.9-.7-.6-.2-1.2-.3-1.5-.4l-.3 2c.2 0 .4.1.6.1.2 0 .3.1.5.1.1.1.1.1.1 0 0 0 0-.1-.1-.1v-.1l1.9.4zm-17.8-3.4h1l-2-.3 1 .3zm-1.6 2.5.2-1-.2 1zm-1.9-1.3-1-.3v.2l1 .1zm1.6-2.4-.2 1 .2-1zm1.9 1.2h-1l2 .2-1-.2zm-8.5-1.6h1l-2-.3 1 .3zm-1.5 2.5.2-1-.2 1zm-1.9-1.3-1-.3v.2l1 .1zm1.5-2.4-.2 1 .2-1zm1.9 1.2h-1l2 .2-1-.2zm16.9 3.2h1l-2-.3 1 .3zm-1.6 2.5.2-1-.2 1zm-1.9-1.3-1-.3v.2l1 .1zm1.6-2.4-.2 1 .2-1zm1.9 1.2h-1l2 .2-1-.2zm8.4 1.6h1l-2-.3 1 .3zm-1.5 2.5.2-1-.2 1zm-1.9-1.3-1-.3v.2l1 .1zm1.5-2.4-.2 1 .2-1zm1.9 1.2h-1l2 .2-1-.2z"/></g><path style="clip-path:url(#SVGID_00000065774238341806255520000013611654355220349355_);fill-rule:evenodd;clip-rule:evenodd;fill:#fff" d="M250.6 230.3c5.2.8 11.7 2.4 17-2.1 0 0 10.2 8.8 13.2 11.4 1.5 1.4.2 3.7.2 5.6-.1.9-1 1.6-1.9 1.4-5.6-1.1-23.2-4.4-29-5.5-1-.2-1.7-1.3-1.5-2.3.7-3 2-8.5 2-8.5z"/><g style="clip-path:url(#SVGID_00000065774238341806255520000013611654355220349355_)"><defs><path id="SVGID_00000001651114199014732350000012867714042813497780_" d="M250.6 230.3c5.2.8 11.7 2.4 17-2.1 0 0 10.2 8.8 13.2 11.4 1.5 1.4.2 3.7.2 5.6-.1.9-1 1.6-1.9 1.4-5.6-1.1-23.2-4.4-29-5.5-1-.2-1.7-1.3-1.5-2.3.7-3 2-8.5 2-8.5z"/></defs><clipPath id="SVGID_00000127029023746978715540000003362858171689182377_"><use xlink:href="#SVGID_00000001651114199014732350000012867714042813497780_" style="overflow:visible"/></clipPath><path style="clip-path:url(#SVGID_00000127029023746978715540000003362858171689182377_);fill:#20380e" d="M249.5 239.1c.4-1.5.9-3.6 1.3-5.4.2-.9.4-1.7.5-2.2.1-.3.1-.5.2-.7v-.2l-1-.2-1-.2v.2c0 .2-.1.4-.2.7-.1.6-.3 1.3-.5 2.2-.4 1.7-.9 3.9-1.3 5.4l2 .4zm.7 1c-.5-.1-.8-.6-.7-1.1l-1.9-.5c-.4 1.6.7 3.3 2.3 3.5l.3-1.9zm29.1 5.6c-5.6-1.1-23.2-4.4-29-5.5l-.4 2c5.9 1.1 23.5 4.5 29 5.5l.4-2zm.7-.6c0 .3-.4.6-.7.5l-.4 2c1.5.3 3-.8 3.1-2.3l-2-.2zm.2-4.8c.4.4.5.9.3 1.8-.1.5-.2.9-.3 1.4-.1.5-.2 1.1-.2 1.7h2c0-.4.1-.8.2-1.3s.2-1 .3-1.6c.2-1.1.2-2.4-.9-3.5l-1.4 1.5zm-12.6-12.1-.6.8.1.1.3.3c.3.2.7.6 1.2 1 1 .9 2.4 2.1 3.8 3.3 2.9 2.5 6.2 5.4 7.7 6.7l1.3-1.5c-1.5-1.3-4.8-4.2-7.7-6.7-1.5-1.3-2.8-2.5-3.8-3.3-.5-.4-.9-.8-1.2-1-.1-.1-.3-.2-.3-.3l-.1-.1c0-.1 0-.1-.7.7zm-17.2 3.1c5.1.8 12.1 2.6 17.8-2.4l-1.3-1.5c-4.9 4.2-10.8 2.7-16.2 1.9l-.3 2zm-1.8 7.5 1 .3-1-.3zm1.4 2.3.2-1-.2 1zm29.1 5.5.2-1-.2 1zm1.9-1.4 1 .1v-.2l-1 .1zm-.1-5.6.7-.7-.7.7zm-13.3-11.4.7-.8-.7-.6-.7.6.7.8zm-17 2.1.2-1-.9-.1-.2.9.9.2z"/></g><path style="clip-path:url(#SVGID_00000065774238341806255520000013611654355220349355_);fill-rule:evenodd;clip-rule:evenodd;fill:#fff" d="M270.8 137.1c20.5 15.3-1.6 46.3-22.7 31.7-20.5-15.3 1.7-46.3 22.7-31.7z"/><g style="clip-path:url(#SVGID_00000065774238341806255520000013611654355220349355_)"><path class="st17" d="m243.4 164 1.6-6.2-5-4.2c0 3.6 1 7.2 3.4 10.4zM249.2 136.5c-3 2-5.4 4.8-7 8l5.5-2.6 1.5-5.4zM277.7 151.7l-4.7 6 .4 7 1.2.1c2.8-3.5 4.4-8 4.5-12.5l-1.4-.6zM263.7 154.3l-3.2-8-8.6.6-2.2 8.4 7.3 4.6zM274.9 141c-1.1-1.4-2.5-2.7-4.1-3.9-2.7-1.9-5.4-3-8-3.5l-1.8 1.5 3.5 6 9.6 2.3.8-2.4zM267.7 170.5l-8.8-2.6-5.1 3.7c5 1.6 9.8 1 13.9-1.1z"/></g><path style="clip-path:url(#SVGID_00000065774238341806255520000013611654355220349355_);fill-rule:evenodd;clip-rule:evenodd;fill:#20380e" d="M203.7 92.6c-7.9-10.9-7.8-22.9 1.4-28.2 1.2-21.3 25.2-16 37.8-29 3.1 2.3 4.4 5.4 3.7 9.6 4.3-2.3 8-4.8 10.8-7.7 3.5 2.7 4.5 6.4 3.5 10.8 3.2-.2 6.2-.9 8.9-2.4 3.2 8 3.2 15.9-2.1 23.9 5.2 7.3 3.2 15.3-1 23.4l-38.8 11.3-24.2-11.7z"/><path style="clip-path:url(#SVGID_00000065774238341806255520000013611654355220349355_);fill-rule:evenodd;clip-rule:evenodd;fill:#fff" d="M273.7 97.1c.5-4.2-2.1-6.8-4.1-7.4-8.9-2.7-11.2 9.6-10.1 14.8 2.4 4.2 9 4.9 11.9.6 1.3-1.8 2.1-6.1 2.3-8z"/><g style="clip-path:url(#SVGID_00000065774238341806255520000013611654355220349355_)"><defs><path id="SVGID_00000166636611291894932820000007033646201811211184_" d="M273.7 97.1c.5-4.2-2.1-6.8-4.1-7.4-8.9-2.7-11.2 9.6-10.1 14.8 2.4 4.2 9 4.9 11.9.6 1.3-1.8 2.1-6.1 2.3-8z"/></defs><clipPath id="SVGID_00000124133620611145507410000011208033804010391186_"><use xlink:href="#SVGID_00000166636611291894932820000007033646201811211184_" style="overflow:visible"/></clipPath><path style="clip-path:url(#SVGID_00000124133620611145507410000011208033804010391186_);fill:#20380e" d="M272.6 106c.8-1.2 1.4-3 1.8-4.5.4-1.6.7-3.2.8-4.2l-3-.3c-.1.8-.3 2.3-.7 3.8-.4 1.5-.9 2.8-1.3 3.5l2.4 1.7zm-14.4-.7c1.5 2.6 4.2 4.1 7 4.3 2.8.2 5.7-.9 7.5-3.5l-2.5-1.7c-1.1 1.6-2.9 2.3-4.8 2.2-1.9-.1-3.7-1.1-4.6-2.7l-2.6 1.4zm11.8-17c-2.6-.8-4.8-.5-6.7.6-1.8 1.1-3.1 2.8-3.9 4.7-1.7 3.7-2 8.4-1.4 11.3l2.9-.6c-.5-2.3-.2-6.3 1.2-9.4.7-1.5 1.6-2.7 2.7-3.3 1-.6 2.4-.9 4.3-.3l.9-3zm5.2 9c.6-5-2.5-8.2-5.2-9l-.8 2.9c1.3.4 3.4 2.3 3 5.8l3 .3zm-3.8 7.9-1.2-.9 1.2.9zm-11.9-.7-1.5.3v.2l.1.2 1.4-.7zm10.1-14.7-.4 1.4.4-1.4zm4.1 7.3-1.5-.2 1.5.2z"/></g><path style="clip-path:url(#SVGID_00000065774238341806255520000013611654355220349355_);fill-rule:evenodd;clip-rule:evenodd;fill:#fff" d="M238.4 57.3c-12 0-26 4.9-31.4 15.7-2.2 4-2.1 9-2.1 13.5-.4 12.2.1 28 13.4 33.7 10.5 5 29.1 10.4 39.8.5 9.4-7.4 6.1-13.9 5.2-24 .7-8.1 3.7-17.2 1.1-25.1-4.5-9.5-15.3-13.4-26-14.3z"/><g style="clip-path:url(#SVGID_00000065774238341806255520000013611654355220349355_)"><defs><path id="SVGID_00000064353206988067520580000017156668961954965919_" d="M238.4 57.3c-12 0-26 4.9-31.4 15.7-2.2 4-2.1 9-2.1 13.5-.4 12.2.1 28 13.4 33.7 10.5 5 29.1 10.4 39.8.5 9.4-7.4 6.1-13.9 5.2-24 .7-8.1 3.7-17.2 1.1-25.1-4.5-9.5-15.3-13.4-26-14.3z"/></defs><clipPath id="SVGID_00000132062473960760766140000012418334982395674511_"><use xlink:href="#SVGID_00000064353206988067520580000017156668961954965919_" style="overflow:visible"/></clipPath><path style="clip-path:url(#SVGID_00000132062473960760766140000012418334982395674511_);fill:#20380e" d="m237.3 58.4 2.1-2.1-2.1 2.1zM265.7 71c-4.7-10.3-16.3-14.3-27.2-15.2l-.2 3c10.6.8 20.7 4.7 24.7 13.4l2.7-1.2zm-1 25.9c.2-2 .5-4 .8-6.1.3-2.1.7-4.3 1-6.5.5-4.4.6-8.9-.8-13.1l-2.9.9c1.2 3.6 1.1 7.6.6 11.8-.3 2.1-.6 4.2-1 6.3-.3 2.1-.7 4.2-.9 6.3l3.2.4zm-5.8 25c5-3.9 6.7-7.8 7-12.1.1-2.1-.1-4.2-.4-6.3-.3-2.2-.7-4.4-.9-6.9l-3 .3c.2 2.6.6 4.9.9 7 .3 2.1.5 4 .4 5.8-.2 3.4-1.5 6.5-5.9 9.9l1.9 2.3zm-41.3-.3c5.3 2.6 12.8 5.2 20.3 6 7.5.8 15.4-.4 21.1-5.8l-2-2.2c-4.9 4.5-11.7 5.7-18.8 5-7.1-.7-14.2-3.2-19.3-5.7l-1.3 2.7zm-14.3-35.1c-.2 6.1-.2 13.3 1.6 19.8s5.5 12.3 12.7 15.4l1.2-2.8c-6.1-2.6-9.3-7.5-11-13.4-1.7-5.9-1.7-12.7-1.5-18.8l-3-.2zm2.3-14.2c-2.4 4.4-2.3 9.8-2.3 14.2h3c0-4.7 0-9.2 1.9-12.8l-2.6-1.4zm32.8-16.5c-12.3 0-26.9 5-32.8 16.6l2.7 1.3c5.1-10.1 18.3-14.9 30.1-14.9v-3zm0 1.5.1-1.5-4.1-.3 2.9 2.9 1.1-1.1zm25.9 14.3 1.4-.5v-.2l-1.4.7zm-1.1 25.1-1.5-.1v.2l1.5-.1zm-5.2 24-.9-1.2.9 1.2zm-39.8-.4.6-1.4-.6 1.4zm-13.4-33.7 1.5.1h-1.5zm2.1-13.6 1.3.7-1.3-.7zm31.5-15.7v1.5h3.6l-2.6-2.6-1 1.1z"/></g><path style="clip-path:url(#SVGID_00000065774238341806255520000013611654355220349355_);fill-rule:evenodd;clip-rule:evenodd;fill:#20380e" d="M204.8 96c6.6-5.4 10.1-13.4 10.1-24.4 8.1-.3 15-2.5 20.2-7.1 5.7 3.2 11.1 3.4 16 .2 3.1 4.2 7.1 7.2 12.6 8.4L260 60.3c-27.5-5.4-20.2-7.7-47.4 1.8l-7.8 11V96z"/><path style="clip-path:url(#SVGID_00000065774238341806255520000013611654355220349355_);fill-rule:evenodd;clip-rule:evenodd;fill:#fff" d="M193.6 97.1c-.5-4.2 2.2-6.8 4.2-7.4 8.5-2.7 11.5 8.9 10.3 14.8-2.5 4.3-9.2 4.8-12.1.6-1.4-1.8-2.2-6.1-2.4-8z"/><g style="clip-path:url(#SVGID_00000065774238341806255520000013611654355220349355_)"><defs><path id="SVGID_00000098931867740074536680000003819239946146245259_" d="M193.6 97.1c-.5-4.2 2.2-6.8 4.2-7.4 8.5-2.7 11.5 8.9 10.3 14.8-2.5 4.3-9.2 4.8-12.1.6-1.4-1.8-2.2-6.1-2.4-8z"/></defs><clipPath id="SVGID_00000005969286715940839460000007653934090736263853_"><use xlink:href="#SVGID_00000098931867740074536680000003819239946146245259_" style="overflow:visible"/></clipPath><path style="clip-path:url(#SVGID_00000005969286715940839460000007653934090736263853_);fill:#20380e" d="M197.1 104.3c-.5-.7-1-2-1.4-3.5-.4-1.5-.6-3-.7-3.8l-3 .3c.1 1 .4 2.6.8 4.2s1 3.4 1.8 4.5l2.5-1.7zm9.6-.5c-.9 1.6-2.8 2.6-4.7 2.8-1.9.1-3.8-.6-4.9-2.2l-2.5 1.7c1.8 2.6 4.8 3.7 7.6 3.5 2.8-.2 5.6-1.6 7.1-4.2l-2.6-1.6zm-8.5-12.6c1.8-.6 3.1-.4 4.2.2 1.1.6 2.1 1.7 2.8 3.2 1.5 3 1.9 7 1.3 9.6l2.9.6c.7-3.3.2-8-1.6-11.6-.9-1.8-2.2-3.5-4-4.5-1.9-1-4.1-1.2-6.5-.4l.9 2.9zm-3.1 5.8c-.4-3.5 1.8-5.4 3.1-5.8l-.8-2.9c-2.7.8-5.8 4-5.3 9l3-.3zm.8 8.2 1.2-.8-1.2.8zm12.1-.7 1.3.7.1-.2v-.2l-1.4-.3zm-10.2-14.7.4 1.4-.4-1.4zm-4.2 7.3 1.5-.2-1.5.2z"/></g><path style="clip-path:url(#SVGID_00000065774238341806255520000013611654355220349355_);fill-rule:evenodd;clip-rule:evenodd;fill:#20380e" d="M254.4 94.3c3.4 0 3.4 6.7 0 6.7-3.4.1-3.4-6.7 0-6.7zM234.2 94.3c3.4 0 3.4 6.7 0 6.7-3.4.1-3.4-6.7 0-6.7z"/><path style="clip-path:url(#SVGID_00000065774238341806255520000013611654355220349355_);fill:#20380e" d="M249.4 91.7c1-1.2 2.6-2.5 4.4-2.9.9-.2 1.8-.1 2.7.2.9.4 1.9 1.2 2.9 2.6l1.8-1.3c-1.2-1.7-2.5-2.7-3.9-3.3-1.4-.6-2.8-.6-4-.4-2.5.5-4.5 2.2-5.7 3.6l1.8 1.5zm10-.1c.4.5 1.1.6 1.6.3.5-.4.6-1.1.3-1.6l-1.9 1.3zm-11.8-1.4c-.4.5-.3 1.2.2 1.6.5.4 1.2.3 1.6-.2l-1.8-1.4zM227.5 91.7c1-1.2 2.6-2.5 4.4-2.9.9-.2 1.8-.1 2.7.2.9.4 1.9 1.2 2.9 2.6l1.8-1.3c-1.2-1.7-2.5-2.7-3.9-3.3-1.4-.6-2.8-.6-4-.4-2.5.5-4.5 2.2-5.7 3.6l1.8 1.5zm10-.1c.4.5 1.1.6 1.6.3.5-.4.6-1.1.3-1.6l-1.9 1.3zm-11.7-1.4c-.4.5-.3 1.2.2 1.6.5.4 1.2.3 1.6-.2l-1.8-1.4z"/><path style="clip-path:url(#SVGID_00000065774238341806255520000013611654355220349355_);fill-rule:evenodd;clip-rule:evenodd;fill:#20380e" d="M225.7 109.8c.5 1.7 1.8 4.1 3.9 5.7 2.2 1.7 5.3 2.4 9.2.9l-.7-1.9c-3.3 1.2-5.6.6-7.3-.7-1.7-1.3-2.8-3.3-3.2-4.7l-1.9.7zm13.1 6.6c.5-.2.8-.8.6-1.3-.2-.5-.8-.8-1.3-.6l.7 1.9zm-11.2-7.2c-.2-.5-.7-.8-1.2-.7-.5.2-.8.7-.7 1.2l1.9-.5z"/><path style="clip-path:url(#SVGID_00000065774238341806255520000013611654355220349355_);fill:#20380e" d="M266.9 95.7c0 .7 0 1.7-.3 2.7-.3 1-.7 1.7-1.2 2l1.1 2c1.3-.7 2-2.2 2.3-3.4.3-1.3.4-2.6.3-3.4l-2.2.1zm-1.4 4.7c-.5.3-.8 1-.5 1.5.3.5 1 .8 1.5.5l-1-2zm3.7-4.8c0-.6-.6-1.1-1.2-1.1s-1.1.6-1.1 1.2l2.3-.1zM198.1 96c0 1.1.3 2.8 1.1 4.3s2.2 2.9 4.4 2.9V101c-1.1 0-1.9-.7-2.4-1.7-.6-1.1-.8-2.4-.8-3.3h-2.3zm5.5 7.2c.6 0 1.1-.5 1.1-1.1s-.5-1.1-1.1-1.1v2.2zm-3.3-7.2c0-.6-.5-1.1-1.2-1.1-.6 0-1.1.5-1.1 1.2l2.3-.1z"/><path style="clip-path:url(#SVGID_00000065774238341806255520000013611654355220349355_);fill:#4b702f" d="m209.9 119.7-4.2 6 .8.6 4.2-6-.8-.6zm-4.1 5.9c-.2.2-.1.5.1.7.2.2.5.1.7-.1l-.8-.6zm5-5.3c.2-.2.1-.5-.1-.7-.2-.2-.5-.1-.7.1l.8.6z"/></g></switch></svg>