<svg xmlns="http://www.w3.org/2000/svg" xmlns:xlink="http://www.w3.org/1999/xlink" xml:space="preserve" id="Layer_1" x="0" y="0" style="enable-background:new 0 0 220 220" version="1.1" viewBox="0 0 220 220"><style>.st0{clip-path:url(#SVGID_00000135648717348141001050000008819212799846075040_);fill:#f5f5f5}.st1{clip-path:url(#SVGID_00000028306313292304554310000003380444722244690107_);fill:#fff}.st2{clip-path:url(#SVGID_00000142857196200156175080000012344881410723680177_);fill:#20380e}.st3{clip-path:url(#SVGID_00000060710734614515022030000013007749395942426039_)}.st4{clip-path:url(#SVGID_00000057139802038499462650000009140719646825084822_);fill:#20380e}.st5{clip-path:url(#SVGID_00000128478706694673899010000016750836718665528223_);fill:#fff}.st6{clip-path:url(#SVGID_00000163791074024557144520000002352486768177796746_)}.st7{clip-path:url(#SVGID_00000172410103777959368640000013204759327016472195_);fill:#20380e}.st8{clip-path:url(#SVGID_00000043415456995698924890000005710232624532614307_);fill:#fff}.st9{clip-path:url(#SVGID_00000135691400517427625490000002667470628715390131_)}.st10,.st11,.st12{clip-path:url(#SVGID_00000066514676224618439850000005404754429673551268_);fill:#20380e}.st11,.st12{clip-path:url(#SVGID_00000101085344412768886420000013083177019203860917_)}.st12{clip-path:url(#SVGID_00000064319853511053735190000006766808809221633195_)}.st13,.st14{clip-path:url(#SVGID_00000063605146476609801360000011051384296354798984_);fill:#94b73d}.st14{clip-path:url(#SVGID_00000139276141461145474670000007830599239575005083_)}.st15{clip-path:url(#SVGID_00000092415420384427999070000015386462918653532087_);fill:#fff}.st16{clip-path:url(#SVGID_00000008838784979128442050000005744085556149460894_);fill:#152409}.st17{clip-path:url(#SVGID_00000115479497181489799750000017055447681981572514_);fill:#fff}.st18{clip-path:url(#SVGID_00000183954257548954922780000007842483521222598320_)}.st19,.st20,.st21{clip-path:url(#SVGID_00000165208026914014994030000004989173016004383135_);fill:#20380e}.st20,.st21{clip-path:url(#SVGID_00000160152482562779484850000004429614368307709358_)}.st21{clip-path:url(#SVGID_00000049210858143352937970000018025250397744643244_)}.st22{clip-path:url(#SVGID_00000111169503292732382990000013134614037118208954_);fill:#152409}.st23{clip-path:url(#SVGID_00000002384398548521781240000017030538690196026026_);fill:#fff}.st24{clip-path:url(#SVGID_00000093177280513163561990000013091872284275295116_)}.st25{clip-path:url(#SVGID_00000152256418854129368560000002453817968030708875_);fill:#20380e}.st26{clip-path:url(#SVGID_00000017483051210795488800000003058286759021493896_);fill:#fff}.st27{clip-path:url(#SVGID_00000129920719758541101880000005392198915610033559_)}.st28{clip-path:url(#SVGID_00000142858523414342586300000014693400018891881610_);fill:#20380e}.st29{clip-path:url(#SVGID_00000066517640355298677120000007238714671005934734_);fill:#2c4d13}.st30{clip-path:url(#SVGID_00000064353068511323779260000015999060292191284669_);fill:#20380e}.st31{clip-path:url(#SVGID_00000005959337966533216340000009805278206168922276_);fill:#fff}.st32{clip-path:url(#SVGID_00000160176206548082148270000015901036463459336343_)}.st33,.st34{clip-path:url(#SVGID_00000124152413852202376080000001875254675813941426_);fill:#20380e}.st34{clip-path:url(#SVGID_00000096032114817545159290000017438953448348142750_)}</style><switch><g><defs><path id="SVGID_1_" d="M0 0h220v220H0z"/></defs><clipPath id="SVGID_00000052814167771532500680000004768190344244588945_"><use xlink:href="#SVGID_1_" style="overflow:visible"/></clipPath><path d="M100.5 36.4c25-2 48.9 6.1 65.9 17.2 17.1 11.2 27.2 25.4 28.3 40.6 1.1 15.3-6.6 29.8-17.9 44.2-11.5 14.1-26.7 28.1-44.2 37.1-33.7 18.9-72.3 3.6-90.7-42.1-18.5-45.5 7.3-94.4 58.6-97z" style="clip-path:url(#SVGID_00000052814167771532500680000004768190344244588945_);fill:#f5f5f5"/><defs><path id="SVGID_00000031192661228024331540000009706190420995552931_" d="M0 0h220v220H0z"/></defs><clipPath id="SVGID_00000166672332906953617240000012136016620158340503_"><use xlink:href="#SVGID_00000031192661228024331540000009706190420995552931_" style="overflow:visible"/></clipPath><path d="m77.3 97.8-5.4-8.3c1-2.3 1.5-4.8 1.5-7.5 0-11.3-9.9-20.5-22.2-20.5S29 70.7 29 82s9.9 20.5 22.2 20.5c7.2 0 13.7-3.2 17.7-8.2l8.4 3.5z" style="clip-path:url(#SVGID_00000166672332906953617240000012136016620158340503_);fill:#fff"/><defs><path id="SVGID_00000134241988167233771040000000944731482912446121_" d="M0 0h220v220H0z"/></defs><clipPath id="SVGID_00000049933624444225750820000003626283924672921749_"><use xlink:href="#SVGID_00000134241988167233771040000000944731482912446121_" style="overflow:visible"/></clipPath><path d="m68.7 94.9 8.4 3.5.5-1.1-8.4-3.5-.5 1.1zm-17.5 8.2c7.4 0 14-3.3 18.2-8.4l-1-.7c-3.9 4.8-10.2 7.9-17.3 7.9v1.2h.1zM28.4 82c0 11.7 10.2 21.1 22.8 21.1v-1.2c-12 0-21.6-9-21.6-19.9h-1.2zm22.8-21.1c-12.5 0-22.8 9.4-22.8 21.1h1.2c0-11 9.6-19.9 21.6-19.9v-1.2zM74 82c0-11.7-10.2-21.1-22.8-21.1v1.2c12 0 21.6 9 21.6 19.9H74zm-1.6 7.7c1-2.4 1.6-5 1.6-7.7h-1.2c0 2.6-.5 5-1.5 7.2l1.1.5zm5.4 7.8-5.4-8.3-1 .6 5.4 8.3 1-.6zm-8.9-3.1.2-.5c-.2-.1-.5 0-.7.2l.5.3zm3-4.9-.5-.2c-.1.2-.1.4 0 .6l.5-.4zm5.4 8.3-.3.6c.2.1.5 0 .7-.2s.2-.5 0-.7l-.4.3zM40.9 84l5.8 9.4 14.1-15.1c1.1-1.2.7-3-.8-3.7-.9-.4-1.9-.2-2.6.5L48 84.8l-2.5-3.7c-.6-.9-1.8-1.3-2.8-.8l-.8.4c-1.2.5-1.7 2.1-1 3.3z" style="clip-path:url(#SVGID_00000049933624444225750820000003626283924672921749_);fill:#20380e"/><defs><path id="SVGID_00000060729122637790789420000009543552836676646846_" d="M0 0h220v220H0z"/></defs><clipPath id="SVGID_00000146476794754028043820000007012473210810221723_"><use xlink:href="#SVGID_00000060729122637790789420000009543552836676646846_" style="overflow:visible"/></clipPath><g style="clip-path:url(#SVGID_00000146476794754028043820000007012473210810221723_)"><defs><path id="SVGID_00000070799853481487135170000000271486041335416758_" d="m40.9 84 5.8 9.4 14.1-15.1c1.1-1.2.7-3-.8-3.7-.9-.4-1.9-.2-2.6.5L48 84.8l-2.5-3.7c-.6-.9-1.8-1.3-2.8-.8l-.8.4c-1.2.5-1.7 2.1-1 3.3z"/></defs><clipPath id="SVGID_00000177486052995117513620000000790207087173553300_"><use xlink:href="#SVGID_00000070799853481487135170000000271486041335416758_" style="overflow:visible"/></clipPath><path d="M41.5 84h-1.1 1.1zm.2-3.8c-1.6.7-2.2 2.6-1.3 4.1l.9-.6c-.6-.9-.2-2.1.8-2.5l-.4-1zm.9-.4-.8.4.4 1 .8-.4-.4-1zm3.5 1c-.8-1.1-2.2-1.5-3.5-1l.4 1c.8-.3 1.7-.1 2.2.6l.9-.6zm2.5 3.7-2.5-3.7-.9.6 2.5 3.7.9-.6zm8.6-9.8-9.4 9.7.8.8 9.4-9.7-.8-.8zm3.1-.6c-1.1-.5-2.3-.2-3.2.6l.8.8c.5-.5 1.3-.7 2-.4l.4-1zm1 4.5c1.3-1.4.9-3.8-.9-4.5l-.4 1c1.1.5 1.4 1.9.6 2.8l.7.7zM47.1 93.7l14.1-15.1-.8-.7-14 15.1.7.7zm-6.6-9.5 5.8 9.4.9-.6-5.8-9.4-.9.6zm.4-.2-.5.3 1 1.6V84h-.5zm1-3.3.2.5-.2-.5zm.9-.4-.2-.5.2.5zm2.8.8.4-.3-.4.3zm2.5 3.7-.4.3.4.5.5-.5-.5-.3zm9.5-9.7-.4-.4.4.4zm2.5-.5-.2.5.2-.5zm.8 3.7-.4-.4.4.4zM46.7 93.4l-.5.3.4.6.5-.5-.4-.4zM40.9 84l.5-.3-1-1.6V84h.5z" style="clip-path:url(#SVGID_00000177486052995117513620000000790207087173553300_);fill:#20380e"/></g><defs><path id="SVGID_00000168826997525034603910000005891249434763845769_" d="M0 0h220v220H0z"/></defs><clipPath id="SVGID_00000049932676008062093730000008380911941399389872_"><use xlink:href="#SVGID_00000168826997525034603910000005891249434763845769_" style="overflow:visible"/></clipPath><path d="M141.3 203 131 273l-15.2 13.5 1.9-60.8h-4.1l-19.5 60.8L80.4 273l13.7-70h47.2z" style="clip-path:url(#SVGID_00000049932676008062093730000008380911941399389872_);fill:#fff"/><defs><path id="SVGID_00000169529341256283740970000006277643680091548068_" d="M0 0h220v220H0z"/></defs><clipPath id="SVGID_00000126324009465006015470000008538473875346560445_"><use xlink:href="#SVGID_00000169529341256283740970000006277643680091548068_" style="overflow:visible"/></clipPath><g style="clip-path:url(#SVGID_00000126324009465006015470000008538473875346560445_)"><defs><path id="SVGID_00000055674904114294832530000017521027769182881198_" d="M141.3 203 131 273l-15.2 13.5 1.9-60.8h-4.1l-19.5 60.8L80.4 273l13.7-70z"/></defs><clipPath id="SVGID_00000028301636759402620800000009565549820549753764_"><use xlink:href="#SVGID_00000055674904114294832530000017521027769182881198_" style="overflow:visible"/></clipPath><path d="M94.1 202h47.2v2H94.1v-2zm-14.7 70.8 13.7-70 2 .4-13.7 70-2-.4zm14 14.4-13.7-13.5 1.4-1.4 13.7 13.5-1.4 1.4zm21.2-61.2L95 286.8l-1.9-.6 19.5-60.8 2 .6zm3.1.7h-4.1v-2h4.1v2zm-2.9 59.8 1.9-60.8 2 .1-1.9 60.8-2-.1zm16.8-12.8-15.2 13.5-1.3-1.5 15.2-13.5 1.3 1.5zm10.7-70.5-10.4 70-2-.3 10.4-70 2 .3zm-48.2-.2-1-.2.2-.8h.8v1zm-13.7 70-.7.7-.4-.4.1-.5 1 .2zm13.7 13.5 1 .3-.5 1.5-1.2-1.1.7-.7zm19.5-60.8-1-.3.2-.7h.7v1h.1zm4.1 0v-1h1v1h-1zm-1.9 60.8.7.7-1.7 1.5.1-2.3.9.1zM131 273l1 .1-.1.4-.3.2-.6-.7zm10.3-70v-1h1.2l-.2 1.1-1-.1z" style="clip-path:url(#SVGID_00000028301636759402620800000009565549820549753764_);fill:#20380e"/></g><defs><path id="SVGID_00000093898013391920206900000009740561454683732891_" d="M0 0h220v220H0z"/></defs><clipPath id="SVGID_00000179633387379053473110000014789504018696089764_"><use xlink:href="#SVGID_00000093898013391920206900000009740561454683732891_" style="overflow:visible"/></clipPath><path d="M92.9 210s5.5 1 5.8 3.4-1.7 4.3-1.7 4.3 3.4 8.9 0 8.9-5.8-1.9-5.8-1.9-3.1 1-4.8-1.2-6-10.4-6-10.4l12.5-3.1z" style="clip-path:url(#SVGID_00000179633387379053473110000014789504018696089764_);fill:#fff"/><defs><path id="SVGID_00000173157820133280561000000013514615892419475079_" d="M0 0h220v220H0z"/></defs><clipPath id="SVGID_00000067953500917933705300000004218214621773071031_"><use xlink:href="#SVGID_00000173157820133280561000000013514615892419475079_" style="overflow:visible"/></clipPath><g style="clip-path:url(#SVGID_00000067953500917933705300000004218214621773071031_)"><defs><path id="SVGID_00000013190945367178557800000008030924145808047505_" d="M92.9 210s5.5 1 5.8 3.4-1.7 4.3-1.7 4.3 3.4 8.9 0 8.9-5.8-1.9-5.8-1.9-3.1 1-4.8-1.2-6-10.4-6-10.4l12.5-3.1z"/></defs><clipPath id="SVGID_00000005981784064341023300000012551362177691272858_"><use xlink:href="#SVGID_00000013190945367178557800000008030924145808047505_" style="overflow:visible"/></clipPath><path d="m92.2 209.3 1.4 1.4-1.4-1.4zm-12.1 2.9 12.5-3.1.5 1.9-12.5 3.1-.5-1.9zm5.5 12c-.9-1.2-2.4-3.8-3.7-6.1-.7-1.2-1.2-2.3-1.7-3.1-.2-.4-.4-.7-.5-1-.1-.1-.1-.2-.1-.3v-.1l.9-.5.9-.5v.1c0 .1.1.1.1.3l.5 1c.4.8 1 1.9 1.7 3 1.3 2.3 2.8 4.9 3.6 5.9l-1.7 1.3zm5.6.6.3 1h-.1c-.1 0-.3.1-.4.1-.4.1-.9.1-1.5.1-1.2 0-2.7-.4-3.8-1.8l1.6-1.2c.6.8 1.5 1 2.3 1 .4 0 .8 0 1.1-.1.1 0 .2 0 .3-.1h.1c-.2 0-.2 0 .1 1zm5.8 2.9c-1.9 0-3.5-.5-4.6-1.1-.6-.3-1-.5-1.3-.7-.2-.1-.3-.2-.4-.2l-.1-.1.6-.8.6-.8h.1c.1 0 .2.1.3.2.2.2.6.4 1.1.6.9.4 2.2.9 3.7.9v2zm0-9.9.9-.4v.1c0 .1.1.2.1.3.1.3.2.6.3 1 .3.9.6 2 .8 3.2.2 1.1.4 2.4.2 3.4-.1.5-.3 1.1-.7 1.5-.4.5-1 .7-1.7.7v-2c.2 0 .2 0 .2-.1.1-.1.1-.2.2-.5.1-.6 0-1.6-.2-2.7s-.5-2.1-.8-3c-.1-.4-.2-.7-.3-1 0-.1-.1-.2-.1-.3v-.1c.1.2.1.2 1.1-.1zm2.7-4.5c.1 1.5-.4 2.8-.9 3.7-.3.4-.5.8-.7 1.1l-.3.3-.1.1-.7-.7-.7-.7.2-.2c.2-.2.4-.5.5-.8.4-.7.7-1.6.6-2.5l2.1-.3zm-6.8-3.3.2-1h.3c.2 0 .4.1.7.2.5.1 1.3.3 2.1.6s1.6.7 2.2 1.2c.7.5 1.3 1.2 1.4 2.2l-2 .2c0-.2-.2-.5-.6-.9-.4-.3-1.1-.6-1.7-.9-.7-.3-1.3-.4-1.8-.6-.2-.1-.5-.1-.6-.1h-.2c-.2.1-.2.1 0-.9zm0 0 .7.7-.2.2-.3.1-.2-1zm-12.5 3.2-.9.5-.6-1.1 1.2-.3.3.9zm10.8 11.6-.3-1 .5-.2.4.3-.6.9zm5.8-7-.9.4-.2-.6.5-.5.6.7zm-4.1-7.8-.7-.7.4-.4.5.1-.2 1z" style="clip-path:url(#SVGID_00000005981784064341023300000012551362177691272858_);fill:#20380e"/></g><defs><path id="SVGID_00000103228478147709972940000011953854736516358792_" d="M0 0h220v220H0z"/></defs><clipPath id="SVGID_00000089535994957902927320000006031571322124002439_"><use xlink:href="#SVGID_00000103228478147709972940000011953854736516358792_" style="overflow:visible"/></clipPath><path d="M80.4 213.2c10.5 7.1 15.4-2.4 16.1-3.9.1-.1.1-.2.1-.2 4 1.6 7.7 2.6 11.3 3.3 22.1 4.3 35.5-6.2 35.5-6.2l-.7-38.4.1.1c4.1 3.7 7.9 6.4 11.5 8.2 26.4 13.3 36.7-22.7 36.7-22.7l-9.6 2.7s-12.9 9.2-20.2-1.7c-14.2-21-38.3-28.3-38.3-28.3l-9.9 1.1c-44 20.1-44 78.2-32.6 86z" style="clip-path:url(#SVGID_00000089535994957902927320000006031571322124002439_);fill:#20380e"/><defs><path id="SVGID_00000061457443784012253770000009360271874569426562_" d="M0 0h220v220H0z"/></defs><clipPath id="SVGID_00000141455750403879661940000014941262676184448907_"><use xlink:href="#SVGID_00000061457443784012253770000009360271874569426562_" style="overflow:visible"/></clipPath><path d="m140.2 250.9 3.5 16.5 4.1 19.2 10.4-16.6 9-14.3 4.6-25.9 28.3-160.6c1.3-7.5-3.7-14.6-11.1-15.9-3.7-.7-7.4.3-10.3 2.3-2.9 2-5 5.1-5.6 8.9l-28.9 163.8-4 22.6z" style="clip-path:url(#SVGID_00000141455750403879661940000014941262676184448907_);fill:#20380e"/><defs><path id="SVGID_00000025439324951395513380000006062584639603155861_" d="M0 0h220v220H0z"/></defs><clipPath id="SVGID_00000000193480754146834020000017406562523524556466_"><use xlink:href="#SVGID_00000025439324951395513380000006062584639603155861_" style="overflow:visible"/></clipPath><path d="m189.1 79.2-28.6 162.1c4.9 2.8 7.8 8.5 6.8 14.4l30.8-174.9-9-1.6zm-9-1.6-28.6 162.1c1.5-.3 3.1-.3 4.6 0 1.6.3 3.1.8 4.4 1.6l28.6-162.1-9-1.6z" style="clip-path:url(#SVGID_00000000193480754146834020000017406562523524556466_);fill:#94b73d"/><defs><path id="SVGID_00000096033997184140496720000002956746906763793593_" d="M0 0h220v220H0z"/></defs><clipPath id="SVGID_00000092448152008605936130000000963065131803988878_"><use xlink:href="#SVGID_00000096033997184140496720000002956746906763793593_" style="overflow:visible"/></clipPath><path d="m171 76-30.8 174.9c1-5.9 5.7-10.2 11.3-11.2l28.6-162.1L171 76z" style="clip-path:url(#SVGID_00000092448152008605936130000000963065131803988878_);fill:#94b73d"/><defs><path id="SVGID_00000041978692973643597120000011405926726664634547_" d="M0 0h220v220H0z"/></defs><clipPath id="SVGID_00000072967595023798353210000003222153849900924335_"><use xlink:href="#SVGID_00000041978692973643597120000011405926726664634547_" style="overflow:visible"/></clipPath><path d="M170.1 81.5c9.3-5.1 20.1-3.2 27.1 4.8l1-5.8c-7-8-17.8-9.9-27.1-4.8l-1 5.8z" style="clip-path:url(#SVGID_00000072967595023798353210000003222153849900924335_);fill:#fff"/><defs><path id="SVGID_00000090982019120040026980000001997075849357926805_" d="M0 0h220v220H0z"/></defs><clipPath id="SVGID_00000175289151585135038650000000387440855974993843_"><use xlink:href="#SVGID_00000090982019120040026980000001997075849357926805_" style="overflow:visible"/></clipPath><path d="M96.4 209.3c.1-.1.1-.2.1-.2 4 1.6 7.7 2.6 11.3 3.3-9.7-19.5-9-50.3-9-50.3-7.5 20.6-3.4 42.5-2.4 47.2zm46-49.8v8c.1.1.1.3.2.4 4.1 3.7 7.9 6.4 11.5 8.2l-11.7-16.6z" style="clip-path:url(#SVGID_00000175289151585135038650000000387440855974993843_);fill:#152409"/><defs><path id="SVGID_00000031178677769343418250000005018985584113511102_" d="M0 0h220v220H0z"/></defs><clipPath id="SVGID_00000083771350169469807280000014020756246025495967_"><use xlink:href="#SVGID_00000031178677769343418250000005018985584113511102_" style="overflow:visible"/></clipPath><path d="M190.7 153.3s5.8-12.2-2.3-18l-.7 3.9s-7.3-5.4-8.5-3.9c-2.5 3.3 2.3 6.2 2.3 6.2s-5.5 10.1-.5 13.8c5.2 3.6 9.7-2 9.7-2z" style="clip-path:url(#SVGID_00000083771350169469807280000014020756246025495967_);fill:#fff"/><defs><path id="SVGID_00000136394876686956166460000018297494438997167800_" d="M0 0h220v220H0z"/></defs><clipPath id="SVGID_00000034080793772740432710000004059570965701124225_"><use xlink:href="#SVGID_00000136394876686956166460000018297494438997167800_" style="overflow:visible"/></clipPath><g style="clip-path:url(#SVGID_00000034080793772740432710000004059570965701124225_)"><defs><path id="SVGID_00000145747974215687364950000016556540702863628965_" d="M190.7 153.3s5.8-12.2-2.3-18l-.7 3.9s-7.3-5.4-8.5-3.9c-2.5 3.3 2.3 6.2 2.3 6.2s-5.5 10.1-.5 13.8c5.2 3.6 9.7-2 9.7-2z"/></defs><clipPath id="SVGID_00000108282866666116630610000012362544806056692906_"><use xlink:href="#SVGID_00000145747974215687364950000016556540702863628965_" style="overflow:visible"/></clipPath><path d="M190.7 154.3v-2 2zm-9 .2c2.1 1.5 4.1 1.1 5.7.3.8-.4 1.5-.9 1.9-1.4l.5-.5.1-.1.8.6.8.6v.1l-.2.2-.6.6c-.6.5-1.4 1.1-2.3 1.7-2 1.1-4.8 1.6-7.8-.5l1.1-1.6zm-.1-13 .9.5v.1c0 .1-.1.2-.2.3-.1.3-.3.7-.5 1.2-.4 1-.9 2.3-1.3 3.7-.4 1.4-.6 2.9-.4 4.2.2 1.3.7 2.3 1.6 3l-1.2 1.6c-1.5-1.1-2.3-2.7-2.5-4.4-.2-1.6 0-3.4.4-4.9.4-1.6 1-3 1.4-4 .2-.5.4-.9.6-1.2.1-.1.1-.3.2-.3v-.1c.1-.2.1-.2 1 .3zm-1.5-5.6c-.5.6-.6 1.2-.5 1.6.1.5.3 1 .7 1.5s.8.9 1.2 1.2c.2.1.3.3.5.3.1 0 .1.1.1.1l-.5.9-.5.9h-.1s-.1-.1-.2-.1c-.1-.1-.3-.2-.6-.4-.5-.4-1-.9-1.6-1.5-.5-.6-1-1.5-1.1-2.5s.1-2.1.9-3.1l1.7 1.1zm7.7 3.3-.6.8h-.1c-.1 0-.1-.1-.2-.2-.2-.1-.5-.3-.8-.6-.7-.5-1.6-1.1-2.6-1.7-1-.6-1.9-1.1-2.7-1.3-.4-.1-.6-.2-.8-.2s0 0 .1-.1l-1.6-1.2c.4-.5 1-.7 1.5-.7s1 .1 1.4.3c1 .3 2 .9 3 1.5s2 1.2 2.7 1.7c.4.2.7.5.9.6.1.1.2.1.2.2h.1c.1.1.1.1-.5.9zm1.7-3.7-.7 3.9-2-.3.7-3.9 2 .3zm1.2 17.8-.9-.4v-.1c0-.1.1-.2.2-.4.1-.3.3-.8.5-1.4.4-1.2.9-2.8 1.1-4.6.4-3.6-.1-7.7-3.8-10.3l1.2-1.6c4.5 3.2 5 8.2 4.6 12.1-.2 2-.7 3.8-1.2 5-.2.6-.4 1.2-.6 1.5-.1.2-.1.3-.2.4 0 0 0 .1-.1.1.1.2.1.2-.8-.3zm0 0v-1h2.1l-1.4 1.6-.7-.6zm-9.6 2 .6-.8-.6.8zm.5-13.8.5-.9.8.5-.5.8-.8-.4zm-2.3-6.2.8.6-.8-.6zm8.5 3.9 1 .2-.3 1.6-1.3-1 .6-.8zm.7-3.9-1-.2.3-1.6 1.3.9-.6.9zm2.2 18v1h-1.6l.7-1.4.9.4z" style="clip-path:url(#SVGID_00000108282866666116630610000012362544806056692906_);fill:#20380e"/></g><defs><path id="SVGID_00000183244055821049951330000004580274438491059845_" d="M0 0h220v220H0z"/></defs><clipPath id="SVGID_00000078034575657127031440000008145073078314955914_"><use xlink:href="#SVGID_00000183244055821049951330000004580274438491059845_" style="overflow:visible"/></clipPath><path d="M99.9 110.6c2.7 2.5 9-.4 16-5 11.8-7.8 25.2-20.6 25.2-20.6l2.9-5.8s-1.4-17.4-15.2-18.6c-6.4-.6-14 2.3-21 6.4-.2.1-.5.3-.7.4-7.6 4.7-14.2 10.8-17.6 15.8-6.5 9.8 3.1 20.7 10.4 27.4z" style="clip-path:url(#SVGID_00000078034575657127031440000008145073078314955914_);fill:#20380e"/><defs><path id="SVGID_00000139976861296323643230000003039787670429398703_" d="M0 0h220v220H0z"/></defs><clipPath id="SVGID_00000147926328348481873540000003402639669492599702_"><use xlink:href="#SVGID_00000139976861296323643230000003039787670429398703_" style="overflow:visible"/></clipPath><path d="M85.2 121.5c3.1 3.1 18.3-3.1 18.3-3.1v-9.2s-21.5 9.2-18.3 12.3z" style="clip-path:url(#SVGID_00000147926328348481873540000003402639669492599702_);fill:#20380e"/><defs><path id="SVGID_00000153671054055432838300000001773308451821488300_" d="M0 0h220v220H0z"/></defs><clipPath id="SVGID_00000045614753978265870200000002133554058437685391_"><use xlink:href="#SVGID_00000153671054055432838300000001773308451821488300_" style="overflow:visible"/></clipPath><path d="M99.9 110.6c2.7 2.5 9-.4 16-5-25-24.8-12.2-35.8-8.8-38.1-7.6 4.7-14.2 10.8-17.6 15.8-6.5 9.7 3.1 20.6 10.4 27.3z" style="clip-path:url(#SVGID_00000045614753978265870200000002133554058437685391_);fill:#152409"/><defs><path id="SVGID_00000179638565791976649880000015376951693077703578_" d="M0 0h220v220H0z"/></defs><clipPath id="SVGID_00000075864854833837084130000011560649933115650190_"><use xlink:href="#SVGID_00000179638565791976649880000015376951693077703578_" style="overflow:visible"/></clipPath><path d="M110.2 120.8s.9 3.4 2.4 7c1.8 4.1 4.4 8.5 7.4 8.5s4.2-3.1 4.6-6.1c.4-2.8.2-5.5.2-5.5l-14.6-3.9z" style="clip-path:url(#SVGID_00000075864854833837084130000011560649933115650190_);fill:#fff"/><defs><path id="SVGID_00000078729211568952080930000016656297152061192091_" d="M0 0h220v220H0z"/></defs><clipPath id="SVGID_00000097463554019101531800000016882485620509287102_"><use xlink:href="#SVGID_00000078729211568952080930000016656297152061192091_" style="overflow:visible"/></clipPath><g style="clip-path:url(#SVGID_00000097463554019101531800000016882485620509287102_)"><defs><path id="SVGID_00000096051277395679026940000012288645743325712556_" d="M110.2 120.8s.9 3.4 2.4 7c1.8 4.1 4.4 8.5 7.4 8.5s4.2-3.1 4.6-6.1c.4-2.8.2-5.5.2-5.5l-14.6-3.9z"/></defs><clipPath id="SVGID_00000116207212122122029010000012885407250548621484_"><use xlink:href="#SVGID_00000096051277395679026940000012288645743325712556_" style="overflow:visible"/></clipPath><path d="M109.2 120.8h2-2zm15.5 4.8-14.7-3.9.5-1.9 14.7 3.9-.5 1.9zm-.9 4.3c.2-1.3.2-2.6.2-3.6v-1.6l1-.1 1-.1v1.8c0 1 0 2.5-.3 3.9l-1.9-.3zm-3.7 5.3c1.1 0 1.9-.5 2.5-1.5s1-2.4 1.2-3.8l2 .3c-.2 1.5-.6 3.2-1.5 4.6-.9 1.4-2.2 2.4-4.2 2.4v-2zm-6.5-7.8c.9 2 1.9 4 3.1 5.5s2.4 2.3 3.4 2.3v2c-2 0-3.7-1.4-5-3.1-1.3-1.7-2.5-3.9-3.4-6l1.9-.7zm-3.4-6.6 1-.3v.1c0 .1.1.2.1.4.1.4.3.9.5 1.5.4 1.3 1 3 1.8 4.8l-1.8.8c-.8-1.8-1.4-3.6-1.8-4.9-.2-.7-.4-1.2-.5-1.6-.1-.2-.1-.3-.1-.4v-.1c-.1-.1-.1-.1.8-.3zm0 0-.3 1-.7-.2v-.8h1zm14.7 3.8.3-1 .7.2.1.7-1.1.1zm-.1 5.5 1 .1-1-.1zm-12.1-2.3-.9.4.9-.4zm-2.5-7h-1l2-.3-1 .3z" style="clip-path:url(#SVGID_00000116207212122122029010000012885407250548621484_);fill:#20380e"/></g><defs><path id="SVGID_00000036220550707241316350000016653191152817635243_" d="M0 0h220v220H0z"/></defs><clipPath id="SVGID_00000088103101806715833810000012105532124409525406_"><use xlink:href="#SVGID_00000036220550707241316350000016653191152817635243_" style="overflow:visible"/></clipPath><path d="M99.9 124.4c1.3.2 2.4.3 3.4.3 6.2 0 7.5-4 7.5-4 5.1 3.9 12.3 6.5 25.4 6.4 7.1-.1 13.7-4.7 15.7-11.3 4.6-15-10.4-36.7-10.4-36.7-17.5 3.6-26.6 11.4-31.2 17.9-4.2 5.9-4.8 10.9-4.8 10.9-15.5-3.1-14.8 14.8-5.6 16.5z" style="clip-path:url(#SVGID_00000088103101806715833810000012105532124409525406_);fill:#fff"/><defs><path id="SVGID_00000014627422296324340070000014929593226600339128_" d="M0 0h220v220H0z"/></defs><clipPath id="SVGID_00000074436810760825077470000014136875165378207128_"><use xlink:href="#SVGID_00000014627422296324340070000014929593226600339128_" style="overflow:visible"/></clipPath><g style="clip-path:url(#SVGID_00000074436810760825077470000014136875165378207128_)"><defs><path id="SVGID_00000109004873389284224570000004073899081438812081_" d="M99.9 124.4c1.3.2 2.4.3 3.4.3 6.2 0 7.5-4 7.5-4 5.1 3.9 12.3 6.5 25.4 6.4 7.1-.1 13.7-4.7 15.7-11.3 4.6-15-10.4-36.7-10.4-36.7-17.5 3.6-26.6 11.4-31.2 17.9-4.2 5.9-4.8 10.9-4.8 10.9-15.5-3.1-14.8 14.8-5.6 16.5z"/></defs><clipPath id="SVGID_00000161629157428099162730000005170037380966617989_"><use xlink:href="#SVGID_00000109004873389284224570000004073899081438812081_" style="overflow:visible"/></clipPath><path d="M105.2 109c-3.7-.7-6.2-.2-7.9.9-1.7 1.1-2.6 2.8-2.9 4.7-.6 3.9 1.7 8.2 5.6 8.9l-.4 2c-5.3-1-7.9-6.5-7.3-11.1.3-2.4 1.5-4.7 3.8-6.1 2.2-1.4 5.4-2 9.4-1.1l-.3 1.8zm5.9-11.4c-2 2.9-3.2 5.5-3.9 7.4-.3 1-.5 1.7-.6 2.2-.1.3-.1.5-.1.6v.1l-1-.1-1-.1v-.3c0-.2.1-.4.1-.7.1-.6.3-1.4.7-2.5.7-2.1 2-4.9 4.1-7.9l1.7 1.3zm30.6-17.5c-17.3 3.6-26.1 11.2-30.6 17.5l-1.6-1.2c4.8-6.8 14.1-14.7 31.8-18.3l.4 2zm9.2 35.4c2.2-7.1-.3-16-3.4-23.3-1.6-3.6-3.3-6.7-4.6-9-.7-1.1-1.2-2-1.6-2.6-.2-.3-.4-.5-.5-.7-.1-.1-.1-.1-.1-.2l.8-.6.8-.6s.1.1.1.2c.1.2.3.4.5.7.4.6 1 1.5 1.7 2.7 1.3 2.3 3.1 5.5 4.7 9.2 3.2 7.3 5.9 16.8 3.5 24.6l-1.9-.4zm-14.8 10.6c6.7-.1 12.8-4.5 14.7-10.6l1.9.6c-2.2 7-9.1 11.9-16.6 12v-2zm-24.8-6.1c4.8 3.7 11.8 6.3 24.8 6.1v2c-13.3.2-20.8-2.5-26-6.6l1.2-1.5zm-8.1 3.7c2.9 0 4.5-.9 5.4-1.7.5-.4.7-.8.9-1.1.1-.1.1-.3.2-.3v-.1l1 .3 1 .3v.1s0 .1-.1.2-.2.3-.3.6c-.3.4-.7 1-1.3 1.6-1.3 1.2-3.4 2.2-6.7 2.2l-.1-2.1zm-3.1-.3c1.2.2 2.3.3 3.2.3v2c-1.1 0-2.2-.1-3.5-.3l.3-2zm5.3-15.4 1 .1-.1 1.1-1.1-.2.2-1zm4.8-10.9-.8-.6.8.6zm31.3-17.9-.2-1 .6-.1.4.5-.8.6zm10.3 36.6 1 .3-1-.3zm-15.6 11.3v-1 1zm-25.5-6.3-1-.3.4-1.4 1.1.9-.5.8zm-10.8 3.6.2-1-.2 1z" style="clip-path:url(#SVGID_00000161629157428099162730000005170037380966617989_);fill:#20380e"/></g><defs><path id="SVGID_00000122719207897057442040000000082851477129118880_" d="M0 0h220v220H0z"/></defs><clipPath id="SVGID_00000154422016071354888480000009598297626634357892_"><use xlink:href="#SVGID_00000122719207897057442040000000082851477129118880_" style="overflow:visible"/></clipPath><path d="M130.5 73s11.1-2.2 17.1-8 2.9 3.4 0 6.3c0 0 6 1.4 9.2 1.7 3.1.2-2.7 9.9-10.4 7 0 0 .2 4.6 1.4 6s-9.2.2-15.7-5.8c-6.4-6-1.6-7.2-1.6-7.2zm-25.1 35 4.8 6.3V97.1c-4.2 5.9-4.8 10.9-4.8 10.9z" style="clip-path:url(#SVGID_00000154422016071354888480000009598297626634357892_);fill:#2c4d13"/><defs><path id="SVGID_00000109709221178144454080000015940731159535906945_" d="M0 0h220v220H0z"/></defs><clipPath id="SVGID_00000127011857574681873300000002429731693449217191_"><use xlink:href="#SVGID_00000109709221178144454080000015940731159535906945_" style="overflow:visible"/></clipPath><path d="M126.9 100.2c.4 1.3-.1 2.7-1.1 3.1-1.1.4-2.3-.4-2.8-1.7s.1-2.7 1.1-3.1 2.4.4 2.8 1.7zm17.3-6.1c.4 1.3-.1 2.7-1.1 3.1-1.1.4-2.3-.4-2.8-1.7-.4-1.3.1-2.7 1.1-3.1s2.4.4 2.8 1.7z" style="clip-path:url(#SVGID_00000127011857574681873300000002429731693449217191_);fill:#20380e"/><defs><path id="SVGID_00000129187950600548519710000013323697353096655022_" d="M0 0h220v220H0z"/></defs><clipPath id="SVGID_00000056401346509094206680000014482816881987837624_"><use xlink:href="#SVGID_00000129187950600548519710000013323697353096655022_" style="overflow:visible"/></clipPath><path d="M139.3 112.2s-14-7.2-16.4-4.1 7.2 13.3 16.4 4.1z" style="clip-path:url(#SVGID_00000056401346509094206680000014482816881987837624_);fill:#fff"/><defs><path id="SVGID_00000098920746528211361530000018119300650535363218_" d="M0 0h220v220H0z"/></defs><clipPath id="SVGID_00000124147794834643079410000014668684617846848418_"><use xlink:href="#SVGID_00000098920746528211361530000018119300650535363218_" style="overflow:visible"/></clipPath><g style="clip-path:url(#SVGID_00000124147794834643079410000014668684617846848418_)"><defs><path id="SVGID_00000070810690566350591540000006973852701577617077_" d="M139.3 112.2s-14-7.2-16.4-4.1 7.2 13.3 16.4 4.1z"/></defs><clipPath id="SVGID_00000034070904508350336920000011665285786508178866_"><use xlink:href="#SVGID_00000070810690566350591540000006973852701577617077_" style="overflow:visible"/></clipPath><path d="M123.7 108.7c-.2.3-.3 1 .3 2.2.6 1.1 1.7 2.2 3.2 3s3.2 1.2 5.2 1c1.9-.3 4-1.2 6.2-3.4l1.4 1.4c-2.4 2.4-4.9 3.6-7.3 4-2.4.3-4.6-.2-6.4-1.2-1.8-1-3.2-2.4-4-3.8-.8-1.3-1.2-3.1-.2-4.4l1.6 1.2zm15.6 3.5-.5.9s-.1 0-.1-.1c-.1-.1-.2-.1-.4-.2-.4-.2-.9-.5-1.6-.8-1.3-.6-3.1-1.4-5-2.1s-3.8-1.3-5.3-1.5c-.8-.1-1.4-.1-1.9 0s-.7.2-.8.3l-1.6-1.2c.5-.7 1.3-1 2-1.1.8-.1 1.6-.1 2.5 0 1.8.3 3.8.9 5.7 1.6s3.8 1.5 5.1 2.2c.7.3 1.2.6 1.6.8.2.1.4.2.5.2s.1 0 .1.1c.1 0 .1 0-.3.9zm0 0 .5-.9 1.2.6-1 1-.7-.7z" style="clip-path:url(#SVGID_00000034070904508350336920000011665285786508178866_);fill:#20380e"/></g><defs><path id="SVGID_00000041985104676642704520000001201601372284413862_" d="M0 0h220v220H0z"/></defs><clipPath id="SVGID_00000103956246340000319720000006745928057688196542_"><use xlink:href="#SVGID_00000041985104676642704520000001201601372284413862_" style="overflow:visible"/></clipPath><path d="M117.7 98.1c.1-1.2.8-2.9 2.4-3.9 1.6-1.1 3.9-1.6 7.2-.6l-.4 1.4c-3-.9-4.8-.4-5.9.4s-1.6 2-1.7 2.9l-1.6-.2zm9.6-4.5c.4.1.6.5.5.9s-.5.6-.9.5l.4-1.4zm-8.1 4.7c-.1.4-.4.7-.8.7-.4-.1-.7-.4-.7-.8l1.5.1zm15.7-5.6c.1-1.3.8-3.1 2.4-4.2 1.6-1.1 4-1.2 7.3.4l-.7 1.3c-3-1.5-4.8-1.2-5.8-.5-1.1.7-1.6 2-1.7 3.1l-1.5-.1zm9.6-3.7c.4.2.5.6.3 1s-.6.5-1 .3l.7-1.3zm-8.1 3.9c0 .4-.4.7-.8.7s-.7-.4-.7-.8l1.5.1zm-36.7 20.8c.1.8.5 2 1.4 2.8.8.8 2.1 1.5 4 1.2l.2 1.5c-2.4.3-4.2-.5-5.3-1.6-1.1-1.2-1.6-2.6-1.8-3.7l1.5-.2zm5.4 4.1c.4-.1.8.2.8.6s-.2.8-.6.8l-.2-1.4zm-6.9-3.9c-.1-.4.2-.8.6-.8s.8.2.8.6l-1.4.2z" style="clip-path:url(#SVGID_00000103956246340000319720000006745928057688196542_);fill:#20380e"/></g></switch></svg>