<svg width="101" height="101" viewBox="0 0 101 101" fill="none" xmlns="http://www.w3.org/2000/svg">
<mask id="mask0_644_1967" style="mask-type:alpha" maskUnits="userSpaceOnUse" x="0" y="0" width="101" height="101">
<rect x="0.00195312" y="0.0273438" width="100" height="100" fill="#D9D9D9"/>
</mask>
<g mask="url(#mask0_644_1967)">
<path d="M67.5215 15.2019C59.1415 13.82 51.0967 12.9178 42.5811 11.9644L41.7464 11.8712C38.0012 11.4509 34.1662 12.2518 30.9474 14.1222C27.7306 15.9922 24.7681 17.8559 21.9013 19.6565C18.9277 21.5259 15.8542 23.457 12.5024 25.3943C11.3656 26.0511 10.75 27.1899 10.8944 28.366C11.0357 29.5226 11.8885 30.4608 13.1175 30.8147L13.3622 30.8857C14.7228 31.2767 16.052 31.6586 17.3639 32.0314L20.3797 45.7195C20.6791 47.0805 21.0528 48.7729 22.357 50.0545C24.1899 51.8529 27.4208 52.3765 29.7795 52.759C29.884 52.7764 29.9924 52.7931 30.105 52.8112C29.6689 53.2573 29.3319 53.7994 29.1353 54.3971C28.754 55.5547 28.9171 56.8615 29.5709 57.891C29.7251 58.1339 29.8964 58.3462 30.0603 58.5496C30.2418 58.7762 30.4153 58.9901 30.5276 59.2077C31.0074 60.1212 30.6356 61.3631 30.2103 62.5576C30.1122 62.8324 30.1706 63.1384 30.3632 63.3592C30.5462 63.5697 30.8252 63.6691 31.0977 63.6259C31.1094 63.6241 31.123 63.6219 31.1347 63.6201C33.6263 63.1038 35.6506 60.896 35.9508 58.3707C36.1683 56.5449 35.4689 54.6727 34.196 53.3622C34.6737 53.4182 35.1737 53.4766 35.6977 53.5353C38.8865 53.894 42.1307 53.8091 45.3067 53.306C49.1697 52.6942 52.9305 51.4622 56.3665 49.6532C57.3535 49.1338 58.3334 48.6076 59.3133 48.0813C61.3174 47.0058 64.0604 45.532 65.1649 43.2604C65.9459 41.6545 65.7712 39.9346 65.6324 38.5542L64.1917 24.3193C64.1801 24.1955 64.1386 24.0844 64.0769 23.9844L68.8602 20.5177C69.8944 19.7674 70.3713 18.5967 70.1012 17.4585C69.824 16.2875 68.8355 15.4246 67.5182 15.2064L67.5215 15.2019ZM34.348 58.1757C34.1916 59.4932 33.3553 60.7249 32.2231 61.4488C32.4389 60.4431 32.4585 59.4086 31.9564 58.4548C31.7707 58.1012 31.5298 57.8022 31.3185 57.5384C31.1745 57.3597 31.0401 57.1915 30.9339 57.0248C30.543 56.4084 30.4404 55.5968 30.6699 54.9041C30.8518 54.3527 31.2454 53.8654 31.7413 53.5574C31.7655 53.5716 31.7893 53.5837 31.8132 53.5959C33.4758 54.3819 34.5677 56.3515 34.3502 58.1774L34.348 58.1757ZM23.4871 48.902C22.5255 47.9571 22.2355 46.6425 21.9546 45.3724L19.1263 32.5282C22.3577 33.4328 25.5002 34.2677 28.7112 35.0059C29.3783 38.6128 30.5373 47.2786 30.9292 51.3021C30.6105 51.2549 30.3119 51.2084 30.0356 51.1644C27.8898 50.816 24.952 50.3417 23.4871 48.902ZM64.0254 38.711C64.1574 40.0107 64.2924 41.3538 63.7116 42.549C62.8361 44.3514 60.3576 45.6816 58.5484 46.6524C57.572 47.1761 56.596 47.7017 55.6126 48.2186C49.6375 51.3653 42.6286 52.6829 35.8775 51.9248C34.6486 51.7863 33.5444 51.654 32.573 51.5286C32.233 47.82 31.1377 39.5191 30.4192 35.3858C32.7804 35.8975 35.1952 36.3569 37.7268 36.7479C39.5674 37.0329 41.4291 37.0233 43.237 36.737C45.9187 36.3122 48.48 35.2782 50.6634 33.6975L62.637 25.0204L64.0215 38.7116L64.0254 38.711ZM67.9139 19.2033L49.7181 32.389C46.4075 34.7885 42.1283 35.7954 37.9768 35.1523C35.363 34.7464 32.8716 34.2692 30.4312 33.7361C33.4035 30.1333 36.5297 26.6957 39.5591 23.3651L39.563 23.3645C39.8634 23.0317 39.8367 22.5232 39.5078 22.2222C39.1769 21.9215 38.6661 21.9466 38.3655 22.2775C35.1507 25.8109 31.8255 29.4656 28.6765 33.3257C28.6729 33.3283 28.6716 33.3325 28.6703 33.3367C23.7677 32.1961 19.0085 30.8273 13.8101 29.3306L13.5655 29.2596C12.9595 29.0863 12.5614 28.6765 12.4988 28.1678C12.4347 27.6373 12.7382 27.1224 13.3123 26.7921C16.6879 24.8411 19.7757 22.8997 22.7623 21.0243C25.6161 19.2297 28.5701 17.3754 31.7609 15.5174C34.6816 13.818 38.1655 13.0927 41.5676 13.4755L42.4042 13.5684C50.8976 14.5193 58.9219 15.4188 67.2611 16.7951C67.9331 16.9062 68.4087 17.2897 68.5353 17.8242C68.6521 18.3224 68.4225 18.8375 67.9178 19.2027L67.9139 19.2033Z" fill="#20380E"/>
<path d="M88.9933 61.3751C88.453 59.3328 87.2977 57.1094 85.0781 56.583C83.7701 56.2844 82.4136 56.505 81.0948 56.6176C72.3975 57.3626 63.7126 58.1971 55.0187 58.9926C47.5819 59.7132 40.1446 60.4258 32.7054 61.12C27.9868 61.5639 23.269 62.0095 18.5505 62.454C18.2313 62.4844 17.9121 62.5141 17.5929 62.5445C17.0626 62.5122 16.6152 62.5596 16.3647 62.6248C14.1515 63.0761 12.767 64.4185 11.6538 66.4087C9.60081 70.5949 9.43172 75.6311 10.8399 80.0452C11.0328 80.4848 11.0678 81.1807 11.6188 81.3038C11.8407 81.3526 12.0505 81.2445 12.2585 81.1835C12.7837 81.0093 13.3088 80.8333 13.8334 80.6598C13.9062 80.63 13.9857 80.6065 14.0664 80.5835C14.0775 80.6093 14.0868 80.6359 14.0985 80.6617C14.5214 81.6369 15.2691 82.3696 16.1419 82.6336C16.2472 82.8021 16.4324 82.9191 16.6649 82.8973C25.8454 81.9972 35.0049 80.8936 44.1705 79.8503C43.2966 82.1116 42.419 84.3719 41.5521 86.6365C41.3161 87.2535 41.08 87.8705 40.844 88.4875C40.7776 88.663 40.7189 88.8417 40.6577 89.0193C40.5958 89.3115 40.752 89.6157 41.0164 89.7501C41.5565 90.0095 41.974 89.4467 42.3972 89.1949C43.0996 88.6876 43.7931 88.1661 44.475 87.6312C45.8081 86.5797 47.0963 85.4725 48.3464 84.3239C48.5079 85.5892 48.6744 86.8541 48.8433 88.1182L49.0832 89.8324C49.1396 90.0977 49.0985 90.4225 49.3071 90.6259C49.5857 90.9797 50.206 90.8905 50.3898 90.4833C50.8308 89.6811 51.2732 88.88 51.7155 88.0783C53.0286 85.6792 54.3822 83.302 55.6913 80.9C55.7407 80.8093 55.7907 80.7185 55.8401 80.6278C57.5629 82.7242 59.3003 84.8091 61.0418 86.89C61.4222 87.3457 61.8091 87.7966 62.1918 88.2496C62.46 88.5082 62.6374 88.9737 63.0573 88.9846C63.4171 89.0313 63.7566 88.6806 63.7199 88.3235C63.6791 87.8912 63.6261 87.4603 63.5706 87.0296C63.4106 85.7419 63.2279 84.4571 63.0759 83.1683C63.0633 83.0683 63.0514 82.9682 63.0387 82.8675C64.8739 83.4902 66.7085 84.1134 68.5436 84.736C69.0391 84.8977 68.657 84.7993 69.18 84.9831C69.6056 85.0667 70.0627 84.7431 70.0669 84.2983C70.1036 84.1051 70.0008 83.9284 69.9173 83.7609C69.7881 83.4722 69.6224 83.2008 69.4783 82.9187C69.5099 82.9815 69.5415 83.0437 69.5737 83.1064C69.0915 82.1942 68.5584 81.3084 68.0582 80.4055C67.4813 79.3804 66.8848 78.3666 66.2776 77.3591C66.2742 77.3537 66.2714 77.349 66.2679 77.3443C68.4823 77.086 70.6959 76.8266 72.9091 76.561C75.9506 76.2053 78.997 75.8951 82.0384 75.5376C83.007 75.4284 83.977 75.3376 84.9426 75.2033C85.0756 75.1847 85.2108 75.1703 85.3467 75.157C86.4118 74.9222 87.4499 74.2473 88.2652 73.5557C88.6731 73.2096 88.9977 72.8142 89.3002 72.4037C89.6014 71.8149 89.8324 71.1883 89.9985 70.5527C90.7219 67.4766 89.7248 64.3544 88.9938 61.3739L88.9933 61.3751ZM17.8487 81.0662C16.8568 81.915 15.6066 81.5647 14.9343 79.3342C14.1746 77.0403 14.2758 74.3266 15.1435 72.0924C15.1376 72.0612 15.1329 72.0293 15.1306 71.9961C15.8772 69.9777 17.6501 67.7971 18.3272 68.3961C18.5489 68.601 18.6926 69.1252 18.764 69.8278C18.3559 69.8879 17.9529 69.9935 17.5476 70.0676C17.359 70.0796 17.1784 70.1708 17.0547 70.3132C16.9902 70.3827 16.9467 70.4601 16.9189 70.5412C16.7789 70.7436 16.7701 71.0067 16.7053 71.2397C16.6099 71.6549 16.5201 72.071 16.4303 72.4871C16.1952 73.6124 15.9235 74.7296 15.655 75.8472C15.4405 76.976 14.8624 78.236 15.4574 79.3347C16.1644 80.5476 17.9335 80.1812 18.5444 79.0631C18.9783 78.3629 19.0568 77.5205 19.2508 76.7355C19.5538 75.3852 19.849 74.0292 20.0242 72.6562C20.1259 71.7824 20.1825 70.9018 20.1588 70.0219C20.138 69.3262 20.0644 68.6009 19.7215 67.9822C18.9719 66.5761 17.3198 66.6242 16.2813 67.691C15.2343 68.7071 14.4929 70.0206 14.0572 71.4124C13.0199 73.9761 12.852 76.9217 13.6866 79.5613C13.63 79.5752 13.5636 79.5903 13.4818 79.6066C13.4532 79.6135 13.4246 79.6211 13.3961 79.6293C13.7331 79.5618 13.0835 79.6926 12.9466 79.735C12.6885 79.7983 12.4297 79.8597 12.1709 79.9217C11.9986 79.3605 11.8553 78.7905 11.7335 78.2164C10.9058 74.3834 11.354 68.6286 14.1315 65.6931C15.2127 64.5645 17.2625 63.8033 18.9826 64.8079C19.484 65.1084 20.2659 66.0653 20.57 67.7397C20.7379 68.6442 20.8287 69.7224 20.8258 70.8847C20.8032 70.8887 20.7811 70.8921 20.7585 70.8956C20.8078 71.2821 20.8207 71.6886 20.7602 72.0797C20.7589 72.1052 20.7569 72.1307 20.7556 72.1562C20.7661 72.1549 20.7759 72.1542 20.7863 72.1522C20.6787 73.9427 20.3516 75.8519 19.7376 77.6066C19.4448 78.4294 19.1385 79.255 18.7006 80.013C18.5187 80.3421 18.3543 80.5678 17.8497 81.0631L17.8487 81.0662ZM17.8696 72.2992C17.9571 72.0015 18.0421 71.7033 18.1284 71.4057C18.358 71.36 18.5875 71.313 18.816 71.2617C18.8013 72.2458 18.6984 73.3513 18.5162 74.375C18.2217 75.8919 17.8971 78.0132 17.4269 78.5321C17.3967 78.5689 17.3631 78.6022 17.3296 78.6361C17.2669 78.6869 17.2002 78.7331 17.1299 78.7733C16.9039 78.8702 16.8947 78.8529 16.7854 78.8568C16.7698 78.8548 16.7542 78.854 16.7386 78.8514C16.721 78.8483 16.7039 78.8421 16.6862 78.8377C16.66 78.8259 16.6348 78.811 16.6097 78.7966C16.5972 78.7864 16.5867 78.7772 16.5768 78.7686C16.5516 78.7363 16.5288 78.7026 16.5077 78.667C16.4882 78.6169 16.4739 78.5721 16.4641 78.5388C16.4533 78.472 16.4455 78.4057 16.4421 78.3385C16.4134 78.1139 16.5074 77.635 16.6552 77.0303C17.0216 75.444 17.3986 73.8594 17.869 72.3005L17.8696 72.2992ZM31.8194 79.9228C27.6511 80.4006 23.4771 80.841 19.3164 81.3827C20.1578 80.3922 20.6607 79.1213 21.1225 77.9159C21.4279 77.1039 21.7642 76.0354 22.0361 74.7529C22.3267 73.2956 22.418 72.2207 22.466 71.207C22.5342 68.5607 22.4651 65.3958 20.2854 63.5461C20.2459 63.5123 20.2042 63.4824 20.1636 63.4506C28.8642 62.654 37.5665 61.8734 46.2683 61.0866C46.2833 61.1233 46.3013 61.1598 46.3266 61.194C48.8035 65.0442 49.9091 69.9752 49.0349 74.5414C48.884 75.3586 48.3006 77.2857 48.2142 77.5369C48.1494 77.7259 48.0738 77.9108 48.002 78.0966C47.0653 78.2029 46.1286 78.3093 45.192 78.4156C45.1407 78.4167 45.0902 78.4215 45.0403 78.433C40.6347 78.9343 36.2284 79.4343 31.8212 79.922L31.8194 79.9228ZM55.1339 78.7363C53.4639 81.8303 51.8364 84.9466 50.1857 88.0516C50.0426 86.9435 49.8946 85.8364 49.7473 84.7293C49.6661 84.1351 49.5807 83.5418 49.4982 82.9477C49.4692 82.4965 48.9449 82.1797 48.5438 82.4096C48.2149 82.6109 47.9826 82.954 47.6847 83.2014C46.8368 83.9751 45.9497 84.7534 44.7826 85.6993C44.1239 86.2301 43.4571 86.7521 42.7814 87.2618C43.5209 85.3888 44.2501 83.5115 44.9838 81.6358C45.2395 80.9803 45.4958 80.3253 45.7515 79.6704C47.3736 79.487 48.9953 79.3055 50.6179 79.1289C52.1457 78.9583 53.6727 78.7865 55.2003 78.6141C55.1784 78.6546 55.1552 78.6952 55.1333 78.7358L55.1339 78.7363ZM52.1896 77.6217C51.2051 77.7333 50.2205 77.8455 49.2359 77.957C49.3255 77.7056 49.4111 77.452 49.5013 77.2018C49.8438 76.1501 50.0136 75.0549 50.1344 73.9581C50.4705 71.3283 50.317 68.6373 49.6545 66.0687C49.2771 64.5573 48.6889 63.1039 47.9433 61.7377C47.8033 61.4795 47.6544 61.2268 47.5018 60.9756C51.0785 60.6518 54.6551 60.3268 58.2315 59.9987C58.2378 60.1066 58.2728 60.2168 58.3457 60.3219C60.5534 63.7842 61.5728 68.5529 61.0368 72.5643C60.8793 73.8797 60.5767 75.1749 60.1708 76.4352C60.1289 76.5614 60.0987 76.652 60.0757 76.7223C58.9136 76.8537 57.7517 76.9876 56.5897 77.1203C56.4549 77.0969 56.3153 77.1097 56.1855 77.1665C54.854 77.3184 53.5218 77.4691 52.1903 77.6223L52.1896 77.6217ZM67.5233 82.8573C66.3501 82.4416 65.177 82.0259 64.0033 81.6108C63.4973 81.4314 62.9908 81.252 62.4849 81.0732C62.3605 81.0125 62.2293 80.9864 62.0913 80.9955C61.6624 81.0155 61.3126 81.4399 61.3856 81.8651C61.5849 82.8547 61.8392 84.535 62.0947 86.1534C60.3039 83.9688 58.5107 81.7869 56.6995 79.6199C56.6384 79.5344 56.5683 79.4699 56.4944 79.4237C56.5931 79.241 56.6937 79.0588 56.7904 78.8756C56.8604 78.7171 56.9593 78.5635 57.0449 78.4065C59.4722 78.1315 61.8994 77.8534 64.3264 77.5723C64.356 77.6241 64.3874 77.6751 64.4225 77.7253C64.6379 78.1237 64.8605 78.518 65.0938 78.906C65.8791 80.2378 66.7035 81.5458 67.5232 82.8567L67.5233 82.8573ZM88.4205 70.2352C88.2608 71.0227 87.7711 71.9881 87.2229 72.6833C87.2112 72.6927 87.1995 72.7035 87.1878 72.7129C86.8318 73.1012 86.1262 73.6267 84.9831 73.9406C84.3872 74.007 83.7887 74.0532 83.1946 74.1362C79.3679 74.5679 75.5435 75.0229 71.7159 75.4509C69.5673 75.6748 67.4205 75.9073 65.2733 76.1435C65.0365 76.0597 64.758 76.0953 64.5435 76.2242C63.4752 76.3422 62.4068 76.4591 61.3379 76.579C61.4188 76.3461 61.4965 76.1116 61.5711 75.8761C62.5429 72.5803 62.6099 69.0332 61.8822 65.6816C61.5555 64.1531 61.0349 62.6665 60.3456 61.2642C60.1271 60.822 59.8985 60.3848 59.649 59.9596C59.6303 59.9318 59.6128 59.9027 59.5958 59.873C60.2909 59.8089 60.9855 59.7461 61.6806 59.682C65.5333 59.3302 69.3838 58.9304 73.2378 58.6324C76.4605 58.3012 79.6823 57.949 82.9122 57.6934C85.8988 57.4486 87.1067 59.123 87.9113 62.52C88.4916 65.0628 89.0738 67.6705 88.4198 70.2347L88.4205 70.2352Z" fill="#20380E"/>
</g>
</svg>
