<svg version="1.1" id="Layer_1" xmlns="http://www.w3.org/2000/svg" xmlns:xlink="http://www.w3.org/1999/xlink" x="0" y="0" viewBox="0 0 470 250" style="enable-background:new 0 0 470 250" xml:space="preserve"><style>.st0{clip-path:url(#SVGID_00000072983564264580360160000013249201428543476100_);fill:#20380e}.st1{fill:#fff}.st1,.st2{clip-path:url(#SVGID_00000072983564264580360160000013249201428543476100_)}.st3{clip-path:url(#SVGID_00000074418704050440923890000004415650805713259423_);fill:#20380e}.st4,.st5{clip-path:url(#SVGID_00000072983564264580360160000013249201428543476100_);fill:#b4cc77}.st5{fill:#2c4d13}</style><switch><g><defs><path id="SVGID_1_" d="M0 0h470v250H0z"/></defs><clipPath id="SVGID_00000051347133109588291630000009365057840062403482_"><use xlink:href="#SVGID_1_" style="overflow:visible"/></clipPath><path style="clip-path:url(#SVGID_00000051347133109588291630000009365057840062403482_);fill:#20380e" d="M392.4 249H265.5l21-58c3.5-9.7 15.8-15.7 28.3-13.9l54.6 7.8c13.8 2 23.8 11.5 23.6 22.5l-.6 41.6z"/><path style="clip-path:url(#SVGID_00000051347133109588291630000009365057840062403482_);fill:#fff" d="m81.5 249 2.4-36.1c1-15.8 13-28.8 28.7-31l48.7-6.9c12.3-1.8 24.2 5.5 28.3 17.3l19.7 56.8H81.5z"/><path style="clip-path:url(#SVGID_00000051347133109588291630000009365057840062403482_);fill:#20380e" d="M209.2 250c-.4 0-.8-.3-1-.7l-19.7-56.8c-3.9-11.3-15.4-18.3-27.2-16.6l-48.7 6.9c-15.1 2.1-26.8 14.8-27.8 30L82.5 249c0 .6-.5 1-1.1 1-.6 0-1-.5-1-1.1l2.4-36.1c1.1-16.2 13.5-29.7 29.5-32l48.7-6.9c12.8-1.8 25.2 5.7 29.4 18l19.7 56.8c.2.5-.1 1.1-.6 1.3h-.3z"/><path style="clip-path:url(#SVGID_00000051347133109588291630000009365057840062403482_);fill:#fff" d="M203.1 259.2c.7.2 4.1-10 4.1-10s6.3-4.2 2.7-38.1c0 0-13.7-13.2 0-18.3 0 0-5.1-13.2 2-18.6 7.1-5.4 7.8 13 7.8 13s15.1-7.1 16.6 5.6c1.5 12.7-6.8 16.9-6.8 16.9s7.8 55.5-22.7 73.6l-3.7-24.1z"/><g style="clip-path:url(#SVGID_00000051347133109588291630000009365057840062403482_)"><defs><path id="SVGID_00000005260205839630156650000004670448391181544383_" d="M203.1 259.2c.7.2 4.1-10 4.1-10s6.3-4.2 2.7-38.1c0 0-13.7-13.2 0-18.3 0 0-5.1-13.2 2-18.6 7.1-5.4 7.8 13 7.8 13s15.1-7.1 16.6 5.6c1.5 12.7-6.8 16.9-6.8 16.9s7.8 55.5-22.7 73.6l-3.7-24.1z"/></defs><clipPath id="SVGID_00000181082655250273542260000010505020308715899561_"><use xlink:href="#SVGID_00000005260205839630156650000004670448391181544383_" style="overflow:visible"/></clipPath><path style="clip-path:url(#SVGID_00000181082655250273542260000010505020308715899561_);fill:#20380e" d="m201.6 260.7 2.8-2.8-2.8 2.8zm7.1 22.2-3.7-24-4 .6 3.7 24 4-.6zm20.7-73.3-2 .3v.1c0 .1 0 .2.1.4 0 .4.1 1 .2 1.7.2 1.5.3 3.7.5 6.4.3 5.4.3 12.8-.6 20.7-1.8 16-7.4 33.6-21.8 42.1l2 3.4c16.1-9.6 21.9-28.8 23.7-45.1.9-8.2.9-15.8.7-21.4-.1-2.8-.3-5.1-.5-6.6-.1-.8-.1-1.4-.2-1.8 0-.2 0-.4-.1-.5v-.1c0 .1 0 .1-2 .4zm4.8-16.6c.7 5.9-.9 9.6-2.5 11.8-.8 1.1-1.7 1.9-2.3 2.4-.3.2-.6.4-.7.5-.1.1-.1.1-.2.1l.9 1.8.9 1.8s.1 0 .1-.1c.1 0 .2-.1.3-.2.3-.2.7-.4 1.1-.8.9-.7 2-1.7 3.1-3.2 2.2-3 4-7.7 3.2-14.6l-3.9.5zm-14.6-5.9.8 1.8h.1c.1 0 .2-.1.4-.2.4-.2.9-.4 1.6-.6 1.4-.4 3.1-.9 4.8-1 1.8-.1 3.3.2 4.4 1 1 .7 2 2.1 2.4 4.8l4-.5c-.4-3.6-1.9-6.1-4.1-7.7-2.1-1.5-4.7-1.8-6.9-1.7-2.2.1-4.4.6-5.9 1.1-.8.3-1.4.5-1.9.7-.2.1-.4.2-.5.2-.1 0-.1.1-.1.1.1.2.1.2.9 2zm-6.6-11.4c.7-.5 1.1-.6 1.2-.6.1 0 .2 0 .5.2.6.5 1.2 1.8 1.8 3.8.5 1.8.8 3.8 1 5.4.1.8.1 1.5.2 1.9v.6l2-.1 2-.1v-.8c0-.5-.1-1.2-.2-2.1-.2-1.7-.5-3.9-1.1-6-.5-2-1.4-4.3-2.9-5.7-.8-.8-1.9-1.3-3.2-1.3-1.3 0-2.4.6-3.5 1.4l2.2 3.4zm-3.1 17 1.9-.7v-.1c0-.1-.1-.2-.1-.4-.1-.3-.3-.8-.5-1.5-.3-1.2-.7-2.9-.9-4.8-.4-3.8.2-7.5 2.8-9.5l-2.4-3.2c-4.4 3.4-4.8 9-4.4 13.1.2 2.1.7 4.1 1.1 5.5.2.7.4 1.3.5 1.7.1.2.1.4.2.5v.1c-.1.1-.1.1 1.8-.7zm0 18.4 1.4-1.4-.1-.1-.4-.4c-.3-.3-.8-.8-1.3-1.5-1-1.2-2.2-2.9-2.9-4.6-.8-1.8-1-3.4-.6-4.6.4-1.2 1.5-2.6 4.6-3.8l-1.4-3.7c-3.8 1.4-6.1 3.6-7 6.3-.9 2.6-.2 5.3.7 7.5 1 2.2 2.4 4.2 3.5 5.6.6.7 1.1 1.3 1.5 1.7.2.2.3.4.4.5l.1.1c.1-.2.1-.2 1.5-1.6zm-2.7 38.1 1.1 1.7h.1l.1-.1.4-.4c.3-.3.6-.7.9-1.3.7-1.1 1.4-2.9 2-5.7 1.2-5.6 1.8-15.4 0-32.5l-4 .4c1.8 16.9 1.1 26.2.1 31.2-.5 2.5-1.1 3.9-1.6 4.6-.2.3-.4.5-.4.6.2-.2.2-.2 1.3 1.5zm-4.8 11.9c.6.2 1.2.1 1.5-.1.3-.1.5-.3.7-.4.2-.2.4-.5.5-.7.2-.4.5-.9.7-1.3.5-1 1-2.3 1.4-3.6.5-1.3.9-2.6 1.3-3.5.2-.5.3-.9.4-1.2 0-.1.1-.3.1-.3v-.1l-1.9-.6-1.9-.6v.1c0 .1-.1.2-.1.3-.1.3-.2.7-.4 1.1-.3 1-.8 2.2-1.2 3.5-.5 1.3-.9 2.5-1.3 3.3-.2.4-.3.7-.4.9l.1-.1c.1-.1.2-.2.5-.3.3-.1.8-.3 1.4-.1l-1.4 3.7zm.6-1.9 1.4-1.4-4.3-4.3.9 6 2-.3zm3.7 24-2 .3.4 2.9 2.6-1.5-1-1.7zm22.7-73.6-.9-1.8-1.3.6.2 1.4 2-.2zm-9.8-22.5-2 .1.1 3 2.7-1.3-.8-1.8zm-7.8-13-1.2-1.6 1.2 1.6zm-1.9 18.6.7 1.9 1.9-.7-.7-1.9-1.9.7zm0 18.4 2-.2-.1-.7-.5-.5-1.4 1.4zm-2.7 38.1-1.1-1.7-.6.4-.2.7 1.9.6zm-4.1 10-1.4 1.4.3.3.4.1.7-1.8z"/></g><path style="clip-path:url(#SVGID_00000051347133109588291630000009365057840062403482_);fill:#20380e" d="M232.3 199c-1.7 3.1-3.7 4.8-6 5.1h-.1c-3.2.4-6.2-2.1-7.4-3.1l.6-.3c.9-.6 1.3-1.4 1.2-2.5-.2-4.8-8.6-5.4-9-5.5l-.1.9c.1 0 7.9.6 8.1 4.6 0 .8-.2 1.4-.8 1.8-1.5 1-5 .2-6.2-.1l-.4.8c.2 0 2.9.9 5.3.6h.2c.8.8 4.4 4.2 8.6 3.7h.1c2.7-.3 5-2.2 6.8-5.7l-.9-.3z"/><ellipse style="clip-path:url(#SVGID_00000051347133109588291630000009365057840062403482_);fill:#b4cc77" cx="242" cy="76" rx="67.5" ry="49"/><path style="clip-path:url(#SVGID_00000051347133109588291630000009365057840062403482_);fill:#b4cc77" d="m200.3 99.2-16.5 33.1 38.1-16.5z"/><path style="clip-path:url(#SVGID_00000051347133109588291630000009365057840062403482_);fill:#fff" d="M299 116.6c0-15.2-17-27.6-37.9-27.6s-37.9 12.3-37.9 27.6c0 15.2 17 27.6 37.9 27.6 3.7 0 7.4-.4 10.8-1.1l19.2 7.4-6.2-12.3c8.6-5.2 14.1-12.9 14.1-21.6z"/><path style="clip-path:url(#SVGID_00000051347133109588291630000009365057840062403482_);fill:#20380e" d="M271.8 142c.1 0 .2 0 .4.1l16.7 6.4-5-10c-.2-.5-.1-1.1.4-1.4 8.7-5.1 13.6-12.6 13.6-20.6C298 102 281.4 90 261.1 90c-20.3 0-36.9 11.9-36.9 26.5s16.6 26.5 36.9 26.5c3.6 0 7.1-.4 10.5-1.1.1.1.2.1.2.1zm19.2 9.4c-.1 0-.2 0-.4-.1l-18.9-7.3c-3.5.7-7.1 1.1-10.7 1.1-21.5 0-39-12.8-39-28.6s17.5-28.6 39-28.6 39 12.8 39 28.6c0 8.5-5 16.4-13.8 21.9l5.7 11.5c.2.4.1.8-.2 1.2-.1.2-.4.3-.7.3z"/><path style="clip-path:url(#SVGID_00000051347133109588291630000009365057840062403482_);fill:#2c4d13" d="M273.1 110.7c-.4 0-.8.2-1.1.4-.1.1-.2.3-.2.6 0 1 .7 2.5 1.7 3.9.3-.8.5-1.6.5-2.3.1-1.3-.2-2.2-.6-2.4-.1-.2-.2-.2-.3-.2zm-14-.4c-.1 0-.3 0-.4.1-1.1.3-2 1.6-2.1 3-.1.9 1.1 2.9 2.9 4.7 0 0 0-.1.1-.1 1.6-2.6 2.1-5.2 1.3-6.5-.4-.6-1-1.2-1.8-1.2zm-11.1 4.6c-.3.1-1.1 1.4-1.1 2.9v.7c1.6-.8 2.1-1.8 2.1-2.5 0-.6-.5-1.1-1-1.1zm4.3 10.6h-.7c-3.1-.4-5.2-1.8-6.2-4-1.3.4-3 .7-5 .9l-.2-2.1c1.9-.2 3.5-.5 4.7-.9-.1-.5-.1-1.1-.1-1.6.1-1.7.8-3.5 1.8-4.3.6-.5 1.2-.6 1.6-.6 1.6.2 2.9 1.6 2.9 3.3 0 .8-.4 2.9-3.7 4.5.7 1.5 2.2 2.4 4.5 2.7 2.2.3 4.6-1.5 6.4-3.6-2.3-2.1-3.9-4.8-3.8-6.5.1-2.3 1.7-4.4 3.6-4.9 1.7-.4 3.3.3 4.4 2 1.4 2 .9 5.3-1.2 8.7-.1.1-.1.2-.2.3 1.9 1.3 4.6 2.4 7.8 1 1.5-.7 2.7-1.7 3.5-2.9-1.6-1.8-2.7-4.1-2.7-5.9 0-1.1.4-1.9 1.2-2.4 1.7-1 2.9-.7 3.6-.2 1.1.7 1.7 2.3 1.6 4.3-.1 1.2-.5 2.6-1.1 3.8.3.3.6.5.9.7 2.2 1.3 2.9.6 2.9.6l1.6 1.3c-.1.1-1.6 2.2-5.6-.1-.3-.2-.7-.4-1-.7-1 1.4-2.4 2.6-4.2 3.3-3.1 1.4-6.6.9-9.8-1.3-1.9 2.6-4.7 4.6-7.5 4.6z"/><path style="clip-path:url(#SVGID_00000051347133109588291630000009365057840062403482_);fill:#fff" d="m354.9 151.3 2.5 33.1c.2 2.8-.2 5.5-1.2 8.1l-.3.8c-3.1 8.1-11.3 12.9-19.8 11.8-10.3-1.3-17.5-10.9-16.1-21.2l3.5-25.3 31.4-7.3z"/><path style="clip-path:url(#SVGID_00000051347133109588291630000009365057840062403482_);fill:#20380e" d="m324.3 159.6-3.4 24.6c-.7 4.7.6 9.4 3.4 13.2 2.9 3.8 7.1 6.2 11.7 6.8 8.1 1.1 15.8-3.5 18.7-11.2l.3-.8c.9-2.4 1.3-5.1 1.1-7.7l-2.4-31.9-29.4 7zm14.1 46.8c-.9 0-1.7-.1-2.6-.2-5.3-.7-9.9-3.4-13.1-7.6-3.2-4.2-4.6-9.4-3.8-14.7l3.5-25.3c.1-.4.4-.8.8-.9l31.4-7.5c.3-.1.6 0 .8.2.2.2.4.5.4.8l2.5 33.1c.2 2.9-.2 5.9-1.3 8.6l-.3.8c-2.9 7.7-10.2 12.7-18.3 12.7z"/><path style="clip-path:url(#SVGID_00000051347133109588291630000009365057840062403482_);fill:#20380e" d="M360.6 98.5c-10.2-7-24.9-6-27.7-2-1.8-2.3-4.5-4.2-7.8-5.2-7.6-2.3-15.4 1.1-17.5 7.6-1.8 5.7 1.3 11.8 7.1 14.9-2.2 3.7-4.1 7.9-5.5 12.4-5.7 17.9 23 28.3 28.4 30 14.8 4.6 31-4.9 36.1-21 5.2-16.4-.7-28.2-13.1-36.7z"/><path style="clip-path:url(#SVGID_00000051347133109588291630000009365057840062403482_);fill:#20380e" d="M360 103.2c-4.4.3-8.1 1.7-10.6 4.4-7 7.5-3.8 27.5 12.2 32.9 1 .3 2.2.2 3 .7 4.6-14.7 2.5-29-4.6-38z"/><path style="clip-path:url(#SVGID_00000051347133109588291630000009365057840062403482_);fill:#20380e" d="M314.1 113.4c5.8 4 14 7 23.3 7.8 15.6 1.5 29.3-3.4 34-11.2-3.3-8.7-9.3-15.1-17.5-17.6-13.9-4-29.9 5-39.8 21z"/><circle style="clip-path:url(#SVGID_00000051347133109588291630000009365057840062403482_);fill:#fff" cx="362.2" cy="148.2" r="11.6"/><path style="clip-path:url(#SVGID_00000051347133109588291630000009365057840062403482_);fill:#fff" d="M363.3 136.7c-2.4-.2-4.7.3-6.7 1.4-6.2-4-9.6-10.4-10.5-16.7-2.8.2-5.7.1-8.7-.2-9.1-.8-17.2-3.7-23-7.6-2.1 3.7-4 7.8-5.3 12.2-6.8 21.7-.5 43 14 47.6 10.9 3.4 23.3-3.6 31.7-16.4 1.7 1.5 3.9 2.4 6.4 2.7 6.3.6 12-4.1 12.6-10.5.5-6.3-4.1-11.9-10.5-12.5z"/><path style="clip-path:url(#SVGID_00000051347133109588291630000009365057840062403482_);fill:#20380e" d="M314.8 115.2c-1.9 3.5-3.5 7.2-4.7 11.1-3.2 10.3-3.6 20.9-1 29.6 2.5 8.7 7.6 14.6 14.3 16.7 10.1 3.2 22.1-3.1 30.5-16 .2-.2.4-.4.7-.5s.6 0 .8.2c1.7 1.4 3.7 2.2 5.8 2.4 2.8.3 5.5-.6 7.7-2.4 2.2-1.8 3.5-4.3 3.8-7.1.3-2.8-.6-5.5-2.4-7.7-1.8-2.2-4.3-3.5-7.1-3.8-2.1-.2-4.2.2-6.1 1.3-.3.2-.7.2-1.1 0-5.6-3.6-9.5-9.6-10.8-16.5-2.6.1-5.3 0-7.9-.2-8.5-.8-16.4-3.3-22.5-7.1zm14 60.2c-2 0-4-.3-6-.9-7.4-2.3-12.9-8.7-15.7-18-2.7-9.2-2.4-20.1 1-30.8 1.4-4.4 3.2-8.6 5.4-12.4.1-.2.4-.4.7-.5.3-.1.6 0 .8.1 5.9 4 13.9 6.6 22.5 7.4 2.9.3 5.8.3 8.5.2.5 0 1 .4 1.1.9.9 6.5 4.4 12.1 9.5 15.6 2.1-1 4.4-1.4 6.7-1.2 3.3.3 6.4 1.9 8.5 4.5 2.1 2.6 3.2 5.9 2.8 9.2-.3 3.4-1.9 6.4-4.5 8.5-2.6 2.2-5.9 3.2-9.2 2.9-2.2-.2-4.2-1-6-2.2-7.2 10.6-16.9 16.7-26.1 16.7zM333.1 97.1c-.4 0-.8-.2-1-.7-1.7-4.4-5.2-7-10.5-7.8-4-.6-7.6.2-7.7.2-.6.1-1.1-.2-1.2-.8-.1-.6.2-1.1.8-1.2.2 0 15.8-3.5 20.5 8.8.2.5-.1 1.1-.6 1.3-.1.2-.2.2-.3.2z"/><path style="clip-path:url(#SVGID_00000051347133109588291630000009365057840062403482_);fill:#20380e" d="M309.2 135c.1 1.8 1.1 3.2 2.3 3.1 1.1-.1 2-1.6 1.8-3.4s-1.1-3.2-2.3-3.1-1.9 1.7-1.8 3.4zM307 129c-.4 0-.8-.3-1-.7-.2-.5.1-1.1.7-1.3 3.9-1.3 7.7-.3 7.9-.2.5.1.9.7.7 1.3-.1.5-.7.9-1.3.7 0 0-3.5-.9-6.7.2h-.3zM326.2 137.1c.1 1.8 1.1 3.2 2.3 3.1 1.1-.1 2-1.6 1.8-3.4-.1-1.8-1.1-3.2-2.3-3.1s-1.9 1.6-1.8 3.4zM335.7 134.1c-.3 0-.6-.1-.8-.3 0-.1-4.2-4.7-9.3-3.8-.6.1-1.1-.3-1.2-.8-.1-.6.3-1.1.8-1.2 6.2-1.1 11 4.2 11.2 4.4.4.4.3 1.1-.1 1.5-.1.1-.3.2-.6.2zM319.4 156.2c-1.9 0-3.2-.5-3.2-.5-.5-.2-.8-.8-.6-1.3.2-.5.8-.8 1.3-.6.3.1 7.3 2.7 11.5-6.8.2-.5.8-.8 1.4-.5.5.2.8.8.5 1.4-3.1 6.9-7.7 8.3-10.9 8.3zM357.5 146.2c-.2 0-.5-.1-.7-.3-.4-.4-.5-1-.1-1.5.2-.2 3.9-4.4 9-3.1.6.1.9.7.7 1.3-.1.6-.7.9-1.3.7-3.9-1-6.9 2.4-7 2.4 0 .4-.3.5-.6.5z"/><path style="clip-path:url(#SVGID_00000051347133109588291630000009365057840062403482_);fill:#fff" d="m128.1 179.2-2.5.1c1.7-4.1-6.8-33.2-6.8-33.2l28.8-.8c0 .5 3.6 21.9 5.3 30.6l9-1.2c1.7 11.2-1.4 21.2-9 25.6-11.4 6.6-28.5-1.9-38.2-18.8-.1-.1-.1-.2-.2-.3l13.6-2z"/><path style="clip-path:url(#SVGID_00000051347133109588291630000009365057840062403482_);fill:#20380e" d="M116.3 181.8c4.6 7.5 10.7 13.5 17.5 16.8 6.9 3.4 13.6 3.6 18.7.6 6.7-3.9 10-12.8 8.6-23.5l-8 1.1c-.5.1-1-.3-1.1-.8-1.3-6.4-4.5-24.9-5.2-29.7l-26.6.7c1.8 6.3 7 24.9 6.6 31.1h1.3c.5 0 1 .4 1 1 0 .5-.4 1-.9 1.1l-11.9 1.6zm28.1 21.6c-3.7 0-7.6-1-11.6-2.9-7.4-3.6-14.1-10.3-19-18.6l-.2-.3c-.2-.3-.2-.7 0-1 .2-.3.4-.5.8-.6l10.3-1.4c.8-3.5-3.7-21.4-6.9-32.3-.1-.3 0-.6.2-.9.2-.3.5-.4.8-.4l28.8-.8c.3 0 .6.1.8.3.2.2.3.4.3.7.1 1.1 3.3 20.2 5.1 29.4l8-1.1c.6-.1 1.1.3 1.2.9 1.8 12-1.8 22.2-9.5 26.6-2.7 1.7-5.8 2.4-9.1 2.4z"/><path style="clip-path:url(#SVGID_00000051347133109588291630000009365057840062403482_);fill:#20380e" d="M139.7 154.7c17.7-.5 31.7-15.4 31.2-33.2s-15.3-31.8-33.1-31.2-38.7 11.2-38.1 28.9 22.2 36.1 40 35.5z"/><path style="clip-path:url(#SVGID_00000051347133109588291630000009365057840062403482_);fill:#fff" d="M120 134.3c-1.6-4.8-1.7-10-.1-15.2 4.1-13.1 18-20.4 31.1-16.3 10.2 3.2 16.8 12.4 17.3 22.5 3.8 6 5 13.5 2.8 20.8-4.1 13.1-18 20.4-31.1 16.3-6.9-2.2-12.2-7.1-15-13.2-2.4 3.1-6.5 4.6-10.5 3.4-5-1.6-7.8-7-6.3-12s6.8-7.8 11.8-6.3z"/><path style="clip-path:url(#SVGID_00000051347133109588291630000009365057840062403482_);fill:#20380e" d="M124.9 148.2h.1c.4 0 .7.3.8.6 2.8 6 8 10.6 14.4 12.6 12.5 3.9 25.9-3.1 29.8-15.6 2.1-6.7 1.1-14-2.6-19.9-.1-.2-.2-.3-.2-.5-.5-9.9-7.1-18.6-16.6-21.6-12.5-3.9-25.9 3.1-29.8 15.6-1.5 4.7-1.4 9.8.1 14.5.1.4 0 .8-.2 1-.3.3-.7.4-1 .3-4.4-1.3-9.1 1.2-10.5 5.6-.7 2.2-.5 4.5.6 6.5s2.8 3.5 5 4.2c3.4 1.1 7.2-.1 9.4-3 .1-.2.4-.3.7-.3zm22.4 16.4c-2.6 0-5.2-.4-7.7-1.2-6.4-2-11.7-6.5-14.9-12.3-2.8 2.7-6.8 3.7-10.6 2.5-5.6-1.8-8.7-7.7-6.9-13.3 1.5-4.9 6.4-7.9 11.3-7.4-1.2-4.7-1.1-9.5.4-14.1 4.3-13.6 18.8-21.2 32.4-16.9 10.2 3.2 17.4 12.5 18 23.2 4 6.4 5 14.2 2.7 21.4-3.5 11-13.7 18.1-24.7 18.1z"/><path style="clip-path:url(#SVGID_00000051347133109588291630000009365057840062403482_);fill:#20380e" d="M122.6 144c-.3 0-.6-.1-.8-.3-1.8-2-4.8-3-7.5-2.4-.6.1-1.1-.2-1.2-.8s.2-1.1.8-1.2c3.4-.8 7.1.5 9.5 3.1.4.4.3 1.1-.1 1.5-.2 0-.5.1-.7.1zM159.5 143.5c-2.6 0-5-1.1-6.5-2.9-.4-.4-.3-1.1.2-1.5.4-.4 1.1-.3 1.5.2 1.1 1.4 3 2.2 5 2.2s3.9-.9 4.9-2.3c.3-.5 1-.5 1.4-.2.5.3.5 1 .2 1.4-1.5 1.9-3.9 3.1-6.6 3.1h-.1zM141.4 122.3c-.1 0-.2 0-.4-.1-.5-.2-.8-.8-.6-1.3 2.2-5.8 7.5-3.9 9.3-3.3l.2.1c.5.2.8.8.7 1.3-.2.5-.8.8-1.3.7l-.3-.1c-2.5-.9-5.3-1.5-6.7 2.1-.1.3-.4.6-.9.6zM163.4 131.2c-.2 0-.4-.1-.6-.2-3.5-2.2-5.6-5.5-6.4-7.6-.8-2.1-.5-4.7.9-6.9 1.4-2.3 3.6-3.9 5.9-4.2.6-.1 1.1.3 1.2.9.1.6-.3 1.1-.9 1.2-1.7.2-3.4 1.4-4.4 3.2-1 1.7-1.3 3.6-.7 5.1.5 1.4 2.3 4.4 5.6 6.6.5.3.6 1 .3 1.4-.2.3-.5.5-.9.5z"/><path style="clip-path:url(#SVGID_00000051347133109588291630000009365057840062403482_);fill:#20380e" d="M164.3 123.8c.1 1.7-.9 3.1-2.1 3.1-1.2.1-2.3-1.3-2.3-3-.1-1.7.9-3.1 2.1-3.1 1.2 0 2.3 1.3 2.3 3zM150.3 126.8c.1 1.7-.9 3.1-2.1 3.1-1.2.1-2.3-1.3-2.3-3-.1-1.7.9-3.1 2.1-3.1 1.2 0 2.2 1.3 2.3 3zM155 112.4c0 .8-.6 1.5-1.4 1.5-.8 0-1.5-.6-1.6-1.5 0-.8.6-1.5 1.4-1.5.8.1 1.5.7 1.6 1.5zM113.4 122.3c-.5 4.1-.8 8.2-.9 12.3 0 .4.2.7.6.7 3.6.1 7.1-.5 10.5-1.6 6.2-2.1 11.6-6.3 15.2-11.8 3.9-6 5.5-13.4 4.6-20.5-.1-.8-1.3-.7-1.3.1-2.5-2-6.1-2-9.1-1.3-3.3.8-6.3 2.5-9.1 4.4-3.1 2-5.9 4.1-7.6 7.4-1.8 3.1-2.5 6.7-2.9 10.3z"/><path style="clip-path:url(#SVGID_00000051347133109588291630000009365057840062403482_);fill:#20380e" d="M100.4 113.7s-5.1 14.9 1.3 29.6c0 0-9.8 9.9-4 25.3 0 0-11.1.9-6.1 21.9 0 0 18.5-1.6 14.7-18.5 0 0 13.8-5 9.2-24 0 0 11.5-3.2 10.6-21.2L114.4 115l-14-1.3zM124.7 248.6c-.5 0-.9-.3-1-.8l-6.9-27.5c-.1-.6.2-1.1.8-1.3.6-.1 1.1.2 1.2.8l6.9 27.5c.1.6-.2 1.1-.8 1.3h-.2z"/></g></switch></svg>