<svg xmlns="http://www.w3.org/2000/svg" xmlns:xlink="http://www.w3.org/1999/xlink" xml:space="preserve" id="Layer_1" x="0" y="0" style="enable-background:new 0 0 220 220" version="1.1" viewBox="0 0 220 220"><style>.st0,.st1{clip-path:url(#SVGID_00000163071028091369807140000000077930373637564551_);fill:#f5f5f5}.st1{fill:#fff}.st2{fill:#20380e}.st2,.st3{clip-path:url(#SVGID_00000163071028091369807140000000077930373637564551_)}.st4,.st5{clip-path:url(#SVGID_00000103251805376269580500000006087481410212105401_);fill:#20380e}.st5{clip-path:url(#SVGID_00000022558975744722676730000001695858901067746449_)}.st6{fill:#fff}.st6,.st7{clip-path:url(#SVGID_00000083076837066173989840000016120120160712581535_)}.st8{clip-path:url(#SVGID_00000039811904771197686530000018178132343509301436_)}.st8,.st9{fill:#20380e}.st10,.st9{clip-path:url(#SVGID_00000155146590384229745450000005487406969780155525_)}.st10{fill:#94b73d}.st11{clip-path:url(#SVGID_00000091694346906264227640000005154893064050853519_)}.st11,.st12,.st13{fill:#20380e}.st12{clip-path:url(#SVGID_00000083076837066173989840000016120120160712581535_)}.st13{clip-path:url(#SVGID_00000085951300163078211950000005338751860421517492_)}.st14{clip-path:url(#SVGID_00000083076837066173989840000016120120160712581535_);fill:#94b73d}.st15{clip-path:url(#SVGID_00000013884721567815764550000011781811081308776584_);fill:#20380e}</style><switch><g><defs><path id="SVGID_1_" d="M0 0h220v220H0z"/></defs><clipPath id="SVGID_00000079459353985545471410000016833562081126501527_"><use xlink:href="#SVGID_1_" style="overflow:visible"/></clipPath><path d="M100.5 36.4c25-2 48.9 6.1 65.9 17.2 17.1 11.2 27.2 25.4 28.3 40.6 1.1 15.3-6.6 29.8-17.9 44.2-11.5 14.1-26.7 28.1-44.2 37.1-33.7 18.9-72.3 3.6-90.7-42.1-18.5-45.5 7.3-94.4 58.6-97z" style="clip-path:url(#SVGID_00000079459353985545471410000016833562081126501527_);fill:#f5f5f5"/><path d="M29.6 169.8h145.6c5.5 0 10-4.5 10-10V64.5c0-5.5-4.5-10-10-10H29.6c-5.5 0-10 4.5-10 10v95.3c0 5.5 4.5 10 10 10z" style="clip-path:url(#SVGID_00000079459353985545471410000016833562081126501527_);fill:#fff"/><path d="M29.6 55.1c-5.2 0-9.4 4.2-9.4 9.4v95.3c0 5.2 4.2 9.4 9.4 9.4h145.6c5.2 0 9.4-4.2 9.4-9.4V64.5c0-5.2-4.2-9.4-9.4-9.4H29.6zm145.6 115.3H29.6c-5.9 0-10.6-4.8-10.6-10.6V64.5c0-5.9 4.8-10.6 10.6-10.6h145.6c5.9 0 10.6 4.8 10.6 10.6v95.3c0 5.8-4.8 10.6-10.6 10.6z" style="clip-path:url(#SVGID_00000079459353985545471410000016833562081126501527_);fill:#20380e"/><path d="M33.1 80.9H43v9.9h-9.9z" style="clip-path:url(#SVGID_00000079459353985545471410000016833562081126501527_);fill:#fff"/><g style="clip-path:url(#SVGID_00000079459353985545471410000016833562081126501527_)"><defs><path id="SVGID_00000100376057320422326950000017266366186103785103_" d="M33.1 80.9H43v9.9h-9.9z"/></defs><clipPath id="SVGID_00000044168322353074354770000004728748712785389208_"><use xlink:href="#SVGID_00000100376057320422326950000017266366186103785103_" style="overflow:visible"/></clipPath><path d="M34.4 90.8v-9.9h-2.6v9.9h2.6zm8.6-1.3h-9.9v2.6H43v-2.6zm-1.3-8.6v9.9h2.6v-9.9h-2.6zm-8.6 1.3H43v-2.6h-9.9v2.6zm0 8.6h-1.3v1.3h1.3v-1.3zm9.9 0v1.3h1.3v-1.3H43zm0-9.9h1.3v-1.3H43v1.3zm-9.9 0v-1.3h-1.3v1.3h1.3z" style="clip-path:url(#SVGID_00000044168322353074354770000004728748712785389208_);fill:#20380e"/></g><path d="M49.2 84.8H69V86H49.2zm-10.5 3.1-3.6-3.5.9-.9 2.7 2.7 8-8 .8.9zm137-27.5c-1.1 0-2.1.9-2.1 2.1s.9 2.1 2.1 2.1 2.1-.9 2.1-2.1-1-2.1-2.1-2.1zm0 5.4c-1.8 0-3.3-1.5-3.3-3.3 0-1.8 1.5-3.3 3.3-3.3 1.8 0 3.3 1.5 3.3 3.3 0 1.8-1.5 3.3-3.3 3.3zm-9-5.4c-1.1 0-2.1.9-2.1 2.1s.9 2.1 2.1 2.1c1.1 0 2.1-.9 2.1-2.1s-1-2.1-2.1-2.1zm0 5.4c-1.8 0-3.3-1.5-3.3-3.3 0-1.8 1.5-3.3 3.3-3.3 1.8 0 3.3 1.5 3.3 3.3 0 1.8-1.5 3.3-3.3 3.3zm-9-5.4c-1.1 0-2.1.9-2.1 2.1s.9 2.1 2.1 2.1c1.1 0 2.1-.9 2.1-2.1s-1-2.1-2.1-2.1zm0 5.4c-1.8 0-3.3-1.5-3.3-3.3 0-1.8 1.5-3.3 3.3-3.3 1.8 0 3.3 1.5 3.3 3.3 0 1.8-1.5 3.3-3.3 3.3z" style="clip-path:url(#SVGID_00000079459353985545471410000016833562081126501527_);fill:#20380e"/><path d="M33.1 98.7H43v9.9h-9.9z" style="clip-path:url(#SVGID_00000079459353985545471410000016833562081126501527_);fill:#fff"/><g style="clip-path:url(#SVGID_00000079459353985545471410000016833562081126501527_)"><defs><path id="SVGID_00000064328965778385331660000001895495795343223447_" d="M33.1 98.7H43v9.9h-9.9z"/></defs><clipPath id="SVGID_00000124847090950827971600000006956789322142489246_"><use xlink:href="#SVGID_00000064328965778385331660000001895495795343223447_" style="overflow:visible"/></clipPath><path d="M34.4 108.6v-9.9h-2.6v9.9h2.6zm8.6-1.3h-9.9v2.6H43v-2.6zm-1.3-8.6v9.9h2.6v-9.9h-2.6zm-8.6 1.3H43v-2.6h-9.9v2.6zm0 8.6h-1.3v1.3h1.3v-1.3zm9.9 0v1.3h1.3v-1.3H43zm0-9.9h1.3v-1.3H43v1.3zm-9.9 0v-1.3h-1.3v1.3h1.3z" style="clip-path:url(#SVGID_00000124847090950827971600000006956789322142489246_);fill:#20380e"/></g><path d="M49.2 102.7H69v1.2H49.2zm-15.5 22.8h8.6v-8.6h-8.6v8.6zm9.3 1.2h-9.9c-.3 0-.6-.3-.6-.6v-9.9c0-.3.3-.6.6-.6H43c.3 0 .6.3.6.6v9.9c0 .4-.3.6-.6.6zm6.2-6.5H69v1.2H49.2zm-10.5-14.4-3.6-3.5.9-.9 2.7 2.6 8-8 .8.9z" style="clip-path:url(#SVGID_00000079459353985545471410000016833562081126501527_);fill:#20380e"/><g style="clip-path:url(#SVGID_00000079459353985545471410000016833562081126501527_)"><defs><path id="SVGID_00000016762641167257837450000009447666367450219957_" d="M0 0h220v220H0z"/></defs><clipPath id="SVGID_00000093163959734741161600000012722260061625753734_"><use xlink:href="#SVGID_00000016762641167257837450000009447666367450219957_" style="overflow:visible"/></clipPath><path d="M107.9 207.1s1.2 40.7 4.5 69.9h19l4.7-59.5 6.3 59.5h20.4s3-44.6 2-69.9h-56.9z" style="clip-path:url(#SVGID_00000093163959734741161600000012722260061625753734_);fill:#fff"/><g style="clip-path:url(#SVGID_00000093163959734741161600000012722260061625753734_)"><defs><path id="SVGID_00000155829759330880461010000016823629374668725168_" d="M107.9 207.1s1.2 40.7 4.5 69.9h19l4.7-59.5 6.3 59.5h20.4s3-44.6 2-69.9h-56.9z"/></defs><clipPath id="SVGID_00000129926141618060812000000018152602444625877165_"><use xlink:href="#SVGID_00000155829759330880461010000016823629374668725168_" style="overflow:visible"/></clipPath><path d="M164.8 205.1h-56.9v4h56.9v-4zm-2 71.9 2 .1v-.5c0-.3.1-.8.1-1.5.1-1.3.2-3.1.3-5.4.3-4.6.6-11 .9-18.1.6-14.3 1.1-31.9.6-44.6l-4 .2c.5 12.5 0 29.9-.6 44.3-.3 7.1-.7 13.5-.9 18.1-.1 2.3-.2 4.1-.3 5.4 0 .6-.1 1.1-.1 1.5v.5c.1-.1.1-.1 2 0zm-20.3 2h20.4v-4h-20.4v4zm-8.3-61.3 6.3 59.5 4-.4-6.3-59.5-4 .4zm-.8 59.5 4.7-59.5-4-.3-4.7 59.5 4 .3zm-21 1.8h19v-4h-19v4zm-4.5-71.9-2 .1v1.7c0 1.2.1 2.9.2 5 .2 4.3.4 10.3.8 17.2.7 13.8 1.9 31.4 3.5 46l4-.5c-1.7-14.5-2.8-32-3.5-45.8-.4-6.9-.6-12.9-.8-17.2-.1-2.1-.1-3.8-.2-5v-1.7c0 .1 0 .1-2 .2zm56.9 0 2-.1-.1-1.9h-1.9v2zm-2 69.9v2h1.9l.1-1.9-2-.1zm-20.3 0-2 .2.2 1.8h1.8v-2zm-6.3-59.5 2-.2-4 .1 2 .1zm-4.8 59.5v2h1.8l.1-1.8-1.9-.2zm-19 0-2 .2.2 1.8h1.8v-2zm-4.5-69.9v-2h-2.1l.1 2.1 2-.1z" style="clip-path:url(#SVGID_00000129926141618060812000000018152602444625877165_);fill:#20380e"/></g><path d="M121.6 129.8h28.5s9.4 6 12.3 28.1 4.1 51.8 4.1 51.8H106s-.6-38.9 4.2-57.8c4.6-18.2 11.4-22.1 11.4-22.1z" style="clip-path:url(#SVGID_00000093163959734741161600000012722260061625753734_);fill:#fff"/><g style="clip-path:url(#SVGID_00000093163959734741161600000012722260061625753734_)"><defs><path id="SVGID_00000040549608719704941550000001515490124434485898_" d="M0 0h220v220H0z"/></defs><clipPath id="SVGID_00000063616231211335484810000000941822754209385142_"><use xlink:href="#SVGID_00000040549608719704941550000001515490124434485898_" style="overflow:visible"/></clipPath><path d="M113.9 143.6h44.3v10.1h-44.3zm0 17.9h44.3v10.1h-44.3zm0 19h44.3v10.1h-44.3z" style="clip-path:url(#SVGID_00000063616231211335484810000000941822754209385142_);fill:#20380e"/><path d="M103 201.2h66v10.1h-66z" style="clip-path:url(#SVGID_00000063616231211335484810000000941822754209385142_);fill:#94b73d"/></g><path d="m86.8 143.2-2.9-3.7s-.2-1.1-.7-1.9c0 0 1.4-5 1.6-6.9.2-1.9.5-5.8-1.6-6.1-2.1-.2-3.3 4.2-3.5 6 0 0-1.6-4.5-3.1-6-1.4-1.5-4.1-3.4-5.4-2.9-1.3.4-1.4 2.2.2 3.9s2.5 4.8 2.5 4.8-3.2-4.5-4.9-5.7c-1.6-1.2-3.6-2-4.9-.6-1.4 1.4-1.5 3.3-.9 4.8s2.6 3.8 3.3 5.3c0 0-2.4-3-5-3.2-1.8-.2-2.2 2.2 0 3.6s5 4.8 5.7 5.9 2.5 3.9 5.2 4.7c0 0 2.5 3.9 4.3 7.1l10.1-9.1z" style="clip-path:url(#SVGID_00000093163959734741161600000012722260061625753734_);fill:#fff"/><g style="clip-path:url(#SVGID_00000093163959734741161600000012722260061625753734_)"><defs><path id="SVGID_00000071534822803930918350000012977601437914653073_" d="m86.8 143.2-2.9-3.7s-.2-1.1-.7-1.9c0 0 1.4-5 1.6-6.9.2-1.9.5-5.8-1.6-6.1-2.1-.2-3.3 4.2-3.5 6 0 0-1.6-4.5-3.1-6-1.4-1.5-4.1-3.4-5.4-2.9-1.3.4-1.4 2.2.2 3.9s2.5 4.8 2.5 4.8-3.2-4.5-4.9-5.7c-1.6-1.2-3.6-2-4.9-.6-1.4 1.4-1.5 3.3-.9 4.8s2.6 3.8 3.3 5.3c0 0-2.4-3-5-3.2-1.8-.2-2.2 2.2 0 3.6s5 4.8 5.7 5.9 2.5 3.9 5.2 4.7c0 0 2.5 3.9 4.3 7.1l10.1-9.1z"/></defs><clipPath id="SVGID_00000148625828222331091920000001084577255304342713_"><use xlink:href="#SVGID_00000071534822803930918350000012977601437914653073_" style="overflow:visible"/></clipPath><path d="m87.2 142.3-.9 1.8.9-1.8zm-9.8 10.8 10-9.2-1.3-1.5-10 9.2 1.3 1.5zm-5-7.8-.8.5s0 .1.1.1c.1.1.2.3.3.5.3.4.6 1 1.1 1.7.9 1.4 1.9 3.1 2.8 4.7l1.7-1c-.9-1.6-2-3.4-2.9-4.8-.4-.7-.8-1.3-1.1-1.7-.1-.2-.2-.4-.3-.5 0-.1-.1-.1-.1-.1 0 .1 0 .1-.8.6zm-6-4.1c.4.5 1 1.6 2 2.6.9 1 2.2 2.1 3.8 2.5l.5-1.9c-1.1-.3-2.1-1.1-2.9-1.9-.8-.9-1.4-1.8-1.8-2.4l-1.6 1.1zm-5.4-5.7c1 .6 2.1 1.7 3.2 2.9 1 1.1 1.9 2.3 2.2 2.8l1.7-1.1c-.4-.6-1.3-1.8-2.4-3-1.1-1.2-2.4-2.5-3.6-3.2l-1.1 1.6zm.6-5.4c-.7-.1-1.3.1-1.8.5s-.7 1-.8 1.6c-.1 1.2.6 2.5 2 3.3l1.1-1.7c-.9-.5-1-1.2-1-1.5 0-.2.1-.2.1-.2s.1-.1.3-.1l.1-1.9zm4.9 4.2.8-.6-.1-.1c-.1-.1-.2-.2-.3-.4-.3-.3-.7-.7-1.2-1.1-1-.8-2.4-1.8-4-1.9l-.2 2c1 .1 2 .7 2.9 1.5.4.4.8.7 1 1l.3.3.1.1c-.1-.2-.1-.2.7-.8zm-4.2-5c.4.9 1.1 1.9 1.7 2.9.7 1 1.3 1.9 1.6 2.5l1.8-.8c-.4-.9-1.1-1.9-1.8-2.8-.7-1-1.2-1.8-1.5-2.5l-1.8.7zm1-5.9c-1.7 1.7-1.8 4.1-1.1 5.9l1.9-.8c-.5-1.2-.4-2.7.7-3.8l-1.5-1.3zm6.3.5c-.9-.6-1.9-1.2-2.9-1.4-1.1-.2-2.3-.1-3.3.9l1.4 1.4c.4-.4.8-.5 1.4-.4.7.1 1.4.6 2.2 1.1l1.2-1.6zm4.3 6.5.8-.6-.1-.1c-.1-.1-.2-.3-.4-.5-.3-.4-.8-1.1-1.3-1.7-.5-.6-1.1-1.3-1.6-1.9-.5-.6-1.1-1.2-1.6-1.5l-1.2 1.6c.3.2.8.7 1.3 1.2.5.6 1.1 1.2 1.6 1.8.5.6.9 1.2 1.3 1.7.2.2.3.4.4.5 0 .1.1.1.1.1-.2 0-.2 0 .7-.6zm-3.3-4.1c.7.7 1.2 1.8 1.7 2.7.2.5.4.9.5 1.2.1.2.1.3.1.4v.1l1-.3 1-.3v-.1c0-.1-.1-.2-.1-.4-.1-.3-.3-.8-.5-1.3-.4-1-1.1-2.4-2-3.3l-1.7 1.3zm.3-5.5c-1.1.4-1.7 1.3-1.7 2.4 0 1 .5 2.1 1.4 3.1l1.5-1.4c-.7-.7-.9-1.3-.9-1.7 0-.3.1-.5.3-.5l-.6-1.9zm6.4 3.2c-.8-.8-1.9-1.7-3-2.4-.5-.3-1.1-.6-1.7-.8-.5-.2-1.2-.3-1.8-.1l.6 1.9s.2 0 .6.1c.4.1.8.3 1.2.6.9.5 1.9 1.3 2.5 2l1.6-1.3zm2.3 6.7.9-.3s0-.1-.1-.2c0-.1-.1-.3-.2-.5-.2-.5-.4-1.1-.7-1.7-.6-1.3-1.4-2.9-2.3-3.8l-1.5 1.4c.6.6 1.3 2 1.9 3.3.3.6.5 1.2.7 1.7.1.2.2.4.2.5 0 .1 0 .1.1.1.1-.2.1-.2 1-.5zm3.7-7c-.9-.1-1.7.3-2.2.9-.5.5-.9 1.2-1.3 1.9-.6 1.4-1 3.1-1.2 4l2 .3c.1-.8.5-2.3 1-3.5.3-.6.6-1.1.8-1.4.3-.3.5-.3.6-.3l.3-1.9zm2.5 7.1c.1-1 .2-2.5 0-3.9-.1-.7-.3-1.4-.7-2-.4-.6-1-1.1-1.9-1.2l-.2 2c.2 0 .3.1.4.3.2.3.3.7.4 1.2.2 1.1 0 2.5-.1 3.4l2.1.2zm-2.6 6.8 1 .3v-.2c0-.1.1-.3.2-.6.1-.5.3-1.2.5-1.9.4-1.5.8-3.3.9-4.3l-2-.2c-.1.9-.5 2.5-.9 4-.2.7-.4 1.4-.5 1.9-.1.2-.1.4-.2.6v.2c0-.1 0-.1 1 .2zm.7 1.9 1-.2v-.2c0-.1-.1-.3-.1-.5-.1-.4-.3-1-.6-1.5l-1.7 1.1c.2.3.3.7.4 1 .1.2.1.3.1.4v.1c-.1 0-.1 0 .9-.2zm3.6 3.1-2.9-3.7-1.6 1.2 2.9 3.7 1.6-1.2zm-.7.6.7.7 1.1-1-1.3-.7-.5 1zm-10.1 9.2-.9.5.6 1.1.9-.8-.6-.8zm-4.3-7.1.8-.5-.2-.3-.4-.1-.2.9zm-10.9-14.2-.1 1 .1-1zm5 3.2-.8.6 1.7-1.1-.9.5zm2.5-9.6-.6.8.6-.8zm4.9 5.7-.9.6 1.8-.9-.9.3zm-2.7-8.7.3 1-.3-1zm8.4 9-.9.3 1.9-.2-1-.1zm5.2 0-1-.1 1 .1zm-1.6 6.9-1-.3-.1.4.2.4.9-.5zm.7 1.9-1 .2v.2l.1.2.9-.6zm2.9 3.7-.8.6.1.2.2.1.5-.9z" style="clip-path:url(#SVGID_00000148625828222331091920000001084577255304342713_);fill:#20380e"/></g><path d="M150.2 198.6h17.1s-.4-8.1-.8-17.1c0 0 15.6-10.3 16.8-20.5 1.2-10.2-20.9-30.5-34.4-33.8l1.3 71.4zm-27.4-71.4s-5.4 36.6-4.7 72h-16s.6-17.7 1.6-24c0 0-5.9 4.9-12.1-.2-6.2-5.1-15.6-22.7-15.6-22.7s3.7-8.1 10.4-10c0 0 7.4 6.3 11.9 10.8 0 0 6-15.2 14.7-22.1 5.1-3.9 9.8-3.8 9.8-3.8z" style="clip-path:url(#SVGID_00000093163959734741161600000012722260061625753734_);fill:#20380e"/><path d="M134.1 64c-12.5 0-20 8-23 12-6.6 8.9-6.1 19.6-5 28.4 1.9 14.7 11.5 21.3 11.5 21.3s.7 13.3 20.2 12.4c0 0-13.3 38.9 4.2 47.1 0 0 8.5-1.8 9.6-19.4s1.4-23.9.6-36.7c0 0 .5-2.4-.8-3.7 0 0 7.6-4 10.7-20.2 2.7-13.8-4-41.3-28-41.2z" style="clip-path:url(#SVGID_00000093163959734741161600000012722260061625753734_);fill:#20380e"/><path d="M133.4 75.6c-7.4 0-20.8 12.2-21.6 23.5-1.1 15.3 6.4 27.3 22.2 27.5s23.3-10 23.3-26.9c0-8.1-10.5-24.1-23.9-24.1z" style="clip-path:url(#SVGID_00000093163959734741161600000012722260061625753734_);fill:#fff"/><g style="clip-path:url(#SVGID_00000093163959734741161600000012722260061625753734_)"><defs><path id="SVGID_00000060725374322898582460000015484683252181115793_" d="M133.4 75.6c-7.4 0-20.8 12.2-21.6 23.5-1.1 15.3 6.4 27.3 22.2 27.5s23.3-10 23.3-26.9c0-8.1-10.5-24.1-23.9-24.1z"/></defs><clipPath id="SVGID_00000163038825213764991270000000760555520944264833_"><use xlink:href="#SVGID_00000060725374322898582460000015484683252181115793_" style="overflow:visible"/></clipPath><path d="M158.3 99.7c0-4.4-2.8-10.6-7.2-15.7s-10.6-9.4-17.7-9.4v2c6.3 0 12 3.8 16.2 8.7 4.2 4.9 6.7 10.7 6.7 14.4h2zM134 127.5c8.1.1 14.3-2.5 18.4-7.4 4.1-4.9 6-11.9 6-20.5h-2c0 8.3-1.9 14.8-5.5 19.2-3.6 4.4-9.2 6.8-16.8 6.7l-.1 2zM110.8 99c-.6 7.8 1.1 14.9 5 20 3.9 5.2 10.1 8.4 18.2 8.5v-2c-7.6-.1-13.1-3-16.7-7.7-3.5-4.7-5.1-11.2-4.6-18.7l-1.9-.1zm22.6-24.4c-2.1 0-4.5.9-6.9 2.2-2.4 1.4-4.9 3.3-7.1 5.6-4.5 4.5-8.2 10.6-8.6 16.6l2 .1c.4-5.3 3.8-11 8.1-15.3 2.1-2.2 4.5-4 6.7-5.3 2.2-1.3 4.3-2 5.9-2v-1.9zm-21.6 24.5-1-.1 1 .1z" style="clip-path:url(#SVGID_00000163038825213764991270000000760555520944264833_);fill:#20380e"/></g><path d="m156.9 149.1 20.9 31.9c1 1.5.6 3.6-1 4.6l-22.1 14.6c-1.6 1-3.7.6-4.7-1.1l-19.5-32.9c-.8-1.4-.5-3.2.7-4.2 3.2-2.7 10.2-8.2 21.3-14 1.6-.8 3.5-.3 4.4 1.1z" style="clip-path:url(#SVGID_00000093163959734741161600000012722260061625753734_);fill:#94b73d"/><path d="m153.9 172.7 10 10.7s-1.8 3.3-5.1 4.9c0 0-1.9 2.6-2.9 3.8-1 1.2-2.8 3.8-4.1 3.6s-1.2-2.7.9-5.3c0 0-3.4 3.7-5.3 3.3s-4.6-1.7-3.7-3.5c.9-1.8 4-5.4 4-5.4s-2.5 1.4-4.2 3c-1.6 1.6-1.4 2-2.7 2.1-1.3.1-2.4-2.1.7-5.5 3.1-3.5 4.2-3.9 4.2-3.9s-2.3.7-3.1.8c-1.4.1-4 .8-5-.4-1.4-1.6.7-2.3 3.8-3.7 2.6-1.1 3-1.6 6.4-2.4.1-.1 2.8-1.6 6.1-2.1z" style="clip-path:url(#SVGID_00000093163959734741161600000012722260061625753734_);fill:#fff"/><g style="clip-path:url(#SVGID_00000093163959734741161600000012722260061625753734_)"><defs><path id="SVGID_00000121239040194468468620000015364691026976737719_" d="m153.9 172.7 10 10.7s-1.8 3.3-5.1 4.9c0 0-1.9 2.6-2.9 3.8-1 1.2-2.8 3.8-4.1 3.6s-1.2-2.7.9-5.3c0 0-3.4 3.7-5.3 3.3s-4.6-1.7-3.7-3.5c.9-1.8 4-5.4 4-5.4s-2.5 1.4-4.2 3c-1.6 1.6-1.4 2-2.7 2.1-1.3.1-2.4-2.1.7-5.5 3.1-3.5 4.2-3.9 4.2-3.9s-2.3.7-3.1.8c-1.4.1-4 .8-5-.4-1.4-1.6.7-2.3 3.8-3.7 2.6-1.1 3-1.6 6.4-2.4.1-.1 2.8-1.6 6.1-2.1z"/></defs><clipPath id="SVGID_00000008856411577347971630000009155601283289409958_"><use xlink:href="#SVGID_00000121239040194468468620000015364691026976737719_" style="overflow:visible"/></clipPath><path d="m154.8 172.3-1.8.9 1.8-.9zm-6.9 2.4.5.9h.1c.1 0 .2-.1.3-.2.3-.1.7-.3 1.2-.5 1.1-.4 2.5-.9 4.1-1.1l-.3-2c-1.8.3-3.4.8-4.5 1.2-.6.2-1 .4-1.4.6-.2.1-.3.1-.4.2 0 0-.1 0-.1.1l.5.8zm-6.1 3.3c2.7-1.1 2.9-1.5 6.3-2.3l-.5-1.9c-3.5.9-4.1 1.4-6.6 2.4l.8 1.8zm-3.4 2.1c-.3-.3-.2-.4-.2-.3 0 .1 0 0 .2-.2.3-.2.7-.4 1.3-.7.6-.3 1.3-.6 2.1-.9l-.8-1.8c-.8.3-1.5.6-2.1.9-.6.3-1.2.6-1.7.9-.4.3-.9.8-1 1.5-.1.7.2 1.4.7 1.9l1.5-1.3zm4.2.1c-.4 0-.8.1-1.3.2-.4.1-.9.1-1.3.1-.9 0-1.4-.1-1.6-.4l-1.5 1.3c.9 1 2.2 1.1 3.2 1.1.5 0 1.1-.1 1.5-.1.5-.1.9-.1 1.2-.2l-.2-2zm3.2.3-.3-1h-.1c-.1 0-.2 0-.3.1-.2.1-.5.2-.9.2-.7.2-1.4.4-1.7.4l.2 2c.5 0 1.4-.3 2-.4.3-.1.7-.2.9-.3.1 0 .2-.1.3-.1h.1c.1 0 .1 0-.2-.9zm-3.5 4.5c1.5-1.7 2.5-2.7 3.1-3.2.3-.3.5-.4.6-.5.1 0 .1-.1.1-.1l-.4-.9-.4-.9h-.1c-.1 0-.1.1-.2.1-.2.1-.5.3-.8.6-.7.6-1.8 1.6-3.4 3.4l1.5 1.5zm-1.5 3.9c-.1-.1-.2-.2-.2-.5 0-.6.3-1.8 1.7-3.4l-1.5-1.3c-1.6 1.8-2.3 3.5-2.2 4.8 0 .7.3 1.3.7 1.7.4.5 1 .7 1.7.6l-.2-1.9zm2.1-1.8c-.8.8-1.3 1.5-1.5 1.7-.1.1-.1.1-.2.1 0 0-.1.1-.4.1l.2 2c.4 0 .7-.1 1.1-.3.3-.2.6-.4.8-.6.4-.5.6-.8 1.4-1.6l-1.4-1.4zm4.8-2.3-.5-.9s-.1 0-.1.1c-.1 0-.2.1-.3.2-.3.2-.7.4-1.1.7-.9.6-1.9 1.4-2.8 2.2l1.4 1.4c.7-.7 1.7-1.4 2.5-2 .4-.3.8-.5 1-.6.1-.1.2-.1.3-.2h.1l-.5-.9zm-3.1 5.8c.4-.8 1.3-2.1 2.2-3.2.4-.5.8-1 1.1-1.4.1-.2.3-.3.4-.4l.1-.1-.8-.7-.8-.7-.1.1c-.1.1-.2.3-.4.4-.3.4-.7.9-1.2 1.4-.9 1.1-1.9 2.5-2.4 3.5l1.9 1.1zm3 2.1c-.9-.2-1.9-.5-2.5-1-.3-.2-.5-.4-.5-.6 0-.1-.1-.2 0-.5l-1.8-.9c-.3.7-.4 1.4-.1 2.1.2.6.7 1.1 1.2 1.5.9.7 2.2 1.2 3.3 1.4l.4-2zm5.1-2.3-.7-.7-.1.1-.4.4c-.3.3-.8.7-1.3 1.2-.5.4-1.1.8-1.6 1-.5.3-.9.3-1 .3l-.4 2c.8.2 1.6-.1 2.3-.4.7-.3 1.4-.8 1.9-1.3.6-.5 1.1-.9 1.4-1.3l.4-.4.1-.1c.2-.1.2-.1-.6-.8zm-.8 4.3c.1 0 .1.1 0 0v-.6c.1-.7.6-1.8 1.6-3.1l-1.5-1.3c-1.2 1.4-1.8 2.8-2 4.1-.1.6 0 1.2.2 1.8.3.6.8 1 1.5 1.1l.2-2zm3.2-3.3c-.5.7-1.2 1.5-1.9 2.3-.3.4-.7.6-.9.8-.3.2-.4.2-.4.2l-.3 2c.7.1 1.3-.2 1.7-.5.5-.3.9-.7 1.3-1.1.8-.8 1.5-1.9 2-2.4l-1.5-1.3zm3.7-3.1-.8-.6-.1.1c-.1.1-.1.2-.2.3-.2.3-.5.6-.8 1-.6.8-1.3 1.7-1.8 2.3l1.6 1.3c.5-.6 1.2-1.6 1.8-2.4.3-.4.6-.8.8-1 .1-.1.2-.2.2-.3 0 0 0-.1.1-.1l-.8-.6zm5.1-4.9-.9-.5-.1.1c0 .1-.1.2-.2.4-.2.3-.5.7-.9 1.2-.8 1-2 2.1-3.5 2.8l.8 1.8c1.9-.9 3.3-2.2 4.2-3.3.5-.5.8-1 1.1-1.4.1-.2.2-.3.3-.4 0-.1.1-.1.1-.1 0-.1 0-.1-.9-.6zm-10.7-10 10 10.7 1.5-1.4-10-10.7-1.5 1.4zm.7-.7.1 1 1.4-.2-.6-1.2-.9.4zm-6 2 .2 1h.1l.1-.1-.4-.9zm-6.5 2.4.4.9-.4-.9zm-3.7 3.7-.8.7.8-.7zm5 .4.1 1-.1-1zm3.1-.7.4.9-.6-1.9.2 1zm-4.2 3.9.8.7-.8-.7zm6.1.4.8.7-1.3-1.5.5.8zm5 5.6.8.6-1.5-1.3.7.7zm3.2 1.7-.8-.6.8.6zm2.9-3.8-.4-.9-.2.1-.2.2.8.6zm5.1-4.9.9.5.3-.6-.5-.5-.7.6zm-10-10.7.7-.7-1.6 1.1.9-.4z" style="clip-path:url(#SVGID_00000008856411577347971630000009155601283289409958_);fill:#20380e"/></g><path d="M170.6 153.2s-12.2 11.1-16.7 19.5l10 10.7s1.2-.8 5-3.7c3.8-2.9 7-6.1 8.9-8.3 1.9-2.1 3.9-14.3-7.2-18.2z" style="clip-path:url(#SVGID_00000093163959734741161600000012722260061625753734_);fill:#20380e"/><path d="M103.2 178.7c-.1 0-.1 0 0 0-.2 0-.4-.2-.4-.4 1.1-9.7 3.2-19.4 6.3-28.6.1-.2.3-.3.5-.2.2.1.3.3.2.5-3.1 9.2-5.2 18.8-6.2 28.5-.1.1-.3.2-.4.2zm60.7-18.6c-.1 0-.2 0-.3-.1-.1-.1-.2-.4 0-.5 2.6-2.7 5.1-5 7.5-6.8.2-.1.4-.1.5.1.1.2.1.4-.1.5-2.3 1.7-4.9 4-7.4 6.7 0 .1-.1.1-.2.1zm-31.9-29s-.1 0 0 0c-5.1-1-9.8-2.9-14.1-5.6-.2-.1-.2-.3-.1-.5s.3-.2.5-.1c4.3 2.6 8.9 4.5 13.8 5.5.2 0 .3.2.3.4-.1.2-.2.3-.4.3zm5.8 8.3h-.1c-.2-.1-.3-.3-.2-.5 1.5-3.8 3.2-6.7 5.3-9 .5-.6 1.2-1.2 2.1-1.7.9-.5 1.9-.6 2.8-.4.2 0 .3.3.3.4 0 .2-.2.3-.4.3-.7-.2-1.5 0-2.2.4-.8.4-1.4 1-1.9 1.6-2.1 2.2-3.8 5.1-5.2 8.8-.2 0-.3.1-.5.1zm9.4-12.5c-.1 0-.1 0-.2-.1-.2-.1-.2-.3-.1-.5.4-.6 1-1 1.7-1.1s1.4 0 2 .4c.2.1.2.3.1.5s-.3.2-.5.1c-.4-.3-1-.4-1.5-.3-.5.1-1 .4-1.2.8-.1.2-.2.2-.3.2zm-.5 14.3c-.2 0-.4-.2-.4-.4.2-4.3.8-8.5 1.9-12.6.1-.2.3-.3.5-.3.2.1.3.3.3.5-1 4.1-1.7 8.3-1.9 12.5 0 .2-.2.3-.4.3zM109 110.7c-.2 0-.3-.1-.4-.3-3.1-10-1.9-21.4 3.3-30.5.1-.2.3-.2.5-.1s.2.3.1.5c-5 8.9-6.3 20.1-3.2 29.9.1.2 0 .4-.2.5h-.1zm50.7-1.3c-.1 0-.1 0 0 0-.2 0-.4-.2-.3-.4 1.3-9.3-.5-19.3-5-27.3-.1-.2 0-.4.1-.5.2-.1.4-.1.5.1 4.6 8.2 6.5 18.3 5.1 27.9-.1 0-.3.2-.4.2z" style="clip-path:url(#SVGID_00000093163959734741161600000012722260061625753734_);fill:#fff"/><path d="M71.2 134.2c-.1 0-.3-.1-.3-.2-1.2-2.7-3-5.1-5.3-7.1-.7-.6-1.6-1.4-1.6-2.5 0-.2.2-.4.4-.4s.4.2.4.4c0 .7.7 1.4 1.4 1.9 2.3 2 4.2 4.6 5.5 7.3.1.2 0 .4-.2.5-.2.1-.2.1-.3.1zm8.8-1.9c-.2 0-.4-.2-.4-.4 0-.6.2-1.3.3-1.9.1-.2.3-.3.5-.3.2.1.3.3.3.5-.2.6-.3 1.2-.3 1.8-.1.1-.2.3-.4.3z" style="clip-path:url(#SVGID_00000093163959734741161600000012722260061625753734_);fill:#20380e"/><path d="M77.2 136.1h-.1c-.2-.1-.3-.3-.2-.5.6-1.5 1.6-2.9 2.9-4 .2-.1.4-.1.5 0 .1.2.1.4 0 .5-1.2 1-2.1 2.3-2.7 3.7-.1.2-.3.3-.4.3zm69.3 57.2c-.1 0-.1 0-.2-.1-.2-.1-.2-.3-.1-.5.7-1.2 1.4-2.2 2.5-3.2.1-.1.4-.1.5 0 .1.1.1.4 0 .5-1 1-1.7 1.9-2.3 3.1-.1.1-.3.2-.4.2z" style="clip-path:url(#SVGID_00000093163959734741161600000012722260061625753734_);fill:#20380e"/><path d="M148.9 190.1c-.1 0-.1 0-.2-.1-.2-.1-.2-.3-.1-.5.9-1.3 1.9-2.4 3.1-3.5.2-.1.4-.1.5 0s.1.4 0 .5c-1.1 1-2.1 2.1-2.9 3.3-.2.3-.3.3-.4.3z" style="clip-path:url(#SVGID_00000093163959734741161600000012722260061625753734_);fill:#20380e"/><ellipse cx="144.9" cy="100.4" rx="2.4" ry="2.8" style="clip-path:url(#SVGID_00000093163959734741161600000012722260061625753734_);fill:#20380e"/><ellipse cx="127.3" cy="100.4" rx="2.4" ry="2.8" style="clip-path:url(#SVGID_00000093163959734741161600000012722260061625753734_);fill:#20380e"/><path d="M150.1 95.4c-.7-.9-2.1-1.9-3.8-2.2-1.8-.3-3.9.2-6 2.1l1.4 1.5c1.7-1.6 3.2-1.8 4.3-1.6 1.2.2 2.1.9 2.6 1.5l1.5-1.3zm-9.9-.1c-.4.4-.4 1-.1 1.4.4.4 1 .4 1.4.1l-1.3-1.5zm8.3 1.4c.3.4 1 .5 1.4.1.4-.3.5-1 .1-1.4l-1.5 1.3zm-16.9-1.3c-.7-.9-2.1-1.9-3.8-2.2-1.8-.3-3.9.2-6 2.1l1.4 1.5c1.7-1.6 3.2-1.8 4.3-1.6 1.2.2 2.1.9 2.6 1.5l1.5-1.3zm-9.8-.1c-.4.4-.4 1-.1 1.4s1 .4 1.4.1l-1.3-1.5zm8.3 1.4c.3.4 1 .5 1.4.1.4-.3.5-1 .1-1.4l-1.5 1.3zm.1 18.5c1.4 1.2 5 2.6 9.5.1l-.9-1.8c-3.8 2-6.5.8-7.3.1l-1.3 1.6zm9.5.1c.5-.3.7-.9.4-1.4-.3-.5-.9-.7-1.4-.4l1 1.8zm-8.2-1.6c-.4-.4-1-.3-1.4.1-.4.4-.3 1 .1 1.4l1.3-1.5z" style="clip-path:url(#SVGID_00000093163959734741161600000012722260061625753734_);fill:#20380e"/></g></g></switch></svg>