<svg width="470" height="250" viewBox="0 0 470 250" fill="none" xmlns="http://www.w3.org/2000/svg">
<path d="M292.182 76.7334L251.627 123.972L207.123 80.8993L134 146.048V172.624L206.561 107.975L252.967 152.88L307.235 89.657L292.182 76.7334Z" fill="#B4CC77"/>
<path d="M315.344 105.679V70H279.665L315.344 105.679Z" fill="#B4CC77"/>
<path d="M314.001 140.5C317.201 156.9 313.335 170.333 311.001 175V196.5C329.402 187.3 330.001 154.333 328.001 139C331.201 138.6 333.001 134.167 333.501 132C336.701 117.6 326.168 120 320.501 123C320.901 114.6 318.334 111.167 317.001 110.5C312.201 110.5 313.001 120.833 314.001 126C305.601 128.8 310.501 136.833 314.001 140.5Z" stroke="#20380E" stroke-width="1.5"/>
<path d="M300.79 210.714L300.851 210.672L300.899 210.62L300.908 210.611C300.918 210.601 300.937 210.583 300.963 210.56C301.016 210.513 301.099 210.445 301.21 210.371C301.433 210.222 301.757 210.056 302.163 209.981C302.926 209.838 304.173 209.981 305.785 211.673C307.421 213.389 309.382 216.658 311.474 222.651C313.517 228.506 315.668 236.915 317.768 248.919H300.842L287.591 219.765L300.79 210.714Z" fill="white" stroke="#152409" stroke-width="1.33201"/>
<path d="M311.239 206.165L295.043 218.46C296.288 222.98 298.523 227.544 300.942 231.612C303.064 235.185 305.333 238.379 307.196 240.823C309.532 243.888 311.239 250 311.239 250H264.407H217.574C223.058 231.329 234.129 217.522 244.306 211.937C246.721 210.611 249.087 209.512 251.314 208.57C253.05 207.835 254.703 207.195 256.232 206.619C256.83 206.394 257.409 206.177 257.965 205.972C269.478 201.679 261.867 191.139 261.867 191.139L271.234 189.579C271.234 198.36 278.259 195.823 278.259 195.823C278.708 195.535 279.155 195.242 279.604 194.944C279.619 194.936 279.633 194.927 279.648 194.917C281.941 193.405 284.246 191.823 286.504 190.221C299.595 180.942 311.237 171.037 311.237 171.037C316.115 189.967 311.237 206.165 311.237 206.165H311.239Z" fill="#20380E"/>
<path d="M241.142 245.212C241.839 227.745 243.464 217.857 244.869 212.384C246.829 211.319 248.757 210.402 250.604 209.596C250.15 224.225 250.668 241.571 250.787 245.212H241.142Z" fill="white" stroke="#152409" stroke-width="1.33201" stroke-linejoin="round"/>
<path d="M280.271 195.31C282.111 194.093 283.958 192.832 285.78 191.553C285.491 198.002 285.579 210.271 289.458 219.972L289.458 219.972C292.181 226.78 296.622 230.31 300.485 232.127C302.225 235.04 304.054 237.694 305.677 239.892C293.448 237.525 287.043 228.855 283.706 219.516C280.305 209.999 280.134 199.875 280.271 195.31Z" fill="white" stroke="#152409" stroke-width="1.33201" stroke-linejoin="round"/>
<path d="M262.971 191.631L270.588 190.362C270.734 193.29 271.71 195.019 273.068 195.952C274.273 196.781 275.652 196.887 276.675 196.809C277.192 196.77 277.638 196.683 277.956 196.605C278.115 196.567 278.243 196.53 278.334 196.502C278.379 196.488 278.415 196.476 278.44 196.468L278.471 196.457L278.481 196.454L278.484 196.453L278.485 196.452L278.486 196.452C278.486 196.452 278.486 196.452 278.26 195.825L278.486 196.452L278.558 196.426L278.621 196.385C278.633 196.377 278.645 196.37 278.657 196.362C277.843 199.722 276.538 202.579 274.639 204.749L274.639 204.749C269.709 210.383 265.921 211.728 263.142 211.309C260.603 210.927 258.649 209.039 257.239 206.95C257.565 206.828 257.885 206.709 258.197 206.594L258.199 206.593C262.498 204.992 264.365 202.489 264.86 199.848C265.296 197.539 264.657 195.249 263.951 193.581C263.615 192.788 263.256 192.118 262.971 191.631Z" fill="white" stroke="#152409" stroke-width="1.33201"/>
<path d="M224.789 246.625V246.622H224.123H213.385C213.565 246.333 213.787 245.99 214.047 245.607C214.866 244.402 216.069 242.807 217.605 241.242C220.694 238.093 225.029 235.165 230.239 235.574C235.665 236 241.383 237.516 245.762 238.935C247.948 239.643 249.792 240.324 251.089 240.828C251.737 241.08 252.248 241.288 252.596 241.432C252.77 241.504 252.904 241.56 252.993 241.598L253.094 241.641L253.119 241.652L253.125 241.654L253.126 241.655L253.126 241.655L253.36 241.757L253.603 241.676L262.547 238.695L262.547 238.695C265.268 237.787 268.258 238.829 269.829 241.23C269.829 241.231 269.829 241.231 269.829 241.231L273.355 246.625H224.789Z" fill="white" stroke="#152409" stroke-width="1.33201"/>
<path d="M331.453 130.823C330.115 133.307 328.494 134.681 326.638 134.913C326.621 134.913 326.604 134.918 326.587 134.918C324.018 135.209 321.601 133.26 320.687 132.42C320.866 132.352 321.039 132.274 321.195 132.174C321.876 131.734 322.206 131.058 322.174 130.161C322.038 126.313 315.267 125.822 314.979 125.802L314.891 126.516C314.954 126.52 321.237 126.972 321.351 130.205C321.373 130.857 321.168 131.314 320.719 131.602C319.493 132.393 316.698 131.797 315.723 131.5L315.428 132.176C315.55 132.213 317.772 132.879 319.632 132.669C319.686 132.664 319.737 132.652 319.791 132.645C320.45 133.307 323.349 136.003 326.667 135.629C326.687 135.629 326.706 135.624 326.728 135.622C328.892 135.353 330.733 133.837 332.2 131.109L331.455 130.823H331.453Z" fill="black"/>
<path d="M224.943 174.016L224.948 174.029L228.849 185.921C226.981 186.784 225.307 186.689 223.869 186.039C222.276 185.318 220.911 183.884 219.92 182.147C218.931 180.413 218.349 178.437 218.278 176.708C218.206 174.954 218.658 173.612 219.532 172.927C220.579 172.107 221.413 171.827 222.051 171.798C222.682 171.77 223.199 171.983 223.627 172.301C224.062 172.626 224.394 173.053 224.622 173.414C224.734 173.593 224.816 173.749 224.87 173.858C224.897 173.913 224.916 173.955 224.928 173.982C224.934 173.996 224.938 174.006 224.941 174.011L224.943 174.016L224.943 174.016L224.943 174.016L224.943 174.016Z" fill="white" stroke="#152409" stroke-width="1.33201"/>
<path d="M228.108 164.205C228.108 164.205 221.083 167.911 213.472 154.837C205.861 141.763 210.74 125.37 226.936 132.589C226.936 132.589 231.815 116.587 255.035 115.414C278.256 114.242 289.769 133.954 289.769 133.954C289.769 133.954 298.354 128.293 306.356 142.54C314.357 156.786 292.306 175.911 292.306 175.911L274.938 184.302L228.106 164.202L228.108 164.205Z" fill="#20380E"/>
<path d="M249.032 152.152C249.092 152.1 249.148 152.051 249.199 152.006C254.583 156.235 261.468 157.208 266.987 157.136C269.835 157.099 272.346 156.783 274.145 156.477C274.896 156.349 275.524 156.223 276.003 156.119C274.373 164.036 275.865 169.857 277.848 173.751C278.88 175.776 280.038 177.27 280.944 178.261C281.397 178.757 281.787 179.128 282.067 179.377C282.207 179.501 282.32 179.595 282.399 179.66C282.439 179.692 282.47 179.717 282.493 179.734L282.519 179.755L282.527 179.761L282.53 179.763L282.531 179.763C282.531 179.764 282.532 179.764 282.93 179.23L282.532 179.764L283.193 180.257L283.536 179.507L287.502 170.818C290.538 170.045 292.709 170.149 294.182 170.738C295.67 171.334 296.523 172.454 296.867 173.875C297.218 175.323 297.041 177.101 296.388 178.921C295.737 180.734 294.629 182.543 293.183 184.036C290.327 186.985 287.123 187.532 284.612 187.348C283.35 187.255 282.265 186.977 281.496 186.722C281.112 186.594 280.809 186.473 280.604 186.385C280.502 186.341 280.424 186.306 280.374 186.282C280.349 186.27 280.33 186.261 280.319 186.255L280.307 186.249L280.306 186.249L280.306 186.249L280.305 186.249L280.305 186.248L279.9 186.041L279.56 186.344C269.144 195.604 251.685 201.882 236.214 193.67C228.634 189.646 225.781 180.213 224.881 171.528C224.434 167.218 224.476 163.162 224.631 160.181C224.708 158.692 224.813 157.473 224.898 156.628C224.907 156.54 224.916 156.456 224.924 156.376C230.853 160.043 236.926 158.954 241.514 156.934C243.926 155.871 245.952 154.542 247.373 153.482C248.084 152.952 248.646 152.486 249.032 152.152Z" fill="white" stroke="#152409" stroke-width="1.33201"/>
<path d="M261.927 169.306C261.483 170.859 261.876 172.336 262.808 172.605C263.741 172.871 264.857 171.828 265.304 170.275C265.751 168.722 265.355 167.245 264.422 166.976C263.49 166.71 262.374 167.753 261.927 169.306Z" fill="black"/>
<path d="M239.985 169.23C239.954 170.847 240.713 172.173 241.685 172.192C242.654 172.212 243.467 170.915 243.499 169.301C243.531 167.684 242.771 166.358 241.8 166.339C240.83 166.319 240.017 167.616 239.985 169.23Z" fill="black"/>
<path d="M245.648 186.849C248.982 187.873 256.894 188.146 261.868 181.042" stroke="black" stroke-width="1.33201" stroke-linecap="round"/>
<path d="M194.08 243.468H272.207C274.768 243.468 276.845 245.545 276.845 248.107V249.994H194.08V243.468Z" fill="#20380E"/>
<path d="M226.174 250H150.921L134.384 200.015C132.785 195.187 136.381 190.212 141.467 190.212H201.004C204.221 190.212 207.076 192.276 208.087 195.328L226.174 250Z" fill="#20380E"/>
<path d="M179.012 225.016C181.082 222.946 181.082 219.591 179.012 217.521C176.943 215.451 173.587 215.451 171.517 217.521C169.447 219.591 169.447 222.946 171.517 225.016C173.587 227.086 176.943 227.086 179.012 225.016Z" fill="white" stroke="#20380E" stroke-width="1.81074" stroke-linecap="round" stroke-linejoin="round"/>
</svg>
