<svg width="470" height="252" viewBox="0 0 470 252" fill="none" xmlns="http://www.w3.org/2000/svg">
<path d="M269.802 239.372C269.802 239.372 185.327 231.811 218.344 191.867C223.883 185.162 243.556 179.526 241.653 166.02C239.661 151.909 245.29 139.679 245.29 139.679C250.416 126.763 278.69 118.877 292.366 123.333" stroke="#20380E" stroke-width="2.2" stroke-linecap="round" stroke-linejoin="round"/>
<path d="M243.512 166.101C240.333 152.204 244.913 139.546 244.913 139.546C248.934 126.246 276.433 116.001 290.441 119.283C292.728 119.327 295.051 119.674 297.353 120.367C310.881 124.454 318.545 138.735 314.459 152.263L312.194 159.765C311.633 164.043 310.925 167.798 310.512 170.431C308.602 182.566 319.57 185.435 322.971 193.04C326.371 200.645 319.578 204.289 317.712 213.362C316.074 221.344 322.676 223.35 324.741 233.094C320.042 237.107 314.886 240.53 309.391 243.303C295.575 242.182 277.768 236.805 277.768 236.805C277.768 236.805 192.954 236.406 222.482 193.815C227.439 186.667 246.566 179.394 243.527 166.094L243.512 166.101Z" fill="#20380E"/>
<path d="M326.909 173.684C331.475 159.463 328.178 145.536 328.178 145.536C325.508 131.004 299.115 116.664 284.819 118.309C282.532 118.059 280.187 118.125 277.819 118.56C263.914 121.112 254.849 135.165 257.563 149.94L259.068 158.135C259.193 162.716 259.525 166.758 259.673 169.59C260.359 182.617 249.132 184.225 244.979 191.786C240.826 199.354 247.236 204.068 248.18 213.871C249.014 222.494 242.228 223.748 239.188 233.743C243.467 238.582 248.269 242.853 253.469 246.475C267.359 247.08 285.653 243.724 285.653 243.724C285.653 243.724 370.253 254.272 345.092 205.602C340.865 197.429 322.528 187.301 326.902 173.684H326.909Z" fill="#20380E"/>
<path d="M263.351 216.012L295.149 216.761L296.151 174.263L264.353 173.513L263.351 216.012Z" fill="white"/>
<path d="M263.834 195.673L264.358 173.507L284.554 173.987L290.824 181.717C285.602 190.089 276.079 195.26 263.834 195.673Z" fill="#20380E"/>
<path d="M266.711 187.021C280.239 191.107 294.527 183.451 298.606 169.915L303.239 154.579C307.325 141.051 299.668 126.763 286.133 122.684C272.604 118.597 258.316 126.254 254.237 139.789L249.605 155.125C245.518 168.654 253.175 182.942 266.711 187.021Z" fill="white"/>
<path d="M288.345 121.673C303.024 126.106 311.456 141.169 307.185 155.317L305.591 160.598C293.302 164.028 279.634 158.703 273.194 147.218L264.859 132.325C263.826 130.48 263.044 128.577 262.483 126.652C269.343 121.031 278.985 118.848 288.345 121.673Z" fill="#20380E"/>
<path d="M293.037 173.603C296.275 176.414 301.18 176.059 303.983 172.821L304.809 171.87C307.62 168.631 307.266 163.726 304.028 160.923C300.789 158.113 295.884 158.467 293.081 161.705L292.255 162.656C289.444 165.895 289.798 170.8 293.037 173.603Z" fill="white"/>
<path d="M254.023 151.135C253.773 153.03 254.555 154.697 255.757 154.852C256.967 155.007 258.139 153.598 258.39 151.703C258.641 149.807 257.859 148.14 256.657 147.985C255.447 147.83 254.274 149.239 254.023 151.135Z" fill="#20380E"/>
<path d="M260.92 144.599C260.92 144.599 254.377 141.361 249.14 144.673" stroke="#20380E" stroke-width="2.2" stroke-linecap="round" stroke-linejoin="round"/>
<path d="M270.871 154.469C270.62 156.364 271.402 158.031 272.605 158.186C273.814 158.341 274.987 156.932 275.238 155.037C275.481 153.141 274.707 151.474 273.504 151.319C272.295 151.164 271.122 152.573 270.871 154.469Z" fill="#20380E"/>
<path d="M279.501 149.46C279.501 149.46 273.585 145.189 267.868 147.586" stroke="#20380E" stroke-width="2.2" stroke-linecap="round" stroke-linejoin="round"/>
<path d="M263.789 149.541C263.789 149.541 259.488 157.493 257.711 159.868C255.505 162.819 261.229 164.545 261.229 164.545" stroke="#20380E" stroke-width="2.2" stroke-linecap="round" stroke-linejoin="round"/>
<path d="M269.418 168.993C269.418 168.993 265.523 172.091 260.61 170.933" stroke="#20380E" stroke-width="2.2" stroke-linecap="round" stroke-linejoin="round"/>
<path d="M300.974 163.18C300.974 163.18 296.902 163.593 295.574 169.443" stroke="#20380E" stroke-width="2.2" stroke-linecap="round" stroke-linejoin="round"/>
<path d="M264.769 205.833L294.472 209.17C298.093 209.576 300.709 212.847 300.302 216.475L299.363 224.832C298.956 228.453 295.686 231.07 292.057 230.662L262.355 227.325C258.733 226.918 256.117 223.648 256.524 220.019L257.463 211.663C257.87 208.042 261.141 205.425 264.769 205.833Z" fill="#B4CC77"/>
<path d="M341.264 250.377C337.399 241.57 329.594 235.108 320.219 232.954L231.451 212.558C217.436 209.335 202.808 214.321 193.676 225.43L173.162 250.377H341.264Z" fill="#B4CC77"/>
<path d="M128.623 250.377C128.623 250.377 128.446 165.297 154.293 158.481C154.293 158.481 162.739 164.611 170.086 166.382C175.67 167.724 182.294 159.558 180.494 169.612C172.1 216.637 182.471 250.385 182.471 250.385" fill="white"/>
<path d="M128.623 250.377C128.623 250.377 128.446 165.297 154.293 158.481C154.293 158.481 162.739 164.611 170.086 166.382C175.67 167.724 182.294 159.558 180.494 169.612C172.1 216.637 182.471 250.385 182.471 250.385" stroke="#20380E" stroke-width="2.2" stroke-linecap="round" stroke-linejoin="round"/>
<path d="M155.009 204.252C152.317 185.944 174.394 173.559 174.394 173.559L182.759 148.472C184.456 143.389 189.604 140.313 194.886 141.228C196.619 141.53 197.726 143.234 197.305 144.946L192.71 163.328C193.064 172.128 190.932 180.839 186.565 188.489L182.479 195.637V250.377" fill="white"/>
<path d="M155.009 204.252C152.317 185.944 174.394 173.559 174.394 173.559L182.759 148.472C184.456 143.389 189.604 140.313 194.886 141.228C196.619 141.53 197.726 143.234 197.305 144.946L192.71 163.328C193.064 172.128 190.932 180.839 186.565 188.489L182.479 195.637V250.377" stroke="#20380E" stroke-width="2.2" stroke-linecap="round" stroke-linejoin="round"/>
<path d="M226.022 142.725C233.074 135.216 237.397 125.11 237.397 114.001C237.397 90.8026 218.594 72 195.395 72C172.196 72 153.394 90.8026 153.394 114.001C153.394 137.2 172.196 156.003 195.395 156.003C201.872 156.003 208.001 154.535 213.482 151.916L233.354 163.269L226.015 142.725H226.022Z" fill="white" stroke="#20380E" stroke-width="2.2" stroke-linecap="round" stroke-linejoin="round"/>
<path d="M175.723 117.971L187.883 137.617L217.421 106.081C219.691 103.665 218.878 99.7239 215.841 98.4028C214.011 97.6011 211.877 98.0189 210.477 99.4529L190.785 119.664L185.512 111.964C184.202 110.055 181.718 109.344 179.596 110.293L177.857 111.072C175.192 112.257 174.187 115.509 175.723 117.982V117.971Z" fill="#2C4D13"/>
<path d="M134.008 159.558L153.614 131.985L179.757 132.494C182.449 132.546 184.463 134.973 184.02 137.628C183.437 141.11 180.479 143.692 176.946 143.802L162.186 144.238L152.995 158.327" fill="white"/>
<path d="M134.008 159.558L153.614 131.985L179.757 132.494C182.449 132.546 184.463 134.973 184.02 137.628C183.437 141.11 180.479 143.692 176.946 143.802L162.186 144.238L152.995 158.327" stroke="#20380E" stroke-width="2.2" stroke-linecap="round" stroke-linejoin="round"/>
<path d="M162.547 178.405L162.724 178.28C166.014 175.978 168.057 172.29 168.264 168.285L168.308 167.392C168.692 160.126 163.049 153.945 155.768 153.679L145.604 153.303C141.982 153.17 138.463 154.55 135.904 157.109L130.902 162.243" fill="white"/>
<path d="M162.547 178.405L162.724 178.28C166.014 175.978 168.057 172.29 168.264 168.285L168.308 167.392C168.692 160.126 163.049 153.945 155.768 153.679L145.604 153.303C141.982 153.17 138.463 154.55 135.904 157.109L130.902 162.243" stroke="#20380E" stroke-width="2.2" stroke-linecap="round" stroke-linejoin="round"/>
<path d="M155.813 185.133L155.99 185.007C159.28 182.706 161.323 179.017 161.53 175.012L161.574 174.12C161.957 166.854 156.314 160.672 149.034 160.407L138.869 160.031C135.247 159.898 131.729 161.277 129.169 163.837L123.77 169.376" fill="white"/>
<path d="M155.813 185.133L155.99 185.007C159.28 182.706 161.323 179.017 161.53 175.012L161.574 174.12C161.957 166.854 156.314 160.672 149.034 160.407L138.869 160.031C135.247 159.898 131.729 161.277 129.169 163.837L123.77 169.376" stroke="#20380E" stroke-width="2.2" stroke-linecap="round" stroke-linejoin="round"/>
<path d="M141.547 180.559H139.548C134.111 180.559 129.7 184.97 129.7 190.407V191.867H149.085L149.262 191.742C152.552 189.44 154.596 185.752 154.802 181.747L154.846 180.854C155.23 173.588 149.587 167.407 142.306 167.141L132.142 166.765C128.52 166.632 125.001 168.012 122.442 170.571C120.878 172.135 120 174.252 120 176.465V184.432C120 191.845 121.195 199.207 123.541 206.244L128.616 221.469V250.37" fill="white"/>
<path d="M141.547 180.559H139.548C134.111 180.559 129.7 184.97 129.7 190.407V191.867H149.085L149.262 191.742C152.552 189.44 154.596 185.752 154.802 181.747L154.846 180.854C155.23 173.588 149.587 167.407 142.306 167.141L132.142 166.765C128.52 166.632 125.001 168.012 122.442 170.571C120.878 172.135 120 174.252 120 176.465V184.432C120 191.845 121.195 199.207 123.541 206.244L128.616 221.469V250.37" stroke="#20380E" stroke-width="2.2" stroke-linecap="round" stroke-linejoin="round"/>
</svg>
