<svg width="470" height="250" viewBox="0 0 470 250" fill="none" xmlns="http://www.w3.org/2000/svg">
<g clip-path="url(#clip0_813_2820)">
<path d="M261.297 91.8465L252.471 210.716C252.347 212.337 253.365 213.826 254.92 214.298L336.383 239.263C338.501 239.916 340.684 238.436 340.866 236.227L352.406 97.5955C352.571 95.6516 351.099 93.9558 349.155 93.8318L264.979 88.6286C263.076 88.5128 261.438 89.9439 261.297 91.8465Z" fill="#B4CC77"/>
<path d="M252.554 88.6204L243.753 210.757L327.375 237.17L338.931 94.1296L252.554 88.6204Z" fill="white"/>
<path d="M327.375 237.997C327.292 237.997 327.21 237.981 327.127 237.956L243.505 211.551C243.141 211.436 242.901 211.088 242.926 210.699L251.727 88.5625C251.76 88.1075 252.157 87.7601 252.604 87.7932L338.981 93.2941C339.204 93.3107 339.411 93.4099 339.552 93.5754C339.7 93.7408 339.767 93.9642 339.75 94.1792L328.194 237.22C328.177 237.468 328.037 237.699 327.83 237.84C327.689 237.931 327.532 237.981 327.367 237.981L327.375 237.997ZM244.621 210.17L326.631 236.07L338.029 94.8989L253.315 89.5055L244.621 210.17Z" fill="#20380E"/>
<path d="M327.375 237.17L335.076 236.616L346.078 97.976L338.931 94.1295L327.375 237.17Z" fill="white"/>
<path d="M327.375 237.997C327.152 237.997 326.945 237.906 326.788 237.749C326.614 237.575 326.531 237.344 326.548 237.104L338.104 94.0634C338.129 93.7821 338.286 93.534 338.534 93.4016C338.782 93.2693 339.08 93.2693 339.32 93.4016L346.475 97.2564C346.765 97.4136 346.93 97.7196 346.905 98.0505L335.904 236.69C335.871 237.096 335.548 237.418 335.134 237.451L327.433 237.997C327.433 237.997 327.392 237.997 327.375 237.997ZM339.651 95.4531L328.277 236.268L334.307 235.838L345.21 98.4476L339.651 95.4531Z" fill="#20380E"/>
<path d="M266.385 109.255L266.234 110.902L317.842 115.635L317.993 113.988L266.385 109.255Z" fill="#2C4D13"/>
<path d="M265.309 118.743L265.096 120.384L316.453 127.072L316.667 125.432L265.309 118.743Z" fill="#2C4D13"/>
<path d="M264.214 128.131L263.938 129.762L315.055 138.399L315.331 136.768L264.214 128.131Z" fill="#2C4D13"/>
<path d="M263.144 137.454L262.807 139.073L313.681 149.665L314.018 148.045L263.144 137.454Z" fill="#2C4D13"/>
<path d="M262.105 146.682L261.707 148.288L312.331 160.834L312.729 159.229L262.105 146.682Z" fill="#2C4D13"/>
<path d="M252.554 88.6204L243.753 210.757L162.331 219.013L173.879 75.9724L252.554 88.6204Z" fill="white"/>
<path d="M162.331 219.84C162.116 219.84 161.909 219.757 161.752 219.6C161.578 219.426 161.487 219.187 161.504 218.938L173.06 75.9062C173.076 75.6746 173.192 75.4678 173.374 75.3189C173.556 75.1783 173.788 75.1204 174.019 75.1535L252.695 87.8097C253.117 87.8759 253.423 88.2564 253.39 88.6866L244.588 210.824C244.564 211.221 244.249 211.543 243.844 211.585L162.422 219.84C162.422 219.84 162.364 219.84 162.339 219.84H162.331ZM174.632 76.932L163.233 218.095L242.975 210.013L251.669 89.3235L174.632 76.932Z" fill="#20380E"/>
<g clip-path="url(#clip1_813_2820)">
<path d="M271.5 193.5L239.5 199L252 216.5L278 209C288.8 204.2 289.167 195 288 191L284 152.5C285.6 151.7 286.667 148.833 287 147.5C290.2 143.5 291.333 140.833 291.5 140C291.9 134.8 288.333 131.833 286.5 131C285.7 127.8 283.167 126.667 282 126.5L278 123C274.4 121.4 275.833 124 277 125.5L280.5 129.5C282.1 134.7 279.833 138.667 278.5 140C272.5 140.4 273 136.5 274 134.5C276 129.7 274.833 127.5 274 127L270 138C269.2 140 269.667 141.833 270 142.5L276 152.5L271.5 193.5Z" fill="white" stroke="#20380E" stroke-width="1.5"/>
<path d="M199.006 208.031C198.677 212.283 197.978 218.809 197.297 224.899C197.055 227.069 196.815 229.185 196.595 231.121C196.123 235.275 195.746 238.594 195.647 239.812L188.675 254.58L188.548 254.85L188.589 255.146L188.886 257.254C190.217 272.846 191.658 282.51 192.544 288.457C192.625 288.998 192.701 289.508 192.772 289.989C193.203 292.914 193.426 294.648 193.385 295.695C193.364 296.214 193.28 296.414 193.239 296.479C193.239 296.48 193.238 296.481 193.238 296.482C193.231 296.495 193.212 296.531 193.052 296.567L193.039 296.57L193.025 296.573L189.037 297.579C188.939 297.462 188.824 297.307 188.693 297.109C188.374 296.629 187.997 295.956 187.561 295.089C186.691 293.357 185.632 290.94 184.394 287.943L199.006 208.031ZM199.006 208.031C198.972 208.054 198.937 208.078 198.901 208.102C197.824 208.829 196.363 209.863 194.83 211.096C193.294 212.33 191.7 213.751 190.347 215.248C188.987 216.755 187.915 218.289 187.365 219.746L187.361 219.756L187.357 219.767L173.768 253.516L173.798 253.621L173.75 253.857C173.746 253.875 173.743 253.89 173.74 253.905C173.981 254.799 174.416 256.418 174.917 258.28C175.985 262.253 177.349 267.329 177.754 268.811C179.361 274.667 182.056 282.264 184.394 287.943L199.006 208.031Z" fill="white" stroke="#20380E" stroke-width="2"/>
<path d="M198.84 207.048C198.84 207.048 187.08 212.497 184.96 218.062C180.87 228.835 174.01 245.958 174.01 245.958C174.01 245.958 182.22 256.034 197.69 253.059L198.83 207.048H198.84Z" fill="#20380E"/>
<path d="M228.114 208.108L227.984 208.126L227.876 208.213C227.11 208.831 225.645 209.357 223.825 209.696C222.027 210.032 219.961 210.17 218.06 210.066C216.145 209.962 214.457 209.614 213.375 209.021C212.838 208.727 212.491 208.394 212.315 208.04C212.146 207.702 212.106 207.289 212.292 206.758C212.768 205.397 212.917 203.689 212.889 201.926C212.861 200.155 212.653 198.291 212.39 196.598C212.128 194.903 211.808 193.371 211.555 192.263C211.447 191.79 211.351 191.394 211.276 191.095H228.839C228.838 191.106 228.838 191.116 228.837 191.128C228.823 191.482 228.803 191.991 228.78 192.609C228.735 193.846 228.68 195.521 228.639 197.276C228.598 199.03 228.572 200.867 228.586 202.424C228.599 203.965 228.652 205.28 228.779 205.961C228.994 207.118 228.73 207.628 228.533 207.848C228.427 207.967 228.312 208.034 228.227 208.071C228.184 208.089 228.15 208.099 228.13 208.105C228.125 208.106 228.121 208.107 228.118 208.108C228.116 208.108 228.115 208.108 228.114 208.108Z" fill="white" stroke="#20380E"/>
<path d="M256.89 283.733C256.06 280.348 254.91 277.025 254.08 273.64C253.85 272.97 253.6 272.309 253.38 271.648C250.71 263.716 252.22 256.079 253.82 248.084C254.67 243.796 255.46 239.509 255.28 235.141C255.09 230.308 255.06 225.244 253.23 220.644C251.45 216.168 248.91 211.979 246.18 207.87C244.34 205.994 242.48 204.19 240.69 201.841C240.12 201.09 239.4 200.063 238.55 199.125C233.55 199.081 225.9 200.224 221.42 200.733C204.84 202.636 197.69 207.272 195.27 208.379C190.28 212.98 189.13 218.41 191.28 234.882C192.14 241.429 201.08 261.733 197.88 270.147C193.11 282.688 192.3 296.927 192.3 296.927C195.99 302.554 247.97 303.599 257.97 296.927C257.91 293.193 257.79 287.378 256.9 283.733H256.89Z" fill="#F1D2B3"/>
<path d="M276.14 120.19C276.14 120.19 273.68 116.349 273.53 116.018C273.38 115.688 272.58 120.618 272.58 120.618L276.15 120.19H276.14Z" fill="#373932"/>
<path d="M274.299 118.046C273.669 117.929 273.219 118.206 272.729 118.439C272.529 119.582 272.359 120.618 272.359 120.618L276.339 120.145C276.339 120.145 275.769 119.26 275.139 118.26C274.869 118.188 274.599 118.099 274.299 118.046Z" fill="#94B73D"/>
<path d="M274.44 119.26C273.3 119.243 272.37 119.85 272.35 120.618C272.35 120.752 272.38 120.886 272.44 121.011L277.14 141.145L281.27 141.198L276.48 120.752C276.48 120.752 276.49 120.707 276.49 120.681C276.49 120.493 276.44 120.314 276.34 120.154C276.04 119.644 275.31 119.278 274.45 119.269L274.44 119.26Z" fill="#2C4D13"/>
<path d="M279.23 139.778C280.37 139.796 281.28 140.43 281.27 141.19C281.26 141.958 280.32 142.565 279.18 142.547C278.04 142.529 277.13 141.904 277.14 141.136C277.15 140.368 278.09 139.76 279.23 139.778Z" fill="#A9A79C"/>
<path d="M277.75 129.72C276.93 129.524 274.14 128.237 274.14 128.255C274.09 128.675 275.54 134.66 275.47 135.08L278.61 147.96L282.74 148.014L278.54 130.095C278.3 129.926 278.04 129.783 277.76 129.72H277.75Z" fill="#2C4D13"/>
<path d="M280.69 146.603C281.83 146.62 282.74 147.255 282.73 148.014C282.72 148.782 281.78 149.381 280.64 149.372C279.5 149.354 278.59 148.72 278.6 147.96C278.61 147.201 279.55 146.585 280.69 146.603Z" fill="#94B73D"/>
<path d="M285.36 134.195C284.91 132.802 284.49 131.382 284.25 129.935C284.03 128.639 283.58 126.942 282.99 125.745C282.96 125.683 282.86 125.736 282.88 125.79C283.52 127.684 284.04 129.667 284.44 131.605C284.81 133.427 286.81 136.857 284.96 138.42C284.94 138.438 284.96 138.474 284.98 138.456C286.42 137.34 285.78 135.526 285.35 134.195H285.36Z" fill="#20380E"/>
<path d="M288.499 133.695C288.019 132.078 287.919 130.542 286.769 129.14C286.729 129.095 286.649 129.157 286.679 129.202C287.369 130.346 287.859 131.471 288.089 132.748C288.389 134.419 289.669 136.303 288.959 137.983C288.959 138.001 288.979 138.01 288.989 137.983C289.659 136.571 288.919 135.089 288.499 133.686V133.695Z" fill="#20380E"/>
<path d="M291.21 136.178C290.97 134.892 291.02 134.142 290.58 133.284C290.58 133.275 290.55 133.284 290.56 133.293C290.97 134.16 290.94 135.285 291.09 136.232C291.27 137.34 291.44 138.68 291.95 139.698C291.98 139.751 292.06 139.707 292.04 139.662C291.72 138.519 291.43 137.34 291.22 136.178H291.21Z" fill="#20380E"/>
<path d="M194.72 209.112C197.34 207.915 204.93 201.394 222.91 199.322C228.1 198.723 233.53 197.812 238.88 198.071C245.32 198.375 249.23 205.923 252.88 212.676C255.86 218.187 255.99 226.727 255.98 238.473C255.98 245.851 249.9 257.392 254.54 272.72C259.63 289.522 258.37 282.697 259.54 295.203C260.36 303.956 195.73 303.733 191.26 296.918C191.26 296.918 192.59 281.822 196.17 270.638C200.4 257.436 190.41 243.52 190.2 236.365C189.7 219.429 189.29 214.096 194.71 209.103L194.72 209.112Z" fill="#20380E"/>
<path d="M276.86 199.206C275.93 197.151 274.79 195.034 272.59 193.828C271.74 193.364 270.07 192.453 268.54 192.078C262.75 193.319 256.96 194.597 251.12 195.606C247.71 196.195 245.13 196.74 233.43 198.027C231.63 198.223 234.62 212.265 235.39 213.596C241.1 223.404 244 221.849 255.47 223.502C257.06 223.734 262.47 219.92 277.82 211.202C278.84 206.923 278.72 203.315 276.87 199.215L276.86 199.206Z" fill="#20380E"/>
<path d="M190.321 231.818C192.171 232.104 194.001 232.443 195.851 232.738C198.471 233.167 201.091 233.569 203.711 233.998C203.011 230.728 202.401 227.441 201.891 224.145C201.221 219.768 200.551 215.382 200.561 210.952C200.561 207.826 199.941 202.127 204.811 201.653C204.961 201.635 205.121 201.51 205.171 201.394C205.961 199.768 201.031 199.259 200.321 199.349C197.631 199.679 194.911 201.082 193.161 202.922C189.791 206.45 189.051 212.274 189.131 216.722C189.221 221.733 189.631 226.78 190.321 231.818Z" fill="#20380E"/>
<path d="M255.66 222.85L261.46 220.715C261.46 220.715 267.16 271.103 254.84 293.255L250.48 276.445C250.48 276.445 258.38 268.852 255.66 222.85Z" fill="#4B702F"/>
<path d="M231.821 227.477C233.671 227.763 235.501 228.102 237.351 228.397C239.971 228.826 242.591 229.228 245.211 229.656C244.511 226.387 243.901 223.1 243.391 219.804C242.721 215.436 242.051 211.041 242.061 206.611C242.061 203.484 241.441 197.785 246.311 197.312C246.461 197.294 246.621 197.169 246.671 197.053C247.461 195.427 242.531 194.918 241.821 195.007C239.131 195.338 236.411 196.74 234.661 198.572C231.291 202.1 230.551 207.924 230.631 212.372C230.721 217.383 231.131 222.43 231.821 227.468V227.477Z" fill="#4B702F"/>
<path d="M257.7 271.943C256.04 261.081 253.86 250.273 251.97 239.446C250.64 231.818 249.17 224.217 247.51 216.633C246.31 211.157 244.91 204.583 239.81 200.814C235.1 197.339 228.09 198.214 222.43 198.455C218.15 198.634 213.87 198.973 209.59 199.545C203.16 200.394 195.93 201.216 189.62 203.502C187.87 204.324 186.02 205.164 184.67 206.459C181.77 209.237 181.87 213.319 181.4 216.901C181.38 218.678 181.4 220.438 181.33 222.117C181.25 224.181 181.08 226.244 180.89 228.308C180.98 237.061 179.77 245.815 179.14 254.542C178.63 261.697 178.4 268.852 177.97 276.007C177.6 282.242 177.96 288.896 180.38 294.81C181.02 296.373 181.89 297.713 182.93 298.856C182.93 298.856 182.93 298.874 182.95 298.883C184.8 301.75 187.93 303.814 191.15 305.305C199.42 309.128 208.57 309.798 217.76 309.789C222.17 309.789 226.59 309.45 230.98 309.155C235.21 308.869 239.23 308.074 243.31 307.288C246.25 306.404 249.02 305.225 251.48 303.519C260.69 297.15 259.68 286.297 258.45 277.195C258.21 275.444 257.96 273.693 257.69 271.943H257.7Z" fill="#94B73D"/>
<path d="M258.46 277.195C258.22 275.444 257.97 273.693 257.7 271.943C256.04 261.081 253.86 250.273 251.97 239.446C250.64 231.818 249.17 224.217 247.51 216.633C246.31 211.157 244.91 204.583 239.81 200.814C238.48 199.831 236.96 199.206 235.35 198.813C233.72 200.322 232.38 202.046 231.62 204.083C229.85 208.826 230.85 213.837 231.59 218.661C232.69 225.851 233.55 233.069 234.83 240.232C236.01 246.86 237.36 253.461 238.53 260.089C239.7 266.753 240.8 273.425 241.68 280.125C242.47 286.092 243.94 292.416 243.16 298.427C242.76 301.527 241.04 305.439 238.42 308.199C240.06 307.914 241.69 307.61 243.33 307.288C246.27 306.404 249.04 305.225 251.5 303.519C260.71 297.15 259.7 286.297 258.47 277.195H258.46Z" fill="#A9C563"/>
<path d="M196.54 203.538C196.54 203.538 197.24 198.536 200.38 197.464C203.52 196.383 219.34 194.266 222.44 195.249C225.55 196.222 226.79 200.081 226.79 200.081C226.79 200.081 225.6 201.09 222.37 200.805C219.13 200.519 221.4 197.937 213.91 198.25C206.42 198.563 204.29 198.956 203.24 200.59C202.18 202.225 199.03 204.315 196.55 203.538H196.54Z" fill="#A9C563"/>
<path d="M177.85 234.239C176.77 234.203 180.34 210.782 180.34 210.782C180.34 210.782 181.49 204.967 189.72 202.448C189.72 202.448 211.43 196.892 228.95 197.384C228.95 197.384 241.83 196.955 244.11 205.923C243.77 204.61 237.56 198.786 234.93 202.94C231.18 208.853 239.2 227.03 236.75 231.077C236.75 231.077 217.12 235.445 177.86 234.248L177.85 234.239Z" fill="#4B702F"/>
<path d="M220.89 220.76C220.89 220.76 225.34 243.091 225.65 260.849C225.65 260.849 229.21 261.635 233.46 260.849C233.46 260.849 230.37 230.451 227.12 219.732C227.12 219.732 226.92 217.133 223.92 217.151C220.92 217.169 220.6 219.25 220.89 220.76Z" fill="#386118"/>
<path d="M231.26 237.017L230.39 231.13C230.19 229.817 228.87 228.888 227.43 229.058L224.43 229.415C222.99 229.585 221.99 230.791 222.18 232.104L223.06 237.99C223.25 239.303 224.58 240.232 226.01 240.063L229.01 239.705C230.45 239.536 231.45 238.33 231.26 237.017ZM228.59 238.768L226.15 239.062C224.98 239.196 223.9 238.446 223.74 237.365L223.03 232.568C222.87 231.497 223.69 230.514 224.86 230.371L227.3 230.085C228.47 229.942 229.55 230.702 229.71 231.773L230.42 236.57C230.58 237.642 229.76 238.625 228.59 238.768Z" fill="#386118"/>
<path d="M225.02 220.313C225.02 220.849 224.53 221.287 223.93 221.287C223.33 221.287 222.84 220.849 222.84 220.313C222.84 219.777 223.33 219.339 223.93 219.339C224.53 219.339 225.02 219.777 225.02 220.313Z" fill="#386118"/>
<path d="M189.461 220.76C189.461 220.76 185.011 243.091 184.701 260.849C184.701 260.849 181.141 261.635 176.891 260.849C176.891 260.849 179.981 230.451 183.231 219.732C183.231 219.732 183.431 217.133 186.431 217.151C189.431 217.169 189.751 219.25 189.461 220.76Z" fill="#386118"/>
<path d="M181.341 239.705L184.341 240.063C185.781 240.232 187.101 239.303 187.291 237.99L188.161 232.104C188.361 230.791 187.351 229.585 185.911 229.415L182.911 229.058C181.471 228.888 180.151 229.817 179.951 231.13L179.081 237.017C178.891 238.33 179.891 239.536 181.331 239.705H181.341ZM179.931 236.579L180.641 231.782C180.801 230.71 181.881 229.951 183.051 230.094L185.501 230.38C186.671 230.514 187.491 231.497 187.331 232.577L186.621 237.374C186.461 238.446 185.381 239.205 184.211 239.071L181.761 238.776C180.591 238.634 179.771 237.651 179.931 236.579Z" fill="#386118"/>
<path d="M185.341 220.313C185.341 220.849 185.831 221.287 186.431 221.287C187.031 221.287 187.521 220.849 187.521 220.313C187.521 219.777 187.031 219.339 186.431 219.339C185.831 219.339 185.341 219.777 185.341 220.313Z" fill="#386118"/>
<path d="M232.88 189.696C232.901 189.692 232.946 189.685 232.997 189.682C233.01 189.681 233.121 189.672 233.258 189.7C233.313 189.712 233.515 189.755 233.709 189.923C233.797 190.009 233.949 190.23 234.005 190.366C234.009 190.382 234.013 190.4 234.016 190.419C233.616 190.534 233.321 190.616 233.17 190.655L232.81 189.707C222.13 192.464 210.612 192.71 199.833 190.254C183.17 186.453 170.905 170.51 170.049 155.648C169.85 152.052 170.939 147.543 172.338 144.064L172.338 144.063C174.983 137.482 181.053 131.708 188.509 127.639C195.956 123.576 204.659 121.285 212.414 121.564C217.921 121.765 222.895 122.889 227.769 125.218C228.139 125.395 228.511 125.569 228.883 125.743C231.033 126.749 233.167 127.747 234.65 129.175C234.971 129.494 235.252 129.81 235.503 130.132L235.546 130.186L235.596 130.234C236.206 130.823 236.768 131.402 237.227 132.022L237.227 132.022C238.358 133.545 239.267 135.2 240.175 136.929L240.178 136.935C240.985 138.445 241.64 139.945 242.283 141.537L242.286 141.543C242.371 141.752 242.457 141.956 242.542 142.158C243.1 143.49 243.601 144.685 243.631 145.877L243.631 145.878C243.648 146.55 243.584 147.212 243.515 147.941C243.49 148.199 243.464 148.465 243.441 148.743C243.357 149.76 243.314 150.886 243.588 152.026C244.044 153.933 244.992 155.642 245.871 157.229C246.031 157.518 246.189 157.802 246.341 158.083L246.424 158.237L246.433 158.244C247.775 160.771 248.637 163.545 249.083 166.34L249.083 166.34C249.575 169.419 249.271 173.5 248.055 177.39C246.854 181.229 244.803 184.761 241.892 186.963C240.269 187.497 237.989 188.197 236.111 188.759C235.143 189.049 234.287 189.301 233.686 189.473C233.385 189.559 233.153 189.624 233.006 189.664C232.935 189.683 232.896 189.693 232.88 189.696ZM232.88 189.696C232.865 189.699 232.862 189.7 232.876 189.697C232.877 189.697 232.878 189.697 232.88 189.696Z" fill="white" stroke="#20380E" stroke-width="2"/>
<path d="M248.1 137.456C247.54 135.491 246.59 133.525 245.21 131.891C243.53 128.764 240.92 126.013 237.63 124.12C232.91 121.395 228.59 120.055 222.9 120.27C221.64 120.314 220.4 120.448 219.18 120.654C218.77 120.698 218.35 120.752 217.93 120.797C216.16 119.787 213.25 119.939 211.14 119.903C210.38 119.805 209.62 119.725 208.84 119.698C206.19 119.591 203.46 119.966 200.89 120.52C196.65 121.44 192.54 122.869 188.75 124.816C188.45 124.968 188.15 125.138 187.86 125.299C187.61 125.433 187.35 125.567 187.11 125.71C181.44 128.934 176.46 133.329 173.38 138.572C170.86 142.208 169.12 146.352 168.43 150.515C166.51 162.011 171.05 175.597 181.18 183.172C186.13 186.879 191.08 191.64 196.9 194.052C199.64 195.186 203.27 194.489 206.22 194.927C207.59 195.133 211.94 194.766 213.03 193.569C213.3 193.275 213.98 192.515 214.54 192.783C216.18 193.56 217.83 193.534 219.62 193.802C221.18 194.034 222.84 194.15 224.41 194.007C225.44 193.909 226.3 193.158 226.77 192.39C227.82 190.666 228.73 188.817 229.54 186.986C231.04 183.574 231.02 180.099 230.78 176.535C230.6 173.766 230.3 170.997 229.99 168.237C230.09 167.46 230.23 166.692 230.44 165.923C231.13 163.449 232.38 161.305 233.61 159.036C233.64 159.019 233.66 159.01 233.69 158.992C233.72 158.965 233.74 158.947 233.77 158.92C235.12 157.723 235.26 156.75 237.01 155.642C236.96 156.669 237.68 156.723 237.71 157.759C237.8 160.85 238.01 164.86 239.8 167.594C240.16 168.13 240.95 167.558 240.95 167.111C240.97 165.459 240.52 163.771 240.46 162.091C240.38 159.965 240.58 157.84 240.84 155.731C240.99 155.901 241.3 155.928 241.49 155.687C242.26 154.722 242.81 153.534 243.21 152.284C243.1 152.739 242.99 153.186 242.87 153.641C242.79 153.972 243.12 154.222 243.47 154.07C244.81 153.489 245.49 151.676 246 150.533C246.25 149.979 246.43 149.407 246.58 148.827C246.64 149.434 246.67 150.05 246.66 150.658C246.66 151.453 247.86 151.185 248.01 150.577C249.08 146.165 249.35 141.904 248.09 137.465L248.1 137.456Z" fill="#20380E"/>
<path d="M235.41 157.956C235.03 158.474 234.53 158.938 234.14 159.421C233.64 160.046 233.25 160.734 232.8 161.386C231.65 163.056 231.22 165.093 230.79 166.986C230.06 170.202 231.77 172.855 235.01 173.882C231.65 164.342 235.42 157.947 235.42 157.947L235.41 157.956Z" fill="white"/>
<path d="M239.05 167.236C238.39 164.039 239.49 160.832 239.34 157.625C239.3 156.598 238.57 154.543 237.02 155.624C236.27 156.151 235.77 157 235.41 157.956C235.41 157.956 231.65 164.351 235 173.891C235.43 174.838 236.06 175.66 237.04 176.062C238.77 176.776 240.1 176.08 240.61 174.49C241.41 172.015 239.54 169.621 239.04 167.236H239.05Z" fill="white"/>
<path d="M240.12 170.524C240.05 170.354 239.96 170.193 239.86 170.032C239.07 168.38 238.21 166.781 238.32 164.914C238.37 164.423 238.44 163.922 238.5 163.422C238.73 161.707 239.52 159.331 239.13 157.625C239.33 158.804 238.81 160.287 238.61 161.448C238.39 162.726 238.16 164.012 238.03 165.289C237.78 167.629 237.78 169.898 239.22 171.855C239.3 171.962 239.47 171.819 239.41 171.703C238.41 170.077 238.16 168.335 238.21 166.549C238.23 166.772 238.27 167.004 238.32 167.219C238.36 167.799 238.6 168.29 238.86 168.809C238.86 168.826 238.87 168.835 238.88 168.844C238.91 168.889 238.93 168.943 238.95 168.987C239.24 169.586 239.51 170.157 239.99 170.649C240.06 170.729 240.16 170.586 240.13 170.515L240.12 170.524Z" fill="#20380E"/>
<path d="M233.22 223.118C233.22 223.118 237.79 225.163 237.67 230.157C237.55 235.15 235.55 237.472 235.51 237.526C235.47 237.588 236.45 234.891 236.38 233.792C236.38 233.792 235.68 237.428 234.58 238.589C234.58 238.589 234.22 239.161 233.52 237.99C232.82 236.829 231.54 234.596 231.32 233.783C231.32 233.783 231.76 235.963 232.37 236.847C232.98 237.731 230.64 236.15 229.89 232.872C229.14 229.594 230.39 223.886 230.39 223.886C231.38 223.52 232.1 223.422 233.21 223.118H233.22Z" fill="#20380E"/>
<path d="M233.22 223.118C233.22 223.118 237.79 225.163 237.67 230.157C237.55 235.15 235.55 237.472 235.51 237.526C235.47 237.588 236.45 234.891 236.38 233.792C236.38 233.792 235.68 237.428 234.58 238.589C234.58 238.589 234.22 239.161 233.52 237.99C232.82 236.829 231.54 234.596 231.32 233.783C231.32 233.783 231.76 235.963 232.37 236.847C232.98 237.731 230.64 236.15 229.89 232.872C229.14 229.594 230.39 223.886 230.39 223.886C231.38 223.52 232.1 223.422 233.21 223.118H233.22Z" fill="#20380E"/>
<path d="M234.15 215.061C234.23 214.864 234.33 214.677 234.41 214.48C234.55 213.158 234.32 211.783 233.71 210.577C233.78 210.434 233.85 210.282 233.91 210.13C234.08 208.701 233.82 207.218 233.03 205.968C233.14 205.762 233.24 205.557 233.34 205.342C233.55 203.895 233.28 202.413 232.38 201.18C232.51 200.965 232.64 200.751 232.75 200.537C232.99 199.09 232.74 197.643 231.74 196.428C231.89 196.231 232.04 196.035 232.16 195.829C232.43 194.489 232.23 193.167 231.29 192.015C231.4 191.881 231.53 191.738 231.63 191.595C231.98 190.175 231.74 188.782 230.45 187.576C230.65 187.379 230.85 187.183 231.01 186.977C231.45 185.566 231.21 184.19 229.64 182.958C228.68 182.484 227.98 182.109 227.41 181.805C227.28 181.734 227.15 181.68 227.02 181.627C226.94 181.743 226.84 181.904 226.75 182.082C226.66 182.315 226.59 182.511 226.53 182.672C225.97 184.119 225.6 185.494 225.2 186.852C225.03 187.433 224.9 188.022 224.82 188.594C224.43 188.147 223.94 187.719 223.33 187.299C222.17 186.486 221.06 185.682 219.84 184.941C219.11 184.557 218.36 184.208 217.42 183.967C217.29 184.083 217.15 184.208 217.04 184.333C216.97 184.467 216.91 184.61 216.83 184.744C215.36 186.682 215.62 188.719 217.26 190.193C217.55 190.327 217.82 190.452 218.1 190.586C217.76 191.979 218.15 193.391 219.13 194.552C219.29 194.659 219.46 194.757 219.62 194.865C219.42 196.151 219.78 197.464 220.58 198.58C220.78 198.732 220.98 198.884 221.18 199.027C220.89 200.412 221.22 201.85 222.02 203.074C222.2 203.234 222.4 203.386 222.59 203.538C222.28 204.931 222.62 206.387 223.4 207.629C223.56 207.781 223.75 207.915 223.94 208.058C223.64 209.451 223.98 210.889 224.75 212.122C224.87 212.229 224.99 212.328 225.12 212.426C224.93 213.721 225.27 215.043 225.99 216.177C226.18 216.347 226.36 216.499 226.54 216.66C226.36 218.035 226.64 219.429 227.27 220.644C227.95 221.394 228.59 222.055 229.26 222.6C229.93 223.145 230.65 223.6 231.49 224.083V224.1C231.53 224.145 231.58 224.19 231.63 224.226L231.67 224.19C231.67 224.19 231.71 224.217 231.74 224.226C231.77 224.181 231.8 224.136 231.83 224.083C231.83 224.065 231.83 224.047 231.83 224.038C232.48 223.404 233.13 222.743 233.64 221.966C234.16 221.18 234.59 220.277 234.93 219.322C235.07 217.901 234.82 216.392 234.14 215.097L234.15 215.061Z" fill="#20380E"/>
<path d="M229.62 224.226C229.72 224.797 230.35 225.137 231.12 225.029C231.89 224.922 232.55 224.404 232.44 223.815C232.33 223.225 231.47 222.787 230.72 222.912C229.96 223.037 229.52 223.645 229.63 224.217L229.62 224.226Z" fill="#20380E"/>
<path d="M231.01 223.332C231.17 224.127 232.28 224.708 233.36 224.592C234.45 224.476 235.16 223.725 235.04 222.904C234.92 222.091 234 221.546 232.85 221.662C231.7 221.778 230.85 222.528 231.01 223.332Z" fill="#94B73D"/>
<path d="M190 225.726C190 225.726 185.73 227.638 185.85 232.3C185.96 236.963 187.83 239.134 187.87 239.187C187.91 239.241 186.99 236.722 187.06 235.695C187.06 235.695 187.72 239.089 188.74 240.179C188.74 240.179 189.08 240.706 189.73 239.625C190.38 238.535 191.58 236.454 191.78 235.686C191.78 235.686 191.37 237.722 190.8 238.544C190.23 239.375 192.42 237.892 193.11 234.828C193.81 231.765 192.64 226.432 192.64 226.432C191.72 226.092 191.04 225.994 190 225.717V225.726Z" fill="#20380E"/>
<path d="M190 225.726C190 225.726 185.73 227.638 185.85 232.3C185.96 236.963 187.83 239.134 187.87 239.187C187.91 239.241 186.99 236.722 187.06 235.695C187.06 235.695 187.72 239.089 188.74 240.179C188.74 240.179 189.08 240.706 189.73 239.625C190.38 238.535 191.58 236.454 191.78 235.686C191.78 235.686 191.37 237.722 190.8 238.544C190.23 239.375 192.42 237.892 193.11 234.828C193.81 231.765 192.64 226.432 192.64 226.432C191.72 226.092 191.04 225.994 190 225.717V225.726Z" fill="#20380E"/>
<path d="M205.32 189.845C205.25 189.72 205.19 189.586 205.12 189.46C205.01 189.353 204.88 189.237 204.76 189.121C203.88 189.344 203.18 189.675 202.5 190.032C201.36 190.729 200.32 191.479 199.23 192.238C198.66 192.631 198.21 193.033 197.84 193.453C197.77 192.917 197.64 192.372 197.48 191.828C197.1 190.568 196.76 189.273 196.24 187.924C196.19 187.781 196.12 187.585 196.03 187.37C195.94 187.201 195.85 187.049 195.77 186.942C195.65 186.995 195.53 187.049 195.41 187.111C194.88 187.397 194.22 187.745 193.33 188.183C191.86 189.335 191.64 190.622 192.05 191.944C192.21 192.14 192.39 192.319 192.58 192.506C191.38 193.632 191.15 194.936 191.48 196.258C191.57 196.392 191.69 196.517 191.79 196.651C190.91 197.723 190.72 198.965 190.97 200.215C191.08 200.412 191.22 200.59 191.36 200.778C190.43 201.912 190.19 203.27 190.42 204.619C190.52 204.824 190.64 205.021 190.76 205.217C189.92 206.37 189.67 207.763 189.87 209.112C189.96 209.308 190.06 209.505 190.15 209.692C189.41 210.863 189.17 212.238 189.33 213.578C189.39 213.721 189.45 213.855 189.51 213.989C188.93 215.114 188.72 216.401 188.85 217.642C188.92 217.83 189.01 218 189.09 218.187C188.46 219.393 188.23 220.813 188.36 222.135C188.68 223.029 189.08 223.877 189.56 224.61C190.04 225.342 190.65 225.95 191.26 226.548C191.26 226.566 191.26 226.575 191.26 226.593C191.28 226.646 191.31 226.691 191.34 226.727C191.36 226.718 191.38 226.7 191.4 226.691C191.41 226.7 191.42 226.718 191.44 226.727C191.48 226.7 191.53 226.655 191.57 226.611C191.57 226.611 191.57 226.602 191.57 226.593C192.36 226.137 193.03 225.717 193.66 225.199C194.28 224.69 194.89 224.074 195.52 223.377C196.12 222.243 196.38 220.938 196.2 219.652C196.37 219.5 196.54 219.366 196.72 219.214C197.39 218.152 197.71 216.928 197.53 215.713C197.64 215.624 197.76 215.525 197.87 215.436C198.6 214.284 198.91 212.944 198.63 211.64C198.8 211.506 198.98 211.381 199.13 211.238C199.86 210.077 200.17 208.719 199.88 207.415C200.06 207.272 200.24 207.129 200.42 206.977C201.17 205.834 201.48 204.494 201.21 203.199C201.4 203.065 201.59 202.922 201.77 202.779C202.52 201.734 202.85 200.51 202.67 199.304C202.82 199.206 202.98 199.108 203.13 199.018C204.05 197.937 204.41 196.624 204.1 195.32C204.36 195.195 204.61 195.07 204.89 194.954C206.43 193.578 206.67 191.676 205.29 189.862L205.32 189.845Z" fill="#20380E"/>
<path d="M193.361 226.753C193.261 227.289 192.681 227.611 191.961 227.513C191.241 227.414 190.631 226.932 190.731 226.378C190.831 225.824 191.631 225.423 192.341 225.53C193.051 225.646 193.461 226.217 193.361 226.753Z" fill="#20380E"/>
<path d="M192.06 225.932C191.91 226.682 190.88 227.218 189.86 227.111C188.84 227.004 188.18 226.298 188.29 225.539C188.4 224.779 189.26 224.27 190.33 224.377C191.4 224.485 192.2 225.19 192.05 225.941L192.06 225.932Z" fill="#94B73D"/>
</g>
</g>
<defs>
<clipPath id="clip0_813_2820">
<rect width="235.423" height="180" fill="white" transform="translate(117 70)"/>
</clipPath>
<clipPath id="clip1_813_2820">
<rect width="124.41" height="359.79" fill="white" transform="translate(168 116)"/>
</clipPath>
</defs>
</svg>
