<svg width="470" height="250" viewBox="0 0 470 250" fill="none" xmlns="http://www.w3.org/2000/svg">
<g clip-path="url(#clip0_813_2776)">
<path d="M159.872 250.775L175.118 226C180.789 216.787 191.491 211.965 202.146 213.817L205.518 214.403C214.476 215.962 222.007 222.019 225.448 230.429L233.773 250.775H159.872Z" fill="#20380E"/>
<path d="M216.829 250L278.115 156.686L307.35 124.427L322.403 130.916L320.76 136.926L318.167 144.773C316.1 151.038 311.894 156.37 306.293 159.849L300.768 163.283L261 250H216.829Z" fill="white"/>
<path d="M260.701 250C260.593 250 260.477 249.977 260.377 249.931C259.991 249.753 259.821 249.29 260.007 248.904L300.059 162.967C300.121 162.828 300.221 162.72 300.352 162.635L305.876 159.201C311.316 155.822 315.413 150.614 317.427 144.534L320.019 136.687L321.478 131.355L307.551 125.345L278.725 157.149L217.477 249.645C217.238 250 216.76 250.1 216.405 249.861C216.05 249.622 215.95 249.144 216.189 248.789L277.475 156.246C277.475 156.246 277.521 156.185 277.544 156.154L306.779 123.894C307.003 123.647 307.35 123.57 307.659 123.701L322.712 130.19C323.067 130.345 323.252 130.73 323.152 131.101L321.509 137.111L318.901 144.997C316.779 151.416 312.443 156.918 306.702 160.49L301.37 163.8L261.411 249.529C261.28 249.807 261.002 249.977 260.709 249.977L260.701 250Z" fill="#20380E"/>
<path d="M333.828 116.603L299.445 85.0642L235.246 155.052L269.629 186.591L333.828 116.603Z" fill="#B4CC77"/>
<path d="M243.788 180.628C243.603 180.628 243.417 180.559 243.263 180.427C242.947 180.142 242.931 179.648 243.217 179.339L258.579 162.596C258.864 162.28 259.358 162.265 259.667 162.55C259.983 162.836 259.998 163.329 259.713 163.638L244.351 180.381C244.197 180.543 243.988 180.628 243.78 180.628H243.788Z" fill="#20380E"/>
<path d="M223.002 187.557C222.816 187.557 222.631 187.487 222.477 187.356C222.161 187.071 222.145 186.577 222.431 186.268L237.793 169.525C238.078 169.209 238.572 169.193 238.881 169.479C239.197 169.764 239.212 170.258 238.927 170.567L223.565 187.31C223.411 187.472 223.202 187.557 222.994 187.557H223.002Z" fill="#20380E"/>
<path d="M240.347 72.1141L244.536 73.7267L247.352 70L247.738 74.8918L252.815 75.5939L247.268 77.3994L246.766 82.3143L244.312 78.3484L240.185 79.4363L242.384 76.242L240.347 72.1141Z" fill="#2C4D13"/>
<path d="M328.746 171.77C328.461 171.77 328.206 171.616 328.067 171.369L326.331 168.206L323.168 166.477C322.921 166.338 322.767 166.084 322.767 165.798C322.767 165.513 322.921 165.258 323.168 165.119L326.331 163.383L328.067 160.22C328.337 159.726 329.148 159.726 329.418 160.22L331.154 163.383L334.317 165.119C334.564 165.258 334.718 165.513 334.718 165.798C334.718 166.084 334.564 166.338 334.317 166.477L331.154 168.206L329.418 171.369C329.279 171.616 329.024 171.77 328.739 171.77H328.746ZM325.151 165.791L327.28 166.956C327.411 167.025 327.519 167.133 327.589 167.264L328.754 169.394L329.919 167.264C329.989 167.133 330.097 167.025 330.228 166.956L332.357 165.791L330.228 164.626C330.097 164.556 329.989 164.448 329.919 164.317L328.754 162.187L327.589 164.317C327.519 164.448 327.411 164.556 327.28 164.626L325.151 165.791Z" fill="#2C4D13"/>
<path d="M313.183 152.334C316.161 148.515 319.88 137.327 320.042 136.857L321.879 131.348C321.994 131 321.832 130.638 321.508 130.499L307.805 124.998C307.551 124.897 307.25 124.959 307.034 125.167C306.123 126.055 304.804 127.984 305.128 129.889L301.964 128.578C301.679 128.462 301.339 128.555 301.131 128.801C301.008 128.948 298.222 132.42 300.028 135.19C299.503 135.915 298.623 137.35 298.685 138.878C298.724 139.781 299.079 140.56 299.719 141.216C298.986 142.018 298.299 143.284 298.708 144.788C299.11 146.254 302.952 148.669 304.734 149.657C303.839 149.973 301.586 150.976 300.853 152.25C300.637 152.62 309.904 156.524 313.175 152.334H313.183Z" fill="white"/>
<path d="M320.035 137.297C319.934 137.297 319.826 137.273 319.726 137.235L301.293 129.149C300.699 130.075 299.611 132.173 300.722 133.809C300.961 134.164 300.869 134.642 300.514 134.882C300.159 135.121 299.681 135.028 299.441 134.673C297.335 131.571 300.298 127.853 300.429 127.698C300.645 127.428 301.023 127.336 301.339 127.474L320.351 135.815C320.744 135.985 320.922 136.44 320.744 136.834C320.621 137.127 320.335 137.297 320.035 137.297Z" fill="#20380E"/>
<path d="M320.752 137.705C320.675 137.705 320.598 137.698 320.528 137.675C320.119 137.551 319.896 137.119 320.019 136.71L321.647 131.417L307.535 125.414C306.895 126.186 305.652 128.007 306.763 129.635C307.003 129.99 306.91 130.468 306.555 130.707C306.2 130.947 305.722 130.854 305.483 130.499C303.762 127.968 305.591 125.098 306.794 123.933C307.018 123.717 307.35 123.655 307.635 123.779L322.889 130.268C323.252 130.422 323.445 130.823 323.321 131.201L321.493 137.165C321.392 137.497 321.084 137.713 320.752 137.713V137.705Z" fill="#20380E"/>
<path d="M318.368 143.546C318.26 143.546 318.152 143.523 318.052 143.477L300.653 135.599C300.221 136.209 299.542 137.374 299.619 138.539C299.673 139.256 300.005 139.866 300.645 140.398C300.969 140.676 301.015 141.162 300.738 141.486C300.46 141.81 299.974 141.857 299.65 141.579C298.685 140.769 298.16 139.781 298.083 138.639C297.921 136.301 299.765 134.21 299.843 134.125C300.066 133.871 300.429 133.801 300.738 133.94L318.692 142.073C319.078 142.25 319.255 142.705 319.078 143.091C318.947 143.377 318.669 143.546 318.376 143.546H318.368Z" fill="#20380E"/>
<path d="M300.984 152.998C300.83 152.998 300.676 152.952 300.537 152.851C300.19 152.604 300.113 152.126 300.359 151.779C301.247 150.529 302.311 149.889 303.284 149.564C301.285 148.423 298.809 146.725 298.315 145.105C297.628 142.836 299.217 141.108 300.151 140.506C300.383 140.36 300.676 140.344 300.915 140.468L314.888 147.589C315.266 147.782 315.42 148.245 315.228 148.623C315.035 149.001 314.572 149.156 314.186 148.963L300.653 142.065C300.182 142.489 299.41 143.407 299.788 144.65C300.228 146.092 304.071 148.353 306.393 149.433C306.756 149.603 306.925 150.012 306.794 150.39C306.663 150.768 306.27 150.976 305.884 150.884C305.784 150.861 303.291 150.305 301.617 152.658C301.463 152.867 301.231 152.983 300.984 152.983V152.998Z" fill="#20380E"/>
<path d="M190.958 200.442L178.914 202.155C165.064 204.122 152.125 194.4 150.158 180.551L149.479 175.775C147.017 158.438 159.185 142.235 176.522 139.773L178.521 144.356C189.392 142.813 199.546 150.444 201.089 161.308L204.152 182.865C205.356 191.322 199.415 199.231 190.958 200.434V200.442Z" fill="#20380E"/>
<path d="M192.201 233.064L206.992 182.156L176.646 172.488L161.862 217.378L192.201 233.064Z" fill="white"/>
<path d="M192.2 233.836C192.077 233.836 191.953 233.805 191.845 233.751L161.507 218.065C161.167 217.887 161.013 217.501 161.129 217.139L175.92 172.249C176.051 171.847 176.483 171.624 176.884 171.755L207.23 181.423C207.632 181.546 207.855 181.97 207.74 182.372L192.941 233.28C192.879 233.504 192.717 233.681 192.501 233.774C192.401 233.812 192.3 233.836 192.2 233.836ZM162.803 216.992L191.722 231.945L206.05 182.657L177.147 173.452L162.803 216.992Z" fill="#20380E"/>
<path d="M172.178 162.349C178.822 162.349 184.207 156.964 184.207 150.321C184.207 143.677 178.822 138.292 172.178 138.292C165.535 138.292 160.149 143.677 160.149 150.321C160.149 156.964 165.535 162.349 172.178 162.349Z" fill="#20380E"/>
<path d="M173.529 143.971C160.875 147.435 152.38 159.633 153.784 172.912C156.963 174.432 160.659 175.065 164.471 174.517C174.378 173.113 181.322 164.325 179.987 154.904C179.347 150.413 176.947 146.594 173.537 143.971H173.529Z" fill="#20380E"/>
<path d="M156.816 160.66C151.584 172.689 155.759 186.955 166.985 194.185C170.164 192.657 172.972 190.18 174.94 186.87C180.055 178.267 177.571 167.357 169.385 162.488C165.488 160.174 161.005 159.649 156.816 160.66Z" fill="#20380E"/>
<path d="M186.009 161.905C191.79 158.631 193.821 151.29 190.547 145.51C187.272 139.73 179.932 137.698 174.152 140.973C168.371 144.247 166.34 151.587 169.614 157.368C172.889 163.148 180.229 165.179 186.009 161.905Z" fill="#20380E"/>
<path d="M206.028 151.339C206.712 144.539 201.754 138.47 194.954 137.786C188.153 137.101 182.085 142.059 181.4 148.859C180.715 155.66 185.673 161.728 192.474 162.413C199.275 163.098 205.343 158.14 206.028 151.339Z" fill="#20380E"/>
<path d="M190.269 154.467C194.375 149.003 193.273 141.244 187.809 137.138C182.344 133.033 174.586 134.134 170.48 139.598C166.374 145.063 167.476 152.821 172.94 156.927C178.405 161.033 186.163 159.931 190.269 154.467Z" fill="#20380E"/>
<path d="M156.207 160.714C156.045 160.714 155.883 160.667 155.744 160.559C153.012 158.522 149.37 160.274 149.332 160.297C148.954 160.482 148.491 160.328 148.298 159.95C148.113 159.572 148.267 159.109 148.645 158.916C148.83 158.823 153.167 156.717 156.662 159.325C157.001 159.579 157.071 160.066 156.816 160.405C156.662 160.606 156.43 160.714 156.199 160.714H156.207Z" fill="#20380E"/>
<path d="M155.905 160.204C151.909 160.204 149.548 156.485 149.44 156.323C149.216 155.961 149.324 155.482 149.686 155.259C150.049 155.035 150.52 155.143 150.751 155.506C150.79 155.56 152.973 158.939 156.345 158.646C156.77 158.607 157.148 158.924 157.178 159.348C157.217 159.772 156.901 160.15 156.476 160.181C156.283 160.197 156.091 160.204 155.898 160.204H155.905Z" fill="#20380E"/>
<path d="M209.762 162.334C201.837 146.563 184.616 139.202 171.299 145.892C160.041 151.547 155.173 165.436 158.73 179.131C158.429 179.17 158.128 179.216 157.827 179.286C153.252 180.366 150.127 184.833 150.675 189.501C151.292 194.74 156.099 198.42 161.299 197.68C163.591 197.356 165.55 196.214 166.97 194.609C175.866 204.624 189.207 208.42 199.993 203.004C213.311 196.314 217.686 178.097 209.762 162.326V162.334Z" fill="white"/>
<path d="M189.385 206.275C181.468 206.275 173.313 202.595 166.955 195.751C165.427 197.209 163.491 198.158 161.407 198.451C158.676 198.837 155.976 198.127 153.792 196.445C151.609 194.763 150.227 192.333 149.903 189.594C149.309 184.563 152.704 179.702 157.642 178.537C157.689 178.529 157.727 178.514 157.773 178.506C154.448 164.417 159.795 150.807 170.944 145.205C177.595 141.864 185.373 141.787 192.849 144.981C200.279 148.16 206.529 154.194 210.449 161.987C214.36 169.78 215.479 178.398 213.589 186.253C211.691 194.161 206.984 200.357 200.333 203.698C196.884 205.434 193.158 206.267 189.377 206.267L189.385 206.275ZM166.971 193.845C167.194 193.845 167.403 193.938 167.549 194.107C176.492 204.176 189.392 207.479 199.647 202.325C205.881 199.192 210.302 193.359 212.092 185.898C213.898 178.39 212.817 170.15 209.067 162.681C205.318 155.212 199.346 149.433 192.247 146.401C185.195 143.384 177.881 143.454 171.639 146.586C160.929 151.972 155.922 165.274 159.471 178.938C159.525 179.154 159.486 179.378 159.363 179.563C159.239 179.748 159.046 179.872 158.823 179.895C158.545 179.934 158.275 179.972 157.997 180.034C153.815 181.021 150.93 185.142 151.439 189.408C151.717 191.731 152.882 193.791 154.733 195.218C156.585 196.646 158.877 197.248 161.191 196.916C163.19 196.63 165.042 195.635 166.4 194.1C166.546 193.938 166.754 193.837 166.978 193.837L166.971 193.845Z" fill="#20380E"/>
<path d="M179.045 167.102C179.84 168.074 180.981 168.46 181.599 167.951C182.216 167.45 182.077 166.254 181.29 165.274C180.495 164.301 179.353 163.916 178.736 164.425C178.119 164.926 178.258 166.122 179.045 167.102Z" fill="#20380E"/>
<path d="M194.346 159.117C195.14 160.089 196.282 160.475 196.899 159.965C197.517 159.464 197.378 158.268 196.591 157.288C195.796 156.316 194.654 155.93 194.037 156.439C193.42 156.941 193.559 158.137 194.346 159.117Z" fill="#20380E"/>
<path d="M173.243 167.095C173.173 167.095 173.104 167.087 173.042 167.064C172.633 166.948 172.386 166.524 172.502 166.115C173.505 162.434 177.456 161.192 177.625 161.138C178.034 161.015 178.466 161.246 178.59 161.655C178.713 162.064 178.482 162.496 178.081 162.619C178.081 162.619 174.771 163.677 173.991 166.524C173.899 166.863 173.59 167.095 173.251 167.095H173.243Z" fill="#20380E"/>
<path d="M190.696 177.735C190.303 177.735 189.971 177.441 189.932 177.04C189.886 176.616 190.195 176.238 190.619 176.191C192.911 175.96 199.307 174.888 201.367 172.758C201.66 172.449 202.154 172.442 202.455 172.743C202.756 173.043 202.771 173.53 202.47 173.83C199.592 176.801 191.128 177.696 190.766 177.727C190.742 177.727 190.712 177.727 190.688 177.727L190.696 177.735Z" fill="#20380E"/>
<path d="M195.65 166.338C195.449 166.338 195.248 166.261 195.102 166.107L187.031 157.921C186.776 157.658 186.738 157.249 186.938 156.948C188.667 154.387 193.304 150.421 198.543 153.762C198.906 153.993 199.006 154.472 198.782 154.827C198.551 155.189 198.072 155.29 197.717 155.066C195.511 153.661 193.265 153.677 191.028 155.12C189.901 155.845 189.053 156.763 188.597 157.319L196.197 165.027C196.498 165.328 196.491 165.821 196.197 166.115C196.051 166.261 195.85 166.338 195.657 166.338H195.65Z" fill="#20380E"/>
<path d="M161.978 166.902L170.257 183.498C170.519 184.023 170.511 184.632 170.249 185.157C169.732 186.176 168.421 186.477 167.51 185.79L158.66 179.139L161.978 166.902Z" fill="#20380E"/>
<path d="M163.552 188.421C163.235 188.421 162.942 188.228 162.827 187.919C162.803 187.858 161.607 184.779 158.83 184.185C158.413 184.1 158.151 183.683 158.236 183.267C158.321 182.85 158.729 182.58 159.154 182.673C162.796 183.444 164.223 187.217 164.277 187.379C164.424 187.78 164.223 188.22 163.822 188.367C163.737 188.398 163.644 188.413 163.552 188.413V188.421Z" fill="#20380E"/>
<path d="M153.737 154.942C150.088 160.999 148.414 168.283 149.478 175.783L149.988 179.37C151.268 179.61 152.611 179.656 153.977 179.463C160.743 178.498 165.45 172.241 164.485 165.474C163.683 159.811 159.162 155.606 153.737 154.942Z" fill="#20380E"/>
<path d="M343.421 71.6204L338.522 134.226L281.472 81.9054L343.421 71.6204Z" fill="#B4CC77"/>
<path d="M229.144 134.534C228.959 134.534 228.773 134.465 228.619 134.334L217.292 123.948C217.138 123.809 217.053 123.617 217.046 123.408C217.038 123.2 217.107 122.999 217.254 122.853L236.736 101.866L229.915 95.6084C229.699 95.4078 229.614 95.0992 229.699 94.8214C229.784 94.5437 230.023 94.3276 230.309 94.2813L258.656 89.5748C258.888 89.5362 259.127 89.6056 259.304 89.7676C259.482 89.9297 259.575 90.1611 259.551 90.4003L257.306 119.049C257.283 119.342 257.098 119.597 256.82 119.705C256.542 119.813 256.234 119.759 256.018 119.558L249.189 113.293L229.699 134.287C229.545 134.449 229.344 134.534 229.136 134.534H229.144ZM218.913 123.331L229.097 132.675L248.587 111.68C248.873 111.372 249.359 111.349 249.675 111.634L255.902 117.344L257.947 91.2568L232.13 95.539L238.356 101.249C238.511 101.388 238.596 101.58 238.603 101.789C238.611 101.997 238.541 102.198 238.395 102.344L218.913 123.331Z" fill="#20380E"/>
<path d="M125 250L141.246 222.682C146.917 213.469 157.619 208.647 168.274 210.499L171.646 211.085C180.604 212.644 188.134 218.7 191.576 227.111L202 250H125Z" fill="#20380E"/>
</g>
<defs>
<clipPath id="clip0_813_2776">
<rect width="217.421" height="180" fill="white" transform="translate(126 70)"/>
</clipPath>
</defs>
</svg>
