<svg width="400" height="200" viewBox="0 0 400 200" fill="none" xmlns="http://www.w3.org/2000/svg">
<mask id="mask0_410_4164" style="mask-type:alpha" maskUnits="userSpaceOnUse" x="0" y="0" width="400" height="200">
<rect width="400" height="200" fill="#D9D9D9"/>
</mask>
<g mask="url(#mask0_410_4164)">
<path d="M100.379 53.0466C123.063 51.2653 144.843 58.6274 160.25 68.6522C175.809 78.8757 184.991 91.764 185.994 105.537C187.004 119.443 180.029 132.651 169.694 145.697C159.22 158.547 145.386 171.236 129.531 179.461C98.8867 196.657 63.7741 182.737 47.0369 141.177C30.2818 99.8786 53.7367 55.4189 100.379 53.0466Z" fill="#F5F5F5"/>
<path d="M257.667 114.972L252.731 127.731C252.411 128.555 252.823 129.481 253.647 129.801C254.471 130.12 255.397 129.708 255.716 128.884L260.672 116.081C260.519 116.101 260.359 116.105 260.199 116.103C259.905 116.098 259.619 116.055 259.345 115.984C259.293 115.968 259.242 115.956 259.19 115.936C258.905 115.846 258.639 115.722 258.393 115.565C258.124 115.397 257.882 115.196 257.67 114.965L257.667 114.972Z" fill="#20380E"/>
<path d="M251.219 127.993C250.334 127.977 249.604 128.683 249.589 129.568C249.573 130.453 250.278 131.183 251.163 131.198L257.006 131.3C257.891 131.316 258.621 130.611 258.637 129.726C258.652 128.841 257.947 128.11 257.062 128.095L251.219 127.993Z" fill="#20380E"/>
<path d="M217.242 85.8465L216.195 86.1074L222.844 112.774L223.89 112.513L217.242 85.8465Z" fill="#20380E"/>
<path d="M222.846 112.498L230.423 86.0773L231.452 86.3743L223.879 112.792L222.846 112.498Z" fill="#20380E"/>
<path d="M223.879 112.79L216.305 139.208L215.272 138.915L222.846 112.497L223.879 112.79Z" fill="#20380E"/>
<path d="M223.733 113.033L203.967 132.121L203.221 131.349L222.991 112.257L223.733 113.033Z" fill="#20380E"/>
<path d="M223.233 112.119L196.566 118.768L196.827 119.814L223.494 113.165L223.233 112.119Z" fill="#20380E"/>
<path d="M223.218 113.158L196.8 105.584L197.093 104.552L223.511 112.125L223.218 113.158Z" fill="#20380E"/>
<path d="M222.978 113.011L203.886 93.245L204.658 92.4996L223.75 112.27L222.978 113.011Z" fill="#20380E"/>
<path d="M222.991 112.254L242.762 93.1653L243.503 93.9372L223.733 113.029L222.991 112.254Z" fill="#20380E"/>
<path d="M249.902 105.472L223.235 112.121L223.496 113.168L250.163 106.519L249.902 105.472Z" fill="#20380E"/>
<path d="M223.511 112.126L249.928 119.703L249.635 120.732L223.218 113.159L223.511 112.126Z" fill="#20380E"/>
<path d="M223.75 112.271L242.842 132.041L242.066 132.783L222.978 113.013L223.75 112.271Z" fill="#20380E"/>
<path d="M223.885 112.512L222.839 112.773L229.487 139.44L230.534 139.179L223.885 112.512Z" fill="#20380E"/>
<path d="M217.176 87.8229C224.028 86.1123 230.926 87.345 236.536 90.7165C242.147 94.0881 246.474 99.5985 248.18 106.454C249.887 113.307 248.658 120.205 245.287 125.819C241.915 131.429 236.401 135.756 229.549 137.463C222.696 139.173 215.799 137.941 210.185 134.569C204.574 131.198 200.247 125.687 198.54 118.831C196.834 111.979 198.063 105.081 201.434 99.4671C204.806 93.8566 210.32 89.5298 217.172 87.8229L217.176 87.8229ZM234.835 93.5512C229.95 90.6164 223.942 89.5444 217.975 91.0324C212.009 92.5204 207.207 96.2868 204.272 101.172C201.338 106.057 200.266 112.065 201.754 118.032C203.242 123.999 207.008 128.8 211.893 131.735C216.778 134.669 222.786 135.741 228.753 134.253C234.72 132.765 239.521 128.999 242.456 124.114C245.391 119.229 246.463 113.221 244.975 107.254C243.487 101.287 239.72 96.486 234.835 93.5512Z" fill="#20380E"/>
<path d="M216.713 85.9741C224.077 84.1385 231.487 85.462 237.517 89.0826C243.547 92.707 248.194 98.6285 250.03 105.993C251.865 113.357 250.542 120.766 246.921 126.796C243.297 132.827 237.375 137.474 230.011 139.309C222.647 141.145 215.238 139.821 209.208 136.201C203.177 132.58 198.53 126.655 196.695 119.291C194.859 111.927 196.183 104.517 199.803 98.4869C203.424 92.4568 209.349 87.8097 216.713 85.9741ZM235.866 91.8326C230.539 88.6335 223.993 87.4664 217.489 89.0864C210.984 90.7064 205.752 94.815 202.553 100.138C199.354 105.465 198.183 112.011 199.807 118.515C201.427 125.02 205.532 130.252 210.859 133.451C216.186 136.65 222.731 137.817 229.236 136.197C235.741 134.577 240.972 130.468 244.171 125.145C247.371 119.818 248.541 113.273 246.918 106.768C245.294 100.263 241.189 95.0318 235.866 91.8326Z" fill="#20380E"/>
<path fill-rule="evenodd" clip-rule="evenodd" d="M225.308 113.815C225.607 113.318 225.718 112.706 225.565 112.097C225.412 111.488 225.03 110.998 224.533 110.699C224.036 110.4 223.424 110.289 222.815 110.442C222.206 110.595 221.716 110.977 221.417 111.474C221.118 111.971 221.007 112.583 221.16 113.192C221.313 113.801 221.695 114.291 222.192 114.59C222.689 114.889 223.301 115 223.91 114.847C224.519 114.694 225.009 114.312 225.308 113.815Z" fill="white"/>
<path d="M299.362 87.0418L298.316 87.3027L304.964 113.969L306.011 113.708L299.362 87.0418Z" fill="#20380E"/>
<path d="M304.974 113.694L312.547 87.2765L313.58 87.5698L306.006 113.987L304.974 113.694Z" fill="#20380E"/>
<path d="M306.007 113.988L298.429 140.409L297.4 140.116L304.974 113.694L306.007 113.988Z" fill="#20380E"/>
<path d="M305.861 114.232L286.091 133.32L285.349 132.548L305.116 113.456L305.861 114.232Z" fill="#20380E"/>
<path d="M305.358 113.318L278.691 119.967L278.952 121.013L305.619 114.365L305.358 113.318Z" fill="#20380E"/>
<path d="M305.342 114.359L278.924 106.782L279.217 105.753L305.635 113.327L305.342 114.359Z" fill="#20380E"/>
<path d="M305.102 114.215L286.01 94.4444L286.786 93.7028L305.874 113.473L305.102 114.215Z" fill="#20380E"/>
<path d="M305.116 113.457L324.886 94.3685L325.631 95.1404L305.861 114.232L305.116 113.457Z" fill="#20380E"/>
<path d="M332.022 106.668L305.356 113.316L305.617 114.363L332.283 107.714L332.022 106.668Z" fill="#20380E"/>
<path d="M305.635 113.325L332.052 120.899L331.759 121.932L305.342 114.358L305.635 113.325Z" fill="#20380E"/>
<path d="M305.874 113.47L324.966 133.237L324.194 133.982L305.102 114.212L305.874 113.47Z" fill="#20380E"/>
<path d="M306.014 113.712L304.968 113.973L311.616 140.639L312.663 140.378L306.014 113.712Z" fill="#20380E"/>
<path d="M299.3 89.0244C306.152 87.3175 313.05 88.5465 318.66 91.918C324.271 95.2895 328.598 100.804 330.304 107.656C332.011 114.508 330.782 121.406 327.411 127.016C324.039 132.627 318.525 136.954 311.673 138.661C304.821 140.367 297.923 139.139 292.309 135.767C286.698 132.395 282.371 126.881 280.665 120.029C278.958 113.177 280.187 106.279 283.558 100.665C286.93 95.0544 292.444 90.7275 299.296 89.0206L299.3 89.0244ZM316.959 94.7527C312.074 91.8179 306.066 90.7458 300.099 92.2339C294.133 93.7219 289.331 97.4883 286.397 102.373C283.462 107.259 282.39 113.266 283.878 119.233C285.366 125.2 289.132 130.001 294.017 132.936C298.902 135.871 304.91 136.943 310.877 135.455C316.844 133.967 321.645 130.201 324.58 125.315C327.515 120.43 328.587 114.422 327.099 108.456C325.611 102.489 321.844 97.6875 316.959 94.7527Z" fill="#20380E"/>
<path d="M298.841 87.1753C306.205 85.3397 313.615 86.6631 319.645 90.2838C325.675 93.9082 330.322 99.8297 332.158 107.194C333.993 114.558 332.67 121.967 329.049 127.998C325.429 134.028 319.503 138.675 312.139 140.51C304.775 142.346 297.366 141.023 291.335 137.402C285.305 133.778 280.658 127.856 278.823 120.492C276.987 113.128 278.31 105.718 281.931 99.6881C285.552 93.6579 291.477 89.0109 298.841 87.1753ZM317.994 93.0338C312.667 89.8346 306.121 88.6676 299.616 90.2876C293.112 91.9076 287.88 96.0161 284.681 101.339C281.482 106.666 280.311 113.212 281.935 119.717C283.555 126.221 287.663 131.453 292.987 134.652C298.314 137.851 304.859 139.018 311.364 137.398C317.869 135.778 323.1 131.673 326.299 126.346C329.498 121.019 330.665 114.474 329.045 107.969C327.425 101.464 323.321 96.233 317.994 93.0338Z" fill="#20380E"/>
<path fill-rule="evenodd" clip-rule="evenodd" d="M307.436 115.012C307.735 114.515 307.846 113.903 307.693 113.294C307.54 112.685 307.158 112.195 306.661 111.896C306.164 111.597 305.552 111.486 304.943 111.639C304.334 111.792 303.843 112.174 303.545 112.671C303.246 113.168 303.135 113.78 303.288 114.389C303.441 114.998 303.823 115.488 304.32 115.787C304.817 116.086 305.429 116.197 306.038 116.044C306.647 115.891 307.137 115.509 307.436 115.012Z" fill="white"/>
<path d="M243.721 69.119C243.397 68.2987 242.466 67.8955 241.646 68.2197C240.826 68.544 240.422 69.4744 240.747 70.2947L243.947 78.3411L257.36 112.063L223.939 111.479C223.054 111.464 222.323 112.169 222.308 113.054C222.293 113.939 222.998 114.67 223.883 114.685L259.677 115.31C259.893 115.317 260.113 115.284 260.326 115.198C261.15 114.87 261.55 113.94 261.222 113.116L246.921 77.1654L243.721 69.119Z" fill="#B4CC77"/>
<path d="M243.721 69.1191C243.397 68.2987 242.466 67.8956 241.646 68.2198C240.826 68.544 240.422 69.4744 240.747 70.2947L241.834 73.0219L244.847 71.9399L243.725 69.1154L243.721 69.1191Z" fill="#20380E"/>
<path d="M291.266 67.6276C290.979 66.7931 290.072 66.3494 289.237 66.6325C288.403 66.9192 287.959 67.8266 288.242 68.6611L303.717 113.887C304.003 114.722 304.911 115.166 305.745 114.883C306.58 114.596 307.023 113.688 306.74 112.854L291.266 67.6276Z" fill="#B4CC77"/>
<path d="M293.635 80.235C293.25 80.3696 292.961 79.8363 292.777 80.1642C292.788 80.1495 292.8 80.1348 292.815 80.1202L292.819 80.1203L292.819 80.1277L292.932 80.2301L292.818 80.1649C292.802 80.2241 292.751 80.3795 292.7 80.5014C293.123 80.1516 295.273 82.3282 292.932 80.2301L292.818 80.1649C292.826 80.1353 292.822 80.1278 292.807 80.1573C292.784 80.1941 292.807 80.1536 292.819 80.1277C292.819 80.1277 292.788 80.1569 292.773 80.1753L292.781 80.1643L292.75 80.2046C289.694 83.5142 258.737 112.459 258.646 112.543C258.003 113.149 257.971 114.16 258.577 114.803C259.18 115.446 260.195 115.479 260.838 114.872C260.928 114.788 291.776 85.9425 295.101 82.3698C295.135 82.3369 295.169 82.304 295.203 82.2674C295.366 82.088 295.474 82.7297 295.554 82.5972C295.573 82.5678 295.589 82.5383 295.604 82.5088C295.681 82.365 295.736 82.206 295.769 82.0355L295.761 82.0354C295.939 81.0303 295.559 80.4248 294.573 80.1918C294.555 80.1878 294.536 80.1837 294.518 80.1797C294.232 80.1226 293.934 80.136 293.646 80.2389L293.635 80.235ZM292.819 80.1277L292.815 80.1277C292.815 80.1277 292.822 80.1203 292.819 80.1277Z" fill="#B4CC77"/>
<path d="M221.992 111.111C221.54 111.87 221.791 112.852 222.549 113.305C223.308 113.757 224.29 113.506 224.746 112.748L246.821 78.2097C247.273 77.4512 247.022 76.4685 246.264 76.0163C245.506 75.5641 244.523 75.8148 244.071 76.5732L221.996 111.111L221.992 111.111Z" fill="#B4CC77"/>
<path d="M243.817 75.7617L293.691 76.6323L294.438 79.852L243.761 78.9674L243.817 75.7617Z" fill="#B4CC77"/>
<path d="M260.12 120.423C257.955 120.386 256.011 119.474 254.619 118.032C253.226 116.59 252.383 114.615 252.421 112.451C252.459 110.287 253.37 108.342 254.812 106.95C256.254 105.558 258.229 104.714 260.393 104.752C262.558 104.79 264.502 105.702 265.894 107.143C267.286 108.585 268.13 110.56 268.092 112.724C268.054 114.889 267.142 116.833 265.701 118.225C264.259 119.618 262.284 120.461 260.12 120.423Z" fill="#20380E"/>
<path fill-rule="evenodd" clip-rule="evenodd" d="M261.142 115.997C262.58 115.624 263.666 114.364 263.771 112.829C263.772 112.77 263.777 112.71 263.778 112.651C263.791 111.918 263.58 111.234 263.206 110.662C262.83 110.086 262.287 109.626 261.648 109.351C261.238 109.176 260.79 109.076 260.318 109.067C260.143 109.064 259.975 109.073 259.808 109.096C259.707 109.109 259.606 109.126 259.509 109.146C257.948 109.484 256.764 110.862 256.735 112.528C256.721 113.312 256.965 114.038 257.386 114.63C257.655 115.006 257.995 115.328 258.389 115.573C258.635 115.727 258.905 115.854 259.186 115.944C259.238 115.96 259.29 115.976 259.341 115.992C259.612 116.063 259.897 116.106 260.195 116.111C260.522 116.117 260.839 116.077 261.142 116.001L261.142 115.997Z" fill="#20380E"/>
<path d="M267.781 97.7024C268.101 96.8784 267.689 95.9524 266.865 95.633C266.041 95.3135 265.115 95.7252 264.796 96.5492L259.949 109.075C260.072 109.066 260.024 109.263 260.322 109.268C260.619 109.273 261.118 109.494 261.527 109.672C261.951 109.936 261.924 110.39 262.919 110.273L267.785 97.7025L267.781 97.7024Z" fill="#20380E"/>
<path d="M263.819 94.9772C262.934 94.9617 262.203 95.667 262.188 96.552C262.173 97.4371 262.878 98.1674 263.763 98.1829L270.107 98.2936C270.992 98.309 271.723 97.6038 271.738 96.7187C271.753 95.8337 271.048 95.1034 270.163 95.0879L263.819 94.9772Z" fill="#20380E"/>
<path fill-rule="evenodd" clip-rule="evenodd" d="M260.793 114.656C261.668 114.43 262.325 113.668 262.389 112.735C262.39 112.698 262.391 112.661 262.391 112.627C262.399 112.181 262.268 111.766 262.044 111.419C261.816 111.069 261.486 110.792 261.098 110.625C260.851 110.521 260.576 110.456 260.29 110.451C260.186 110.45 260.082 110.455 259.981 110.468C259.921 110.475 259.858 110.485 259.798 110.499C258.85 110.705 258.132 111.537 258.114 112.549C258.106 113.025 258.255 113.466 258.509 113.824C258.672 114.054 258.877 114.247 259.116 114.396C259.267 114.492 259.43 114.566 259.6 114.621C259.629 114.632 259.663 114.64 259.696 114.648C259.863 114.692 260.033 114.717 260.212 114.721C260.409 114.724 260.603 114.701 260.786 114.652L260.793 114.656Z" fill="white"/>
<path fill-rule="evenodd" clip-rule="evenodd" d="M308.665 115.75C309.152 114.937 309.333 113.939 309.086 112.945C308.839 111.951 308.214 111.152 307.4 110.665C306.586 110.179 305.589 109.998 304.595 110.244C303.601 110.491 302.802 111.121 302.315 111.931C301.828 112.744 301.647 113.742 301.894 114.736C302.141 115.729 302.77 116.529 303.58 117.016C304.394 117.506 305.391 117.683 306.385 117.437C307.379 117.19 308.179 116.56 308.665 115.75Z" fill="#B4CC77"/>
<path fill-rule="evenodd" clip-rule="evenodd" d="M226.541 114.553C227.028 113.739 227.209 112.742 226.962 111.748C226.715 110.754 226.086 109.955 225.276 109.468C224.462 108.981 223.465 108.8 222.471 109.047C221.477 109.294 220.677 109.923 220.191 110.733C219.704 111.547 219.523 112.544 219.77 113.538C220.017 114.532 220.646 115.332 221.456 115.818C222.27 116.305 223.267 116.486 224.261 116.239C225.255 115.992 226.055 115.363 226.541 114.553Z" fill="#B4CC77"/>
<path d="M287.432 66.2855C286.472 66.5254 285.886 67.4973 286.125 68.4575C286.365 69.4177 287.337 70.0038 288.297 69.7639L300.773 66.6523C301.464 66.4821 302.158 66.6058 302.724 66.9468C303.295 67.2878 303.732 67.846 303.906 68.5335C304.08 69.2247 303.956 69.9219 303.615 70.4889C303.6 70.5146 303.584 70.5404 303.569 70.5699C303.225 71.0996 302.69 71.5031 302.032 71.6665L298.654 72.5078C297.694 72.7477 297.108 73.7196 297.348 74.6798C297.588 75.64 298.56 76.2261 299.52 75.9862L302.898 75.1449C304.493 74.7487 305.79 73.7521 306.612 72.457C306.639 72.4165 306.67 72.3761 306.693 72.3356L305.154 71.4122L306.689 72.3281C307.501 70.9733 307.806 69.3121 307.395 67.6681C306.985 66.0204 305.941 64.6928 304.586 63.8805C303.231 63.0645 301.566 62.7639 299.918 63.1741L287.443 66.2857L287.432 66.2855Z" fill="#20380E"/>
<path fill-rule="evenodd" clip-rule="evenodd" d="M243.73 69.4307C246.106 68.6761 254.238 68.8664 255.843 66.0114C256.023 65.6872 256.036 65.6018 255.953 65.2172C255.355 62.4056 242.607 64.5453 239.851 64.5121C238.686 64.4992 232.667 61.0945 232.754 65.0578C232.784 66.3529 233.224 68.8567 236.012 70.2222C236.012 70.2222 239.361 71.0247 243.727 69.4269L243.73 69.4307Z" fill="#20380E"/>
<path fill-rule="evenodd" clip-rule="evenodd" d="M243.73 69.4314C244.16 69.2939 244.776 69.1893 245.511 69.0905L239.806 64.5083C238.536 64.408 232.674 61.1437 232.758 65.0586C232.788 66.3537 233.228 68.8575 236.016 70.2231C236.016 70.2231 239.365 71.0255 243.73 69.4277L243.73 69.4314Z" fill="#20380E"/>
<path d="M175.894 163.441L259.5 172.376L343.106 181.312C349.118 181.951 354 178.455 354 173.5L354 16.8345C354 11.8798 349.118 8.4134 343.106 9.0827L175.894 27.9429C169.882 28.6222 165 31.8488 165 35.1453V156.298C165 159.595 169.882 162.791 175.894 163.441Z" fill="white" fill-opacity="0.25" stroke="#20380E" stroke-width="2" stroke-linecap="round" stroke-linejoin="round"/>
<path d="M175.894 28.0624L343.106 9.08322C349.118 8.4097 354 11.8979 354 16.884V25.4286L165 41V35.3103C165 31.9929 169.882 28.746 175.894 28.0624Z" fill="#20380E" stroke="#20380E" stroke-width="2" stroke-linecap="round" stroke-linejoin="round"/>
<path d="M344.85 18.843C344.85 20.383 345.71 21.493 346.77 21.323C347.83 21.143 348.69 19.733 348.69 18.173C348.69 16.613 347.83 15.503 346.77 15.693C345.71 15.893 344.85 17.303 344.85 18.843Z" fill="white"/>
<path d="M337.12 20.1939C337.12 21.6939 337.98 22.7739 339.04 22.5939C340.1 22.4139 340.96 21.0439 340.96 19.5139C340.96 17.9839 340.1 16.9139 339.04 17.1139C337.98 17.3139 337.12 18.6839 337.12 20.1939Z" fill="white"/>
<path d="M329.38 21.5522C329.38 23.0122 330.24 24.0622 331.3 23.8822C332.36 23.7022 333.22 22.3622 333.22 20.8722C333.22 19.3822 332.36 18.3422 331.3 18.5422C330.24 18.7422 329.38 20.0822 329.38 21.5522Z" fill="white"/>
<path d="M156 135.47C153.784 138.027 151.077 136.84 150 135.927L151.846 135.014L156 135.47Z" stroke="#20380E" stroke-width="1.5" stroke-linecap="round"/>
<path d="M153.765 126.09C153.503 126.086 153.224 126.072 152.928 126.048C153.181 126.048 153.465 126.061 153.765 126.09C155.707 126.28 158.342 127.157 157.781 129.66C157.43 130.009 156.225 130.599 154.006 130.538C153.67 130.529 153.311 130.505 152.928 130.463C153.254 130.483 153.621 130.505 154.006 130.538C156.225 130.599 157.43 130.009 157.781 129.66C158.342 127.157 155.707 126.28 153.765 126.09Z" fill="white"/>
<path d="M123 161.769C126.64 152.671 135.052 133.513 139.582 129.66C138.908 125.245 140.795 116.335 153.737 116.014C162.5 116.014 164 118.514 156.973 120.027L151.715 121.633C154.007 120.964 158.429 120.509 157.781 124.041C157.781 124.844 156.811 126.369 152.928 126.048C154.816 126.048 158.429 126.77 157.781 129.66C157.377 130.061 155.84 130.784 152.928 130.463C155.085 130.596 159.076 130.803 157.781 134.014C157 135.514 155.5 135.514 152 134.878C150.922 134.878 149.288 135.68 147.671 137.286C146.053 138.891 141.874 163.107 139.986 175.014" stroke="#20380E" stroke-width="1.5" stroke-linecap="round"/>
<path d="M143.71 180.075C143.71 180.075 131.67 158.455 115.78 158.455C113.78 158.455 113.45 170.095 113.45 170.095L101.48 206.005C101.48 206.005 112.12 221.305 123.43 218.975C134.74 216.645 138.73 214.655 143.71 180.065V180.075Z" fill="#B4CC77"/>
<path d="M73.8716 91.243C74.1377 93.9642 74.5758 96.6697 75.0861 99.351C75.1377 99.576 75.3296 99.8026 75.5853 99.7436C77.9121 99.2741 80.1423 98.3953 82.1722 97.1487C85.8841 94.8575 88.8215 91.3782 90.3253 87.2784C91.9709 82.799 91.9669 77.7615 90.2907 73.2878C90.102 72.7804 89.368 73.0407 89.4388 73.5182C87.5491 72.5889 85.1875 73.1157 83.3659 74.0283C81.3351 75.0441 79.6524 76.5803 78.0744 78.1855C76.3653 79.9202 74.8647 81.6823 74.2138 84.0868C73.5788 86.4223 73.6463 88.8763 73.8807 91.2538L73.8716 91.243Z" fill="#20380E"/>
<path d="M70.8734 125.723C70.4326 126.077 86.653 136.914 87.6928 137.081C90.0589 137.467 94.4878 123.014 96.3061 118.388C96.9042 116.862 97.4923 115.336 98.0364 113.976C98.1924 113.548 98.3574 113.13 98.53 112.743C98.5972 112.537 98.6835 112.344 98.7589 112.16C99.4126 110.568 99.9179 109.436 100.181 109.167L81.9162 96.8461C81.9162 96.8461 71.3258 125.349 70.8842 125.714L70.8734 125.723Z" fill="white" stroke="#20380E" stroke-width="2" stroke-linecap="round" stroke-linejoin="round"/>
<path d="M85.9071 107.17C85.6963 107.534 85.9091 107.993 86.3394 108.37C89.2613 111.011 92.3642 113.525 95.639 115.904C96.0086 116.165 96.3858 116.458 96.7887 116.682C97.3867 115.156 97.9649 113.628 98.519 112.269C98.6749 111.841 98.84 111.423 99.0126 111.036C98.9245 111.009 98.8265 110.98 98.7393 110.943C98.3099 110.797 97.9852 110.84 97.7544 110.962C97.5301 110.883 97.2951 110.813 97.0617 110.724C95.9919 110.314 94.9237 109.884 93.8555 109.455C91.6495 108.59 89.4434 107.724 87.2481 106.85C86.7041 106.634 86.1261 106.827 85.9295 107.142L85.9071 107.17Z" fill="#20380E"/>
<path d="M83.7843 101.306C82.0979 100.103 79.7485 99.8779 77.8687 100.766" stroke="#20380E" stroke-width="2" stroke-linecap="round" stroke-linejoin="round"/>
<path d="M78.5033 86.2081C85.2347 80.053 87.2206 71.5881 96.3313 71.109C106.611 70.5662 111.313 83.8099 112.575 85.0583C113.048 85.519 113.432 85.7314 113.843 85.8558C114.401 86.0225 114.865 85.8802 115.416 85.8858C116.957 85.9333 116.792 87.5652 116.733 88.644C116.659 89.8922 116.564 91.1587 116.362 92.3961C116.22 93.2574 116.009 94.1128 115.728 94.9526C115.723 95.3836 115.726 95.8254 115.69 96.2639C114.937 105.353 106.971 110.904 97.8618 111.363C76.2588 112.442 74.185 90.1248 78.4834 86.2064L78.5033 86.2081Z" fill="white" stroke="#20380E" stroke-width="2" stroke-linecap="round" stroke-linejoin="round"/>
<path d="M115.346 96.7773C114.119 99.4752 110.167 100.432 107.831 98.5928" stroke="#20380E" stroke-width="2" stroke-linecap="round" stroke-linejoin="round"/>
<path d="M106.156 82.2294C105.022 82.1153 101.717 81.5604 101.19 85.1291" stroke="#20380E" stroke-width="2" stroke-linecap="round" stroke-linejoin="round"/>
<path d="M107.752 87.4386C108.043 88.5263 107.645 89.577 106.865 89.7833C106.085 89.9897 105.21 89.285 104.919 88.1972C104.628 87.1095 105.026 86.0588 105.806 85.8524C106.586 85.6461 107.46 86.3508 107.752 87.4386Z" fill="#20380E"/>
<path d="M78.4394 95.4545C78.1693 98.7134 80.5922 101.563 83.8411 101.832C87.0899 102.102 89.9498 99.6797 90.219 96.4308C90.4883 93.182 88.0662 90.3221 84.8174 90.0529C81.5685 89.7836 78.7087 92.2057 78.4394 95.4545Z" fill="white"/>
<path d="M86.688 96.7795C86.6231 94.6569 85.1949 93.2441 83.0914 93.2002" stroke="#20380E" stroke-width="2" stroke-linecap="round" stroke-linejoin="round"/>
<path d="M63.2299 134.185L20.9999 215.325H103.47C103.47 215.325 124.09 211.335 124.75 197.365C125.41 183.395 124.75 180.735 115.44 165.445C106.72 151.115 95.4899 131.525 91.4999 127.845C81.9999 119.085 72.8799 114.565 63.2299 134.185Z" fill="#B4CC77"/>
<g clip-path="url(#clip0_410_4164)">
<path d="M105.628 73.2194C102.822 78.5595 100.016 83.8995 97.2102 89.2396C96.8512 89.9265 96.4894 90.6334 96.1093 91.3172C96.6998 93.4967 97.3114 96.8699 96.8515 100.929C96.5186 103.816 95.7211 106.184 94.9747 107.902C93.2409 108.39 82.2887 111.376 73.7292 105.474C73.7292 109.5 68.0936 101.597 66.922 96.7257C66.2592 94.002 66.8102 91.8445 67.5807 88.9185C68.39 85.8748 69.6568 80.7218 74.0439 75.7961C75.8005 73.8138 78.6652 70.5966 83.7288 68.7456C84.4342 68.4991 94.4207 65.023 102.316 70.2957C103.891 71.3456 104.981 72.4686 105.625 73.2395L105.628 73.2194Z" fill="#20380E"/>
<path d="M70.3714 103.164C72.7569 103.386 75.2296 103.684 77.7829 104.085C85.858 105.343 92.9998 103.164 97.7025 110.514C100.5 112.014 101.836 121.999 97.7026 124.75C95.3307 126.315 93.1183 124.004 80.8015 120.901C74.9102 119.407 73.3218 119.421 71.7065 117.7C67.8721 113.693 69.5158 106.316 70.3965 103.17L70.3714 103.164Z" fill="#20380E"/>
<path d="M95.5418 91.3584C95.7832 91.3318 95.8701 91.1802 95.8453 91.0535L95.2197 88.5199C95.1738 88.3901 95.0345 88.3082 94.9017 88.33C94.769 88.3518 94.661 88.5003 94.7069 88.6302L95.3325 91.1637C95.3325 91.1637 95.4572 91.3461 95.563 91.3614L95.5418 91.3584Z" fill="#4B702F"/>
<path d="M94.5409 86.2033C94.7101 86.2279 94.8363 86.1025 94.8356 85.9587L95.2991 69.8302C95.3195 69.6895 95.186 69.5674 95.035 69.566C94.887 69.5445 94.7608 69.6699 94.7615 69.8137L94.298 85.9422C94.2805 86.0629 94.3928 86.1818 94.5197 86.2002L94.5409 86.2033Z" fill="#4B702F"/>
<path d="M95.6919 86.9034C95.8188 86.9218 95.9362 86.8568 95.9749 86.7392L101.615 73.1894C101.677 73.0548 101.61 72.9219 101.468 72.8602C101.326 72.7985 101.184 72.8806 101.124 72.995L95.4847 86.5449C95.422 86.6794 95.4891 86.8124 95.6313 86.8741C95.6313 86.8741 95.6736 86.8802 95.6948 86.8833L95.6919 86.9034Z" fill="#4B702F"/>
<path d="M95.2878 93.7018C95.2878 93.7018 95.484 93.6892 95.5379 93.615C95.6189 93.5036 95.6 93.3366 95.4818 93.2579L78.4766 80.6682C78.3585 80.5894 78.1834 80.605 78.1024 80.7164C78.0215 80.8278 78.0404 80.9948 78.1586 81.0736L95.1667 93.6432C95.1667 93.6432 95.2454 93.6956 95.2878 93.7018Z" fill="#4B702F"/>
<path d="M91.6742 107.278C91.6742 107.278 91.78 107.294 91.8281 107.259C91.9667 107.197 92.0112 107.04 91.9412 106.927L89.1963 102.033C89.1292 101.9 88.9629 101.855 88.8455 101.92C88.7069 101.982 88.6624 102.14 88.7324 102.253L91.4773 107.147C91.4773 107.147 91.5896 107.266 91.6742 107.278Z" fill="#4B702F"/>
<path d="M81.5592 105.543C81.5592 105.543 81.7554 105.53 81.8123 105.436C81.8933 105.324 81.8532 105.154 81.7562 105.079L78.1868 102.59C78.0687 102.511 77.8907 102.547 77.8126 102.638C77.7317 102.749 77.7718 102.919 77.8688 102.995L81.4382 105.484C81.4382 105.484 81.5198 105.517 81.5621 105.523L81.5592 105.543Z" fill="#4B702F"/>
<path d="M87.0056 112.657C90.1784 113.117 93.4636 113.102 96.6496 112.579C96.8035 112.561 96.8874 112.429 96.8656 112.282C96.8408 112.156 96.7044 112.054 96.5505 112.072C92.3476 112.755 87.9684 112.571 83.9109 111.509C81.1414 110.799 78.4727 109.693 75.9893 108.203C75.8711 108.125 75.6932 108.16 75.6333 108.275C75.5524 108.386 75.5925 108.556 75.7135 108.615C78.2393 110.111 80.9474 111.243 83.7773 111.983C84.8386 112.26 85.9297 112.48 87.0085 112.637L87.0056 112.657Z" fill="#4B702F"/>
<path d="M98.457 118.424C100.43 121.194 102.457 124.342 104.407 127.869C107.686 133.846 106.96 147.454 108.5 152.316C102.648 155.88 87.7277 157.797 68.934 152.316C58.5 154 58.4019 158.577 55.9998 154C51.2204 144.972 61.535 119.24 75.6762 115.115C86.2535 112.033 95.9619 117.015 98.4782 118.427L98.457 118.424Z" fill="#20380E"/>
<path d="M89.4803 120.302C92.2935 120.711 95.1287 120.671 97.9434 120.176C98.0974 120.158 98.1812 120.026 98.1594 119.879C98.1375 119.732 97.9982 119.651 97.8443 119.669C94.5197 120.254 91.1798 120.2 87.891 119.496C82.568 118.374 78.7295 115.805 76.443 113.851C76.3278 113.753 76.1739 113.771 76.0747 113.859C75.9726 113.968 75.9915 114.135 76.1097 114.214C78.4326 116.214 82.371 118.838 87.7998 119.976C88.365 120.099 88.9332 120.202 89.5043 120.285L89.4803 120.302Z" fill="#4B702F"/>
</g>
<path d="M114.5 163L103.5 184.5" stroke="#20380E" stroke-width="1.5" stroke-linecap="round"/>
</g>
<defs>
<clipPath id="clip0_410_4164">
<rect width="56" height="88" fill="white" transform="translate(66.6149 63.4473) rotate(8.26391)"/>
</clipPath>
</defs>
</svg>
