<svg width="101" height="101" viewBox="0 0 101 101" fill="none" xmlns="http://www.w3.org/2000/svg">
<mask id="mask0_451_16073" style="mask-type:alpha" maskUnits="userSpaceOnUse" x="0" y="0" width="101" height="101">
<rect x="0.00195312" y="0.0273438" width="100" height="100" fill="#D9D9D9"/>
</mask>
<g mask="url(#mask0_451_16073)">
<path d="M18.0025 27.6296C16.9951 28.0554 16.3476 29.0916 16.3492 30.27C16.3492 30.577 16.3513 30.8835 16.3533 31.1901C14.6984 32.2892 13.0027 33.4257 11.5404 34.6522C11.3446 34.8176 11.2311 35.0607 11.2325 35.318C11.355 48.7471 12.8992 61.1179 15.9529 73.136C16.0106 73.3674 16.1634 73.564 16.3739 73.6764C16.583 73.7914 16.8307 73.8136 17.0579 73.7375C26.9901 70.4182 38.1704 71.4826 47.7322 76.6586C49.3147 77.5149 51.1322 77.7244 52.8363 77.331C54.047 77.0515 55.2004 76.4674 56.1717 75.5969C64.5193 68.1112 76.444 64.5509 87.3297 66.2823L87.4959 66.3792C87.759 66.5332 88.0858 66.535 88.3514 66.3835C88.617 66.232 88.7824 65.9534 88.7869 65.6475C88.9358 53.0961 87.2953 40.6058 83.9099 28.5183C83.8728 28.3852 83.8044 28.2657 83.7103 28.165C82.4185 26.7822 81.0655 26.0554 79.5711 25.9431C79.5493 25.9417 79.5284 25.9444 79.5071 25.945C79.4003 25.3707 79.2914 24.7968 79.1789 24.2259C78.9517 23.0653 78.0996 22.1735 77.0034 21.9542C67.6025 20.0603 52.7479 28.1531 48.4797 32.0219C48.2115 32.2641 47.9866 32.4899 47.7971 32.7012C47.5244 32.4872 47.194 32.265 46.7954 32.0264C42.1833 29.2631 26.8455 23.8984 18.0055 27.6332L18.0025 27.6296ZM17.3944 71.8285C14.5518 60.3435 13.0967 48.5167 12.9528 35.7109C14.0034 34.8586 15.1839 34.0386 16.3752 33.2376C16.5393 44.364 17.438 55.8641 18.228 64.8472C18.3012 65.6848 18.7055 66.4503 19.3395 66.9459C19.9084 67.3921 20.5997 67.5781 21.2903 67.4724C30.0363 66.1295 39.1888 67.4495 47.4526 71.1882C47.3017 72.2923 47.2603 73.4054 47.3209 74.5143C37.9068 69.8109 27.1252 68.8369 17.3939 71.8264L17.3944 71.8285ZM49.1218 75.4146C48.9842 74.2698 48.9731 73.1152 49.0883 71.9679C49.7335 72.2891 50.3734 72.6244 51.0065 72.9764C51.1959 73.0808 51.4131 73.1101 51.6169 73.063C51.6332 73.0593 51.6486 73.0514 51.6649 73.0476C51.7596 73.058 51.8551 73.0531 51.9468 73.0319C52.0732 73.0028 52.193 72.945 52.296 72.8612C52.8543 72.4059 53.422 71.9635 53.9971 71.5345C54.3601 72.5113 54.6091 73.5251 54.7386 74.5602C53.1242 75.8346 50.9713 76.1534 49.1223 75.4167L49.1218 75.4146ZM79.8279 27.7066C80.6872 27.8668 81.4889 28.3451 82.313 29.1897C85.5166 40.6944 87.1184 52.571 87.0775 64.5113C81.5986 63.7215 75.8167 64.1676 70.3099 65.8146C65.1541 67.3549 60.3315 69.9196 56.2626 73.2658C56.0746 72.3216 55.797 71.398 55.4336 70.5029C63.1267 65.1757 72.2119 62.0756 81.4033 61.6948C82.1285 61.6648 82.7941 61.3393 83.2803 60.7762C83.8038 60.1701 84.0546 59.3501 83.968 58.5284C83.045 49.7134 81.7591 38.4895 79.8264 27.7091L79.8279 27.7066ZM59.1918 27.4125C63.2363 25.504 70.8842 22.4738 76.6619 23.6369C77.0674 23.7193 77.4017 24.0887 77.4922 24.5552C79.7812 36.2925 81.2438 48.9699 82.2628 58.7031C82.2995 59.0575 82.1968 59.4032 81.9817 59.6526C81.8091 59.8534 81.5782 59.969 81.3314 59.9788C71.0019 60.4054 60.8069 64.1483 52.4479 70.5524L48.7913 34.2085C49.2088 33.3478 53.1087 30.2833 59.1914 27.4105L59.1918 27.4125ZM35.9493 29.6481C42.2698 31.33 46.5395 33.6056 47.0824 34.3669L50.4216 70.7218C41.2841 66.0168 30.9088 64.2641 21.0281 65.7788C20.7503 65.8215 20.5321 65.7044 20.396 65.5984C20.1363 65.3943 19.9682 65.0659 19.9348 64.6979C19.0774 54.9488 18.0892 42.2242 18.0619 30.2675C18.0609 29.7889 18.3041 29.3635 18.6661 29.2112C19.3293 28.9314 20.03 28.7117 20.7618 28.5427C25.8373 27.371 32.2778 28.6708 35.9468 29.6466L35.9493 29.6481Z" fill="#20380E"/>
<path d="M23.6519 36.4746C30.2733 34.0292 37.9976 34.994 43.8154 38.9904C44.0219 39.1317 44.2673 39.1717 44.4936 39.1194C44.6954 39.0728 44.8802 38.9529 45.0074 38.7689C45.2758 38.3785 45.1763 37.8454 44.7859 37.577C38.5185 33.27 30.1906 32.2297 23.0568 34.8643C22.6118 35.0293 22.3842 35.522 22.5492 35.967C22.7142 36.412 23.2069 36.6396 23.6519 36.4746Z" fill="#20380E"/>
<path d="M52.8549 37.8802C52.9894 37.8491 53.1185 37.785 53.2273 37.689C58.762 32.815 65.855 29.7712 73.2001 29.121C73.6733 29.0783 74.0198 28.6634 73.9791 28.1897C73.9384 27.716 73.5215 27.37 73.0478 27.4107C65.3413 28.0949 57.8985 31.2882 52.0926 36.4009C51.7377 36.7146 51.7016 37.2555 52.0158 37.6123C52.2311 37.8567 52.5553 37.9494 52.8529 37.8807L52.8549 37.8802Z" fill="#20380E"/>
<path d="M22.2486 45.4314C22.4095 45.8773 22.9026 46.107 23.3481 45.9441C29.2158 43.8143 36.0422 44.2286 41.6098 47.0482C41.7969 47.1425 42.0011 47.1619 42.1906 47.1181C42.4291 47.0631 42.6441 46.9061 42.7635 46.6702C42.9772 46.2473 42.8089 45.7323 42.386 45.5186C36.4026 42.4879 29.0667 42.0431 22.7632 44.3314C22.3173 44.4923 22.0876 44.9855 22.2506 45.431L22.2486 45.4314Z" fill="#20380E"/>
<path d="M54.8024 46.3646C54.9716 46.3256 55.129 46.2355 55.2513 46.0957C59.8823 40.8506 66.819 37.8922 73.8076 38.181C74.2802 38.2007 74.6806 37.8335 74.6999 37.3588C74.7196 36.8863 74.3523 36.4858 73.8777 36.4666C66.3775 36.1564 58.9325 39.3308 53.9626 44.959C53.6497 45.3146 53.6825 45.8567 54.0381 46.1696C54.2539 46.3603 54.539 46.4233 54.7999 46.363L54.8024 46.3646Z" fill="#20380E"/>
<path d="M23.3983 53.3441C22.9718 53.5521 22.7961 54.065 23.0015 54.4899C23.2095 54.9164 23.7228 55.0941 24.1473 54.8867C29.5674 52.2505 36.2383 52.3722 41.5596 55.2036C41.7506 55.3055 41.9618 55.3276 42.1554 55.2829C42.3878 55.2293 42.5976 55.0778 42.7189 54.8501C42.9421 54.4314 42.7836 53.912 42.3654 53.6908C36.5687 50.6041 29.3007 50.4721 23.3962 53.3446L23.3983 53.3441Z" fill="#20380E"/>
<path d="M56.2288 55.0778C56.3572 55.0482 56.4806 54.9875 56.5867 54.8986C61.4131 50.8344 67.7953 48.7104 74.0939 49.0704C74.5659 49.0967 74.9723 48.7367 74.9981 48.2627C75.0244 47.7907 74.6644 47.3843 74.1904 47.3585C67.4588 46.9739 60.638 49.2442 55.4808 53.5866C55.1176 53.8916 55.0728 54.4323 55.3778 54.7955C55.5934 55.0506 55.923 55.1484 56.2267 55.0783L56.2288 55.0778Z" fill="#20380E"/>
<path d="M42.444 61.5946C37.3853 60.0401 32.1433 59.4211 26.8627 59.76C26.3907 59.7895 26.0321 60.1986 26.0617 60.6706C26.0912 61.1425 26.5003 61.5011 26.9723 61.4716C32.0456 61.1462 37.0821 61.7397 41.9403 63.2352C42.0903 63.2801 42.2414 63.2838 42.3841 63.2509C42.6715 63.1845 42.9184 62.9708 43.0117 62.668C43.1518 62.2148 42.8972 61.7347 42.4445 61.5966L42.444 61.5946Z" fill="#20380E"/>
<path d="M57.4642 62.8121C57.6008 62.7806 57.7319 62.716 57.8418 62.6155C61.9286 58.956 67.1849 56.6518 72.646 56.1275C73.1188 56.0827 73.4623 55.6642 73.4175 55.1914C73.3733 54.7207 72.9543 54.3752 72.4815 54.4199C66.6595 54.9804 61.0538 57.4361 56.6987 61.3378C56.3464 61.6532 56.3153 62.1971 56.6327 62.5489C56.8496 62.7909 57.1707 62.8799 57.4642 62.8121Z" fill="#20380E"/>
<path d="M59.0809 59.1708C56.5729 58.5425 55.6331 56.9743 55.4767 56.2688C57.17 55.8934 58.9534 53.0306 59.6334 51.6461C61.4518 51.8352 62.0617 54.8088 62.1394 56.272C66.083 59.5923 74.6127 67.1268 77.1819 70.7024C79.7511 74.278 76.6838 74.0204 74.829 73.4447L59.0809 59.1708Z" fill="white"/>
<path opacity="0.8" d="M37.2885 61.0403C42.3657 65.2442 51.6333 60.0808 55.6324 56.9735C59.6472 53.7143 60.5491 47.9881 60.4982 45.5325C59.0632 31.0464 47.3116 29.4571 41.6151 30.4732C19.82 39.0062 30.942 55.7854 37.2885 61.0403Z" fill="white"/>
<path d="M56.0606 33.506C53.3412 31.1371 49.8661 29.7581 46.0078 29.5169C42.344 29.2879 38.5977 30.1401 35.4599 31.9207C30.874 34.5212 27.8605 39.7909 27.7816 45.3438C27.7093 50.5298 30.1355 55.821 34.2703 59.4998C36.1811 61.1995 39.2251 63.2206 42.8831 63.2025C46.3124 63.1859 49.4319 61.3408 52.0849 59.6129C52.6235 59.2621 53.1673 58.9029 53.7076 58.5276C54.1708 58.2061 54.6306 57.8745 55.0821 57.528C55.3601 58.0011 55.6902 58.4757 56.1399 58.8663C56.8672 59.4963 57.7744 59.7463 58.5746 59.5541C60.0762 60.9613 63.1599 63.7379 66.1495 66.4298C69.3211 69.2853 72.602 72.2388 73.9639 73.5307C74.4813 74.0228 75.8569 75.3272 77.3347 74.7538C77.4853 74.6953 77.6227 74.6206 77.7491 74.535C78.5601 73.9726 78.8618 72.874 78.7196 71.9972C78.5886 71.1902 77.9033 70.1528 77.5062 69.6067L77.4957 69.5922C75.3683 66.6468 66.1011 58.4208 62.569 55.6451C62.6584 55.4716 62.7333 55.2869 62.7814 55.0854C62.9865 54.2247 62.6614 53.2329 61.9308 52.4988C61.424 51.9897 60.807 51.653 60.2268 51.3669C62.7565 45.5516 61.147 37.936 56.0606 33.506ZM76.4031 70.4058C76.941 71.1464 77.314 71.8403 77.3744 72.216C77.4523 72.6951 77.2729 73.3148 76.8411 73.4833C76.3891 73.6587 75.7558 73.351 74.9032 72.5422C73.5285 71.2364 70.2406 68.2784 67.0628 65.4172C64.26 62.8936 61.3739 60.2962 59.8002 58.832C59.9387 58.6991 60.0624 58.5647 60.1763 58.4399L61.7476 56.7333C65.1771 59.4346 74.3706 67.5907 76.3906 70.3881L76.4017 70.4049L76.4031 70.4058ZM60.9644 53.4584C61.3574 53.8547 61.5507 54.3689 61.4558 54.7668C61.4177 54.9274 61.332 55.0857 61.2236 55.2394C61.1729 55.2763 61.1252 55.3209 61.0865 55.3732C61.0513 55.4198 61.0263 55.4689 61.0056 55.5207C60.9219 55.6193 60.8341 55.7153 60.7498 55.8057L59.1758 57.5165C58.9199 57.7956 58.655 58.0827 58.366 58.1957C57.9296 58.3652 57.3842 58.1363 57.037 57.8356C56.6823 57.5283 56.4079 57.1025 56.1584 56.659C57.1242 55.8285 58.0258 54.9126 58.797 53.8636C59.1001 53.4532 59.3728 53.0256 59.6206 52.5844C60.1167 52.8294 60.6049 53.093 60.9653 53.457L60.9644 53.4584ZM57.6986 53.0554C56.0302 55.3196 53.6445 56.972 51.3428 58.469C48.7369 60.1656 45.9376 61.8232 42.8783 61.8386C40.3609 61.8509 37.6265 60.6587 35.1775 58.4813C31.3334 55.0618 29.0786 50.1571 29.1461 45.3629C29.212 40.6776 31.5499 36.2204 35.1881 33.6998C35.4942 33.4877 35.8095 33.2892 36.133 33.1057C42.3341 29.588 50.1615 30.1755 55.1652 34.5339C60.5062 39.1868 61.6671 47.6692 57.6978 53.0568L57.6986 53.0554Z" fill="#20380E"/>
<path d="M36.9089 34.3608C33.1918 36.4194 30.8018 40.669 30.8146 45.1917C30.8285 49.3969 32.8726 53.7215 36.2834 56.7587C37.862 58.1651 40.372 59.8487 43.3621 59.884C46.1686 59.9179 48.6828 58.464 50.8192 57.0988C51.3204 56.7795 51.8263 56.4494 52.3248 56.103C53.7545 55.1124 55.1329 53.9816 56.198 52.5243C59.6866 47.7516 58.544 40.1525 53.702 35.9272C49.2144 32.013 42.3086 31.3684 36.9075 34.3599L36.9089 34.3608ZM55.0984 51.7213C53.7987 53.4985 51.9098 54.7856 50.0858 55.9505C48.0251 57.2671 45.8099 58.5515 43.3781 58.5214C41.3745 58.4973 39.1775 57.5093 37.1906 55.7402C34.0643 52.9564 32.1909 49.0101 32.1785 45.1868C32.1677 41.4921 33.9418 38.0101 36.7676 36.0511C37.0257 35.8716 37.2929 35.7057 37.5693 35.5534C42.479 32.8344 48.7437 33.4118 52.808 36.9559C57.1393 40.7346 58.1884 47.4953 55.0992 51.7199L55.0984 51.7213Z" fill="#20380E"/>
<path d="M34.7492 43.7187C33.9021 45.7883 34.195 48.3563 35.5323 50.5871C36.8489 52.7853 38.9329 54.3405 40.3851 55.32C40.6247 55.4824 40.9307 55.4705 41.1544 55.3145C41.2218 55.2666 41.2821 55.2082 41.3318 55.1354C41.5416 54.8234 41.4605 54.3994 41.1472 54.1887C39.01 52.7493 37.5981 51.3808 36.7013 49.8863C35.5837 48.0214 35.3248 45.9087 36.01 44.2342C36.1524 43.8858 35.9858 43.4885 35.6373 43.3461C35.2889 43.2037 34.8916 43.3703 34.7492 43.7187Z" fill="#20380E"/>
</g>
</svg>
