<svg width="101" height="101" viewBox="0 0 101 101" fill="none" xmlns="http://www.w3.org/2000/svg">
<mask id="mask0_451_16064" style="mask-type:alpha" maskUnits="userSpaceOnUse" x="0" y="0" width="101" height="101">
<rect x="0.00195312" y="0.0273438" width="100" height="100" fill="#D9D9D9"/>
</mask>
<g mask="url(#mask0_451_16064)">
<path d="M28.8289 79.6196C29.5601 80.6407 30.2493 81.132 30.9315 81.1199C33.3146 81.2795 35.9005 81.3428 38.6252 81.3169C38.7742 83.3521 38.753 85.3184 38.5622 87.2607C38.5242 87.651 38.7361 88.0218 39.0909 88.1881C39.4458 88.3543 39.8666 88.2776 40.1412 87.9981C41.4287 86.6863 42.9721 85.5786 44.6305 84.7719C46.049 85.8884 47.5479 86.9258 49.0886 87.8612C49.3238 88.0034 49.6066 88.0323 49.8607 87.9472C49.9397 87.9208 50.0152 87.8837 50.0849 87.8366C50.3831 87.6347 50.5358 87.2749 50.4763 86.9196C50.1335 84.8732 49.9382 82.7989 49.8874 80.7237C58.8483 79.896 67.3853 78.3053 74.6248 76.1086C74.6333 76.1057 74.6419 76.1029 74.6504 76.1C75.0284 75.9736 75.2844 75.6172 75.2811 75.2169C75.2663 73.4907 74.9047 32.8487 71.4804 21.3868C71.0481 19.4488 69.5074 17.9813 66.1776 16.3336C66.1377 16.3137 66.0985 16.3031 66.0587 16.2903C65.9175 16.195 65.7508 16.1368 65.5706 16.1306C52.8282 15.7349 39.8048 16.9554 26.8638 19.756C24.0649 20.3624 22.1428 22.8792 22.2942 25.7448C22.9288 37.7412 23.9948 53.9509 26.6251 72.9619C26.6473 73.1207 26.7102 73.2659 26.8029 73.3869C26.4297 75.2596 27.8753 78.2882 28.8339 79.6274L28.8289 79.6196ZM30.9878 79.2724C30.1355 78.8119 28.4858 75.3648 28.5669 73.9746C29.4402 74.1431 30.3113 74.298 31.1817 74.4366C31.5291 76.1561 32.147 77.8397 32.9912 79.3834C32.3139 79.3535 31.6509 79.3166 31.0028 79.2746C30.9985 79.276 30.9928 79.2732 30.9857 79.2732L30.9878 79.2724ZM48.3613 85.205C47.3201 84.5061 46.3072 83.7573 45.3371 82.9729C45.0897 82.7731 44.7621 82.7165 44.4652 82.8158C44.4375 82.8251 44.4097 82.8344 44.3834 82.848C43.0067 83.4606 41.7236 84.2319 40.5524 85.1533C40.6275 82.922 40.4946 80.644 40.1493 78.2636C42.2509 78.1921 46.1286 78.2055 48.043 78.2917C47.9765 80.5984 48.0838 82.9135 48.3635 85.2043L48.3613 85.205ZM69.6791 21.809C69.6849 21.8332 69.6906 21.8574 69.6985 21.8809C72.8181 32.2479 73.3598 69.0133 73.4237 74.5347C66.4903 76.5815 58.3847 78.0705 49.876 78.8657C49.8848 78.4021 49.8985 77.9392 49.9193 77.4762C49.9437 76.9884 49.5843 76.5672 49.0985 76.5136C47.5722 76.3451 40.8721 76.3214 39 76.4752C38.7437 76.4969 38.5059 76.6239 38.3467 76.8292C38.1888 77.0316 38.1221 77.2938 38.1644 77.548C38.2727 78.1981 38.3603 78.8361 38.4372 79.4705C37.3199 79.481 36.2253 79.4745 35.1606 79.4507C35.1434 79.4137 35.1292 79.3781 35.1056 79.3433C34.2117 77.9349 33.5412 76.3568 33.1362 74.7278C44.9949 76.3716 56.6897 75.4887 69.4791 72.0217C69.4961 72.0159 69.5132 72.0102 69.5303 72.0045C69.9147 71.8759 70.1721 71.5095 70.1588 71.1008C69.5434 50.943 68.3952 33.7705 66.6525 18.6754C68.5138 19.7458 69.4393 20.7161 69.6734 21.8062L69.6791 21.809ZM24.135 25.6395C24.0324 23.6861 25.343 21.9676 27.2497 21.5552C39.7742 18.8441 52.3753 17.6319 64.7138 17.949C66.4893 33.0356 67.6618 50.2237 68.2958 70.4299C54.2298 74.1484 41.5026 74.6642 28.361 72.0534C25.8045 53.3905 24.7595 37.4635 24.1329 25.6402L24.135 25.6395Z" fill="#20380E"/>
<path d="M30.7207 42.0609C39.8475 43.0561 49.3341 42.3304 58.9156 39.901C58.937 39.8938 58.9612 39.8881 58.9825 39.881C59.3178 39.7688 59.5632 39.4729 59.6055 39.1168C60.17 34.4658 59.7379 29.6399 58.3569 25.1648C58.2418 24.7925 57.9047 24.5301 57.5144 24.5135C48.508 24.1263 39.0405 24.7744 29.3755 26.4362C28.9583 26.5093 28.6403 26.8579 28.6109 27.281C28.2569 32.2914 28.701 37.0396 29.9323 41.3938C30.0346 41.7562 30.3461 42.0201 30.7207 42.0609ZM30.4065 28.1335C39.4578 26.6249 48.3214 26.0173 56.7765 26.3324C57.8748 30.1826 58.2419 34.2821 57.8412 38.2656C48.904 40.4628 40.0647 41.143 31.5462 40.291C30.5542 36.5169 30.1714 32.4345 30.4094 28.135L30.4065 28.1335Z" fill="#20380E"/>
<path d="M60.9877 50.1463L34.451 52.4924C33.9432 52.5364 33.5684 52.9848 33.6124 53.4925C33.6565 54.0002 34.1048 54.375 34.6126 54.331L61.1493 51.9849C61.2234 51.9791 61.2939 51.9627 61.3622 51.9398C61.7573 51.8076 62.0254 51.4163 61.9871 50.9827C61.9431 50.4749 61.4947 50.1001 60.987 50.1442L60.9877 50.1463Z" fill="#20380E"/>
<path d="M62.816 56.7061L33.8103 59.8141C33.3033 59.8674 32.9356 60.3229 32.9918 60.8313C33.045 61.3383 33.5005 61.706 34.0089 61.6498L63.0146 58.5418C63.0837 58.5353 63.1478 58.521 63.2097 58.5003C63.6112 58.3659 63.8807 57.9647 63.8339 57.5267C63.7806 57.0197 63.3251 56.6521 62.8167 56.7082L62.816 56.7061Z" fill="#20380E"/>
</g>
</svg>
