<svg version="1.1" id="Layer_1" xmlns="http://www.w3.org/2000/svg" xmlns:xlink="http://www.w3.org/1999/xlink" x="0" y="0" viewBox="0 0 470 250" style="enable-background:new 0 0 470 250" xml:space="preserve"><style>.st3{fill-rule:evenodd;clip-rule:evenodd;fill:#fff}.st3,.st4{clip-path:url(#SVGID_00000023267999624233505310000001336366041768490410_)}.st5,.st6{clip-path:url(#SVGID_00000038380916451102951350000014288619343373214339_);fill:#20380e}.st6{clip-path:url(#SVGID_00000023267999624233505310000001336366041768490410_);fill-rule:evenodd;clip-rule:evenodd}.st7{filter:url(#Adobe_OpacityMaskFilter_00000070112352952912163470000003108309301571469720_)}.st8{clip-path:url(#SVGID_00000054979769629999451370000012951146857346431413_);fill-rule:evenodd;clip-rule:evenodd;fill:#386118}.st9{clip-path:url(#SVGID_00000023267999624233505310000001336366041768490410_);fill:#fff}.st10{clip-path:url(#SVGID_00000167390454997924663240000011988424331131527316_);fill:#20380e}.st11{filter:url(#Adobe_OpacityMaskFilter_00000029042128081532737340000011330576135380609946_)}.st12{clip-path:url(#SVGID_00000023267999624233505310000001336366041768490410_);mask:url(#SVGID_00000134953466390860020900000015663181169499564462_)}.st13{clip-path:url(#SVGID_00000026124950201037158970000009317321248235214224_);fill-rule:evenodd;clip-rule:evenodd;fill:#386118}.st14{clip-path:url(#SVGID_00000143595135744021287970000006743073571207646378_);fill:#20380e}.st15{fill-rule:evenodd;clip-rule:evenodd;fill:#4b702f}.st15,.st16,.st17,.st18,.st19{clip-path:url(#SVGID_00000023267999624233505310000001336366041768490410_)}.st16{fill-rule:evenodd;clip-rule:evenodd;fill:#94b73d}.st17,.st18,.st19{fill:#20380e}.st18,.st19{clip-path:url(#SVGID_00000116202025410022406760000014983866617294022559_)}.st19{clip-path:url(#SVGID_00000023961226202613478540000007418464485007204528_)}.st20,.st21,.st22{clip-path:url(#SVGID_00000010291782103833168320000010465581597380056219_);fill:#20380e}.st21,.st22{clip-path:url(#SVGID_00000028304248349179764980000015811771923477040054_)}.st22{clip-path:url(#SVGID_00000061459945036100340500000010302978831425342080_)}.st23,.st24,.st25{clip-path:url(#SVGID_00000085227068827215312310000003705816847751422854_);fill:#20380e}.st24,.st25{clip-path:url(#SVGID_00000163035761361610053580000000529369780257435305_)}.st25{clip-path:url(#SVGID_00000050634018401230105530000002519701320512763824_)}</style><switch><g><defs><filter id="Adobe_OpacityMaskFilter" filterUnits="userSpaceOnUse" x="0" y="0" width="470" height="255"><feColorMatrix values="1 0 0 0 0 0 1 0 0 0 0 0 1 0 0 0 0 0 1 0"/></filter></defs><mask maskUnits="userSpaceOnUse" x="0" y="0" width="470" height="255" id="SVGID_1_"><g style="filter:url(#Adobe_OpacityMaskFilter)"><path d="M0 20C0 9 9 0 20 0h430c11 0 20 9 20 20v230H0V20z" style="fill:#f4f7eb"/></g></mask><g style="mask:url(#SVGID_1_)"><defs><path id="SVGID_00000183237083156723241540000011884175948200457661_" d="M0 0h470v250H0z"/></defs><clipPath id="SVGID_00000119824809249144521890000014875584392370222241_"><use xlink:href="#SVGID_00000183237083156723241540000011884175948200457661_" style="overflow:visible"/></clipPath><path style="clip-path:url(#SVGID_00000119824809249144521890000014875584392370222241_);fill-rule:evenodd;clip-rule:evenodd;fill:#fff" d="m205.1 157-4.1 6-11-7.9 3.9-5z"/><g style="clip-path:url(#SVGID_00000119824809249144521890000014875584392370222241_)"><defs><path id="SVGID_00000084512706301595516280000003028850603499640252_" d="m205.1 157-4.1 6-11-7.9 3.9-5z"/></defs><clipPath id="SVGID_00000116932601054242901380000012234008340004386442_"><use xlink:href="#SVGID_00000084512706301595516280000003028850603499640252_" style="overflow:visible"/></clipPath><path style="clip-path:url(#SVGID_00000116932601054242901380000012234008340004386442_);fill:#20380e" d="m193.4 150.9 11.2 6.9 1.1-1.7-11.2-6.9-1.1 1.7zm-2.6 4.8 3.9-5-1.6-1.2-3.9 5 1.6 1.2zm10.8 6.5-11-7.9-1.2 1.6 11 7.9 1.2-1.6zm2.7-5.7-4.1 5.9 1.7 1.1 4.1-5.9-1.7-1.1zm-10.4-6.4.5-.9-.8-.5-.6.7.9.7zm-3.9 5-.8-.6-.6.8.8.6.6-.8zm11 7.9-.6.8.8.6.6-.8-.8-.6zm4.1-6 .8.6.6-.9-.9-.6-.5.9z"/></g><path style="clip-path:url(#SVGID_00000119824809249144521890000014875584392370222241_);fill-rule:evenodd;clip-rule:evenodd;fill:#20380e" d="M222.4 135.1c-9.2 1.3-25.2 10.7-31.2 15.7l17 9.6 14.2-25.3z"/><defs><filter id="Adobe_OpacityMaskFilter_00000023961459079122219320000012426354401998939523_" filterUnits="userSpaceOnUse" x="0" y="0" width="470" height="250"><feColorMatrix values="1 0 0 0 0 0 1 0 0 0 0 0 1 0 0 0 0 0 1 0"/></filter></defs><g style="clip-path:url(#SVGID_00000119824809249144521890000014875584392370222241_)"><defs><path id="SVGID_00000052803866173636211590000009475510724678183081_" d="M0 0h470v250H0z"/></defs><clipPath id="SVGID_00000031904165676651615050000004391934035150290066_"><use xlink:href="#SVGID_00000052803866173636211590000009475510724678183081_" style="overflow:visible"/></clipPath><path style="clip-path:url(#SVGID_00000031904165676651615050000004391934035150290066_);fill-rule:evenodd;clip-rule:evenodd;fill:#386118" d="M209.3 148.5c-3.1 1.6-4.4 10.3-4.7 12.1l3.7.6 1.8-8.7-.8-4z"/></g><path style="clip-path:url(#SVGID_00000119824809249144521890000014875584392370222241_);fill:#fff" d="M251.7 184.4s-1 34-8.2 68c0 0-8.2 2.7-13.9 1.1 0 0 3.4-48.3.1-56.3l-3.5 2.7s-8 33.1-16.8 53.8c0 0-9.2 1.2-15.1-1.5 0 0 9-39.3 9.6-73.4l47.8 5.6z"/><g style="clip-path:url(#SVGID_00000119824809249144521890000014875584392370222241_)"><defs><path id="SVGID_00000065792563329352882750000011631016904540566441_" d="M251.7 184.4s-1 34-8.2 68c0 0-8.2 2.7-13.9 1.1 0 0 3.4-48.3.1-56.3l-3.5 2.7s-8 33.1-16.8 53.8c0 0-9.2 1.2-15.1-1.5 0 0 9-39.3 9.6-73.4l47.8 5.6z"/></defs><clipPath id="SVGID_00000106123037626256667710000000464078583426343868_"><use xlink:href="#SVGID_00000065792563329352882750000011631016904540566441_" style="overflow:visible"/></clipPath><path style="clip-path:url(#SVGID_00000106123037626256667710000000464078583426343868_);fill:#20380e" d="m251 183.7 1.4 1.4-1.4-1.4zm-47.2-3.9 47.7 5.6.2-2-47.7-5.6-.2 2zm-9.5 72.4 1 .2v-.1c0-.1 0-.2.1-.3.1-.3.2-.7.3-1.3.2-1.1.6-2.8 1-4.9.9-4.2 2-10.2 3.2-17.3 2.3-14.1 4.7-32.5 5.1-49.6h-2c-.3 17-2.7 35.3-5 49.3-1.2 7-2.3 13-3.2 17.2-.4 2.1-.8 3.8-1 4.9-.1.6-.2 1-.3 1.3 0 .1-.1.3-.1.3v.1l.9.2zm15.1 1.5-.1-1h-.4c-.3 0-.6.1-1.1.1-.9.1-2.2.1-3.7.1-3 0-6.6-.4-9.3-1.7l-.8 1.8c3.1 1.4 7.1 1.8 10.2 1.8 1.6 0 2.9-.1 3.9-.1.5 0 .9-.1 1.2-.1h.4c-.1.1-.1.1-.3-.9zm16.8-53.9-1-.2v.1c0 .1 0 .2-.1.3-.1.2-.2.6-.3 1.1-.2.9-.6 2.3-1 4-.9 3.4-2.2 8.2-3.7 13.6-3.1 10.9-7.3 24.3-11.7 34.6l1.8.8c4.4-10.4 8.6-23.9 11.7-34.8 1.6-5.4 2.8-10.2 3.7-13.7.4-1.7.8-3.1 1-4 .1-.5.2-.8.3-1.1 0-.1.1-.2.1-.3v-.1c.2 0 .2 0-.8-.3zm2.9-3.5-3.5 2.7 1.2 1.6 3.5-2.7-1.2-1.6zm.5 57.1 1 .1v-.5c0-.4.1-.9.1-1.5.1-1.3.2-3.3.3-5.6.3-4.7.6-11 .8-17.5.2-6.5.3-13.4.2-19-.1-2.8-.2-5.4-.4-7.5-.2-2.1-.5-3.9-1-5l-1.8.8c.4.9.7 2.4.9 4.4.2 2.1.4 4.6.4 7.4.1 5.6 0 12.4-.2 18.9-.2 6.5-.5 12.8-.8 17.5-.1 2.3-.3 4.2-.3 5.6 0 .7-.1 1.2-.1 1.5v.5c-.1-.1-.1-.1.9-.1zm13.9-1-.3-.9h-.1c-.1 0-.1 0-.3.1-.2.1-.6.2-1 .3-.8.2-2 .5-3.3.7-2.7.5-6 .7-8.7-.1l-.6 1.9c3.1.9 6.8.6 9.6.1 1.4-.2 2.6-.5 3.5-.8.4-.1.8-.2 1-.3.1 0 .2-.1.3-.1h.1c.1 0 .1 0-.2-.9zm8.2-68h-1v1.5c0 1-.1 2.5-.2 4.3-.2 3.7-.6 9-1.1 15.4-1.1 12.7-3.2 29.7-6.7 46.6l2 .4c3.6-17 5.6-34 6.8-46.8.6-6.4.9-11.7 1.1-15.4.1-1.9.2-3.3.2-4.3V184.6c-.1-.2-.1-.2-1.1-.2zm0 0 .7.7 1.5-1.5-2.1-.2-.1 1zm-47.7-5.6.1-1-1.1-.1v1.1h1zm-9.7 73.4-1-.2-.2.8.7.3.5-.9zm15.1 1.5.1 1 .6-.1.2-.5-.9-.4zm16.8-53.9-.6-.8-.3.2-.1.3 1 .3zm3.5-2.7.9-.4-.5-1.2-1 .8.6.8zm-.1 56.3-1-.1-.1.8.8.2.3-.9zm13.9-1 .3.9.5-.2.1-.6-.9-.1zm8.2-68-.7-.7-.3.3v.4h1z"/></g><path style="clip-path:url(#SVGID_00000119824809249144521890000014875584392370222241_);fill-rule:evenodd;clip-rule:evenodd;fill:#20380e" d="M254.4 196.7c-24.7 1.1-40.3.1-53.4-8.5l8.3-39.7 13.1-13.4 17.1.7 16.5 25.4-1.6 35.5z"/><defs><filter id="Adobe_OpacityMaskFilter_00000140727595297130214500000001602774547710158743_" filterUnits="userSpaceOnUse" x="0" y="0" width="470" height="250"><feColorMatrix values="1 0 0 0 0 0 1 0 0 0 0 0 1 0 0 0 0 0 1 0"/></filter></defs><mask maskUnits="userSpaceOnUse" x="0" y="0" width="470" height="250" id="SVGID_00000124148425965024753450000010147607764083637648_"><g style="filter:url(#Adobe_OpacityMaskFilter_00000140727595297130214500000001602774547710158743_)"><path style="clip-path:url(#SVGID_00000119824809249144521890000014875584392370222241_)" d="M254.4 196.7c-24.7 1.1-40.3.1-53.4-8.5l8.3-39.7 13.1-13.4 17.1.7 16.5 25.4-1.6 35.5z"/></g></mask><g style="clip-path:url(#SVGID_00000119824809249144521890000014875584392370222241_);mask:url(#SVGID_00000124148425965024753450000010147607764083637648_)"><defs><path id="SVGID_00000090263632715960573560000006836187678243583409_" d="M0 0h470v250H0z"/></defs><clipPath id="SVGID_00000149359725833276513890000009626980350143267484_"><use xlink:href="#SVGID_00000090263632715960573560000006836187678243583409_" style="overflow:visible"/></clipPath><path style="clip-path:url(#SVGID_00000149359725833276513890000009626980350143267484_);fill-rule:evenodd;clip-rule:evenodd;fill:#386118" d="M243 151.7c-2.1 3.4 6.7 21 6.9 22.6l5.7-3.2v-3.8L243 151.7z"/></g><path style="clip-path:url(#SVGID_00000119824809249144521890000014875584392370222241_);fill-rule:evenodd;clip-rule:evenodd;fill:#20380e" d="M239.5 135.9c10.7 5.6 21.8 14.1 24.9 28.4l-13.8 7.9-7.6-20.5-3.5-15.8z"/><path style="clip-path:url(#SVGID_00000119824809249144521890000014875584392370222241_);fill-rule:evenodd;clip-rule:evenodd;fill:#fff" d="m258.6 156.1-3.7-.1s-.4 10.9-.5 14c-.2 3.2.2 6.5 5.1 6.7 4.9.2 5.8-1.8 5.9-5.1.1-2.6-.1-10.9-.1-14.2 1.4-1.9.5-9.2.4-8.6l-6.1 1.9c-.4 1.1-1 4.4-1 5.4z"/><g style="clip-path:url(#SVGID_00000119824809249144521890000014875584392370222241_)"><defs><path id="SVGID_00000175321547339755258800000017016041562390368933_" d="m258.6 156.1-3.7-.1s-.4 10.9-.5 14c-.2 3.2.2 6.5 5.1 6.7 4.9.2 5.8-1.8 5.9-5.1.1-2.6-.1-10.9-.1-14.2 1.4-1.9.5-9.2.4-8.6l-6.1 1.9c-.4 1.1-1 4.4-1 5.4z"/></defs><clipPath id="SVGID_00000091011609294160177550000001997958564190861473_"><use xlink:href="#SVGID_00000175321547339755258800000017016041562390368933_" style="overflow:visible"/></clipPath><path style="clip-path:url(#SVGID_00000091011609294160177550000001997958564190861473_);fill:#20380e" d="M259.6 156.1h-2 2zm-1.2-5.5c-.1.5-.3 1.5-.5 2.6-.2 1-.4 2.2-.4 2.9h2c0-.4.2-1.4.3-2.5.2-1 .4-2.2.5-2.7l-1.9-.3zm6.8-2.6-6.1 1.9.6 1.9 6.1-1.9-.6-1.9zm.8 10.1c.5-.7.7-1.7.8-2.7.1-1 .1-2.1.1-3.2 0-1-.1-2-.2-2.6 0-.3-.1-.6-.1-.8 0-.1-.1-.3-.2-.4 0 0-.1-.2-.2-.3-.1-.1-.4-.3-.8-.2-.4.1-.6.3-.7.4-.1.1-.1.2-.1.3l1.9.6s0 .1-.1.2-.3.4-.6.4c-.4.1-.7-.1-.8-.2l-.2-.2c-.1-.1-.1-.2-.1-.1s.1.3.1.6c.1.6.2 1.5.2 2.5s0 2-.1 2.9c-.1.9-.3 1.5-.5 1.7l1.6 1.1zm.3 13.7c.1-2.6-.1-11-.1-14.2h-2c.1 3.3.2 11.6.1 14.1l2 .1zm-6.9 6c2.5.1 4.4-.3 5.5-1.5 1.1-1.2 1.4-2.8 1.4-4.5h-2c0 1.6-.3 2.6-.8 3.2-.5.6-1.6 1-4 .9l-.1 1.9zm-6.1-7.8c-.1 1.6-.1 3.5.7 5 .9 1.6 2.6 2.7 5.3 2.8l.1-2c-2.2-.1-3.1-.9-3.6-1.7-.5-1-.6-2.4-.5-3.9l-2-.2zm1.6-14h-1V157.7c0 1.1-.1 2.5-.1 4.1-.1 3.1-.2 6.6-.3 8.2l2 .1c.1-1.6.2-5.1.3-8.2.1-1.6.1-3 .1-4.1V156c0 .1 0 .1-1 0zm3.7-.9-3.7-.1v2l3.7.1v-2zm.8-4.3-.3-1-.6.2-.1.6 1 .2zm6.1-1.9.3 1 .5-.2.2-.5-1-.3zm-.4 8.7-.8-.6-.2.3v.3h1zm.2 14.1h1-1zm-5.9 5.1v1-1zm-5.1-6.7h1-1zm.6-14.1v-1h-1v1h1zm3.7.1h1v-1h-1v1z"/></g><path style="clip-path:url(#SVGID_00000119824809249144521890000014875584392370222241_);fill-rule:evenodd;clip-rule:evenodd;fill:#4b702f" d="m235.4 160 38.4-21.4 3 5.9-37.3 21.9-4.1-6.4z"/><path style="clip-path:url(#SVGID_00000119824809249144521890000014875584392370222241_);fill-rule:evenodd;clip-rule:evenodd;fill:#94b73d" d="M238.2 162.3c-2.6-4.5-5.7-9.2-12.5-8.5s-8.2 2.8-9.8 5.2c-1.7 2.3-6.3 4.4-11.6 3.5-14.2-6.7-27 12.8-20.9 25.6 1.8 4.2 12.9 15.7 24.1 12 9-3 9.3-5.7 10.9-9.7 1.6-4.1 5.5-9.2 10.4-8.9 9.8-.1 16.4-10.2 9.4-19.2z"/><path style="clip-path:url(#SVGID_00000119824809249144521890000014875584392370222241_);fill-rule:evenodd;clip-rule:evenodd;fill:#20380e" d="M211.7 170c10 1.7 7.7 16.7-2.4 15.3-10-1.8-7.6-16.7 2.4-15.3z"/><path style="clip-path:url(#SVGID_00000119824809249144521890000014875584392370222241_);fill:#fff" d="M196.2 182.6c-.9-.5 78.2-43.1 78.3-43 .4.5-78.1 42.8-78.3 43zm1.4 1.8c-.9-.5 78.2-43.1 78.3-43 .3.5-78.2 42.8-78.3 43zm1.4 1.8c-.9-.5 78.2-43.1 78.3-43 .3.5-78.2 42.8-78.3 43z"/><path transform="rotate(-23.209 197.448 182.226)" style="clip-path:url(#SVGID_00000119824809249144521890000014875584392370222241_);fill:#20380e" d="M196.1 175.2h2.7v14.1h-2.7z"/><path style="clip-path:url(#SVGID_00000119824809249144521890000014875584392370222241_);fill-rule:evenodd;clip-rule:evenodd;fill:#20380e" d="M283.2 132.4c.9-.6-.5-2-.6-2.8-.1-.3-.4-.4-.7-.3s-.4.4-.3.7c.4.7.5 2.6 1.6 2.4zm-3.8.9c.3-.1.4-.4.3-.7-.5-.6-.6-2.5-1.6-2.3-.3.1-.4.4-.3.7.5.7.6 2.6 1.6 2.3zm-3.7 1c.3-.1.4-.4.3-.7-.5-.6-.6-2.5-1.6-2.3-.3.1-.4.4-.3.7.4.6.5 2.5 1.6 2.3zm11.1 4.1c.3-.2.6-.1.8.2.2.8 1.8 1.9 1 2.6-1 .4-1.4-1.5-1.9-2.1-.3-.2-.2-.5.1-.7zm-2.9 2.6c.3-.2.6-.1.8.2.2.8 1.8 1.9 1 2.6-.3.2-.6.1-.8-.2-.3-.7-1.8-1.9-1-2.6zm-3 2.5c1-.4 1.4 1.5 1.9 2.1.2.3.1.6-.2.8-1 .4-1.4-1.5-1.9-2.1-.1-.3 0-.6.2-.8z"/><path style="clip-path:url(#SVGID_00000119824809249144521890000014875584392370222241_);fill-rule:evenodd;clip-rule:evenodd;fill:#20380e" d="m287 130.4 3.3 5.6-10.7 9.2c-6.7-.6-7.9-4.6-5.8-10.2l13.2-4.6z"/><path style="clip-path:url(#SVGID_00000119824809249144521890000014875584392370222241_);fill:#fff" d="M273.1 141.1c-.2 0-.3-.3-.1-.4.3.1 11.7-7.2 12-6.7.2.5-11.7 6.8-11.9 7.1zm1 2.1c-.2 0-.3-.3-.1-.4.3.1 11.7-7.2 11.9-6.7.3.5-11.6 6.8-11.8 7.1z"/><path style="clip-path:url(#SVGID_00000119824809249144521890000014875584392370222241_);fill-rule:evenodd;clip-rule:evenodd;fill:#94b73d" d="M284.2 132.7c1.1.1.9 1.8-.2 1.7-1.1-.1-.9-1.8.2-1.7zm-3.6 2.1c1.1.1.9 1.8-.2 1.7-1.1-.1-.9-1.8.2-1.7zm5.7 1.3c1.1.1.9 1.8-.2 1.7-1-.2-.9-1.8.2-1.7zm-9.3.9c1.1.1.9 1.8-.2 1.7-1-.2-.9-1.8.2-1.7zm5.7 1.2c1.1.1.9 1.8-.2 1.7-1-.1-.8-1.8.2-1.7zm-3.6 2.1c1.1.1.9 1.8-.2 1.7-1-.1-.8-1.8.2-1.7z"/><path style="clip-path:url(#SVGID_00000119824809249144521890000014875584392370222241_);fill-rule:evenodd;clip-rule:evenodd;fill:#fff" d="M265.1 157.6c-2.1 3.5-10.7 3.7-11.6-2.3-.4-2.7 1-2.3 2.9-3.7 1.9-1.4 4.5-2.4 5.4-1.6 1.9 2.3 2.3 5.2 3.3 7.6z"/><g style="clip-path:url(#SVGID_00000119824809249144521890000014875584392370222241_)"><defs><path id="SVGID_00000154398133946777957400000018314642881573707422_" d="M265.1 157.6c-2.1 3.5-10.7 3.7-11.6-2.3-.4-2.7 1-2.3 2.9-3.7s4.5-2.4 5.4-1.6c1.9 2.3 2.3 5.2 3.3 7.6z"/></defs><clipPath id="SVGID_00000183224522365392421650000004266798114136907424_"><use xlink:href="#SVGID_00000154398133946777957400000018314642881573707422_" style="overflow:visible"/></clipPath><path style="clip-path:url(#SVGID_00000183224522365392421650000004266798114136907424_);fill:#20380e" d="M265.1 158.6v-2 2zm-4.1-8.1c.8 1.1 1.4 2.3 1.8 3.6.4 1.2.8 2.6 1.4 3.9l1.8-.8c-.5-1.2-.8-2.3-1.3-3.7-.5-1.3-1.1-2.8-2.1-4.1l-1.6 1.1zm-3.9 1.8c.9-.7 1.9-1.2 2.8-1.5.4-.1.8-.2 1.1-.2.3 0 .3.1.2 0l1.3-1.5c-.5-.4-1.1-.5-1.6-.5s-1.1.1-1.6.3c-1.1.4-2.3 1-3.4 1.8l1.2 1.6zm-2.5 2.8c-.1-.6-.1-.9 0-1.1 0-.1.1-.2.2-.3.2-.1.4-.3.9-.5.4-.2.9-.5 1.5-.9l-1.2-1.6c-.4.3-.8.5-1.2.7-.4.2-.8.4-1.2.7-.4.3-.7.7-.9 1.3-.2.6-.1 1.2 0 1.9l1.9-.2zm9.7 1.9c-.4.6-1.1 1.2-2.1 1.6-1 .4-2.1.5-3.2.4-2.2-.2-4.1-1.5-4.4-3.9l-2 .3c.5 3.6 3.4 5.3 6.2 5.6 1.4.1 2.9 0 4.1-.5 1.3-.5 2.4-1.3 3.1-2.4l-1.7-1.1zm.8.6-.9.4.3.6h.7v-1zm-3.3-7.7.8-.6-.1-.1-.1-.1-.6.8zm-8.2 5.3 1-.1-1 .1zm11.5 2.4.9.5.9-1.5h-1.7v1z"/></g><path style="clip-path:url(#SVGID_00000119824809249144521890000014875584392370222241_);fill-rule:evenodd;clip-rule:evenodd;fill:#fff" d="M201.8 158.7c-4.3-4.9-11.8-3.7-11.8-3.7-3.1 3.5 2.7 12 4.1 13.6 0 0 3.9 11.8 7.1 12.9 3.3 1.1 8.4-1.7 8.8-3.1.4-1.4-4.1-8.3-4.1-8.3s2.9.4 2.5-1.3c-.4-1.7-3.8-3.3-5.3-3.6-.4-2.3-.9-6-1.3-6.5z"/><g style="clip-path:url(#SVGID_00000119824809249144521890000014875584392370222241_)"><defs><path id="SVGID_00000028309924749028921540000004918335481707841171_" d="M201.8 158.7c-4.3-4.9-11.8-3.7-11.8-3.7-3.1 3.5 2.7 12 4.1 13.6 0 0 3.9 11.8 7.1 12.9 3.3 1.1 8.4-1.7 8.8-3.1.4-1.4-4.1-8.3-4.1-8.3s2.9.4 2.5-1.3c-.4-1.7-3.8-3.3-5.3-3.6-.4-2.3-.9-6-1.3-6.5z"/></defs><clipPath id="SVGID_00000044861262234128273080000005996423891386538915_"><use xlink:href="#SVGID_00000028309924749028921540000004918335481707841171_" style="overflow:visible"/></clipPath><path style="clip-path:url(#SVGID_00000044861262234128273080000005996423891386538915_);fill:#20380e" d="m202.5 158-1.4 1.4 1.4-1.4zm1.8 7c-.3-1.2-.5-2.6-.8-3.9-.1-.6-.2-1.2-.4-1.7-.1-.2-.1-.5-.2-.7l-.3-.6-1.5 1.3c-.1-.1-.1-.2 0 0 0 .1.1.3.1.5.1.4.2 1 .3 1.6.2 1.3.5 2.8.8 4l2-.5zm5.2 3.6c-.2-.7-.6-1.3-1-1.7-.5-.5-1-.9-1.6-1.2-1.2-.7-2.5-1.2-3.4-1.4l-.4 2c.6.1 1.7.5 2.7 1.1.5.3.9.6 1.2.9.3.3.5.6.5.7l2-.4zm-3.4 1.5-.1 1h.5c.3 0 .7 0 1.1-.1.4-.1 1-.2 1.4-.6.5-.5.7-1.1.5-1.9l-1.9.5c0 .1 0 .1 0 0 0 0 0-.1.1-.1 0 0-.1.1-.4.1h-1.1c0 .1 0 .1-.1 1.1zm5 8.6c.1-.5 0-.9-.1-1.3s-.3-.8-.5-1.3c-.4-.9-.9-1.9-1.5-2.9-.5-1-1.1-1.9-1.5-2.6-.2-.3-.4-.6-.5-.8-.1-.1-.1-.2-.1-.2v-.1l-.8.5-.8.5v.1s.1.1.1.2c.1.2.3.5.5.8.4.7.9 1.6 1.5 2.5.5.9 1 1.9 1.4 2.7.2.4.3.7.4 1 .1.3 0 .3.1.2l1.8.7zm-10.1 3.8c2 .7 4.4.1 6.2-.6.9-.4 1.8-.9 2.5-1.4.3-.2.6-.5.9-.8.2-.3.5-.6.6-1l-1.9-.6-.1.2c-.1.1-.3.3-.6.5-.5.4-1.2.8-2 1.1-1.7.7-3.5 1-4.8.6l-.8 2zm-6.8-13.9-1 .3v.1c0 .1.1.2.1.4.1.3.3.8.5 1.4.4 1.1 1 2.7 1.7 4.2.7 1.6 1.5 3.2 2.4 4.5.4.7.9 1.3 1.4 1.8.5.5 1 .9 1.6 1.1l.6-1.9c-.2-.1-.5-.2-.8-.6-.4-.4-.7-.9-1.1-1.5-.8-1.2-1.5-2.7-2.2-4.2-.7-1.5-1.3-3-1.7-4.1-.2-.6-.4-1-.5-1.3-.1-.2-.1-.3-.1-.4v-.1l-.9.3zm-4.9-14.2c-1 1.2-1.2 2.7-1.1 4.1.1 1.5.7 3 1.3 4.5 1.3 2.8 3.1 5.5 4 6.3l1.4-1.4c-.6-.7-2.4-3.1-3.6-5.8-.6-1.3-1-2.7-1.1-3.8-.1-1.2.1-2 .6-2.6l-1.5-1.3zm13.2 3.7c-2.4-2.7-5.6-3.7-8.1-4-1.3-.2-2.4-.2-3.2-.1-.4 0-.7 0-1 .1h-.4l.2 1 .2 1H190.5c.2 0 .5 0 .8-.1.7 0 1.7 0 2.9.1 2.3.3 4.9 1.1 6.8 3.3l1.5-1.3zm-.7.6.8-.7-.8.7zm1.5 6.6-1 .2.2.6.6.1.2-.9zm5.2 3.5-1 .2 1-.2zm-2.4 1.3.1-1-2.1-.3 1.2 1.8.8-.5zm4 8.3 1 .3-1-.3zm-8.8 3.1.3-.9-.3.9zm-7.1-12.9 1-.3-.1-.2-.2-.2-.7.7zm-4.2-13.5-.2-1-.4.1-.2.3.8.6zm11.8 3.6-.8.7.8-.7z"/></g><path style="clip-path:url(#SVGID_00000119824809249144521890000014875584392370222241_);fill-rule:evenodd;clip-rule:evenodd;fill:#fff" d="M230.2 133.6c16 1.7 15 5 2.7 11.7-3.7 1.6-4.7-3.6-5.8-5.1-6.6 5.3-7.5 3.7-8.3-4.5.4-2 6.5-2.4 11.4-2.1z"/><g style="clip-path:url(#SVGID_00000119824809249144521890000014875584392370222241_)"><defs><path id="SVGID_00000037691560711381877500000013127981142577232286_" d="M230.2 133.6c16 1.7 15 5 2.7 11.7-3.7 1.6-4.7-3.6-5.8-5.1-6.6 5.3-7.5 3.7-8.3-4.5.4-2 6.5-2.4 11.4-2.1z"/></defs><clipPath id="SVGID_00000072281987621757092950000017777684970847463356_"><use xlink:href="#SVGID_00000037691560711381877500000013127981142577232286_" style="overflow:visible"/></clipPath><path style="clip-path:url(#SVGID_00000072281987621757092950000017777684970847463356_);fill:#20380e" d="M231.2 133.6h-2 2zm-11.4 2.2c0 .1 0-.1.6-.4.6-.2 1.4-.5 2.5-.6 2.1-.3 4.8-.3 7.2-.2l.1-2c-2.5-.2-5.3-.1-7.6.2-1.1.2-2.2.4-3 .7-.8.3-1.6.9-1.8 1.9l2 .4zm6.7 3.6c-1.6 1.3-2.8 2.2-3.8 2.6-.9.4-1.2.3-1.4.2-.2-.2-.6-.6-.8-1.8-.3-1.2-.5-2.7-.7-4.8l-2 .2c.2 2.1.4 3.8.7 5.1.3 1.3.8 2.4 1.7 3 1 .7 2.2.5 3.3-.1 1.1-.5 2.5-1.5 4.2-2.8l-1.2-1.6zm6 5c-.7.3-1.2.3-1.5.1-.4-.2-.7-.5-1.1-1.1-.4-.6-.7-1.2-1-1.9-.3-.6-.6-1.4-1-1.9l-1.6 1.2c.2.3.4.8.8 1.5.3.7.7 1.5 1.1 2.2.5.7 1.1 1.4 2 1.8.9.4 2 .4 3.1-.1l-.8-1.8zm-2.4-9.8c4 .4 6.9 1 8.7 1.6.9.3 1.6.6 1.9.9.4.3.4.5.4.6 0 .1 0 .4-.3.8s-.8 1-1.6 1.6c-1.5 1.2-3.8 2.6-6.9 4.3l1 1.8c3.1-1.7 5.5-3.2 7.2-4.5.8-.7 1.5-1.3 2-2s.8-1.4.7-2.2c-.1-.8-.6-1.5-1.2-2s-1.5-.9-2.5-1.2c-2.1-.7-5.1-1.2-9.1-1.7l-.3 2zm.1-1-.1 1 1.1.1v-1.1h-1zm-11.3 2-1-.2v.2h1zm8.2 4.5.8-.6-.6-.8-.8.7.6.7zm5.8 5.2.4.9-.4-.9zm-2.7-11.7.1-1-1.1-.1v1.1h1z"/></g><path style="clip-path:url(#SVGID_00000119824809249144521890000014875584392370222241_);fill-rule:evenodd;clip-rule:evenodd;fill:#fff" d="M222.6 127.8c-.1 5.6-1.7 9 4.5 12.3 4.6-.3 8.8-1.6 12.4-4.3l.7-9.4-17.6 1.4z"/><g style="clip-path:url(#SVGID_00000119824809249144521890000014875584392370222241_)"><defs><path id="SVGID_00000150796057012330092300000001573621368226179983_" d="M222.6 127.8c-.1 5.6-1.7 9 4.5 12.3 4.6-.3 8.8-1.6 12.4-4.3l.7-9.4-17.6 1.4z"/></defs><clipPath id="SVGID_00000114769848827691083350000007627636399400396990_"><use xlink:href="#SVGID_00000150796057012330092300000001573621368226179983_" style="overflow:visible"/></clipPath><path style="clip-path:url(#SVGID_00000114769848827691083350000007627636399400396990_);fill:#20380e" d="m240 124.5-17.5 1.3.3 4 17.5-1.3-.3-4zm1.5 11.5.7-9.4-4-.3-.7 9.4 4 .3zm-14.3 6.1c5-.3 9.5-1.8 13.4-4.7l-2.4-3.2c-3.3 2.4-7 3.7-11.3 3.9l.3 4zm-6.6-14.3c0 1.3-.1 2.5-.2 3.7-.1 1.2-.1 2.4.1 3.7.2 1.3.7 2.5 1.7 3.7.9 1.1 2.2 2.1 3.9 3l1.9-3.5c-1.4-.7-2.2-1.4-2.7-2-.5-.6-.7-1.2-.8-1.9-.1-.7-.1-1.6-.1-2.7.1-1.1.2-2.5.2-3.9l-4-.1zm19.6-1.3 2 .2.2-2.3-2.3.2.1 1.9zm-.7 9.4 1.2 1.6.7-.5.1-.9-2-.2zm-12.4 4.2-.9 1.8.5.3h.6l-.2-2.1zm-4.5-12.3-.2-2-1.8.1v1.8l2 .1z"/></g><path style="clip-path:url(#SVGID_00000119824809249144521890000014875584392370222241_);fill-rule:evenodd;clip-rule:evenodd;fill:#20380e" d="m255.3 107.3-39-4.9-13.7-9.8c-3.7-9.5.6-36 5.7-40.9 0 0 2.1 5.3 4.9 6.9-1.8-6.2.3-10.1 1.9-11.7.9 3 6 6.3 8.5 6.9-.8-4.7 2-10.8 2-10.8s5.4 8.6 9.2 10.2c5.3.1 17 3.8 24.8 10.7 7.9 6.9 8.6 12.3 9 17.3.3 5-4.5 20.6-6.9 23.1-3.8 2.7-6.4 3-6.4 3z"/><path style="clip-path:url(#SVGID_00000119824809249144521890000014875584392370222241_);fill-rule:evenodd;clip-rule:evenodd;fill:#fff" d="M206.6 94.6s-2.1-5.7-7.2-4.5c-9.7 2.1-9.1 23.4 4.6 18 2.4-4.5 2.6-13.5 2.6-13.5z"/><g style="clip-path:url(#SVGID_00000119824809249144521890000014875584392370222241_)"><defs><path id="SVGID_00000123411045608835375270000010276843767303978408_" d="M206.6 94.6s-2.1-5.7-7.2-4.5c-9.7 2.1-9.1 23.4 4.6 18 2.4-4.5 2.6-13.5 2.6-13.5z"/></defs><clipPath id="SVGID_00000097460157852404086700000015827707949268828828_"><use xlink:href="#SVGID_00000123411045608835375270000010276843767303978408_" style="overflow:visible"/></clipPath><path style="clip-path:url(#SVGID_00000097460157852404086700000015827707949268828828_);fill:#20380e" d="M204.6 94.6h4-4zm1.1 14.4c1.4-2.6 2.1-6.3 2.5-9.1.2-1.5.3-2.8.3-3.7 0-.5 0-.9.1-1.1v-.4h-4v.4c0 .2 0 .6-.1 1-.1.9-.2 2.1-.3 3.5-.4 2.8-1 5.8-2 7.7l3.5 1.7zM199 88.1c-3.2.7-5.4 2.9-6.7 5.5-1.3 2.6-1.7 5.7-1.4 8.5.4 2.8 1.6 5.6 4 7.3 2.5 1.7 5.9 2 9.7.4l-1.5-3.7c-3 1.2-4.8.8-6 0-1.2-.8-2.1-2.4-2.4-4.5-.3-2.1.1-4.4 1-6.2.9-1.8 2.3-3 3.9-3.4l-.6-3.9zm7.6 6.5 1.9-.7v-.1c0-.1-.1-.1-.1-.2-.1-.2-.2-.5-.4-.8-.3-.6-.8-1.4-1.6-2.2-1.5-1.6-4-3.2-7.4-2.4l.9 3.9c1.6-.4 2.7.3 3.6 1.2.4.5.8 1 1 1.4.1.2.2.4.2.5 0 .1 0 .1.1.1l1.8-.7zm0 0h2-4 2zM204 108l.7 1.9.7-.3.3-.6-1.7-1zm-4.6-17.9.4 2-.4-2zm7.2 4.5-1.9.7 3.9-.7h-2z"/></g><path style="clip-path:url(#SVGID_00000119824809249144521890000014875584392370222241_);fill-rule:evenodd;clip-rule:evenodd;fill:#fff" d="M255.6 117.9c-9.5 16.2-50.6 17.5-55.2-5.4-.6-6.1 2.7-6.8 3.6-14.3.5-4.2.3-4 .4-8.9.1-4.9 2.9-12.8 2.9-12.8 8.9-17.4 40.3-8.7 48.9 4.1 3 5.5 4.1 16.6 4.1 16.6-.6 4.6-3.5 16-4.7 20.7z"/><g style="clip-path:url(#SVGID_00000119824809249144521890000014875584392370222241_)"><defs><path id="SVGID_00000111173466478822383480000013518336947220671671_" d="M255.6 117.9c-9.5 16.2-50.6 17.5-55.2-5.4-.6-6.1 2.7-6.8 3.6-14.3.5-4.2.3-4 .4-8.9.1-4.9 2.9-12.8 2.9-12.8 8.9-17.4 40.3-8.7 48.9 4.1 3 5.5 4.1 16.6 4.1 16.6-.6 4.6-3.5 16-4.7 20.7z"/></defs><clipPath id="SVGID_00000163755589277515474710000001685417371027533478_"><use xlink:href="#SVGID_00000111173466478822383480000013518336947220671671_" style="overflow:visible"/></clipPath><path style="clip-path:url(#SVGID_00000163755589277515474710000001685417371027533478_);fill:#20380e" d="M255.6 119.9v-4 4zm2.7-23c-.6 4.5-3.4 15.7-4.6 20.5l3.9 1c1.1-4.6 4.1-16.2 4.7-21l-4-.5zm-3.9-15.3c1.3 2.4 2.3 6.3 3 9.7.3 1.7.5 3.2.7 4.3.1.6.1 1 .2 1.3v.4l2-.2 2-.2v-.5c0-.3-.1-.8-.2-1.4-.1-1.2-.4-2.8-.7-4.5-.6-3.5-1.7-7.9-3.4-10.9l-3.6 2zm-45.3-4.2c3.8-7.5 12.7-9.8 22.4-8.2 4.8.8 9.6 2.4 13.7 4.7 4.1 2.2 7.4 5 9.3 7.9l3.3-2.2c-2.4-3.6-6.2-6.7-10.7-9.1-4.5-2.5-9.7-4.3-15-5.1-10.4-1.6-21.6.5-26.6 10.4l3.6 1.6zm-2.7 12c0-2.2.7-5.2 1.4-7.8.3-1.3.7-2.4.9-3.2.1-.4.2-.7.3-.9 0-.1.1-.2.1-.2v-.1l-1.9-.7-1.9-.7v.1c0 .1-.1.2-.1.3-.1.2-.2.6-.3 1-.3.8-.6 2-1 3.4-.7 2.6-1.5 6-1.5 8.7l4 .1zm-.4 9.1c.5-4.4.3-4.4.4-9.1l-4-.1c-.1 5 .1 4.6-.4 8.7l4 .5zm-3.6 13.8c-.3-2.6.3-3.9 1.1-5.6.9-1.9 2.1-4.2 2.6-8.2l-4-.5c-.4 3.4-1.4 5.2-2.2 7.1-.9 2-1.8 4.1-1.4 7.7l3.9-.5zm51.5 4.6c-2.1 3.5-6 6.4-11 8.4-5 1.9-10.9 2.9-16.6 2.6-11.7-.5-21.9-5.7-23.9-15.8l-3.9.8c2.6 12.8 15.3 18.5 27.6 19 6.3.3 12.7-.7 18.3-2.9 5.5-2.1 10.3-5.5 13-10.1l-3.5-2zm1.7 1-1.9-.5-.6 2.5h2.6v-2zm4.6-20.7 2 .2V97l-2 .2zm-4-16.6 1.7-1v-.2l-1.7 1.2zm-48.9-4.1-1.8-.9-.1.1v.1l1.9.7zm-2.9 12.8h-2 2zm-.3 8.9 2 .2-2-.2zm-3.7 14.3-2 .2v.2l2-.4zm55.2 5.4 1.7 1 1.8-3h-3.5v2z"/></g><path style="clip-path:url(#SVGID_00000119824809249144521890000014875584392370222241_);fill-rule:evenodd;clip-rule:evenodd;fill:#fff" d="M220.1 114.2c-2.8-.9-6.1.1-6.5 1.2-.4 1 2.1 3.4 5.1 3.9 9.3 2.1 10.3-2.9 1.4-5.1z"/><g style="clip-path:url(#SVGID_00000119824809249144521890000014875584392370222241_)"><defs><path id="SVGID_00000001664995462601858930000006105622188045332906_" d="M220.1 114.2c-2.8-.9-6.1.1-6.5 1.2-.4 1 2.1 3.4 5.1 3.9 9.3 2.1 10.3-2.9 1.4-5.1z"/></defs><clipPath id="SVGID_00000030463296500180686010000005524643020775239837_"><use xlink:href="#SVGID_00000001664995462601858930000006105622188045332906_" style="overflow:visible"/></clipPath><path style="clip-path:url(#SVGID_00000030463296500180686010000005524643020775239837_);fill:#20380e" d="M218.2 121.3c2.5.5 4.6.7 6.2.4 1.4-.2 3.3-1 3.8-2.9s-.9-3.4-2.1-4.2c-1.3-.9-3.2-1.7-5.6-2.3l-.9 3.9c2.1.5 3.4 1.1 4.2 1.7.4.3.5.5.5.5s-.1-.1 0-.5c.1-.3.3-.4.2-.4-.1 0-.3.1-.7.2-.9.2-2.5.1-4.6-.3l-1 3.9zm-6.5-6.6c-.4 1.1.1 2.2.4 2.7.4.6.9 1.2 1.5 1.7 1.2 1 2.9 1.9 4.8 2.2l.7-3.9c-1.1-.2-2.1-.7-2.9-1.3-.4-.3-.6-.6-.6-.7-.1-.2.2.1-.1.7l-3.8-1.4zm8.9-2.4c-1.8-.6-3.7-.5-5.2-.2-.8.2-1.5.4-2.1.8-.5.3-1.3.8-1.7 1.8l3.8 1.4c-.2.4-.4.5-.1.3.2-.1.5-.2 1-.4.9-.2 2.1-.2 3.2.1l1.1-3.8zm-1.9 7.1.4-2-.4 2zm-5.1-4-1.9-.7 1.9.7zm6.5-1.2-.6 1.9h.2l.4-1.9z"/></g><path style="clip-path:url(#SVGID_00000119824809249144521890000014875584392370222241_);fill-rule:evenodd;clip-rule:evenodd;fill:#20380e" d="M258.9 104.6s-6.4-8.3-3.4-22.7C244.6 71.6 219.1 67 206.9 74c9.2-12.2 12.9-10.9 23.1-12 0 0 11.6 2.1 13.8 2.6 2.2.5 13.6 8 15.1 8.6 1.5.7 6.6 8.4 6.6 8.4-.8 5-3.3 15-4.7 19.9l-1.9 3.1zM214.1 93.8c-2.9-.7-4.7 6.6-1.8 7.3 2.9.8 4.7-6.6 1.8-7.3zm22.7 5.2c-2.9-.7-4.7 6.6-1.8 7.3 2.8.7 4.7-6.6 1.8-7.3z"/><path style="clip-path:url(#SVGID_00000119824809249144521890000014875584392370222241_);fill-rule:evenodd;clip-rule:evenodd;fill:#fff" d="M258.9 104.6c6.6-5.9 16.4 1.1 11.7 10.8-1.5 3.7-7.7 9.7-15 2.6-.5-5.2 3.3-13.4 3.3-13.4z"/><g style="clip-path:url(#SVGID_00000119824809249144521890000014875584392370222241_)"><defs><path id="SVGID_00000183938608456033524930000009718842913181828020_" d="M258.9 104.6c6.6-5.9 16.4 1.1 11.7 10.8-1.5 3.7-7.7 9.7-15 2.6-.5-5.2 3.3-13.4 3.3-13.4z"/></defs><clipPath id="SVGID_00000048482708041528222900000009848965439925629317_"><use xlink:href="#SVGID_00000183938608456033524930000009718842913181828020_" style="overflow:visible"/></clipPath><path style="clip-path:url(#SVGID_00000048482708041528222900000009848965439925629317_);fill:#20380e" d="M257.6 117.7c-.2-2.1.5-5 1.3-7.7.4-1.3.9-2.4 1.2-3.3.2-.4.3-.7.4-1 0-.1.1-.2.1-.3v-.1l-1.8-.8-1.8-.8v.1c0 .1-.1.2-.1.3-.1.2-.3.6-.4 1.1-.4.9-.8 2.1-1.3 3.5-.9 2.7-1.8 6.4-1.5 9.4l3.9-.4zm11.2-3.1c-.6 1.4-2.1 3.4-4.2 4.2-1 .4-2.1.5-3.3.3-1.2-.3-2.7-1-4.3-2.6l-2.8 2.9c2 2 4.1 3.1 6.2 3.6 2.1.5 4 .2 5.7-.5 3.2-1.3 5.5-4.2 6.4-6.4l-3.7-1.5zm-8.6-8.5c2.5-2.3 5.5-2 7.5-.4 1.9 1.6 3.1 4.7 1.1 8.8l3.6 1.7c2.7-5.6 1.3-10.8-2.2-13.7-3.4-2.8-8.6-3.1-12.7.5l2.7 3.1zm-4.6 11.8-2 .2.1.7.5.5 1.4-1.4zm15-2.5-1.8-.9v.2l1.8.7zm-11.7-10.8-1.3-1.5-.3.3-.2.4 1.8.8z"/></g><path style="clip-path:url(#SVGID_00000119824809249144521890000014875584392370222241_);fill:#20380e" d="M245.4 94.7c-.8-1.3-2.4-2.8-4.7-3.6-2.4-.8-5.3-.8-8.6 1l1.4 2.6c2.6-1.4 4.7-1.3 6.2-.8 1.6.6 2.7 1.7 3.2 2.4l2.5-1.6zm-13.3-2.6c-.7.4-1 1.3-.6 2s1.3 1 2 .6l-1.4-2.6zm10.8 4.2c.5.7 1.4.9 2.1.4.7-.5.9-1.4.4-2.1l-2.5 1.7zM221.5 91.7c-.7-1.4-2.4-2.8-4.5-3.5-2.2-.7-4.9-.5-7.6 1.5l1.8 2.4c1.9-1.4 3.6-1.5 4.9-1 1.4.4 2.4 1.4 2.7 2.1l2.7-1.5zm-12-2c-.7.5-.8 1.4-.3 2.1.5.7 1.4.8 2.1.3l-1.8-2.4zm9.4 3.5c.4.7 1.3 1 2 .6s1-1.3.6-2l-2.6 1.4zM265 109.2c-.1.7-.5 1.8-1 2.9-.6 1.1-1.3 1.9-2.1 2.3l.8 1.8c1.4-.6 2.4-1.9 3-3.2.7-1.2 1.1-2.5 1.2-3.4l-1.9-.4zm-3.1 5.1c-.5.2-.7.8-.5 1.3s.8.7 1.3.5l-.8-1.8zm5.1-4.8c.1-.5-.2-1.1-.8-1.2-.5-.1-1.1.2-1.2.8l2 .4zM199.1 95.5c-.9 1.2-2.5 4.3-1.4 7.7l1.9-.6c-.8-2.5.4-4.9 1.1-5.8l-1.6-1.3zm-1.3 7.7c.2.5.7.8 1.3.6.5-.2.8-.7.6-1.3l-1.9.7zm2.9-6.4c.3-.4.3-1.1-.2-1.4s-1.1-.3-1.4.2l1.6 1.2z"/></g></g></switch></svg>