<svg width="101" height="101" viewBox="0 0 101 101" fill="none" xmlns="http://www.w3.org/2000/svg">
<mask id="mask0_451_16116" style="mask-type:alpha" maskUnits="userSpaceOnUse" x="0" y="0" width="101" height="101">
<rect x="0.00195312" y="0.0273438" width="100" height="100" fill="#D9D9D9"/>
</mask>
<g mask="url(#mask0_451_16116)">
<path d="M16.6299 84.8408C21.86 85.8658 59.4924 86.7038 66.5265 85.2378C66.5551 85.2321 66.5818 85.2245 66.6105 85.2149C66.809 85.15 66.9731 85.0088 67.0686 84.8217C67.6336 83.6898 68.1738 82.5388 68.6853 81.3687C70.9549 81.8287 73.3314 81.8879 75.6124 81.5366C75.6544 81.5309 75.6964 81.5195 75.7365 81.508C75.9541 81.4374 76.1316 81.2732 76.2194 81.0575C80.3979 70.7365 82.8278 59.694 83.4386 48.2372C84.0475 36.811 82.8221 25.4936 79.7947 14.6C79.6992 14.2602 79.39 14.0254 79.0369 14.0274C63.1841 14.119 47.9326 15.1039 33.1851 16.0583C32.977 16.0717 32.7842 16.1671 32.6468 16.3237C32.5093 16.4802 32.4406 16.6844 32.454 16.8906C32.6029 19.1506 32.8625 21.1434 33.1144 23.0694L34.6663 22.8671C34.4468 21.1912 34.2235 19.4656 34.0727 17.5682C48.3659 16.6443 63.1326 15.7052 78.4451 15.5945C84.2575 36.9905 83.0148 59.8372 74.9386 80.0516C73.0794 80.2902 71.163 80.231 69.3152 79.8912C72.5049 72.1796 74.5664 63.6968 75.4483 54.5955C76.4008 44.7613 75.9923 34.1196 74.2362 22.9664C74.1827 22.6266 73.9136 22.3613 73.5719 22.3135C59.0534 20.2845 39.9347 21.8822 28.3119 24.2243C27.9148 24.3044 27.6438 24.6729 27.6877 25.0756C29.9057 45.4408 25.8972 65.7125 16.0973 83.6993C15.979 83.9188 15.9694 84.1804 16.0763 84.4056C16.1832 84.6308 16.3894 84.7931 16.6337 84.8408H16.6299ZM27.9759 55.2369C29.8714 45.4695 30.3199 35.5092 29.314 25.6196C40.7077 23.4092 58.7995 21.9394 72.774 23.7852C76.0553 45.1392 74.3488 63.9048 67.7118 79.6622C67.4675 79.7442 67.269 79.9428 67.2022 80.21C67.1564 80.3932 67.1812 80.5746 67.2556 80.733C66.8051 81.76 66.3337 82.7755 65.8393 83.7757C58.6755 84.9973 25.7101 84.3483 18.0004 83.4607C22.7095 74.5866 26.0652 65.0979 27.9778 55.2369H27.9759Z" fill="#20380E"/>
<path d="M63.1246 26.5492C61.4506 29.1986 60.0018 32.2146 58.6007 35.1313C58.4137 35.5207 58.5778 35.9883 58.9672 36.1754C59.3566 36.3624 59.8243 36.1983 60.0113 35.8089C60.4561 34.8812 60.9066 33.9459 61.3685 33.0144C61.4735 33.0774 61.5918 33.1194 61.7236 33.1251L64.6422 33.2873C64.8502 34.257 65.0392 35.2305 65.2052 36.204C65.2778 36.6297 65.6825 36.916 66.1081 36.8435C66.1463 36.8377 66.1845 36.8282 66.2207 36.8167C66.5834 36.6984 66.8144 36.3281 66.7476 35.9406C66.2188 32.8368 65.4725 29.7388 64.5334 26.7324C64.4417 26.4404 64.1898 26.2304 63.8882 26.1903C63.5847 26.1502 63.2869 26.2915 63.1246 26.5492ZM62.0901 31.5789C62.5596 30.6627 63.0426 29.7598 63.5427 28.8894C63.808 29.8209 64.0523 30.7581 64.2795 31.7011L62.0901 31.5789Z" fill="#20380E"/>
<path d="M65.9117 40.5581C67.2231 40.1305 68.4199 39.3803 69.317 38.3419C71.6687 35.6199 71.7126 31.2029 69.4106 28.4962C69.13 28.166 68.6375 28.1259 68.3073 28.4065C67.977 28.6871 67.937 29.1796 68.2176 29.5098C70.0386 31.6534 70.0004 35.1561 68.1317 37.3169C66.2916 39.4471 62.8729 40.0541 60.3513 38.7027C57.8641 37.3684 56.4115 34.2303 56.9765 31.4053C57.532 28.6203 60.0001 26.2495 62.8519 25.7666C63.2775 25.696 63.5658 25.2913 63.4932 24.8637C63.4207 24.4381 63.0179 24.1498 62.5904 24.2224C59.0705 24.8179 56.1309 27.6449 55.4418 31.0979C54.7375 34.6273 56.4917 38.4049 59.6126 40.0808C61.5291 41.1097 63.8616 41.2261 65.9117 40.5561V40.5581Z" fill="#20380E"/>
<path d="M35.3321 30.9165C38.0197 30.508 40.7589 30.2694 43.4789 30.2064C43.5572 30.2064 43.6335 30.1912 43.7042 30.1682C44.0249 30.0633 44.252 29.7598 44.2444 29.4066C44.2348 28.9752 43.8759 28.6316 43.4446 28.6431C40.6596 28.708 37.8517 28.9523 35.0992 29.3704C34.6716 29.4353 34.3777 29.8342 34.4426 30.2618C34.5075 30.6894 34.9064 30.9833 35.334 30.9184L35.3321 30.9165Z" fill="#20380E"/>
<path d="M34.6933 35.576C38.5033 34.6521 42.5557 34.5338 46.4135 35.2362C46.5452 35.261 46.6769 35.2496 46.7952 35.2114C47.0606 35.1255 47.2686 34.9003 47.3221 34.6082C47.4003 34.1825 47.1178 33.776 46.6922 33.6977C42.6206 32.9552 38.343 33.0792 34.3211 34.0566C33.9012 34.1577 33.6435 34.5815 33.7446 35.0014C33.8458 35.4214 34.2695 35.6791 34.6895 35.5779L34.6933 35.576Z" fill="#20380E"/>
<path d="M34.2453 48.6115C44.4708 49.3865 54.8567 49.7263 65.1128 49.6232C65.1949 49.6232 65.2731 49.6098 65.3476 49.585C65.6645 49.4819 65.8897 49.1823 65.8878 48.8329C65.884 48.4016 65.5289 48.0541 65.0975 48.058C54.8854 48.161 44.5453 47.8213 34.3636 47.0501C33.9322 47.0177 33.5562 47.3402 33.5237 47.7716C33.4913 48.203 33.8139 48.5791 34.2453 48.6115Z" fill="#20380E"/>
<path d="M32.6941 56.8367C44.2749 57.2738 56.0104 57.123 67.5778 56.3862C67.6446 56.3824 67.7095 56.369 67.7706 56.3499C68.1027 56.2411 68.3318 55.9204 68.3089 55.5559C68.2822 55.1245 67.91 54.798 67.4786 54.8248C55.9646 55.5578 44.2826 55.7086 32.7533 55.2734C32.3219 55.2562 31.9573 55.594 31.942 56.0254C31.9249 56.4568 32.2627 56.8214 32.6941 56.8367Z" fill="#20380E"/>
<path d="M32.2904 65.2336L64.3414 63.7733C64.414 63.7695 64.4827 63.7562 64.5495 63.7352C64.8759 63.6283 65.1049 63.3152 65.0878 62.9564C65.0687 62.525 64.7022 62.1909 64.2708 62.21L32.2198 63.6703C31.7884 63.6893 31.4543 64.0558 31.4734 64.4872C31.4925 64.9186 31.859 65.2527 32.2904 65.2336Z" fill="#20380E"/>
<path d="M60.6495 70.9944L30.2267 71.8267C29.7934 71.8381 29.4537 72.1989 29.4651 72.6303C29.4766 73.0617 29.8374 73.4034 30.2688 73.3919L60.6915 72.5597C60.7698 72.5577 60.8442 72.5444 60.913 72.5215C61.2336 72.4165 61.4627 72.1111 61.4513 71.756C61.4398 71.3246 61.079 70.983 60.6476 70.9944H60.6495Z" fill="#20380E"/>
</g>
</svg>
