<svg width="507" height="250" viewBox="0 0 507 250" fill="none" xmlns="http://www.w3.org/2000/svg">
<mask id="mask0_813_2704" style="mask-type:alpha" maskUnits="userSpaceOnUse" x="0" y="0" width="507" height="250">
<path d="M0.333008 20C0.333008 8.9543 9.28731 0 20.333 0H487C498.045 0 507 8.9543 507 20V250H0.333008V20Z" fill="#F4F7EB"/>
</mask>
<g mask="url(#mask0_813_2704)">
<path d="M434.138 102.899C434.138 102.899 437.14 105.443 438.297 110.988C439.454 116.534 440.611 127.395 441.528 138.486L440.83 159.751C440.83 159.751 440.715 161.366 439.673 161.481C438.631 161.596 426.852 161.022 421.181 158.25C415.511 155.477 409.048 149.931 409.048 149.931L421.181 113.417C421.181 113.417 423.495 94.6957 434.117 102.899H434.138Z" fill="white"/>
<path d="M409.413 148.899C409.413 148.899 420.733 123.715 421.432 107.538" stroke="#20380E" stroke-width="2" stroke-linecap="round" stroke-linejoin="round"/>
<path d="M380.977 81.8744C382.655 83.6777 383.301 86.0752 382.926 88.3371C382.832 88.9938 383.009 89.6922 383.499 90.2134C384.302 91.0682 385.595 91.1516 386.512 90.474L399.302 78.5283L431.157 112.635L397.05 144.49L384.677 131.242C384.636 131.137 384.615 131.043 384.594 130.939C384.594 130.929 384.594 130.908 384.594 130.898C384.573 130.793 384.563 130.699 384.552 130.595V130.574C384.542 130.387 384.552 130.21 384.583 130.022C384.583 129.991 384.583 129.959 384.594 129.928C384.604 129.866 384.625 129.803 384.646 129.751C384.667 129.688 384.688 129.626 384.719 129.563C384.74 129.511 384.761 129.459 384.782 129.417C384.823 129.344 384.865 129.271 384.907 129.198C384.938 129.157 384.959 129.125 384.98 129.084C385.063 128.98 385.146 128.875 385.24 128.782C385.761 128.292 386.46 128.104 387.127 128.208C389.389 128.573 391.786 127.937 393.579 126.259C396.665 123.372 396.831 118.524 393.944 115.439C391.057 112.354 386.22 112.187 383.124 115.074C381.321 116.763 380.518 119.108 380.737 121.391C380.789 122.058 380.56 122.736 380.039 123.226C379.934 123.319 379.83 123.392 379.716 123.465C379.684 123.486 379.643 123.517 379.601 123.528C379.528 123.57 379.455 123.611 379.382 123.643C379.33 123.663 379.278 123.684 379.226 123.695C379.163 123.716 379.101 123.736 379.028 123.747C378.965 123.757 378.902 123.778 378.84 123.789C378.809 123.789 378.777 123.789 378.746 123.789C378.558 123.809 378.381 123.809 378.194 123.789H378.173C378.069 123.778 377.975 123.757 377.881 123.726C377.871 123.726 377.85 123.726 377.839 123.716C377.735 123.684 377.641 123.653 377.547 123.611L365.174 110.363L377.964 98.4169C378.704 97.5518 378.715 96.2488 377.912 95.394C377.422 94.8729 376.745 94.6435 376.078 94.6956C373.795 94.9041 371.449 94.1119 369.761 92.3086C366.873 89.2231 367.04 84.3761 370.126 81.4887C373.211 78.6013 378.058 78.7681 380.935 81.8639L380.977 81.8744Z" fill="#B4CC77"/>
<path d="M436.755 103.983L429.302 96.7492C428.874 96.3218 418.763 86.3358 417.377 85.1788C416.918 84.7931 415.782 84.7827 414.364 84.9807C414.448 84.7305 414.333 84.4595 414.083 84.3449L408.256 81.7493C408.141 81.6972 408.006 81.6868 407.881 81.7285L394.903 85.8772C394.695 85.9397 394.549 86.1378 394.538 86.3567C394.538 86.4817 394.444 89.4838 396.258 91.1308C397.019 91.8187 397.978 92.1627 399.125 92.1627C399.26 92.1627 399.417 92.1419 399.552 92.1314L393.569 97.4372C393.371 97.6144 393.339 97.8958 393.485 98.1147C393.538 98.1981 394.872 100.147 397.363 100.575C398.458 100.762 399.583 100.606 400.73 100.158C400.73 100.241 400.73 100.325 400.761 100.398C400.772 100.429 402.023 102.931 405.129 102.931C405.848 102.931 406.661 102.795 407.578 102.472C411.519 101.075 413.968 99.0112 414.656 98.3857L419.149 99.0424L418.544 99.1675C418.461 99.1884 418.377 99.2196 418.315 99.2822L411.842 104.828C411.633 105.005 411.602 105.307 411.758 105.526C411.852 105.662 413.968 108.559 417.46 108.559C417.721 108.559 417.981 108.549 418.252 108.507C420.108 108.278 422.797 106.548 423.579 106.026C424.58 106.36 427.947 107.402 429.375 107.121C429.458 107.11 429.604 107.121 429.802 107.121C431.042 107.142 433.951 107.225 436.734 104.744C436.838 104.65 436.901 104.515 436.911 104.369C436.911 104.223 436.859 104.088 436.755 103.983Z" fill="white"/>
<path d="M343.868 239.733C345.265 242.224 424.007 219.344 431.752 194.535C437.839 175.032 406.109 180.098 406.109 180.098C406.109 180.098 359.285 180.442 350.873 188.135C342.451 195.827 343.003 238.19 343.868 239.733Z" fill="#20380E"/>
<path d="M287.037 134.911V117.274C287.12 116.085 288.111 115.137 289.32 115.137C290.039 115.137 290.685 115.481 291.102 116.012C292.52 117.847 294.73 119.035 297.231 119.035C301.505 119.035 304.976 115.564 304.976 111.29C304.976 107.017 301.505 103.546 297.231 103.546C294.74 103.546 292.52 104.734 291.102 106.558C290.685 107.09 290.039 107.434 289.32 107.434C288.1 107.434 287.12 106.495 287.037 105.297V87.67H269.327C268.17 87.545 267.273 86.586 267.273 85.3977C267.273 84.6784 267.617 84.0321 268.149 83.6152C269.984 82.1975 271.172 79.9877 271.172 77.486C271.172 73.2018 267.701 69.7411 263.427 69.7411C259.153 69.7411 255.682 73.2122 255.682 77.486C255.682 79.9773 256.87 82.1975 258.695 83.6152C259.226 84.0321 259.57 84.6784 259.57 85.3977C259.57 86.586 258.663 87.545 257.517 87.67H239.807V134.911H287.058H287.037Z" fill="#2C4D13"/>
<path d="M267.888 109.206C267.211 108.664 266.523 108.862 266.45 108.882C266.335 108.914 266.242 108.987 266.179 109.08L262.239 114.647L258.215 119.817L259.247 110.79C259.925 110.185 262.645 107.736 263.802 106.547C267.232 103.024 264.772 98.9798 264.741 98.9381C264.668 98.813 264.542 98.7296 264.407 98.6984C264.271 98.6671 264.126 98.6984 264 98.7818L262.593 99.7616C263.219 98.1876 263.344 96.7387 262.958 95.467C262.385 93.5803 260.905 92.7776 260.842 92.7464C260.634 92.6317 260.373 92.6838 260.217 92.8506L251.044 102.67C251.836 100.606 252.409 98.4899 252.096 97.239C251.325 94.1536 248.969 93.8409 248.875 93.8304C248.677 93.8096 248.479 93.9034 248.375 94.0702L236.826 112.103C236.763 112.197 236.732 112.312 236.742 112.427L238.389 134.337L222.91 151.745C222.733 151.943 222.733 152.245 222.91 152.444L245.196 176.762C245.29 176.867 245.436 176.929 245.582 176.929C245.602 176.929 245.634 176.929 245.655 176.929C245.821 176.908 245.967 176.804 246.051 176.648C246.561 175.647 258.549 152.1 259.935 148.889C260.967 146.481 261.009 139.372 261.04 134.671C261.05 132.878 261.061 131.46 261.123 130.96C261.301 129.532 264.469 124.122 265.668 122.162C265.793 121.964 268.743 117.388 268.983 114.292C269.181 111.666 268.827 109.967 267.899 109.226L267.888 109.206Z" fill="white"/>
<path d="M221.305 155.362L238.911 134.504L237.254 112.375L248.803 94.3413C248.803 94.3413 250.888 94.5811 251.576 97.3538C252.274 100.127 247.875 108.215 247.875 108.215" stroke="#20380E" stroke-width="2" stroke-linecap="round" stroke-linejoin="round"/>
<path d="M242.591 117.649L250.659 103.837L260.593 93.2051C260.593 93.2051 264.523 95.2898 261.52 100.835" stroke="#20380E" stroke-width="2" stroke-linecap="round" stroke-linejoin="round"/>
<path d="M248.282 119.661L253.65 106.6L264.282 99.2092C264.282 99.2092 266.596 102.91 263.407 106.183C262.114 107.517 258.737 110.529 258.737 110.529L257.455 121.652" stroke="#20380E" stroke-width="2" stroke-linecap="round" stroke-linejoin="round"/>
<path d="M255.297 124.393L262.636 114.97L266.597 109.383C266.597 109.383 268.869 108.684 268.442 114.24C268.212 117.242 265.21 121.871 265.21 121.871C265.21 121.871 260.822 129.032 260.592 130.887C260.363 132.732 260.822 145.449 259.435 148.681C258.049 151.912 245.572 176.408 245.572 176.408" stroke="#20380E" stroke-width="2" stroke-linecap="round" stroke-linejoin="round"/>
<path d="M235.743 227.889C249.258 222.291 255.676 206.797 250.078 193.283C244.48 179.768 228.986 173.35 215.471 178.948C201.956 184.546 195.538 200.04 201.136 213.555C206.734 227.07 222.228 233.487 235.743 227.889Z" fill="#20380E"/>
<path d="M200.05 210.317C198.779 206.324 196.235 184.976 219.928 155.362C226.86 146.7 247.656 179.285 247.656 179.285C247.656 179.285 240.38 212.558 233.448 220.532C226.516 228.506 200.061 210.317 200.061 210.317H200.05Z" fill="#20380E"/>
<path d="M307.968 170.998C307.968 170.998 307.968 170.977 307.968 170.967C306.238 170.279 304.591 169.674 303.111 169.205C298.306 167.694 296.127 166.849 294.324 166.537C292.281 166.172 290.727 166.484 286.37 167.266C278.198 168.736 225.464 181.39 214.988 187.926L212.247 215.81C212.247 215.81 212.841 228.35 222.003 229.549C232.636 230.935 264.668 224.774 276.416 222.679C279.23 222.179 280.908 221.845 280.908 221.845L286.819 250H386.303L391.505 193.847L307.968 170.998Z" fill="#20380E"/>
<path d="M244.529 173.041L248.344 178.93C248.344 178.93 247.302 194.181 237.941 214.288" stroke="white" stroke-width="2"/>
<path d="M426.967 200.424C416.814 207.398 400.449 198.423 398.062 185.862C396.623 178.315 402.273 163.18 407.797 149.827C408.058 149.212 408.308 148.608 408.558 148.003C410.049 149.765 411.821 151.307 413.656 152.662C421.953 158.76 431.835 160.637 441.862 160.595C441.81 161.189 441.769 161.762 441.717 162.336C441.466 165.046 441.174 167.506 440.841 169.643C438.006 187.468 432.564 196.578 426.956 200.414L426.967 200.424Z" fill="#20380E"/>
<path d="M337.364 193.149C322.114 193.149 309.699 185.216 309.699 175.48C309.699 174.511 309.824 173.541 310.085 172.572L360.14 185.466C354.991 190.24 346.464 193.159 337.354 193.159L337.364 193.149Z" fill="white"/>
<path d="M310.876 173.854L357.929 185.967C352.894 189.813 345.368 192.106 337.363 192.106C322.686 192.106 310.741 184.643 310.741 175.48C310.741 174.938 310.782 174.396 310.876 173.854ZM309.375 171.321C308.906 172.655 308.656 174.052 308.656 175.48C308.656 185.821 321.508 194.191 337.363 194.191C347.943 194.191 357.179 190.459 362.151 184.903L309.375 171.311V171.321Z" fill="#20380E"/>
<path d="M343.128 123.486C343.128 123.486 322.217 134.202 314.973 143.114C307.728 152.016 307.499 161.137 321.915 162.94C321.915 162.94 324.949 161.366 323.885 166.735C322.78 172.311 321.582 177.732 321.582 177.732L343.076 183.246C343.076 183.246 342.711 174.688 344.743 170.258C346.776 165.828 349.632 161.45 349.632 161.45L354.344 161.241C354.344 161.241 360.348 160.605 361.745 152.183C363.141 143.75 362.641 125.227 343.128 123.507V123.486Z" fill="white"/>
<path d="M327.575 135.682C327.054 136.245 326.314 136.391 325.918 136.026C325.522 135.661 325.616 134.9 326.127 134.348C326.648 133.785 327.388 133.639 327.784 134.004C328.18 134.369 328.086 135.13 327.575 135.682Z" fill="#20380E"/>
<path d="M336.165 142.364C335.644 142.927 334.904 143.073 334.507 142.708C334.111 142.343 334.205 141.582 334.716 141.03C335.237 140.467 335.977 140.321 336.373 140.686C336.769 141.05 336.676 141.811 336.165 142.364Z" fill="#20380E"/>
<path d="M336.634 136.714C336.634 136.714 341.22 136.297 341.835 140.362" stroke="#20380E" stroke-width="2" stroke-linecap="round" stroke-linejoin="round"/>
<path d="M325.709 130.522C325.709 130.522 330.296 130.105 330.911 134.171" stroke="#20380E" stroke-width="2" stroke-linecap="round" stroke-linejoin="round"/>
<path d="M335.821 126.238C335.821 126.238 316.235 140.123 312.524 146.554C308.813 152.986 305.477 167.558 339.011 161.669" stroke="#20380E" stroke-width="2" stroke-linecap="round" stroke-linejoin="round"/>
<path d="M330.254 136.839C328.336 138.559 326.429 140.279 324.511 141.999C324.511 141.999 322.916 143.708 325.23 145.074" stroke="#20380E" stroke-width="2" stroke-linecap="round" stroke-linejoin="round"/>
<path d="M319.936 148.472C319.936 148.472 322.479 152.444 328.952 151.005" stroke="#20380E" stroke-width="2" stroke-linecap="round" stroke-linejoin="round"/>
<path d="M344.681 148.357C344.681 148.357 354.771 140.456 352.988 136.089C351.195 131.721 339.406 128.948 337.686 129.365C335.977 129.772 337.749 127.166 337.749 127.166L331.265 127.656C331.265 127.656 333.913 120.255 339.448 119.786C344.983 119.317 342.794 120.213 342.794 120.213C342.794 120.213 343.471 115.043 351.06 117.117C358.638 119.192 367.759 127.447 368.374 130.501C368.999 133.545 371.564 144.49 368.603 150.849C365.643 157.207 359.795 155.675 359.795 155.675C359.795 155.675 361.244 151.068 355.104 149.442C348.965 147.815 347.599 152.141 347.599 152.141L344.67 148.368L344.681 148.357Z" fill="#20380E"/>
<path d="M348.142 155.467C348.142 155.467 350.05 152.621 352.489 152.402C355.095 152.173 356.836 154.706 356.429 155.967" stroke="#20380E" stroke-width="2" stroke-linecap="round" stroke-linejoin="round"/>
<path d="M360.932 155.07C360.932 155.07 358.42 161.106 354.344 161.231C349.445 161.377 349.633 161.439 349.633 161.439C349.633 161.439 342.19 169.653 343.201 181.161" stroke="#20380E" stroke-width="2" stroke-linecap="round" stroke-linejoin="round"/>
<path d="M323.802 162.992C323.802 162.992 324.25 170.946 321.665 176.47" stroke="#20380E" stroke-width="2" stroke-linecap="round" stroke-linejoin="round"/>
<path d="M413.874 84.8139L408.047 82.2184L395.069 86.3671C395.069 86.3671 394.85 92.2669 399.937 91.579" stroke="#20380E" stroke-width="2" stroke-linecap="round" stroke-linejoin="round"/>
<path d="M440.841 160.803C444.541 133.66 436.39 104.359 436.39 104.359L428.926 97.1244C428.926 97.1244 418.419 86.7319 417.033 85.5852C415.647 84.4282 405.087 87.9306 405.087 87.9306L393.923 97.8332C393.923 97.8332 397.155 102.691 402.94 98.2919" stroke="#20380E" stroke-width="2" stroke-linecap="round" stroke-linejoin="round"/>
<path d="M415.886 90.6616L408.256 92.7464L401.241 100.168C401.241 100.168 402.888 103.587 407.422 101.971C411.956 100.366 414.5 97.8228 414.5 97.8228L421.661 98.9798" stroke="#20380E" stroke-width="2" stroke-linecap="round" stroke-linejoin="round"/>
<path d="M425.361 98.2919L418.658 99.6782L412.185 105.224C412.185 105.224 414.499 108.455 418.189 107.996C420.232 107.736 423.505 105.453 423.505 105.453C423.505 105.453 427.8 106.224 429.28 106.61" stroke="#20380E" stroke-width="2" stroke-linecap="round" stroke-linejoin="round"/>
<path d="M284.567 80.1962C284.755 79.9043 284.943 79.6124 285.13 79.3206" stroke="#20380E" stroke-width="2" stroke-linecap="round" stroke-linejoin="round"/>
<path d="M287.747 75.9328C304.873 56.4924 343.639 58.5876 362.496 74.8487" stroke="#20380E" stroke-width="2" stroke-linecap="round" stroke-linejoin="round"/>
<path d="M364.08 76.2872C364.33 76.527 364.58 76.7772 364.82 77.0169" stroke="#20380E" stroke-width="2" stroke-linecap="round" stroke-linejoin="round"/>
<path d="M278.156 203.197C278.156 203.197 278.156 213.246 280.241 223.993" stroke="white" stroke-width="2"/>
<g clip-path="url(#clip0_813_2704)">
<path d="M143.192 183.954C143.192 183.954 152.942 184.604 153.808 175.308C154.675 166.012 144.058 150.665 133.66 142.667C123.261 134.67 111.128 147.208 111.128 147.208C111.128 147.208 103.327 143.102 93.7949 155.422C84.2624 167.743 87.0786 167.096 89.8949 180.498C92.7111 193.9 99.6451 210.111 95.3119 218.975C95.3119 218.975 97.4773 225.893 112.427 222.217C116.779 221.147 121.884 219.472 126.934 217.637C140.615 212.664 147.834 197.725 143.192 183.957V183.954Z" fill="#20380E"/>
<path d="M187.809 172.057L183.954 179.75L176.494 174.462L177.679 170.717L177.688 170.693L177.728 170.587C177.764 170.493 177.816 170.354 177.882 170.176C178.016 169.819 178.209 169.302 178.444 168.661C178.915 167.379 179.56 165.6 180.251 163.61C181.633 159.639 183.212 154.805 183.977 151.424C184.161 150.611 184.373 150.005 184.589 149.578C184.81 149.141 185.01 148.942 185.139 148.869C185.228 148.819 185.282 148.822 185.365 148.877C185.486 148.957 185.654 149.154 185.82 149.539C186.145 150.297 186.367 151.574 186.31 153.274C186.254 154.963 185.924 157.039 185.179 159.376L184.985 159.985L185.622 160.027L185.622 160.027L185.622 160.027L185.623 160.027L185.627 160.028L185.646 160.029C185.663 160.03 185.689 160.032 185.723 160.035C185.791 160.041 185.893 160.05 186.023 160.063C186.283 160.09 186.656 160.134 187.104 160.202C188.002 160.338 189.192 160.569 190.377 160.95C191.568 161.333 192.718 161.856 193.562 162.557C194.396 163.251 194.905 164.093 194.905 165.148C194.905 167.559 194.219 169.862 193.072 171.23C192.505 171.907 191.844 172.335 191.112 172.468C190.382 172.601 189.516 172.453 188.513 171.852L188.05 171.575L187.809 172.057Z" fill="white" stroke="#20380E"/>
<path d="M147.74 226.755L147.745 226.769L147.75 226.783L147.754 226.799L147.766 226.841C147.799 226.953 147.86 227.196 147.965 227.675L147.991 227.79L147.998 227.822C148.506 230.144 149.913 237.268 153.375 258.314C158.141 287.28 162.908 335.915 162.908 335.915L137.775 346.507L134.069 316.023V316.016L129.975 282.308H126.075L119.415 329.301L116.978 346.507L91.4117 334.834L100.729 252.045C91.1963 262.852 67.3627 276.471 67.3627 276.471C62.1634 270.634 60.2134 264.366 60.2134 264.366C70.612 257.665 90.1124 235.399 95.094 226.106C96.0398 224.347 97.2009 222.726 98.4627 221.254C100.401 218.994 102.581 217.085 104.58 215.572C104.94 215.296 105.294 215.035 105.64 214.787C108.716 212.585 111.125 211.407 111.125 211.407V195.628L122.608 201.247V209.462L129.275 207.287C129.609 207.178 129.947 207.07 130.284 206.965C130.345 206.946 130.408 206.925 130.469 206.909C132.517 206.271 134.589 205.708 136.67 205.183C137.066 205.082 137.459 204.977 137.85 204.865C161.99 197.999 177.206 170.555 177.206 170.555C184.356 172.5 189.122 179.201 189.122 179.201C172.655 213.138 147.74 226.757 147.74 226.757V226.755Z" fill="#94B73D"/>
<path d="M119.111 217.184L119.358 217.884L119.111 217.184C115.06 218.617 112.227 218.521 110.251 217.809C108.566 217.202 107.426 216.117 106.656 214.991C107.935 214.103 109.069 213.409 109.914 212.921C110.398 212.641 110.787 212.43 111.054 212.289C111.187 212.219 111.289 212.166 111.357 212.131C111.392 212.114 111.417 212.101 111.434 212.093L111.452 212.084L111.456 212.082L111.457 212.081L111.457 212.081L111.457 212.081L111.457 212.081L111.878 211.876V211.407V196.83L121.86 201.715V209.462V210.495L122.843 210.175L128.959 208.18C127.266 211.795 124.304 215.347 119.111 217.184Z" fill="white" stroke="#20380E" stroke-width="1.5"/>
<path d="M162.469 336.375L162.489 336.571L137.665 347.395L134.572 315.998V315.985L134.568 315.955L130.474 282.248L130.42 281.808H129.977H126.077H125.643L125.582 282.238L118.922 329.231L118.922 329.234L116.464 347.414L91.199 336.789L101.23 252.104L101.232 252.089L101.233 252.074C101.362 249.815 101.426 247.554 101.426 245.295C101.426 237.267 100.613 229.261 99.007 221.397C100.69 219.464 102.55 217.795 104.308 216.418C105.782 221.628 108.019 231.617 109.117 247.11L109.157 247.675L109.712 247.565L109.615 247.075C109.712 247.565 109.712 247.565 109.713 247.565L109.713 247.565L109.716 247.565L109.727 247.562L109.767 247.554C109.802 247.547 109.853 247.537 109.92 247.522C110.055 247.493 110.253 247.45 110.509 247.391C111.021 247.273 111.766 247.091 112.701 246.838C114.573 246.331 117.208 245.536 120.272 244.381C126.396 242.073 134.252 238.319 141.135 232.542L141.383 232.335L141.295 232.024L140.814 232.159C141.295 232.024 141.295 232.024 141.295 232.024L141.295 232.023L141.294 232.021L141.292 232.013L141.283 231.982L141.249 231.862C141.218 231.757 141.173 231.602 141.113 231.4C140.993 230.997 140.815 230.409 140.581 229.669C140.113 228.188 139.422 226.095 138.529 223.644C136.8 218.9 134.311 212.801 131.214 207.205C133.059 206.645 134.924 206.141 136.8 205.668L136.8 205.668C137.076 205.598 137.35 205.525 137.624 205.45C140.675 210.572 143.07 215.879 144.711 219.937C145.549 222.009 146.189 223.753 146.62 224.978C146.836 225.59 146.999 226.073 147.108 226.402C147.162 226.567 147.203 226.693 147.23 226.778L147.261 226.873L147.268 226.897L147.27 226.903L147.271 226.904L147.271 226.904L147.271 226.904L147.274 226.913L147.278 226.927L147.278 226.927L147.279 226.931L147.28 226.933L147.281 226.937L147.289 226.966L147.485 227.785L147.486 227.791L147.509 227.894L147.51 227.899L147.516 227.927L147.517 227.929C148.022 230.237 149.427 237.349 152.889 258.395L153.383 258.314L152.889 258.395C155.27 272.865 157.679 292.498 159.493 308.52C160.4 316.53 161.158 323.635 161.689 328.737C161.955 331.288 162.164 333.339 162.306 334.751C162.378 335.458 162.432 336.004 162.469 336.375Z" fill="#20380E" stroke="#20380E"/>
<path d="M124 167C131.2 174.6 140.667 177.833 144.5 178.5C146.1 188.9 141.5 197.167 139 200C134.6 205.2 126.167 205.5 122.5 205C110.9 202.6 106 194.667 105 191C99.4 192.6 97 188 96.5 185.5C96.5 181.1 100.167 181 102 181.5L104.5 186C107.7 192.4 108.5 189.667 108.5 187.5L110 168C111.2 163.2 113.5 164.333 114.5 165.5C116.1 169.1 117.167 168 117.5 167C119.1 163 122.5 165.333 124 167Z" fill="white" stroke="#20380E"/>
<path d="M101.726 248.631L101.726 248.631C101.365 248.713 101.066 248.623 100.853 248.437C100.636 248.248 100.471 247.924 100.466 247.48L100.466 247.48L100.419 243.836C100.419 243.836 100.419 243.836 100.419 243.836C100.408 242.911 101.087 242.034 101.849 241.861C101.849 241.861 101.849 241.861 101.849 241.861L108.614 240.327L108.614 240.327C108.975 240.245 109.274 240.335 109.487 240.521C109.704 240.71 109.868 241.034 109.874 241.478L109.874 241.478L109.921 245.121C109.921 245.122 109.921 245.122 109.921 245.122C109.932 246.047 109.253 246.923 108.491 247.096C108.491 247.096 108.491 247.096 108.491 247.096L101.726 248.631Z" fill="white" stroke="#20380E"/>
<path d="M107.307 246.414L103.091 247.369C102.457 247.514 101.935 247.059 101.925 246.353L101.897 244.081C101.888 243.375 102.396 242.686 103.03 242.541L107.246 241.586C107.881 241.441 108.403 241.897 108.412 242.602L108.44 244.875C108.45 245.58 107.942 246.269 107.307 246.414Z" fill="#20380E"/>
<path d="M141.217 231.379L141.217 231.379C140.904 231.576 140.591 231.59 140.329 231.485C140.061 231.379 139.798 231.128 139.644 230.71L139.644 230.71L138.387 227.288L138.387 227.288C138.068 226.42 138.417 225.368 139.078 224.952C139.078 224.952 139.078 224.952 139.078 224.952L144.949 221.264L144.949 221.264C145.263 221.067 145.575 221.053 145.838 221.158C146.106 221.265 146.369 221.515 146.522 221.934L146.522 221.934L147.779 225.355L147.779 225.356C148.099 226.223 147.75 227.275 147.088 227.691C147.088 227.691 147.088 227.691 147.088 227.691L141.217 231.379Z" fill="white" stroke="#20380E"/>
<path d="M145.746 227.439L142.087 229.737C141.537 230.083 140.891 229.826 140.647 229.165L139.863 227.033C139.62 226.369 139.87 225.552 140.42 225.206L144.079 222.908C144.629 222.562 145.276 222.819 145.519 223.48L146.303 225.613C146.547 226.276 146.296 227.093 145.746 227.439Z" fill="#20380E"/>
<path d="M187.235 170.235C187.221 170.233 185.929 169.943 185.339 167.775C186.575 166.192 187.944 164.118 187.488 163.181C187.359 162.917 187.045 162.614 186.282 162.663C182.895 162.887 180.486 167.187 180.385 167.369C180.299 167.526 180.357 167.724 180.514 167.81C180.671 167.897 180.87 167.838 180.957 167.682C180.98 167.64 183.288 163.513 186.327 163.31C186.549 163.296 186.83 163.31 186.905 163.464C187.181 164.031 186.06 165.797 184.758 167.46C184.735 167.483 184.714 167.509 184.697 167.537C184.218 168.147 183.714 168.742 183.248 169.256C183.129 169.389 183.138 169.595 183.272 169.714C183.335 169.77 183.412 169.798 183.489 169.798C183.578 169.798 183.667 169.763 183.731 169.691C183.934 169.466 184.356 168.992 184.847 168.392C185.599 170.545 187.043 170.858 187.109 170.872C187.13 170.877 187.151 170.879 187.172 170.879C187.324 170.879 187.46 170.772 187.49 170.618C187.525 170.443 187.411 170.272 187.235 170.237V170.235Z" fill="#20380E"/>
<path d="M120.66 185.143C121.678 185.143 122.503 184.127 122.503 182.873C122.503 181.619 121.678 180.603 120.66 180.603C119.643 180.603 118.818 181.619 118.818 182.873C118.818 184.127 119.643 185.143 120.66 185.143Z" fill="#20380E"/>
<path d="M137.125 184.928C138.142 184.928 138.967 183.912 138.967 182.658C138.967 181.404 138.142 180.388 137.125 180.388C136.107 180.388 135.282 181.404 135.282 182.658C135.282 183.912 136.107 184.928 137.125 184.928Z" fill="#20380E"/>
<path d="M129.551 194.567C129.541 194.817 129.514 195.139 129.45 195.496C129.301 196.338 128.965 197.302 128.251 198.014C127.989 198.276 127.466 198.511 126.685 198.596C125.925 198.679 125.009 198.61 124.072 198.36C122.185 197.858 120.353 196.673 119.499 194.778C118.558 192.69 118.961 191.733 119.423 191.394C119.695 191.195 120.133 191.068 120.764 191.121C121.392 191.175 122.161 191.406 123.016 191.858L123.016 191.858C124.897 192.851 126.664 193.567 127.96 194.035C128.609 194.269 129.142 194.442 129.514 194.556C129.527 194.56 129.539 194.564 129.551 194.567Z" fill="white" stroke="#20380E" stroke-width="1.5"/>
<path d="M116.188 179.695C117.591 178.292 121.24 176.327 124.608 179.695" stroke="#20380E" stroke-width="1.5" stroke-linecap="round"/>
<path d="M133.028 180.297C134.432 178.693 138.08 176.448 141.449 180.297" stroke="#20380E" stroke-width="1.5" stroke-linecap="round"/>
<path d="M100.551 184.507C100.35 185.71 100.671 188.477 103.558 189.92" stroke="#20380E" stroke-linecap="round"/>
</g>
</g>
<defs>
<clipPath id="clip0_813_2704">
<rect width="157.405" height="210.506" fill="white" transform="translate(38 140)"/>
</clipPath>
</defs>
</svg>
