<svg id="Layer_1" data-name="Layer 1" xmlns="http://www.w3.org/2000/svg" viewBox="0 0 430 250"><defs><clipPath id="clippath-15"><path class="cls-4" d="M221.85 283.03c.03.36 11.97-.08 11.98-.53.14-3.85-.03-54.77.02-57l-17.03 5.28c.47 3.81 4.78 49.62 5.03 52.25Z"/></clipPath><clipPath id="clippath-31"><path class="cls-4" d="M169.84 168.2s-.01-.04-.03-.06c1.04-2.36 1.86-6.36 1.84-8.13-.01-1.73-.22-2.89-.43-4.55-.14-1.08-1.97-4.38-2.28-4.48-.51-.15-.89.51-.83 1.19.05.64.46 1.88.8 2.95-.01.48.04 2.1-.16 3.31-.23-2.15-.38-3.77-.56-4.51-.22-.89-2-4.85-2.43-5.04-.68-.3-1.34.73-1.22 1.37.19 1.02.7 2.31 1 3.6.13.56.2 4.91.13 4.91-.3-1.77-.57-4.64-.83-5.31-.86-2.2-2.35-4.64-2.72-4.73-.7-.17-1.1.6-1.11 1.3-.01 1.23.97 3.25 1.18 4.08.22.85.52 3.73.6 5.11-.25-.9-.66-3.29-.87-3.82-.46-1.17-2.22-4.41-2.82-4.27-.67.16-1 .87-.99 1.5.03 1.27.99 2.52 1.23 3.8.42 2.15.86 5.7.68 6.36-.77-.41-1.39-1.29-1.81-1.91-1.32-1.95-2.56-2.78-3.56-1.82-.26.25.81 2.68 1.54 4 1.04 1.88 3.28 5.14 5.64 7.06.17.14.36.26.55.37.53 9.44.08 21.26-.12 23.86 1 .31 7.32 1.83 9.73-2.74 1.94-3.68-.86-14.95-2.14-23.39Z"/></clipPath><clipPath id="clippath-1"><path class="cls-2" d="M0 0h430v250H0z"/></clipPath><clipPath id="clippath-2"><path class="cls-4" d="M301.86 281.36c0 1.16-10.26 2.38-10.38 1.23-1.19-11.19-6.38-41.79-7.1-46.22l15.87.81c-.1 11.05 1.66 36.17 1.61 44.18Z"/></clipPath><clipPath id="clippath-3"><path class="cls-4" d="M320.42 280.03c.43 1.07 10.46-1.67 10.15-2.78-2.98-10.85-11.07-39.99-12.02-44.38l-14.26 5.89c4.14 10.24 13.15 33.84 16.13 41.28Z"/></clipPath><clipPath id="clippath-4"><path class="cls-4" d="M243.56 196.34c-.54-.24 1.19-8.83 1.76-8.67 8.42 2.41 28.46 2.9 30.92 3.12-2.71 4.36-5.61 10.02-8.47 10.64-3.61.79-12.8-.08-24.21-5.09Z"/></clipPath><clipPath id="clippath-5"><path class="cls-4" d="m286.96 171.66.94 12.25c.2 2.63 3.7 4.51 7.81 4.2 4.11-.32 7.29-2.71 7.08-5.34l-.94-12.25-14.9 1.14Z"/></clipPath><clipPath id="clippath-6"><path class="cls-4" d="M321.2 133.17c.58 3.07-5.86 32.31-10.83 37.52-4.37 4.58-13.77 9.36-27.57 8.5-10.2-.64-18.66-9.57-19.15-16.98-.41-6.26.82-8.44 1.12-12.67.39-5.71.57-8.34.65-10.98.1-3.35-.59-9.77 1.36-14.03 3.36-7.35 16.65-9.91 30.27-8.79 12.75 1.05 22.06 6.31 24.16 17.43Z"/></clipPath><clipPath id="clippath-7"><path class="cls-4" d="M321.43 157.79c-2.17 4.4-7.21 6.33-10.43 5.11-3.22-1.22.13-15.01 6.37-14.85 5.2.13 6.11 5.6 4.06 9.74Z"/></clipPath><clipPath id="clippath-8"><path class="cls-4" d="M322.47 131.28c-1.77-10.8-9.66-19.97-24.26-22.39-11.36-1.87-23.94 1.71-30.03 8.57 8.09-5.18 19.72-5.2 28.44-4.09 8.86 1.13 20.92 9.57 25.84 17.9Z"/></clipPath><clipPath id="clippath-9"><path class="cls-4" d="M318.94 124.18c-1.72 6.52 9.9 15.96 20.68 7.94-7.68-11.18-13.91-10.74-20.68-7.94Z"/></clipPath><clipPath id="clippath-10"><path class="cls-4" d="M320.86 122.74c-8.2 2.53-17.15-8.95-2.45-18.81 3.25 10.75 6.02 14.11 2.45 18.81Z"/></clipPath><clipPath id="clippath-11"><path class="cls-4" d="M316.62 125.13c.9 1.39 2.83 1.78 4.31.88 1.48-.9 1.95-2.76 1.05-4.15-.9-1.39-2.83-1.78-4.31-.88s-1.95 2.76-1.05 4.15Z"/></clipPath><clipPath id="clippath-12"><path class="cls-2" d="M0 0h430v250H0z"/></clipPath><clipPath id="clippath-13"><path class="cls-4" d="M301.2 177.31c.54-3.57 2.08-10.05 2.19-11.65.11-1.54-.68-4.17-1.87-7.39-.21-.57-1.98-2.59-3.54-4.23-.72-.76-1.9-2.13-2.33-1.75-.42.37-.93 1.37 0 2.39-1.42-1.49-2.82-2.64-3.2-2.35-.85.67-1.06 2.32-.15 3.42-1.12-.97-2.07-1.55-2.57-1.19-.74.53-1.12 1.92-.08 3.28-1.67 1.18-.67 2.6.83 4.92.56.87.22 4.96-.12 6.09-1.62 5.27-1.04 8.26 1.33 10.43.2.19.42.34.66.49 1.31 10.19 5.23 24.02 9.44 26.97 5.39 3.77 13.33.53 13.33.53-1.58-2.97-7.98-13.14-11.78-25.47l-2.13-4.47Z"/></clipPath><clipPath id="clippath-14"><path class="cls-2" d="M0 0h430v250H0z"/></clipPath><clipPath id="clippath"><path class="cls-2" d="M0 0h430v250H0z"/></clipPath><clipPath id="clippath-16"><path class="cls-4" d="M206.39 283.03c-.03.36-11.97-.08-11.98-.53-.14-3.85.03-54.77-.02-57l17.03 5.28c-.47 3.81-4.78 49.62-5.03 52.25Z"/></clipPath><clipPath id="clippath-17"><path class="cls-4" d="m205.38 147.25-.66 13.81c-.14 2.97 3.54 5.55 8.23 5.78 4.69.22 8.6-2.01 8.74-4.98l.66-13.81-16.98-.8Z"/></clipPath><clipPath id="clippath-18"><path class="cls-4" d="M190.95 102.21c-2.05 3.51-4.28 36.12-.96 41.03 3.52 5.21 12.41 11.8 22.76 11.8 9.63 1.29 20.05-2.14 23.69-7.1 4.31-5.88 8.91-34.62 8.09-38.18-2.77-12.02-12.91-13.44-26.22-14.79-12.46-1.26-22.04-1.88-27.36 7.24Z"/></clipPath><clipPath id="clippath-19"><path class="cls-2" d="M0 0h430v250H0z"/></clipPath><clipPath id="clippath-20"><path class="cls-4" d="M138.26 284.67c.02 1.2 10.77 2.4 10.89 1.2 1.16-11.66 6.35-43.57 7.08-48.19l-16.63.96c.2 11.51-1.45 37.68-1.34 46.02Z"/></clipPath><clipPath id="clippath-21"><path class="cls-4" d="M127.64 284.22c-.14 1.19-11.03 1.16-11.02-.04.07-11.72.34-43.23.11-47.89l16.03 2.05c-1.41 11.43-4.12 37.6-5.11 45.89Z"/></clipPath><clipPath id="clippath-22"><path class="cls-4" d="M166.58 182.62c-.84 3.66-2.58 10.96-4.34 14.24-3.01-.34-14.81-2.68-15.36-2.77-6.08-4.58-7.24-16.53-7.46-16.84 5.24-.83 10.4-.48 12.01-.41 4.26 1.68 8.36 3.14 15.14 5.79Z"/></clipPath><clipPath id="clippath-23"><path class="cls-4" d="M100.25 198.58c3.88-7.05 9.21-16.93 12-18.19 1.52-.68 5.98-1.58 12.7-2.49-1.33 3.8-10.27 25.41-11.41 27.54-2.25-.63-10.84-4.18-13.29-6.86Z"/></clipPath><clipPath id="clippath-24"><path class="cls-4" d="M112.29 226.31c14.81 4.25 35.46 1.73 48.09-4.22 0 0-6.67-36.41-8.99-45.36-9.31-.75-28.42 1.03-37.34 3.05-.67 11.62-.16 29.8-1.76 46.53Z"/></clipPath><clipPath id="clippath-25"><path class="cls-4" d="m139.97 166.59.7 12.77c.15 2.75-3.23 5.17-7.54 5.4-4.32.24-7.94-1.8-8.09-4.55l-.7-12.77 15.63-.86Z"/></clipPath><clipPath id="clippath-26"><path class="cls-4" d="M100.22 129.07c-.45 3.22 7.78 33.31 13.25 38.48 4.81 4.54 14.89 9.04 29.29 7.44 10.64-1.18 19.04-10.9 19.17-18.63.11-6.54-1.08-8.77-1.81-13.12-1.03-6.15-1.51-9.01-1.57-11.75-.12-5.49-.39-8.55-2.65-12.89-3.89-7.48-17.08-10.73-31.28-8.88-13.29 1.74-22.77 7.68-24.39 19.35Z"/></clipPath><clipPath id="clippath-27"><path class="cls-4" d="M102.96 160.26c2.56 4.54 8.07 6.31 11.46 4.86 3.39-1.45-.93-15.85-7.61-15.36-5.57.41-6.26 6.23-3.85 10.5Z"/></clipPath><clipPath id="clippath-28"><path class="cls-4" d="M145.64 205.62c-2.38.7-5.82 2.12-12.66 3.89-.78.2-2.91-2.59-2.09-2.68 4.73-.52 13.2-4.37 14.76-1.21Z"/></clipPath><clipPath id="clippath-29"><path class="cls-4" d="M148.11 208.37c-2.38.7-7.75 3.5-14.55 3.35-.84-.02-2.57-2.9-1.76-3 4.73-.52 14.96-2.93 16.31-.36Z"/></clipPath><clipPath id="clippath-30"><path class="cls-4" d="M138.54 209.83c-1.29-.43-2.97-2.01-2.15-3.87 1.34-3.06 1.82-3.3 1.93-4.65.04-.52-.52-2.18-1.31-1.38-3.92 3.99-8.28 4.96-10.12 7.01-9.36-2.15-21.93-5.7-24.35-6.61 0 0-1.84 6.11 1.73 9.94 2.84 3.05 14.89 4.03 23.1 4.54 6.8.14 19.6-1.57 21.98-2.26-.93-2.19-5.03-1.78-10.81-2.73Z"/></clipPath><style>.cls-10,.cls-11,.cls-12,.cls-2,.cls-3,.cls-4,.cls-5,.cls-6,.cls-9{stroke-width:0}.cls-10{fill:#20380e}.cls-2,.cls-4{fill:none}.cls-3{opacity:.1}.cls-4{clip-rule:evenodd}.cls-5,.cls-6{fill:#150028;opacity:.5}.cls-6{fill:#386118}.cls-9{fill:#94b73d}.cls-11{fill:#fff}.cls-12{fill:#e9f0d8}</style></defs><g style="clip-path:url(#clippath)"><path class="cls-3" d="M77.11 206.03c-.41-.14-.84-.3-1.27-.48-.37-.14-.7-.29-1.05-.43.78.3 1.54.6 2.32.91Zm-4.24-43.84s.11-.08.19-.13c-.05.05-.08.1-.13.14h-.06v-.02Zm-14.56 18.04s-.03 0-.05.02c.02 0 .03 0 .05-.02Zm7.05 2.35c-.89 2.93-1.56 5.96-2.08 8.98 0 0 0 .02.02.03 0 0-.03 0-.03.03-.43 2.67-.75 5.41-.73 8.11h-.32c-.4-.03-.72.06-.99.38-1.53 1.05-2.23 3.94-2.11 5.6-.6.62-.64 1.27-.32 1.94-.48-.19-.95-.4-1.41-.67-.45-.25-.81-.68-1.18-1.13-.16-.24-.37-.52-.7-.86-.21-.24-.43-.46-.68-.65-.49-.37-1.62-.56-2.34-.41.06-2.23.14-4.44.29-6.66.45-.62.24-2.75.3-3.47.32-3.99.67-8 .79-12 2.15-.45 4.18-1.19 5.91-2.15.02 0 .06-.03.05-.05-.02-.67-.03-1.34-.06-1.99.11.6.27 1.08.65 1.43.02.06.03.11.03.11.08.05.19.08.29.11.21.13.46.22.78.32 1.14.29 2.35.4 3.59.38.32.97.57 1.61.25 2.62v-.02Zm-24.86-21-.03.17c-.05-.22-.11-.27.03-.17Zm60.46-7.1-.56-2.21c.16-.19.22-.38.17-.54s-.19-.29-.41-.38l-.11-.46-.05-.17c.16-.19.22-.38.17-.54-.05-.16-.19-.29-.41-.38l-.99-3.91c.16-.06.29-.16.43-.25h.03c.21-.16.38-.33.54-.59.24-.4.17-1.3-.11-1.7.08-.05.11-.13.17-.17.11-.1.24-.19.33-.3-.03.02-.06.03-.08.05.64-.76.7-1.8.14-2.77.03-.06.06-.13.1-.19l.02-.02v-.03c.06-.14.11-.27.11-.41v-.06c.05-.68-.24-1.65-1.02-1.8v-.38s0-.03.02-.03c0-.1-.02-.21-.03-.3v-.16c-.13-.79-.52-1.53-1.16-2.07-.33-.29-.87-.52-1.41-.64.25-.56.32-1.14-.06-1.65-.4-.54-.87-.46-1.43-.16l-1.3-5.13s-.81-1.22-1.69-2.4c-.22-.3-.41-.54-.6-.78l-.03-.03s-.05-.05-.06-.08c-.1-.11-.17-.21-.27-.32-.13-.16-.25-.29-.37-.41-.06-.06-.13-.14-.19-.19-.11-.11-.22-.21-.3-.27-.03-.03-.08-.06-.11-.08-.06-.05-.11-.05-.17-.06h-.02s-.08-.03-.1-.02h-.03l-.02.02-.02.02s-.03.03-.05.06v.03s-.03.08-.06.13c0 0 0 .03-.02.05-.02.06-.05.13-.08.21 0 .03-.02.06-.03.1-.03.08-.05.16-.08.27-.02.08-.05.17-.06.25-.02.08-.05.14-.06.24-.05.22-.11.46-.17.75v.06c-.06.27-.13.56-.19.89-.3 1.48-.56 2.96-.57 2.97l1.53 6.03c-.65.67-1.07 1.45-1.29 2.31-.64 1.43-.89 3-.79 4.63-1.8.1-3.55.29-5.06.97-1.03-.73-2.07-1.45-3.12-2.16-.22-.14-.43-.32-.64-.48.1-.37.16-.73.19-1.08 0-.16.03-.35.02-.56-.05-.37.03-.59-.19-.89 0 0-.21-.1-.22-.11-.29-.16-.54-.19-.81-.16h-.11c-1.94-1.14-3.5-2.75-5.21-4.15-.27-.22-.52-.45-.79-.67 0-.43-.02-.83-.05-1.16-.17-.6-.35-1.19-.89-1.54 0 0-.03-.02-.05-.03l-.08-.08h-.03a.892.892 0 0 1-.32-.32c2.85-.99 5.41-2.64 7.28-5.21 2.72-3.15 3.34-7.65 1.48-11.38 4.24-.33 2.31-8.38-1.1-7.09.75-1.49 1.41-3.05 1.56-4.71.17-2.05-.38-4.29-2.02-5.63 1.3.17 2.65-.38 3.56-1.34h.02c.24-.02.19-.38-.05-.35-1.57.1-3.15-.14-4.45-1.08-1.11-.81-2-1.88-2.86-2.94-1.73-2.18-3.55-4.24-5.88-5.8-3.97-2.67-8.84-4.04-13.62-3.78.14-.38.22-.79.17-1.24-.16-1.43-1.41-2.46-2.81-2.32-.6.06-1.13.35-1.53.76.3-1.61 1.21-3.31 3.64-3.96 1.61-.43 2.86-.46 3.75-.06.56.24.95.65 1.14 1.19.22.64.14 1.3-.06 1.69-.06.13-.13.29-.06.43.03.06.11.16.17.19.37.16.94-.52 1.24-.95.46-.64 1.7-2.69.57-4.74 1.45.68 4.05 2.31 4.1 5.01 0 .13.1.24.21.27.13.03.25-.03.3-.14.03-.05 2.61-5.06-3.15-9.14a9.91 9.91 0 0 0-2-1.14c-4.02-1.75-7.28.06-8.23.7-.08-.25-.16-.65 0-1.14.3-1.03 1.43-2.02 3.26-2.86.11-.05.17-.16.16-.29 0-.11-.1-.22-.21-.24-.05 0-4.77-1.07-7.82 2.56-.16-1.24-1-3.55-4.8-4.86-.52-.17-.86-.27-1.05-.03-.17.24 0 .49.32.97.62.89 1.75 2.5.99 4.4-.43-.56-1.37-1.54-3.02-2.26-2.27-.99-6.34-1.61-12.83 1.1-.37.16-.54.22-.54.45 0 .11.06.22.17.27.11.05.22.03.73-.03 1.32-.17 4.37-.56 6.82.51.84.37 1.54.89 2.07 1.54-1.41-.03-5.02.17-7.65 2.65-2.08 1.83-3.04 4.66-2.91 8.36 0 .11.06.19.17.25.16.05.32 0 .38-.14.02-.05.03-.08.02-.13.17-.67 1.54-5.13 6.66-5.79-3.21 2.48-4.01 6.33-2.32 11.41.02.08.08.14.14.17.14.03.3 0 .37-.14.03-.08.03-.16 0-.22-.08-.62-.52-5.44 3.93-6.9-.49.86-1.56 2.81.1 5.6.03.05.08.11.13.11.13.1.32 0 .38-.14.03-.08.03-.17 0-.24-.05-.22-.14-1.03.43-1.88.73-1.1 2.23-1.81 4.48-2.13 1.11-.16 2.05-.06 2.83.27.16.08.32.16.46.25-1.11.38-1.84 1.49-1.72 2.73.02.22.08.41.14.62-1.59.54-3.13 1.29-4.61 2.29-2.29 1.54-4.4 3.37-5.77 5.8-.75 1.34-1.34 3.07-2.43 4.15-1.19 1.19-3.16 1.41-3.83-.43-.03-.11-.14-.13-.22-.1-.11-.02-.24.05-.22.19.08 1.29.86 2.93 2.08 3.12-3.56 5.64-.86 13.32 2.8 18.19 2.1 2.8 4.71 5.42 7.69 7.27 3.48 2.15 7.5 3.2 11.18 4.98.08.05.16 0 .21-.05.46.25.94.46 1.4.7-.11 0-.24.02-.35.03h-.05a.75.75 0 0 0-.41.06c-.27.06-.48.16-.64.27-1.26.52-2.53 1.41-3.62 2.05-2.26 1.3-3.7 3-4.47 5.02 0 .02-.02.05-.03.06 0 .03-.03.06-.03.11 0 .03-.02.05-.03.08-.54 1.57-.7 3.32-.48 5.26.16 1.43.59 2.78 1.16 4.09 0 0-.03 0-.03.03-.46 2.69-.56 5.36-.43 8.08.06 1.27.33 1.3-.81 2.27-.6.52-1.59 1.26-1.89 2.05-.73 1.91.3 3.61 1.8 4.77h-.02c-.91 4.75-1.18 9.71.48 14.34.22.6.49 1.21.83 1.76-.03-.05-.17.06-.35.24a.94.94 0 0 0-.33.46c-.29.49-.41 1.13.22 1.59 1.37 1.02 2.96 1.67 4.66 2.03-.24 4.56-1 9.09-1.16 13.66 0 .38.06.68.16.95v.24c-.1 0-.17 0-.17.06 0 2.1.19 4.21.19 6.31h-.14s.03.03.05.06c-.22 0-.54.05-.91.19.11-.08.21-.14.3-.19-2.75.6-3.31 5.34-2.83 7.6-.65.54-.65 1.1-.21 1.65.05.11.1.24.17.37.22.38 1.21.95 2.65 1.59 1.38.67 2.89 1.18 4.4 1.59 1.78.54 3.75 1.03 5.77 1.4.81.19 1.38.3 1.57.33 3.82.59 8.17.7 11.94-.29.89-.24 2.42-1.29 1.3-2.31 0 0-.03 0-.05-.02-.03-.02-.06-.03-.11-.05 0-.05.02-.14.03-.29.17-.32.25-.67.21-1.1 3.39 1.1 7.22 1.84 10.56 1.02 1.11-.29 4.02-2.23 2.46-3.64a.156.156 0 0 0-.08-.06c.38-.89.24-1.97-.64-3.04-1.34-1.65-4.63-2.15-6.45-2.91a83.28 83.28 0 0 1-4.4-2c-.75-.38-.48-1.02-1.13-1.48-.27-.19-.57-.35-.89-.48.87-2.5 1.64-5.04 2.31-7.58 1.16-4.51 3.8-10.33 1.78-14.93 0 0-.02 0-.03-.02.86-.3 1.69-.62 2.45-.95 1.8-.81 3.39-2.05 3.48-4.15.03-.76-.33-1.07-.76-1.26-.41-.38-.91-.49-1.19-.52a.449.449 0 0 1-.1-.13c-.7-1.72-1.4-3.42-2.1-5.13-.06-.16-.08-.38-.06-.6 0-.05.03-.08.05-.13.03-.08.03-.16.06-.24 0-.08.03-.16.03-.22v-.33c.06-.33.13-.65.13-.91 0-.62-.73-1.21-1.3-1.59.59-.72 1.03-1.54 1.22-2.51.32-1.62-1.21-3.8-2.05-5.07-.05-.08-.1-.19-.13-.3 0-.22.03-.46.02-.68 0-.52-.05-1.02-.08-1.43-.03-.37-.08-.68-.11-.92.02-.57.03-1.1 0-1.45-.1-1.43-.27-2.86-.45-4.28-.03-.19-.06-.38-.08-.59.19.38.54.73 1.02.78h.37c.64.06 1.24-.11 1.83-.41.22.19.45.38.67.57 1.49 1.13 3.07 2.1 4.79 2.83 1.76.62 3.59.75 5.44.67 1.56-.3 3.15-.89 4.61-1.45 1.02-.38 2.02-.81 3-1.24l1.08 4.23c-.16.19-.24.37-.19.54.05.16.17.29.41.38l.16.64c-.14.19-.22.37-.17.52.05.16.19.3.43.4l.65 2.53s.03.14.13.27c.02.03.05.03.06.06.02.03.05.06.11.08.03.02.06.03.11.05.43.11 1.4.02 2.5-.25 1-.25 1.81-.59 2.21-.87 0 0 .13-.05.21-.21.03-.05.05-.1.03-.14.05-.16.05-.35-.06-.67l.03.06ZM388.12 146.16s-.11.03-.16.05c.37.73.6 1.35.72 1.81-.05-.03-.08-.08-.13-.13-.06-.05-.13-.11-.19-.17-.21-.19-.46-.48-.65-1-.06-.19-.14-.37-.22-.56.37-.03.72-.08 1-.14-.13.05-.24.1-.37.13v.02Zm-38.32-1.54c.14.05.35.13.59.17-.08.29-.16.57-.24.84-.24-.24-.48-.49-.72-.81 0-.02-.03-.03-.03-.05l.16-.25c.08.03.16.06.24.1Zm4.1-2.27c.08-.06.16-.13.24-.17.17-.13.35-.25.52-.38-.59 1.76-1.08 3.51-1.48 5.02-.05.17-.08.35-.13.52-.13-.06-.27-.11-.4-.17.38-1.3.87-3.02 1.24-4.82Zm50.29-50.13c-.19-.43-.43-.86-.7-1.3.05.05.11.1.16.14.19.16.48.11.62-.1a.47.47 0 0 0 .08-.38c-.1-.3-.17-.6-.25-.89-.16-.6-.32-1.22-.6-1.83-.49-1.07-1.05-2.1-1.64-3.05-1.18-1.92-2.69-3.45-4.01-4.67-1.57-1.46-3.39-2.59-5.56-3.43-.95-.37-2.02-.64-3.16-.78-.21-.03-.43-.05-.67-.05.54-.4 1.08-.7 1.65-.91.19-.06.27-.29.24-.45a.313.313 0 0 0-.32-.27h-.64c-1.24 0-2.24.14-3.16.43-.67.21-1.3.49-1.83.81-.1-.32-.21-.62-.35-.91-.32-.68-.75-1.29-1.16-1.89-.16-.22-.35-.45-.54-.65-.25-.29-.52-.57-.67-.87-.11-.21-.4-.22-.57-.05-.08.08-.11.17-.11.27.03.91.03 1.81.05 2.7v.72c-.95-.84-2.07-1.67-3.32-2.46-1.83-1.16-3.96-1.84-6.17-2.51-2.31-.7-4.51-1.07-6.41-1.07h-.05c-1.13 0-2.32.02-3.47.13-.92.1-1.88.24-2.58.68-.1.06-.17.17-.17.3s.03.24.13.32c.24.21.49.4.75.56h-.95c-1.59.02-3.15.32-4.91.94-2.8.99-5.58 2.54-8.27 4.63-.16.13-.22.35-.16.54.06.19.24.29.45.24.72-.14 1.41-.21 2.19-.19-1 .38-1.96.84-2.81 1.38-1.02.65-1.91 1.49-2.77 2.31-.83.79-1.62 1.59-2.03 2.61-.05.11-.03.25.03.37.1.14.27.19.43.13l.35-.14c.56-.24 1.05-.46 1.61-.59-1.64.92-3.08 2.24-4.23 3.86-.73 1.05-3.05 4.71-2.29 8.01.03.14.16.24.32.24.14 0 .29-.1.33-.22.27-.76.79-1.43 1.59-1.99a10.37 10.37 0 0 0-.83 3.2c0 .14-.02.29-.03.45-.1 1.16-.21 2.35.32 3.42.05.1.14.16.27.16.14 0 .29-.1.33-.21a7.3 7.3 0 0 1 .76-1.48c-.24 1.05-.27 2.27-.05 3.51.33 1.94 1.32 3.96 2.93 6.01 1.29 1.64 2.75 3.02 4.34 4.09-.06.45-.1.84-.14 1.26 0 .13-.03.29-.05.41-.02.43 0 .81.02 1.19v.35c.03.4.11.76.21 1.11.02.1.03.19.05.27.13.45.29.86.48 1.27 1.88 3.91 6.3 6.09 9.84 7.85 1.3.65 2.7 1.14 4.15 1.56l-.59.95c-2.27.3-6.37 1.43-8.22 3.7-1.07.64-2.1 1.3-3.1 1.97l-.06.05c-.67.46-1.3.99-1.92 1.51l-.13.11c-.16.13-.32.25-.48.38s-.33.25-.49.38a2.02 2.02 0 0 0-.99-.25c-.68 0-1.22.32-1.4.83-.3.91-.08 1.84.38 2.75-1 1.51-1.72 3.18-2.37 4.8-.49 1.24-.95 2.56-.64 4.05.3 1.49 1.61 2.7 2.16 3.16.89.73 2 1.21 3.08 1.67.24.1.48.21.7.3.37.16.7.3 1.05.45.06.37.17.7.33.99.52.84 1.4 1.65 2.16 2.27-.51.48-.95 1.05-1.08 1.72-.11.62.05 1.22.48 1.83.19.27.45.51.72.72-.64.48-1.19 1.03-1.45 1.83-.17.56.13 1 .41 1.32.08.08.16.16.24.25-.08 1.59-.05 3.21 0 4.79.03 1.11.05 2.26.03 3.37v.14c0 .67-.02 1.35 0 2.03v.24c0 .51 0 1.08.24 1.53.45.87 1.37 1.32 2.27 1.69.56.22 1.13.46 1.72.68.37 1.8.6 3.31.75 4.79.22 2.18 1.16 11.56 1.38 13.77.1.99.08 1.89.06 2.78v.13c-.6.13-1.19.43-1.72.92-1 .95-2.26 1.53-3.96 1.84-.75.14-1.56.21-2.45.21-.6 0-1.24-.03-2.02-.08-.32-.03-.67-.06-1.02-.06-.62 0-1.54.06-2.34.65-.89.67-1.43 1.81-1.83 2.86-.16.4-.27.78-.32 1.14-.14.19-.29.41-.38.65 0 .03-.02.08-.03.11-.03.08-.06.17-.1.27-.03.13-.05.27-.05.41 0 .91 1 1.59 1.59 2 1.92 1.34 4.28 2.11 7.17 2.4.59.06 1.19.08 1.86.1.48.03.99.06 1.48.06 1.4 0 2.86-.14 4.34-.43 2.38-.46 4.48-1.43 6.69-2.46l.1-.05c.6-.29 1.37-.67 1.97-1.18.68-.32 1.07-.72 1.14-1.16.08-.46.1-.89.1-1.32v-.75c0-.25 0-.52-.03-.78v-.25c-.03-.46-.05-.94-.05-1.4 0-.73-.03-1.49-.11-2.24-.06-.62-.38-1.37-.95-1.62-.17-.08-.62-.25-1.05-.25-.3 0-.52.1-.68.27v-.05c-.14-1.1-.3-3.83-.41-7.57v-.22c-.03-.87-.05-1.64-.06-2.16 0-.78-.03-1.56-.03-2.35 0-1.4-.03-2.86-.1-4.29 0-.32-.03-.65-.05-.97-.03-.97-.1-1.96-.17-2.94.57-.13 1.14-.27 1.65-.43.76-.24 2.58-.81 2.54-1.96 0-.32-.14-.59-.27-.86l-.03-.05c-.33-.68-.38-1.24-.35-1.94.03-.57.03-1.16 0-1.81.87.05 1.38.29 1.67 1.26.17.6.27 1.26.37 1.89.05.33.1.67.16 1 .05.22.08.46.11.7.06.56.14 1.13.35 1.62.19.45.73.49 1.13.52.1 0 .17 0 .25.02.91.14 1.91.21 3.04.21h.06c.72 0 1.45-.06 2.18-.16.03.11.05.22.08.32.13.45.24.91.37 1.35.17.64.33 1.27.51 1.91.67 2.56 1.21 4.71 1.69 6.92.29 1.27.91 3.88 1.46 6.23 0 .06.03.13.05.19.41 1.76.78 3.29.91 3.86-.17.1-.35.21-.52.33-.46.35-.79.86-.99 1.48-.08.3-.08.6-.08.92 0 .19 0 .38-.02.56-.05.38-.38.75-.67 1.05l-.13.13c-1.57 1.7-3.55 4.12-4.29 6.99h-.02c-.05.17-.06.33-.1.49-.05.19-.08.38-.11.59-.06.45-.1.87-.1 1.32 0 1.43 1.43 2.08 2.8 2.53 1.46.48 2.97.72 4.5.72.35 0 .72 0 1.05-.03 2.27-.17 4.51-.75 6.49-1.64 1.16-.54 1.86-1.57 2.16-3.16.1-.51.16-1 .22-1.49.02-.16.03-.3.03-.46.03-.32.06-.65.06-.95v-.24c.06-2.45-.38-4.67-1.34-6.6-.51-1.02-1.24-1.75-2.16-2.21-.19-.89-.3-1.81-.4-2.72-.06-.52-.13-1.07-.21-1.61-.17-1.16-.32-2.34-.48-3.47 0-.03 0-.08-.02-.11l-.14-1.03c-.14-1.11-.29-2.24-.48-3.35-.37-2.31-.91-4.61-1.41-6.84l-.16-.65c-.13-.56-.24-1.14-.33-1.7-.13-.73-.27-1.46-.46-2.19.6-.33 1.16-.67 1.67-1.03.13-.1.27-.17.41-.27.45-.27.94-.57 1.14-1.05.22-.52.13-1.07.05-1.61-.03-.22-.06-.43-.1-.62l-.03-.46a62.85 62.85 0 0 0-.24-3.08c-.05-.46-.11-.94-.17-1.38-.08-.54-.16-1.1-.19-1.64v-.08c-.05-.54-.1-1.35-.59-1.75-.06-.05-.14-.1-.21-.14.02-.02.03-.05.05-.06.35-.41.76-.87.76-1.48 0-.7-.35-1.14-.87-1.57.1-.22.22-.43.29-.67.06-.22.1-.46.13-.72 1.54-.68 2.35-1.05 2.78-2.59.14-.51.19-.92.17-1.29 1.88-.6 3.86-1.32 5.17-2.11 3.31-2.02 3.04-4.04 1.7-7.87-.65-1.88-1.18-3.07-1.54-3.83l-.06.06c.78-1.08 1.21-2.37.83-3.58-.22-.72-.92-1.16-1.88-1.22-.79-.64-1.51-1.41-2.19-2.19.54-1.13.75-2.1.48-2.91v-.02c-.08-.22-.19-.43-.33-.62-1.03-1.32-2.51-1.65-4.39-1-.86-.72-1.83-1.35-2.93-1.81-.49-.21-1.03-.37-1.59-.49l-.37-3.42c.97-.59 1.92-1.26 2.86-2 .48-.38.92-.76 1.32-1.16.11-.1.19-.21.29-.3.27-.27.56-.56.79-.84.52.03 1 .02 1.48 0 1.38-.13 2.64-.64 3.78-1.16 2.29-1.05 4.2-2.7 5.87-5.02 1.62-2.29 2.51-4.53 2.69-6.87.1-1.11-.02-2.16-.32-3.16.32.35.59.73.81 1.03.14.21.24.41.35.64.1.22.21.45.35.65.06.11.17.16.3.16.17 0 .35-.14.41-.32.65-2.29.62-4.72.59-7.07v-.11c-.02-1.45-.29-2.91-.73-4.17.1.1.19.19.3.29.52.54 1.81 1.97 2.18 3.43.05.16.16.25.32.25.19 0 .4-.16.4-.4 0-2.26-.49-4.53-1.49-6.77l.05-.08Z"/><path class="cls-3" d="M148.37 206.33h-.05.05Zm-12.9 11.63c.45 0 .89.03 1.35.02.54-.02 1-.06 1.43-.11-.91.13-1.84.14-2.77.08l-.02.02Zm-28.09-110.6c-.06.24-.13.46-.17.7.05-.24.11-.48.17-.7Zm2.29-5.31s-.1.14-.14.22c0 .02-.02.03-.03.05.08-.13.16-.24.24-.37-.02.03-.05.06-.06.1Zm-1.76 3.59c-.13.33-.24.7-.33 1.05.03-.1.05-.21.08-.3.08-.25.16-.51.25-.75Zm35.42 31.76c-.1-.05-.17-.11-.29-.16h.21c.02.06.05.11.06.17l.02-.02Zm-1.61 64.61c.27 1.41.48 2.89.81 4.29-.1.35-.64.68-.83 1-.52.83-.76 1.8-.84 2.78-.05.51-.08 1.02-.08 1.53-1.26-1.07-2.97-1.65-4.44-2.23-1.02-.4-2.07-.79-2.99-1.38-.41-.25-.48-.25-.51-.67-.08-.86-.72-1.38-1.46-1.62.11-3.2.33-6.39.84-9.55.62-3.93 1.3-7.77 1.51-11.73 2.24.35 4.51.49 6.76.37.7 2.21.29 4.69.3 6.96.03 3.47.29 6.87.92 10.27v-.02Zm29.95-45.05c-.84-.78-1.86-1.43-2.97-1.75-.14-.32-.29-.64-.46-.97.14-.48.13-.94-.25-1.3-.19-.17-.45-.27-.73-.32-1.65-2.45-4.01-4.82-7.03-7.07-2.83-1.96-7.06-4.64-11.89-6.14-.13-.29-.19-.49-.22-.54.3-.38.75-1 .06-2.34 5.83-1.27 12.32-4.29 15.6-10.17 2.96-5.33.86-10.37.86-10.37h.17c.06 0 .14-.03.24-.06.03 0 .06-.03.11-.05.11-.05.22-.11.33-.19.03-.02.06-.03.1-.06.14-.11.29-.25.41-.45 0 0 .02 0 .03-.03.32-.48.56-1.19.54-2.35-.05-1.81-1.19-2.65-2.18-3.05h.02c-.08-.03-.16-.05-.22-.08-.06-.02-.13-.05-.19-.06-.14-.05-.25-.08-.38-.1-.05 0-.11-.03-.16-.03-.11-.02-.21-.03-.29-.05h-.21s2.46-1.22 2.62-5.64c.02-.49 0-.95-.05-1.38 0-.1-.02-.21-.03-.3-.05-.41-.13-.81-.22-1.19 0-.05-.03-.08-.03-.11-.1-.33-.21-.65-.33-.95-.03-.08-.06-.16-.1-.22-.14-.32-.3-.6-.46-.89v-.02.02c-1.22-1.99-2.88-2.81-2.88-2.81s1.48-.14 3.1 1.13c0 0-.62-5.69-8.01-4.91 0 0 3.39-.6 1.8-4.07 0 0 .45 2.93-5.56 1.46-6.01-1.48-13.35-4.17-21.1-3-7.74 1.16-10.43 6.39-10.43 6.39s.05-1.56.06-3.08c0-1.53-2.42 1.18-1.86 3.96 0 0-2.83-1.05-5.17 1.83-.19.22 1.65.51 2.5.52-1.08.4-3.21 1.43-5.26 3.61v-.02s-.03.05-.06.06c-.3.33-.6.68-.91 1.07-.05.06-.1.13-.14.19-.06.08-.11.14-.17.22.4-.56.81-1.07 1.22-1.53-.35-.14-.86-.27-1.4-.27h.08c.24-1.03.57-3.32-.56-5.31-1.51-2.67-5.85-1.73-7.06-3.4-.6-.84-.45-1.84-.35-2.27.06-.29-.57-.05-1.05.62-.24.3-.45.72-.52 1.24-.14-.65-.78-2.64-3.26-3.05-2.96-.49-4.74 1.1-6.37.35-2.43-1.11-1.26-3.4-1.26-3.4s-.97.17-1.54.99c-.29.33-.48.81-.48 1.45-.41-1.21-1.91-3.67-7.01-3.34 0 0 .06.05.14.13h-.25s1.32.86.46 3.02c-.73 1.86-1.22 5.44 2.72 5.85 2.15.22 2.72 1.34 2.85 1.8-.3-.13-1.03-.29-1.56.43-.11.11-.21.25-.29.45 0 0 1.24-.51 1.53.97.3 1.56-1.57 2.77-1.14 5.45.91 5.58 6.8 7.55 11.32 6.12 0 0-1.21 2.5 1.88 3.08 0 0-.05-.08-.13-.19.08.02.14.03.22.05 0 0-.54-.72-.22-1.26.06-.06.14-.13.24-.19 1.1-.59 2.93 1.57 5.8 1.21 1.11-.14 1.94-.48 2.59-.89 0-.03.02-.06.02-.1.02 0 .05-.03.08-.05.02-.13.06-.25.08-.38-.13.67-.22 1.35-.3 2.03v-.17c-.02.16-.03.32-.03.48 0 .14-.03.3-.03.45-.03.38-.03.76-.05 1.14v.27c0 .48.02.94.05 1.41 0 .13.02.25.03.37.03.35.06.72.13 1.07.02.16.05.32.08.48.06.35.13.68.21 1.03.03.14.06.29.1.43.11.48.24.95.4 1.43 0 .03.03.08.05.11.14.43.3.87.49 1.3l.19.43c.14.33.3.65.48.99.08.16.16.3.24.46.19.35.41.7.64 1.05.06.1.13.21.19.3.3.45.62.87.95 1.3.08.11.17.21.27.32.27.32.56.64.84.94.13.14.27.27.4.41.29.29.59.56.91.84.14.13.27.24.41.37.46.38.94.75 1.45 1.11 6.95 4.82 14.04 4.56 14.04 4.56s2.75 1.83 6.8 2.91c0 .08-.02.17-.03.25-1.16.1-3.85.59-3.56 2.16-3.39.27-6.18 3.56-7.66 6.34-1.26 2.35-2.15 4.9-2.8 7.47-.52 2.11-1.11 4.48-.97 6.69.1 1.45.7 2.88 1.84 3.77 0 .02 0 .05-.02.06v.05c.11.13.22.24.35.35-.03.16-.05.3-.08.46a40.43 40.43 0 0 0-.3 3.13c-.03.52.02 1.13.03 1.73 0 .13-.02.24-.03.37v.41c-.03.33-.08.65-.19.92-.43 1.13-.87 2.26-1.32 3.37-.68 1.69-1.35 3.35-2.05 5.04 0 .03.03.06.05.06 2.27 1.45 4.75 2.5 7.31 3.37.05 2.38-.45 4.74-.84 7.07-.51 2.96-.67 5.98-.84 8.98-.08 1.38-.14 2.77-.24 4.17-.06.79-.29 1.69-.3 2.46-.97-.03-1.96.43-2.11 1.49-.14.94-.16 1.89-.25 2.83-.06.6-.32 1.3-.33 1.92-.16.62-.48 1.48.03 2.02.81.84 2.08 1.29 3.13 1.76 2.77 1.26 5.66 2.31 8.68 2.65 2.23.27 5.31.56 7.39-.6.4-.22 1.03-.72.81-1.27h-.03c.13-.14.22-.3.3-.48.52.3 1.11.52 1.67.7 2.27.72 4.67 1.02 7.06 1.16 2.46.14 5.09.25 7.52-.33.86-.21 2.56-.62 2.46-1.81 0-.03-.02-.06-.05-.08.1-.16.11-.35.1-.67-.05-1.67-.86-3.07-2.08-4.17-1.38-1.08-2.8-1.19-4.48-1.3-1.14-.06-2.7-.22-3.53-1.13-.35-.37-.56-.87-.94-1.21-.49-.41-1.05-.56-1.57-.51.02-3.29.03-6.58 0-9.86 0-2.18-.06-4.36-.1-6.53-.02-1.49 0-3 0-4.5 0-.68.05-1.4-.08-2.1.25-.1.51-.17.76-.27 1.78-.72 3.96-1.67 5.1-3.31.11-.16.17-.3.24-.46.11-.19.14-.37.08-.68-.05-.78-.54-1.57-.87-2.37-.52-1.22-1.03-2.43-1.46-3.69-.08-.24-.29-.65-.27-.91.08-1.8.1-3.61.05-5.42 1.49.99 3.12 1.73 4.79 2.16 2.77.72 5.52.59 8.19-.38.97-.35 1.83-.86 2.56-1.46.1.13.19.25.32.37.4.33 1 .4 1.48.24.21-.06.45-.4.56-.43.22-.05.45-.11.67-.19.49-.19 1.07-.62 1.14-1.18.08-.52 0-.37.35-.72.24-.22.46-.49.57-.81.14-.43.19-.91 0-1.34-.16-.4-.16-.25.06-.51 1.4-1.62.78-3.47-.6-4.88l.08-.17Z"/><path class="cls-3" d="M223.42 134.05c-.35-.17-.86-.32-1.53-.41-.11-.24-.29-.54-.56-.84-.3-.33-.76-.7-1.45-.97 1.19-.38 2.37-.87 3.48-1.46.35 1.29 1.94 3.5 4.09 3.89.22 1 1 2 1.86 2.73-.76.05-1.48.17-2.11.41-.08.03-.16.06-.22.1-.29.13-.54.25-.73.41-.6-1.53-1.4-3.13-2.83-3.88v.02Zm-33.86 14.96s-.13 0-.19-.02c-.48-.05-.94-.14-1.35-.22.17-.46.32-.86.49-1.26.08-.17.17-.33.25-.49.24.14.51.25.79.25.06 0 .11-.03.17-.05-.06.59-.11 1.18-.16 1.8l-.02-.02Zm26.64-15.47c0-.08.02-.17.03-.25.21-.05.43-.08.72-.08h.29c.13.08.24.17.33.27-.43 0-.89.03-1.35.05l-.02.02Zm-6.92.21c1.26-.35 2.13-.75 2.56-.95h.75c-.52.37-.91.73-1.21 1.1-.29.03-.59.06-.87.08-.43-.1-.84-.17-1.24-.22h.02Zm29.7 14.1c.25 0 .46-.19.6-.54.89-2.21.03-4.37-.49-5.66-.14-.35-.3-.78-.32-.92.41 0 .79.19 1.03.3.17.08.29.13.38.13.08 0 .17-.06.22-.13.08-.14 0-.32-.19-.64-.91-1.49-2.24-2.32-3.59-2.77.03-.05.06-.08.1-.13.08-.21.06-.45-.03-.7-.13-.32-.37-.67-.75-1.05a.5.5 0 0 1-.11-.17c-.08-.22-.05-.52 0-.79.03-.27.06-.51 0-.7a.48.48 0 0 0-.51-.3c-.16 0-.38.06-.65.16-.1.05-.21.08-.33.14-.62.29-1.14.65-1.57 1.02.14-.68.22-1.43.16-2.21-.13-1.54-1.61-1.88-2.43-1.96-.16-2.08-1.1-4.45-1.32-5.01.78-.87 1.48-1.8 2.05-2.8 4.17-7.3 4.99-15.02 2.27-21.19-.83-1.88-3.35-6.33-4.67-7.96.21-.14.81-.4 1.34-.57.06-.02.11-.06.14-.13s0-.13 0-.19c-.02-.03-.51-.83-2.18-1.27a7.64 7.64 0 0 0-1.53-.25c.33-2.1-.94-3.66-.99-3.74-.05-.06-.13-.1-.19-.08-.08 0-.14.06-.17.14l-.57 1.4c-1.73-2.8-5.23-5.02-9.94-6.26-3.58-.94-7.68-1.27-11.86-.92-3.72.3-6.76.16-9.01-.45-2.34-.62-2.97-1.51-2.97-1.51a.213.213 0 0 0-.24-.08c-.08.03-.14.11-.16.19 0 .1-.06 1.94 1.11 3.05-3.55.06-11.18 2.64-13.12 9.67-.86 3.13-.08 6.37 2.27 9.4 1.53 1.96 3.21 3.21 3.7 3.53-.05.11-.14.32-.32.72-.24-.14-.52-.29-.86-.38-.84-.22-2.11-.17-3.4 1.3-.81.94-1.08 2.08-.73 3.2.29.92.97 1.75 1.8 2.24-1.4 3.96-.57 8.06 2.15 11.7-.76.75-1.75 2.1-2.11 4.1-.84-.08-2.11.03-2.54 1.35-.3.87-.29 1.78-.22 2.61-.33-.62-.72-1.18-1.16-1.61-.06-.06-.13-.11-.19-.17-.38-.35-.65-.52-.86-.56-.19-.03-.33.03-.4.11-.14.16-.19.4-.22.68-.05.29-.1.6-.25.76-.02.03-.05.05-.08.06-.3.17-.54.37-.73.56-.25.25-.4.52-.38.78 0 .14.06.29.16.41-1.51.06-3.13.54-4.47 1.86-.27.27-.38.41-.33.59a.3.3 0 0 0 .21.17c.1.02.21 0 .38-.03.27-.05.67-.13 1.03-.05h.05c-.05.16-.3.52-.52.83-.81 1.13-2.16 3.04-1.83 5.37.06.4.22.62.49.68.29.06.6-.1.95-.29.45-.22.95-.46 1.34-.3.24.11.56.19.92.27.92.17 2.19.21 3.07.05-.03.05-.05.1-.03.14 0 .1.1.17.19.19.21.03 1.91-.27 3.16-1.62.51-.56 1-1.37 1.24-2.51.02.03.03.06.05.08.08.13.16.22.24.3.17.16.35.27.52.3.19.03.49 0 .81-.3.24-.24.45-.62.65-1.11.03-.06.06-.11.11-.17.17-.17.46-.25.72-.35.25-.08.49-.16.64-.3.1-.08.13-.19.13-.32 0-.22-.14-.46-.49-.79-.08-.06-.16-.16-.25-.24-.64-.57-1.37-.94-1.99-1.21 1-.54 2.02-1.41 2.43-2.46 2.29.1 4.44-1.8 4.99-2.94.64.43 1.29.83 2 1.22 1.88 1.03 3.77 1.84 5.66 2.45-.02.02-.05.03-.06.05-.16.16-.25.35-.32.54-.68-.19-1.41-.29-2.15-.29-1.64 0-3.2.48-4.39 1.34-1.02.75-1.89 1.75-2.69 2.7-.13.14-.27.32-.41.48-.48.54-1 1.14-1.35 1.8-.67-.08-1.26.13-1.62.56-.25.3-.35.65-.27 1.02.1.43.4.83.78 1.16-.03.05-.08.1-.1.14-.64.95-1.18 2-1.69 3l-.14.3c-.54 1.05-1.11 2.15-1.22 3.37-.08.83.25 1.7 1 2.62 1.35 1.69 3.67 2.23 5.77 2.54.72.11 1.49.16 2.29.17 0 .13-.03.27-.05.4-.02.21-.05.41-.06.62-.06.57-.13 1.18-.17 1.76 0 .13-.02.27-.03.4-.02.17-.03.35-.05.52-.1.1-.22.16-.37.21-.52.17-.92.52-1.11 1-.24.6-.16 1.38.21 2.07.21.38.49.7.84.97v.02c-.16.27-.32.48-.48.68-.56.4-1.08.86-1.57 1.32-.89.65-1.72 1.35-2.53 2.1a35.915 35.915 0 0 0-5.77 6.8l-.11.16c-.59.89-1.1 1.65-.51 2.78.65 1.27 1.61 2.34 2.67 3 1.1.68 2.4 1.03 3.78 1.03.49 0 1-.05 1.49-.14l.29.27c.38.37.76.73 1.18 1.08.94.79 2.11 1.51 3.5 2.16-.13.76-.21 1.57-.27 2.51-.14 2.53 0 5.13.41 7.76.11.7.51 2.08 1.05 3.7.27.81.57 1.67.89 2.56 0 .05.03.08.05.13.08.24.17.48.25.7.51 1.38 1.03 2.77 1.51 3.94-.05-.02-.08-.05-.14-.05-.24 0-.49.16-.84.51-.08.08-.17.14-.27.22-1.34.29-2.35 1.13-2.73 1.62-.06.08-.1.16-.14.22-.52.24-1.07.45-1.56.62-.29.11-.6.19-.89.29-1.1.33-2.23.67-3.02 1.64-.68.81-1.03 1.83-1.29 2.86 0 .03 0 .05-.02.08l-.24 1.05c-.27 1.27 1.73 2 2.61 2.27.81.24 2.46.49 4.67.49s5.39-.24 9.17-1.38c1.3-.4 2.48-1.1 3.48-1.73 1.05-.67 1.13-1.54 1.13-2.64 0-.22 0-.45-.03-.65-.08-1.14-.35-2.27-.6-3.35l-.05-.21c-.05-.21-.08-.4-.13-.6-.1-.46-.19-.95-.38-1.4-.19-.45-.64-.72-1.03-.95-.11-.08-.24-.14-.33-.21-.11-.08-.24-.05-.33.03-.05-.13-.1-.25-.14-.38-.1-.27-.19-.56-.29-.83-.22-.64-.43-1.29-.64-1.92-.08-.25-.16-.51-.24-.78-.57-1.88-1.08-3.78-1.4-5.74-.41-2.46-.57-4.91-.45-7.28 0-.27.05-.54.08-.81.87.1 1.76.16 2.67.16 1.08 0 2.19-.08 3.35-.21.02.75.08 1.49.24 2.21.48 2.32 1.72 4.39 2.83 6.22.84 1.4 1.84 2.78 2.89 4.13v.05c.33.43.65.81.97 1.19.7.83 1.45 1.65 2.21 2.43.06.06.19.19.33.37.05.06.1.1.14.16-.06.13-.1.25-.14.4-.08.17-.14.35-.19.54-.16.06-.29.17-.38.33-.27.48-.25.95-.19 1.43.11 1 .1 1.75-.32 2.83-.54 1.45-1.29 2.83-1.96 4.04-.16.29-.32.65-.45 1.02-.06.19-.13.38-.17.56l-.05.24c-.05.24-.08.46-.1.68v.24c0 .32.02.64.08.94.22.99 1.45 1.41 2.15 1.61.73.17 1.49.27 2.26.27 1.19 0 2.4-.21 3.59-.64 1.94-.68 3.47-1.43 4.67-2.26.6-.41 1.48-1.11 2.16-2 .05-.06.08-.13.13-.19 0-.02.02-.03.03-.06.14-.22.3-.45.41-.67.14-.27.27-.54.35-.83.1-.3.14-.62.17-.94v-.95c0-.14-.03-.3-.05-.45-.02-.16-.05-.32-.06-.49-.03-.19-.06-.38-.11-.57v-.03c-.05-.22-.1-.43-.14-.65-.32-1.46-.79-2.64-1.54-3.8-.19-.3-.38-.6-.57-.91-.57-.92-1.16-1.88-1.84-2.77-.68-.89-1.35-.91-2.19-.92-.17 0-.37 0-.59-.03-.05 0-.1.02-.13.05-.25-.37-.52-.73-.78-1.11-.02-.03-.03-.06-.06-.1-.37-.54-.73-1.11-1.11-1.7-.59-.94-1.19-1.91-1.78-2.94-1.24-2.13-2.29-4.09-2.62-6.26-.14-.94-.13-1.86-.02-2.75 2.72-1.22 5.23-2.97 7.2-5.07.67-.72 1.19-1.51 1.56-2.35.45-1.03.32-1.97 0-3.05-.6-1.94-1.19-3.61-1.83-5.13.7-.17 1.41-.37 2.18-.57.43-.13.83-.22 1.24-.33-.19.72-.14 1.3.16 1.78.22.35.52.52.91.52.67 0 1.45-.59 2.05-1.18.17-.14.33-.29.46-.45-.06.51-.06 1.08.19 1.48.25.4.56.49.78.49.6 0 1.14-.67 1.35-.95.33-.48.6-1.07.83-1.67.11-.22.21-.45.29-.68v.08c.02.43.05.87.14 1.3v.08c.11.43.27 1.22.84 1.34.52.11 1.05-.17 1.32-.68.22-.43.4-.91.51-1.4.05.03.1.08.14.11.19.13.38.17.56.17.24 0 .45-.1.64-.29.45-.46.62-1.3.6-1.73-.06-1.48-.56-2.99-1.48-4.53-.46-.75-.87-1.29-1.41-1.8-.24-.22-.67-.41-1.03-.57-.14-.05-.27-.11-.37-.16.46-4.9-1.21-8.58-2.85-10.94.05-.1.1-.21.1-.32v-.4h-.02v-.08c.76-.25 1.37-.59 1.45-.81.14-.43-1.05-4.4-1.83-6.09-.17-.37-.33-.81-.51-1.27.21.14.41.29.48.48 0 .03.02.06.03.11.05.35.11.65.21.89.24.62.6.75.87.73.1 0 .21-.02.32-.06.13-.05.27-.14.41-.24.14-.11.32-.27.49-.45-.29 1.67.1 2.91.6 3.74.89 1.46 2.37 2.18 2.61 2.16.1 0 .17-.06.21-.14.02-.05 0-.1 0-.14.92.43 2.45.73 3.43.7.19 0 .35-.02.51-.05.43-.08.86.29 1.22.6.32.27.6.51.91.51l-.19.02ZM303.65 144.33c-.1.05-.17.1-.27.16-1.7-.03-3.47-.21-4.94-1.19.03-.38 0-.76-.13-1.14l8.28.68c-.19.08-.4.16-.59.24-.3.13-.6.29-.91.45-.51.22-.99.49-1.45.81Zm35.06-5.55s-.03-.05-.03-.08c-.1-.21-.24-.41-.41-.6l-.06-.06c-.17-.19-.38-.37-.62-.54-.03-.02-.05-.03-.08-.06-.24-.16-.49-.32-.76-.46-.03 0-.06-.03-.1-.05-.27-.14-.56-.27-.86-.38-.03 0-.06-.02-.1-.03-.3-.11-.6-.21-.91-.29-.03 0-.05 0-.08-.02-.3-.08-.6-.14-.89-.19h-.05c-.3-.05-.57-.08-.84-.1h-.06c1.97-.4 3.56-.72 3.56-.72v-3.69l-6.98-1.4c4.55-.95 10.3-1.41 12.4 1.72 0 0 0-.13-.03-.35-.02-.14-.05-.33-.1-.56 0-.05-.02-.08-.03-.14-.05-.22-.11-.48-.21-.73 0-.03 0-.06-.03-.1a.902.902 0 0 1-.06-.22c-.49-1.35-1.49-2.94-3.55-3.32-.24-.05-.49-.1-.76-.17-2.02-.51-5.06-1.57-8.09-2.5h-.03c-.59-.17-1.16-.35-1.75-.51h-.05a2.26 2.26 0 0 1-.37-.11c-.11-.03-.22-.06-.33-.1-.06-.02-.11-.03-.17-.05-.38-.1-.75-.19-1.11-.29-.1-.02-.21-.05-.3-.08-.92-.21-1.78-.37-2.58-.46-.1 0-.17 0-.27-.03a8.21 8.21 0 0 0-.84-.05h-.56c-2.32.13-5.18.62-7.52 1.32-.08.03-.16.05-.24.08-.11.03-.21.06-.32.1-.14.05-.29.1-.43.14-.11.03-.22.08-.33.11-.13.05-.27.1-.4.14-.1.03-.21.08-.3.11-.13.05-.25.11-.38.16-.08.03-.17.08-.25.11-.13.06-.24.13-.37.17-.06.03-.13.06-.19.1-.13.06-.22.14-.33.21-.05.03-.1.06-.14.08-.11.08-.21.16-.3.24-.03.02-.06.05-.08.06-.11.1-.21.21-.27.3l-4.8-1.22-.41-.11h-.05s-.05-.02-.13-.03h-.03c-.1-.02-.21-.03-.38-.06h-.05c-.08 0-.16-.02-.25-.03h-.13c-.19 0-.41-.02-.65-.03h-1.26c-.3.03-.64.06-.97.13-.1 0-.17.02-.27.03h-.06c-.08 0-.16.03-.24.06-.3.06-.62.14-.95.24-.11.03-.24.08-.35.11-.19.06-.37.11-.56.17-.19.08-.4.16-.59.24-.32.14-.64.3-.92.48h-.02c-.35.21-.68.43-.99.68-.02 0-.03.03-.06.03-.05.03-.08.08-.13.11-.35.29-.67.57-.97.87-.03.03-.08.06-.11.1l-.19.19a14.8 14.8 0 0 0-1.92 2.59c-.29.48-.43.79-.43.79h.64l-.05.89s.1 0 .27.03c-.45.78-.7 1.84 0 3.02h-.21v.3l.13.05c.02 0 .06.03.08.03.06.03.14.06.24.11.05.03.11.06.16.1.1.05.19.1.29.16.06.05.13.1.21.14.1.06.19.14.29.22l.11.11s-.03 0-.03.03c0 .05.03.1.08.1h.08s.05.05.06.08c.03.03.05.06.06.1.11.14.22.3.29.48v.02c.08.17.11.37.13.57v.11c0 .22 0 .48-.1.73-.08.27-.17.51-.29.72-.02.05-.05.08-.08.13-.05-.03-.11-.06-.17-.11-.79-.54-1.48-1.26-2.15-1.96l-.35-.37c-1.22-1.27-2.38-2.48-4.18-3.02-.79-.24-1.65-.48-2.59-.67-.22-.05-.46-.08-.72-.08l-.05-.11c-.11-.3-.22-.65-.4-.89-.06-.08-.16-.14-.24-.21 1.4-.32 2.75-.7 3.96-1.18 2.78-1.1 5.37-2.89 8.39-5.83h.11c1.65 0 3.64-2.37 3.99-2.8h.41c1.22-.06 4.01-.7 4.32-4.94.16.25.38.62.59.97.02.03.06.06.1.08h.03s.06 0 .08-.03c.08-.05 1.72-1.22 1.65-4.55.99 1.62 1.07 2.46 1.07 2.46 0 .06.05.11.11.14.06 0 .13 0 .16-.06 0 0 1.02-1.35 1.72-3.12.84-2.08.91-3.91.21-5.33.91.64 1.07 1.49 1.07 1.53 0 .06.06.13.14.13.06 0 .13-.03.16-.1.02-.06 1.99-5.98-2.31-10.32 1.89.33 2.19.56 2.23.59.03.06.1.11.16.1.06 0 .13-.06.13-.14v-.06c-.21-.6-4.99-14.71-16.36-16.2.97-.87 1.65-1.51 1.65-1.51.03-.03.05-.06.05-.11s0-.08-.05-.11c0-.02-.45-.46-1.57-.46-.92 0-2.05.29-3.35.87.79-1.14 1.34-1.78 1.61-2.1.25-.29.32-.37.25-.49-.03-.08-.1-.11-.21-.11h-.17c-.68.06-3.27 1-4.26 2.7-.13.24-.21.29-.21.3-.08-.08-.17-.51-.24-.83-.19-.94-.49-2.37-1.59-2.54-.06 0-.14.03-.16.11-.13.49.27 1.76.54 2.54-1.18-1.07-4.36-3.59-8.31-3.59-.76 0-1.56.1-2.31.29-.06.02-.11.08-.11.14s.03.13.1.14c.97.33 1.48.62 1.72.81-.87-.14-2.96-.45-5.41-.45-2.96 0-7.06.45-9.87 2.58-.05.05-.08.13-.05.19s.1.1.16.08c1.26-.24 2.15-.38 2.77-.46-1.56.54-4.23 1.67-5.77 3.59-.05.05-.05.13 0 .17.05.05.11.08.17.05.72-.24 1.27-.38 1.69-.48-2.37 1.14-7.89 4.58-7.6 11.54 0 .21 0 .68.33.68.27 0 .56-.38 1.08-1.13.29-.41.64-.89.97-1.26-1.13 2.96-1.38 5.69-.76 7.69-.4-.21-.86-.35-1.41-.35-.59 0-1.22.16-1.89.45-1.57.72-2.37 2.15-2.15 3.85.11.87.49 1.69 1 2.26-1.02 1.41-1.59 3.18-1.65 5.21-.05 1.24.08 2.61.37 3.97.52 2.56 1.96 5.15 3.83 6.95 5.09 4.83 11.33 7.76 17.6 8.22.67.05 1.37.06 2.05.08-.48.11-.83.68-.95.87-.03.06-.06.11-.1.16-.29-.08-.64-.13-1.02-.13-.32 0-.67.03-.99.1-1.35.25-2.56 1.19-3.35 1.89-.7.62-1.32 1.34-1.91 2.02-.21.25-.43.51-.65.75-.54.62-1.07 1.11-1.59 1.53l-.03.03c-.3.24-.72.54-1.07.41h-.06c-.22-.1-.54-.19-.78-.14-.86.17-1.37.94-1.37 2.02 0 .4.11.79.25 1.18-.24.17-.48.37-.73.54-.4.27-.79.54-1.19.79l-.13.08s-.05-.03-.08-.06c-.45-.35-.84-.78-1.19-1.18.33-1.27-.1-2.7-.3-3.27-.16-.41-.33-.81-.52-1.21-.21-.45-.41-.92-.59-1.4-.14-.41-.25-.86-.37-1.45 0-.05 0-.11-.02-.16-.03-.24-.05-.52-.22-.68-.3-.27-.68-.27-1.11-.08-.33.08-.6.27-.81.52-.32-.37-.73-.68-1.19-.92s-1.13-.37-1.8-.37c-.43 0-.83.06-1.13.17-.92.35-1.32 1.02-1.22 2.13-.65-.05-1.14 0-1.56.17-.79.3-.97 1.32-1.02 1.75-.03.29 0 .59.08.89-.67.25-1.05.97-.94 1.8.02.14.05.29.1.45-.05 0-.11 0-.16.02-.22.06-.38.17-.46.37-.19.41.08 1 .21 1.24 0 .02.03.05.05.08.19.4.45.76.7 1.11.29.37.7.67 1.14.84 0 0 .03.02.05.03.08.03.16.03.24.05.03 0 .06.02.1.02.11.02.22.03.35.02.08 0 .17-.03.25-.05.06-.02.13 0 .19-.03.32 1.16 1.21 2.42 2.59 2.72.76.17 1.81-.08 2.61-.6.99 1.61 2.05 3.02 3.27 4.31.92.99 1.94 1.49 3 1.49.51 0 1.02-.11 1.54-.35.83-.37 1.54-.95 2.18-1.46.46-.37.95-.75 1.51-1.14-.14.52-.25 1.02-.37 1.45-.7 2.97-1.07 5.99-1.11 9.25v.21c0 .08-.02.14-.02.21 0 .27 0 .54-.06.83-.03.22-.24.35-.46.49-.08.06-.19.13-.27.19-.32.27-.46.76-.38 1.32.08.52.43 1 .86 1.43-.45.38-.76.86-.87 1.38-.13.62.24 1.29 1 1.81-.03.22-.05.43-.05.65-.02.6-.05 1.24-.02 1.86.03 1.1.24 2.26.64 3.5.51 1.64 1.21 3.13 1.99 4.31-.24.51-.27.99-.1 1.46.14.41.46.72.89.92-1.59 2.11-2.99 4.67-4.34 8.06-.25.62-.48 1.26-.7 1.89-.02.06-.05.14-.06.22-.27.79-.51 1.61-.73 2.42-.08.3-.16.59-.25.89-.22.79-.43 1.59-.64 2.37-.57 2.19-1.16 4.45-1.94 6.61-1.07.22-1.89 1.03-2.32 1.56-.27.13-.49.21-.73.25-.24.05-.51.08-.79.08-.81 0-1.65-.22-2.37-.45-1.54-.46-2.96-1.03-4.45-1.65-.37-.14-.72-.29-1.08-.43-1.81-.73-3.37-.65-4.61.24-.67.48-1.14 1.21-1.59 1.91l-.08.13c-.08.13-.17.27-.25.43-.06.13-.14.27-.21.41 0 .03-.02.06-.03.08-.05.13-.08.25-.1.38 0 .03 0 .06-.02.1 0 .16 0 .32.05.46.22.64.72 1.1 1.19 1.53l.08.08c.68.64 1.43 1.21 2.21 1.7l.35.22c1.56.97 3.16 1.99 4.85 2.83 1.86.94 3.66 1.64 5.45 2.11.14.03.41.13.75.24 1.56.52 4.8 1.59 7.41 1.59.67 0 1.27-.08 1.76-.22.25-.08.46-.19.67-.32.03-.02.05-.05.08-.06.17-.13.35-.29.49-.46 0-.02.03-.03.05-.05v-.02c.78-.97 1.13-2.45 1.4-3.62.06-.24.11-.46.16-.65l.08-.32c.22-.91.52-2.02.33-2.94-.1-.45-.3-.72-.6-1.05-.11-.11-.21-.24-.3-.37-.16-.21-.33-.41-.54-.59-.06-.06-.16-.08-.25-.11.06-.41.11-.81.16-1.22.03-.25.06-.51.08-.76.19-1.57.76-3.13 1.3-4.66l.06-.19c.24-.65.46-1.27.68-1.84 0-.03.02-.05.03-.08.22-.56.43-1.07.64-1.57.11-.27.24-.54.35-.79 1.19-2.67 2.83-5.23 5.02-7.84l.14-.14c.68 1.18 1.3 2.11 2 2.93 1.49 1.78 3.86 3.93 6.66 3.97h.08c1.1 0 2.13-.45 3.12-.86.19-.08.4-.16.59-.24 1.18-.48 2.43-1.05 3.89-1.76l.48-.24c.79-.4 1.62-.81 2.43-1.22-.25.37-.35.78-.27 1.19.1.54.51 1.1 1.05 1.45.06.11.11.22.14.32.27.72.37 1.53.45 2.31.02.17.05.35.06.52.14 1.11.33 2.31.79 3.48.49 1.24 1.64 3.31 3.75 3.31.24 0 .49-.03.75-.08 1.48-.33 1.91-1.05 2.18-2.24.4-1.73.54-3.59.48-5.66-.06-1.88-.33-3.94-.81-6.5-.05-.22-.1-.43-.14-.64a20.154 20.154 0 0 0-.67-2.44c-.21-.57-.46-1.16-.73-1.75-.38-.81-.87-1.53-1.49-2.11l-.03-.03c-.16-.14-.29-.29-.41-.38a1.47 1.47 0 0 0-.83-.37c-.17 0-.37 0-.62.05h-.03c-.14.03-.29.05-.43.08h-.05v.03c-.54.13-1.08.27-1.61.43-.24.06-.48.14-.73.21-.22.06-.57.16-.89.27-.35.06-.81.17-1.29.35l-.11.05c-.38.13-1.02.37-.89.99.03.17.1.29.17.38-.14.06-.3.11-.45.17-.62.25-1.26.51-1.88.73-.91.35-1.81.68-2.56.99-.21.08-.41.17-.6.25-.08.03-.17.08-.27.11-.03-.11-.06-.24-.1-.35.27-.17.54-.37.79-.54l.33-.22c3.15-2.05 5.26-3.99 6.66-6.1 1.92-2.89 2.58-6.34 2.81-8.73.14-1.53.27-3.31.05-5.07-.11-.83-.27-1.89-.7-2.8.14-.37.24-.75.27-1.14.03-.52-.03-1.27-.52-1.76-.16-.16-.33-.27-.54-.38.1-1.49-.08-3.07-.22-4.47l-.03-.33c-.19-1.94-.51-3.43-.99-4.74.06.03.11.06.17.1l.03.24c.06.68.76 1.32 1.48 1.32h.08c.62-.05 1.18-.35 1.73-.91 1.26.54 2.61.97 4.15 1.29 1.02.21 2.24.43 3.47.43.41 0 .81-.02 1.19-.06 1.69-.21 3.29-.87 4.5-1.45.81-.37 1.59-.81 2.35-1.24.62-.35 1.26-.7 1.91-1.02.62-.3 1.21-.64 1.8-1.02.27-.17.59-.25.97-.25.29 0 .6.05.91.13.46.16.92.25 1.37.29.14.02.29.05.43.06h.35c1.78 0 3.74-.59 5.5-1.62.72-.41 1.19-1.03 1.61-1.7l11.86-1.49s1.8-.89 2.03-3.1v-.24c0-.24-.06-.46-.14-.67l.21.3Z"/><g style="clip-path:url(#clippath-1)"><path class="cls-10" d="M259.06 156.44c1.26-4.91 3.01-4.84 4.04-11 1.12-6.72-2.11-11.4 2.99-22.56 6.93-1.25 46.08-.57 64.38 1.48 9.74 14.71.28 18.8 9.22 28.08 6.64 6.9 1.26 17.16-3.72 21.01-.68.53 1.83-2.45-.29-7.43-.52 4.79-1.92 8.74-3.71 9.79-10.06 5.89-24.24 7.55-34.27 7.31-12.63-.3-23.31-2.51-30.03-6.8-1.09-.7-2.02-5.02-2.65-8.37-.53.47-.82 4.45.28 7.59-3.99-1.04-8.87-8.83-6.24-19.11Z"/><path class="cls-11" d="M301.86 281.36c0 1.16-10.26 2.38-10.38 1.23-1.19-11.19-6.38-41.79-7.1-46.22l15.87.81c-.1 11.05 1.66 36.17 1.61 44.18Z"/><path class="cls-10" d="m303.86 281.26-4 .2 4-.2Zm-5.61-44.1c-.05 5.6.37 14.71.79 23.35.42 8.71.85 16.91.82 20.84l4 .02c.02-4.08-.41-12.44-.83-21.06-.42-8.68-.83-17.66-.78-23.11l-4-.04Zm-13.97 1.21 15.87.81.2-3.99-15.87-.81-.2 3.99Zm9.19 44.01c-1.2-11.26-6.4-41.96-7.12-46.33l-3.95.64c.73 4.49 5.9 34.99 7.09 46.11l3.98-.42Zm6.39-1.03c0-.7.39-1.11.5-1.22.13-.12.21-.15.15-.13-.1.05-.35.15-.78.26-.84.23-2.02.44-3.26.58-1.23.15-2.42.22-3.27.19-.44-.01-.68-.05-.76-.07-.05-.01.08.01.26.13.19.12.67.52.75 1.27l-3.98.43c.1.89.67 1.41 1.02 1.64.35.23.71.34.95.41.51.13 1.09.18 1.63.19 1.11.03 2.51-.06 3.86-.22s2.73-.4 3.82-.69c.53-.14 1.08-.32 1.55-.56.22-.11.53-.29.81-.55.26-.25.73-.8.73-1.65l-4-.03Zm2 .01-2 .1 4-.09h-2Zm-1.61-44.18 2 .02.02-1.92-1.92-.1-.1 2Zm-15.87-.81.1-2-2.47-.13.4 2.45 1.97-.32Zm7.1 46.22-1.99.21 1.99-.21Zm10.38-1.23 2-.1-4 .09h2Z" style="clip-path:url(#clippath-2)"/><path class="cls-11" d="M320.42 280.03c.43 1.07 10.46-1.67 10.15-2.78-2.98-10.85-11.07-39.99-12.02-44.38l-14.26 5.89c4.14 10.24 13.15 33.84 16.13 41.28Z"/><path class="cls-10" d="m320.52 282.03-.2-4 .2 4Zm-18.08-42.52c4.18 10.33 13.09 33.69 16.13 41.27l3.71-1.49c-2.92-7.28-12.02-31.12-16.13-41.28l-3.71 1.5Zm15.35-8.49-14.26 5.89 1.53 3.7 14.26-5.89-1.53-3.7Zm14.71 45.7c-3-10.92-11.06-39.96-11.99-44.27l-3.91.84c.96 4.46 9.08 33.7 12.05 44.49l3.86-1.06Zm-13.93 4.05c.32.79.97 1.14 1.31 1.27.36.14.71.19.96.21.52.04 1.1 0 1.65-.07 1.12-.14 2.51-.44 3.82-.8 1.31-.36 2.65-.8 3.68-1.25.5-.22 1.02-.48 1.44-.79.2-.15.49-.39.73-.73.24-.34.59-1.04.35-1.9l-3.86 1.06c-.2-.73.11-1.27.23-1.45.12-.18.23-.24.19-.21-.07.05-.28.18-.69.36-.78.34-1.92.73-3.13 1.06-1.21.33-2.39.58-3.26.69-.45.06-.72.06-.83.05-.06 0 .03 0 .19.06.14.06.66.3.93.96l-3.71 1.49Zm1.85-.74-1.86.74.53 1.32 1.43-.07-.1-2Zm-16.13-41.27-.76-1.85-1.84.76.74 1.84 1.85-.75Zm14.26-5.89 1.95-.42-.51-2.34-2.21.91.76 1.85Zm12.02 44.38-1.93.53 1.93-.53Zm-10.15 2.78 1.86-.74-.53-1.32-1.43.07.1 2Z" style="clip-path:url(#clippath-3)"/><path class="cls-10" d="M334.62 239.36c-.53.66-4.93 3.54-5.28 3.8.12.18.43 1.11.68 1.5-5.69 4.03-15.02 6.67-23.71 7.71-12.9 1.54-19.12.35-29.3-3.18.08-.21.46-1.49.47-1.62-.24-.03-4.75-1.62-5.38-1.9 0 0 7.55-18.42 8.76-20.89 10.89.4 32.73-1.8 41.02-4.94 2.35 3.8 10.42 16.13 12.74 19.52Z"/><path class="cls-6" d="m331.23 241.88-1.89 1.28-5.38-12.07 7.27 10.79zM277.51 247.64l-1.76-.64 5.94-13.83-4.18 14.47z"/><path d="M324.98 224.85c-12.28 4.83-30.61 7.08-45.92 4.08.21-.65.92-2.47 1.17-3.29 7.63-1.88 33.36-5.28 41.81-5.51.39.79 2.08 3.37 2.94 4.72Z" style="fill:#20380e;opacity:.35;stroke-width:0"/><path class="cls-11" d="M243.56 196.34c-.54-.24 1.19-8.83 1.76-8.67 8.42 2.41 28.46 2.9 30.92 3.12-2.71 4.36-5.61 10.02-8.47 10.64-3.61.79-12.8-.08-24.21-5.09Z"/><path class="cls-10" d="M267.34 199.48c-1.43.31-4.33.34-8.4-.39-4.01-.72-9.01-2.14-14.58-4.59l-1.61 3.66c5.84 2.57 11.15 4.09 15.49 4.86 4.28.76 7.78.83 9.96.36l-.85-3.91Zm7.2-9.75c-1.44 2.3-2.74 4.65-4.12 6.63-.68.97-1.31 1.75-1.88 2.31-.6.58-1 .76-1.19.8l.85 3.91c1.24-.27 2.27-1.03 3.11-1.82.85-.82 1.65-1.84 2.4-2.91 1.45-2.09 2.96-4.75 4.24-6.81l-3.39-2.12Zm-29.78-.14c4.44 1.27 11.76 2.01 18.11 2.45 3.21.23 6.22.38 8.58.5 2.41.12 4.04.19 4.6.24l.36-3.98c-.67-.06-2.47-.14-4.77-.25-2.35-.11-5.33-.27-8.5-.49-6.4-.45-13.31-1.17-17.29-2.31l-1.1 3.85Zm-.4 4.91c.54.24.81.64.91.83.11.2.15.37.16.43.03.12.02.18.02.1 0-.13.01-.39.06-.78.09-.76.26-1.79.47-2.84.21-1.05.45-2.05.66-2.76.11-.37.19-.58.23-.68.03-.06 0 .03-.12.18-.06.07-.21.26-.49.42-.31.18-.86.37-1.5.18l1.11-3.84c-.68-.2-1.27 0-1.61.2-.32.18-.52.41-.62.53-.2.25-.33.52-.4.67-.16.35-.3.78-.43 1.2-.26.86-.52 1.99-.75 3.1-.23 1.11-.42 2.26-.52 3.18-.05.45-.09.9-.08 1.28 0 .18.01.44.08.72.03.14.09.36.23.61.13.24.42.67 1 .92l1.61-3.66Zm23.41 6.93.43 1.95-.43-1.95Zm8.47-10.64 1.7 1.06 1.72-2.75-3.23-.3-.18 1.99Zm-30.92-3.12-.55 1.92.55-1.92Zm-1.76 8.67.81-1.83-.8 1.83Z" style="clip-path:url(#clippath-4)"/><path class="cls-9" d="M264.22 189.39c.99 3.45 3.99 10.67 5.22 14.19 6.95-2 12.47-4.01 12.81-4.43 3.55-4.42-2.11-15.73-2.2-16.51-3.9 1.64-9.27 3.79-15.83 6.75Z"/><path class="cls-9" d="M278.87 226.61c14.21 3.85 33.66 2.64 45.62-3.27 0 0-6.44-35.01-8.8-43.57-8.35-.75-26.85.34-35.68 2.88-.45 11.16-.85 29.55-1.14 43.96Z"/><path class="cls-11" d="m286.96 171.66.94 12.25c.2 2.63 3.7 4.51 7.81 4.2 4.11-.32 7.29-2.71 7.08-5.34l-.94-12.25-14.9 1.14Z"/><path class="cls-10" d="m301.7 168.53-14.9 1.14.31 3.99 14.9-1.14-.31-3.99Zm3.09 14.09-.94-12.25-3.99.31.94 12.25 3.99-.31Zm-8.93 7.48c2.38-.18 4.58-.97 6.21-2.2 1.61-1.21 2.88-3.06 2.71-5.29l-3.99.31c.03.4-.18 1.07-1.13 1.79-.93.7-2.38 1.27-4.11 1.4l.31 3.99Zm-9.96-6.04c.17 2.23 1.71 3.86 3.49 4.82 1.8.97 4.09 1.41 6.47 1.23l-.31-3.99c-1.73.13-3.24-.21-4.27-.76-1.05-.57-1.36-1.19-1.39-1.6l-3.99.3Zm-.93-12.24.94 12.25 3.99-.31-.94-12.25-3.99.31Zm16.89-1.3 1.99-.15-.15-1.99-1.99.15.15 1.99Zm.93 12.25-1.99.15 1.99-.15Zm-14.89 1.14 1.99-.15-1.99.15Zm-.94-12.25-.15-1.99-1.99.15.15 1.99 1.99-.15Z" style="clip-path:url(#clippath-5)"/><path class="cls-10" d="M333.1 139.28c-3.27 23.34-15.64 31.58-35.1 32.48-18.88.87-36.83-20.17-33.07-42.86 2.09-12.6 13.84-22.38 31.83-20.79 19.14 1.7 38.98 12.29 36.34 31.17Z"/><path class="cls-11" d="M321.2 133.17c.58 3.07-5.86 32.31-10.83 37.52-4.37 4.58-13.77 9.36-27.57 8.5-10.2-.64-18.66-9.57-19.15-16.98-.41-6.26.82-8.44 1.12-12.67.39-5.71.57-8.34.65-10.98.1-3.35-.59-9.77 1.36-14.03 3.36-7.35 16.65-9.91 30.27-8.79 12.75 1.05 22.06 6.31 24.16 17.43Z"/><path class="cls-10" d="m319.71 131.83 2.97 2.68-2.97-2.68Zm-22.83-14.09c6.17.51 11.31 2.02 15.11 4.6 3.75 2.54 6.29 6.18 7.24 11.2l3.93-.74c-1.15-6.09-4.31-10.64-8.93-13.77-4.56-3.09-10.45-4.73-17.03-5.27l-.33 3.99Zm-28.29 7.63c1.3-2.85 4.72-5.1 9.97-6.47 5.17-1.35 11.65-1.71 18.32-1.16l.33-3.99c-6.96-.57-13.93-.21-19.65 1.28-5.63 1.47-10.54 4.17-12.6 8.68l3.64 1.66Zm-1.18 13.26c.03-.9 0-1.99-.02-3.1-.02-1.14-.04-2.34 0-3.57.08-2.49.39-4.83 1.19-6.59l-3.64-1.66c-1.15 2.51-1.47 5.5-1.55 8.12-.04 1.33-.03 2.62 0 3.77.02 1.17.04 2.13.02 2.91l4 .12Zm-.65 11.05c.39-5.7.57-8.37.65-11.05l-4-.12c-.08 2.59-.25 5.19-.65 10.9l3.99.28Zm-1.12 12.4c-.19-2.96 0-4.92.27-6.65.27-1.69.69-3.52.84-5.74l-3.99-.28c-.14 2-.48 3.37-.8 5.4-.31 1.98-.53 4.24-.31 7.54l3.99-.26Zm17.28 15.11c-4.56-.29-8.8-2.44-11.97-5.41-3.2-3-5.1-6.65-5.3-9.7l-3.99.26c.29 4.35 2.86 8.88 6.56 12.36 3.73 3.5 8.82 6.13 14.46 6.49l.25-3.99Zm26-7.88c-3.91 4.09-12.7 8.72-26 7.88l-.25 3.99c14.31.9 24.31-4.05 29.14-9.11l-2.89-2.76Zm10.31-35.77s.01.06 0 .41c-.01.32-.05.74-.11 1.26-.12 1.04-.34 2.41-.63 4.02-.59 3.2-1.49 7.26-2.55 11.39-1.07 4.14-2.3 8.31-3.57 11.74-.63 1.72-1.26 3.23-1.87 4.44-.62 1.25-1.16 2.06-1.58 2.49l2.89 2.76c.83-.87 1.58-2.11 2.26-3.47.7-1.39 1.38-3.05 2.04-4.85 1.32-3.61 2.6-7.91 3.69-12.12 1.09-4.21 2.01-8.36 2.62-11.67.3-1.65.54-3.11.67-4.27.07-.58.12-1.11.14-1.56.02-.41.02-.9-.06-1.33l-3.93.74Zm1.97-.37 1.49 1.34.66-.74-.18-.97-1.97.37Zm-24.16-17.43.16-1.99-.16 1.99Zm-30.27 8.8-1.82-.83 1.82.83Zm-1.36 14.03 2 .06-2-.06Zm-.65 10.97 2 .14-2-.14Zm-1.11 12.67-2 .13 2-.13Zm19.14 16.98-.13 2 .12-2Zm27.58-8.5-1.45-1.38 1.45 1.38Zm10.83-37.52-1.49-1.34-.66.74.18.97 1.97-.37Z" style="clip-path:url(#clippath-6)"/><path class="cls-10" d="M309.66 149.11c-.8 5.95 1.45 11.03 5.82 11.43 4.37.4 9.12-12.55 10.05-22.9 1.07-11.84-6.57-20.89-18.44-14.16 9.92 7.21 3.76 16.63 2.56 25.62Z"/><path class="cls-11" d="M321.43 157.79c-2.17 4.4-7.21 6.33-10.43 5.11-3.22-1.22.13-15.01 6.37-14.85 5.2.13 6.11 5.6 4.06 9.74Z"/><path class="cls-10" d="M317.31 150.05c.94.02 1.55.28 1.96.59.41.31.74.78.94 1.4.43 1.3.27 3.16-.58 4.86l3.59 1.77c1.2-2.43 1.61-5.38.79-7.88-.42-1.28-1.17-2.46-2.32-3.34-1.16-.88-2.61-1.36-4.27-1.4l-.1 4Zm-5.61 10.98c.29.11.31.29.23.11-.08-.19-.17-.56-.18-1.15-.03-1.17.22-2.76.77-4.39.55-1.62 1.34-3.11 2.26-4.15.92-1.04 1.78-1.43 2.53-1.41l.1-4c-2.36-.06-4.27 1.22-5.63 2.76-1.37 1.55-2.38 3.55-3.05 5.51-.66 1.96-1.03 4.03-.98 5.79.02.87.15 1.77.49 2.57.33.8.96 1.69 2.05 2.1l1.41-3.74Zm7.93-4.13a8.09 8.09 0 0 1-3.86 3.73c-1.58.72-3.08.77-4.07.4l-1.41 3.74c2.23.84 4.86.54 7.14-.5a12.01 12.01 0 0 0 5.79-5.6l-3.59-1.77Zm-2.27-8.85.05-2-.05 2Zm4.07 9.74 1.79.89-1.79-.89Z" style="clip-path:url(#clippath-7)"/><path class="cls-10" d="M313.68 133.08c2.59.01 5.23-.03 7.82.29.22-2.75-2.42-6.32-5.22-9.96-8.53-11.06-34.84-11.77-45.36-8.39-7.84 2.51-8.9 13.33-8.69 17.09 3.39-1.55 8.19-2.51 15.15-2.28 1.31-1.54 2.73-6.53 2.73-6.53s.45 4.57-.72 6.63c3.32.43 12.34 1.97 16.41 2.63 1.35-1.64 2.64-5.97 2.64-5.97s.24 4.33-.55 6.38c.93.23 3.52.46 4.67.59 4.61-1.75 3.86-6.83 7.71-6.77 2.79.57 3.36 3.02 3.4 6.28Z"/><path class="cls-11" d="M322.47 131.28c-1.77-10.8-9.66-19.97-24.26-22.39-11.36-1.87-23.94 1.71-30.03 8.57 8.09-5.18 19.72-5.2 28.44-4.09 8.86 1.13 20.92 9.57 25.84 17.9Z"/><path class="cls-10" d="m321.79 132.02 1.34-1.48-1.34 1.48Zm-25.3-17.65c4.21.54 9.29 2.84 13.95 6.08s8.79 7.33 11.16 11.34l1.72-1.02c-2.56-4.32-6.92-8.62-11.74-11.96-4.81-3.34-10.19-5.83-14.84-6.42l-.25 1.98Zm-27.77 3.94c7.77-4.97 19.09-5.05 27.77-3.94l.25-1.98c-8.76-1.11-20.7-1.14-29.11 4.24l1.08 1.68Zm29.65-10.4c-5.83-.96-11.96-.52-17.43 1.04-5.45 1.56-10.31 4.25-13.52 7.86l1.5 1.33c2.89-3.25 7.37-5.78 12.57-7.27 5.19-1.48 11.03-1.9 16.55-.99l.33-1.97Zm25.08 23.21c-1.84-11.24-10.07-20.73-25.08-23.21l-.33 1.97c14.19 2.34 21.74 11.2 23.43 21.56l1.97-.32Zm-.99.16-.86.51.08.13.11.1.67-.74Zm-25.84-17.9-.13.99.13-.99Zm-28.44 4.09-.75-.66 1.29 1.51-.54-.84Zm30.03-8.57.16-.99-.16.99Zm24.26 22.38-.67.74 2.12 1.93-.46-2.83-.99.16Z" style="clip-path:url(#clippath-8)"/><path class="cls-11" d="M318.94 124.18c-1.72 6.52 9.9 15.96 20.68 7.94-7.68-11.18-13.91-10.74-20.68-7.94Z"/><path class="cls-10" d="M340.45 131.55c-3.9-5.68-7.55-8.58-11.24-9.61-3.69-1.03-7.2-.11-10.65 1.31l.76 1.85c3.32-1.37 6.32-2.08 9.35-1.24 3.04.85 6.35 3.32 10.12 8.82l1.65-1.13Zm-22.48-7.62c-.52 1.96 0 4.06 1.1 5.89 1.12 1.84 2.88 3.5 5.04 4.67 4.35 2.34 10.37 2.7 16.1-1.56l-1.19-1.6c-5.06 3.76-10.24 3.41-13.96 1.41-1.88-1.01-3.36-2.43-4.28-3.94-.92-1.52-1.22-3.05-.88-4.35l-1.93-.51Zm21.65 8.19.6.8.77-.57-.55-.79-.82.57Zm-20.68-7.94-.38-.92-.46.19-.13.48.97.25Z" style="clip-path:url(#clippath-9)"/><path class="cls-11" d="M320.86 122.74c-8.2 2.53-17.15-8.95-2.45-18.81 3.25 10.75 6.02 14.11 2.45 18.81Z"/><path class="cls-10" d="M317.46 104.22c.82 2.71 1.61 4.95 2.27 6.85.67 1.91 1.19 3.43 1.5 4.76.31 1.32.4 2.37.23 3.33-.16.95-.58 1.9-1.39 2.97l1.59 1.21c.97-1.28 1.55-2.52 1.77-3.85.22-1.32.08-2.67-.26-4.12-.34-1.45-.9-3.07-1.56-4.96-.66-1.9-1.44-4.11-2.24-6.77l-1.91.58Zm3.11 17.56c-3.59 1.11-7.34-.86-8.58-4.15-1.2-3.18-.15-8.08 6.99-12.87l-1.11-1.66c-7.56 5.07-9.4 10.84-7.74 15.23 1.61 4.27 6.43 6.78 11.04 5.36l-.59-1.91Zm-2.16-17.85.96-.29-.39-1.29-1.12.75.56.83Zm2.45 18.81.29.96.31-.09.19-.26-.8-.61Z" style="clip-path:url(#clippath-10)"/><path class="cls-11" d="M316.62 125.13c.9 1.39 2.83 1.78 4.31.88 1.48-.9 1.95-2.76 1.05-4.15-.9-1.39-2.83-1.78-4.31-.88-1.48.9-1.95 2.76-1.05 4.15Z"/><path class="cls-10" d="m317.62 125.08-2 .1 2-.1Zm-.47-4.95c-1.92 1.17-2.6 3.64-1.37 5.54l1.68-1.09c-.57-.88-.31-2.11.73-2.75l-1.04-1.71Zm5.67 1.19c-1.22-1.88-3.76-2.35-5.67-1.19l1.04 1.71c1.05-.64 2.37-.33 2.95.57l1.68-1.09Zm-1.38 5.55c1.92-1.17 2.6-3.64 1.37-5.54l-1.68 1.09c.57.88.31 2.11-.73 2.75l1.04 1.71Zm-5.66-1.2c1.22 1.88 3.76 2.35 5.67 1.19l-1.04-1.71c-1.06.64-2.37.33-2.95-.57l-1.68 1.09Zm.84-.54-.84.54 2.02 3.13-.18-3.72-1 .05Zm4.3.88.52.85-.52-.85Zm-4.3-.88.84-.54-2.02-3.13.18 3.72 1-.05Z" style="clip-path:url(#clippath-11)"/><path d="M318.65 193.04c-3.94-1.99-8.52-2.93-9.21-3.46-2.05 2.92-5.09 8.9-6.83 12.14 3.37 2.73 11.65 6.44 16.13 8.02.66-1.35 1.44-3.24 2.2-5.15-.75-3.85-1.54-7.84-2.29-11.54Z" style="fill:#94b73d;opacity:.3;stroke-width:0"/><path class="cls-9" d="M317.38 207.7c-3.93-1.11-9.94-4.87-13.13-6.67 1.71-3.7 6.73-14.71 8.58-19.32.44-1.1 1.78-2.42 2.86-1.94 2.82 1.25 4.09 2.96 4.98 4.21 1.88 2.65 2.37 6.82 2.32 9.78-.04 2.39-2.96 7.63-5.6 13.94Z"/><path class="cls-10" d="M291.59 144.15c.42-.4 1.23-.88 2.21-.95.93-.07 2.13.23 3.42 1.57l1.44-1.39c-1.67-1.72-3.43-2.28-5-2.17-1.52.11-2.75.83-3.45 1.49l1.38 1.45Zm5.64.62c.38.4 1.02.41 1.41.02.4-.38.41-1.02.02-1.41l-1.44 1.39Zm-7.01-2.08a.996.996 0 1 0 1.37 1.45l-1.38-1.45ZM273.51 143.04c.42-.4 1.23-.88 2.21-.95.93-.07 2.13.23 3.42 1.57l1.44-1.39c-1.67-1.72-3.43-2.28-5-2.17-1.52.11-2.75.83-3.45 1.49l1.38 1.45Zm5.64.62c.38.4 1.02.41 1.41.02.4-.38.41-1.02.02-1.41l-1.44 1.39Zm-7.01-2.07a.996.996 0 1 0 1.37 1.45l-1.38-1.45ZM275.36 161.51c.63 1.37 1.96 3.22 3.99 4.37 2.08 1.18 4.81 1.58 8.05.1l-.83-1.82c-2.64 1.21-4.7.85-6.23-.02-1.58-.9-2.66-2.38-3.16-3.46l-1.82.83Zm12.03 4.47a1.003 1.003 0 0 0-.84-1.82l.83 1.82Zm-10.22-5.3a1.003 1.003 0 0 0-1.82.84l1.82-.83Z"/><circle class="cls-10" cx="276.17" cy="149.08" r="2" transform="rotate(-12.56 276.151 149.077)"/><circle class="cls-10" cx="294.2" cy="149.19" r="2" transform="rotate(-12.56 294.167 149.174)"/><path class="cls-12" d="m315.51 207.51 3.75-5.19-.81-.59-3.75 5.19.81.59Zm3.75-5.19c.16-.22.11-.54-.11-.7s-.54-.11-.7.11l.81.59Zm-4.56 4.61c-.16.22-.11.54.11.7.22.16.54.11.7-.11l-.81-.59ZM278.98 201.01l5.55-3.2-.5-.87-5.55 3.2.5.87Zm5.54-3.2c.24-.14.32-.44.18-.68s-.44-.32-.68-.18l.5.87Zm-6.04 2.34c-.24.14-.32.44-.18.68.14.24.44.32.68.18l-.5-.87Z"/></g><g style="clip-path:url(#clippath-12)"><path class="cls-11" d="M301.2 177.31c.54-3.57 2.08-10.05 2.19-11.65.11-1.54-.68-4.17-1.87-7.39-.21-.57-1.98-2.59-3.54-4.23-.72-.76-1.9-2.13-2.33-1.75-.42.37-.93 1.37 0 2.39-1.42-1.49-2.82-2.64-3.2-2.35-.85.67-1.06 2.32-.15 3.42-1.12-.97-2.07-1.55-2.57-1.19-.74.53-1.12 1.92-.08 3.28-1.67 1.18-.67 2.6.83 4.92.56.87.22 4.96-.12 6.09-1.62 5.27-1.04 8.26 1.33 10.43.2.19.42.34.66.49 1.31 10.19 5.23 24.02 9.44 26.97 5.39 3.77 13.33.53 13.33.53-1.58-2.97-7.98-13.14-11.78-25.47l-2.13-4.47Z"/><path class="cls-10" d="m304.68 181.13-2.13-4.47-2.71 1.29 2.13 4.47 2.71-1.29Zm11.75 25.41c-1.64-3.09-7.93-13.06-11.67-25.21l-2.87.88c3.86 12.51 10.37 22.87 11.89 25.73l2.65-1.41Zm-15.51 1.41c3.14 2.2 6.93 2.3 9.74 1.94a22.632 22.632 0 0 0 4.6-1.09c.13-.04.22-.08.29-.11.03-.01.06-.02.08-.03h.02l-.57-1.39-.57-1.39c-.01 0-.03.01-.05.02-.05.02-.13.05-.23.08-.2.07-.51.18-.89.29-.77.23-1.85.5-3.08.65-2.51.32-5.39.15-7.63-1.42l-1.72 2.46Zm-10.07-28.01c.67 5.18 1.99 11.28 3.69 16.48.85 2.6 1.81 5.01 2.84 6.98 1.01 1.92 2.18 3.61 3.54 4.56l1.72-2.46c-.75-.52-1.65-1.68-2.6-3.49-.93-1.77-1.82-4.01-2.64-6.52-1.64-5.01-2.92-10.92-3.57-15.93l-2.98.38Zm-.18.42c.29.27.6.48.89.66l1.55-2.57c-.17-.1-.31-.2-.42-.31l-2.03 2.21Zm-1.76-11.97c-.84 2.74-1.17 5.04-.88 7.03.29 2.05 1.21 3.65 2.64 4.95l2.02-2.22c-.95-.86-1.5-1.84-1.69-3.15-.19-1.37 0-3.19.78-5.73l-2.87-.88Zm.3-4.83c-.07-.11-.06-.16-.04-.03.02.11.05.27.07.49.04.44.04 1 0 1.6-.06 1.25-.22 2.4-.34 2.77l2.87.88c.23-.75.41-2.22.47-3.51.03-.67.03-1.37-.02-1.98-.02-.3-.06-.61-.13-.9-.06-.26-.16-.63-.38-.95l-2.52 1.63Zm-.43-6.96c-.59.41-1.09.95-1.34 1.67s-.19 1.41-.02 2.01c.17.58.45 1.13.75 1.65s.67 1.08 1.03 1.64l2.52-1.63c-.39-.6-.7-1.08-.96-1.52-.26-.44-.4-.75-.46-.97-.06-.2-.02-.22-.04-.18-.02.04-.01-.04.24-.21l-1.73-2.45Zm.07-3.27c-1.55 1.1-1.87 3.5-.4 5.41l2.38-1.83c-.62-.8-.17-1.19-.24-1.14l-1.74-2.44Zm4.43 1.28c-.59-.51-1.22-1-1.83-1.3-.5-.25-1.6-.69-2.59.02l1.74 2.44c-.24.17-.48.18-.57.17-.07 0-.05-.02.08.05.27.13.67.42 1.21.89l1.97-2.27Zm-1.75-3.47c-.84.66-1.24 1.68-1.31 2.62-.07.97.2 2.05.92 2.93l2.32-1.9c-.18-.22-.27-.52-.24-.82a.93.93 0 0 1 .09-.35c.04-.09.08-.12.08-.12l-1.85-2.36Zm5.2 2.49c-.73-.77-1.5-1.5-2.17-2a5.03 5.03 0 0 0-1.06-.65c-.18-.08-.45-.17-.75-.2-.31-.03-.8.02-1.23.36l1.85 2.36c-.34.27-.7.28-.86.27-.15-.01-.23-.05-.21-.04.04.02.19.1.44.29.49.37 1.13.97 1.81 1.68l2.17-2.07Zm-2.06-2.48c-.44.39-.88 1.04-1 1.85-.13.89.12 1.84.87 2.67l2.23-2.01c-.1-.11-.12-.18-.13-.19v-.02s0-.02.02-.04c.01-.02.02-.03 0 0l-1.98-2.25Zm4.4 1.85c-.31-.32-.86-.94-1.36-1.39-.25-.22-.58-.49-.96-.67-.3-.14-1.25-.51-2.08.22l1.98 2.25c-.28.25-.61.32-.85.31-.21 0-.33-.07-.34-.07-.01 0 .07.04.26.21.38.34.77.78 1.18 1.22l2.17-2.07Zm3.86 4.75c-.14-.38-.42-.78-.63-1.05-.25-.33-.56-.72-.9-1.12-.69-.81-1.54-1.74-2.33-2.58l-2.17 2.07c.77.81 1.58 1.7 2.22 2.45.32.38.59.71.78.97.24.32.25.38.22.29l2.82-1.03Zm1.95 8.01c.07-1.03-.15-2.27-.5-3.56-.35-1.32-.86-2.83-1.46-4.46l-2.82 1.03c.59 1.6 1.06 3.01 1.38 4.2.32 1.22.44 2.06.4 2.58l2.99.21Zm-2.2 11.77c.26-1.74.77-4.2 1.24-6.49.45-2.19.9-4.35.96-5.28l-2.99-.21c-.05.67-.43 2.55-.91 4.89-.46 2.25-.99 4.81-1.27 6.64l2.97.45Zm.65 4.24 1.43-.44-.03-.1-.05-.1-1.35.64Zm11.78 25.47.57 1.39 1.54-.63-.78-1.46-1.32.7Zm-13.33-.52.86-1.23-.86 1.23Zm-9.44-26.97 1.49-.19-.09-.72-.62-.37-.78 1.28Zm-.66-.49 1.01-1.11-1.01 1.11Zm-1.33-10.43-1.43-.44 1.43.44Zm.12-6.09-1.26.82 1.26-.82Zm-.83-4.91.86 1.23 1.28-.9-.95-1.24-1.19.91Zm.08-3.28-.87-1.22.87 1.22Zm2.57 1.19-.98 1.13 2.14-2.08-1.16.95Zm.16-3.42.92 1.18-.93-1.18Zm3.2 2.35-1.09 1.03 2.2-2.04-1.11 1Zm.01-2.39-.99-1.13.99 1.13Zm2.33 1.75-1.09 1.03 1.09-1.03Zm3.53 4.23-1.41.52 1.41-.52Zm1.87 7.4-1.5-.1 1.5.1Zm-2.19 11.65-1.48-.22-.07.45.2.41 1.35-.64Z" style="clip-path:url(#clippath-13)"/><path class="cls-10" d="M290.58 158.64c.58.66 1.45 1.89 2.15 3.38.7 1.5 1.2 3.2 1.09 4.82l1.5.1c.13-1.97-.47-3.94-1.22-5.56-.76-1.63-1.72-2.97-2.38-3.74l-1.13.99Zm3.24 8.2c-.03.41.28.77.7.8.41.03.77-.28.8-.7l-1.5-.1Zm-2.11-9.19a.756.756 0 0 0-1.06-.07c-.31.27-.34.75-.07 1.06l1.13-.99ZM291.52 156.14c.74.57 1.89 1.73 2.88 3.26.99 1.54 1.78 3.41 1.86 5.45l1.5-.06c-.09-2.38-1.01-4.52-2.09-6.2-1.08-1.68-2.35-2.96-3.22-3.64l-.92 1.18Zm4.74 8.71a.75.75 0 1 0 1.5-.06l-1.5.06Zm-3.82-9.89c-.33-.25-.8-.2-1.05.13s-.2.8.13 1.05l.92-1.18ZM293.99 155.74c1.18 1.07 3.75 3.96 4.65 6.93l1.44-.44c-1.02-3.35-3.82-6.46-5.08-7.61l-1.01 1.11Zm4.65 6.93c.12.4.54.62.94.5s.62-.54.5-.94l-1.44.44Zm-3.64-8.05a.755.755 0 0 0-1.06.05c-.28.31-.25.78.05 1.06l1.01-1.11Z"/><path class="cls-12" d="m308.82 193.83 3.75-5.19-.81-.59-3.75 5.19.81.59Zm3.75-5.19c.16-.22.11-.54-.11-.7s-.54-.11-.7.11l.81.59Zm-4.56 4.6c-.16.22-.11.54.11.7.22.16.54.11.7-.11l-.81-.59Z"/></g><g style="clip-path:url(#clippath-14)"><path class="cls-10" d="M175.07 122.33c-.84-3.39.4-6.34 3.25-9.22 1.6-1.62 3.97-2.86 5.89-4.5-2.89 5.68-8.64 9.23-9.14 13.72Zm88.64 25.59c-1.04-.81-4.12-3.57-2.43-9.47.63-2.18-.83-3.13-2.12-3.98-1.75-1.15-3.27-2.14-1.05-5.88 2.78-4.69 2.03-9.09-1.94-11.49-3.08-1.86-6.19-5.24-8.63-9.3-.85-2.27-1.5-4.43-1.94-6.03-17.73-5.35-48.9-.52-58.52 2.18l-1.01-1.58c-1.02 4.39-5.23 7.26-7.92 9.98-3.26 3.29-4.9 6.94-3.44 11.11.58 1.66 1.01 3.12.39 4.28-.52.98-1.81 1.74-3.95 2.31-2.11.57-3.45 1.43-4.1 2.64-.91 1.71-.22 3.68.39 5.42.43 1.23.18 2.99-.23 3.88-1.51 3.25-2.81 4.37-2.44 6.8.08-2.53 1.63-3.71 2.98-6.42.5-1.01.86-2.7.06-4.97-.57-1.61-.95-2.94-.18-4.39.55-1.04 1.76-1.8 3.69-2.32 2.35-.63 3.74-1.47 4.36-2.64.23-.44.32-.92.34-1.41.85 2.48.65 4.42-3.85 5.92-8.27 2.76-1.04 8.83-2.43 11.06-2.39 3.82-3.04 4.54-3.02 7.7.03 3.62 2.39 5.98 4.88 6.93.09-.56-2.18-4.09.51-9.33.2 3.04 2.48 10.36 3.29 10.62 12.91 4.12 51.95 11.25 66.86 5.99 2.85-1.01 2.9-7.13 3.81-8.73.66-1.16 2.17 9.55 3.19 8.67 13.77-11.97 11.37-16.32 9.88-16.62-2.08-.42-3.43-.38-.25-9.65 1.54-4.5-7.29-2.92-3.13-9.94 2.49-4.21 1.93-8.04-1.83-11.04-1.32-1.05-2.46-2.58-3.49-4.28 1.73 1.58 3.5 2.94 5.21 3.97 3.69 2.22 4.5 5.93 1.89 10.34-2.54 4.29-.44 5.66 1.25 6.77 1.31.85 2.35 1.53 1.85 3.25-1.94 6.58 2.44 9.39 3.07 9.65Z"/><path class="cls-11" d="M221.85 283.03c.03.36 11.97-.08 11.98-.53.14-3.85-.03-54.77.02-57l-17.03 5.28c.47 3.81 4.78 49.62 5.03 52.25Z"/><path class="cls-10" d="m223.25 284.45-2.82-2.84 2.82 2.84Zm-8.42-53.43c.46 3.78 4.77 49.54 5.02 52.2l3.98-.38c-.25-2.6-4.56-48.46-5.03-52.31l-3.97.49Zm18.42-7.43-17.03 5.28 1.18 3.82 17.03-5.28-1.18-3.82Zm2.58 58.99c.14-3.82-.02-54.99.02-57.04l-4-.07c-.04 2.42.13 53.09-.01 56.97l4 .15Zm-15.98.64a2 2 0 0 0 .71 1.35c.23.19.45.29.55.34.22.09.42.13.51.15.21.04.43.06.62.07.39.03.91.04 1.49.04 1.16 0 2.69-.03 4.2-.1 1.51-.06 3.04-.15 4.2-.25.57-.05 1.1-.11 1.51-.17.19-.03.43-.08.65-.15.1-.03.31-.1.54-.24.11-.07.32-.2.51-.43.2-.23.47-.66.49-1.26l-4-.14c.02-.58.28-.99.47-1.21.18-.21.37-.33.46-.39.18-.11.32-.15.33-.15.05-.01.03 0-.11.02-.25.04-.66.09-1.21.14-1.08.1-2.54.18-4.02.24-1.48.06-2.94.1-4.03.09-.55 0-.97-.01-1.23-.03-.14 0-.18-.02-.15-.01.01 0 .04 0 .09.02a1.886 1.886 0 0 1 .71.37c.21.18.62.61.69 1.32l-3.98.38Zm1.99-.18-1.99.19.4 4.22 3-2.99-1.41-1.42Zm-5.03-52.26-.59-1.91-1.6.49.2 1.66 1.99-.24Zm17.03-5.28 2 .04.05-2.77-2.64.82.59 1.91Zm-.01 57.01-2-.07 2 .07Zm-11.98.52 1.99-.19-.4-4.22-3 2.99 1.41 1.42Z" style="clip-path:url(#clippath-15)"/><path class="cls-11" d="M206.39 283.03c-.03.36-11.97-.08-11.98-.53-.14-3.85.03-54.77-.02-57l17.03 5.28c-.47 3.81-4.78 49.62-5.03 52.25Z"/><path class="cls-10" d="m207.8 281.62-2.82 2.83 2.82-2.83Zm1.64-51.08c-.47 3.85-4.79 49.71-5.03 52.31l3.98.38c.25-2.66 4.56-48.42 5.02-52.2l-3.97-.49Zm-15.64-3.13 17.03 5.28 1.18-3.82-17.03-5.28-1.18 3.82Zm2.61 55.02c-.14-3.88.03-54.55-.01-56.97l-4 .07c.04 2.05-.13 53.22.02 57.04l4-.15Zm7.99.41c.07-.71.48-1.14.69-1.32.21-.18.42-.27.5-.3.1-.04.18-.06.21-.07.04-.01.07-.02.09-.02.03 0 0 0-.15.01-.26.02-.68.03-1.23.03-1.09 0-2.55-.03-4.03-.09-1.48-.06-2.94-.15-4.02-.24-.55-.05-.95-.1-1.21-.14-.14-.02-.16-.03-.11-.02.01 0 .15.05.33.15a1.953 1.953 0 0 1 .93 1.6l-4 .14c.02.6.29 1.02.49 1.26a2.233 2.233 0 0 0 1.05.67c.22.07.46.12.65.15.4.07.93.12 1.51.17 1.16.1 2.69.19 4.2.25 1.51.06 3.04.1 4.2.1.57 0 1.09-.01 1.49-.04.19-.01.41-.03.62-.07.09-.02.29-.06.51-.15.1-.04.32-.14.55-.34.22-.19.64-.63.71-1.35l-3.98-.38Zm1.99.2-1.41 1.42 3 2.98.4-4.21-1.99-.19Zm5.03-52.26 1.99.24.2-1.66-1.6-.49-.59 1.91Zm-17.03-5.28.59-1.91-2.64-.82.05 2.77 2-.04Zm.02 57.01 2-.07-2 .07Zm11.98.52 1.41-1.42-3-2.98-.4 4.21 1.99.19Z" style="clip-path:url(#clippath-16)"/><path class="cls-9" d="M178.68 235.84c14.12 10.51 53.06 11.16 68.71 0 0 0-8.2-16.83-11.68-26.35-8.97-.92-37.6-1.14-47.25-.09-2.84 9.09-6.31 16.25-9.78 26.44Z"/><path d="M186.72 214.94c14.72 3.48 33.4 5.3 50.89.16-.38-1.02-1.58-4.7-1.91-5.61-8.97-.92-37.6-1.14-47.25-.09-.6 1.93-1.17 3.75-1.74 5.54Z" style="opacity:.35;stroke-width:0"/><path class="cls-10" d="M175.33 182.34c2.05-3.37 14.41-20.03 16.05-21.56.62-.57 6.51-1.91 12.86-2.04-2.09 3.49-10.77 29.75-11.86 32.13-2.48-.52-14.21-5.81-17.05-8.53ZM252.08 182.72c-2.78-4.28-11.98-17.37-13.45-19.06-.55-.63-8.08-3.07-14.39-3.84 1.41 3.34 7.86 27.16 10.61 31.79 2.52-.27 14.11-6.47 17.23-8.89Z"/><path class="cls-10" d="M238.9 214.23c-14.83 3.9-38.82 4.57-52.54-2.09 1.1-9.45 3.86-41.21 9.46-52.5 5.78-.64 15.59-1.62 20.63-1.19 7.38.64 16.05 3.32 20.6 4.58-.35 5.68-1.39 15.18-1.12 21.51.4 9.55 1.37 18.5 2.98 29.68Z"/><path class="cls-11" d="m205.38 147.25-.66 13.81c-.14 2.97 3.54 5.55 8.23 5.78 4.69.22 8.6-2.01 8.74-4.98l.66-13.81-16.98-.8Z"/><path class="cls-10" d="m222.45 146.05-16.98-.8-.19 4 16.98.8.19-4Zm1.24 15.9.66-13.81-4-.19-.66 13.81 4 .19Zm-10.83 6.88c2.66.13 5.2-.44 7.16-1.55 1.93-1.1 3.56-2.92 3.68-5.33l-4-.19c-.03.56-.43 1.34-1.66 2.04-1.21.69-2.97 1.13-4.99 1.03l-.19 4Zm-10.14-7.87c-.11 2.41 1.33 4.37 3.15 5.65 1.84 1.29 4.32 2.09 6.98 2.22l.19-4c-2.02-.1-3.74-.7-4.87-1.5-1.16-.81-1.48-1.63-1.46-2.19l-4-.19Zm.66-13.81-.66 13.81 4 .19.66-13.81-4-.19Zm18.97.9 2 .1.1-2-2-.09-.09 2Zm-.66 13.8 2 .1-2-.1Zm-16.97-.8-2-.1 2 .1Zm.66-13.8.09-2-2-.09-.1 2 2 .1Z" style="clip-path:url(#clippath-17)"/><path class="cls-11" d="M248.31 139.03c-1.67 4.39-6.41 6.76-9.68 5.96-3.28-.8-3.52-4.57-2.46-8.87 1.06-4.29 4.58-7.13 7.85-6.33 4.48 1.1 5.86 5.1 4.29 9.23ZM182 132.24c.69 4.29 4.53 7.3 7.65 7.19 3.12-.12 4.04-3.49 3.89-7.57-.15-4.08-2.8-7.31-5.92-7.18-4.26.17-6.27 3.53-5.62 7.56Z"/><path class="cls-10" d="M184.83 106.09c-4.7 21.58 9.83 37.68 28.34 39.55 18.51 1.87 35.38-12.49 35.69-33.94.17-11.91-11.34-22.43-29.04-24.11-18.52-1.75-31.65 3.15-34.99 18.5Z"/><path class="cls-11" d="M190.95 102.21c-2.05 3.51-4.28 36.12-.96 41.03 3.52 5.21 12.41 11.8 22.76 11.8 9.63 1.29 20.05-2.14 23.69-7.1 4.31-5.88 8.91-34.62 8.09-38.18-2.77-12.02-12.91-13.44-26.22-14.79-12.46-1.26-22.04-1.88-27.36 7.24Z"/><path class="cls-10" d="M218.51 92.98c-6.17-.62-11.97-1.14-16.91-.25-5.1.91-9.38 3.33-12.38 8.47l3.45 2.02c2.32-3.98 5.5-5.81 9.63-6.55 4.29-.77 9.51-.34 15.8.29l.4-3.98Zm27.97 16.34c-1.53-6.65-5.2-10.5-10.29-12.78-4.89-2.18-11.1-2.89-17.68-3.56l-.4 3.98c6.73.68 12.26 1.36 16.46 3.23 4 1.78 6.78 4.65 8.02 10.02l3.9-.9Zm-8.42 39.8c1.32-1.79 2.49-5.02 3.51-8.58 1.05-3.65 2.01-7.97 2.81-12.19.8-4.22 1.44-8.38 1.83-11.72.19-1.67.33-3.15.39-4.35.05-1.11.06-2.22-.11-2.97l-3.9.9s0 .04.02.15c0 .1.02.23.02.4 0 .34 0 .78-.03 1.32-.05 1.08-.18 2.47-.37 4.09-.38 3.23-1 7.29-1.79 11.44-.79 4.15-1.73 8.34-2.73 11.84-1.03 3.6-2.05 6.17-2.89 7.31l3.23 2.37Zm-25.58 7.91c5.12.69 10.43.12 14.95-1.28 4.46-1.38 8.44-3.65 10.62-6.63l-3.23-2.37c-1.46 1.99-4.51 3.92-8.58 5.17-4.01 1.24-8.73 1.74-13.24 1.13l-.53 3.96Zm-24.15-12.67c3.82 5.66 13.29 12.69 24.42 12.69v-4c-9.58 0-17.89-6.16-21.1-10.92l-3.32 2.24Zm.89-43.16c-.45.77-.76 1.98-1 3.18-.26 1.31-.51 2.94-.74 4.79-.45 3.69-.82 8.3-1.02 12.95-.2 4.64-.23 9.36 0 13.25.12 1.94.3 3.72.57 5.2.26 1.4.64 2.81 1.3 3.79l3.31-2.24c-.17-.25-.44-.94-.69-2.27-.23-1.26-.4-2.86-.51-4.72-.22-3.71-.19-8.28 0-12.84.2-4.56.56-9.06 1-12.63.22-1.79.45-3.31.69-4.48.12-.58.23-1.06.34-1.41.05-.18.1-.31.14-.41.04-.1.06-.14.06-.13l-3.45-2.02Zm29.09-6.23.2-1.99-.2 1.99Zm26.22 14.79 1.95-.45-1.95.45Zm-8.09 38.18 1.61 1.18-1.61-1.18Zm-23.69 7.1.27-1.98-.13-.02h-.13v2Zm-22.76-11.8 1.66-1.12-1.66 1.12Zm.96-41.03-1.73-1.01 1.73 1.01Z" style="clip-path:url(#clippath-18)"/><path class="cls-10" d="M240.34 99.74c-4.55-3.1-13.43-5.44-21.52-6.41-8.8-1.05-18.01-.91-23.2 1.63-3.43 1.68-9.02 16.6-7.34 15.52 1.93-1.24 4.88-2.2 8.38-2.86.61-1.65 3.44-5.6 3.96-6.1-.27.87-.91 3.99-1.23 5.66 4.34-.6 9.26-.8 14.01-.57.1-1.8 1.25-4.02 1.27-4.14.49.6 1.31 3.22 1.66 4.33.71.06 1.42.13 2.11.22 6.36.76 11.02 1.71 14.69 2.88.4-5.54.56-7.27.49-6.89.55 1.25 1.05 4.72.82 7.33 1.37.48 2.59 1 3.72 1.55.3-1.59.95-4.15 1.05-4.58.46.35 1.01 4.01 1.14 5.76 1.85 1.09 3.48 2.3 5.14 3.63 1.81 1.45-1.48-14.44-5.15-16.94ZM234.95 119.57c-.8-.96-2.11-2.28-4.08-2.89-2.01-.62-4.52-.43-7.62 1.3l.98 1.75c2.72-1.52 4.67-1.56 6.05-1.14 1.42.44 2.43 1.41 3.14 2.26l1.53-1.28Zm-11.69-1.58a1 1 0 0 0 .98 1.74l-.98-1.75Zm10.16 2.87a1 1 0 0 0 1.41.12 1 1 0 0 0 .12-1.41l-1.53 1.28ZM211.21 116.87c-1.13-.93-3.06-1.57-5.12-1.69-2.09-.12-4.47.28-6.51 1.62l1.1 1.67c1.59-1.05 3.52-1.4 5.29-1.3 1.8.11 3.27.67 3.96 1.23l1.27-1.54Zm-11.63-.06c-.46.3-.59.92-.28 1.39s.92.59 1.39.28l-1.1-1.67Zm10.36 1.61a1 1 0 0 0 1.41-.14 1 1 0 0 0-.14-1.41l-1.27 1.54Z"/><ellipse class="cls-10" cx="205.12" cy="125.63" rx="2.27" ry="3.16"/><ellipse class="cls-10" cx="227.83" cy="126.53" rx="3.16" ry="2.27" transform="rotate(-82.97 227.82 126.54)"/><path class="cls-10" d="M211.13 142.07c.94.66 2.55 1.43 4.38 1.66 1.86.23 3.99-.1 5.86-1.73l-1.32-1.51c-1.34 1.17-2.87 1.43-4.29 1.25-1.45-.18-2.75-.81-3.47-1.31l-1.15 1.64Zm10.23-.07c.42-.36.46-1 .09-1.41-.36-.42-1-.46-1.41-.09l1.32 1.51Zm-9.08-1.57a.988.988 0 0 0-1.39.25.988.988 0 0 0 .25 1.39l1.15-1.64Z"/><path class="cls-9" d="M178.82 104.39s-2.91 4.16-.11 4.79c2.8.63 5.53-.9 6.11-3.43.58-2.53-1.22-5.09-4.01-5.73-2.8-.63-1.99 4.37-1.99 4.37ZM193.83 107.78s.8 5-1.99 4.37c-2.8-.63-4.59-3.2-4.01-5.73.58-2.53 3.32-4.07 6.11-3.43 2.8.63-.11 4.79-.11 4.79Z"/><path class="cls-9" d="M188.16 106.57c-.28 1.2-1.36 1.98-2.43 1.74s-1.7-1.41-1.43-2.61c.28-1.2 1.36-1.98 2.43-1.74s1.71 1.41 1.43 2.61Z"/><path class="cls-10" d="M243.6 135.83c-.05.44-.25 1.23-.67 2.02-.41.79-.98 1.44-1.69 1.79l1.34 2.69c1.46-.73 2.42-1.96 3.01-3.08.59-1.13.89-2.27.99-3.04l-2.98-.37Zm-2.36 3.81c-.74.37-1.04 1.27-.68 2.01s1.27 1.04 2.01.68l-1.34-2.69Zm5.34-3.44c.1-.82-.48-1.57-1.3-1.68-.82-.1-1.57.48-1.68 1.3l2.98.37ZM185.16 129.7c-.54 1.07-1.24 3.8.57 6.04l1.56-1.25c-1.1-1.37-.71-3.16-.34-3.89l-1.79-.9Zm.57 6.04a1.002 1.002 0 1 0 1.56-1.26l-1.56 1.25Zm1.21-5.14a.998.998 0 0 0-1.78-.9l1.79.9Z"/><path class="cls-11" d="M235.55 173.04s11.81 6.77 17.26 12.64c5.45 5.87-5 11.74-9.54 8.13-4.54-3.61-12.72-14-12.72-14-2.54 0-1.97-5.42-1.36-8.13-1.45-1.08-3.63-1.05-4.54-.9-1.09-1.08-.45-2.26 0-2.71-1.09-1.08-.45-2.26 0-2.71-1.09-1.81.45-3.16 1.36-3.61 0-1.81.91-2.26 1.36-2.26 2.91-.72 5.45.6 6.36 1.35 2.18 1.08 2.12 8.58 1.82 12.19Z"/><path class="cls-10" d="M242.65 194.6c1.39 1.11 3.17 1.44 4.88 1.29 1.71-.15 3.44-.79 4.83-1.76 1.38-.97 2.52-2.33 2.87-3.97.36-1.69-.15-3.48-1.69-5.15l-1.47 1.36c1.18 1.27 1.41 2.42 1.2 3.36-.21 1-.95 1.98-2.07 2.76-1.11.78-2.5 1.29-3.86 1.41-1.36.12-2.58-.17-3.46-.87l-1.25 1.57Zm-12.09-14.78-.79.62.02.02c.02.02.04.05.07.09.06.08.15.19.27.34.23.29.57.72.99 1.23.84 1.03 2.01 2.45 3.32 3.98 2.6 3.04 5.84 6.61 8.2 8.49l1.25-1.57c-2.19-1.74-5.31-5.17-7.92-8.22-1.3-1.52-2.46-2.92-3.29-3.95-.42-.51-.75-.93-.98-1.22-.12-.14-.2-.26-.26-.33-.03-.04-.05-.07-.07-.09 0 0-.01-.02-.02-.02l-.79.62Zm-2.34-8.35c-.31 1.4-.63 3.53-.52 5.36.05.9.21 1.83.61 2.57.43.8 1.17 1.42 2.25 1.42v-2c-.18 0-.33-.06-.49-.36-.19-.36-.33-.95-.37-1.75-.09-1.56.18-3.5.48-4.8l-1.95-.44Zm-3.41.3c.36-.06 1.03-.1 1.77 0s1.47.32 2.01.72l1.2-1.6c-.91-.68-2.01-.98-2.94-1.1-.94-.12-1.81-.07-2.36.02l.33 1.97Zm-.86-4.4c-.34.34-.74.93-.86 1.67-.13.8.08 1.69.86 2.46l1.41-1.42c-.31-.31-.33-.55-.3-.72.04-.23.18-.46.3-.57l-1.41-1.42Zm0-2.71c-.34.34-.74.93-.86 1.67-.13.8.08 1.69.86 2.46l1.41-1.42c-.31-.31-.33-.55-.3-.72.04-.23.18-.46.3-.57l-1.41-1.42Zm1.62-3.8c-.57.28-1.36.85-1.85 1.69-.53.91-.68 2.09.08 3.34l1.71-1.03c-.34-.56-.26-.96-.06-1.29.24-.4.67-.74 1.01-.91l-.89-1.79Zm1.81-2.36c-.53 0-1.15.25-1.62.81-.47.57-.74 1.38-.74 2.45h2c0-.74.18-1.05.28-1.16.1-.12.16-.09.09-.09v-2Zm6.99 1.58c-1.07-.89-3.93-2.38-7.24-1.56l.48 1.94c2.51-.62 4.73.53 5.48 1.15l1.28-1.54Zm2.18 13.05c.15-1.84.25-4.68.02-7.22-.11-1.26-.31-2.5-.64-3.51-.31-.96-.82-1.98-1.75-2.44l-.89 1.79c.16.08.46.4.74 1.27.26.81.44 1.88.55 3.07.21 2.39.13 5.1-.02 6.87l1.99.17Zm16.99 11.88c-2.81-3.03-7.21-6.24-10.85-8.67-1.83-1.22-3.49-2.26-4.69-2.99-.6-.37-1.09-.66-1.42-.86-.17-.1-.3-.18-.39-.23a.642.642 0 0 0-.1-.06c-.01 0-.02-.01-.03-.02l-.5.87-.5.87s.01 0 .02.01c.02.01.05.03.1.06a72.512 72.512 0 0 1 1.78 1.06c1.18.72 2.82 1.74 4.62 2.95 3.63 2.42 7.86 5.53 10.49 8.37l1.47-1.36Zm-10.27 8.8.62-.78-.62.78Zm-12.71-13.99.79-.62-.3-.38h-.49v1Zm-1.37-8.13.98.22.14-.63-.52-.39-.6.8Zm-4.54-.9-.71.71.36.36.51-.08-.16-.99Zm0-2.71.71.71.71-.71-.71-.71-.71.71Zm0-2.71.71.71.56-.55-.41-.67-.86.52Zm1.36-3.62.45.9.55-.28v-.62h-1Zm1.37-2.25v1h.12l.12-.03-.24-.97Zm6.35 1.35-.64.77.09.07.1.05.45-.9Zm1.82 12.19-1-.08-.05.63.55.32.5-.87Zm17.26 12.65.73-.68-.73.68Z"/><path class="cls-10" d="M231.69 162.21c-.49-.24-1.32-.57-2.26-.8-.94-.22-2.04-.35-3.05-.15l.2.98c.81-.16 1.75-.06 2.63.14.87.21 1.63.51 2.05.72l.45-.9Zm-5.32-.95c-.27.05-.45.32-.39.59.05.27.32.45.59.39l-.2-.98Zm4.87 1.85a.5.5 0 1 0 .44-.9l-.45.9ZM231.17 165.34c-.71-.23-1.85-.54-3.01-.69-.58-.08-1.18-.12-1.73-.09s-1.09.13-1.54.35l.45.9c.28-.14.67-.22 1.15-.25.48-.02 1.01 0 1.55.08 1.09.14 2.17.43 2.83.64l.31-.95Zm-6.29-.42a.5.5 0 1 0 .44.9l-.45-.9Zm5.97 1.37c.26.09.55-.06.63-.32a.497.497 0 0 0-.32-.63l-.31.95ZM230.28 168.51a20.4 20.4 0 0 0-2.71-.78c-1.03-.22-2.19-.35-3.04-.14l.24.97c.61-.15 1.57-.06 2.59.15 1 .21 1.98.52 2.56.74l.35-.94Zm-5.75-.92c-.27.07-.43.34-.36.61.07.27.34.43.61.36l-.24-.97Zm5.4 1.86a.496.496 0 1 0 .35-.93l-.35.94Z"/><path class="cls-11" d="M187.88 162.58s-9.87 9.35-13.77 16.33c-3.9 6.98 7.64 10.24 11.2 5.66 3.56-4.58 9.04-16.59 9.04-16.59 2.47-.6.63-5.73-.6-8.22 1.16-1.39 3.28-1.88 4.2-1.94.8-1.31-.09-2.3-.64-2.63.8-1.31-.09-2.3-.64-2.63.63-2.01-1.19-2.97-2.18-3.19-.43-1.76-1.42-1.98-1.86-1.87-3-.02-5.15 1.86-5.86 2.81-1.86 1.56-.02 8.83 1.13 12.27Z"/><path class="cls-10" d="M186.1 185.19c-1.09 1.4-2.74 2.15-4.44 2.4-1.7.26-3.53.04-5.11-.58-1.57-.62-3-1.68-3.73-3.19-.76-1.56-.68-3.42.42-5.4l1.75.98c-.85 1.51-.79 2.68-.37 3.55.45.92 1.39 1.7 2.66 2.19 1.26.49 2.74.67 4.08.47 1.35-.2 2.47-.77 3.16-1.65l1.58 1.23Zm8.24-17.2.91.42s0 .01-.01.03l-.05.1c-.04.09-.1.22-.18.39a194.464 194.464 0 0 1-2.95 6.08c-1.81 3.57-4.11 7.79-5.95 10.17l-1.58-1.23c1.71-2.2 3.93-6.26 5.75-9.85.9-1.78 1.69-3.41 2.26-4.61.28-.6.51-1.08.67-1.42.08-.17.14-.3.18-.39l.05-.1c0-.01 0-.02.01-.03l.91.42Zm.3-8.66c.64 1.29 1.45 3.29 1.78 5.08.16.89.23 1.83.02 2.64-.22.87-.8 1.65-1.85 1.91l-.47-1.94c.18-.04.3-.13.39-.46.1-.4.09-1-.05-1.78-.28-1.54-1.01-3.35-1.6-4.56l1.79-.88Zm3.37-.51c-.36.03-1.03.14-1.73.41-.7.27-1.35.66-1.78 1.17l-1.54-1.28c.73-.88 1.72-1.43 2.6-1.76.88-.34 1.74-.5 2.3-.54l.15 1.99Zm-.2-4.48c.41.25.94.73 1.23 1.42.32.75.32 1.66-.25 2.59l-1.71-1.05c.23-.38.19-.61.12-.77-.09-.22-.29-.4-.42-.48l1.04-1.71Zm-.64-2.63c.41.25.94.73 1.23 1.42.32.75.32 1.66-.25 2.59l-1.71-1.05c.23-.38.19-.61.12-.77-.09-.22-.29-.4-.42-.48l1.04-1.71Zm-2.48-3.31c.62.14 1.52.51 2.2 1.21.73.76 1.15 1.87.72 3.26l-1.91-.6c.2-.63.02-.99-.25-1.27-.33-.34-.83-.56-1.2-.64l.44-1.95Zm-2.31-1.87c.52-.12 1.18-.03 1.76.41.6.44 1.05 1.17 1.3 2.2l-1.94.47c-.18-.72-.43-.98-.55-1.07-.12-.09-.18-.05-.1-.07l-.47-1.94Zm-6.43 3.18c.83-1.11 3.26-3.23 6.66-3.21v2c-2.59-.02-4.48 1.63-5.06 2.41l-1.61-1.2Zm.98 13.18c-.59-1.75-1.35-4.49-1.73-7.01-.19-1.25-.29-2.5-.21-3.56.07-1 .33-2.12 1.12-2.78l1.29 1.53c-.14.11-.35.5-.42 1.41-.06.85.02 1.93.2 3.12.36 2.37 1.09 4.99 1.65 6.67l-1.9.63Zm-13.69 15.53c2.01-3.6 5.52-7.76 8.49-10.97 1.49-1.62 2.85-3.02 3.85-4.01.5-.5.9-.89 1.18-1.17.14-.14.25-.24.32-.31.04-.04.07-.06.09-.08l.02-.02.69.73.69.73-.02.02c-.02.02-.05.04-.08.08-.07.07-.18.17-.32.3-.27.27-.67.66-1.16 1.14-.98.98-2.32 2.36-3.79 3.95-2.95 3.2-6.32 7.21-8.21 10.6l-1.75-.98Zm12.07 6.15-.79-.61.79.61Zm9.03-16.58-.91-.42.2-.44.47-.11.24.97Zm-.6-8.22-.9.44-.29-.58.41-.5.77.64Zm4.2-1.94.85.52-.27.44-.51.04-.07-1Zm-.64-2.63-.52.85-.86-.52.52-.86.85.52Zm-.65-2.64-.52.85-.67-.41.23-.75.95.3Zm-2.18-3.19-.22.97-.6-.14-.15-.6.97-.23Zm-1.86-1.87.24.97-.12.03h-.12v-1Zm-5.85 2.8.8.6-.07.09-.09.07-.65-.77Zm1.12 12.28.95-.31.2.6-.46.44-.69-.73Zm-13.77 16.33-.87-.49.87.49Z"/><path class="cls-10" d="M189.07 151.14c.42-.35 1.15-.86 2.01-1.3.86-.44 1.9-.82 2.93-.86l.04 1c-.82.03-1.72.35-2.52.75s-1.46.88-1.82 1.18l-.65-.77Zm4.94-2.16c.28-.01.51.2.52.48s-.2.51-.48.52l-.04-1Zm-4.3 2.93c-.21.18-.53.15-.71-.06a.493.493 0 0 1 .06-.7l.65.77ZM190.32 154.07c.63-.39 1.67-.95 2.76-1.37.55-.21 1.12-.39 1.66-.49.54-.1 1.09-.13 1.58-.02l-.22.97c-.3-.07-.7-.06-1.17.03s-.98.25-1.49.44c-1.02.39-2.01.92-2.59 1.29l-.53-.85Zm6-1.89a.503.503 0 0 1-.22.98l.22-.97Zm-5.47 2.74c-.23.15-.54.07-.69-.16a.495.495 0 0 1 .16-.69l.53.85ZM191.93 156.94c.55-.37 1.47-.93 2.45-1.39.95-.45 2.05-.86 2.92-.85v1c-.63 0-1.54.31-2.49.75-.92.44-1.8.97-2.31 1.32l-.56-.83Zm5.37-2.24c.28 0 .5.23.5.5s-.23.5-.5.5v-1Zm-4.8 3.06c-.23.15-.54.09-.69-.13-.16-.23-.1-.54.13-.69l.56.83Z"/></g><g style="clip-path:url(#clippath-19)"><path class="cls-10" d="M158.66 123.63c3.06 16.29 6.34 14.44 9.67 21.68 3.75 8.15-.02 17.03-3.58 21.38 1.21-3.03.6-6.17-.7-9.12.52 5.11-2.45 11.04-3.5 11.92-8.77 7.37-21.2 8.18-30.5 9.38-11.53 1.49-23.83 2.4-35.58-1.5-1.06-.35-4.8-6.7-5.87-10.23-2.15 3.24 1.08 8.26.3 7.8-5.73-3.37-11.11-12.49-4.58-19.46 10.72-11.45-1.91-14.4 5.05-33.02 19.19-4.37 60.62-3.61 69.28 1.17Z"/><path class="cls-11" d="M138.26 284.67c.02 1.2 10.77 2.4 10.89 1.2 1.16-11.66 6.35-43.57 7.08-48.19l-16.63.96c.2 11.51-1.45 37.68-1.34 46.02Z"/><path class="cls-10" d="M136.26 284.67h4-4Zm1.34-45.99c.1 5.68-.26 15.04-.64 24.08-.37 8.98-.76 17.69-.7 21.93l4-.05c-.06-4.1.32-12.65.7-21.71.37-9 .74-18.49.64-24.32l-4 .07Zm18.51-2.99-16.63.96.23 3.99 16.63-.96-.23-3.99Zm-4.97 50.38c1.15-11.59 6.33-43.4 7.06-48.07l-3.95-.62c-.71 4.56-5.92 36.56-7.09 48.3l3.98.4Zm-14.88-1.37c.01.85.49 1.41.76 1.66.28.27.6.44.83.56.48.23 1.05.42 1.6.56 1.14.29 2.59.53 4 .69 1.41.16 2.87.24 4.03.2.56-.02 1.16-.07 1.68-.21.25-.07.61-.18.96-.42s.93-.76 1.02-1.66l-3.98-.4c.07-.75.56-1.15.74-1.27.18-.12.3-.14.24-.13-.09.02-.35.07-.82.08-.89.03-2.14-.03-3.44-.18-1.3-.14-2.54-.35-3.43-.59-.46-.12-.73-.22-.84-.28-.06-.03.02 0 .14.11.11.1.5.51.51 1.21l-4 .05Zm2-.03h2v-.03l-2 .03Zm1.34-46.02-.12-2-1.92.11.03 1.92 2-.03Zm16.63-.97 1.98.31.38-2.45-2.48.14.12 2Zm-7.08 48.19-1.99-.2 1.99.2Zm-10.89-1.2h-2v.03l2-.03Z" style="clip-path:url(#clippath-20)"/><path class="cls-11" d="M127.64 284.22c-.14 1.19-11.03 1.16-11.02-.04.07-11.72.34-43.23.11-47.89l16.03 2.05c-1.41 11.43-4.12 37.6-5.11 45.89Z"/><path class="cls-10" d="M130.76 238.09c-1.4 11.34-4.14 37.76-5.11 45.89l3.97.48c1.01-8.44 3.69-34.37 5.11-45.88l-3.97-.49Zm-14.29.18 16.03 2.05.51-3.97-16.03-2.05-.51 3.97Zm2.14 45.92c.07-11.65.35-43.26.11-48.01l-4 .2c.23 4.59-.04 35.99-.11 47.78l4 .02Zm7.04-.2c.08-.71.53-1.07.65-1.16.14-.1.22-.12.15-.1-.12.04-.4.11-.87.18-.91.13-2.19.2-3.5.19-1.31 0-2.57-.08-3.47-.22-.46-.07-.72-.14-.82-.18-.06-.02.06.01.22.15.16.14.6.58.6 1.34l-4-.02c0 .91.52 1.49.84 1.76.32.27.67.42.91.52.5.19 1.09.31 1.65.4 1.15.17 2.62.26 4.05.26 1.43 0 2.9-.07 4.07-.23.57-.08 1.16-.19 1.66-.37.24-.09.58-.23.89-.46.29-.22.84-.72.94-1.58l-3.97-.47Zm7.1-45.65 1.98.25.24-1.98-1.98-.25-.25 1.98Zm-16.03-2.05.25-1.98-2.37-.3.12 2.39 2-.1Zm-.11 47.89h-2v-.01h2Zm11.03.04-1.99-.24 1.99.24Z" style="clip-path:url(#clippath-21)"/><path class="cls-10" d="M170.18 241.76c-.6.65-5.37 3.37-5.75 3.63.11.19.38 1.18.61 1.6-6.2 3.84-16.12 6.01-25.27 6.56-13.58.81-20.02-.81-30.44-5.11.1-.21.58-1.53.6-1.65-.25-.04-4.87-1.98-5.51-2.31 0 0 9.04-18.68 10.45-21.18 11.37 1.09 34.35.14 43.2-2.61 2.23 4.09 9.91 17.42 12.11 21.07Z"/><path class="cls-5" d="m166.47 244.18-2.05 1.21-4.88-12.88 6.93 11.67zM109.93 246.86l-1.8-.78 7.06-14.01-5.26 14.79z"/><path class="cls-11" d="M111.2 243.58c-.38-.07-4.88-1.98-5.37-2.24l.49-.94c.61.32 4.75 2.04 5.1 2.14l-.21 1.03ZM135.24 250.1c-9.01 0-16.43-1.53-24.72-4.99l.41-.97c9.43 3.94 17.72 5.33 28.6 4.8 9.22-.45 18.29-2.8 23.68-6.13l.56.9c-5.53 3.42-14.8 5.83-24.19 6.29-1.49.07-2.94.11-4.34.11ZM163.2 242.18l-.58-.88c.08-.06.41-.25.85-.51 1.13-.66 4.12-2.43 4.5-2.84l.78.71c-.41.44-2.12 1.49-4.74 3.04-.42.25-.73.43-.81.48ZM166.58 182.62c-.84 3.66-2.58 10.96-4.34 14.24-3.01-.34-14.81-2.68-15.36-2.77-6.08-4.58-7.24-16.53-7.46-16.84 5.24-.83 10.4-.48 12.01-.41 4.26 1.68 8.36 3.14 15.14 5.79Z"/><path class="cls-10" d="M164.58 182.62h4-4Zm-13.88-3.93c2.15.85 4.25 1.64 6.65 2.54 2.4.91 5.11 1.93 8.49 3.25l1.46-3.72c-3.4-1.33-6.13-2.36-8.54-3.27-2.41-.91-4.49-1.69-6.6-2.52l-1.47 3.72Zm-10.96.53c5.01-.8 9.95-.46 11.61-.39l.18-4c-1.57-.07-6.94-.44-12.42.43l.63 3.95Zm8.34 13.26c-2.5-1.88-4.16-5.47-5.21-8.99-.51-1.71-.85-3.3-1.08-4.5-.11-.6-.2-1.09-.26-1.47-.03-.18-.06-.35-.09-.49-.01-.07-.03-.16-.06-.25a1.36 1.36 0 0 0-.06-.2c-.02-.05-.09-.25-.24-.47l-3.28 2.28c-.15-.21-.21-.4-.22-.43-.02-.06-.04-.11-.04-.12 0-.03 0-.03 0 0 .01.07.04.19.07.38.06.35.15.89.27 1.52.24 1.27.61 3.01 1.18 4.9 1.1 3.67 3.06 8.35 6.64 11.04l2.41-3.2Zm14.39 2.39c-2.93-.33-14.55-2.63-15.24-2.76l-.7 3.94h.05c.04 0 .08.02.14.03.12.02.27.05.46.09.38.07.9.17 1.52.29 1.23.24 2.86.55 4.56.87 3.36.63 7.15 1.32 8.75 1.5l.45-3.97Zm2.16-12.69c-.42 1.82-1.05 4.52-1.8 7.16-.76 2.69-1.59 5.14-2.35 6.57l3.53 1.89c.99-1.85 1.91-4.68 2.67-7.37.77-2.74 1.43-5.52 1.85-7.36l-3.9-.89Zm1.95.44h2v-1.36l-1.27-.5-.73 1.86Zm-15.14-5.79.73-1.86-.31-.12-.33-.02-.09 2Zm-12.02.41-.31-1.98-3.15.5 1.82 2.62 1.64-1.14Zm7.46 16.84-1.2 1.6.38.29.47.08.35-1.97Zm15.36 2.78-.23 1.99 1.35.15.64-1.2-1.76-.94Zm4.34-14.24 1.95.45.05-.22v-.23h-2Z" style="clip-path:url(#clippath-22)"/><path class="cls-11" d="M100.25 198.58c3.88-7.05 9.21-16.93 12-18.19 1.52-.68 5.98-1.58 12.7-2.49-1.33 3.8-10.27 25.41-11.41 27.54-2.25-.63-10.84-4.18-13.29-6.86Z"/><path class="cls-10" d="M98.25 198.58h4-4Zm15.83 4.94c-.97-.27-3.56-1.26-6.25-2.54-1.33-.63-2.64-1.32-3.75-1.99-1.14-.69-1.94-1.3-2.36-1.76l-2.95 2.7c.81.89 2.01 1.73 3.23 2.48 1.26.77 2.7 1.51 4.11 2.18 2.78 1.32 5.61 2.42 6.89 2.78l1.08-3.85Zm8.99-26.28c-.64 1.83-3.18 8.13-5.74 14.29-2.57 6.21-5.04 12.01-5.55 12.97l3.53 1.89c.63-1.18 3.2-7.25 5.72-13.33 2.53-6.12 5.13-12.53 5.82-14.5l-3.77-1.32Zm-10 4.98c.52-.24 1.81-.6 3.97-1.02 2.09-.41 4.85-.86 8.18-1.31l-.54-3.96c-3.38.46-6.22.92-8.42 1.35-2.13.42-3.84.85-4.84 1.3l1.64 3.65Zm-11.06 17.33c1.95-3.55 4.23-7.73 6.36-11.18 1.07-1.73 2.07-3.23 2.95-4.36.44-.56.83-1 1.16-1.32.35-.34.54-.45.59-.47l-1.64-3.65c-.65.29-1.23.76-1.72 1.23-.51.49-1.02 1.08-1.53 1.73-1.02 1.3-2.11 2.94-3.21 4.72-2.2 3.56-4.53 7.85-6.46 11.35l3.5 1.93Zm-1.76-.97 1.48-1.35-3.48-3.8v5.15h2Zm13.3 6.86-.54 1.93 1.54.43.76-1.41-1.76-.94Zm11.41-27.54 1.89.66 1.08-3.08-3.24.44.27 1.98Zm-12.71 2.5-.82-1.82.82 1.82Zm-12 18.18h-2l3.75.96-1.75-.96Z" style="clip-path:url(#clippath-23)"/><path class="cls-11" d="M112.29 226.31c14.81 4.25 35.46 1.73 48.09-4.22 0 0-6.67-36.41-8.99-45.36-9.31-.75-28.42 1.03-37.34 3.05-.67 11.62-.16 29.8-1.76 46.53Z"/><path class="cls-10" d="m113.71 224.89-2.83 2.83 2.83-2.83Zm-1.65-45.23c-.34 5.86-.38 13.38-.53 21.42-.16 8.08-.43 16.74-1.22 25.03l3.98.38c.81-8.45 1.08-17.24 1.24-25.34.16-8.14.2-15.51.53-21.27l-3.99-.23Zm39.49-4.93c-9.55-.77-28.86 1.03-37.94 3.09l.89 3.9c8.76-1.99 27.66-3.74 36.73-3.01l.32-3.99Zm8.83 47.35 1.97-.36v-.02c0-.02 0-.04-.01-.08-.01-.07-.03-.17-.06-.31-.05-.27-.12-.67-.22-1.17-.19-1.01-.46-2.47-.79-4.25-.66-3.56-1.57-8.39-2.55-13.5-1.95-10.19-4.22-21.61-5.4-26.16l-3.87 1c1.14 4.4 3.38 15.66 5.34 25.91.98 5.11 1.88 9.93 2.55 13.48.33 1.78.6 3.23.79 4.24.09.51.17.9.22 1.17.02.13.04.24.06.31 0 .03.01.06.01.08v.02l1.97-.36Zm-48.64 6.15c7.72 2.21 16.85 2.64 25.61 1.78 8.77-.86 17.32-3.02 23.88-6.12l-1.7-3.62c-6.06 2.86-14.15 4.93-22.57 5.75-8.42.83-17.02.39-24.12-1.65l-1.1 3.84Zm.55-1.92-1.41 1.41 3 3 .4-4.22-1.99-.19Zm1.76-46.53-.44-1.95-1.47.33-.09 1.5 2 .11Zm37.34-3.05 1.94-.5-.36-1.38-1.42-.11-.16 1.99Zm8.99 45.35.85 1.81 1.39-.66-.28-1.51-1.97.36Zm-48.09 4.23.55-1.92-7.44-2.14 5.48 5.47 1.41-1.41Z" style="clip-path:url(#clippath-24)"/><path class="cls-11" d="m139.97 166.59.7 12.77c.15 2.75-3.23 5.17-7.54 5.4-4.32.24-7.94-1.8-8.09-4.55l-.7-12.77 15.63-.86Z"/><path class="cls-10" d="M137.97 166.59h4-4Zm-13.52 2.85 15.63-.86-.22-3.99-15.63.86.22 3.99Zm2.59 10.67-.7-12.77-3.99.22.7 12.77 3.99-.22Zm5.98 2.66c-1.84.1-3.43-.29-4.52-.9-1.11-.62-1.44-1.3-1.46-1.76l-3.99.22c.12 2.29 1.68 4 3.5 5.03 1.84 1.04 4.22 1.54 6.7 1.41l-.22-3.99Zm5.65-3.3c.02.45-.23 1.17-1.26 1.91-1.01.72-2.55 1.29-4.39 1.39l.22 3.99c2.48-.14 4.78-.9 6.5-2.13 1.7-1.21 3.06-3.09 2.93-5.38l-3.99.22Zm-.7-12.77.7 12.77 3.99-.22-.7-12.77-3.99.22Zm2-.11h2v-2.11l-2.11.12.11 2Zm-15.63.85-.11-2-2 .11.11 2 2-.11Zm.7 12.78 2-.11-2 .11Zm15.63-.86-2 .11 2-.11Zm-.7-12.77h-2v.11l2-.11Z" style="clip-path:url(#clippath-25)"/><path class="cls-10" d="M88.08 136.03c4.62 24.11 17.98 32.06 38.39 32 19.8-.06 36.8-21.54 31.7-44.95-2.83-13-18.53-20.29-34.39-19.14-20.08 1.45-39.43 12.58-35.7 32.09Z"/><path class="cls-11" d="M100.22 129.07c-.45 3.22 7.78 33.31 13.25 38.48 4.81 4.54 14.89 9.04 29.29 7.44 10.64-1.18 19.04-10.9 19.17-18.63.11-6.54-1.08-8.77-1.81-13.12-1.03-6.15-1.51-9.01-1.57-11.75-.12-5.49-.39-8.55-2.65-12.89-3.89-7.48-17.08-10.73-31.28-8.88-13.29 1.74-22.77 7.68-24.39 19.35Z"/><path class="cls-10" d="M124.36 107.74c-6.85.89-12.9 2.89-17.51 6.33-4.65 3.48-7.72 8.35-8.61 14.73l3.96.55c.74-5.3 3.23-9.23 7.04-12.08 3.87-2.89 9.19-4.73 15.63-5.57l-.52-3.97Zm33.31 9.94c-2.32-4.45-7.22-7.36-13.02-8.95-5.86-1.6-12.98-1.95-20.29-.99l.52 3.97c6.89-.9 13.47-.55 18.72.89 5.31 1.45 8.95 3.9 10.53 6.93l3.55-1.85Zm2.88 13.77c-.12-5.58-.4-9.02-2.88-13.77l-3.55 1.85c2.04 3.92 2.31 6.61 2.42 12.01l4-.08Zm1.54 11.46c-1.04-6.21-1.49-8.9-1.54-11.46l-4 .08c.06 2.93.58 5.96 1.6 12.04l3.94-.66Zm1.84 13.49c.12-6.77-1.18-9.53-1.84-13.49l-3.95.66c.8 4.75 1.89 6.45 1.78 12.76l4 .07Zm-20.95 20.58c5.86-.65 11.03-3.64 14.74-7.45 3.68-3.79 6.13-8.61 6.21-13.13l-4-.07c-.05 3.21-1.87 7.11-5.08 10.41-3.18 3.27-7.53 5.74-12.31 6.27l.44 3.98Zm-30.88-7.97c5.29 5 15.98 9.63 30.88 7.98l-.44-3.98c-13.9 1.54-23.37-2.83-27.69-6.91l-2.75 2.91ZM98.24 128.8c-.06.44-.04.94 0 1.37.04.47.12 1.01.22 1.61.2 1.2.52 2.71.92 4.41.81 3.41 1.98 7.68 3.33 12s2.9 8.74 4.47 12.42c.78 1.84 1.59 3.52 2.38 4.93.78 1.38 1.62 2.62 2.53 3.48l2.75-2.91c-.47-.44-1.08-1.27-1.79-2.53-.7-1.24-1.44-2.78-2.19-4.53-1.5-3.52-3-7.79-4.34-12.04-1.33-4.25-2.47-8.42-3.26-11.73-.39-1.65-.69-3.07-.87-4.15-.09-.54-.15-.98-.18-1.31-.03-.37-.02-.49-.03-.45l-3.96-.55Zm26.38-19.08-.26-1.98.26 1.98Zm31.28 8.88-1.77.92 1.77-.92Zm2.65 12.89 2-.04-2 .04Zm1.57 11.75 1.97-.33-1.97.33Zm1.81 13.12-2-.03 2 .03Zm-19.17 18.63.22 1.99-.22-1.99Zm-29.28-7.44-1.37 1.45 1.37-1.45Zm-13.26-38.48-1.98-.28 1.98.28Z" style="clip-path:url(#clippath-26)"/><path class="cls-10" d="M113.11 145.07c1.14 6.15-.96 11.55-5.51 12.19-4.55.64-10.18-12.6-11.69-23.31-1.73-12.27-1.34-21.31 11.42-14.92-3.39 8.6 4.07 16.74 5.78 26.04Z"/><path class="cls-11" d="M102.96 160.26c2.56 4.54 8.07 6.31 11.46 4.86 3.39-1.45-.93-15.85-7.61-15.36-5.57.41-6.26 6.23-3.85 10.5Z"/><path class="cls-10" d="M102.96 162.26v-4 4Zm3.7-14.49c-1.75.13-3.24.69-4.42 1.67-1.17.97-1.9 2.24-2.28 3.59-.74 2.66-.16 5.72 1.25 8.22l3.48-1.97c-1-1.78-1.28-3.75-.88-5.18.19-.68.52-1.21.97-1.58.45-.37 1.12-.68 2.16-.76l-.29-3.99Zm8.54 19.19c1.1-.47 1.7-1.4 2.01-2.25.31-.85.4-1.8.38-2.71-.04-1.84-.54-4-1.35-6.03-.81-2.03-2-4.08-3.53-5.63-1.53-1.54-3.59-2.76-6.05-2.58l.29 3.99c.88-.06 1.87.34 2.92 1.4 1.05 1.06 1.98 2.61 2.66 4.3.68 1.69 1.04 3.37 1.07 4.62.01.63-.06 1.04-.14 1.26-.08.21-.08.05.17-.06l1.57 3.68Zm-13.98-5.72c1.53 2.71 3.93 4.58 6.43 5.56 2.47.97 5.26 1.14 7.56.16l-1.57-3.68c-1.09.47-2.76.48-4.53-.21-1.73-.68-3.37-1.97-4.41-3.8l-3.48 1.97Zm1.74-.98-1.74.98.57 1.02h1.17v-2Zm3.85-10.5.15 1.99-.15-1.99Zm7.61 15.36-.79-1.84.79 1.84Zm-11.46-4.86 1.74-.98-.57-1.02h-1.17v2Z" style="clip-path:url(#clippath-27)"/><path class="cls-10" d="M101.63 114.46c-.89-3.89-.78-7.64 2.24-10.91-8.48-.51-10.12 6.61-2.24 10.91Zm-15.55 1.13c7.78-3.5 11.07-1.72 14.7 1.07-4.59-8.28-11.02-11.57-14.7-1.07Z"/><path class="cls-10" d="M114.81 125.22c6.58-6.59 11.43-.22 13.23 2.27 2.1 2.9 5.06 4.11 7.45 4.31-.63-.68-4.18-3.27-4.21-6.72 1.47 1.79 5.21 4.95 9.83 5.71 9.21 1.51 26.76 1.46 17.33-14.68-2.56-4.38-5.82-10.58-16.53-12.37-16.73-2.8-40.35-4.66-42.25 13.55-1.74 1.22 7.89 17.92 1.29 23.3 3.78 1.88 6.73 2.96 9.89-.57 4.87-5.44 3.98-8.22 3.98-14.8Z"/><path class="cls-11" d="M145.64 205.62c-2.38.7-5.82 2.12-12.66 3.89-.78.2-2.91-2.59-2.09-2.68 4.73-.52 13.2-4.37 14.76-1.21Z"/><path class="cls-10" d="M130.99 207.82c1.26-.14 2.74-.49 4.22-.88 1.51-.39 3.02-.81 4.45-1.12 1.43-.31 2.67-.49 3.61-.42s1.31.34 1.47.66l1.79-.89c-.62-1.26-1.9-1.69-3.13-1.77-1.24-.09-2.7.14-4.17.46-1.48.32-3.06.76-4.52 1.14-1.49.39-2.84.71-3.94.83l.22 1.99Zm1.74.72c.22-.06.34.02.3 0-.02-.01-.09-.05-.2-.13-.22-.17-.47-.44-.7-.74-.24-.31-.38-.56-.42-.69-.03-.09.03.02-.01.21-.03.13-.1.3-.26.44s-.33.18-.43.19l-.22-1.99c-.2.02-.45.1-.67.29-.22.19-.33.43-.38.64-.08.37.02.7.08.89.15.41.43.86.72 1.24.3.39.67.78 1.04 1.08.19.15.41.3.64.4.22.1.59.21 1 .11l-.5-1.94Zm12.63-3.88c-2.54.74-5.76 2.11-12.63 3.88l.5 1.94c6.81-1.76 10.47-3.25 12.69-3.9l-.56-1.92Zm-14.47 2.17.11.99-.11-.99Zm2.09 2.68.25.97-.25-.97Zm12.66-3.89.28.96 1.14-.33-.53-1.07-.9.44Z" style="clip-path:url(#clippath-28)"/><path class="cls-11" d="M148.11 208.37c-2.38.7-7.75 3.5-14.55 3.35-.84-.02-2.57-2.9-1.76-3 4.73-.52 14.96-2.93 16.31-.36Z"/><path class="cls-10" d="M147.11 208.37h2-2Zm-15.2 1.35c1.21-.13 2.77-.39 4.4-.64 1.65-.26 3.39-.53 5.02-.7 1.64-.17 3.11-.24 4.23-.12.56.06.98.16 1.27.28.29.12.37.24.4.29l1.77-.93c-.31-.59-.84-.97-1.38-1.2-.55-.23-1.18-.36-1.85-.43-1.33-.14-2.96-.05-4.64.12-1.69.18-3.48.45-5.12.71-1.66.26-3.16.5-4.31.63l.22 1.99Zm1.67 1c.16 0 .23.06.17.03-.04-.03-.12-.09-.22-.19a4.6 4.6 0 0 1-.61-.82c-.19-.33-.3-.59-.33-.72-.02-.08.02 0-.03.17-.03.1-.11.24-.25.35a.71.71 0 0 1-.4.17l-.22-1.99c-.21.02-.44.1-.65.27-.2.17-.32.38-.38.57-.11.34-.06.67-.02.87.09.44.32.91.56 1.32.25.42.57.85.9 1.2.17.17.36.34.57.48.2.13.5.28.87.29l.04-2Zm14.25-3.31c-2.62.76-7.65 3.46-14.25 3.31l-.04 2c7 .15 12.71-2.77 14.85-3.39l-.56-1.92Zm.28.96h1v-.25l-.11-.22-.89.46Zm-16.31.36-.11-.99.11.99Zm1.76 2.99.02-1-.02 1Zm14.55-3.35.28.96.72-.21v-.75h-1Z" style="clip-path:url(#clippath-29)"/><path class="cls-11" d="M138.54 209.83c-1.29-.43-2.97-2.01-2.15-3.87 1.34-3.06 1.82-3.3 1.93-4.65.04-.52-.52-2.18-1.31-1.38-3.92 3.99-8.28 4.96-10.12 7.01-9.36-2.15-21.93-5.7-24.35-6.61 0 0-1.84 6.11 1.73 9.94 2.84 3.05 14.89 4.03 23.1 4.54 6.8.14 19.6-1.57 21.98-2.26-.93-2.19-5.03-1.78-10.81-2.73Z"/><path class="cls-10" d="M150.27 212.16c-.35-.83-1-1.37-1.76-1.73-.74-.35-1.63-.55-2.59-.7-.96-.15-2.08-.26-3.28-.39-1.21-.13-2.53-.28-3.94-.51l-.32 1.97c1.48.24 2.84.4 4.05.53 1.23.13 2.28.23 3.18.37.91.14 1.57.31 2.05.53.45.21.66.44.77.7l1.84-.78Zm-22.92 3.66c3.47.07 8.42-.33 12.78-.82 4.33-.49 8.21-1.1 9.5-1.48l-.56-1.92c-1.09.32-4.8.91-9.17 1.41-4.34.5-9.18.88-12.51.81l-.04 2Zm-23.81-4.86c.9.96 2.39 1.66 4.08 2.19 1.73.55 3.81.98 6.03 1.33 4.44.7 9.55 1.07 13.66 1.33l.12-2c-4.1-.26-9.13-.63-13.47-1.31-2.17-.34-4.15-.76-5.73-1.26-1.63-.52-2.7-1.09-3.23-1.65l-1.46 1.36Zm-.99-10.63-.96-.29v.02c0 .02-.01.04-.02.06-.01.05-.03.13-.06.23-.05.19-.11.47-.17.8-.12.68-.25 1.62-.26 2.69-.02 2.13.44 4.92 2.47 7.1l1.46-1.36c-1.54-1.65-1.95-3.83-1.93-5.72 0-.93.12-1.76.23-2.35.05-.29.11-.53.15-.69.02-.08.04-.14.05-.18 0-.02 0-.03.01-.04l-.96-.29Zm24.57 5.64c-9.36-2.15-21.87-5.68-24.22-6.57l-.71 1.87c2.48.94 15.11 4.5 24.48 6.65l.45-1.95Zm9.18-6.74c-1.86 1.89-3.83 3.07-5.61 4.06-.88.48-1.76.94-2.51 1.4-.76.46-1.47.97-2.03 1.59l1.49 1.34c.36-.41.88-.79 1.58-1.22.71-.43 1.5-.84 2.44-1.36 1.84-1.01 4.01-2.31 6.07-4.41l-1.43-1.4Zm3.02 2.16c.02-.3-.03-.63-.11-.89-.08-.28-.2-.61-.38-.9-.16-.26-.47-.66-.98-.82-.63-.19-1.18.08-1.55.45l1.43 1.4s-.01.02-.11.05c-.11.04-.24.04-.36 0-.1-.03-.16-.08-.16-.09l.03.04c.05.09.11.23.15.38.02.07.03.13.04.18v.03l1.99.16Zm-2.02 4.97c.66-1.5 1.09-2.28 1.41-2.92.34-.68.54-1.2.6-2.04l-1.99-.16c-.04.51-.14.78-.41 1.32-.29.58-.76 1.45-1.45 3.01l1.83.8Zm1.55 2.52c-.46-.15-1.02-.53-1.36-1.02-.32-.46-.43-.95-.19-1.5l-1.83-.8c-.58 1.32-.25 2.55.38 3.45.61.87 1.53 1.5 2.37 1.77l.63-1.9Zm10.5 3.67.28.96 1.08-.32-.44-1.04-.92.39Zm-21.98 2.27-.06 1h.04l.02-1Zm-23.1-4.54-.73.68.73-.68Zm-1.72-9.95.35-.94-1-.38-.31 1.03.96.29Zm24.34 6.62-.22.97.57.13.39-.44-.74-.67Zm10.12-7.02.71.7-.71-.7Zm1.31 1.38 1 .08-1-.08Zm-1.93 4.64.92.4-.92-.4Zm2.15 3.88-.31.95.08.02h.08l.16-.97Z" style="clip-path:url(#clippath-30)"/><path class="cls-11" d="M169.84 168.2s-.01-.04-.03-.06c1.04-2.36 1.86-6.36 1.84-8.13-.01-1.73-.22-2.89-.43-4.55-.14-1.08-1.97-4.38-2.28-4.48-.51-.15-.89.51-.83 1.19.05.64.46 1.88.8 2.95-.01.48.04 2.1-.16 3.31-.23-2.15-.38-3.77-.56-4.51-.22-.89-2-4.85-2.43-5.04-.68-.3-1.34.73-1.22 1.37.19 1.02.7 2.31 1 3.6.13.56.2 4.91.13 4.91-.3-1.77-.57-4.64-.83-5.31-.86-2.2-2.35-4.64-2.72-4.73-.7-.17-1.1.6-1.11 1.3-.01 1.23.97 3.25 1.18 4.08.22.85.52 3.73.6 5.11-.25-.9-.66-3.29-.87-3.82-.46-1.17-2.22-4.41-2.82-4.27-.67.16-1 .87-.99 1.5.03 1.27.99 2.52 1.23 3.8.42 2.15.86 5.7.68 6.36-.77-.41-1.39-1.29-1.81-1.91-1.32-1.95-2.56-2.78-3.56-1.82-.26.25.81 2.68 1.54 4 1.04 1.88 3.28 5.14 5.64 7.06.17.14.36.26.55.37.53 9.44.08 21.26-.12 23.86 1 .31 7.32 1.83 9.73-2.74 1.94-3.68-.86-14.95-2.14-23.39Z"/><path class="cls-10" d="m170.33 167.33-.97 1.75.97-1.75Zm2.55 24.73c.61-1.15.79-2.76.78-4.49-.01-1.77-.23-3.84-.54-6.03-.31-2.19-.73-4.52-1.14-6.82-.41-2.31-.83-4.58-1.15-6.67l-1.98.3c.32 2.13.74 4.43 1.15 6.72.41 2.3.82 4.6 1.13 6.75.31 2.15.51 4.12.52 5.75 0 1.68-.19 2.86-.55 3.55l1.77.93Zm-10.92 3.23c.57.18 2.54.67 4.71.5 2.19-.17 4.77-1.02 6.2-3.74l-1.77-.93c-.98 1.86-2.76 2.54-4.59 2.68-1.84.14-3.53-.28-3.96-.42l-.6 1.91Zm-.57-24.76c.52 9.38.08 21.16-.12 23.73l1.99.15c.2-2.64.65-14.51.12-23.99l-2 .11Zm-.19.35c.23.19.46.34.7.47l.97-1.75c-.15-.08-.28-.17-.4-.27l-1.27 1.55Zm-5.88-7.35c1.07 1.93 3.38 5.32 5.88 7.36l1.26-1.55c-2.22-1.81-4.39-4.95-5.39-6.77l-1.75.97Zm-1.35-5.21c-.22.21-.3.46-.33.6-.03.15-.03.28-.02.38.01.19.05.38.1.55.09.34.24.76.41 1.17.34.84.81 1.81 1.19 2.51l1.75-.97c-.35-.63-.78-1.53-1.09-2.3a8.5 8.5 0 0 1-.33-.93c-.03-.12-.04-.16-.03-.16 0 0 0 .06-.01.14-.02.08-.07.28-.26.46l-1.38-1.45Zm5.08 1.99c-.68-1.01-1.43-1.87-2.24-2.32-.43-.23-.92-.38-1.45-.33-.54.05-1.01.3-1.39.67l1.38 1.45c.12-.11.18-.12.2-.12.03 0 .12 0 .29.09.39.21.92.74 1.55 1.69l1.66-1.12Zm1.45 1.59c-.52-.28-1.01-.93-1.46-1.59l-1.66 1.12c.4.59 1.15 1.69 2.17 2.24l.95-1.76Zm-2.13-5.29c.2 1.05.41 2.44.55 3.66.07.61.12 1.16.14 1.59.01.22.01.39.01.52 0 .15-.02.18 0 .14l1.93.53c.06-.21.07-.44.08-.61 0-.2 0-.43-.01-.67-.02-.49-.08-1.08-.15-1.71-.14-1.26-.36-2.71-.58-3.81l-1.96.38Zm-1.25-3.96c.02.85.35 1.65.62 2.28.3.69.54 1.19.63 1.69l1.96-.38c-.15-.77-.51-1.54-.76-2.11-.28-.64-.44-1.1-.45-1.52l-2 .04Zm1.76-2.49c-1.33.31-1.78 1.62-1.76 2.49l2-.04c0-.15.04-.29.1-.4.05-.09.09-.1.11-.11l-.45-1.95Zm3.98 4.88c-.26-.65-.84-1.81-1.44-2.78-.3-.49-.62-.97-.92-1.33-.15-.18-.33-.36-.53-.51-.15-.11-.56-.38-1.09-.26l.45 1.95c-.2.05-.36 0-.44-.02a.191.191 0 0 1-.08-.04s-.01 0-.02-.01h.01l.04.04c.03.03.08.08.13.14.21.24.47.62.74 1.08.55.91 1.08 1.96 1.28 2.48l1.86-.74Zm.9 3.91c-.11-.4-.27-1.17-.43-1.98-.08-.39-.16-.77-.23-1.1-.07-.3-.15-.62-.23-.84l-1.86.74v.01s0 .02.01.04c0 .03.02.07.03.12.03.1.06.23.09.38.07.3.14.67.22 1.06.15.75.33 1.63.47 2.12l1.92-.54Zm-2.54-4.59c.09.35.21 1.21.33 2.22.11.99.21 2.03.25 2.7l2-.12c-.04-.71-.14-1.79-.26-2.8-.11-.98-.25-1.99-.38-2.49l-1.94.49Zm-1.21-4.34c0 .82.3 1.79.56 2.54.14.39.29.78.4 1.09.12.33.21.57.24.72l1.94-.5c-.07-.27-.19-.6-.31-.92-.13-.34-.26-.69-.39-1.06-.27-.78-.45-1.43-.45-1.85l-2-.02Zm2.34-2.26c-.83-.2-1.49.21-1.85.71-.34.46-.48 1.04-.49 1.55l2 .02c0-.08.01-.17.04-.25.02-.08.05-.13.07-.15.01-.02 0 0-.06.04l-.1.03h-.07l.47-1.94Zm3.42 5.34c-.45-1.16-1.06-2.36-1.61-3.3-.27-.47-.54-.88-.78-1.2a4.08 4.08 0 0 0-.36-.43 2.54 2.54 0 0 0-.23-.2c-.07-.06-.23-.16-.44-.21l-.47 1.94c-.17-.04-.26-.12-.28-.12-.03-.02-.03-.03-.01 0 .03.03.1.11.19.23.18.24.4.59.66 1.02.5.86 1.07 1.97 1.47 3.01l1.86-.73Zm.88 5.51c-.15-.86-.29-1.99-.42-3.03-.07-.51-.14-1-.21-1.41-.06-.38-.14-.78-.25-1.06l-1.86.73v.01c0 .01 0 .02.01.04.01.04.02.09.04.15.03.12.06.28.09.46.06.37.13.83.2 1.34.13 1 .28 2.2.44 3.11l1.97-.34Zm-2.09-4.52s0 .05.02.23c.01.16.03.36.04.6.02.47.04 1.06.05 1.64.01.57.02 1.13.02 1.53v.54-.02a.65.65 0 0 1 .08-.27c.02-.05.08-.15.18-.26.11-.11.33-.27.65-.29l.11 2c.33-.02.55-.19.66-.29.11-.11.16-.21.19-.26.05-.1.07-.19.08-.22.02-.07.02-.14.03-.16 0-.07.01-.14.01-.21v-.54c0-.43 0-1-.02-1.58-.01-.58-.03-1.19-.06-1.69-.02-.45-.05-.93-.11-1.18l-1.95.45Zm-1.01-3.64c.11.58.3 1.21.49 1.81.19.62.38 1.23.52 1.83l1.95-.45c-.16-.69-.38-1.37-.56-1.97-.19-.62-.35-1.14-.43-1.58l-1.97.36Zm2.6-2.48c-.96-.42-1.75.18-2.1.63-.36.46-.63 1.16-.5 1.84l1.97-.36s0 .01.02-.06c.02-.07.06-.14.1-.19.04-.05.05-.04 0-.03-.03.01-.07.02-.13.02a.38.38 0 0 1-.16-.03l.8-1.83Zm3.01 5.72c-.14-.56-.68-1.86-1.2-2.97-.27-.57-.55-1.14-.8-1.58-.12-.22-.25-.43-.37-.59-.06-.08-.13-.18-.21-.26-.06-.06-.21-.22-.43-.31l-.8 1.83c-.1-.04-.16-.09-.19-.11-.03-.02-.05-.04-.05-.05l.04.05c.06.09.15.23.26.42.21.38.47.9.73 1.45.53 1.14.99 2.26 1.07 2.6l1.94-.48Zm.58 4.64c-.22-2.08-.38-3.82-.58-4.64l-1.94.47c.16.65.3 2.17.54 4.38l1.99-.21Zm-1.84-3.23c-.01.58.04 2.06-.14 3.17l1.97.32c.21-1.3.16-3.07.17-3.45l-2-.05Zm-.79-2.84c.04.43.18.99.33 1.51.15.54.35 1.14.51 1.66l1.91-.59c-.17-.55-.35-1.11-.5-1.62-.15-.53-.24-.91-.26-1.12l-1.99.17Zm2.12-2.23c-.82-.25-1.45.23-1.75.69-.29.44-.41 1.01-.36 1.54l1.99-.17c0-.07 0-.13.01-.19 0-.03.01-.05.02-.06 0-.02.01-.02.01-.02s0 .01-.03.03c-.02.02-.05.04-.1.07-.05.02-.11.04-.18.05-.07 0-.13 0-.18-.02l.57-1.92Zm2.98 5.3c-.05-.42-.24-.94-.44-1.41a21.598 21.598 0 0 0-1.52-2.89c-.12-.18-.23-.35-.34-.49-.05-.07-.12-.15-.19-.22-.04-.04-.21-.21-.49-.3l-.58 1.92c-.14-.04-.23-.11-.27-.13-.04-.03-.06-.05-.07-.06-.01-.01 0-.01.02.02.05.06.13.17.23.33.2.31.45.74.69 1.21.25.47.49.96.67 1.39.19.46.28.76.3.88l1.98-.25Zm.44 4.68c-.01-1.81-.24-3.06-.44-4.67l-1.98.25c.22 1.7.41 2.78.43 4.44h2Zm-1.92 8.53c.56-1.26 1.04-2.92 1.38-4.47.34-1.54.56-3.07.55-4.06l-2 .02c0 .77-.18 2.13-.5 3.62-.32 1.48-.77 3-1.25 4.1l1.83.8Zm.11-.46c-.04-.34-.22-.55-.32-.65l-1.41 1.42a.938.938 0 0 1-.26-.53l1.99-.24Zm-.99.12.99-.15-.07-.49-.43-.24-.48.88Zm2.14 23.39.88.47-.88-.47Zm-9.73 2.75-1-.08-.06.79.76.24.3-.95Zm.12-23.86 1-.06-.03-.55-.48-.27-.48.87Zm-.54-.37.63-.77-.63.77Zm-5.64-7.06.88-.48-.88.48Zm-1.54-4.01.69.73-.69-.73Zm3.56 1.82-.83.56.83-.56Zm1.81 1.92-.47.88 1.1.59.33-1.21-.96-.27Zm-.68-6.36-.98.19.98-.19Zm-1.23-3.79-1 .02 1-.02Zm.98-1.5.23.97-.23-.97Zm2.83 4.27-.93.37.93-.37Zm.87 3.82-.96.27 1.96-.33-1 .06Zm-.61-5.1.97-.25-.97.25Zm-1.18-4.09h1v.01h-1Zm1.11-1.3.24-.97-.23.97Zm2.72 4.73.93-.36-.93.36Zm.83 5.32-.99.17.15.88.89-.05-.05-1Zm-.13-4.92.97-.22-.97.22Zm-1-3.6-.98.18.98-.18Zm1.21-1.37-.4.92.4-.92Zm2.44 5.03.97-.24-.97.24Zm.56 4.52-.99.11 1.98.06-.99-.16Zm.15-3.31 1 .02v-.16l-.04-.16-.96.3Zm-.79-2.96 1-.08-1 .08Zm.83-1.19.29-.96-.29.96Zm2.28 4.48-.99.13.99-.13Zm.43 4.55h-1 1Zm-1.84 8.13-.92-.4-.28.63.49.48.7-.71Zm.03.06-.99.12.06.51.45.25.48-.88Z" style="clip-path:url(#clippath-31)"/><ellipse class="cls-10" cx="149.55" cy="145.62" rx="2.22" ry="2.86" transform="rotate(-4.55 149.397 145.48)"/><ellipse class="cls-10" cx="132" cy="147.06" rx="2.22" ry="2.86" transform="rotate(-4.55 131.818 146.925)"/><path class="cls-10" d="M154.55 138.73c-1.79-1.19-6.38-2.75-10.41.71l1.3 1.52c3.08-2.64 6.61-1.49 8-.56l1.11-1.66Zm-10.41.71a.999.999 0 1 0 1.3 1.52l-1.3-1.52Zm9.3.95a1.001 1.001 0 1 0 1.11-1.67l-1.11 1.66ZM127.5 163.01c1.46.79 3.93 1.78 6.67 2.25 2.73.47 5.87.44 8.55-.97l-.93-1.77c-2.14 1.12-4.77 1.2-7.28.77-2.5-.43-4.77-1.34-6.06-2.04l-.95 1.76Zm15.22 1.27c.49-.26.68-.86.42-1.35a.996.996 0 0 0-1.35-.42l.93 1.77Zm-14.27-3.04a.993.993 0 0 0-1.35.41.993.993 0 0 0 .41 1.35l.95-1.76ZM135.51 140c-1.79-1.19-6.38-2.75-10.41.71l1.3 1.52c3.08-2.64 6.61-1.49 8-.56l1.11-1.66Zm-10.4.7a.999.999 0 1 0 1.3 1.52l-1.3-1.52Zm9.29.96a1.001 1.001 0 1 0 1.11-1.67l-1.11 1.66Z"/></g><path class="cls-9" d="M232.18 73.96a79.83 79.83 0 0 1-34.94 0c-6.67-1.74-11.9-9.45-11.91-15.78V44.72c0-6.33 5.24-14.04 11.91-15.78a79.83 79.83 0 0 1 34.94 0c6.67 1.74 11.91 9.45 11.91 15.78v13.46c0 6.33-5.24 14.04-11.91 15.78Z"/><path class="cls-9" d="m194.38 65.51-3.59 13.55c-.59 2.22 1.72 4.09 3.76 3.07l16.73-8.37c2.06-1.03 1.93-4.02-.22-4.86l-13.15-5.18c-1.48-.58-3.14.26-3.55 1.8Z"/><path class="cls-11" d="M211.26 63.34h3.37v3.61h-3.37z"/><path class="cls-9" d="M207.71 44.95a4.96 4.96 0 0 1 4.96-4.96h4.96a4.96 4.96 0 0 1 4.96 4.96v2.48a4.96 4.96 0 0 1-4.96 4.96"/><path class="cls-11" d="M220.79 47.43a3.15 3.15 0 0 1-3.15 3.15v3.61c3.74 0 6.77-3.03 6.77-6.77h-3.61Zm0-2.48v2.48h3.61v-2.48h-3.61Zm-3.16-3.15a3.15 3.15 0 0 1 3.15 3.15h3.61c0-3.74-3.03-6.77-6.77-6.77v3.61Zm-4.96 0h4.96v-3.61h-4.96v3.61Zm-3.15 3.15a3.15 3.15 0 0 1 3.15-3.15v-3.61c-3.74 0-6.77 3.03-6.77 6.77h3.61Z"/><path class="cls-9" d="M212.67 59.83v-2.48a4.96 4.96 0 0 1 4.96-4.96"/><path class="cls-11" d="M214.48 57.35a3.15 3.15 0 0 1 3.15-3.15v-3.61c-3.74 0-6.77 3.03-6.77 6.77h3.61Zm0 2.48v-2.48h-3.61v2.48h3.61Z"/></g></svg>