<svg width="500" height="250" viewBox="0 0 500 250" fill="none" xmlns="http://www.w3.org/2000/svg">
<path d="M266.859 9H122.109C117.078 9 113 12.439 113 16.6812V113.656C113 117.899 117.078 121.338 122.109 121.338H266.859C271.89 121.338 275.969 117.899 275.969 113.656V16.6812C275.969 12.439 271.89 9 266.859 9Z" fill="white" stroke="#20380E" stroke-width="1.74044" stroke-linecap="round" stroke-linejoin="round"/>
<path d="M167.518 95.9735H163.934V94.1811H167.518V95.9735ZM160.349 95.9735H156.764V94.1811H160.349V95.9735ZM153.179 95.9735H149.594V94.1811H153.179V95.9735ZM146.009 95.9735H142.424V94.1811H146.009V95.9735ZM138.839 95.9735H135.944C135.693 95.9735 135.442 95.9735 135.2 95.9466L135.317 94.1542C135.523 94.1721 135.738 94.1721 135.944 94.1721H138.839V95.9646V95.9735ZM169.01 95.7955L168.947 94.0031C170.049 93.9672 171.371 93.2794 172.384 92.8671L173.056 94.5251C171.846 95.0181 170.318 95.7507 169.01 95.7955ZM131.436 95.0235C130.244 94.4947 129.169 93.7598 128.228 92.8457L129.473 91.5641C130.262 92.3259 131.167 92.9443 132.162 93.3924L131.427 95.0325L131.436 95.0235ZM174.993 93.0966L173.783 91.7702C174.599 91.0263 175.262 90.166 175.773 89.1891L177.359 90.0226C176.759 91.1787 175.961 92.2094 174.993 93.0966ZM125.96 89.6999C125.396 88.5259 125.046 87.2622 124.921 85.9626L126.704 85.7923C126.812 86.8857 127.098 87.9343 127.573 88.9202L125.96 89.6999ZM178.524 86.3211L176.75 86.0971C176.803 85.7027 176.821 85.2994 176.821 84.8961V82.6287H178.614V84.8961C178.614 85.3711 178.587 85.8551 178.524 86.3211ZM126.659 82.2971H124.867V78.7121H126.659V82.2971ZM178.614 79.0437H176.821V75.4588H178.614V79.0437ZM126.659 75.1272H124.867V71.5423H126.659V75.1272ZM178.614 71.8739H176.821V68.289H178.614V71.8739ZM126.659 67.9574H124.867V64.3724H126.659V67.9574ZM178.614 64.704H176.821V61.1191H178.614V64.704ZM126.659 60.7875H124.867V57.2026H126.659V60.7875ZM178.614 57.5342H176.821V53.9493H178.614V57.5342ZM126.659 53.6177H124.867V53.3219C124.867 52.121 125.055 50.9379 125.431 49.8087L127.134 50.3733C126.821 51.3233 126.659 52.3092 126.659 53.3219V53.6177ZM176.436 50.6601C176.122 49.6115 175.629 48.6346 174.975 47.7563L176.409 46.6808C177.198 47.7294 177.78 48.8945 178.157 50.1492L176.436 50.6601ZM128.685 47.5143L127.287 46.394C128.102 45.3723 129.079 44.512 130.199 43.8308L131.131 45.3634C130.199 45.937 129.375 46.654 128.685 47.5143ZM172.6 45.5247C171.677 44.9242 170.673 44.494 169.607 44.2521L170.01 42.5044C171.283 42.7912 172.484 43.302 173.586 44.019L172.609 45.5157L172.6 45.5247ZM134.161 44.1893L133.82 42.4327C134.519 42.2983 135.227 42.2266 135.944 42.2266H137.566V44.019H135.953C135.389 44.0101 134.752 44.0728 134.17 44.1893H134.161ZM166.237 44.019H162.652V42.2266H166.237V44.019ZM159.067 44.019H155.482V42.2266H159.067V44.019ZM151.897 44.019H148.312V42.2266H151.897V44.019ZM144.727 44.019H141.142V42.2266H144.727V44.019Z" fill="#20380E"/>
<path d="M233.338 45.2104H188.634C188.141 45.2104 187.738 44.8071 187.738 44.3142C187.738 43.8213 188.141 43.418 188.634 43.418H233.338C233.831 43.418 234.234 43.8213 234.234 44.3142C234.234 44.8071 233.831 45.2104 233.338 45.2104Z" fill="#20380E"/>
<path d="M260.162 54.1479H188.634C188.141 54.1479 187.738 53.7446 187.738 53.2517C187.738 52.7588 188.141 52.3555 188.634 52.3555H260.162C260.655 52.3555 261.058 52.7588 261.058 53.2517C261.058 53.7446 260.655 54.1479 260.162 54.1479Z" fill="#20380E"/>
<path d="M260.162 63.0893H188.634C188.141 63.0893 187.738 62.686 187.738 62.1931C187.738 61.7002 188.141 61.2969 188.634 61.2969H260.162C260.655 61.2969 261.058 61.7002 261.058 62.1931C261.058 62.686 260.655 63.0893 260.162 63.0893Z" fill="#20380E"/>
<path d="M236.322 93.1845H196.386C192.111 93.1845 188.633 89.7161 188.633 85.4321C188.633 81.1481 192.102 77.6797 196.386 77.6797H236.322C240.597 77.6797 244.074 81.1481 244.074 85.4321C244.074 89.7161 240.606 93.1845 236.322 93.1845Z" fill="#94B73D"/>
<path d="M122.193 19.4047C123.63 19.4047 124.796 18.2394 124.796 16.802C124.796 15.3645 123.63 14.1992 122.193 14.1992C120.756 14.1992 119.59 15.3645 119.59 16.802C119.59 18.2394 120.756 19.4047 122.193 19.4047Z" stroke="#20380E" stroke-width="1.74044" stroke-linecap="round" stroke-linejoin="round"/>
<path d="M130.942 19.4047C132.38 19.4047 133.545 18.2394 133.545 16.802C133.545 15.3645 132.38 14.1992 130.942 14.1992C129.505 14.1992 128.34 15.3645 128.34 16.802C128.34 18.2394 129.505 19.4047 130.942 19.4047Z" stroke="#20380E" stroke-width="1.74044" stroke-linecap="round" stroke-linejoin="round"/>
<path d="M139.692 19.4047C141.129 19.4047 142.295 18.2394 142.295 16.802C142.295 15.3645 141.129 14.1992 139.692 14.1992C138.254 14.1992 137.089 15.3645 137.089 16.802C137.089 18.2394 138.254 19.4047 139.692 19.4047Z" stroke="#20380E" stroke-width="1.74044" stroke-linecap="round" stroke-linejoin="round"/>
<path d="M341.212 109.14C337.201 101.252 332.098 95.0182 327.178 91.118C329.361 87.471 330.635 83.2148 330.635 78.658C330.635 65.2092 319.733 54.2997 306.276 54.2997C303.049 54.2997 299.971 54.9405 297.147 56.0877C292.748 51.7445 286.704 49.0547 280.035 49.0547C266.578 49.0547 255.677 59.9562 255.677 73.413C255.677 78.0805 257.014 82.4237 259.284 86.1261C256.959 90.9123 253.122 98.2143 249.712 101.814C244.396 107.431 242.268 114.511 245.725 119.638C249.182 124.764 256.365 123.791 258.493 129.163C260.621 134.534 265.408 146.258 282.962 142.35C300.517 138.442 313.816 143.814 320.469 136.243C327.122 128.672 328.981 129.89 331.639 128.182C334.298 126.473 346.797 120.12 341.212 109.132V109.14Z" fill="#20380E"/>
<path d="M364.027 239.093L348.245 162.861L292.424 131.676L253.984 146.501C241.128 151.461 231.405 162.268 227.838 175.574L210.805 239.093" fill="white"/>
<path d="M364.027 239.093L348.245 162.861L292.424 131.676L253.984 146.501C241.128 151.461 231.405 162.268 227.838 175.574L210.805 239.093" stroke="#20380E" stroke-width="1.74044" stroke-linecap="round" stroke-linejoin="round"/>
<path d="M308.571 140.703L300.81 98.0703L273.92 102.967L280.019 136.471L259.546 144.366C261.626 156.288 277.876 165.568 297.622 165.568C312.036 165.568 324.591 160.615 331.125 153.306L308.571 140.711V140.703Z" fill="white" stroke="#20380E" stroke-width="1.74044" stroke-linecap="round" stroke-linejoin="round"/>
<path d="M385.435 166.154C384.517 164.137 383.053 162.499 381.258 161.209C381.258 161.194 381.265 161.178 381.273 161.162C381.313 160.3 381.186 159.445 380.886 158.63C374.865 142.247 354.937 138.837 354.091 138.702C352.39 138.425 350.681 138.829 349.281 139.834C347.881 140.838 346.955 142.334 346.678 144.034C346.425 145.577 346.741 147.128 347.548 148.449C347.461 148.378 347.382 148.306 347.303 148.243C346.029 147.318 344.597 147.017 343.039 147.357C342.406 147.492 340.927 147.824 340.357 163.67C340.365 164.595 340.674 185.979 347.485 191.81C346.828 195.457 340.65 221.476 336.449 238.904C336.386 239.165 336.449 239.434 336.607 239.648C336.773 239.854 337.027 239.98 337.288 239.98H379.122C379.122 239.98 379.169 239.98 379.193 239.98C379.24 239.98 379.28 239.957 379.327 239.941C379.383 239.925 379.438 239.917 379.485 239.893C379.533 239.87 379.58 239.838 379.62 239.798C379.667 239.767 379.707 239.735 379.747 239.696C379.786 239.656 379.81 239.608 379.841 239.561C379.873 239.514 379.905 239.466 379.921 239.419C379.944 239.363 379.944 239.308 379.952 239.252C379.952 239.205 379.976 239.165 379.976 239.118C379.976 239.102 379.976 239.094 379.976 239.086C379.976 239.071 379.976 239.063 379.976 239.047C378.884 225.859 378.006 205.124 380.047 202.062C386.439 192.482 389.153 174.366 385.427 166.178L385.435 166.154Z" fill="white"/>
<path d="M216.011 157.425L218.946 152.687C226.129 141.081 227.157 126.699 221.715 114.183L210.243 87.8314C209.041 85.5926 206.043 85.1258 204.207 86.8662C203.234 87.7918 202.862 89.1921 203.108 90.5212L205.758 104.84C204.603 103.48 202.704 102.831 200.845 103.408C198.527 104.128 197.23 106.604 197.752 108.978L197.965 109.943C197.103 109.761 196.178 109.816 195.268 110.188C193.163 111.05 192.064 113.384 192.554 115.607L193.045 117.838C190.513 117.822 188.44 119.848 188.401 122.387L188.33 126.976C188.298 128.937 188.963 130.868 190.284 132.316C191.423 133.558 192.38 133.676 193.282 133.605L196.083 144.427C198.369 153.256 207.008 158.897 216.011 157.425Z" fill="white" stroke="#20380E" stroke-width="1.74044" stroke-linecap="round" stroke-linejoin="round"/>
<path d="M203.504 125.544C202.665 124.942 202.016 124.056 201.731 122.98L197.902 109.508" stroke="#20380E" stroke-width="1.74044" stroke-linecap="round" stroke-linejoin="round"/>
<path d="M205.979 105.078L207.293 109.421" stroke="#20380E" stroke-width="1.74044" stroke-linecap="round" stroke-linejoin="round"/>
<path d="M196.779 131.555C195.94 132.82 194.492 133.651 192.855 133.627" stroke="#20380E" stroke-width="1.74044" stroke-linecap="round" stroke-linejoin="round"/>
<path d="M220.014 126.85L209.729 111.012C208.804 109.588 206.945 109.098 205.441 109.889C204.207 110.538 203.511 111.883 203.709 113.259L205.03 122.808C201.438 128.599 201.399 135.916 204.927 141.747L205.426 142.57" stroke="#20380E" stroke-width="1.74044" stroke-linecap="round" stroke-linejoin="round"/>
<path d="M202.253 133.027C202.048 133.106 201.842 133.169 201.62 133.217C199.128 133.771 196.66 132.196 196.114 129.704L193.163 118.02" stroke="#20380E" stroke-width="1.74044" stroke-linecap="round" stroke-linejoin="round"/>
<path d="M205.694 153.286L211.28 239.09H217.965H228.637H250.835L225.053 132.504" fill="white"/>
<path d="M250.835 239.09L225.053 132.504" stroke="#20380E" stroke-width="1.74044" stroke-linecap="round" stroke-linejoin="round"/>
<path d="M205.141 155.812L210.726 239.093" stroke="#20380E" stroke-width="1.74044" stroke-linecap="round" stroke-linejoin="round"/>
<path d="M204.001 231.586H304.876C308.183 231.586 310.864 234.268 310.864 237.575V240.011H204.001V231.586Z" fill="#20380E"/>
<path d="M245.463 240.017H148.299L126.947 175.478C124.882 169.244 129.526 162.82 136.092 162.82H212.965C217.118 162.82 220.804 165.486 222.11 169.426L245.463 240.017Z" fill="#20380E"/>
<path d="M184.55 207.761C187.223 205.088 187.223 200.755 184.55 198.083C181.878 195.411 177.545 195.411 174.873 198.083C172.2 200.755 172.2 205.088 174.873 207.761C177.545 210.433 181.878 210.433 184.55 207.761Z" fill="white" stroke="#20380E" stroke-width="1.74044" stroke-linecap="round" stroke-linejoin="round"/>
<path d="M281.499 121.281C270.027 121.281 260.732 111.985 260.732 100.514V84.1065C260.732 72.6354 270.027 63.3398 281.499 63.3398C292.97 63.3398 302.265 72.6354 302.265 84.1065V100.514C302.265 111.985 292.97 121.281 281.499 121.281Z" fill="white" stroke="#20380E" stroke-width="1.74044" stroke-linecap="round" stroke-linejoin="round"/>
<path d="M281.58 90.3298C281.572 91.6161 282.335 92.6617 283.276 92.6654C284.216 92.669 284.981 91.6292 284.984 90.335C284.988 89.0408 284.229 88.0031 283.289 87.9995C282.349 87.9959 281.584 89.0356 281.58 90.3298Z" fill="#20380E"/>
<path d="M262.594 90.3298C262.586 91.6161 263.349 92.6618 264.289 92.6654C265.23 92.669 265.994 91.6292 265.998 90.335C266.002 89.0408 265.243 88.0031 264.303 87.9995C263.363 87.9958 262.598 89.0356 262.594 90.3298Z" fill="#20380E"/>
<path d="M269.434 90.6041C269.434 95.7384 265.273 99.8997 260.139 99.8997C255.004 99.8997 250.843 95.7384 250.843 90.6041C250.843 85.4698 255.004 81.3086 260.139 81.3086C265.273 81.3086 269.434 85.4698 269.434 90.6041Z" stroke="#94B73D" stroke-width="1.74044" stroke-linecap="round" stroke-linejoin="round"/>
<path d="M292.851 90.6041C292.851 95.7384 288.69 99.8997 283.556 99.8997C278.422 99.8997 274.26 95.7384 274.26 90.6041C274.26 85.4698 278.422 81.3086 283.556 81.3086C288.69 81.3086 292.851 85.4698 292.851 90.6041Z" stroke="#94B73D" stroke-width="1.74044" stroke-linecap="round" stroke-linejoin="round"/>
<path d="M269.292 88.799C270.565 87.5253 272.638 87.5253 273.912 88.799" stroke="#94B73D" stroke-width="1.74044" stroke-linecap="round" stroke-linejoin="round"/>
<path d="M270.993 89.043C270.993 89.043 269.102 97.6582 268.793 99.541C268.627 100.546 271.72 101.74 271.72 101.74" stroke="#20380E" stroke-width="1.74044" stroke-linecap="round" stroke-linejoin="round"/>
<path d="M269.766 106.385C269.766 106.385 273.674 109.075 279.537 104.922" stroke="#20380E" stroke-width="1.74044" stroke-linecap="round" stroke-linejoin="round"/>
<path d="M312.992 97.1073C312.992 101.696 309.274 105.414 304.686 105.414C300.097 105.414 296.379 101.696 296.379 97.1073C296.379 92.5189 300.097 88.8086 304.686 88.8086C309.274 88.8086 312.992 92.5268 312.992 97.1073Z" fill="white"/>
<path d="M302.083 97.1375C302.083 97.1375 302.985 92.8576 307.257 93.087" stroke="#20380E" stroke-width="1.74044" stroke-linecap="round" stroke-linejoin="round"/>
<path d="M288.468 58.918C283.453 58.918 278.761 60.342 274.79 62.8102C274.671 63.807 274.608 64.8197 274.608 65.8481C274.608 80.1988 286.245 91.8361 300.596 91.8361C305.612 91.8361 310.303 90.4121 314.274 87.9438C314.393 86.947 314.456 85.9344 314.456 84.9059C314.456 70.5552 302.819 58.918 288.468 58.918Z" fill="#20380E"/>
<path d="M355.617 165.76C353.007 165.04 351.488 162.659 351.124 158.869C350.839 155.863 348.806 146.971 343.221 148.197C341.765 148.514 341.219 163.648 341.219 163.648C341.219 163.648 341.464 186.289 348.395 191.416C348.711 191.653 337.287 239.096 337.287 239.096" stroke="#20380E" stroke-width="1.74044" stroke-linecap="round" stroke-linejoin="round"/>
<path d="M300.888 126.574H340.919V162.404C340.919 167.324 336.923 171.311 332.011 171.311H309.804C304.884 171.311 300.896 167.316 300.896 162.404V126.574H300.888Z" fill="#94B73D"/>
<path d="M343.253 136.59H336.821C333.557 136.59 330.911 139.236 330.911 142.499V151.874C330.911 155.138 333.557 157.784 336.821 157.784H343.253C346.516 157.784 349.162 155.138 349.162 151.874V142.499C349.162 139.236 346.516 136.59 343.253 136.59Z" stroke="#94B73D" stroke-width="1.74044" stroke-linecap="round" stroke-linejoin="round"/>
<path d="M366.772 158.189C361.48 152.28 352.263 150.602 352.152 150.587C349.107 150.088 347.042 147.217 347.54 144.171C348.039 141.125 350.91 139.06 353.956 139.559C354.779 139.693 374.232 143.039 380.071 158.933C380.34 159.661 380.443 160.404 380.411 161.124" fill="white"/>
<path d="M366.772 158.189C361.48 152.28 352.263 150.602 352.152 150.587C349.107 150.088 347.042 147.217 347.54 144.171C348.039 141.125 350.91 139.06 353.956 139.559C354.779 139.693 374.232 143.039 380.071 158.933C380.34 159.661 380.443 160.404 380.411 161.124" stroke="#20380E" stroke-width="1.74044" stroke-linecap="round" stroke-linejoin="round"/>
<path d="M379.114 239.094C379.114 239.094 376.377 205.986 379.328 201.556C385.696 191.999 388.18 174.294 384.636 166.509C381.1 158.725 368.624 156.676 361.045 159.144C353.205 161.699 356.433 168.93 357.564 169.318" stroke="#20380E" stroke-width="1.74044" stroke-linecap="round" stroke-linejoin="round"/>
<path d="M357.651 178.993C354.842 177.3 353.846 169.61 362.342 167.49C370.839 165.37 376.677 169.08 376.677 169.08" stroke="#20380E" stroke-width="1.74044" stroke-linecap="round" stroke-linejoin="round"/>
<path d="M365.523 187.933C360.214 193.771 354.368 187.403 355.254 183.155C355.942 179.864 361.535 171.739 375.609 179.436" stroke="#20380E" stroke-width="1.74044" stroke-linecap="round" stroke-linejoin="round"/>
<path d="M362.603 186.602C362.603 186.602 367.651 187.132 367.382 190.32" stroke="#20380E" stroke-width="1.74044" stroke-linecap="round" stroke-linejoin="round"/>
<path d="M360.783 158.324C356.227 159.811 355.238 162.746 355.095 164.637C353.323 163.79 352.279 161.829 351.986 158.783C351.788 156.726 350.95 152.881 349.13 150.199C349.961 150.832 350.942 151.259 352.002 151.433C352.081 151.449 359.644 152.81 364.834 157.477C363.37 157.636 362.002 157.92 360.783 158.316V158.324Z" fill="white"/>
<path d="M251.223 188.859L245.448 213.684" stroke="#20380E" stroke-width="1.74044" stroke-linecap="round" stroke-linejoin="round"/>
</svg>
