<svg version="1.1" id="Layer_1" xmlns="http://www.w3.org/2000/svg" xmlns:xlink="http://www.w3.org/1999/xlink" x="0" y="0" viewBox="0 0 470 250" style="enable-background:new 0 0 470 250" xml:space="preserve"><style>.st3{fill:#fff}.st3,.st4{clip-path:url(#SVGID_00000135680100378843839800000013368818271233107361_)}.st5{clip-path:url(#SVGID_00000111905922627870145030000014826748073936662973_);fill:#20380e}.st6{clip-path:url(#SVGID_00000135680100378843839800000013368818271233107361_);fill:#e1e8f2}.st7,.st8,.st9{clip-path:url(#SVGID_00000077319583913307802240000014348191187465532044_);fill:#20380e}.st8,.st9{clip-path:url(#SVGID_00000135680100378843839800000013368818271233107361_)}.st9{clip-path:url(#SVGID_00000022556492047859822660000014709044528657222542_)}.st10,.st11,.st12{clip-path:url(#SVGID_00000009588872953577512750000015418937497278863799_);fill:#20380e}.st11,.st12{clip-path:url(#SVGID_00000177470334291607441370000005081889018690536071_)}.st12{clip-path:url(#SVGID_00000049931353834620743130000009963089770086539950_)}.st13,.st14,.st15{clip-path:url(#SVGID_00000181081267601588806050000011008824291891019427_);fill:#20380e}.st14,.st15{clip-path:url(#SVGID_00000136398150506580106090000017619537198171196310_)}.st15{clip-path:url(#SVGID_00000121982967019468945060000018198291234037246391_)}.st16{clip-path:url(#SVGID_00000135680100378843839800000013368818271233107361_);enable-background:new}.st17{clip-path:url(#SVGID_00000023980646645779190210000003734245288897544635_);fill:#bcbec0}.st18,.st19{clip-path:url(#SVGID_00000135680100378843839800000013368818271233107361_);fill:#eaa15e}.st19{fill:#152409}.st20{clip-path:url(#SVGID_00000116228951393075935270000008579988205195153287_);fill:#20380e}.st21,.st22{clip-path:url(#SVGID_00000135680100378843839800000013368818271233107361_);fill:#4b702f}.st22{fill:#94b73d}.st23,.st24,.st25{clip-path:url(#SVGID_00000063591283561279236540000011275215289679734151_);fill:#20380e}.st24,.st25{clip-path:url(#SVGID_00000090289192809184017190000009664509873481423763_)}.st25{clip-path:url(#SVGID_00000156548943611194407160000017889024051951025829_)}.st26,.st27,.st28{clip-path:url(#SVGID_00000135680100378843839800000013368818271233107361_);fill:#5fa43a}.st27,.st28{fill:#94d7f2}.st28{fill:#b4cc77}.st29,.st30{clip-path:url(#SVGID_00000067210826196412195620000013067221322789533063_);fill:#20380e}.st30{clip-path:url(#SVGID_00000018205694575850712450000011118221002246216605_)}.st31,.st32,.st33{clip-path:url(#SVGID_00000165924778855855544670000015075416577343883908_);fill:#20380e}.st32,.st33{clip-path:url(#SVGID_00000023256478004318003120000017234545443606474124_)}.st33{clip-path:url(#SVGID_00000064354079321109232410000012262935871088370366_)}.st34,.st35,.st36{clip-path:url(#SVGID_00000008123142874138150670000004366531477472944524_);fill:#20380e}.st35,.st36{clip-path:url(#SVGID_00000159434383547711884990000012151650840685509026_)}.st36{clip-path:url(#SVGID_00000049211500597004331860000017036356491167579818_)}</style><switch><g><defs><filter id="Adobe_OpacityMaskFilter" filterUnits="userSpaceOnUse" x="0" y="0" width="470" height="250"><feColorMatrix values="1 0 0 0 0 0 1 0 0 0 0 0 1 0 0 0 0 0 1 0"/></filter></defs><mask maskUnits="userSpaceOnUse" x="0" y="0" width="470" height="250" id="SVGID_1_"><g style="filter:url(#Adobe_OpacityMaskFilter)"><path d="M0 20C0 9 9 0 20 0h430c11 0 20 9 20 20v230H0V20z" style="fill:#f4f7eb"/></g></mask><g style="mask:url(#SVGID_1_)"><defs><path id="SVGID_00000042708770579360643350000014002707470382824608_" d="M0 0h470v250H0z"/></defs><clipPath id="SVGID_00000120557429947375079470000010878964257929508276_"><use xlink:href="#SVGID_00000042708770579360643350000014002707470382824608_" style="overflow:visible"/></clipPath><path style="clip-path:url(#SVGID_00000120557429947375079470000010878964257929508276_);fill:#fff" d="M252.4 99.8c-.7-4.1-1.5-8.2-2.2-12.3-5.9 1.1-11.8 2.2-17.6 3.3.8 4.1 1.6 8.3 2.4 12.4 5.8-1.2 11.6-2.3 17.4-3.4z"/><g style="clip-path:url(#SVGID_00000120557429947375079470000010878964257929508276_)"><defs><path id="SVGID_00000096035536442571650710000010392098200776851896_" d="M252.4 99.8c-.7-4.1-1.5-8.2-2.2-12.3-5.9 1.1-11.8 2.2-17.6 3.3.8 4.1 1.6 8.3 2.4 12.4 5.8-1.2 11.6-2.3 17.4-3.4z"/></defs><clipPath id="SVGID_00000033331770361735684110000004959415313530397095_"><use xlink:href="#SVGID_00000096035536442571650710000010392098200776851896_" style="overflow:visible"/></clipPath><path style="clip-path:url(#SVGID_00000033331770361735684110000004959415313530397095_);fill:#20380e" d="M235.3 105.1c2.9-.6 5.8-1.1 8.7-1.7 2.9-.6 5.8-1.1 8.7-1.7l-.8-3.9c-2.9.6-5.8 1.1-8.7 1.7-2.9.6-5.8 1.1-8.7 1.7l.8 3.9zm-4.7-14c.4 2.1.8 4.1 1.2 6.2.4 2.1.8 4.1 1.2 6.2l3.9-.8c-.4-2.1-.8-4.1-1.2-6.2-.4-2.1-.8-4.1-1.2-6.2l-3.9.8zm19.2-5.6c-2.9.5-5.9 1.1-8.8 1.6-2.9.5-5.9 1.1-8.8 1.6l.7 3.9c2.9-.5 5.9-1.1 8.8-1.6 2.9-.5 5.9-1.1 8.8-1.6l-.7-3.9zm4.5 13.9c-.7-4.1-1.5-8.2-2.2-12.3l-3.9.7c.7 4.1 1.5 8.2 2.2 12.3l3.9-.7zm-19.3 3.7-2 .4.4 2 2-.4-.4-2zm-2.5-12.3-.4-2-2 .4.4 2 2-.4zm17.7-3.3 2-.3-.4-2-2 .4.4 1.9zm2.2 12.3.4 2 1.9-.4-.3-1.9-2 .3z"/></g><path style="clip-path:url(#SVGID_00000120557429947375079470000010878964257929508276_);fill:#e1e8f2" d="M264.4 200.8c-1.3.6 2.2 11.3 4.2 10.5 1.4-.8 2.8-1.7 4.2-2.5.4-.7.8-1.7 1-2.9.7-3.6-1-6.5-1.6-7.5l-7.8 2.4z"/><path style="clip-path:url(#SVGID_00000120557429947375079470000010878964257929508276_);fill:#fff" d="M282.1 191.9c-1.5-.1-2.7.3-3.4 1.5l11.2 28.8c2.2.5 4-.2 5-2.8 1.5-12.2-3.6-21-12.8-27.5z"/><g style="clip-path:url(#SVGID_00000120557429947375079470000010878964257929508276_)"><defs><path id="SVGID_00000032650487747697508290000003585868337297253564_" d="M282.1 191.9c-1.5-.1-2.7.3-3.4 1.5l11.2 28.8c2.2.5 4-.2 5-2.8 1.5-12.2-3.6-21-12.8-27.5z"/></defs><clipPath id="SVGID_00000077324901383647044730000003937437551061323400_"><use xlink:href="#SVGID_00000032650487747697508290000003585868337297253564_" style="overflow:visible"/></clipPath><path style="clip-path:url(#SVGID_00000077324901383647044730000003937437551061323400_);fill:#20380e" d="M282.1 189.9v4-4zm14.8 29.7c.8-6.4-.2-12.1-2.6-17s-6.2-9-11.1-12.4l-2.3 3.3c4.4 3.1 7.7 6.7 9.8 10.9 2 4.1 2.9 9 2.2 14.8l4 .4zm-7.5 4.5c1.4.3 2.9.3 4.3-.4s2.4-2 3-3.6l-3.7-1.5c-.4 1-.8 1.4-1.1 1.6-.3.2-.8.2-1.5 0l-1 3.9zm-12.6-29.9L288 223l3.7-1.5-11.2-28.8-3.7 1.5zm5.5-4.3c-2-.2-4 .4-5.3 2.5l3.4 2.1c.2-.4.6-.6 1.5-.6l.4-4zm-.2 2 1.2-1.6-.5-.4h-.6v2zm12.8 27.5 1.9.7.1-.2v-.3l-2-.2zm-5 2.8-1.9.7.4 1 1 .2.5-1.9zm-11.2-28.8-1.7-1-.5.8.4.9 1.8-.7zm3.4-1.5-.2 2h.2v-2z"/></g><path style="clip-path:url(#SVGID_00000120557429947375079470000010878964257929508276_);fill:#20380e" d="M272.4 205.1c-1.1-.2-2.3.1-3 .9-.7.8-.7 1.8-.7 2 .9.6 2.3 1.5 3.8 2.8 7.2 6.4 4 13.2 11.6 14.2 1.2.2 3.1-.2 5.8-2.9.5-2.5 1.5-9.5-2-17.1-2.9-6.5-7.4-10.2-9.6-11.7-4.8.3-7.8 2.7-9.9 6.2 2.6-.7 5.2 2.7 4 5.6z"/><path style="clip-path:url(#SVGID_00000120557429947375079470000010878964257929508276_);fill:#e1e8f2" d="M275.5 204.4c.4.1.9.4 1.4.7 1.3.9 1.9 2.2 2.1 2.8-1.1 2.3-2.3 4.6-2.8 7.5l-1.4-.4c-.4-.2-1.1-.6-1.7-1.3-.9-1.2-1-2.5-1-2.9-.2-3.2.7-5.7 2.3-6.3.3-.1.7-.1 1.1-.1z"/><path style="clip-path:url(#SVGID_00000120557429947375079470000010878964257929508276_);fill:#fff" d="M264.7 201.5c-2.1.3-5.3.9-8.7 2.6-3.7 1.8-6.3 4.1-7.9 5.7l4.1-12.1c-4.9-3.6-15.9-15.6-17.1-8.8-3.1 16.7-3.1 33.1-.3 35.4 8.1 5.7 19.3-4.8 33.6-13.6 1.2-.8-2.2-9.2-3.7-9.2z"/><g style="clip-path:url(#SVGID_00000120557429947375079470000010878964257929508276_)"><defs><path id="SVGID_00000120521117683275093340000001255497859331574712_" d="M264.7 201.5c-2.1.3-5.3.9-8.7 2.6-3.7 1.8-6.3 4.1-7.9 5.7l4.1-12.1c-4.9-3.6-15.9-15.6-17.1-8.8-3.1 16.7-3.1 33.1-.3 35.4 8.1 5.7 19.3-4.8 33.6-13.6 1.2-.8-2.2-9.2-3.7-9.2z"/></defs><clipPath id="SVGID_00000098914119240611538830000010139060183382486942_"><use xlink:href="#SVGID_00000120521117683275093340000001255497859331574712_" style="overflow:visible"/></clipPath><path style="clip-path:url(#SVGID_00000098914119240611538830000010139060183382486942_);fill:#20380e" d="m263.2 202.9 2.8-2.8-2.8 2.8zm6.2 9.5c1-.6 1.2-1.7 1.2-2.1.1-.6 0-1.2-.1-1.7-.2-1.1-.6-2.4-1.1-3.5-.5-1.2-1.1-2.4-1.7-3.3-.3-.5-.7-.9-1.1-1.3-.3-.3-1.1-.9-2.1-.9l.1 4c-.6 0-.9-.3-.8-.2.1.1.2.3.5.6.4.7.9 1.6 1.3 2.6s.7 2 .8 2.7c.1.4.1.6.1.6 0 .2 0-.5.7-.9l2.2 3.4zM233.6 226c5.1 3.5 10.9 1.8 16.6-1.3 2.9-1.6 6-3.6 9.2-5.7 3.2-2.1 6.5-4.4 10.1-6.6l-2.1-3.4c-3.6 2.2-7 4.6-10.2 6.7-3.2 2.1-6.1 4-8.8 5.5-5.5 3-9.4 3.6-12.4 1.5l-2.4 3.3zm-.6-37.4c-1.6 8.4-2.3 16.8-2.4 23.4 0 3.3.1 6.2.5 8.5.2 1.1.4 2.2.8 3 .3.8.8 1.7 1.5 2.3l2.5-3.1c.1.1-.1-.1-.3-.6-.2-.5-.4-1.3-.5-2.3-.3-2-.5-4.6-.5-7.8 0-6.3.8-14.5 2.3-22.7l-3.9-.7zm20.3 7.5c-1.1-.8-2.7-2.2-4.4-3.7-1.7-1.5-3.7-3.2-5.5-4.5-1.7-1.3-3.7-2.5-5.5-2.9-1-.2-2.1-.1-3.1.6s-1.5 1.8-1.7 3l3.9.7c.1-.6.2-.6.1-.5-.2.1-.2 0 .1.1.8.1 2.1.8 3.8 2.1 1.7 1.2 3.5 2.8 5.2 4.3 1.7 1.5 3.4 3 4.7 4l2.4-3.2zm-3.3 14.4 4.1-12.1-3.8-1.3-4.1 12.1 3.8 1.3zm5-8.2c-4 2-6.7 4.4-8.4 6.1l2.9 2.8c1.4-1.5 3.8-3.6 7.3-5.3l-1.8-3.6zm9.4-2.7c-2.3.3-5.7 1-9.4 2.8l1.8 3.6c3.2-1.6 6.1-2.2 8.1-2.4l-.5-4zm.2 1.9v-2l-4.7.1 3.3 3.3 1.4-1.4zm3.7 9.2-1-1.7 1 1.7zm-33.6 13.6-1.3 1.6h.2l1.1-1.6zm.3-35.3-2-.4 2 .4zm17.1 8.8 1.9.6.5-1.4-1.2-.9-1.2 1.7zm-4 12-1.9-.6 3.3 2-1.4-1.4zm7.8-5.7-.9-1.8.9 1.8zm8.8-2.6.2 2 4.1-.5-2.9-2.9-1.4 1.4z"/></g><path style="clip-path:url(#SVGID_00000120557429947375079470000010878964257929508276_);fill:#fff" d="M288.1 198.2c-1.2.8 3.7 10.9 5.6 9.8 1.3-1 2.5-2 3.8-3.1.3-.8.6-1.8.6-3 .2-3.7-1.8-6.4-2.5-7.2-2.5 1.2-5 2.4-7.5 3.5z"/><g style="clip-path:url(#SVGID_00000120557429947375079470000010878964257929508276_)"><defs><path id="SVGID_00000040569889414525446390000014871132439547569043_" d="M288.1 198.2c-1.2.8 3.7 10.9 5.6 9.8 1.3-1 2.5-2 3.8-3.1.3-.8.6-1.8.6-3 .2-3.7-1.8-6.4-2.5-7.2-2.5 1.2-5 2.4-7.5 3.5z"/></defs><clipPath id="SVGID_00000103238857741343958760000006281062318128915341_"><use xlink:href="#SVGID_00000040569889414525446390000014871132439547569043_" style="overflow:visible"/></clipPath><path style="clip-path:url(#SVGID_00000103238857741343958760000006281062318128915341_);fill:#20380e" d="M289.1 198.3h-2 2zm6.1-4.4c-1.2.6-2.5 1.2-3.7 1.7-1.2.6-2.5 1.2-3.8 1.7l.8 1.8c1.2-.6 2.5-1.2 3.7-1.7 1.2-.6 2.5-1.2 3.8-1.7l-.8-1.8zm4 8.2c.2-4-2-7-2.8-7.9l-1.5 1.3c.7.8 2.5 3.3 2.3 6.5l2 .1zm-.7 3.3c.3-.9.7-2 .7-3.3l-2-.1c0 1.1-.3 2-.6 2.7l1.9.7zm-4.2 3.4c.6-.5 1.3-1 1.9-1.5.6-.5 1.3-1 1.9-1.5l-1.2-1.6c-.6.5-1.3 1-1.9 1.5-.6.5-1.3 1-1.9 1.5l1.2 1.6zm-6.7-11.4c-.4.2-.5.6-.6.8-.1.3-.1.5-.1.8 0 .5.2 1 .3 1.6.3 1.1.9 2.5 1.6 3.8.7 1.3 1.5 2.5 2.2 3.4.4.4.8.8 1.3 1.1.5.3 1.1.5 1.8.1l-1-1.7c.2-.1.3 0 .2-.1-.2-.1-.4-.3-.7-.7-.6-.7-1.3-1.8-2-3.1-.6-1.2-1.2-2.5-1.5-3.4-.2-.5-.2-.9-.2-1.1v-.1s-.1.2-.3.4l-1-1.8zm.5.9h-1v1.6l1.4-.7-.4-.9zm7.5-3.5.8-.6-.5-.6-.7.3.4.9zm2.6 7.2-1-.1 1 .1zm-.7 3 .6.8.2-.2.1-.3-.9-.3zm-3.8 3.1.5.9h.2l-.7-.9zm-5.6-9.9h1v-1.8l-1.5 1 .5.8z"/></g><path style="clip-path:url(#SVGID_00000120557429947375079470000010878964257929508276_);fill:#fff" d="M304.5 187c-1.5.1-2.6.6-3.2 2l15 27c2.3.2 3.9-.7 4.6-3.5-.2-12.3-6.4-20.3-16.4-25.5z"/><g style="clip-path:url(#SVGID_00000120557429947375079470000010878964257929508276_)"><defs><path id="SVGID_00000104666523051880239740000012318715283089837234_" d="M304.5 187c-1.5.1-2.6.6-3.2 2l15 27c2.3.2 3.9-.7 4.6-3.5-.2-12.3-6.4-20.3-16.4-25.5z"/></defs><clipPath id="SVGID_00000054223610852134746390000013531940252604848804_"><use xlink:href="#SVGID_00000104666523051880239740000012318715283089837234_" style="overflow:visible"/></clipPath><path style="clip-path:url(#SVGID_00000054223610852134746390000013531940252604848804_);fill:#20380e" d="m303.1 185.6 2.8 2.8-2.8-2.8zm19.8 26.9c-.1-6.5-1.8-12-4.9-16.5-3.1-4.5-7.4-8-12.6-10.8l-1.8 3.5c4.8 2.5 8.6 5.6 11.2 9.5 2.6 3.8 4.1 8.5 4.2 14.3h3.9zm-6.8 5.5c1.4.2 3-.1 4.2-1 1.3-.9 2.1-2.3 2.5-4l-3.9-1c-.3 1.1-.7 1.5-.9 1.7-.3.2-.7.3-1.5.3l-.4 4zm-16.5-28 15 27 3.5-1.9-15-27-3.5 1.9zm4.8-5c-.9.1-1.9.3-2.8.8-.9.5-1.6 1.3-2.1 2.4l3.7 1.6c.1-.3.3-.4.4-.5.2-.1.5-.2 1-.2l-.2-4.1zm.1 2 .9-1.8-1.3-.7-1 1 1.4 1.5zm16.4 25.5 1.9.5.1-.3v-.3l-2 .1zm-4.6 3.5-1.7 1 .5.9 1 .1.2-2zm-15-27-1.8-.8-.4.9.5.9 1.7-1zm3.2-2 .1 2h.8l.5-.5-1.4-1.5z"/></g><path style="clip-path:url(#SVGID_00000120557429947375079470000010878964257929508276_);fill:#20380e" d="M296.7 201.4c-1.1-.1-2.2.4-2.8 1.3-.6.9-.4 1.9-.4 2.1 1 .5 2.5 1.2 4.1 2.2 8 5.3 5.7 12.5 13.4 12.5 1.3 0 3.1-.6 5.3-3.6.1-2.6.2-9.6-4.3-16.7-3.7-6-8.7-9.1-11.1-10.3-4.7.9-7.4 3.7-8.9 7.5 2.4-1.1 5.4 1.9 4.7 5z"/><path style="clip-path:url(#SVGID_00000120557429947375079470000010878964257929508276_);fill:#fff" d="M299.7 200.3c.4.1 1 .2 1.5.5 1.4.8 2.1 2 2.4 2.5-.8 2.5-1.7 4.9-1.7 7.8l-1.5-.2c-.4-.1-1.2-.4-1.9-1.1-1.1-1-1.3-2.3-1.4-2.7-.7-3.1-.1-5.7 1.4-6.5.3-.2.7-.3 1.2-.3z"/><g style="clip-path:url(#SVGID_00000120557429947375079470000010878964257929508276_)"><defs><path id="SVGID_00000008851230898456064710000014932720985212727448_" d="M299.7 200.3c.4.1 1 .2 1.5.5 1.4.8 2.1 2 2.4 2.5-.8 2.5-1.7 4.9-1.7 7.8l-1.5-.2c-.4-.1-1.2-.4-1.9-1.1-1.1-1-1.3-2.3-1.4-2.7-.7-3.1-.1-5.7 1.4-6.5.3-.2.7-.3 1.2-.3z"/></defs><clipPath id="SVGID_00000038371009691670570300000004379390928005754284_"><use xlink:href="#SVGID_00000008851230898456064710000014932720985212727448_" style="overflow:visible"/></clipPath><path style="clip-path:url(#SVGID_00000038371009691670570300000004379390928005754284_);fill:#20380e" d="M299 201.5c.1-.1.3-.1.6-.1l-.1-2c-.6 0-1.1.2-1.6.4l1.1 1.7zm-.9 5.4c-.3-1.4-.3-2.7-.1-3.7.2-1 .6-1.5 1-1.7l-.9-1.8c-1.1.6-1.8 1.8-2 3.1-.3 1.3-.2 2.9.1 4.5l1.9-.4zm1.1 2.2c-.8-.8-1-1.8-1.1-2.2l-2 .3c.1.5.4 2 1.7 3.3l1.4-1.4zm1.5.9c-.4-.1-.9-.3-1.5-.9l-1.4 1.4c.8.8 1.7 1.1 2.2 1.3l.7-1.8zm1.3.1-1.5-.2-.3 2 1.5.2.3-2zm.7-7.1c-.8 2.4-1.7 5-1.8 8.1h2c0-2.7.8-5 1.7-7.5l-1.9-.6zm-2-1.3c1.2.6 1.7 1.6 2 2.1l1.8-.9c-.3-.6-1.1-2-2.8-2.9l-1 1.7zm-1.2-.4c.4.1.8.2 1.3.4l.9-1.8c-.7-.4-1.3-.5-1.8-.6l-.4 2zm-.9-.7.5.9-.5-.9zm-1.4 6.5 1-.2-1 .2zm1.4 2.7-.7.7.7-.7zm1.8 1.1-.3 1h.2l.1-1zm1.5.2-.1 1 1.1.2v-1.1l-1-.1zm1.7-7.7.9.3.1-.4-.2-.4-.8.5zm-2.4-2.5-.5.9.5-.9zm-1.5-.6.2-1h-.2v1z"/></g><path style="clip-path:url(#SVGID_00000120557429947375079470000010878964257929508276_);fill:#fff" d="M288.5 198.9c-2.1.6-5.1 1.6-8.3 3.7-3.4 2.3-5.7 4.9-7 6.7l2.4-12.5c-5.4-2.9-17.8-13.3-18.2-6.4-.8 16.9 1.4 33.2 4.5 35.1 8.8 4.5 18.5-7.4 31.5-18 1.2-.9-3.3-8.8-4.9-8.6z"/><g style="clip-path:url(#SVGID_00000120557429947375079470000010878964257929508276_)"><defs><path id="SVGID_00000000938818037173204650000017977852105465053351_" d="M288.5 198.9c-2.1.6-5.1 1.6-8.3 3.7-3.4 2.3-5.7 4.9-7 6.7l2.4-12.5c-5.4-2.9-17.8-13.3-18.2-6.4-.8 16.9 1.4 33.2 4.5 35.1 8.8 4.5 18.5-7.4 31.5-18 1.2-.9-3.3-8.8-4.9-8.6z"/></defs><clipPath id="SVGID_00000030463064354872625960000002941975918023621532_"><use xlink:href="#SVGID_00000000938818037173204650000017977852105465053351_" style="overflow:visible"/></clipPath><path style="clip-path:url(#SVGID_00000030463064354872625960000002941975918023621532_);fill:#20380e" d="M294.7 209.1c.9-.8.9-1.9.9-2.3 0-.6-.2-1.1-.3-1.7-.3-1-.9-2.2-1.5-3.4-.6-1.1-1.4-2.2-2.1-3.1l-1.2-1.2c-.4-.3-1.2-.8-2.2-.6l.6 3.9c-.6.1-1-.2-.8-.1.1.1.3.2.5.5.5.6 1.1 1.5 1.7 2.4.5 1 1 1.9 1.2 2.6.1.4.1.6.1.6 0 .2-.1-.5.5-1l2.6 3.4zM261 227.3c5.5 2.8 11.1.3 16.3-3.5 2.7-1.9 5.4-4.3 8.3-6.9 2.9-2.6 5.9-5.3 9.1-7.9l-2.5-3.1c-3.3 2.7-6.3 5.5-9.2 8-2.9 2.5-5.5 4.8-8 6.6-5.1 3.7-8.8 4.8-12.1 3.2l-1.9 3.6zm-5.6-36.9c-.4 8.6 0 17 .8 23.5.4 3.3 1 6.1 1.7 8.3.3 1.1.7 2.1 1.2 2.9.4.8 1 1.6 1.8 2.1l2.1-3.4c.1 0-.1 0-.4-.6-.3-.5-.6-1.2-.9-2.2-.6-1.9-1.1-4.5-1.5-7.7-.8-6.3-1.2-14.5-.8-22.8l-4-.1zm21.2 4.7c-1.2-.7-2.9-1.8-4.9-3.1-1.9-1.3-4.1-2.7-6.1-3.8-1.9-1-4-2-5.9-2.1-1 0-2.1.2-3 1.1-.9.9-1.2 2-1.3 3.2l4 .2c0-.6.2-.6 0-.5-.1.1-.2.1.1.1.8 0 2.2.5 4.1 1.6 1.8 1 3.8 2.3 5.8 3.6 1.9 1.2 3.8 2.5 5.2 3.3l2-3.6zm-1.4 14.7 2.4-12.5-3.9-.8-2.4 12.5 3.9.8zm3.9-8.8c-3.7 2.5-6.1 5.3-7.5 7.2l3.2 2.4c1.2-1.7 3.3-4.1 6.5-6.2l-2.2-3.4zm8.9-4c-2.2.6-5.5 1.7-8.9 4l2.2 3.3c3-2 5.8-3 7.7-3.5l-1-3.8zm5.4 10.5 1.3 1.5-1.3-1.5zm-31.5 18-1 1.7h.2l.8-1.7zm-4.5-35.1 2 .1-2-.1zm18.2 6.5 2 .4.3-1.4-1.3-.7-1 1.7zm-2.4 12.5-2-.4 3.6 1.6-1.6-1.2zm7-6.7-1.1-1.7 1.1 1.7zm8.3-3.8-.3-2h-.2l.5 2z"/></g><path style="clip-path:url(#SVGID_00000120557429947375079470000010878964257929508276_);fill:#20380e" d="M231.9 108.1c-.8-1.7-1.6-4.4-2.8-4.7-5.1-1.1-19.6 19.5-24.8 40.7 1.7 1.2 4.5 2.9 8.1 3.9 3.3 1 8.3 3.1 10.3 3 .9-1.5 2.8-5.3 4.4-8.5 5.1-9.8 10.9-30 5.6-34l-.8-.4z"/><path style="clip-path:url(#SVGID_00000120557429947375079470000010878964257929508276_);fill:#20380e" d="M275.7 114.5c-2.7-7.5-5.7-17.6-8.2-18.4-3.7-.6-9-1-13-.8 0 .6.1 1.2.2 1.8-5 .2-9.9.4-13.7.6-3.6 1.1-6.2 2.3-8.6 3.4-.1-.3-.1-.5-.2-.7-.8.4-3.8 1.8-5 2.9-.1.1-.2.1-.2.2-3.3 3.3-3.2 6.5-2 21.6.3 4.2 1.1 13.1 4.4 28.8 1 4.9 2 9 2.6 11.7 4-.6 6.9-1.1 9.7-1.6 3.4-.6 6.6-1.1 11.3-2 0 .1 0 .2.1.3 5-1 11.8-2.4 18.5-3.7 5.4-1.1 10.6-2.1 14.7-2.9-2.4-13.8-6-28.1-10.6-41.2z"/><path style="clip-path:url(#SVGID_00000120557429947375079470000010878964257929508276_);fill:#fff" d="M251.6 91.8c-3.5 1.8-6.9 3.7-10.4 5.5-2.9-.7-5.8-1.3-8.7-2-.3 2.1-.5 4.3-.8 6.4 1.7 2.9 3.4 5.7 5.1 8.5 1.6-3.8 3.1-7.6 4.7-11.5l10.1 8.7c1.5-3.4 3.1-6.9 4.6-10.3-1.6-1.7-3.1-3.4-4.6-5.3z"/><g style="clip-path:url(#SVGID_00000120557429947375079470000010878964257929508276_)"><defs><path id="SVGID_00000178206827057317436800000006347616842421878451_" d="M251.6 91.8c-3.5 1.8-6.9 3.7-10.4 5.5-2.9-.7-5.8-1.3-8.7-2-.3 2.1-.5 4.3-.8 6.4 1.7 2.9 3.4 5.7 5.1 8.5 1.6-3.8 3.1-7.6 4.7-11.5l10.1 8.7c1.5-3.4 3.1-6.9 4.6-10.3-1.6-1.7-3.1-3.4-4.6-5.3z"/></defs><clipPath id="SVGID_00000180355793722675997970000009918786750845020559_"><use xlink:href="#SVGID_00000178206827057317436800000006347616842421878451_" style="overflow:visible"/></clipPath><path style="clip-path:url(#SVGID_00000180355793722675997970000009918786750845020559_);fill:#20380e" d="M257.7 95.9c-.8-.9-1.5-1.8-2.3-2.7-.8-.9-1.5-1.8-2.3-2.7l-3 2.6c.8.9 1.5 1.8 2.3 2.7.8.9 1.5 1.8 2.3 2.7l3-2.6zm-4.3 12.5c.8-1.7 1.5-3.4 2.3-5.2.8-1.7 1.5-3.4 2.3-5.2l-3.7-1.6c-.8 1.7-1.5 3.4-2.3 5.2-.8 1.7-1.5 3.4-2.3 5.2l3.7 1.6zm-13.2-8.1 10.1 8.7 2.6-3-10.1-8.7-2.6 3zm-1.6 10.7c1.6-3.8 3.1-7.6 4.7-11.4l-3.7-1.5c-1.6 3.8-3.2 7.7-4.7 11.5l3.7 1.4zm-8.7-8.2c1.7 2.9 3.4 5.7 5.1 8.5l3.4-2.1c-1.7-2.9-3.4-5.7-5.2-8.5l-3.3 2.1zm.5-7.7c-.1 1.1-.3 2.1-.4 3.2-.1 1.1-.3 2.1-.4 3.2l4 .5c.1-1.1.3-2.1.4-3.2.1-1.1.3-2.1.4-3.2l-4-.5zm11.2.3c-1.5-.3-2.9-.7-4.4-1-1.5-.3-2.9-.7-4.4-1l-.9 3.9c1.5.3 2.9.7 4.4 1 1.5.3 2.9.7 4.4 1l.9-3.9zm9-5.3c-1.7.9-3.5 1.8-5.2 2.8-1.7.9-3.5 1.8-5.2 2.8l1.9 3.5c1.7-.9 3.5-1.8 5.2-2.8 1.7-.9 3.5-1.8 5.2-2.8l-1.9-3.5zm5.6 7.1 1.8.8.5-1.2-.8-1-1.5 1.4zm-4.6 10.4-1.3 1.5 2 1.8 1.1-2.5-1.8-.8zm-10.1-8.8 1.3-1.5-2.1-1.8-1.1 2.6 1.9.7zm-4.7 11.5-1.7 1 2 3.4 1.5-3.7-1.8-.7zm-5.2-8.6-2-.2-.1.7.4.6 1.7-1.1zm.8-6.3.5-1.9-2.2-.5-.3 2.2 2 .2zm8.8 2-.5 1.9.7.2.7-.4-.9-1.7zm10.4-5.6 1.5-1.3-1-1.2-1.4.7.9 1.8z"/></g><path style="clip-path:url(#SVGID_00000120557429947375079470000010878964257929508276_);fill:#fff" d="M286.5 155.5h-55c-.2 2.9-.3 5.9-.3 8.9-.3 12.3 0 24 .8 35 .8.2 1.7.3 2.5.4 7.6.9 13.9.2 18.7-2 .3-2 1-5.3 1.4-7.3.2 2 .4 5.1.6 7.1 1.7.9 7 1.1 9.4 1.2 9.1.4 13.5-1 16.5-2.3.5-3.6 1-7.3 1.5-10.9 1.2-3.4 2.3-7.5 3.1-12.1 1.1-6.9 1.1-13.1.8-18z"/><g style="clip-path:url(#SVGID_00000120557429947375079470000010878964257929508276_)"><defs><path id="SVGID_00000062909180864621463870000011427521389260565394_" d="M286.5 155.5h-55c-.2 2.9-.3 5.9-.3 8.9-.3 12.3 0 24 .8 35 .8.2 1.7.3 2.5.4 7.6.9 13.9.2 18.7-2 .3-2 1-5.3 1.4-7.3.2 2 .4 5.1.6 7.1 1.7.9 7 1.1 9.4 1.2 9.1.4 13.5-1 16.5-2.3.5-3.6 1-7.3 1.5-10.9 1.2-3.4 2.3-7.5 3.1-12.1 1.1-6.9 1.1-13.1.8-18z"/></defs><clipPath id="SVGID_00000132803169835269915680000011338544714869975718_"><use xlink:href="#SVGID_00000062909180864621463870000011427521389260565394_" style="overflow:visible"/></clipPath><path style="clip-path:url(#SVGID_00000132803169835269915680000011338544714869975718_);fill:#20380e" d="m285.1 156.9 2.8-2.8-2.8 2.8zm2.4 17.1c1.2-7.2 1.3-13.6 1-18.7l-4 .3c.3 4.8.3 10.9-.9 17.7l3.9.7zm-3.2 12.4c1.2-3.5 2.4-7.7 3.2-12.4l-3.9-.7c-.8 4.5-1.9 8.4-3 11.8l3.7 1.3zm-1.4 10.5c.5-3.6 1-7.2 1.5-10.9l-4-.6c-.5 3.6-1 7.3-1.5 10.9l4 .6zm-18.5 4c9.4.4 14.1-1.1 17.4-2.4l-1.5-3.7c-2.7 1.1-6.9 2.5-15.7 2.1l-.2 4zm-10.3-1.5c.7.4 1.6.6 2.4.8.9.2 1.8.3 2.8.4 1.9.2 3.9.3 5 .3l.2-4c-1.2-.1-3.1-.1-4.8-.3-.9-.1-1.7-.2-2.4-.3-.7-.1-1.1-.3-1.3-.4l-1.9 3.5zm-1.6-8.7c.1 1 .2 2.2.3 3.5.1 1.3.2 2.6.3 3.6l4-.4c-.1-1-.2-2.2-.3-3.5-.1-1.3-.2-2.6-.3-3.6l-4 .4zm2.6 7.4c.2-1 .4-2.3.7-3.6.3-1.3.5-2.7.7-3.7l-3.9-.7c-.2 1-.4 2.3-.7 3.6-.3 1.3-.5 2.7-.7 3.7l3.9.7zm-20.8 3.7c7.9 1 14.6.2 19.8-2.2l-1.7-3.6c-4.3 2-10.2 2.8-17.6 1.9l-.5 3.9zm-2.7-.4c.9.2 1.8.3 2.7.4l.5-4c-.8-.1-1.6-.2-2.4-.4l-.8 4zm-2.5-37.1c-.3 12.4 0 24.1.8 35.2l4-.3c-.8-11-1.2-22.6-.8-34.8l-4-.1zm.4-8.9c-.2 2.9-.3 5.9-.3 9l4 .1c.1-3 .2-5.9.3-8.8l-4-.3zm57-1.9h-55v4h55v-4zm0 2 1.4-1.4-3.8-3.8.4 5.3 2-.1zm-.9 18.1 2 .3-2-.3zm-3.2 12.1-1.9-.6-.1.2v.2l2 .2zm-1.4 10.9.8 1.9 1.1-.4.2-1.1-2.1-.4zm-16.5 2.3.1-2-.1 2zm-9.4-1.3-2 .2.1 1.1.9.5 1-1.8zm-.6-7.1 2-.2-4-.2 2 .4zm-1.3 7.3.8 1.8.9-.4.2-1-1.9-.4zm-18.7 2 .2-2-.2 2zm-2.5-.4-2 .1.1 1.5 1.5.3.4-1.9zm-.9-35 2 .1-2-.1zm.4-8.9v-2h-1.9l-.1 1.9 2 .1zm55 0v2h4.8l-3.4-3.4-1.4 1.4z"/></g><g style="clip-path:url(#SVGID_00000120557429947375079470000010878964257929508276_);enable-background:new"><defs><path id="SVGID_00000090260959114836166650000011054040001626750899_" d="M0 0h470v250H0z"/></defs><clipPath id="SVGID_00000037668345730412354940000005484566895507733128_"><use xlink:href="#SVGID_00000090260959114836166650000011054040001626750899_" style="overflow:visible"/></clipPath><path style="clip-path:url(#SVGID_00000037668345730412354940000005484566895507733128_);fill:#bcbec0" d="M232 199.4c1.4.3 2.9.5 4.7.6 1.3.1 2.6.1 3.7 0-.6-.1-2.4-.6-3.6-2.2-.4-.6-.7-1.1-.8-1.6-.5-4.3-1-8.9-1.3-13.6-.6-9.8-.5-18.9 0-27.1h-3.2c-.4 8.6-.6 17.7-.3 27.3.1 5.7.4 11.3.8 16.6z"/></g><path style="clip-path:url(#SVGID_00000120557429947375079470000010878964257929508276_);fill:#20380e" d="M255.1 197.6c2.3 1 7.6 1.1 9.4 1.2-1.5-.3-2.7-.7-3.5-1.1 0 0-1-.6-1.8-1.5-2.2-2.3-.5-11.4-3.7-13.3-.4-.3-1.1-.4-2.5-.6-1.5-.3-3.4-.5-3.5-.2 0 .1.8.5 4.4 1.5.2 1.8.4 3.7.6 5.6.2 2.9.4 5.7.6 8.4zM266.5 174.3c2.2 2.2 6.4 3.2 6.8 2.7-2-1.2-3.9-2.5-5.5-4.1-1.5-1.6-2.7-3.6-3.7-5.7-.3.5.8 5.5 2.4 7.1z"/><path style="clip-path:url(#SVGID_00000120557429947375079470000010878964257929508276_);fill:#eaa15e" d="M237.9 172.4c-.6 2.5-3.5 4.8-4.2 4.6 1-1.7 1.9-3.3 2.2-5.1.4-1.8.3-3.7 0-5.6.7.2 2.4 4.3 2 6.1z"/><path style="clip-path:url(#SVGID_00000120557429947375079470000010878964257929508276_);fill:#152409" d="M286.9 164.3h-55.7c-.6 0-.6-2.4-.5-4.4.1-1.3.1-3.1.7-3.1h55.3c.4.1.6 1.9.7 3.3 0 1.9-.1 4.2-.5 4.2z"/><path style="clip-path:url(#SVGID_00000120557429947375079470000010878964257929508276_);fill:#fff" d="M254.7 164.4h-4.9c-.9 0-1.7-1-1.7-2.3V159c0-1.3.8-2.3 1.7-2.3h4.9c.9 0 1.7 1 1.7 2.3v.7h-3.9v1.5h3.9v.8c0 1.4-.7 2.4-1.7 2.4zm0-9.2h-4.9c-1.6 0-2.9 1.7-2.9 3.8v3.1c0 2.1 1.3 3.8 2.9 3.8h4.9c1.6 0 2.9-1.7 2.9-3.8V159c0-2.1-1.3-3.8-2.9-3.8z"/><path style="clip-path:url(#SVGID_00000120557429947375079470000010878964257929508276_);fill:#eaa15e" d="M232.8 156.1h1.4v9.8h-1.4z"/><path style="clip-path:url(#SVGID_00000120557429947375079470000010878964257929508276_);fill:#fff" d="M279.5 124.8c-1-.7-2.6-1.3-3.8-1-4.6 1.1-1 16.1-7 27.2-2.5 4.6-7.5 10.2-18.6 14.1.8 1.8 1.5 3.5 2.3 5.3 4.8-1.4 16.7-5.6 24.4-17.2 6.7-10.1 6.4-19.9 5.7-23.2-.3-1.2-.8-3.8-3-5.2z"/><g style="clip-path:url(#SVGID_00000120557429947375079470000010878964257929508276_)"><defs><path id="SVGID_00000015350507649050395440000005218437488702916770_" d="M279.5 124.8c-1-.7-2.6-1.3-3.8-1-4.6 1.1-1 16.1-7 27.2-2.5 4.6-7.5 10.2-18.6 14.1.8 1.8 1.5 3.5 2.3 5.3 4.8-1.4 16.7-5.6 24.4-17.2 6.7-10.1 6.4-19.9 5.7-23.2-.3-1.2-.8-3.8-3-5.2z"/></defs><clipPath id="SVGID_00000003810266934665099910000007838651385611260350_"><use xlink:href="#SVGID_00000015350507649050395440000005218437488702916770_" style="overflow:visible"/></clipPath><path style="clip-path:url(#SVGID_00000003810266934665099910000007838651385611260350_);fill:#20380e" d="M284.4 129.6c-.2-1.1-.9-4.5-3.8-6.5l-2.2 3.3c1.4.9 1.8 2.7 2.1 4l3.9-.8zm-6 24.7c7-10.6 6.8-20.9 6-24.7l-3.9.8c.6 2.9 1 12.2-5.4 21.7l3.3 2.2zm-25.5 18c4.9-1.4 17.4-5.8 25.5-18l-3.3-2.2c-7.3 11-18.7 15-23.3 16.4l1.1 3.8zm-4.7-6.4c.4.9.8 1.7 1.2 2.6.4.9.8 1.8 1.2 2.6l3.7-1.6c-.4-.9-.8-1.7-1.2-2.6-.4-.9-.8-1.8-1.2-2.6l-3.7 1.6zm18.7-15.9c-2.2 4.1-6.8 9.4-17.5 13.2l1.3 3.8c11.6-4.1 17-10 19.7-15.1l-3.5-1.9zm8.3-28.2c-2.4.6-3.3 2.9-3.7 4.6-.4 1.9-.6 4.4-.8 7-.4 5.3-1 11.4-3.8 16.6l3.5 1.9c3.3-6 3.9-13 4.3-18.2.2-2.7.4-4.9.7-6.4.2-.8.4-1.2.5-1.5.1-.1.1-.2.1-.2l-.8-3.8zm5.4 1.3c-.7-.4-1.5-.9-2.4-1.1-.9-.3-2-.4-3-.2l.9 3.9c.1 0 .5 0 1 .1s1 .4 1.3.6l2.2-3.3zm1.9 6.9-2 .4 2-.4zm-5.7 23.2-1.7-1.1 1.7 1.1zm-24.4 17.2-1.8.8.7 1.6 1.7-.5-.6-1.9zm-2.4-5.3-.7-1.9-2 .7.9 2 1.8-.8zm18.7-14.1-1.8-1 1.8 1zm7-27.2.5 1.9-.5-1.9zm3.8 1-1.1 1.7 1.1-1.7z"/></g><path style="clip-path:url(#SVGID_00000120557429947375079470000010878964257929508276_);fill:#20380e" d="M267.4 96.7h.1s.3.1.7.2c13.4 5.3 18.9 23 18.9 23 .9 3.7 2 6.4 3 11.2-1.3.5-2.7.9-4.1 1.3-5.5 1.5-10.5 1.9-14.7 1.9-.1-.7-.2-1.6-.4-2.7-.2-1.3-.4-2.4-.5-3.1 0 0 0-.3-.1-.5-.1 0-4.3-30.9-2.9-31.3zM182.1 228.9l37.6 21.1.6-14-38.2-20.6z"/><path style="clip-path:url(#SVGID_00000120557429947375079470000010878964257929508276_);fill:#4b702f" d="M242.6 227.1v13.3l-22.9 9.6.6-14z"/><path style="clip-path:url(#SVGID_00000120557429947375079470000010878964257929508276_);fill:#94b73d" d="m182.1 215.4 38.2 20.6 22.3-8.9-35.8-16.5z"/><path style="clip-path:url(#SVGID_00000120557429947375079470000010878964257929508276_);fill:#fff" d="m207.9 217.8-11 2.6-.6-22.4c2.3 0 5.7.3 9.4 1.4 4.3 1.3 7.4 3.1 7.2 3.5-.1.3-1.8-.5-3.4.5-.9.5-1.5 1.3-1.7 1.7l.1 12.7z"/><g style="clip-path:url(#SVGID_00000120557429947375079470000010878964257929508276_)"><defs><path id="SVGID_00000070113187184164760170000010562874246771662977_" d="m207.9 217.8-11 2.6-.6-22.4c2.3 0 5.7.3 9.4 1.4 4.3 1.3 7.4 3.1 7.2 3.5-.1.3-1.8-.5-3.4.5-.9.5-1.5 1.3-1.7 1.7l.1 12.7z"/></defs><clipPath id="SVGID_00000145032533915210155750000006031219738653756033_"><use xlink:href="#SVGID_00000070113187184164760170000010562874246771662977_" style="overflow:visible"/></clipPath><path style="clip-path:url(#SVGID_00000145032533915210155750000006031219738653756033_);fill:#20380e" d="m208.6 218.6-1.4-1.4 1.4 1.4zm-1.7-13.5v12.8h2v-12.8h-2zm2.2-2.6c-1.2.7-1.8 1.6-2 2l1.7 1c.2-.3.6-.9 1.3-1.3l-1-1.7zm2.9.1c.2-.5.6-.6.7-.6.1 0 .1 0 0 0h-.8c-.7 0-1.8 0-2.8.6l1 1.7c.6-.3 1.2-.4 1.7-.3h1.3c.2 0 .7-.2.9-.7l-2-.7zm-6.5-2.3c2.1.6 3.9 1.4 5.1 2 .6.3 1.1.6 1.4.8.1.1.1.1.2.1 0 0 0-.1-.1-.1 0-.1-.1-.3 0-.6l1.9.7c.1-.4 0-.7 0-.8-.1-.2-.2-.3-.2-.4l-.5-.5c-.4-.3-1-.6-1.6-1-1.4-.7-3.3-1.5-5.4-2.2l-.8 2zm-9.2-1.3c2.3 0 5.5.3 9.1 1.4l.6-1.9c-3.9-1.2-7.3-1.4-9.7-1.4v1.9zm1.6 21.4-.6-22.4-2 .1.6 22.4 2-.1zm9.8-3.5-11 2.6.5 1.9 11-2.6-.5-1.9zm.2 1h-1v2.4l1.7-1.7-.7-.7zm0-12.8-.9-.5-.1.2v.3h1zm1.7-1.7-.5-.9.5.9zm3.4-.5-.9-.3.9.3zm-7.3-3.5-.3 1 .3-1zm-9.4-1.4v-1h-1v1h1zm.6 22.4h-1v1.2l1.2-.3-.2-.9zm11-2.6.7.7 2.5-2.5-3.4.8.2 1z"/></g><path style="clip-path:url(#SVGID_00000120557429947375079470000010878964257929508276_);fill:#fff" d="m190.2 216.1 1.3-31.4 30.3 13.6-1.4 36-8.4-5.4v-19.3c-.4-6.1-5.4-9.7-9.1-9-2.6.5-4.8 3.2-5.5 6.6-.1 4.4-.3 8.9-.4 13.3l-6.8-4.4z"/><g style="clip-path:url(#SVGID_00000120557429947375079470000010878964257929508276_)"><defs><path id="SVGID_00000104677219746175457900000010254786457401220786_" d="m190.2 216.1 1.3-31.4 30.3 13.6-1.4 36-8.4-5.4v-19.3c-.4-6.1-5.4-9.7-9.1-9-2.6.5-4.8 3.2-5.5 6.6-.1 4.4-.3 8.9-.4 13.3l-6.8-4.4z"/></defs><clipPath id="SVGID_00000043433746761418629430000004943756520701428899_"><use xlink:href="#SVGID_00000104677219746175457900000010254786457401220786_" style="overflow:visible"/></clipPath><path style="clip-path:url(#SVGID_00000043433746761418629430000004943756520701428899_);fill:#20380e" d="m197.4 219.6-6.7-4.3-1.1 1.7 6.7 4.3 1.1-1.7zm-1.1-12.5c-.1 2.2-.1 4.4-.2 6.6-.1 2.2-.1 4.4-.2 6.6l2 .1c.1-2.2.1-4.4.2-6.6.1-2.2.1-4.4.2-6.6l-2-.1zm6.3-7.6c-3.2.6-5.6 3.8-6.3 7.4l2 .4c.6-3.2 2.6-5.4 4.7-5.8l-.4-2zm10.4 9.9c-.2-3.3-1.7-6-3.6-7.7-1.9-1.7-4.4-2.6-6.7-2.2l.4 2c1.5-.3 3.4.3 5 1.7s2.8 3.6 3 6.4l1.9-.2zm0 19.4v-19.3h-2v19.3h2zm7.9 4.6-8.4-5.4-1.1 1.7 8.4 5.4 1.1-1.7zm-.1-35.2-1.4 36 2 .1 1.4-36-2-.1zm-29.7-12.6 30.3 13.6.8-1.8-30.3-13.6-.8 1.8zm.1 30.6 1.3-31.4-2-.1-1.3 31.4 2 .1zm5.7 4.2-.5.8 1.5.9.1-1.8-1.1.1zm.4-13.3-1-.2v.2h1zm5.5-6.6.2 1-.2-1zm9.2 9h1-1zm0 19.3h-1v.5l.5.3.5-.8zm8.3 5.4-.5.8 1.5 1 .1-1.8h-1.1zm1.5-35.9h1v-.7l-.6-.3-.4 1zm-30.3-13.6.4-.9-1.3-.6-.1 1.5h1zm-1.3 31.4h-1v.6l.5.3.5-.9z"/></g><path style="clip-path:url(#SVGID_00000120557429947375079470000010878964257929508276_);fill:#fff" d="m237.1 228.8-16.8 5.4 1.5-35.9 16.5-4.3z"/><g style="clip-path:url(#SVGID_00000120557429947375079470000010878964257929508276_)"><defs><path id="SVGID_00000057845710563031625320000009281412264789192621_" d="m237.1 228.8-16.8 5.4 1.5-35.9 16.5-4.3z"/></defs><clipPath id="SVGID_00000160191375130289077400000017404405499660539020_"><use xlink:href="#SVGID_00000057845710563031625320000009281412264789192621_" style="overflow:visible"/></clipPath><path style="clip-path:url(#SVGID_00000160191375130289077400000017404405499660539020_);fill:#20380e" d="m237.3 194-1.3 34.8 2 .1 1.3-34.8-2-.1zm-15.3 5.2 16.6-4.3-.5-1.9-16.6 4.3.5 1.9zm-.7 35.1 1.4-36-2-.1-1.4 36 2 .1zm15.5-6.4-16.7 5.4.6 1.9 16.7-5.4-.6-1.9zm1.5-33.9h1v-1.3l-1.3.3.3 1zm-16.5 4.3-.3-1-.7.2v.7l1 .1zm-1.5 35.9h-1l-.1 1.4 1.4-.4-.3-1zm16.8-5.4.3 1 .7-.2v-.7l-1-.1z"/></g><path style="clip-path:url(#SVGID_00000120557429947375079470000010878964257929508276_);fill:#5fa43a" d="m191.5 184.7 18.3-5.6 28.5 14.9-16.5 4.3z"/><path style="clip-path:url(#SVGID_00000120557429947375079470000010878964257929508276_);fill:#94d7f2" d="m223.6 163.1-19.2 5-16-6.4 18.9-6.1z"/><path style="clip-path:url(#SVGID_00000120557429947375079470000010878964257929508276_);fill:#20380e" d="m223.6 184.4-19.1 6.1-.1-22.4 19.2-5z"/><path style="clip-path:url(#SVGID_00000120557429947375079470000010878964257929508276_);fill:#b4cc77" d="M188.4 161.7v21.5l16.1 7.3-.1-22.4z"/><path style="clip-path:url(#SVGID_00000120557429947375079470000010878964257929508276_);fill:#94b73d" d="m242.1 172-19.2 5-16-6.4 18.9-6.2z"/><path style="clip-path:url(#SVGID_00000120557429947375079470000010878964257929508276_);fill:#20380e" d="m242.1 193.3-19 6.1-.2-22.4 19.2-5z"/><path style="clip-path:url(#SVGID_00000120557429947375079470000010878964257929508276_);fill:#4b702f" d="M206.9 170.6v21.5l16.2 7.3-.2-22.4z"/><path style="clip-path:url(#SVGID_00000120557429947375079470000010878964257929508276_);fill:#b4cc77" d="M257.1 230.9c6.5-1 13.1-2.1 19.6-3.1-3.1-2.3-6.2-4.6-9.3-6.8-6.4.9-12.9 1.8-19.4 2.7l9.1 7.2z"/><path style="clip-path:url(#SVGID_00000120557429947375079470000010878964257929508276_);fill:#4b702f" d="m257.1 248.6-8.5-7.4-.5-17.6 9 7.3z"/><path style="clip-path:url(#SVGID_00000120557429947375079470000010878964257929508276_);fill:#94b73d" d="m276.7 245.1-19.6 3.5v-17.7l19.6-3.1z"/><path style="clip-path:url(#SVGID_00000120557429947375079470000010878964257929508276_);fill:#fff" d="m187.2 166.6 41.1 9.4-21.6-45.3z"/><g style="clip-path:url(#SVGID_00000120557429947375079470000010878964257929508276_)"><defs><path id="SVGID_00000124866090300668752940000016251170751433189038_" d="m187.2 166.6 41.1 9.4-21.6-45.3z"/></defs><clipPath id="SVGID_00000145060408098362050720000014140021742461097876_"><use xlink:href="#SVGID_00000124866090300668752940000016251170751433189038_" style="overflow:visible"/></clipPath><path style="clip-path:url(#SVGID_00000145060408098362050720000014140021742461097876_);fill:#20380e" d="m205.8 130.2-19.5 36 1.8 1 19.5-36-1.8-1zm23.4 45.4-21.6-45.4-1.8.9 21.6 45.4 1.8-.9zm-42.3-8 41.2 9.4.4-1.9-41.2-9.4-.4 1.9zm19.8-36.9.9-.4-.8-1.8-.9 1.7.8.5zm21.6 45.3-.2 1 2 .5-.9-1.9-.9.4zm-41.1-9.4-.9-.5-.6 1.2 1.3.3.2-1z"/></g><path style="clip-path:url(#SVGID_00000120557429947375079470000010878964257929508276_);fill:#fff" d="m225.3 125.7-18.6 5 21.6 45.3 18.8-7.5z"/><g style="clip-path:url(#SVGID_00000120557429947375079470000010878964257929508276_)"><defs><path id="SVGID_00000129163244083280113600000015338029069299924400_" d="m225.3 125.7-18.6 5 21.6 45.3 18.8-7.5z"/></defs><clipPath id="SVGID_00000098180243828456049230000011542988224823925380_"><use xlink:href="#SVGID_00000129163244083280113600000015338029069299924400_" style="overflow:visible"/></clipPath><path style="clip-path:url(#SVGID_00000098180243828456049230000011542988224823925380_);fill:#20380e" d="m248 168.1-21.9-42.8-1.8.9 21.9 42.8 1.8-.9zm-19.3 8.9 18.8-7.5-.7-1.9-18.8 7.5.7 1.9zm-22.9-45.9 21.6 45.4 1.8-.9-21.6-45.4-1.8.9zm19.2-6.3-18.6 4.9.5 1.9 18.6-4.9-.5-1.9zm22.1 43.7.4.9 1-.4-.5-1-.9.5zm-18.8 7.5-.9.4.4.8.9-.3-.4-.9zm-21.6-45.3-.3-1-1.2.3.5 1.1 1-.4zm18.6-5 .9-.5-.4-.7-.8.2.3 1z"/></g><path style="clip-path:url(#SVGID_00000120557429947375079470000010878964257929508276_);fill:#fff" d="m121.2 232.2 41.2 9.4-21.7-45.4z"/><g style="clip-path:url(#SVGID_00000120557429947375079470000010878964257929508276_)"><defs><path id="SVGID_00000091008318203393030540000008420858432341450124_" d="m121.2 232.2 41.2 9.4-21.7-45.4z"/></defs><clipPath id="SVGID_00000021823033225092597120000015294544757235535013_"><use xlink:href="#SVGID_00000091008318203393030540000008420858432341450124_" style="overflow:visible"/></clipPath><path style="clip-path:url(#SVGID_00000021823033225092597120000015294544757235535013_);fill:#20380e" d="m139.8 195.8-19.5 36 1.8 1 19.5-36-1.8-1zm23.5 45.4-21.6-45.4-1.8.9 21.6 45.4 1.8-.9zm-42.3-8 41.2 9.4.4-1.9-41.2-9.4-.4 1.9zm19.7-37 .9-.4-.8-1.8-.9 1.7.8.5zm21.7 45.4-.2 1 2 .5-.9-1.9-.9.4zm-41.2-9.4-.9-.5-.6 1.2 1.3.3.2-1z"/></g><path style="clip-path:url(#SVGID_00000120557429947375079470000010878964257929508276_);fill:#fff" d="m159.3 191.3-18.6 4.9 21.7 45.4 18.8-7.5z"/><g style="clip-path:url(#SVGID_00000120557429947375079470000010878964257929508276_)"><defs><path id="SVGID_00000005968789209672025300000008097798733984885637_" d="m159.3 191.3-18.6 4.9 21.7 45.4 18.8-7.5z"/></defs><clipPath id="SVGID_00000016781469202418430170000011113343965587582871_"><use xlink:href="#SVGID_00000005968789209672025300000008097798733984885637_" style="overflow:visible"/></clipPath><path style="clip-path:url(#SVGID_00000016781469202418430170000011113343965587582871_);fill:#20380e" d="m182.1 233.6-21.9-42.8-1.8.9 21.9 42.8 1.8-.9zm-19.4 8.9 18.8-7.5-.7-1.9-18.8 7.5.7 1.9zm-22.9-45.8 21.6 45.4 1.8-.9-21.6-45.4-1.8.9zm19.2-6.4-18.6 4.9.5 1.9 18.6-4.9-.5-1.9zm22.2 43.8.4.9 1-.4-.5-1-.9.5zm-18.8 7.5-.9.4.4.8.9-.3-.4-.9zm-21.7-45.4-.3-1-1.2.3.5 1.1 1-.4zm18.6-4.9.9-.5-.4-.7-.8.2.3 1z"/></g><path style="clip-path:url(#SVGID_00000120557429947375079470000010878964257929508276_);fill:#fff" d="M252.8 168.5c0 .5.2 1.5-.8 2.3-.8.7-1.6 1.2-2.3 1.7-3 1.8-4.1 2.3-4.9 2.5-.4.1-.7.2-1.1.2 0 0-.3.1-.6.1-.2 0-4.5-.3-10.3-1 .1 0 4.1-1.6 4.2-1.7 0 0 3.1-1.2 3.2-1.3.8-.6 2-1.5 3.4-2.8 1.9-1.7 2-2.2 1.9-2.5-.3-1-2.8-.5-3.8-2.3-.5-.8-.6-1.8-.3-2.8.2-1 1.5-2.6 2.4-.9.4.8.9 1.3 1.4 1.7.6.5 1.1.7 1.5.9 1.4.7 6.1 3.2 6.1 5.9z"/><g style="clip-path:url(#SVGID_00000120557429947375079470000010878964257929508276_)"><defs><path id="SVGID_00000168818476839177084430000017307802341169284238_" d="M252.8 168.5c0 .5.2 1.5-.8 2.3-.8.7-1.6 1.2-2.3 1.7-3 1.8-4.1 2.3-4.9 2.5-.4.1-.7.2-1.1.2 0 0-.3.1-.6.1-.2 0-4.5-.3-10.3-1 .1 0 4.1-1.6 4.2-1.7 0 0 3.1-1.2 3.2-1.3.8-.6 2-1.5 3.4-2.8 1.9-1.7 2-2.2 1.9-2.5-.3-1-2.8-.5-3.8-2.3-.5-.8-.6-1.8-.3-2.8.2-1 1.5-2.6 2.4-.9.4.8.9 1.3 1.4 1.7.6.5 1.1.7 1.5.9 1.4.7 6.1 3.2 6.1 5.9z"/></defs><clipPath id="SVGID_00000021817686480485258100000004106470335936651967_"><use xlink:href="#SVGID_00000168818476839177084430000017307802341169284238_" style="overflow:visible"/></clipPath><path style="clip-path:url(#SVGID_00000021817686480485258100000004106470335936651967_);fill:#20380e" d="M245.8 164.5c.6.3 2 1 3.2 1.9.6.5 1.1.9 1.4 1.3.3.4.4.7.4.7h4c0-1.2-.5-2.3-1.1-3.1-.6-.8-1.4-1.5-2.1-2.1-1.5-1.2-3.2-2.1-4.2-2.4l-1.6 3.7zm-2-1.1c.8.6 1.5 1 2 1.2l1.5-3.7c-.3-.1-.6-.2-1-.6l-2.5 3.1zm-1.9-2.4c.5 1 1.2 1.8 1.9 2.3l2.5-3.1c-.3-.2-.6-.6-.9-1.1l-3.5 1.9zm1.3.4.1-.1.1-.1c-.1 0-.4.2-.9.1s-.6-.5-.5-.3l3.5-1.9c-.4-.7-1-1.4-2-1.7-1-.3-1.9.1-2.4.4-.5.4-.9.8-1.2 1.2-.3.4-.5.9-.6 1.4l3.9 1zm.1 1.3c-.1-.2-.2-.6-.1-1.3l-3.9-.9c-.3 1.4-.3 2.9.6 4.3l3.4-2.1zm4 2.8c-.3-1.1-1.2-1.6-1.7-1.8-.5-.2-1-.3-1.3-.4-.8-.2-.9-.4-1-.5l-3.4 2.1c1 1.6 2.6 2.1 3.4 2.3.5.1.7.2.8.2.1 0-.4-.1-.6-.8l3.8-1.1zm-2.4 4.5c.9-.9 1.6-1.6 2-2.1.2-.3.4-.7.5-1.1.1-.5.1-.9 0-1.3l-3.9 1.1c0-.1 0-.2-.1-.3v-.4c0-.2.1-.3.1-.2-.1.2-.5.6-1.4 1.4l2.8 2.9zm-3.6 2.9c.8-.6 2.1-1.6 3.6-2.9l-2.7-2.9c-1.3 1.2-2.4 2-3.2 2.6l2.3 3.2zm-4.3 1.7H237.8c.1 0 .2-.1.4-.1.3-.1.7-.3 1.1-.4.4-.2.8-.3 1.1-.4.1-.1.3-.1.4-.1h.2l-1.8-3.6c.1 0 .2-.1.1-.1h-.1c-.1 0-.2.1-.4.1-.3.1-.7.3-1.1.4-.4.2-.8.3-1.1.4-.1.1-.3.1-.3.1h-.1H236.8v3.7zm-3.3 1.4c-.1.1-.2.1 0 0s.3-.1.5-.2c.4-.2.9-.4 1.4-.6.5-.2 1-.4 1.4-.6.2-.1.4-.1.5-.2 0 0 .2-.1.3-.1l-1.8-3.6c.1 0 .1-.1 0 0-.1 0-.3.1-.5.2-.4.2-.9.4-1.4.6-.5.2-1 .4-1.4.6-.2.1-.4.1-.5.2 0 0-.2.1-.3.1l1.8 3.6zm9.1-2.7h.2-.7c-.5 0-1.2-.1-2.1-.2-1.8-.2-4.3-.4-7.2-.8l-.5 4c2.9.4 5.5.6 7.3.8.9.1 1.7.2 2.2.2H243.3l-.5-4zm.9 1.9-.3-2h-.1c-.1 0-.3 0-.4.1l.6 4c.2 0 .3-.1.4-.1h.1l-.3-2zm.6-2.2c-.4.1-.6.2-1 .2l.7 3.9c.5-.1.9-.2 1.2-.3l-.9-3.8zm4.3-2.2c-3.1 1.8-3.9 2.1-4.3 2.2l1 3.9c1.1-.3 2.4-.9 5.4-2.7l-2.1-3.4zm2.1-1.5c-.7.6-1.4 1.1-2.1 1.5l2.1 3.4c.9-.5 1.7-1.1 2.6-1.9l-2.6-3zm.1-.8V169.3l-.1.1 2.6 3c.9-.8 1.3-1.7 1.4-2.5.1-.6.1-1.4.1-1.4h-4zm-4.3-5.8.7-1.9-.7 1.9zm-1.4-.9-1.3 1.5 1.3-1.5zm-1.4-1.7 1.8-.9-1.8.9zm-2.4.9 1.9.4-1.9-.4zm.3 2.8 1.7-1-1.7 1zm3.8 2.2 1.9-.5-1.9.5zm-1.9 2.5-1.4-1.5 1.4 1.5zm-3.4 2.8.9 1.8.2-.1.1-.1-1.2-1.6zm-3.1 1.3v-2h-.5l-.4.2.9 1.8zm-4.2 1.7-.9-1.8-5.9 2.9 6.5.8.3-1.9zm10.3 1 .3 2-.3-2zm.6-.1.3 2-.3-2zm1.1-.2.5 1.9-.5-1.9zm4.8-2.5 1 1.7-1-1.7zm2.4-1.7 1.3 1.5-1.3-1.5z"/></g><path style="clip-path:url(#SVGID_00000120557429947375079470000010878964257929508276_);fill:#fff" d="M198.8 146.5c.1-.1 3-1.3 2.8-2.3 0-.1-.2-.5-1.4-.8-.3 0-2.3-.1-3.4.5-.2.1-.7.4-.7.8v.4c.1.3.1.7.2 1.2-.6.2-1 .7-1.1 1.3-.1.8.5 1.4.5 1.5 0 0-.8.1-1.1.7-.3.4-.3 1 0 1.5-.2.1-.3.2-.5.3-.3.2-.6.6-.6 1.1 0 .5.2.9.6 1.1l2.8 1.3c.1 0 .8 0 1.1-.5.3-.5 0-1.6-1.1-2.2 1.5.8 2.9.5 3.2-.2.3-.6-.3-2-1.7-2.6 1.7.3 2.9-.4 3.1-1 .1-.7-.9-1.8-2.7-2.1z"/><g style="clip-path:url(#SVGID_00000120557429947375079470000010878964257929508276_)"><defs><path id="SVGID_00000044885823922480316300000011955960883943195042_" d="M198.8 146.5c.1-.1 3-1.3 2.8-2.3 0-.1-.2-.5-1.4-.8-.3 0-2.3-.1-3.4.5-.2.1-.7.4-.7.8v.4c.1.3.1.7.2 1.2-.6.2-1 .7-1.1 1.3-.1.8.5 1.4.5 1.5 0 0-.8.1-1.1.7-.3.4-.3 1 0 1.5-.2.1-.3.2-.5.3-.3.2-.6.6-.6 1.1 0 .5.2.9.6 1.1l2.8 1.3c.1 0 .8 0 1.1-.5.3-.5 0-1.6-1.1-2.2 1.5.8 2.9.5 3.2-.2.3-.6-.3-2-1.7-2.6 1.7.3 2.9-.4 3.1-1 .1-.7-.9-1.8-2.7-2.1z"/></defs><clipPath id="SVGID_00000110472165906882143540000007917959452624820884_"><use xlink:href="#SVGID_00000044885823922480316300000011955960883943195042_" style="overflow:visible"/></clipPath><path style="clip-path:url(#SVGID_00000110472165906882143540000007917959452624820884_);fill:#20380e" d="M198.9 145.5v2-2zm3.5 3.3c.2-.9-.4-1.6-.9-2.1-.6-.5-1.5-1-2.5-1.2l-.3 2c.7.1 1.2.4 1.5.7.1.1.2.3.3.3v-.1l1.9.4zm-4.2 1.8c1 .2 1.9.1 2.7-.2.7-.3 1.4-.8 1.6-1.6l-2-.4c0-.2.1 0-.4.1-.4.1-.9.2-1.6.1l-.3 2zm2.8 2.1c.4-.7.1-1.6-.2-2.2-.4-.7-1-1.3-2-1.7l-.8 1.8c.5.3.9.6 1.1.9.2.4.1.5.2.4l1.7.8zm-4.6.6c.9.5 1.8.7 2.6.6.7-.1 1.6-.4 2-1.2l-1.8-.9c.1-.1 0 0-.4.1-.4 0-.9 0-1.4-.3l-1 1.7zm2.4 1.9c.4-.6.3-1.4 0-2-.3-.6-.8-1.2-1.5-1.6l-1 1.7c.4.2.6.5.7.7.1.2 0 .3.1.2l1.7 1zm-2 .9c.1 0 .4 0 .8-.1.3-.1.9-.3 1.2-.8l-1.7-1.1s.1-.1 0 0h-.4v2zm-3.2-1.4 2.8 1.3.9-1.8-2.8-1.3-.9 1.8zm-1.1-2c0 .7.3 1.6 1.1 2l.9-1.8c.1 0 .1.1 0 0v-.2h-2zm1.1-2c-.8.4-1.1 1.3-1.1 2h2v-.3c0-.1 0 0 0 0l-.9-1.7zm.3-.3c-.1.1-.2.1-.2.2-.1.1-.2.1-.3.2l1.1 1.6c.1-.1.2-.1.2-.2.1-.1.2-.1.3-.2l-1.1-1.6zm-.2-1.1c-.5.8-.5 1.7 0 2.5l1.7-1c-.1-.2-.1-.3 0-.4l-1.7-1.1zm2-.2-.1-1H195.3c-.1 0-.3.1-.5.1-.4.1-.9.4-1.2 1l1.7 1c0-.1.1-.1.2-.1h.1c.1 0 .1 0 .1-1zm-1.5-1.6c-.1.7.1 1.3.3 1.7.1.2.2.4.3.5 0 .1.1.1.1.1l1.4-1.4-.2-.2c-.1-.1-.1-.3-.1-.4l-1.8-.3zm1.8-2.1c-1 .3-1.7 1.1-1.8 2.1l2 .3c0-.2.2-.5.5-.5l-.7-1.9zm-.9-.1c0 .3.1.6.2 1.2l2-.3c-.1-.5-.1-.9-.2-1.2l-2 .3zm0-.9c-.1.2 0 .4 0 .5v.2l2-.2V144.6v.1l-2-.3zm1.3-1.4c-.1.1-.4.2-.6.4-.2.2-.5.6-.7 1.1l2 .4c0 .1-.1.1 0 .1 0 0 .1 0 .1-.1l.1-.1-.9-1.8zm3.8-.6h-1.5c-.7 0-1.7.2-2.4.6l.9 1.8c.3-.2.9-.3 1.6-.3h1.4v-2.1zm2.4 1.6c-.1-.3-.2-.6-.6-.9-.4-.3-.9-.5-1.6-.6l-.4 2c.5.1.7.2.7.2v-.1c0-.1-.1-.1-.1-.1l2-.5zm-3.4 3.4c.1-.1.9-.4 1.7-.9.4-.2.8-.5 1.1-.9.3-.3.8-.9.6-1.6l-2 .4c-.1-.3.1-.4-.1-.2s-.4.4-.7.6c-.3.2-.7.4-.9.5-.3.1-.4.2-.4.2l.7 1.9zm-.3-.9.2-1h-.2v1zm2.5 2.1 1 .2-1-.2zm-3 1 .2-1c-.5-.1-1 .2-1.1.7s.1 1 .5 1.2l.4-.9zm1.7 2.7.9.4-.9-.4zm-3.3.1.5-.9c-.5-.3-1.1-.1-1.4.4-.3.5-.1 1.1.4 1.4l.5-.9zm1.2 2.3.8.5-.8-.5zm-1.2.4-.4.9c.1.1.3.1.4.1v-1zm-2.8-1.3-.4.9.4-.9zm0-2.2.4.9s.1 0 .1-.1l-.5-.8zm.5-.3.6.8c.4-.3.6-.9.3-1.3l-.9.5zm0-1.5.9.5-.9-.5zm1.2-.7.1 1c.4 0 .7-.3.9-.6s0-.8-.2-1.1l-.8.7zm-.5-1.5-1-.2 1 .2zm1.1-1.3.3.9c.5-.2.7-.6.7-1.1l-1 .2zm-.2-1.2-1 .1v.1l1-.2zm0-.4 1 .2-1-.2zm.7-.8.5.9-.5-.9zm3.4-.5.2-1h-.2v1zm1.4.8 1-.2-1 .2zm-2.8 2.3-.4-.9c-.5.2-.7.6-.6 1.1.1.5.5.8 1 .8v-1z"/></g><path style="clip-path:url(#SVGID_00000120557429947375079470000010878964257929508276_);fill:#fff" d="M215.4 74.1s-1.5-3.9-5.1-1.1c-3.5 2.8 1.2 14.8 8.3 10.9l-3.2-9.8z"/><g style="clip-path:url(#SVGID_00000120557429947375079470000010878964257929508276_)"><defs><path id="SVGID_00000046318034173486513000000016064779125594364576_" d="M215.4 74.1s-1.5-3.9-5.1-1.1 1.2 14.8 8.3 10.9l-3.2-9.8z"/></defs><clipPath id="SVGID_00000005951674248490247570000006557699077791988116_"><use xlink:href="#SVGID_00000046318034173486513000000016064779125594364576_" style="overflow:visible"/></clipPath><path style="clip-path:url(#SVGID_00000005951674248490247570000006557699077791988116_);fill:#20380e" d="M215.4 72.1v4-4zm5.2 11.2-3.2-9.9-3.8 1.2 3.2 9.9 3.8-1.2zm-11.5-11.9c-1.6 1.3-2 3.3-2 5.1.1 1.8.7 3.8 1.6 5.4 1 1.7 2.4 3.3 4.3 4.1 2 .9 4.3.9 6.6-.4l-1.9-3.5c-1.2.7-2.2.6-3 .2-.9-.4-1.8-1.3-2.4-2.5-.7-1.2-1.1-2.5-1.1-3.6 0-1.2.3-1.7.4-1.8l-2.5-3zm6.3 2.7 1.9-.7v-.1c0-.1-.1-.1-.1-.2l-.3-.6c-.3-.4-.7-1.1-1.4-1.6s-1.7-.9-2.9-.9c-1.2.1-2.3.6-3.4 1.4l2.5 3.1c.7-.5 1-.6 1.1-.6.1 0 .2 0 .3.1.1.1.3.3.4.5.1.1.1.2.1.2 0 .1 0 .1 1.8-.6zm0 0 1.9-.6-.5-1.4h-1.4v2zm3.3 9.8 1 1.8 1.5-.8-.5-1.6-2 .6zm-3.3-9.8-1.9.7.5 1.3h1.4v-2z"/></g><path style="clip-path:url(#SVGID_00000120557429947375079470000010878964257929508276_);fill:#20380e" d="M217.4 66.5s-5.5 2.9-11.5-7.4-2.2-23.3 10.6-17.6c0 0 3.8-12.6 22.2-13.6 18.3-.9 27.4 14.6 27.4 14.6s6.8-4.5 13.1 6.8c6.3 11.2-11.1 26.3-11.1 26.3l-13.7 6.6-37-15.7z"/><path style="clip-path:url(#SVGID_00000120557429947375079470000010878964257929508276_);fill:#fff" d="M214.5 59.5s-3.4 24.2 9.1 30.8 26.5 1.5 34.8-5.9c0 0 6 3.1 10.8-1.8 4.8-4.9 5.1-14-5.2-11.2l-3.2 7.1s-7.9-5.9-4.8-18.9c0 0-13.6 3.7-21.9-3.2 0-.2-10.2 9.7-19.6 3.1z"/><g style="clip-path:url(#SVGID_00000120557429947375079470000010878964257929508276_)"><defs><path id="SVGID_00000137819273878580145000000009652388891665002661_" d="M214.5 59.5s-3.4 24.2 9.1 30.8 26.5 1.5 34.8-5.9c0 0 6 3.1 10.8-1.8 4.8-4.9 5.1-14-5.2-11.2l-3.2 7.1s-7.9-5.9-4.8-18.9c0 0-13.6 3.7-21.9-3.2 0-.2-10.2 9.7-19.6 3.1z"/></defs><clipPath id="SVGID_00000056387268812073615750000006703839424856994481_"><use xlink:href="#SVGID_00000137819273878580145000000009652388891665002661_" style="overflow:visible"/></clipPath><path style="clip-path:url(#SVGID_00000056387268812073615750000006703839424856994481_);fill:#20380e" d="m213.1 58 2.8 2.8-2.8-2.8zm21-1.8-1.4-1.4-.1.1c-.1.1-.2.1-.3.3-.3.2-.7.6-1.2.9-1 .8-2.5 1.7-4.1 2.4-3.4 1.5-7.4 2.1-11.3-.7l-2.3 3.3c5.5 3.9 11.2 2.9 15.3 1.1 2-.9 3.7-2 4.9-2.9.6-.4 1.1-.8 1.4-1.1.2-.1.3-.3.4-.3l.1-.1c-.1-.1-.1-.1-1.4-1.6zm21.8 3.3-.5-1.9h-.1c-.1 0-.2.1-.4.1-.4.1-.9.2-1.5.3-1.3.2-3.2.5-5.3.5-4.2.1-9.1-.7-12.7-3.8l-2.6 3.1c4.7 3.9 10.7 4.7 15.4 4.7 2.3 0 4.4-.3 5.9-.5.7-.1 1.3-.3 1.8-.3.2 0 .4-.1.5-.1h.1c-.1-.2-.1-.2-.6-2.1zm4.8 18.9 1.2-1.6s-.1-.1-.2-.1c-.2-.1-.4-.4-.7-.7-.6-.6-1.4-1.6-2.1-3-1.4-2.7-2.5-6.9-1.1-13l-3.8-1c-1.7 7-.4 12.2 1.4 15.7.9 1.7 1.9 3 2.7 3.9.4.4.7.8 1 1l.3.3.1.1 1.2-1.6zm1.4-7.9-3.2 7.1 3.6 1.7 3.2-7.1-3.6-1.7zm8.5 13.4c1.4-1.4 2.5-3.2 3.1-4.9.6-1.7.9-3.7.5-5.4-.4-1.8-1.6-3.4-3.6-4.2-1.9-.8-4.3-.7-7.1 0l1 3.9c2.4-.6 3.8-.5 4.6-.2.7.3 1.1.8 1.2 1.5.2.8.1 1.9-.3 3.1-.4 1.2-1.2 2.5-2.2 3.5l2.8 2.7zm-12.2.5-.9 1.8h.1c.1 0 .2.1.3.1.2.1.5.2.9.3.8.3 1.8.5 3.1.6 2.5.2 5.9-.4 8.8-3.4l-2.9-2.8c-1.9 1.9-3.9 2.3-5.6 2.2-.8-.1-1.6-.2-2.1-.4-.3-.1-.5-.2-.6-.2-.1 0-.1 0-.1-.1-.1.1-.1.1-1 1.9zM222.6 92c13.5 7.2 28.4 1.6 37.1-6.1l-2.7-3c-8 7.1-21.1 11.7-32.5 5.6l-1.9 3.5zm-8.1-32.5-2-.3V59.5c0 .2-.1.5-.1.8-.1.7-.2 1.7-.2 2.9-.1 2.4-.2 5.8.2 9.3.7 6.9 3.1 15.6 10.3 19.4l1.9-3.5c-5.3-2.8-7.5-9.5-8.2-16.3-.3-3.3-.3-6.4-.2-8.7.1-1.1.1-2.1.2-2.7 0-.3.1-.6.1-.7v-.2c0-.1 0-.1-2-.3zm0 0 1.2-1.6-1.4-1-1.2 1.2 1.4 1.4zm19.6-3.3 1.3-1.5-1.4-1.2-1.3 1.3 1.4 1.4zm21.8 3.3 1.9.5.8-3.3-3.2.9.5 1.9zm4.8 18.9-1.2 1.6 2 1.5 1-2.3-1.8-.8zm3.2-7.1-.5-1.9-.9.2-.4.9 1.8.8zm-5.5 13.1.9-1.8-1.2-.6-1 .9 1.3 1.5zm-43.9-24.9-1.4-1.4-.5.5-.1.7 2 .2z"/></g><path style="clip-path:url(#SVGID_00000120557429947375079470000010878964257929508276_);fill:#20380e" d="M244.1 70.6c-.4 1.2 0 2.4.7 2.6.7.2 1.6-.6 2-1.8s0-2.4-.7-2.6c-.8-.3-1.7.5-2 1.8zM226.8 70.5c0 1.3.6 2.3 1.3 2.3.8 0 1.4-1 1.4-2.3 0-1.3-.6-2.3-1.3-2.3-.7 0-1.4 1-1.4 2.3zM231 85.4c2.9.9 9.6 1.1 13.9-5l-1.6-1.1c-3.6 5.1-9.3 4.9-11.7 4.2l-.6 1.9zm13.9-5c.3-.5.2-1.1-.2-1.4-.5-.3-1.1-.2-1.4.2l1.6 1.2zm-13.4 3.1c-.5-.2-1.1.1-1.2.7-.2.5.1 1.1.7 1.2l.5-1.9zM250.9 66.2c-.9-.7-2.4-1.4-4-1.7-1.7-.2-3.6.1-5.1 1.8l1.5 1.3c1-1.1 2.2-1.3 3.4-1.2 1.2.2 2.4.8 3.1 1.3l1.1-1.5zm-9.1.1c-.4.4-.3 1 .1 1.4s1 .3 1.4-.1l-1.5-1.3zm7.9 1.5c.4.3 1.1.2 1.4-.2.3-.4.2-1.1-.2-1.4l-1.2 1.6zM232.7 66.3c-.7-.7-1.9-1.6-3.4-1.8-1.6-.3-3.4.1-5 1.8l1.4 1.4c1.2-1.2 2.4-1.4 3.3-1.2 1 .2 1.8.7 2.3 1.2l1.4-1.4zm-8.5 0c-.4.4-.4 1 0 1.4.4.4 1 .4 1.4 0l-1.4-1.4zm7 1.4c.4.4 1 .4 1.4 0 .4-.4.4-1 0-1.4l-1.4 1.4z"/></g></g></switch></svg>