<svg version="1.1" id="Layer_1" xmlns="http://www.w3.org/2000/svg" xmlns:xlink="http://www.w3.org/1999/xlink" x="0" y="0" viewBox="0 0 470 250" style="enable-background:new 0 0 470 250" xml:space="preserve"><style>.st3{fill:#fff}.st3,.st4{clip-path:url(#SVGID_00000180332437890177185360000000182844021599999129_)}.st5,.st6{clip-path:url(#SVGID_00000023259971821540011320000008834436802201352877_);fill:#20380e}.st6{clip-path:url(#SVGID_00000168836587035087382750000008430323902945121191_)}.st7,.st8,.st9{clip-path:url(#SVGID_00000111156508731113774070000018116432974146514054_);fill:#20380e}.st8,.st9{clip-path:url(#SVGID_00000123410715500566251980000006809243059845007773_)}.st9{clip-path:url(#SVGID_00000177483726621711209190000006761367609007273396_)}.st10,.st11,.st12{clip-path:url(#SVGID_00000069389348700941133700000012918770391763231898_);fill:#20380e}.st11,.st12{clip-path:url(#SVGID_00000085229953797562827790000008971678997290638772_)}.st12{clip-path:url(#SVGID_00000092415305556311103670000014964420908627915399_)}.st13,.st14,.st15{clip-path:url(#SVGID_00000101078627074338193380000005445615905367016368_);fill:#20380e}.st14,.st15{clip-path:url(#SVGID_00000021821067940191011680000003565726945386227609_)}.st15{clip-path:url(#SVGID_00000052094392754024663220000006353942240070755988_)}.st16{clip-path:url(#SVGID_00000180332437890177185360000000182844021599999129_);fill:#94b73d}.st17,.st18,.st19{clip-path:url(#SVGID_00000091696861494220273790000017131517297009943936_);fill:#20380e}.st18,.st19{clip-path:url(#SVGID_00000029021765504417210900000016046931029299323302_)}.st19{clip-path:url(#SVGID_00000180332437890177185360000000182844021599999129_)}.st20{clip-path:url(#SVGID_00000047018533820991320110000014162164154217379719_)}.st21,.st22{clip-path:url(#SVGID_00000121279384976782342780000012006494387389515408_);fill:#20380e}.st22{clip-path:url(#SVGID_00000075850588323497101930000016057833486912526247_)}.st23{clip-path:url(#SVGID_00000180332437890177185360000000182844021599999129_);fill:#2c4d13}.st24,.st25{clip-path:url(#SVGID_00000121261069616740983010000009314320264087373196_);fill:#20380e}.st25{clip-path:url(#SVGID_00000116924851272562372220000007304135333296861581_)}.st26,.st27{clip-path:url(#SVGID_00000180332437890177185360000000182844021599999129_);fill:#386118}.st27{fill:#003643}.st28{clip-path:url(#SVGID_00000120554622512543694490000002538487694534415252_);fill:#20380e}.st29,.st30,.st31{clip-path:url(#SVGID_00000075870469450591561200000003759868693746472376_);fill:#20380e}.st30,.st31{clip-path:url(#SVGID_00000103247221509034043290000003256376038041910929_)}.st31{clip-path:url(#SVGID_00000066518039575045936410000011303875817391421316_)}.st32,.st33{clip-path:url(#SVGID_00000180332437890177185360000000182844021599999129_)}.st32{fill:#eaa15e}.st33{enable-background:new}.st34{clip-path:url(#SVGID_00000067194842629260249400000005284227942982337940_);fill:#bcbec0}.st35,.st36{clip-path:url(#SVGID_00000170978085772186722930000002202949595046207126_);fill:#20380e}.st36{clip-path:url(#SVGID_00000051384112183659009030000002616094446363123628_)}.st37,.st38,.st39,.st40{clip-path:url(#SVGID_00000180332437890177185360000000182844021599999129_);fill:#a9c563}.st38,.st39,.st40{fill:#152409}.st39,.st40{fill:#ebefe7}.st40{fill:#b4cc77}.st41{clip-path:url(#SVGID_00000034809860444068695430000015004541150666199710_);fill:#20380e}</style><switch><g><defs><filter id="Adobe_OpacityMaskFilter" filterUnits="userSpaceOnUse" x="0" y="0" width="470" height="300.1"><feColorMatrix values="1 0 0 0 0 0 1 0 0 0 0 0 1 0 0 0 0 0 1 0"/></filter></defs><mask maskUnits="userSpaceOnUse" x="0" y="0" width="470" height="300.1" id="SVGID_1_"><g style="filter:url(#Adobe_OpacityMaskFilter)"><path d="M0 20C0 9 9 0 20 0h430c11 0 20 9 20 20v230H0V20z" style="fill:#f4f7eb"/></g></mask><g style="mask:url(#SVGID_1_)"><defs><path id="SVGID_00000179626292473038811760000013535362266892043652_" d="M0 0h470v250H0z"/></defs><clipPath id="SVGID_00000083066391338808084080000001430518327161057169_"><use xlink:href="#SVGID_00000179626292473038811760000013535362266892043652_" style="overflow:visible"/></clipPath><path style="clip-path:url(#SVGID_00000083066391338808084080000001430518327161057169_);fill:#fff" d="m186.2 299 11.5-.8-11.5-82.5-12 1.1z"/><g style="clip-path:url(#SVGID_00000083066391338808084080000001430518327161057169_)"><defs><path id="SVGID_00000049214708069452999850000009937929315502179726_" d="m186.2 299 11.5-.8-11.5-82.5-12 1.1z"/></defs><clipPath id="SVGID_00000070799867460692169360000003544717459681824932_"><use xlink:href="#SVGID_00000049214708069452999850000009937929315502179726_" style="overflow:visible"/></clipPath><path style="clip-path:url(#SVGID_00000070799867460692169360000003544717459681824932_);fill:#20380e" d="m173.2 217 12 82.2 2-.3-12-82.2-2 .3zm12.9-2.3-12 1.1.2 2 12-1.1-.2-2zm12.6 83.4-11.6-82.5-2 .3 11.6 82.5 2-.3zm-12.5 1.9 11.6-.8-.1-2-11.6.8.1 2zm-12-83.2-.1-1-1 .1.2 1 .9-.1zm12-1.1 1-.1-.1-.9-.9.1v.9zm11.5 82.5.1 1 1.1-.1-.1-1.1-1.1.2zm-11.5.8-1 .1.1.9.9-.1v-.9z"/></g><path style="clip-path:url(#SVGID_00000083066391338808084080000001430518327161057169_);fill:#fff" d="M183.1 297.4 170 211.1l4.4.9 12.8 86.5z"/><g style="clip-path:url(#SVGID_00000083066391338808084080000001430518327161057169_)"><defs><path id="SVGID_00000022562976051896328570000003313556152120929167_" d="M183.1 297.4 170 211.1l4.4.9 12.8 86.5z"/></defs><clipPath id="SVGID_00000018237881103446848100000010556239475024111797_"><use xlink:href="#SVGID_00000022562976051896328570000003313556152120929167_" style="overflow:visible"/></clipPath><path style="clip-path:url(#SVGID_00000018237881103446848100000010556239475024111797_);fill:#20380e" d="m187.5 297.5-4.1-1.1-.5 1.9 4.1 1.1.5-1.9zm-14.1-85.4 12.8 86.5 2-.3-12.8-86.5-2 .3zm-3.6 0 4.4.8.4-2-4.4-.8-.4 2zm14.3 85.1L171 211l-2 .3 13.1 86.2 2-.3zm3.1 1.3-.3 1 1.5.4-.2-1.5-1 .1zM174.4 212l1-.1-.1-.7-.7-.1-.2.9zm-4.4-.9.2-1-1.4-.3.2 1.4 1-.1zm13.1 86.3-1 .2.1.7.6.2.3-1.1z"/></g><path style="clip-path:url(#SVGID_00000083066391338808084080000001430518327161057169_);fill:#fff" d="m229 211.5 13.6 78.8 3.4 1.7-12.9-82z"/><g style="clip-path:url(#SVGID_00000083066391338808084080000001430518327161057169_)"><defs><path id="SVGID_00000015354392240205139630000002480340945909742015_" d="m229 211.5 13.6 78.8 3.4 1.7-12.9-82z"/></defs><clipPath id="SVGID_00000026878104307860190120000013659497887852490940_"><use xlink:href="#SVGID_00000015354392240205139630000002480340945909742015_" style="overflow:visible"/></clipPath><path style="clip-path:url(#SVGID_00000026878104307860190120000013659497887852490940_);fill:#20380e" d="m232.8 209-4.1 1.5.7 1.9 4.1-1.5-.7-1.9zm14.2 82.9-12.9-82.1-2 .3 12.9 82.1 2-.3zm-4.9-.7 3.5 1.7.9-1.8-3.5-1.7-.9 1.8zM228 211.6l13.6 78.8 2-.3-13.6-78.8-2 .3zm5.1-1.6 1-.2-.2-1.2-1.1.4.3 1zm12.9 82-.4.9 1.7.9-.3-1.9-1 .1zm-3.4-1.7-1 .2.1.5.5.2.4-.9zM229 211.5l-.3-.9-.8.3.1.8 1-.2z"/></g><path style="clip-path:url(#SVGID_00000083066391338808084080000001430518327161057169_);fill:#fff" d="m257.1 291-12.3 1.4-12.9-82.1 10.2-1.2z"/><g style="clip-path:url(#SVGID_00000083066391338808084080000001430518327161057169_)"><defs><path id="SVGID_00000031898227771001482210000011363934383004414906_" d="m257.1 291-12.3 1.4-12.9-82.1 10.2-1.2z"/></defs><clipPath id="SVGID_00000001623534629677163040000001551773056936846229_"><use xlink:href="#SVGID_00000031898227771001482210000011363934383004414906_" style="overflow:visible"/></clipPath><path style="clip-path:url(#SVGID_00000001623534629677163040000001551773056936846229_);fill:#20380e" d="m241.1 209.3 15 81.9 2-.4-15-81.9-2 .4zm-9.1 2 10.2-1.2-.2-2-10.2 1.2.2 2zm13.8 80.9-12.9-82.1-2 .3 12.9 82.1 2-.3zm11.1-2.2-12.3 1.4.2 2 12.3-1.4-.2-2zm-14.8-80.9 1-.2-.2-.9-.9.1.1 1zm-10.2 1.2-.1-1-1 .1.2 1 .9-.1zm12.9 82.1-1 .2.1.9 1-.1-.1-1zm12.3-1.4.1 1 1.1-.1-.2-1.1-1 .2z"/></g><path style="clip-path:url(#SVGID_00000083066391338808084080000001430518327161057169_);fill:#fff" d="M110 269.8 146.2 167l1 24.6-27.1 77.4z"/><g style="clip-path:url(#SVGID_00000083066391338808084080000001430518327161057169_)"><defs><path id="SVGID_00000149365708546149998370000007271224098568173457_" d="M110 269.8 146.2 167l1 24.6-27.1 77.4z"/></defs><clipPath id="SVGID_00000160903191152720758700000009026284875699253894_"><use xlink:href="#SVGID_00000149365708546149998370000007271224098568173457_" style="overflow:visible"/></clipPath><path style="clip-path:url(#SVGID_00000160903191152720758700000009026284875699253894_);fill:#20380e" d="m120 268-10.1.8.2 2 10.1-.8-.2-2zm26.3-76.7-27.1 77.4 1.9.7 27.1-77.4-1.9-.7zm-1.1-24.3 1 24.6 2-.1-1-24.6-2 .1zm-34.3 103.1 36.2-102.8-1.9-.7L109 269.4l1.9.7zm9.2-1.1.1 1 .6-.1.2-.6-.9-.3zm27.1-77.4.9.3.1-.2v-.2l-1 .1zm-1-24.6h1l-1.9-.3.9.3zM110 269.8l-.9-.3-.5 1.4 1.5-.1-.1-1z"/></g><path style="clip-path:url(#SVGID_00000083066391338808084080000001430518327161057169_);fill:#fff" d="m106 271.9 38.7-107.3 1.6 7.4-36.2 102.9z"/><g style="clip-path:url(#SVGID_00000083066391338808084080000001430518327161057169_)"><defs><path id="SVGID_00000005227055346316570680000001908942725590300083_" d="m106 271.9 38.7-107.3 1.6 7.4-36.2 102.9z"/></defs><clipPath id="SVGID_00000066501512670367190550000016003870794251611324_"><use xlink:href="#SVGID_00000005227055346316570680000001908942725590300083_" style="overflow:visible"/></clipPath><path style="clip-path:url(#SVGID_00000066501512670367190550000016003870794251611324_);fill:#20380e" d="m110.7 274.1-4.1-3-1.2 1.6 4.1 3 1.2-1.6zm34.7-102.4-36.2 102.8 1.9.7 36.2-102.8-1.9-.7zm-1.6-6.9 1.6 7.4 2-.4-1.6-7.4-2 .4zm-36.9 107.4L145.7 165l-1.9-.7-38.7 107.2 1.8.7zm3.2 2.7-.6.8 1.1.8.4-1.3-.9-.3zM146.3 172l.9.3.1-.3-.1-.3-.9.3zm-1.6-7.4 1-.2-.7-3.4-1.2 3.3.9.3zM106 271.9l-.9-.3-.3.7.6.4.6-.8z"/></g><path style="clip-path:url(#SVGID_00000083066391338808084080000001430518327161057169_);fill:#fff" d="m149.5 212.5 5.5.5-21.4-158-5.6 2.5z"/><g style="clip-path:url(#SVGID_00000083066391338808084080000001430518327161057169_)"><defs><path id="SVGID_00000116194838723385903660000002666176600454869676_" d="m149.5 212.5 5.5.5-21.4-158-5.6 2.5z"/></defs><clipPath id="SVGID_00000173135893844543139760000015843574331697294465_"><use xlink:href="#SVGID_00000116194838723385903660000002666176600454869676_" style="overflow:visible"/></clipPath><path style="clip-path:url(#SVGID_00000173135893844543139760000015843574331697294465_);fill:#20380e" d="m127 57.6 21.5 155 2-.3L129 57.4l-2 .2zm6.2-3.5-5.6 2.5.8 1.8 5.6-2.5-.8-1.8zM156 212.9l-21.4-158-2 .3 21.4 158 2-.3zm-6.6.6 5.5.5.2-2-5.5-.5-.2 2zM128 57.5l-.4-.9-.7.3.1.7 1-.1zm5.6-2.5 1-.1-.2-1.3-1.2.5.4.9zM155 213l-.1 1 1.2.1-.2-1.2-.9.1zm-5.5-.5-1 .1.1.8.8.1.1-1z"/></g><path style="clip-path:url(#SVGID_00000083066391338808084080000001430518327161057169_);fill:#fff" d="m133 55 104.4 3L262 202.9c-34.8 3.4-69.6 6.8-104.4 10.1-1.4-.1-2.7-.2-4.1-.3-6.9-52.6-13.7-105.1-20.5-157.7z"/><g style="clip-path:url(#SVGID_00000083066391338808084080000001430518327161057169_)"><defs><path id="SVGID_00000000216882887553517170000011204999890682376363_" d="m133 55 104.4 3L262 202.9c-34.8 3.4-69.6 6.8-104.4 10.1-1.4-.1-2.7-.2-4.1-.3-6.9-52.6-13.7-105.1-20.5-157.7z"/></defs><clipPath id="SVGID_00000173843219199640193210000011748537252203987118_"><use xlink:href="#SVGID_00000000216882887553517170000011204999890682376363_" style="overflow:visible"/></clipPath><path style="clip-path:url(#SVGID_00000173843219199640193210000011748537252203987118_);fill:#20380e" d="m154.4 212.6-10.2-78.9L134 54.8l-2 .3 10.2 78.9 10.2 78.9 2-.3zm3.2-.6c-1.4-.1-2.7-.2-4.1-.3l-.1 2c1.4.1 2.7.2 4.1.3l.1-2zm104.3-10.1-52.2 5.1-52.2 5.1.2 2 52.2-5.1 52.2-5.1-.2-2zM236.4 58.1 261 203l2-.3-24.6-144.9-2 .3zM133 56l104.4 3 .1-2L133 54v2zm20.5 156.7-1 .1.1.8.8.1.1-1zm4.1.3-.1 1h.2l-.1-1zM262 202.9l.1 1 1.1-.1-.2-1.1-1 .2zM237.4 58l1-.2-.1-.8h-.8l-.1 1zM133 55v-1h-1.2l.2 1.2 1-.2z"/></g><path style="clip-path:url(#SVGID_00000083066391338808084080000001430518327161057169_);fill:#fff" d="m142 62 89 2.7 24.6 135.1-94.9 6.2z"/><g style="clip-path:url(#SVGID_00000083066391338808084080000001430518327161057169_)"><defs><path id="SVGID_00000141430003366679448460000012864745338639639438_" d="m142 62 89 2.7 24.6 135.1-94.9 6.2z"/></defs><clipPath id="SVGID_00000088835840022356329890000000135361772945984941_"><use xlink:href="#SVGID_00000141430003366679448460000012864745338639639438_" style="overflow:visible"/></clipPath><path style="clip-path:url(#SVGID_00000088835840022356329890000000135361772945984941_);fill:#20380e" d="M161.6 205.9 143 61.9l-2 .3 18.7 143.9 1.9-.2zm94-7.1-95 6.2.1 2 95-6.2-.1-2zM230 64.8 254.7 200l2-.4-24.8-135.1-1.9.3zM142 63l89 2.6.1-2L142 61v2zm18.7 143-1 .1.1.9.9-.1v-.9zm94.9-6.2.1 1 1.1-.1-.2-1.1-1 .2zM231 64.7l1-.2-.1-.8h-.8l-.1 1zM142 62v-1h-1.2l.2 1.2 1-.2z"/></g><path style="clip-path:url(#SVGID_00000083066391338808084080000001430518327161057169_);fill:#fff" d="m148 216.9 13.7 2.2-1.6-11.1h-4.5l.4 3.8-8-1z"/><g style="clip-path:url(#SVGID_00000083066391338808084080000001430518327161057169_)"><defs><path id="SVGID_00000111186051034077911790000014722954114425421986_" d="m148 216.9 13.7 2.2-1.6-11.1h-4.5l.4 3.8-8-1z"/></defs><clipPath id="SVGID_00000010303376727322389880000012894629057768082340_"><use xlink:href="#SVGID_00000111186051034077911790000014722954114425421986_" style="overflow:visible"/></clipPath><path style="clip-path:url(#SVGID_00000010303376727322389880000012894629057768082340_);fill:#20380e" d="M147 210.8v6h2v-6h-2zm9.2 0-8-1-.2 2 8 1 .2-2zm-1.6-2.7.5 3.8 2-.2-.5-3.8-2 .2zm5.5-1.1h-4.5v2h4.5v-2zm2.6 12-1.7-11.1-2 .3 1.7 11.1 2-.3zm-14.9-1.2 13.7 2.2.3-2-13.7-2.2-.3 2zm.2-7 .1-1-1.1-.1v1.1h1zm8 1-.1 1 1.3.2-.2-1.3-1 .1zm-.4-3.8v-1h-1.1l.1 1.1 1-.1zm4.5 0 1-.1-.1-.9h-.9v1zm1.6 11.1-.2 1 1.4.2-.2-1.4-1 .2zm-13.7-2.2h-1v.8l.8.1.2-.9z"/></g><path style="clip-path:url(#SVGID_00000083066391338808084080000001430518327161057169_);fill:#fff" d="m265 201.5 1.6 9.2-91.4 7.3-14.2 1.1-1.6-11.1z"/><g style="clip-path:url(#SVGID_00000083066391338808084080000001430518327161057169_)"><defs><path id="SVGID_00000020364421319858195810000014316862955805641871_" d="m265 201.5 1.6 9.2-91.4 7.3-14.2 1.1-1.6-11.1z"/></defs><clipPath id="SVGID_00000106139538697005332620000008510632884935420324_"><use xlink:href="#SVGID_00000020364421319858195810000014316862955805641871_" style="overflow:visible"/></clipPath><path style="clip-path:url(#SVGID_00000106139538697005332620000008510632884935420324_);fill:#20380e" d="m159.4 209 105.6-6.5-.1-2-105.6 6.5.1 2zm2.6 10-1.7-11.1-2 .3 1.7 11.1 2-.3zm13.1-2-14.2 1.1.2 2 14.2-1.1-.2-2zm91.4-7.3L175 217l.2 2 91.5-7.3-.2-2zm-2.5-8 1.7 9.2 2-.4-1.7-9.2-2 .4zM159.4 208l-.1-1-1.1.1.2 1.1 1-.2zm1.6 11.1-1 .1.1.9.9-.1v-.9zm14.2-1.1.1 1-.1-1zm91.4-7.3.1 1 1.1-.1-.2-1.1-1 .2zm-1.6-9.2 1-.2-.2-.9-.9.1.1 1z"/></g><path style="clip-path:url(#SVGID_00000083066391338808084080000001430518327161057169_);fill:#94b73d" d="m176.3 146.6 48.1-5.7c-2.4 5.3-4.9 10.7-7.3 16-9.2 1.4-18.3 2.8-27.5 4.2-4.5-4.8-8.9-9.7-13.3-14.5z"/><path style="clip-path:url(#SVGID_00000083066391338808084080000001430518327161057169_);fill:#fff" d="m194.5 112 7.1 31.6c-4.5.2-8.9.3-13.4.5l6.3-32.1z"/><g style="clip-path:url(#SVGID_00000083066391338808084080000001430518327161057169_)"><defs><path id="SVGID_00000062169603726706309600000002553982299457306254_" d="m194.5 112 7.1 31.6c-4.5.2-8.9.3-13.4.5l6.3-32.1z"/></defs><clipPath id="SVGID_00000033360971362856657360000015064351328426166452_"><use xlink:href="#SVGID_00000062169603726706309600000002553982299457306254_" style="overflow:visible"/></clipPath><path style="clip-path:url(#SVGID_00000033360971362856657360000015064351328426166452_);fill:#20380e" d="M193.5 112h2-2zm-4.2 32.3 6.2-32.1-2-.4-6.2 32.1 2 .4zm12.3-1.6c-4.5.2-8.9.3-13.4.5l.1 2c4.5-.1 8.9-.3 13.4-.5l-.1-2zm-8-30.4 7.1 31.6 2-.4-7.1-31.6-2 .4zm.9-.3h1c0-.5-.4-.9-.9-1-.5 0-1 .3-1.1.8l1 .2zm-6.2 32.1-1-.2c-.1.3 0 .6.2.8.2.2.5.4.8.4v-1zm13.4-.4v1c.3 0 .6-.2.8-.4.2-.2.2-.5.2-.8l-1 .2zm-7.2-31.7h-1v.2l1-.2z"/></g><path style="clip-path:url(#SVGID_00000083066391338808084080000001430518327161057169_);fill:#fff" d="m201.6 143.6-3.6-24.2c5.1 7.1 10.1 14.1 15.2 21.2-3.8 1.1-7.7 2-11.6 3z"/><g style="clip-path:url(#SVGID_00000083066391338808084080000001430518327161057169_)"><defs><path id="SVGID_00000011744871321078301400000018092175579798162618_" d="m201.6 143.6-3.6-24.2c5.1 7.1 10.1 14.1 15.2 21.2-3.8 1.1-7.7 2-11.6 3z"/></defs><clipPath id="SVGID_00000061432105535758306140000002050499854363822999_"><use xlink:href="#SVGID_00000011744871321078301400000018092175579798162618_" style="overflow:visible"/></clipPath><path style="clip-path:url(#SVGID_00000061432105535758306140000002050499854363822999_);fill:#20380e" d="M213 139.7c-1.9.5-3.9 1-5.8 1.5s-3.9 1-5.8 1.5l.5 1.9c1.9-.5 3.9-1 5.8-1.5s3.9-1 5.8-1.5l-.5-1.9zM197.3 120c5.1 7.1 10.1 14.1 15.2 21.2l1.6-1.2c-5.1-7.1-10.1-14.2-15.2-21.2l-1.6 1.2zm5.3 23.5-3.6-24.2-2 .3 3.6 24.2 2-.3zm10.7-2.8.2 1c.3-.1.6-.3.7-.6.1-.3.1-.7-.1-.9l-.8.5zm-15.2-21.3.8-.6c-.3-.4-.8-.5-1.2-.3-.4.2-.7.6-.6 1.1l1-.2zm3.5 24.2-1 .1c0 .3.2.5.4.7.2.2.5.2.8.1l-.2-.9z"/></g><path style="clip-path:url(#SVGID_00000083066391338808084080000001430518327161057169_);fill:#20380e" d="M154.9 161.9c1.5-1.4 3.9-3.1 7-3.5 4.8-.6 6.6 2.4 12 2.3 4.7-.1 4.6-2.6 10.2-3.3 6-.8 6.8 1.9 12.4.8 4.7-.9 5.1-3 9.1-2.9 3.8.1 4.4 2 7.9 1.7 3.8-.3 3.9-2.6 7.6-3.1 4.5-.6 5.6 2.6 9.6 1.9 3.9-.7 4.3-4.1 7.7-4.6 1.9-.3 5 .3 9.3 4.8 2.7 14.7 5.3 29.3 8 44-31.7 2-63.3 4.1-95 6.2-2-14.9-3.9-29.6-5.8-44.3z"/><path style="clip-path:url(#SVGID_00000083066391338808084080000001430518327161057169_);fill:#fff" d="m185.6 107-9.7-5.7-4.6 10.3-2.9-10.9-10.5 3.9 5.6-9.7-10.2-4.7 10.9-2.8-3.9-10.6 9.7 5.7 4.6-10.3 2.9 11 10.5-4-5.7 9.7 10.3 4.7-10.9 2.9z"/><g style="clip-path:url(#SVGID_00000083066391338808084080000001430518327161057169_)"><defs><path id="SVGID_00000166642251099723136750000006121474573997168529_" d="m185.6 107-9.7-5.7-4.6 10.3-2.9-10.9-10.5 3.9 5.6-9.7-10.2-4.7 10.9-2.8-3.9-10.6 9.7 5.7 4.6-10.3 2.9 11 10.5-4-5.7 9.7 10.3 4.7-10.9 2.9z"/></defs><clipPath id="SVGID_00000096042568841373409390000008580676993930891149_"><use xlink:href="#SVGID_00000166642251099723136750000006121474573997168529_" style="overflow:visible"/></clipPath><path style="clip-path:url(#SVGID_00000096042568841373409390000008580676993930891149_)" d="m180.7 96.8 3.9 10.6 1.9-.7-3.9-10.6-1.9.7zm11.6-4.2-10.9 2.8.5 1.9 10.9-2.8-.5-1.9zm-10.4-2.8 10.2 4.7.8-1.8-10.2-4.7-.8 1.8zm5.3-11.1-5.7 9.7 1.7 1 5.7-9.7-1.7-1zm-9.4 5.4 10.6-3.9-.7-1.9-10.6 3.9.7 1.9zm-4.1-11.6 2.8 10.9 1.9-.5-2.8-10.9-1.9.5zm-2.8 10.4 4.7-10.3-1.8-.8-4.7 10.3 1.8.8zm-11.2-5.2 9.7 5.7 1-1.7-9.7-5.7-1 1.7zm5.4 9.3-3.9-10.6-1.9.7 3.9 10.6 1.9-.7zm-11.5 4.2 10.9-2.9-.5-1.9-11 2.9.6 1.9zM164 94l-10.2-4.7-.8 1.8 10.2 4.7.8-1.8zm-5.3 11.1 5.7-9.7-1.7-1-5.7 9.7 1.7 1zm9.4-5.4-10.5 3.9.7 1.9 10.5-3.9-.7-1.9zm4.1 11.6-2.9-10.9-1.9.5 2.9 10.9 1.9-.5zm2.8-10.4-4.7 10.3 1.8.8 4.7-10.3-1.8-.8zm11.1 5.3-9.7-5.7-1 1.7 9.7 5.7 1-1.7zm-4.4-9.7-.3-1-1.1.3.4 1 1-.3zm10.9-2.9.3 1 2.7-.7-2.6-1.2-.4.9zm-10.3-4.7-.9-.5-.6 1 1 .5.5-1zm5.7-9.7.9.5 1.4-2.4-2.6 1 .3.9zm-10.5 4-1 .3.3 1.1 1-.4-.3-1zm-2.9-11 1-.3-.7-2.7-1.2 2.6.9.4zM170 82.5l-.5.9 1 .6.5-1-1-.5zm-9.7-5.7.5-.9-2.4-1.4 1 2.6.9-.3zm3.9 10.6.3 1 1.1-.3-.4-1-1 .3zm-10.9 2.8-.3-1-2.7.7 2.6 1.2.4-.9zm10.2 4.7.9.5.6-1-1-.5-.5 1zm-5.6 9.7-.9-.5-1.4 2.4 2.6-1-.3-.9zm10.5-3.9 1-.3-.3-1.1-1 .4.3 1zm2.9 10.9-1 .3.7 2.7 1.2-2.6-.9-.4zm4.6-10.3.5-.9-1-.6-.5 1 1 .5zm9.7 5.7-.5.9 2.4 1.4-1-2.6-.9.3z"/></g><circle style="clip-path:url(#SVGID_00000083066391338808084080000001430518327161057169_);fill:#fff" cx="172.9" cy="91.9" r="12.2"/><g style="clip-path:url(#SVGID_00000083066391338808084080000001430518327161057169_)"><defs><circle id="SVGID_00000062192351696209458770000007050223045514619066_" cx="172.9" cy="91.9" r="12.2"/></defs><clipPath id="SVGID_00000007427266107227833800000017139476872373640612_"><use xlink:href="#SVGID_00000062192351696209458770000007050223045514619066_" style="overflow:visible"/></clipPath><path style="clip-path:url(#SVGID_00000007427266107227833800000017139476872373640612_);fill:#20380e" d="M172.9 80.7c6.2 0 11.2 5 11.2 11.2h2c0-7.3-5.9-13.2-13.2-13.2v2zm-11.1 11.2c0-6.2 5-11.2 11.2-11.2v-2c-7.3 0-13.2 5.9-13.2 13.2h2zm11.1 11.2c-6.2 0-11.2-5-11.2-11.2h-2c0 7.3 5.9 13.2 13.2 13.2v-2zm11.2-11.2c0 6.2-5 11.2-11.2 11.2v2c7.3 0 13.2-5.9 13.2-13.2h-2z"/></g><path style="clip-path:url(#SVGID_00000083066391338808084080000001430518327161057169_);fill:#fff" d="M264.2 142.2c-1.7-1.9-3.8-2.1-3.8-2.1h-.2c-2.1-.2-11.2 14.8-16.9 24.3 4.2 1.2 7.3 3.1 11.5 4.2 7.1-3.3 13.1-9.9 13.3-16.2 0-5.2-3.1-9.3-3.9-10.2z"/><g style="clip-path:url(#SVGID_00000083066391338808084080000001430518327161057169_)"><defs><path id="SVGID_00000124851793356204400080000012380473671899897989_" d="M264.2 142.2c-1.7-1.9-3.8-2.1-3.8-2.1h-.2c-2.1-.2-11.2 14.8-16.9 24.3 4.2 1.2 7.3 3.1 11.5 4.2 7.1-3.3 13.1-9.9 13.3-16.2 0-5.2-3.1-9.3-3.9-10.2z"/></defs><clipPath id="SVGID_00000122717249675305928820000015036885623740930712_"><use xlink:href="#SVGID_00000124851793356204400080000012380473671899897989_" style="overflow:visible"/></clipPath><path style="clip-path:url(#SVGID_00000122717249675305928820000015036885623740930712_);fill:#20380e" d="m262.8 140.8 2.8 2.8-2.8-2.8zm7.2 11.7c.1-6-3.4-10.6-4.3-11.6l-3 2.6c.7.8 3.4 4.4 3.3 8.9l4 .1zm-14.4 18c3.8-1.7 7.4-4.4 10-7.5 2.6-3.1 4.4-6.7 4.5-10.5l-4-.1c-.1 2.5-1.3 5.3-3.5 8-2.2 2.6-5.2 4.9-8.6 6.4l1.6 3.7zm-12.9-4.2c2 .6 3.7 1.3 5.5 2 1.8.8 3.7 1.6 6 2.2l1.1-3.9c-2-.6-3.7-1.3-5.5-2-1.8-.8-3.7-1.6-6-2.2l-1.1 3.9zm17.6-28.2c-.7-.1-1.3.2-1.6.4-.4.2-.7.5-1 .7-.6.5-1.2 1.2-1.8 2-1.3 1.6-2.9 3.8-4.5 6.3-3.3 5-7 11.1-9.9 15.9l3.4 2c2.8-4.8 6.5-10.9 9.8-15.8 1.6-2.4 3.1-4.5 4.3-6 .6-.7 1.1-1.2 1.4-1.5l.2-.2h.1s-.1 0-.2.1c-.1 0-.3.1-.5 0l.3-3.9zm.1 2 .3-2h-.1l-.7 3.9H260.2c-.1.1-.1.1.2-1.9zm5.3.8c-1.1-1.2-2.3-1.9-3.3-2.3-.5-.2-.9-.3-1.2-.4-.2 0-.3-.1-.4-.1h-.1l-.2 2-.2 2h.2c.1 0 .4.1.6.2.5.2 1.2.6 1.8 1.2l2.8-2.6zm-1.5 1.3 1.5-1.3-1.4-1.6-1.5 1.5 1.4 1.4zm3.8 10.2h-2 2zm-13.3 16.2-.5 1.9.7.2.7-.3-.9-1.8zm-11.5-4.2-1.7-1-1.3 2.2 2.5.7.5-1.9zm16.9-24.4.3-2h-.2l-.1 2zm.3.1-.3 2 .3-2zm3.8 2.1-1.5 1.3 1.4 1.6 1.5-1.5-1.4-1.4z"/></g><path style="clip-path:url(#SVGID_00000083066391338808084080000001430518327161057169_);fill:#20380e" d="M286.8 121c-.2-.2-.4-.4-.8-.7-.6-2 .6-5.8-.7-6.3-4.9-2.1-23.6 15.4-34 35.5 1.9 2 4.2 4.2 7.2 6.3 4.2 3 8.3 4.8 11.5 6 1.3-1.6 2.7-3.6 4.1-5.3 7.4-9.6 17.6-30.1 12.7-35.5z"/><path style="clip-path:url(#SVGID_00000083066391338808084080000001430518327161057169_);fill:#2c4d13" d="M251.4 149.5c-.7 1.3-1.3 2.7-2 4 1.6 1.7 4.2 3.9 7.9 5.8 3.4 1.7 8.3 4.9 10.4 5.3.5-.6 1.4-1.7 2.3-2.9-3.3-1.2-7.3-3-11.5-6-2.9-2-5.3-4.2-7.1-6.2z"/><path style="clip-path:url(#SVGID_00000083066391338808084080000001430518327161057169_);fill:#fff" d="M233.5 136.6c3.3 4.1 7.3 8.6 12.1 13.1 3.3 3.1 5.8 6.4 8.8 8.8 2.4 3.7 3.7 6.9 2.1 8.9-2 2.5-6.5 1.6-7.1 1.4-3.3-.7-6.8-3.2-15.7-19.1-2.5-4.6-4.5-8.5-5.9-11.3l5.7-1.8z"/><g style="clip-path:url(#SVGID_00000083066391338808084080000001430518327161057169_)"><defs><path id="SVGID_00000126294952846918689390000016540148528874393249_" d="M233.5 136.6c3.3 4.1 7.3 8.6 12.1 13.1 3.3 3.1 5.8 6.4 8.8 8.8 2.4 3.7 3.7 6.9 2.1 8.9-2 2.5-6.5 1.6-7.1 1.4-3.3-.7-6.8-3.2-15.7-19.1-2.5-4.6-4.5-8.5-5.9-11.3l5.7-1.8z"/></defs><clipPath id="SVGID_00000026127903581448258750000000507227117114264500_"><use xlink:href="#SVGID_00000126294952846918689390000016540148528874393249_" style="overflow:visible"/></clipPath><path style="clip-path:url(#SVGID_00000026127903581448258750000000507227117114264500_);fill:#20380e" d="m235.3 137.5-3.6-1.8 3.6 1.8zm-6.9 2.9 5.7-1.9-1.3-3.8-5.7 1.9 1.3 3.8zm7.1 8.4c-2.5-4.5-4.5-8.4-5.9-11.2l-3.6 1.8c1.4 2.8 3.4 6.8 6 11.4l3.5-2zm14.4 18.1c-1.2-.3-2.5-.8-4.7-3.2-2.2-2.5-5.2-6.9-9.6-14.8l-3.5 1.9c4.4 8 7.6 12.7 10.1 15.6 2.6 2.9 4.7 4 6.8 4.5l.9-4zm5.1-.8c-.5.6-1.4.9-2.6 1-1.2.1-2.3-.2-2.5-.2l-.9 3.9c.4.1 1.8.4 3.5.3 1.6-.1 4-.5 5.6-2.4l-3.1-2.6zm-2.2-6.5c1.2 1.8 2 3.3 2.3 4.5.3 1.2.1 1.7-.1 2l3.1 2.5c1.4-1.7 1.4-3.8.9-5.6-.5-1.8-1.6-3.8-2.8-5.7l-3.4 2.3zm-8.5-8.5c1.6 1.5 3 3 4.4 4.6 1.4 1.5 2.9 3 4.6 4.3l2.4-3.2c-1.4-1.1-2.7-2.4-4.1-3.9-1.4-1.5-2.9-3.1-4.6-4.8l-2.7 3zM232 137.8c3.4 4.2 7.5 8.7 12.3 13.3l2.7-2.9c-4.7-4.4-8.7-8.9-11.9-12.9l-3.1 2.5zm1.5-1.2.6 1.9.8-.3.4-.7-1.8-.9zm-5.7 1.9-.6-1.9-2.2.7 1 2.1 1.8-.9zm5.9 11.3-1.7 1 1.7-1zm15.7 19 .4-2-.4 2zm7.1-1.4-1.5-1.3 1.5 1.3zm-2-8.9 1.7-1.1-.2-.3-.3-.2-1.2 1.6zm-8.9-8.8-1.4 1.5 1.4-1.5zm-12.1-13.1 1.6-1.3-2-2.4-1.4 2.8 1.8.9z"/></g><path style="clip-path:url(#SVGID_00000083066391338808084080000001430518327161057169_);fill:#fff" d="M230.4 130.5c-1.8-2.4-2.1-3-2.7-3.3-.4-.2-1.6-.6-6.4.7-1.7.4-3 .9-3.9 1.2-.6 1-.4 1.6-.3 1.8.5 1 2.7 1.3 5.5.5-.1.9-.1 2.3.4 4 .9 3.4 3.7 7.3 6 6.9 1.4-.3 2.8-2.4 3.9-4.1.4-.5.6-1 .8-1.3-1-3-2.3-5-3.3-6.4z"/><g style="clip-path:url(#SVGID_00000083066391338808084080000001430518327161057169_)"><defs><path id="SVGID_00000026863117655462483910000014731322068025343894_" d="M230.4 130.5c-1.8-2.4-2.1-3-2.7-3.3-.4-.2-1.6-.6-6.4.7-1.7.4-3 .9-3.9 1.2-.6 1-.4 1.6-.3 1.8.5 1 2.7 1.3 5.5.5-.1.9-.1 2.3.4 4 .9 3.4 3.7 7.3 6 6.9 1.4-.3 2.8-2.4 3.9-4.1.4-.5.6-1 .8-1.3-1-3-2.3-5-3.3-6.4z"/></defs><clipPath id="SVGID_00000046315588243803475840000015549621273741976704_"><use xlink:href="#SVGID_00000026863117655462483910000014731322068025343894_" style="overflow:visible"/></clipPath><path style="clip-path:url(#SVGID_00000046315588243803475840000015549621273741976704_);fill:#20380e" d="m231.8 129.1-2.8 2.8 2.8-2.8zm3.8 7.1c-1.1-3.2-2.5-5.4-3.5-6.9l-3.2 2.4c.9 1.2 2.1 3.1 3 5.8l3.7-1.3zm-1.1 3.1c.4-.6.7-1.1.9-1.4l-3.4-2c-.2.3-.4.7-.7 1.2l3.2 2.2zm-5.2 4.9c.8-.1 1.4-.5 1.9-.9s.9-.8 1.3-1.3c.8-.9 1.5-1.9 2-2.7l-3.3-2.3c-.6.8-1.1 1.7-1.7 2.4-.3.3-.5.6-.7.7-.2.2-.3.1-.2.1l.7 4zm-8.2-8.3c.5 1.9 1.6 4 2.9 5.6.6.8 1.4 1.5 2.2 2.1.8.5 2 .9 3.2.7l-.7-3.9c.1 0 0 0-.4-.2-.3-.2-.8-.6-1.2-1.2-.9-1.1-1.7-2.7-2.1-4.1l-3.9 1zm-.5-4.6c-.1 1-.1 2.7.5 4.6l3.8-1.1c-.4-1.3-.4-2.5-.3-3.3l-4-.2zm-5.3.4c.7 1.5 2.3 2 3.5 2.1 1.3.1 2.8-.1 4.4-.6l-1.2-3.8c-1.2.4-2.2.5-2.8.4-.3 0-.5-.1-.5-.1l.3.3-3.7 1.7zm.4-3.6c-.9 1.5-.9 2.8-.4 3.7l3.6-1.8c0 .1.1.2.1.3v.2c0 .1 0 0 .2-.4l-3.5-2zm5.1-2.1c-1.7.5-3.1.9-4 1.2l1.4 3.8c.8-.3 2.1-.7 3.7-1.1l-1.1-3.9zm7.8-.6c-1.1-.5-2.9-.7-7.8.6l1 3.9c2.4-.6 3.7-.8 4.4-.8h.6l1.8-3.7zm3.4 3.9c-.9-1.2-1.4-2-1.8-2.5-.4-.5-.9-1.1-1.6-1.4l-1.7 3.6c-.2-.1-.2-.2.1.2.4.4.8 1.1 1.8 2.4l3.2-2.3zm-1.6 1.2 1.6-1.2-.1-.1-.1-.1-1.4 1.4zm3.3 6.3 1.7 1 .5-.8-.3-.9-1.9.7zm-.8 1.4-1.6-1.1 1.6 1.1zm-3.9 4 .4 2-.4-2zm-6-6.9 1.9-.5-1.9.5zm-.4-3.9 2 .1.2-2.9-2.8.9.6 1.9zm-5.5-.5 1.8-.8-1.8.8zm.3-1.8-.7-1.9-.7.2-.4.6 1.8 1.1zm3.9-1.2.5 1.9-.5-1.9zm6.4-.7.8-1.8-.8 1.8zm2.7 3.3-1.6 1.2.1.1.1.1 1.4-1.4z"/></g><path style="clip-path:url(#SVGID_00000083066391338808084080000001430518327161057169_);fill:#2c4d13" d="M212.5 122.5c1.2-1.7 5.9 1.7 6.5 2.1 16.9 12.7 25 18.1 23.9 19.4-1 1.2-9-4.3-26.7-16.1-.6-.5-4.9-3.8-3.7-5.4z"/><path style="clip-path:url(#SVGID_00000083066391338808084080000001430518327161057169_);fill:#386118" d="M200.9 114.1c1.3 3.4 13-2 10.9 8.3-8.2 3.3-13.3-3.4-10.9-8.3z"/><path style="clip-path:url(#SVGID_00000083066391338808084080000001430518327161057169_);fill:#94b73d" d="M202.8 121.7c.9-.2 2.2-.7 3.1-1.9s1.3-2.7 1-4.2c-2.6-.2-5.4.1-6-1.5-1.3 2.6-.4 5.8 1.9 7.6z"/><path style="clip-path:url(#SVGID_00000083066391338808084080000001430518327161057169_);fill:#003643" d="M212 120c.5.7 1 1.3 1.5 2l-1.2 1.6c-.8-.2-1.7-.4-2.5-.6.8-1 1.5-2 2.2-3z"/><path style="clip-path:url(#SVGID_00000083066391338808084080000001430518327161057169_);fill:#fff" d="M225.8 136.7c-.7.5-2.2-.3-3.2-1.9-1-1.5-1.3-3.2-.6-3.7.8-.5 2.2.3 3.2 1.9 1.1 1.6 1.4 3.2.6 3.7z"/><g style="clip-path:url(#SVGID_00000083066391338808084080000001430518327161057169_)"><defs><path id="SVGID_00000175309663586206942620000014503731626968117691_" d="M225.8 136.7c-.7.5-2.2-.3-3.2-1.9-1-1.5-1.3-3.2-.6-3.7.8-.5 2.2.3 3.2 1.9 1.1 1.6 1.4 3.2.6 3.7z"/></defs><clipPath id="SVGID_00000069373447638420373930000009110236993289766310_"><use xlink:href="#SVGID_00000175309663586206942620000014503731626968117691_" style="overflow:visible"/></clipPath><path style="clip-path:url(#SVGID_00000069373447638420373930000009110236993289766310_);fill:#20380e" d="M224.5 133.6c.5.7.7 1.3.8 1.8.1.6-.1.6 0 .5l1.1 1.7c.9-.6 1-1.7.8-2.4-.1-.8-.5-1.8-1.1-2.7l-1.6 1.1zm-1.9-1.6c-.1.1 0-.1.5.2.4.2.9.7 1.4 1.4l1.7-1.1c-.6-.9-1.3-1.6-2.1-2-.7-.4-1.7-.7-2.6-.1l1.1 1.6zm.8 2.3c-.5-.7-.7-1.3-.8-1.8-.1-.6.1-.6 0-.5l-1.1-1.7c-.9.6-1 1.7-.8 2.4.1.8.5 1.8 1.1 2.7l1.6-1.1zm1.9 1.6c.1-.1.1.1-.4-.2-.4-.2-1-.7-1.4-1.4l-1.7 1.1c.6.9 1.3 1.6 2.1 2 .7.4 1.7.7 2.6.1l-1.2-1.6zm.5.8-.6-.8.6.8z"/></g><path style="clip-path:url(#SVGID_00000083066391338808084080000001430518327161057169_);fill:#fff" d="M297.2 215c-.7 13.5-1.5 32.7-2.6 53.3 0 .6-2.5 1.1-4.7 1.3-2.7.2-5.5-.3-5.6-.9-1.9-8.7-3.4-19.8-4.6-27.7-1.5-10.8-2.2-19.7-2.3-27.2 6.5.3 13.1.8 19.8 1.2z"/><g style="clip-path:url(#SVGID_00000083066391338808084080000001430518327161057169_)"><defs><path id="SVGID_00000059307605212762138260000014672162192726495420_" d="M297.2 215c-.7 13.5-1.5 32.7-2.6 53.3 0 .6-2.5 1.1-4.7 1.3-2.7.2-5.5-.3-5.6-.9-1.9-8.7-3.4-19.8-4.6-27.7-1.5-10.8-2.2-19.7-2.3-27.2 6.5.3 13.1.8 19.8 1.2z"/></defs><clipPath id="SVGID_00000080196319857939721580000016793424354582448040_"><use xlink:href="#SVGID_00000059307605212762138260000014672162192726495420_" style="overflow:visible"/></clipPath><path style="clip-path:url(#SVGID_00000080196319857939721580000016793424354582448040_);fill:#20380e" d="M299.2 215h-4 4zm-22 .7c6.6.4 13.2.8 19.8 1.3l.3-4c-6.6-.4-13.2-.8-19.8-1.3l-.3 4zm4.5 24.9c-1.5-10.7-2.2-19.6-2.3-26.9l-4 .1c.1 7.6.8 16.6 2.3 27.4l4-.6zm4.5 27.6c-1.9-8.6-3.4-19.6-4.6-27.6l-4 .6c1.1 7.9 2.7 19.1 4.6 27.9l4-.9zm3.5-.6c-1.2.1-2.4 0-3.3-.1-.5-.1-.7-.2-.9-.2-.1 0 0 0 .1.1s.5.4.6 1l-3.9.8c.2.8.7 1.2.9 1.4.3.2.6.4.9.5.5.2 1.1.3 1.7.4 1.2.2 2.7.3 4.2.2l-.3-4.1zm2.9.7c0-.7.4-1.1.5-1.2.1-.1.2-.2.2-.1-.1 0-.3.1-.7.2-.8.2-1.8.3-2.8.4l.3 4c1.2-.1 2.5-.3 3.5-.5.5-.1 1-.3 1.5-.5.2-.1.5-.3.8-.5.3-.2.7-.8.7-1.6l-4-.2zm2.6-53.4c-.4 6.8-.7 15-1.2 24-.4 9.1-.9 19-1.4 29.3l4 .2c.5-10.3 1-20.3 1.4-29.3.4-9.1.8-17.2 1.2-24l-4-.2zm2 .1-.1 2 2.1.1V215h-2zm-19.8-1.3.1-2-2.2-.1v2.2l2.1-.1zm2.3 27.2-2 .3 2-.3zm4.6 27.7 2-.4-2 .4zm5.6 1-.1-2 .1 2zm4.7-1.3-2-.1 2 .1zm2.6-53.3h2l-4-.1 2 .1z"/></g><path style="clip-path:url(#SVGID_00000083066391338808084080000001430518327161057169_);fill:#fff" d="M323.6 217.7c.6 7.5.8 16.1.3 25.5-.5 9.3-1.6 17.8-3 25.1-.2.7-2.6 1.1-4.7 1.3-2.6.2-5.6-.3-5.6-.9-1.4-14.2-2.7-28.4-4.1-42.6-.2-3.4-.4-6.8-.6-10.1 5.9.5 11.8 1.1 17.7 1.7z"/><g style="clip-path:url(#SVGID_00000083066391338808084080000001430518327161057169_)"><defs><path id="SVGID_00000003102937574260418500000012792646108724756396_" d="M323.6 217.7c.6 7.5.8 16.1.3 25.5-.5 9.3-1.6 17.8-3 25.1-.2.7-2.6 1.1-4.7 1.3-2.6.2-5.6-.3-5.6-.9-1.4-14.2-2.7-28.4-4.1-42.6-.2-3.4-.4-6.8-.6-10.1 5.9.5 11.8 1.1 17.7 1.7z"/></defs><clipPath id="SVGID_00000129912710730998005790000013148278388599027119_"><use xlink:href="#SVGID_00000003102937574260418500000012792646108724756396_" style="overflow:visible"/></clipPath><path style="clip-path:url(#SVGID_00000129912710730998005790000013148278388599027119_);fill:#20380e" d="M321.6 217.7h4-4zm-15.8.2c5.8.6 11.8 1.2 17.6 1.7l.4-4c-5.9-.6-11.7-1.2-17.6-1.7l-.4 4zm2.8 8.1c-.2-3.4-.4-6.8-.6-10.1l-4 .2c.2 3.4.4 6.8.6 10.1l4-.2zm4 42.5c-1.4-14.2-2.7-28.4-4.1-42.6l-4 .4c1.4 14.2 2.7 28.4 4.1 42.6l4-.4zm3.5-.9c-1.1.1-2.4 0-3.3-.1-.5-.1-.8-.2-.9-.2-.1 0 0 0 .1.1s.5.4.6 1.2l-4 .4c.1.9.6 1.4.9 1.6.3.2.6.4.9.5.5.2 1.1.3 1.7.4 1.2.2 2.8.3 4.2.2l-.2-4.1zm2.9.3c.1-.4.3-.7.4-.8.1-.1.2-.1.1-.1s-.3.1-.7.2c-.7.2-1.8.3-2.8.4l.3 4c1.1-.1 2.3-.2 3.4-.5.5-.1 1.1-.3 1.6-.5.4-.2 1.3-.7 1.6-1.8l-3.9-.9zm2.9-24.8c-.5 9.2-1.6 17.6-2.9 24.8l3.9.7c1.4-7.4 2.5-15.9 3-25.4l-4-.1zm-.3-25.2c.6 7.4.8 15.9.3 25.2l4 .2c.5-9.5.3-18.2-.3-25.8l-4 .4zm2-.2h2v-1.8l-1.8-.2-.2 2zM306 216l.2-2-2.3-.2.1 2.3 2-.1zm.6 10.1-2 .1 2-.1zm4 42.5 2-.2-2 .2zm5.6 1 .1 2-.1-2zm4.7-1.3 2 .4-2-.4zm3-25.1-2-.1 2 .1zm-.3-25.5h-2v.2l2-.2z"/></g><path style="clip-path:url(#SVGID_00000083066391338808084080000001430518327161057169_);fill:#20380e" d="M331.7 135.8c-1.4-8.6-2.6-20.1-5.1-21.3-2.1-.5-5-1.1-8.6-1.8-3.2-.6-6.4-1.2-10.4-1.7 0 0-13.5-1.5-19.9.9-1.8.7-3.5 1.7-3.5 1.7s-2.5 1.3-4.7 2.8c-4.1 2.9-3.9 16.4-4.4 20.9-.5 4.5-1.4 14.2-1 31.8.1 5.5.3 10 .5 13.1 4.4.1 7.6.2 10.7.2 3.7.1 7.3.1 12.5.1v.3c5.6-.1 13.1-.2 20.5-.3 6-.1 11.8-.2 16.3-.2.2-8.1 0-16.5-.6-24.8-.4-7.4-1.2-14.7-2.3-21.7z"/><path style="clip-path:url(#SVGID_00000083066391338808084080000001430518327161057169_);fill:#fff" d="M309.2 111.9c0-4.6.1-9.1.1-13.7-6.5 0-13 0-19.6.1.1 4.6.1 9.2.1 13.8.1 2.7 4 3.8 9.1 4 5.9.1 10.2-1.9 10.3-4.2z"/><g style="clip-path:url(#SVGID_00000083066391338808084080000001430518327161057169_)"><defs><path id="SVGID_00000135679252257435742820000009676845897541508004_" d="M309.2 111.9c0-4.6.1-9.1.1-13.7-6.5 0-13 0-19.6.1.1 4.6.1 9.2.1 13.8.1 2.7 4 3.8 9.1 4 5.9.1 10.2-1.9 10.3-4.2z"/></defs><clipPath id="SVGID_00000114784467543197481350000005191620649051852949_"><use xlink:href="#SVGID_00000135679252257435742820000009676845897541508004_" style="overflow:visible"/></clipPath><path style="clip-path:url(#SVGID_00000114784467543197481350000005191620649051852949_);fill:#20380e" d="M298.9 118c3.2.1 6-.4 8.1-1.3 1.1-.5 2-1 2.8-1.8.7-.8 1.3-1.8 1.4-3l-4-.1c0-.1 0 0-.2.3-.3.3-.7.6-1.5.9-1.5.6-3.7 1.1-6.5 1l-.1 4zm-11-5.9c.1 2.6 2 4 3.9 4.8 1.9.8 4.5 1.1 7.1 1.2l.1-4c-2.5-.1-4.5-.4-5.8-.9-1.3-.5-1.4-1-1.4-1.1h-3.9zm-.2-13.8c0 2.3.1 4.6.1 6.9 0 2.3 0 4.6.1 6.9h4c0-2.3-.1-4.6-.1-6.9 0-2.3 0-4.6-.1-6.9h-4zm21.6-2.1h-19.6v4h19.6v-4zm1.9 15.7V98.3h-4v13.6h4zm-12.3 4.1-.1 2 .1-2zm-9-3.9h-2 2zm-.2-13.8v-2h-2v2h2zm19.6-.1h2v-2h-2v2zm-.1 13.7h2-2z"/></g><path style="clip-path:url(#SVGID_00000083066391338808084080000001430518327161057169_);fill:#20380e" d="M299.9 220.4c.1 1.1.2 2.6.3 4 3.8.6 8.6 1 14.1.6 6.1-.4 11.2-1.5 15.1-2.7.3-2.4.6-4.8 1-7.1 1.3-3.8 2.5-8.2 3.4-13.2 1.3-7.7 1.4-14.5 1-19.9h-60c-.2 3.2-.3 6.4-.4 9.7-.3 11.6 0 22.7.6 33.3 3.1.6 7.1 1 11.6 1 5-.1 9.3-.8 12.6-1.6.3-1.5.6-2.9.7-4.1z"/><path style="clip-path:url(#SVGID_00000083066391338808084080000001430518327161057169_);fill:#2c4d13" d="M300.6 228.2c1.9 1 7.6 1.2 10.2 1.3 9.9.5 14.7-1.1 18-2.5.2-1.6.4-3.1.6-4.7-4 1.2-9.2 2.4-15.4 2.7-5.4.3-10-.1-13.8-.6.1 1.4.2 2.7.4 3.8zM278.1 230.6c8.3 1 15.2.2 20.3-2.2.2-1.1.5-2.5.7-3.9-3.4.8-7.7 1.5-12.8 1.6-4.4.1-8.2-.4-11.4-1 .1 1.7.2 3.4.3 5 1 .2 1.9.4 2.9.5z"/><path style="clip-path:url(#SVGID_00000083066391338808084080000001430518327161057169_);fill:#eaa15e" d="M313 202.8c2.4 2.4 6.9 3.4 7.4 2.9-2.2-1.3-4.2-2.7-5.9-4.5-1.6-1.7-2.9-3.9-4-6.2-.5.6.8 6 2.5 7.8zM281.8 200.7c-.7 2.7-3.8 5.2-4.5 5 1.1-1.9 2-3.6 2.4-5.6.4-1.9.3-4.1 0-6.1.7.2 2.6 4.7 2.1 6.7z"/><g style="clip-path:url(#SVGID_00000083066391338808084080000001430518327161057169_);enable-background:new"><defs><path id="SVGID_00000045578164773070614620000009113078082727941294_" d="M0 0h470v250H0z"/></defs><clipPath id="SVGID_00000041977429793930420380000005942392195075624112_"><use xlink:href="#SVGID_00000045578164773070614620000009113078082727941294_" style="overflow:visible"/></clipPath><path style="clip-path:url(#SVGID_00000041977429793930420380000005942392195075624112_);fill:#bcbec0" d="m334.2 157.3-7.1-.5 1.7-32c2.7 13.4 5.1 26.7 5.4 32.5z"/></g><path style="clip-path:url(#SVGID_00000083066391338808084080000001430518327161057169_);fill:#fff" d="M284.5 113.1c.6 7.9 7.2 14 14.7 13.9 8-.1 14.8-7.1 14.4-15.6 2.3.4 4.5.9 6.8 1.3 5.1 22.5 10.2 44.9 15.3 67.3.6 7.5.6 16.2-.2 25.7-.5 5.3-1.2 10.2-2.1 14.7-20.5 1-41.1 2-61.6 3-.4-19.4 0-40.6 1.9-63.3 1.3-15.8 3.1-30.7 5.3-44.6 1.7-.8 3.6-1.6 5.5-2.4z"/><path style="clip-path:url(#SVGID_00000083066391338808084080000001430518327161057169_);fill:#20380e" d="M283.5 113.1h2-2zm-4.3 3.4c1.9-.8 3.8-1.6 5.7-2.5l-.8-1.8-5.7 2.4.8 1.9zm-4.7 43.8c1.3-15.8 3.1-30.6 5.3-44.6l-2-.3c-2.2 14-4 28.9-5.3 44.7l2 .2zm-1.8 63.1c-.4-19.3 0-40.5 1.9-63.2l-2-.2c-1.9 22.7-2.3 44-1.9 63.4h2zm60.6-3.9c-10.3.5-20.5 1-30.8 1.5s-20.5 1-30.8 1.5l.1 2c10.3-.5 20.5-1 30.8-1.5s20.5-1 30.8-1.5l-.1-2zm1.1-13.8c-.5 5.2-1.2 10.1-2.1 14.6l2 .4c.9-4.5 1.6-9.5 2.1-14.8l-2-.2zm.3-25.6c.5 7.5.6 16.1-.2 25.6l2 .2c.9-9.6.8-18.4.2-25.9l-2 .1zm-15.3-67.2c5.1 22.5 10.2 44.9 15.3 67.3l2-.4c-5.1-22.5-10.2-44.9-15.3-67.3l-2 .4zm-6-.5c1.1.2 2.3.4 3.4.7 1.1.2 2.3.4 3.4.7l.4-2c-1.1-.2-2.3-.4-3.4-.7-1.1-.2-2.3-.4-3.4-.7l-.4 2zM299.2 128c8.6-.1 15.8-7.6 15.4-16.7l-2 .1c.4 7.9-5.9 14.5-13.4 14.6v2zm-15.7-14.8c.6 8.4 7.6 14.9 15.7 14.8v-2c-7 .1-13.2-5.6-13.7-12.9l-2 .1zm1-.1h1c0-.3-.2-.7-.5-.8s-.6-.2-.9-.1l.4.9zm-5.7 2.5-.4-.9c-.3.1-.5.4-.6.8l1 .1zm-5.3 44.6 1 .1-1-.1zm-1.8 63.2h-1c0 .3.1.5.3.7.2.2.5.3.7.3v-1zm61.6-2.9v1c.5 0 .8-.4.9-.8l-.9-.2zm2.1-14.7 1 .1-1-.1zm.3-25.8 1-.1v-.1l-1 .2zm-15.3-67.3 1-.2c-.1-.4-.4-.7-.8-.8l-.2 1zm-6.8-1.3.2-1c-.3-.1-.6 0-.8.2-.2.2-.4.5-.3.8h.9zM299.2 127v-1 1zm-14.7-13.9h-1v.1l1-.1z"/><path style="clip-path:url(#SVGID_00000083066391338808084080000001430518327161057169_);fill:#94b73d" d="M294.7 151c.2.6-.3 1.4-1 1.6-1 .4-1.7-.8-2.5-.5-1.4.5-.5 4.4-1.5 4.8-1.1.4-3.8-4.4-3.2-4.9.3-.3 1.6.9 2 .5.3-.3.2-1.3-.4-1.7-1-.8-3 .8-3.4.3-.8-.9 3.6-6.6 4.9-5.9.9.4-.3 3.1 1.3 4.6 1.4 1.1 3.5.3 3.8 1.2z"/><path style="clip-path:url(#SVGID_00000083066391338808084080000001430518327161057169_);fill:#20380e" d="M288.5 177.3c-.3.4-1.7-.3-2.1.2-.3.3.2.8.1 1.7-.1.8-.6 1.5-.9 1.5-.6-.1-.1-3.4-.9-3.6-.2 0-.3.2-.7.3-.6.1-1.2.1-1.2-.1-.1-.3 1.7-.5 1.8-1.4.1-.6-.8-1-.7-1.6.1-.5 1.2-.8 1.7-.4.6.4.1 1.5.7 1.9.4.3.7-.1 1.3.2.7.3 1.1 1 .9 1.3z"/><path style="clip-path:url(#SVGID_00000083066391338808084080000001430518327161057169_);fill:#94b73d" d="M327.8 168.1c.7.2 1.2-.1 1.4.1.3.5-.9 2.6-2.8 2.9-1.1.2-2.2-.3-2.8-1-.5-.6-1-1.6-.7-2 .4-.6 2 .2 2.2-.2.2-.5-1.6-1.5-1.3-2.2.1-.4 1-.7 1.6-.5 1.2.3.9 2.4 2.4 2.9z"/><path style="clip-path:url(#SVGID_00000083066391338808084080000001430518327161057169_);fill:#20380e" d="M318.7 135.6c.3.2-2.7 5-3.8 4.5-1-.5.3-3.9-1.2-4.7-1-.6-2.3.6-2.6.2-.6-.7 2.4-5 3.8-4.5 1.3.5.2 5.4 1.6 5.8.8.2 2-1.5 2.2-1.3z"/><path style="clip-path:url(#SVGID_00000083066391338808084080000001430518327161057169_);fill:#fff" d="M340.8 141.8c-1.3-.3-3.2-.4-4.3.3-4.5 2.8 6.4 18 2.4 30.6-1.3 4.1-4.8 9.7-14.8 14.6 1.5 2.4 2.9 4.8 4.4 7.2 3.2-1.6 15.2-8.4 19.6-22.4 3.8-12.2-.4-22.7-2.3-26-.7-1-2.2-3.5-5-4.3z"/><g style="clip-path:url(#SVGID_00000083066391338808084080000001430518327161057169_)"><defs><path id="SVGID_00000044142017662925157960000015938769264272352934_" d="M340.8 141.8c-1.3-.3-3.2-.4-4.3.3-4.5 2.8 6.4 18 2.4 30.6-1.3 4.1-4.8 9.7-14.8 14.6 1.5 2.4 2.9 4.8 4.4 7.2 3.2-1.6 15.2-8.4 19.6-22.4 3.8-12.2-.4-22.7-2.3-26-.7-1-2.2-3.5-5-4.3z"/></defs><clipPath id="SVGID_00000079449488474250393680000008536830325352363187_"><use xlink:href="#SVGID_00000044142017662925157960000015938769264272352934_" style="overflow:visible"/></clipPath><path style="clip-path:url(#SVGID_00000079449488474250393680000008536830325352363187_);fill:#20380e" d="M347.4 145.2c-.6-1.1-2.5-4.3-6.1-5.3l-1.1 3.9c1.9.5 3 2.3 3.7 3.5l3.5-2.1zm2.5 27.6c4-12.9-.4-24-2.5-27.6l-3.4 2c1.7 2.9 5.7 12.8 2.1 24.4l3.8 1.2zm-20.5 23.6c3.3-1.7 15.9-8.8 20.5-23.6l-3.8-1.2c-4.1 13.2-15.5 19.7-18.6 21.3l1.9 3.5zm-7-8c1.5 2.4 2.9 4.8 4.4 7.2l3.4-2.1c-1.5-2.4-2.9-4.8-4.4-7.2l-3.4 2.1zm14.6-16.3c-1.1 3.5-4.2 8.7-13.8 13.5l1.8 3.6c10.4-5.2 14.3-11.1 15.8-15.8l-3.8-1.3zm-1.6-31.7c-1.1.7-1.7 1.8-1.9 2.9-.2 1.1-.1 2.2 0 3.3.4 2.2 1.2 4.9 2 7.7 1.7 5.8 3.2 12.2 1.4 17.8l3.8 1.2c2.2-7 .3-14.5-1.4-20.2-.9-3-1.6-5.3-1.9-7.2-.1-.9-.1-1.5-.1-1.9l.1-.3-2-3.3zm6-.5c-.8-.2-1.8-.4-2.8-.3-1 0-2.1.2-3.1.9l2.1 3.4c.2-.1.6-.2 1.2-.3.6 0 1.2.1 1.6.2l1-3.9zm4.3 6.3-1.7 1 1.7-1zm2.3 26 1.9.6-1.9-.6zm-19.5 22.4-1.7 1 1 1.6 1.7-.9-1-1.7zm-4.4-7.2-.9-1.8-2 1 1.1 1.9 1.8-1.1zm14.8-14.6 1.9.6-1.9-.6zm-2.4-30.7 1.1 1.7-1.1-1.7zm4.3-.3-.5 1.9.5-1.9z"/></g><path style="clip-path:url(#SVGID_00000083066391338808084080000001430518327161057169_);fill:#20380e" d="M325.4 187c1 2.5 2.1 5 3.1 7.4-2 4.5-5.7 7.5-9.1 7.3-2.3-.2-4.5-1.8-5.8-2.7-1.6-1.2-2.2-2.1-2.6-2.7-.6-1-.8-2-.9-2.7 1.7 1 3.3 2 5 3 2.1-1.4 2.6-2 2.5-2.2-.2-.4-2.4 1.3-4.5.3-1.8-.8-1.7-2.7-1.1-3.3.6-.6.5.7 3 .4 2-.2 2.6-1.6 5.3-3.1 1.4-.8 3.1-1.4 5.1-1.7zM339.5 151.6c4.2-.6 7.8-1.6 10.6-2.6-.8-3.2-1.6-5.7-2.3-8.7 0 0-5.6-19.5-20.1-25.5-.4-.2-.7-.3-.7-.3-.7-.2-1.1-.1-1.4 0-2.9 1.5 2 13.6 3.8 34.2 0 .3.1.6.1.6.1.6.2 1.5.3 2.6 2.7.2 6 .2 9.7-.3z"/><path style="clip-path:url(#SVGID_00000083066391338808084080000001430518327161057169_);fill:#2c4d13" d="M330.2 155.7c4.6.1 10.1-.3 16.1-1.8 1.6-.4 3.1-.9 4.5-1.4-.2-1.3-.5-2.5-.7-3.5-2.8 1-6.4 2-10.6 2.6-3.7.5-7 .6-9.7.4 0 .3.1.5.1.8.1 1.2.2 2.2.3 2.9z"/><path style="clip-path:url(#SVGID_00000083066391338808084080000001430518327161057169_);fill:#20380e" d="M337.9 194.4c-.6 8.8-13.5 17.5-30.4 20.2-18.2 2.9-34.2-2.5-35.7-12 0-.2-.1-.5-.1-.7-.1.7 0 1.4.1 2.1 1.5 9.5 17.5 14.8 35.7 12 17.8-2.8 31.1-12.3 30.4-21.6zM325.1 185.6c-.4-2.6-4.8-4.1-9.8-3.3s-8.7 3.5-8.3 6.1c.1.5.3 1 .7 1.4-.3-2.6 3.4-5.2 8.3-6 4.1-.6 7.6.2 9.1 1.8 0 .1 0 0 0 0z"/><path style="clip-path:url(#SVGID_00000083066391338808084080000001430518327161057169_);fill:#fff" d="M316.8 191.7c-5 .8-9.3-.7-9.8-3.3-.4-2.6 3.3-5.3 8.3-6.1 5-.8 9.3.7 9.8 3.3.4 2.6-3.3 5.3-8.3 6.1zm21 2c-1.5-9.5-17.5-14.8-35.7-12-16.9 2.6-29.8 11.4-30.4 20.2 0 .2 0 .5.1.7 1.5 9.5 17.5 14.8 35.7 12 16.9-2.6 29.8-11.4 30.4-20.2 0-.2 0-.4-.1-.7z"/><g style="clip-path:url(#SVGID_00000083066391338808084080000001430518327161057169_)"><defs><path id="SVGID_00000109005060868323035770000006245320471766131645_" d="M316.8 191.7c-5 .8-9.3-.7-9.8-3.3-.4-2.6 3.3-5.3 8.3-6.1 5-.8 9.3.7 9.8 3.3.4 2.6-3.3 5.3-8.3 6.1zm21 2c-1.5-9.5-17.5-14.8-35.7-12-16.9 2.6-29.8 11.4-30.4 20.2 0 .2 0 .5.1.7 1.5 9.5 17.5 14.8 35.7 12 16.9-2.6 29.8-11.4 30.4-20.2 0-.2 0-.4-.1-.7z"/></defs><clipPath id="SVGID_00000155135569697198304620000005244325376591669692_"><use xlink:href="#SVGID_00000109005060868323035770000006245320471766131645_" style="overflow:visible"/></clipPath><path style="clip-path:url(#SVGID_00000155135569697198304620000005244325376591669692_);fill:#20380e" d="M324.1 185.8c.1.7-.3 1.7-1.7 2.8-1.3 1-3.4 1.8-5.7 2.2l.3 2c2.6-.4 5-1.3 6.6-2.6 1.6-1.2 2.8-2.8 2.5-4.7l-2 .3zm-8.6-2.5c2.4-.4 4.5-.2 6.1.3 1.6.5 2.4 1.4 2.5 2.1l2-.3c-.3-1.9-1.9-3.1-3.8-3.7-1.9-.7-4.4-.8-7.1-.4l.3 2zm-7.4 5c-.1-.7.3-1.7 1.7-2.8 1.3-1 3.4-1.8 5.7-2.2l-.3-2c-2.6.4-5 1.3-6.6 2.6-1.6 1.2-2.8 2.8-2.5 4.7l2-.3zm8.6 2.4c-2.4.4-4.5.2-6.1-.3-1.6-.5-2.4-1.4-2.5-2.1l-2 .3c.3 1.9 1.9 3.1 3.8 3.7 1.9.7 4.4.8 7.1.4l-.3-2zm22.2 3.6c0-.2 0-.5-.1-.8l-2 .3c0 .2 0 .4.1.6l2-.1zm-31.3 21.3c8.6-1.3 16.1-4.2 21.7-7.9 5.5-3.7 9.2-8.3 9.6-13.2l-2-.2c-.3 3.9-3.4 8.1-8.7 11.7-5.3 3.5-12.6 6.3-20.9 7.6l.3 2zm-36.8-12.8c.8 5.3 5.6 9.2 12.2 11.4 6.6 2.2 15.4 2.9 24.6 1.4l-.3-2c-9 1.4-17.4.8-23.7-1.3-6.3-2.1-10.2-5.6-10.9-9.8l-1.9.3zm-.1-.8c0 .2 0 .5.1.8l2-.3c0-.2 0-.4-.1-.6l-2 .1zm31.3-21.2c-8.6 1.3-16.1 4.2-21.7 7.9-5.5 3.7-9.2 8.3-9.6 13.2l2 .2c.3-3.9 3.4-8.1 8.7-11.7 5.3-3.5 12.6-6.3 20.9-7.6l-.3-2zm36.8 12.8c-.8-5.3-5.6-9.2-12.2-11.4-6.6-2.2-15.4-2.9-24.6-1.4l.3 2c9-1.4 17.4-.8 23.7 1.3 6.3 2.1 10.2 5.6 10.9 9.8l1.9-.3zm-13.7-8-1 .2 1-.2zm-18 2.8 1-.2-1 .2zm30.8 6 1 .1v-.2l-1 .1zm-30.4 20.2-.2-1 .2 1zm-35.7-12-1 .2 1-.2zm-.1-.7-1-.1v.2l1-.1zm30.4-20.2.2 1-.2-1zm35.7 12 1-.2-1 .2z"/></g><path style="clip-path:url(#SVGID_00000083066391338808084080000001430518327161057169_);fill:#a9c563" d="M306.7 186.4c.3 1.8-2.3 3.7-5.8 4.3-3.5.6-6.5-.5-6.8-2.3-.3-1.8 2.3-3.7 5.8-4.3 3.5-.5 6.5.5 6.8 2.3z"/><path style="clip-path:url(#SVGID_00000083066391338808084080000001430518327161057169_);fill:#152409" d="M332.8 195.4c.3 1.8-2.3 3.7-5.8 4.3-3.5.6-6.5-.5-6.8-2.3-.3-1.8 2.3-3.7 5.8-4.3 3.5-.5 6.5.5 6.8 2.3z"/><path style="clip-path:url(#SVGID_00000083066391338808084080000001430518327161057169_);fill:#20380e" d="M323.5 204.5c.3 1.8-2.3 3.7-5.8 4.3-3.5.5-6.5-.5-6.8-2.3-.3-1.8 2.3-3.7 5.8-4.3 3.4-.5 6.5.5 6.8 2.3z"/><path style="clip-path:url(#SVGID_00000083066391338808084080000001430518327161057169_);fill:#2c4d13" d="M309 208c.3 1.8-2.3 3.7-5.8 4.3-3.5.6-6.5-.5-6.8-2.3-.3-1.8 2.3-3.7 5.8-4.3 3.5-.6 6.6.5 6.8 2.3z"/><path style="clip-path:url(#SVGID_00000083066391338808084080000001430518327161057169_);fill:#386118" d="M295.4 206.2c.3 1.8-2.3 3.7-5.8 4.3-3.5.5-6.5-.5-6.8-2.3-.3-1.8 2.3-3.7 5.8-4.3 3.5-.5 6.5.5 6.8 2.3z"/><path style="clip-path:url(#SVGID_00000083066391338808084080000001430518327161057169_);fill:#ebefe7" d="M287.9 199.4c.3 1.8-2.3 3.7-5.8 4.3-3.5.6-6.5-.5-6.8-2.3-.3-1.8 2.3-3.7 5.8-4.3 3.5-.5 6.6.5 6.8 2.3z"/><path style="clip-path:url(#SVGID_00000083066391338808084080000001430518327161057169_);fill:#94b73d" d="M294.6 192c.3 1.8-2.3 3.7-5.8 4.3-3.5.6-6.5-.5-6.8-2.3-.3-1.8 2.3-3.7 5.8-4.3 3.4-.5 6.5.5 6.8 2.3z"/><path style="clip-path:url(#SVGID_00000083066391338808084080000001430518327161057169_);fill:#20380e" d="m267.9 115.5-2.9-3.4s-3-.5-6.5.6c-3.6 1.1-5.3 2.8-5.4 2.9-2.3 2.5 1.8 0 3.4.6 0 0-2.1 1.8-4 4.1-.9 1.1 4.6-1 5-1.1.4-.1-1 3.4-4.6 4 0 0 .5.7 3.6 0-1.5 1.3-1.8 2.6-1.8 2.6s5.2-.7 8.2-3.4c.8-.7 1.4-1.4 1.9-2 1.3-.8 2.4-2.4 3.1-4.9z"/><path style="clip-path:url(#SVGID_00000083066391338808084080000001430518327161057169_);fill:#20380e" d="M271.9 114.2c.8-.8 1.2-1.9 1.6-2.9.4-1 .6-2 .9-3-1.5 0-2.9 0-4.3.1-1.3.1-2.5.6-3.3 1.7-.8 1.1-.7 2.6-.5 3.9 0 0 1.9 1.3 3.9 1.2.6-.1 1.2-.5 1.7-1z"/><path style="clip-path:url(#SVGID_00000083066391338808084080000001430518327161057169_);fill:#20380e" d="M277.6 109.6c.7-1.2 1-2.7 1.2-4.1.2-1.3.3-2.6.3-4-1.8.4-3.6.7-5.4 1.3-1.6.5-3 1.4-3.7 3-.7 1.6-.2 3.5.4 5 0 0 2.7 1.2 5.1.5 1-.3 1.6-.9 2.1-1.7z"/><path style="clip-path:url(#SVGID_00000083066391338808084080000001430518327161057169_);fill:#20380e" d="M283.4 102.3c.5-1.8.2-3.9-.1-5.8-.3-1.8-.7-3.5-1.2-5.3-2.2 1.2-4.4 2.4-6.5 3.9-1.8 1.3-3.3 3.1-3.6 5.4-.2 2.3 1.2 4.6 2.5 6.4 0 0 4 .4 6.9-1.5 1.2-.8 1.8-1.9 2-3.1z"/><path style="clip-path:url(#SVGID_00000083066391338808084080000001430518327161057169_);fill:#20380e" d="M285.8 91.6c-.5-2.3.8-4.8-.6-6.7-1.3-1.8-4.6-2.7-6.8-2.6-3.2.2-3.9 2.8-5.4 5.6-1.3 2.5-2 5.3-1 8.1 1 2.7 3.9 4.5 6.4 5.8 0 0 4.7-1.7 6.9-5.5.7-1.6.8-3.2.5-4.7z"/><path style="clip-path:url(#SVGID_00000083066391338808084080000001430518327161057169_);fill:#94b73d" d="M265.6 113c-.5 0-1-.4-1-.9s.4-1 .9-1 1 .4 1 .9c.1.5-.4 1-.9 1z"/><path style="clip-path:url(#SVGID_00000083066391338808084080000001430518327161057169_);fill:#94b73d" d="M266.3 114.2c-.5 0-1-.4-1-.9s.4-1 .9-1 1 .4 1 .9c.1.5-.4.9-.9 1z"/><path style="clip-path:url(#SVGID_00000083066391338808084080000001430518327161057169_);fill:#94b73d" d="M267.1 115.1c-.5 0-1-.4-1-.9s.4-1 .9-1 1 .4 1 .9-.4 1-.9 1z"/><path style="clip-path:url(#SVGID_00000083066391338808084080000001430518327161057169_);fill:#94b73d" d="M267.7 116.2c-.5 0-1-.4-1-.9s.4-1 .9-1 1 .4 1 .9c.1.5-.3 1-.9 1z"/><path style="clip-path:url(#SVGID_00000083066391338808084080000001430518327161057169_);fill:#b4cc77" d="M276 99.9s-3.7-.8-5.5-3.8c-.6-1 1.1-3.2 2.8-4.3.8-.5 1.6-.8 2.2-.6 1.9.6 3 6 3 6l-1.9 2-.6.7z"/><path style="clip-path:url(#SVGID_00000083066391338808084080000001430518327161057169_);fill:#94b73d" d="m276.7 99.1-.7.8s-3.7-.8-5.5-3.8c-.6-1 1.1-3.2 2.8-4.3-.6 1.3-1 3-.4 4.7.6 1.8 2.4 2.5 3.8 2.6z"/><path style="clip-path:url(#SVGID_00000083066391338808084080000001430518327161057169_);fill:#b4cc77" d="M277.3 101.1s.5 3.8 3.3 5.7c1 .7 3.3-.8 4.5-2.4.6-.8.9-1.6.8-2.2-.4-1.9-5.7-3.5-5.7-3.5l-2.1 1.7-.8.7z"/><path style="clip-path:url(#SVGID_00000083066391338808084080000001430518327161057169_);fill:#94b73d" d="m278.1 100.4-.8.7s.5 3.8 3.3 5.7c1 .7 3.3-.8 4.5-2.4-1.3.5-3 .7-4.7 0-1.7-.7-2.2-2.5-2.3-4z"/><path style="clip-path:url(#SVGID_00000083066391338808084080000001430518327161057169_);fill:#b4cc77" d="M277.8 102.9c-1.2-.7-3.8-2.6-3-4.1.8-1.3 2.2-2.7 3.4-2.6.1 0 .3.1.4.2 1.2.7 3.5 2.4 2.6 3.9-.3.5-.6.9-.9 1.4-.7.9-1.6 1.6-2.5 1.2z"/><path style="clip-path:url(#SVGID_00000083066391338808084080000001430518327161057169_);fill:#94b73d" d="M277.8 102.8c-1.2-.7-3.8-2.6-3-4.1.8-1.3 2.2-2.7 3.4-2.6-1.5 1.3-3 3.2-1.8 4.5 1.2 1.4 2.8 1.3 4 1-.8 1-1.7 1.7-2.6 1.2z"/><path style="clip-path:url(#SVGID_00000083066391338808084080000001430518327161057169_);fill:#20380e" d="m331.6 114.1 2.9-3.4s3-.5 6.5.6c3.6 1.1 5.3 2.8 5.4 2.9 2.3 2.5-1.8 0-3.4.6 0 0 2.1 1.8 4 4.1.9 1.1-4.6-1-5-1.1-.4-.1 1 3.4 4.6 4 0 0-.5.7-3.6 0 1.5 1.3 1.8 2.6 1.8 2.6s-5.2-.7-8.2-3.4c-.8-.7-1.4-1.4-1.9-2-1.3-.9-2.5-2.4-3.1-4.9z"/><path style="clip-path:url(#SVGID_00000083066391338808084080000001430518327161057169_);fill:#20380e" d="M327.6 112.8c-.8-.8-1.2-1.9-1.6-2.9-.4-1-.6-2-.9-3 1.5 0 2.9 0 4.3.1 1.3.1 2.5.6 3.3 1.7.8 1.1.7 2.6.5 3.9 0 0-1.9 1.3-3.9 1.2-.7-.1-1.3-.5-1.7-1z"/><path style="clip-path:url(#SVGID_00000083066391338808084080000001430518327161057169_);fill:#20380e" d="M321.9 108.1c-.7-1.2-1-2.7-1.2-4.1-.2-1.3-.3-2.6-.3-4 1.8.4 3.6.7 5.4 1.3 1.6.5 3 1.4 3.7 3 .7 1.6.2 3.5-.4 5 0 0-2.7 1.2-5.1.5-1-.3-1.6-.9-2.1-1.7z"/><path style="clip-path:url(#SVGID_00000083066391338808084080000001430518327161057169_);fill:#20380e" d="M316 100.9c-.5-1.8-.2-3.9.1-5.8.3-1.8.7-3.5 1.2-5.3 2.2 1.2 4.4 2.4 6.5 3.9 1.8 1.3 3.3 3.1 3.6 5.4.2 2.3-1.2 4.6-2.5 6.4 0 0-4 .4-6.9-1.5-1.1-.9-1.7-1.9-2-3.1z"/><path style="clip-path:url(#SVGID_00000083066391338808084080000001430518327161057169_);fill:#20380e" d="M313.7 90.2c.5-2.3-.8-4.8.6-6.7 1.3-1.8 4.6-2.7 6.8-2.6 3.2.2 3.9 2.8 5.4 5.6 1.3 2.5 2 5.3 1 8.1-1 2.7-3.9 4.5-6.4 5.8 0 0-4.7-1.7-6.9-5.5-.8-1.7-.8-3.2-.5-4.7z"/><path style="clip-path:url(#SVGID_00000083066391338808084080000001430518327161057169_);fill:#94b73d" d="M333.9 111.5c.5 0 1-.4 1-.9s-.4-1-.9-1-1 .4-1 .9c-.1.5.3 1 .9 1z"/><path style="clip-path:url(#SVGID_00000083066391338808084080000001430518327161057169_);fill:#94b73d" d="M333.2 112.7c.5 0 1-.4 1-.9s-.4-1-.9-1-1 .4-1 .9c-.1.5.3 1 .9 1z"/><path style="clip-path:url(#SVGID_00000083066391338808084080000001430518327161057169_);fill:#94b73d" d="M332.4 113.6c.5 0 1-.4 1-.9s-.4-1-.9-1-1 .4-1 .9.4 1 .9 1z"/><path style="clip-path:url(#SVGID_00000083066391338808084080000001430518327161057169_);fill:#94b73d" d="M331.7 114.8c.5 0 1-.4 1-.9s-.4-1-.9-1-1 .4-1 .9.4.9.9 1z"/><path style="clip-path:url(#SVGID_00000083066391338808084080000001430518327161057169_);fill:#b4cc77" d="M323.5 98.4s3.7-.8 5.5-3.8c.6-1-1.1-3.2-2.8-4.3-.8-.5-1.6-.8-2.2-.6-1.9.6-3 6-3 6l1.9 2 .6.7z"/><path style="clip-path:url(#SVGID_00000083066391338808084080000001430518327161057169_);fill:#94b73d" d="m322.8 97.7.7.8s3.7-.8 5.5-3.8c.6-1-1.1-3.2-2.8-4.3.6 1.3 1 3 .4 4.7-.6 1.8-2.4 2.4-3.8 2.6z"/><path style="clip-path:url(#SVGID_00000083066391338808084080000001430518327161057169_);fill:#b4cc77" d="M322.1 99.6s-.5 3.8-3.3 5.7c-1 .7-3.3-.8-4.5-2.4-.6-.8-.9-1.6-.8-2.2.4-1.9 5.7-3.5 5.7-3.5l2.1 1.7.8.7z"/><path style="clip-path:url(#SVGID_00000083066391338808084080000001430518327161057169_);fill:#94b73d" d="m321.3 99 .8.7s-.5 3.8-3.3 5.7c-1 .7-3.3-.8-4.5-2.4 1.3.5 3 .7 4.7 0 1.8-.8 2.3-2.5 2.3-4z"/><path style="clip-path:url(#SVGID_00000083066391338808084080000001430518327161057169_);fill:#b4cc77" d="M321.6 101.4c1.2-.7 3.8-2.6 3-4.1-.8-1.3-2.2-2.7-3.4-2.6-.1 0-.3.1-.4.2-1.2.7-3.5 2.4-2.6 3.9.3.5.6.9.9 1.4.8 1 1.7 1.7 2.5 1.2z"/><path style="clip-path:url(#SVGID_00000083066391338808084080000001430518327161057169_);fill:#94b73d" d="M321.6 101.4c1.2-.7 3.8-2.6 3-4.1-.8-1.3-2.2-2.7-3.4-2.6 1.5 1.3 3 3.2 1.8 4.5-1.2 1.4-2.8 1.3-4 1 .9 1 1.8 1.7 2.6 1.2z"/><path style="clip-path:url(#SVGID_00000083066391338808084080000001430518327161057169_);fill:#fff" d="M307.6 103.8c4.6-3.2 7.8-8.7 7.8-8.7 2.7 1.9 5.4-1.6 5.5-5.9.1-4.3-3.6-4.3-4.9-.8-1.4 3.5-2.2 3.3-2.2 3.3 1-6.1-1.6-10.2-4.2-12.5-2.5-2.3-2.8-4.2-2.8-4.2-5.9-.9-7.3-7.9-7.3-7.9-.5 6.2 4.1 8.5 4.1 8.5-11.3.4-13.5-9.2-13.5-9.2-.8-.6-1.4 0-1.4 0-.1-.4-.5-.2-.5-.2-.5-.2-.7.2-.7.2-1.5-.9-3-.1-3-.1-1.7 5.2 2.4 8.3 2.4 8.3-6.7 1.5-9.4-5.4-9.4-5.4-5.7 2.7-3.8 9.4-3.8 9.4-1.8-.2-3-2.1-3-2.1s-.4 2.6 1.6 5.3c2 2.7 2.4 5.9 1.2 10.6-.9 3.6-.4 9.1 7.5 13.4 7 3.8 14.8 2.7 16.9 2.1 0 0 3.1-.6 5.3-1.7 0 .2 2.2-.6 4.4-2.4z"/><g style="clip-path:url(#SVGID_00000083066391338808084080000001430518327161057169_)"><defs><path id="SVGID_00000138536064261043995690000011670174730685218179_" d="M307.6 103.8c4.6-3.2 7.8-8.7 7.8-8.7 2.7 1.9 5.4-1.6 5.5-5.9.1-4.3-3.6-4.3-4.9-.8-1.4 3.5-2.2 3.3-2.2 3.3 1-6.1-1.6-10.2-4.2-12.5-2.5-2.3-2.8-4.2-2.8-4.2-5.9-.9-7.3-7.9-7.3-7.9-.5 6.2 4.1 8.5 4.1 8.5-11.3.4-13.5-9.2-13.5-9.2-.8-.6-1.4 0-1.4 0-.1-.4-.5-.2-.5-.2-.5-.2-.7.2-.7.2-1.5-.9-3-.1-3-.1-1.7 5.2 2.4 8.3 2.4 8.3-6.7 1.5-9.4-5.4-9.4-5.4-5.7 2.7-3.8 9.4-3.8 9.4-1.8-.2-3-2.1-3-2.1s-.4 2.6 1.6 5.3c2 2.7 2.4 5.9 1.2 10.6-.9 3.6-.4 9.1 7.5 13.4 7 3.8 14.8 2.7 16.9 2.1 0 0 3.1-.6 5.3-1.7 0 .2 2.2-.6 4.4-2.4z"/></defs><clipPath id="SVGID_00000034050204344704037050000015838672818544387756_"><use xlink:href="#SVGID_00000138536064261043995690000011670174730685218179_" style="overflow:visible"/></clipPath><path style="clip-path:url(#SVGID_00000034050204344704037050000015838672818544387756_);fill:#20380e" d="M307.6 101.8v4-4zm-4.4 4.6-.7-1.9s.1 0 .2-.1c.2-.1.5-.2.9-.4.7-.4 1.7-1 2.7-1.7l2.5 3.1c-1.2 1-2.5 1.7-3.4 2.2-.5.2-.8.4-1.1.5-.1.1-.3.1-.3.1h-.1c0 .1 0 .1-.7-1.8zm-5.3 1.6-.4-2h.1c.1 0 .2 0 .4-.1.3-.1.7-.2 1.2-.3 1-.3 2.2-.7 3.1-1.1l1.8 3.6c-1.2.6-2.7 1.1-3.8 1.3-.6.2-1 .3-1.4.4-.2 0-.3.1-.4.1h-.1c-.1.1-.1.1-.5-1.9zm-15.9-3.8c3.2 1.7 6.6 2.3 9.4 2.5 2.9.1 5.1-.3 5.9-.5l1.2 3.8c-1.3.4-4 .8-7.2.7-3.3-.1-7.3-.9-11.2-2.9l1.9-3.6zm-6.5-11.1c-.4 1.4-.5 3.3.3 5.1.8 1.9 2.5 4 6.2 6l-1.9 3.5c-4.3-2.3-6.7-5.1-7.9-7.9-1.2-2.9-1.1-5.6-.5-7.7l3.8 1zM274 80.8c2.5 3.4 2.8 7.3 1.5 12.3l-3.9-1c1.1-4.4.7-6.9-.8-8.9l3.2-2.4zm-3.2-4.2 2 .3v.2c0 .2 0 .5.1.8.1.7.4 1.8 1.2 2.8l-3.2 2.4c-1.2-1.7-1.7-3.3-1.9-4.6-.1-.6-.1-1.1-.1-1.5V76.2c-.1.1-.1.1 1.9.4zm2.7 4.1c-1.5-.2-2.7-1-3.4-1.7-.4-.3-.6-.7-.8-.9-.1-.1-.2-.2-.2-.3 0 0 0-.1-.1-.1l1.7-1.1 1.7-1.1.1.1c.1.1.2.3.4.5.4.4.7.5 1 .6l-.4 4zm4.9-9.6c-2 .9-2.7 2.6-2.9 4.1-.1.8 0 1.6 0 2.1 0 .3.1.5.1.6v.2l-1.9.5-1.9.5V79c0-.1 0-.2-.1-.3-.1-.2-.1-.6-.2-1-.1-.8-.2-1.9 0-3.1.3-2.5 1.5-5.6 5.2-7.3l1.7 3.8zm8.9 5.5c-4.2 1-7.2-.8-9.1-2.7-.9-.9-1.5-1.9-2-2.6-.2-.4-.4-.7-.5-.9-.1-.1-.1-.2-.1-.3V70l1.9-.7 1.9-.7s0 .1.1.2.2.4.3.6c.3.5.7 1.2 1.3 1.8 1.2 1.2 2.8 2.1 5.3 1.6l.9 3.8zm-.9-9.6c-.6 2-.2 3.5.4 4.5.3.5.7 1 .9 1.2l.3.3s.1 0 .1.1l-1.2 1.6-1.2 1.6h-.1l-.2-.2c-.1-.1-.3-.3-.6-.5-.4-.5-1-1.1-1.5-2-1-1.8-1.8-4.5-.7-7.7l3.8 1.1zm.1 1.2c-.3-.1-.5-.2-.7-.1-.1 0-.2.1-.3.1h-.1l-1-1.7-1-1.7s.1 0 .1-.1c.1 0 .2-.1.3-.1.3-.1.6-.2 1.1-.3.9-.2 2.1-.1 3.4.6l-1.8 3.3zm.9-.2c.2.1.4.1.8.1.3 0 .6-.2.7-.3.2-.1.3-.3.3-.3l.1-.1v-.1l-1.9-.8-1.9-.8v-.1c0-.1.1-.1.1-.2.1-.2.3-.4.5-.6.3-.2.7-.4 1.2-.5.5-.1 1 0 1.4.2l-1.3 3.5zm-.6-1.1c.1.2.3.7.7.9.4.3.9.3 1.1.3.2 0 .4-.1.4-.1s.1 0 .1-.1l-1.1-1.7-1.1-1.7h.1c.1 0 .1-.1.2-.1.1-.1.4-.2.7-.2.3 0 .9 0 1.4.3.6.4.9.9 1 1.3l-3.5 1.1zm2.1 1s.1.1.3.1h.5c.1 0 .2-.1.3-.2l.1-.1-1.5-1.3-1.5-1.3.1-.1.2-.2c.2-.1.5-.3.9-.5.9-.3 1.9-.2 2.8.5l-2.2 3.1zm14.8 9.7c-6.3.2-10.3-2.4-12.6-5.2-1.1-1.4-1.9-2.7-2.3-3.7-.2-.5-.4-1-.5-1.3-.1-.2-.1-.3-.1-.4v-.1l1.9-.5 1.9-.5s0 .1.1.2c.1.2.2.5.3.9.3.8.9 1.8 1.7 2.8 1.6 1.9 4.4 3.9 9.4 3.8l.2 4zm-2.2-10.4c-.2 2.5.6 4.1 1.4 5.2.4.5.9.9 1.2 1.1.2.1.3.2.4.2h.1l-.9 1.8-.9 1.8h-.1c-.1 0-.1-.1-.2-.1-.2-.1-.4-.3-.7-.5-.5-.4-1.2-1-1.9-1.8-1.4-1.7-2.6-4.3-2.3-8l3.9.3zm5 9.8c-3.8-.6-6-3.2-7.3-5.3-.6-1.1-1-2.1-1.3-2.9-.1-.4-.2-.7-.3-.9 0-.1-.1-.2-.1-.3v-.1l2-.4 2-.4v.2c0 .2.1.4.2.7.2.6.5 1.4 1 2.1.9 1.6 2.3 3 4.4 3.4l-.6 3.9zm1.8 3.6c-1.4-1.3-2.3-2.5-2.8-3.5-.2-.5-.4-.9-.5-1.2-.1-.2-.1-.3-.1-.4v-.2l2-.3 2-.3v.1c0 .1.1.3.3.6.3.5.8 1.4 1.9 2.4l-2.8 2.8zm3.5 10.8c.9-5.2-1.4-8.8-3.5-10.7l2.7-3c2.9 2.6 6 7.4 4.8 14.3l-4-.6zm6-2.3c-.7 1.8-1.4 2.9-2 3.6-.3.3-.7.6-1.1.8-.2.1-.4.2-.7.2h-.6l.3-2c.4-2 .3-2 .3-2h-.5c-.2 0-.3.1-.4.1-.2.1-.3.2-.3.1.1-.1.6-.7 1.2-2.4l3.8 1.6zm1.1 0c0-.8-.1-1.2-.2-1.3 0-.1 0 0 0 0h.1c.1 0 0 0-.2.1-.2.2-.5.5-.7 1.1l-3.7-1.5c.9-2.2 2.8-4 5.1-3.8 1.2.1 2.2.8 2.9 1.8.6 1 .9 2.2.8 3.5l-4.1.1zm-2.3 4.3c.3.2.4.2.4.1.1 0 .3-.1.6-.5.7-.8 1.3-2.2 1.3-4l4 .1c-.1 2.5-.9 4.9-2.3 6.5-.7.8-1.7 1.5-2.8 1.8-1.2.3-2.5-.1-3.5-.8l2.3-3.2zm-10.1 8.7c2.1-1.4 3.9-3.4 5.2-5.1.6-.8 1.2-1.6 1.5-2.1.2-.3.3-.5.4-.6 0-.1.1-.1.1-.2l1.7 1 1.7 1v.1s-.1.1-.1.2c-.1.2-.3.4-.5.7-.4.6-1 1.4-1.7 2.4-1.4 1.9-3.5 4.2-6.1 6l-2.2-3.4zm1.1 1.7-1.3-1.5.6-.5h.7v2zm-4.4 2.6-.9-1.8h.2l.7 1.8zm-5.3 1.6-.6-1.9h.2l.4 1.9zm-16.8-2-.9 1.8.9-1.8zm-7.5-13.4 1.9.5-1.9-.5zM272.4 82l-1.6 1.2 1.6-1.2zm-1.6-5.4-2-.3.8-5.4 2.9 4.6-1.7 1.1zm2.9 2.1 1.9-.5.8 2.8-2.9-.3.2-2zm3.8-9.4-.8-1.8 1.9-.9.8 2-1.9.7zm9.4 5.4 1.2-1.6 3.4 2.6-4.2 1-.4-2zm-2.4-8.3-1.9-.6.2-.7.7-.4 1 1.7zm3 0 1.9.8-.9 2.1-2-1.1 1-1.8zm.7-.2 1.1 1.7-.9.6-1-.4.8-1.9zm.5.1 1.5 1.3-2.4 2.7-1-3.5 1.9-.5zm1.4 0 1.2-1.6.6.4.2.7-2 .5zm13.5 9.3.9-1.8-.8 3.8-.1-2zm-4.1-8.5-2-.2 4-.2-2 .4zm7.3 7.9.3-2 1.4.2.2 1.4-1.9.4zm2.8 4.2-1.3 1.5 1.3-1.5zm4.2 12.5-.4 2-2-.3.3-2 2.1.3zm2.2-3.4 1.9.7-1.9-.7zm-.6 6.7-1.7-1 1.1-1.9 1.8 1.3-1.2 1.6zm-7.8 8.8 1.1 1.7-.5.3h-.6v-2z"/></g><path style="clip-path:url(#SVGID_00000083066391338808084080000001430518327161057169_);fill:#20380e" d="M318.6 90c-.1.5-.3 1.2-.5 1.9-.1.3-.2.6-.4.9l-.3.3c-.1.1-.3.2-.5.2v-1c-.1 0-.2.1-.2.1l.1-.1c.1-.2.2-.4.3-.7.2-.6.4-1.3.5-1.7l1 .1zm-1.7 3.3c-.3 0-.5-.2-.5-.5s.2-.5.5-.5v1zm.7-3.5c.1-.3.3-.4.6-.4s.4.3.4.6l-1-.2zM295.8 87.5c-.2.5.9.9 2.4.9s2.8-.3 3-.7c.2-.5-.9-.9-2.4-.9-1.5-.1-2.8.3-3 .7zM279.6 88c-.2.5.9 1 2.4 1.1 1.5.1 2.8-.3 3-.9s-.9-1-2.4-1.1c-1.5 0-2.9.4-3 .9zM287.4 101.5c2.3.6 7.8.8 11.4-3.5l-1.5-1.3c-2.8 3.4-7.4 3.3-9.3 2.8l-.6 2zm11.3-3.5c.4-.4.3-1.1-.1-1.4-.4-.4-1.1-.3-1.4.1l1.5 1.3zm-10.8 1.5c-.5-.1-1.1.2-1.2.7-.1.5.2 1.1.7 1.2l.5-1.9zM303.2 82.7c-2.3-2.6-6-2.1-8.9-.6l.9 1.8c2.6-1.4 5.1-1.3 6.5.2l1.5-1.4zm-8.9-.6c-.5.3-.7.9-.4 1.3.3.5.9.7 1.3.4l-.9-1.7zm7.4 1.9c.4.4 1 .4 1.4.1s.4-1 .1-1.4l-1.5 1.3zM288.2 83.3c-3.3-2.7-7.5-2.8-10.4.1l1.4 1.4c2-2 5-2.1 7.7.1l1.3-1.6zm-10.4 0c-.4.4-.4 1 0 1.4.4.4 1 .4 1.4 0l-1.4-1.4zm9.1 1.5c.4.3 1.1.3 1.4-.2.3-.4.3-1.1-.2-1.4l-1.2 1.6z"/><path style="clip-path:url(#SVGID_00000083066391338808084080000001430518327161057169_);fill:#20380e" d="M273.8 78.7c0-.1-1.9-6.8 3.8-9.4 0 0 2.7 6.9 9.4 5.4 0 0-4-3-2.4-8.2.1.1.3.3 1.1.8 0 0-.5.4 0 .6 0 0 1 1.1 1.9 1.8l2.3 2.3s6.3 6.3 13.8 3.7c0 0-4.6-2.4-4.1-8.5 0 0 1.4 7 7.3 7.9 0 0 .3 1.9 2.8 4.2 2.5 2.3 5.2 6.5 4.2 12.5 0 0 .8.1 2.2-3.3 1.4-3.5 5-3.4 4.9.8-.1 4.3-2.8 7.8-5.5 5.9 0 0-3.2 5.6-7.8 8.7 0 0 8.1 1.7 16.5-7.8s9.7-26.3-1.4-39.6C310.5 41.8 279.5 44 270 64.6c0 0-5.9 1.7-6.9 8s4 9.9 7.9 9.6c0 0-3.1-4.3-1.2-8.1 0 0 .3 1.5 1 2.5 0 0 1.2 1.9 3 2.1z"/></g></g></switch></svg>