<svg width="470" height="250" viewBox="0 0 470 250" fill="none" xmlns="http://www.w3.org/2000/svg">
<path d="M193.464 182.214L191.267 185.25L166.959 167.621L166.899 167.578L165.053 163.916L169.02 164.529L169.1 164.542L193.464 182.214Z" fill="#20380E"/>
<path d="M326.777 249.445C326.777 249.445 241.723 255.721 222.619 225.078C196.915 183.841 203.877 146.885 203.877 146.885C203.877 146.885 185.134 146.081 188.884 119.57C192.633 93.0592 220.478 84.7594 220.478 84.7594C220.575 84.5885 225.343 76.4429 240.638 72.3282C246.357 70.7868 253.547 69.8151 262.513 70.0295C295.715 70.8337 314.726 105.108 315.795 137.242C316.863 169.376 335.609 201.241 341.499 217.04C347.389 232.838 326.774 249.441 326.774 249.441L326.777 249.445Z" fill="#20380E"/>
<path d="M332.712 241.644C332.712 245.87 329.318 249.713 324.637 249.713H200.396C200.396 249.713 232.825 189.882 248.19 192.811C249.142 192.992 250.01 193.112 250.8 193.176C264.001 194.231 255.421 179.689 255.421 179.689L271.754 170.317C271.754 170.317 272.826 186.92 275.771 190.133C276.817 191.273 279.591 191.403 283.028 191.152C289.263 190.696 297.696 189.001 302.012 189.865C306.779 190.82 322.912 220.779 331.797 237.942C332.424 239.151 332.712 240.415 332.712 241.648V241.644Z" fill="#A9C563"/>
<path d="M191.495 178.136L191.496 178.139L191.496 178.139L191.496 178.14L191.496 178.14L191.496 178.14L191.754 179.516L192.886 178.692L192.886 178.692L192.887 178.692L192.887 178.691L192.889 178.69L192.902 178.681C192.916 178.671 192.937 178.656 192.966 178.636C193.024 178.597 193.113 178.537 193.229 178.464C193.462 178.316 193.803 178.111 194.227 177.89C195.08 177.446 196.244 176.949 197.521 176.703C198.796 176.457 200.142 176.468 201.406 176.987C202.655 177.499 203.916 178.544 204.972 180.532C207.101 184.538 206.742 188.697 205.807 191.92C205.341 193.527 204.737 194.88 204.25 195.83C204.007 196.305 203.793 196.677 203.643 196.927C203.568 197.053 203.508 197.148 203.468 197.21C203.448 197.241 203.434 197.264 203.424 197.278L203.414 197.293L203.413 197.295L203.412 197.296L203.412 197.296L203.412 197.296L203.159 197.67L203.314 198.095L204.146 197.791C203.314 198.095 203.314 198.095 203.314 198.095L203.315 198.097L203.317 198.102L203.324 198.121L203.352 198.2L203.464 198.507C203.562 198.776 203.705 199.172 203.887 199.679C204.252 200.692 204.772 202.145 205.395 203.907C206.64 207.431 208.295 212.187 209.933 217.117C211.571 222.049 213.189 227.147 214.363 231.356C214.951 233.462 215.424 235.334 215.732 236.846C216.049 238.394 216.17 239.462 216.117 240.017L216.117 240.017C216.009 241.15 215.381 242.308 214.377 243.448C213.38 244.579 212.075 245.621 210.748 246.518L210.747 246.517C206.601 249.312 201.338 249.939 196.789 247.967L196.789 247.967C195.12 247.244 193.576 246.186 192.449 244.645C191.327 243.113 190.575 241.046 190.575 238.225V200.201V199.673L190.112 199.422L190.112 199.422L190.112 199.422L190.111 199.422L190.111 199.422L190.102 199.417C190.098 199.414 190.092 199.411 190.085 199.407C190.077 199.403 190.068 199.398 190.058 199.392C190.017 199.368 189.954 199.332 189.873 199.282C189.71 199.183 189.473 199.032 189.184 198.83C188.605 198.426 187.828 197.823 187.035 197.03C185.443 195.437 183.854 193.145 183.61 190.219C183.355 187.169 184.057 183.42 185.197 180.359C185.765 178.833 186.427 177.519 187.101 176.572C187.808 175.578 188.401 175.165 188.776 175.097C189.687 174.931 190.324 175.451 190.825 176.336C191.068 176.765 191.238 177.219 191.348 177.575C191.402 177.751 191.44 177.897 191.464 177.998C191.476 178.048 191.485 178.086 191.49 178.11L191.495 178.136Z" fill="white" stroke="#20380E" stroke-width="1.77143"/>
<path d="M307.664 249.095H306.779V249.098H240.058L244.925 241.653C244.925 241.653 244.925 241.653 244.925 241.653C247.087 238.347 251.204 236.912 254.95 238.162L254.95 238.162L267.223 242.253L267.545 242.361L267.856 242.225L267.856 242.225L267.857 242.225L267.859 242.224L267.867 242.221L267.901 242.206C267.932 242.193 267.978 242.173 268.039 242.147C268.162 242.094 268.345 242.017 268.584 241.918C269.062 241.721 269.764 241.436 270.653 241.09C272.433 240.399 274.964 239.464 277.963 238.492C283.973 236.545 291.822 234.464 299.271 233.879C306.431 233.316 312.387 237.341 316.629 241.664C318.738 243.814 320.389 246.004 321.514 247.658C321.884 248.203 322.197 248.689 322.449 249.095H307.664Z" fill="white" stroke="#20380E" stroke-width="1.77143"/>
<path d="M278.405 192.044C279.191 192.134 280.074 192.159 281.022 192.139C277.409 196.132 271.561 200.737 263.69 201.029C259.078 201.2 256.265 199.986 254.527 198.406C253.133 197.14 252.359 195.574 251.936 194.115C254.095 194.14 255.726 193.711 256.896 192.88C258.305 191.879 258.891 190.407 259.02 188.889C259.208 186.697 258.462 184.255 257.729 182.438C257.356 181.514 256.973 180.719 256.683 180.155C256.661 180.11 256.638 180.067 256.617 180.026L270.979 171.785C271.029 172.387 271.096 173.155 271.182 174.035C271.395 176.203 271.725 179.064 272.198 181.819L272.198 181.819C272.517 183.679 272.903 185.51 273.366 187.052C273.816 188.553 274.379 189.922 275.122 190.732L275.122 190.732C275.875 191.553 277.114 191.896 278.405 192.044Z" fill="white" stroke="#20380E" stroke-width="1.77143"/>
<path d="M259 183C215.8 194.6 205.333 164.833 205.5 148.5C212.7 146.5 214.833 145 215 144.5C215 127.7 227 119.833 233 118C247 140.4 268.167 142.333 277 140.5C277.8 146.1 284.333 153.167 287.5 156L292 144.5C300.8 140.1 304.333 145.333 305 148.5C303.8 166.9 290.167 167.5 283.5 165.5C276.7 174.3 264.333 180.833 259 183Z" fill="white" stroke="#20380E" stroke-width="1.5"/>
<path d="M206.575 157.812C206.58 157.821 206.585 157.829 206.589 157.836L213.807 173.491C211.383 174.978 209.071 175.117 206.994 174.452C204.701 173.718 202.611 171.974 200.984 169.76C199.361 167.548 198.255 164.941 197.885 162.592C197.51 160.208 197.914 158.296 199.008 157.216C200.309 155.932 201.407 155.415 202.28 155.274C203.143 155.135 203.888 155.347 204.525 155.715C205.174 156.091 205.697 156.624 206.065 157.083C206.247 157.309 206.384 157.509 206.475 157.651C206.52 157.721 206.554 157.776 206.575 157.812Z" fill="white" stroke="#20380E" stroke-width="1.77143"/>
<path d="M222.627 148.377C222.561 148.365 222.489 148.344 222.434 148.311C222.065 148.129 221.905 147.682 222.088 147.313C223.691 143.988 227.924 142.565 228.095 142.544C228.506 142.499 228.876 142.795 228.922 143.206C228.967 143.617 228.671 143.987 228.267 144.034C228.267 144.034 224.676 145.393 223.432 147.965C223.284 148.271 222.95 148.437 222.627 148.377Z" fill="#20380E"/>
<path d="M254.576 142.198C254.531 142.148 254.491 142.094 254.467 142.035C254.283 141.667 254.424 141.214 254.791 141.029C258.073 139.339 261.541 141.345 261.691 141.431C262.046 141.642 262.164 142.101 261.952 142.457C261.741 142.812 261.282 142.929 260.932 142.724C260.932 142.724 258.014 141.053 255.473 142.359C255.17 142.514 254.803 142.446 254.582 142.203L254.576 142.198Z" fill="#20380E"/>
<path d="M247.639 171.12C246.552 171.895 245.199 172.372 243.761 172.449C241.548 172.573 239.433 171.752 238.11 170.245C237.834 169.936 237.865 169.463 238.174 169.187C238.473 168.909 238.957 168.941 239.233 169.251C240.254 170.411 241.916 171.049 243.674 170.946C245.431 170.853 247.01 170.031 247.899 168.761C248.138 168.424 248.604 168.341 248.946 168.576C249.282 168.815 249.366 169.28 249.131 169.623C248.729 170.195 248.221 170.696 247.641 171.109L247.639 171.12Z" fill="#20380E"/>
<path d="M256.448 154.327C257.778 154.327 258.857 152.529 258.857 150.31C258.857 148.091 257.778 146.292 256.448 146.292C255.118 146.292 254.039 148.091 254.039 150.31C254.039 152.529 255.118 154.327 256.448 154.327Z" fill="#20380E"/>
<path d="M226.031 151.834C226.158 154.049 227.337 155.781 228.668 155.708C229.998 155.631 230.969 153.774 230.842 151.56C230.715 149.345 229.535 147.612 228.205 147.686C226.875 147.763 225.903 149.619 226.031 151.834Z" fill="#20380E"/>
<path d="M281.616 90.8856C284.61 94.6957 286.456 98.4685 287.579 101.445C277.792 87.7811 262.255 83.1172 248.681 81.9812C241.057 81.3431 234.004 81.8115 228.839 82.4426C226.255 82.7584 224.14 83.1153 222.659 83.3963C222.644 83.3992 222.629 83.402 222.614 83.4049C224.883 80.8245 230.257 76.0658 240.744 73.2179C263.002 73.9698 275.082 82.5685 281.616 90.8856Z" fill="white" stroke="#20380E" stroke-width="1.77143"/>
<path d="M166.905 164.426L168.643 164.695L166.964 167.215L166.169 165.632L166.168 165.632L165.445 164.2L166.905 164.426L166.905 164.426Z" fill="white" stroke="#20380E" stroke-width="0.442857"/>
<path d="M166.939 164.207L165.971 165.732L165.053 163.916L166.939 164.207Z" fill="#20380E"/>
<path d="M172.608 138.843L169.578 127.542L169.561 127.466C174.437 118.942 173.235 107.887 165.955 100.607C157.236 91.8884 143.092 91.8884 134.373 100.607C125.654 109.326 125.654 123.471 134.373 132.189C141.653 139.469 152.708 140.671 161.232 135.795L161.308 135.812L172.608 138.843Z" fill="white"/>
<path d="M172.608 139.689C172.828 139.689 173.049 139.604 173.209 139.444C173.421 139.232 173.506 138.919 173.429 138.622L170.467 127.576C175.427 118.578 173.844 107.294 166.556 100.006C157.524 90.9657 142.812 90.9657 133.78 100.006C124.74 109.046 124.74 123.75 133.78 132.782C141.069 140.07 152.352 141.653 161.35 136.692L172.388 139.655C172.465 139.672 172.532 139.681 172.608 139.681V139.689ZM161.249 134.966C161.096 134.966 160.935 134.999 160.817 135.059C152.437 139.85 141.805 138.419 134.974 131.588C126.594 123.208 126.594 109.58 134.974 101.2C143.354 92.8195 156.982 92.8195 165.363 101.2C172.194 108.031 173.624 118.654 168.833 127.043C168.723 127.237 168.689 127.466 168.748 127.677L171.415 137.641L161.528 134.991C161.443 134.966 161.342 134.957 161.249 134.957V134.966Z" fill="#20380E"/>
<path d="M149.754 127.474C149.754 127.474 129.201 103.705 148.061 111.713C154.257 114.337 146.749 117.715 146.749 117.715C146.749 117.715 149.187 107.955 156.323 106.456C163.45 104.958 156.323 118.654 149.754 127.474Z" fill="#2C4D13"/>
</svg>
