<svg width="101" height="101" viewBox="0 0 101 101" fill="none" xmlns="http://www.w3.org/2000/svg">
<mask id="mask0_451_16104" style="mask-type:alpha" maskUnits="userSpaceOnUse" x="0" y="0" width="101" height="101">
<rect x="0.00195312" y="0.0273438" width="100" height="100" fill="#D9D9D9"/>
</mask>
<g mask="url(#mask0_451_16104)">
<path d="M87.7063 26.3748C87.6621 22.9039 84.9171 20.1225 81.4566 20.0445C72.6154 19.8415 62.2183 19.7114 52.162 19.5865C40.5941 19.4434 28.6306 19.2925 18.5691 19.0297C16.8233 18.9829 15.1789 19.6308 13.93 20.851C12.6811 22.0713 11.9968 23.7053 12.002 25.4512C12.0202 31.2742 12.0618 36.8448 12.1087 42.7407C12.1607 49.542 12.2153 56.5749 12.2335 64.4195C12.2414 67.9347 15.0982 70.7994 18.6056 70.8072C26.3748 70.8228 34.3261 71.0569 42.0199 71.2833C42.1682 71.2885 42.3191 71.2911 42.4674 71.2963C42.5012 72.5582 42.4622 73.8279 42.3451 75.0821C42.3347 75.1887 42.3451 75.2902 42.3659 75.3891C39.9098 75.5478 37.4796 75.7429 35.0703 75.9797C34.4953 76.0369 34.0685 76.5443 34.1102 77.1219C34.1804 78.0846 34.2507 79.0837 34.5395 80.2234C34.6592 80.6969 35.0963 81.0273 35.5828 81.0273C46.3598 81.0247 57.5063 81.0221 67.8228 80.1739C68.3848 80.1271 68.8141 79.651 68.8011 79.0864L68.7334 76.0838C68.7204 75.5166 68.2677 75.0612 67.7005 75.0404C64.5002 74.9364 61.3727 74.8869 58.3025 74.8869L58.3077 71.6892C61.2192 71.7386 64.1463 71.7699 67.0864 71.7699C72.1393 71.7699 77.2312 71.6814 82.3491 71.455C85.7653 71.3041 88.4531 68.5071 88.4713 65.0908C88.5103 57.3814 88.2892 49.607 88.0732 42.0876C87.9249 36.9307 87.774 31.5994 87.7089 26.3748H87.7063ZM66.6233 77.1401L66.6441 78.1237C56.9703 78.8652 46.5602 78.886 36.4337 78.8912C36.3842 78.592 36.3452 78.2954 36.3166 78.0014C45.9357 77.1089 55.8697 76.8279 66.6207 77.1401H66.6233ZM56.1689 74.8947C52.1828 74.9259 48.2904 75.0482 44.4657 75.2616C44.5853 73.9684 44.627 72.6597 44.5984 71.3588C48.4231 71.4706 52.2843 71.5747 56.1741 71.6528L56.1689 74.8973V74.8947ZM86.3351 65.0778C86.3221 67.3571 84.5294 69.22 82.2528 69.3215C68.6215 69.9277 55.1282 69.5322 42.0771 69.1472C34.3704 68.9208 26.4034 68.6866 18.6056 68.671C16.2717 68.6658 14.3697 66.756 14.3619 64.4117C14.3437 56.5593 14.289 49.5238 14.237 42.7198C14.1928 36.8266 14.1485 31.2586 14.1303 25.4408C14.1277 24.2777 14.583 23.1875 15.4157 22.3731C16.2196 21.5874 17.2734 21.1581 18.3922 21.1581C18.4312 21.1581 18.4677 21.1581 18.5067 21.1581C28.5838 21.4208 40.555 21.5692 52.1308 21.7149C62.1793 21.8398 72.5712 21.9698 81.402 22.1728C83.7098 22.2248 85.539 24.08 85.5676 26.3982C85.6326 31.641 85.7861 36.9801 85.9345 42.1448C86.1504 49.646 86.3716 57.4023 86.3325 65.0752L86.3351 65.0778Z" fill="#20380E"/>
<path d="M83.0563 29.8456C83.0069 26.8899 80.5455 24.5144 77.4519 24.4389C69.7269 24.249 60.6463 24.1163 51.8624 23.9862C41.7541 23.8379 31.3023 23.6818 22.5106 23.4398C20.9182 23.3982 19.3701 23.994 18.2617 25.079C17.2131 26.1067 16.6407 27.4649 16.6485 28.9037C16.6797 33.699 16.7318 38.2887 16.7864 43.1438C16.8489 48.7405 16.9139 54.5297 16.9503 60.9849C16.9685 63.9771 19.5288 66.4255 22.6615 66.4411C29.4472 66.4749 36.3942 66.6883 43.1123 66.8938C50.6655 67.1254 58.3879 67.3621 66.2144 67.3621C70.2369 67.3621 74.288 67.2997 78.3547 67.141C81.4146 67.0213 83.8161 64.6432 83.8239 61.7239C83.8369 55.3753 83.6236 48.972 83.4154 42.7822C83.2723 38.5359 83.124 34.1465 83.0537 29.8456H83.0563ZM78.2741 65.01C66.3705 65.4732 54.5813 65.1115 43.1825 64.7629C36.4514 64.5573 29.4888 64.344 22.6771 64.3075C20.7075 64.2971 19.0995 62.801 19.0891 60.9719C19.0527 54.5089 18.9876 48.7197 18.9252 43.1178C18.8705 38.2627 18.8185 33.6782 18.7873 28.8881C18.7821 28.0321 19.1255 27.2203 19.7578 26.6011C20.4317 25.9428 21.3709 25.5707 22.3492 25.5707C22.3857 25.5707 22.4195 25.5707 22.4559 25.5707C31.2607 25.8127 41.7202 25.9688 51.8338 26.1171C60.6125 26.2472 69.6879 26.3799 77.4025 26.5698C79.3487 26.6167 80.8968 28.0711 80.9254 29.8794C80.9957 34.1986 81.144 38.5983 81.2871 42.8524C81.4952 49.0241 81.7086 55.4065 81.6956 61.7187C81.6904 63.4879 80.1891 64.9346 78.2767 65.0074L78.2741 65.01Z" fill="#20380E"/>
<path d="M68.9512 34.3981C67.2536 37.0849 65.7844 40.1433 64.3635 43.1011C64.1738 43.496 64.3403 43.9702 64.7352 44.1599C65.1301 44.3496 65.6043 44.1832 65.794 43.7883C66.2451 42.8475 66.7019 41.899 67.1703 40.9544C67.2768 41.0183 67.3968 41.0608 67.5304 41.0667L70.4901 41.2312C70.7011 42.2145 70.8927 43.2018 71.0611 44.189C71.1347 44.6206 71.5451 44.911 71.9767 44.8374C72.0155 44.8316 72.0542 44.822 72.0909 44.8103C72.4587 44.6903 72.693 44.3148 72.6252 43.9218C72.089 40.7744 71.3321 37.6327 70.3798 34.5839C70.2869 34.2878 70.0313 34.0748 69.7255 34.0342C69.4177 33.9935 69.1157 34.1368 68.9512 34.3981ZM67.902 39.4987C68.3782 38.5696 68.868 37.654 69.3751 36.7713C69.6442 37.7159 69.892 38.6664 70.1223 39.6226L67.902 39.4987Z" fill="#20380E"/>
<path d="M71.7763 48.6046C73.1061 48.171 74.3198 47.4102 75.2296 46.3572C77.6144 43.5969 77.6589 39.1176 75.3244 36.3728C75.0399 36.0379 74.5405 35.9972 74.2056 36.2818C73.8707 36.5663 73.8301 37.0657 74.1146 37.4006C75.9613 39.5744 75.9226 43.1265 74.0275 45.3177C72.1615 47.478 68.6946 48.0936 66.1375 46.7231C63.6153 45.37 62.1422 42.1877 62.7152 39.3228C63.2784 36.4986 65.7813 34.0944 68.6733 33.6047C69.105 33.5331 69.3973 33.1227 69.3237 32.6891C69.2502 32.2574 68.8417 31.9651 68.4081 32.0387C64.8386 32.6426 61.8576 35.5094 61.1589 39.0111C60.4446 42.5903 62.2235 46.4211 65.3884 48.1207C67.3319 49.164 69.6973 49.2821 71.7763 48.6026V48.6046Z" fill="#20380E"/>
<path d="M25.67 43.4705C35.1078 44.1858 44.6935 44.4994 54.1595 44.4043C54.2352 44.4043 54.3075 44.3919 54.3762 44.369C54.6686 44.2739 54.8765 43.9973 54.8748 43.6749C54.8712 43.2768 54.5435 42.9561 54.1454 42.9596C44.7199 43.0548 35.1765 42.7412 25.7792 42.0294C25.3811 41.9995 25.034 42.2972 25.004 42.6954C24.9741 43.0935 25.2718 43.4406 25.67 43.4705Z" fill="#20380E"/>
<path d="M25.6967 51.0619C36.3853 51.4654 47.2166 51.3262 57.8929 50.6461C57.9546 50.6426 58.0145 50.6303 58.0709 50.6127C58.3774 50.5123 58.5888 50.2163 58.5677 49.8798C58.543 49.4816 58.1995 49.1804 57.8013 49.205C47.1744 49.8815 36.3923 50.0207 25.7513 49.619C25.3531 49.6032 25.0166 49.915 25.0025 50.3132C24.9867 50.7113 25.2985 51.0478 25.6967 51.0619Z" fill="#20380E"/>
<path d="M25.7567 58.8121L55.3385 57.4644C55.4055 57.4608 55.4689 57.4485 55.5305 57.4291C55.8318 57.3305 56.0432 57.0415 56.0274 56.7103C56.0097 56.3122 55.6715 56.0039 55.2733 56.0215L25.6915 57.3692C25.2934 57.3868 24.9851 57.7251 25.0027 58.1233C25.0203 58.5214 25.3586 58.8297 25.7567 58.8121Z" fill="#20380E"/>
</g>
</svg>
