<svg id="Layer_1" data-name="Layer 1" xmlns="http://www.w3.org/2000/svg" viewBox="0 0 430 250"><defs><clipPath id="clippath-5"><path class="cls-13" d="M220.9 232.03c.02.49.03.97.03 1.39 0 0 23.05 3.5 26.55.06.14-.14.14-.33.02-.58-6.27 1.58-20.87-.11-26.6-.87Z"/></clipPath><clipPath id="clippath-11"><path class="cls-13" d="M237.01 90.12c2.29 23.25-7.87 34.83-23.54 36.4-15.67 1.57-28.18-7.74-30.47-30.99-2.29-23.25 9.14-25.02 24.81-26.59 15.67-1.57 26.91-2.07 29.2 21.18Z"/></clipPath><clipPath id="clippath-1"><path class="cls-13" d="M194.62 228.91c-.02.17-11.83.18-11.86-.03-.25-1.79-.2-5.93-.31-6.97l12.62-.02c-.2 1.94-.33 5.78-.45 7.01Z"/></clipPath><clipPath id="clippath-2"><path class="cls-13" d="M195.02 231.23c0 .49 0 .97.02 1.39 0 0-22.93 4.19-26.54.87-.14-.13-.15-.33-.04-.57 6.32 1.39 20.85-.74 26.56-1.68Z"/></clipPath><clipPath id="clippath-3"><path class="cls-13" d="M222.19 228.56c.02.28 9.54-.2 9.55-.54.14-2.93-3.14-37.86-3.09-39.56l-11.68 1.07c.32 2.91 5.05 37.02 5.22 39.03Z"/></clipPath><clipPath id="clippath-4"><path class="cls-13" d="M221.53 229.75c.02.17 11.83-.18 11.85-.38.19-1.8.02-5.78.09-6.82l-12.61.37c.26 1.93.5 5.61.67 6.84Z"/></clipPath><clipPath id="clippath"><path class="cls-13" d="M194.29 227.79c-.01.28-9.85.39-9.88.05-.25-2.93-.65-38.24-.76-39.94l12.65.28c-.22 2.92-1.92 37.59-2.01 39.6Z"/></clipPath><clipPath id="clippath-6"><path class="cls-13" d="m222.37 110.68 1.76 17.48c.38 3.76-4.19 7.28-10.19 7.86s-11.19-1.99-11.57-5.75l-1.76-17.48 21.76-2.11Z"/></clipPath><clipPath id="clippath-7"><path class="cls-13" d="M199.57 125.61c-.87-2.27-10.58-2.87-11.73-1.89-1.15.98-7.27 9.25-5.17 17.24 2.1 7.99-5.04 28.83-2.03 32.54 3.01 3.71 24.89-6.12 57.37 2.15 2.24.57.58-16.62 2.01-22.14 1.43-5.53 3.4-3.59 2.86-6.85s-.36-22.86-1.76-24.87c-1.4-2.01-8.84.62-10.31 1.33-1.47.71-7.32 11.66-19.59 11.32-12.27-.34-10.53-5.89-11.66-8.82Z"/></clipPath><clipPath id="clippath-8"><path class="cls-13" d="M239.22 169.59c-3.65 1.69-5.55.04-19.84-1.62-15.69-1.83-28.06-.13-34.17 1.72-3.13.95-4.61.46-5.3-.24-.08 1.92.09 3.41.72 4.15 3.01 3.54 24.86-5.85 57.32 2.05.93.23 1.18-2.47 1.27-6.06Z"/></clipPath><clipPath id="clippath-9"><path class="cls-13" d="M176.73 106.97c1.65 4.01 6.32 6.18 9.57 5.46 3.25-.72 3.49-4.16 2.46-8.08-1.04-3.92-4.51-6.52-7.76-5.79-4.44 1-5.82 4.64-4.27 8.41Z"/></clipPath><clipPath id="clippath-10"><path class="cls-13" d="M242.86 102.9c-.73 4.65-4.77 7.91-8.04 7.78-3.27-.13-4.23-3.8-4.06-8.23.17-4.43 2.96-7.92 6.23-7.77 4.47.2 6.56 3.85 5.87 8.22Z"/></clipPath><style>.cls-13{clip-rule:evenodd;fill:none}.cls-13,.cls-14,.cls-15,.cls-18{stroke-width:0}.cls-14{fill:#20380e}.cls-15{fill:#b4d334}.cls-18{fill:#fff}</style></defs><path d="M188.21 40.89c24.49-1.92 48.01 6.03 64.65 16.85 16.8 11.04 26.72 24.96 27.8 39.83 1.09 15.02-6.44 29.28-17.6 43.37-11.31 13.87-26.25 27.58-43.37 36.46-33.09 18.57-71 3.54-89.08-41.34-18.09-44.59 7.23-92.6 57.6-95.16Z" style="fill:#f5f5f5;stroke-width:0"/><path class="cls-18" d="M194.29 227.79c-.01.28-9.85.39-9.88.05-.25-2.93-.65-38.24-.76-39.94l12.65.28c-.22 2.92-1.92 37.59-2.01 39.6Z"/><path class="cls-14" d="M194.48 188.05c-.22 2.95-1.92 37.66-2.01 39.65l3.65.17c.1-2.03 1.79-36.67 2.01-39.55l-3.64-.27Zm-10.88 1.68 12.65.28.08-3.65-12.65-.28-.08 3.65Zm2.63 37.95c-.12-1.38-.28-10.84-.43-20.3-.14-9.35-.27-18.69-.33-19.6l-3.64.24c.05.79.18 9.95.33 19.42.14 9.34.31 19.01.44 20.55l3.64-.31Zm6.23.02c.03-.71.44-1.13.62-1.28.19-.17.37-.25.44-.28.09-.04.15-.06.19-.07.04-.01.06-.02.07-.02.03 0 0 0-.12.01-.22.02-.56.05-1.01.07-.89.04-2.1.07-3.32.08-1.22 0-2.42 0-3.31-.03-.45-.02-.79-.04-.99-.06-.11-.01-.13-.02-.08 0 0 0 .14.03.3.11a1.783 1.783 0 0 1 .98 1.45l-3.64.3c.05.59.35.98.55 1.17.19.19.39.29.49.34.2.1.39.15.47.17.19.05.39.07.55.09.34.04.77.06 1.25.08.96.03 2.23.04 3.47.03 1.25-.01 2.51-.04 3.46-.09.47-.02.9-.05 1.23-.08.15-.02.34-.04.51-.08.07-.02.24-.05.43-.14.09-.04.28-.13.48-.3.19-.16.6-.6.64-1.31l-3.65-.17Zm3.84-39.52 1.82.14.14-1.92-1.92-.04-.04 1.83Zm-12.66-.28.04-1.83-1.99-.04.13 1.99 1.82-.12Zm.77 39.94 1.82-.15-1.82.15Zm9.88-.05-1.82-.09 1.82.09Z" style="clip-path:url(#clippath)"/><path class="cls-18" d="M194.62 228.91c-.02.17-11.83.18-11.86-.03-.25-1.79-.2-5.93-.31-6.97l12.62-.02c-.2 1.94-.33 5.78-.45 7.01Z"/><path class="cls-14" d="M194.17 221.81c-.1 1-.18 2.46-.26 3.81-.07 1.37-.14 2.61-.2 3.19l1.82.19c.07-.64.13-1.95.2-3.28.07-1.36.15-2.78.25-3.73l-1.82-.18Zm-11.71 1.02 12.62-.02v-1.83l-12.62.02v1.83Zm1.21 5.93c-.12-.83-.16-2.26-.2-3.66-.03-1.35-.05-2.71-.11-3.27l-1.82.19c.05.47.06 1.7.1 3.13.03 1.37.08 2.91.21 3.87l1.81-.25Zm10.04.06c.03-.34.23-.53.32-.6.09-.08.18-.12.22-.13.08-.03.14-.05.14-.05.03 0 .03 0 0 0-.06 0-.17.01-.33.02-.31.02-.76.03-1.32.04-1.1.02-2.57.03-4.05.03s-2.95-.01-4.05-.04c-.55-.01-1-.03-1.31-.05-.16 0-.26-.02-.32-.03h.01c.01 0 .08.02.16.06a.897.897 0 0 1 .48.68l-1.81.26a.967.967 0 0 0 .5.7c.09.05.18.07.21.08.08.02.16.03.22.04.12.02.27.03.44.04.34.02.82.04 1.38.05 1.12.03 2.61.04 4.09.04s2.97 0 4.09-.03c.56-.01 1.03-.02 1.37-.04.17 0 .32-.02.43-.03.05 0 .13-.01.2-.03.03 0 .11-.02.19-.06.04-.02.13-.06.23-.14.09-.07.29-.27.33-.61l-1.82-.19Zm1.37-6.92.91.09.1-1.01h-1.01v.91Zm-12.62.02v-.91h-1.01l.1 1.01.91-.09Zm.3 6.96-.9.13.9-.13Zm11.86.03-.91-.09.91.09Z" style="clip-path:url(#clippath-1)"/><path class="cls-14" d="M180.61 225.84c.17-.61.52-1.38.79-2.08.2-.52 5.34-.42 5.35.84 0 .32-.01.61-.04.86.88.01 1.83 0 2.84-.03 2.19-.07 4.15-.24 5.53-.46.08 1.99-.1 5.43-.03 7.65 0 0-22.93 4.19-26.54.87-1.01-.94 4.75-5.07 12.1-7.65Z"/><path class="cls-18" d="M195.02 231.23c0 .49 0 .97.02 1.39 0 0-22.93 4.19-26.54.87-.14-.13-.15-.33-.04-.57 6.32 1.39 20.85-.74 26.56-1.68Z"/><path class="cls-14" d="M195.48 231.23h-.91.91Zm-27.11 2.13c3.24.71 8.52.52 13.65.04 5.15-.48 10.22-1.25 13.08-1.72l-.15-.9c-2.85.47-7.89 1.23-13.02 1.71-5.14.48-10.29.65-13.37-.02l-.2.89Zm.44-.21s.01.02.02.03v.03-.02c0-.02.01-.05.03-.09l-.83-.38c-.07.16-.13.35-.12.54.01.21.1.41.26.55l.62-.67Zm26.23-.53-.08-.45H194.9c-.04 0-.11.02-.19.03-.17.03-.42.07-.73.13-.63.11-1.54.26-2.64.43-2.2.34-5.17.76-8.25 1.07-3.08.32-6.27.53-8.89.45-1.31-.04-2.48-.14-3.41-.34-.95-.2-1.6-.48-1.96-.81l-.62.67c.54.5 1.4.82 2.39 1.03 1.01.21 2.23.32 3.57.36 2.69.08 5.91-.14 9.01-.46 3.1-.32 6.09-.74 8.3-1.08 1.11-.17 2.02-.32 2.65-.43.32-.05.57-.1.74-.13a.89.89 0 0 1 .19-.03H195.12l-.08-.45Zm-.47-1.39c0 .49 0 .97.02 1.4l.91-.03c-.01-.41-.02-.88-.02-1.37h-.91Zm.45 0 .07.45.38-.06v-.39h-.46Zm-26.55 1.68.1-.45-.36-.08-.15.33.42.19Zm.03.58.31-.34-.31.34Zm26.54-.87.08.45.39-.07v-.39l-.47.02Zm-.02-1.39h.46-.91.46Z" style="clip-path:url(#clippath-2)"/><path class="cls-18" d="M175.03 227.89c.03.17.19.29.37.26 1.07-.19 2.47.33 3.4 1.24.07.06.15.09.24.09.08 0 .16-.03.22-.1.12-.13.12-.33 0-.45-1.07-1.05-2.69-1.63-3.96-1.42a.32.32 0 0 0-.26.37Zm5.46.63c.07.07.16.1.24.1.08 0 .15-.03.21-.09.13-.12.14-.32.01-.45-1.01-1.07-2.39-1.6-3.8-1.44-.18.02-.3.18-.28.35.02.18.18.31.35.28.71-.08 2.07-.02 3.26 1.25Zm1.63-.77c.06.09.17.13.27.13a.3.3 0 0 0 .18-.06.32.32 0 0 0 .06-.45c-.89-1.18-2.43-1.8-3.77-1.52-.17.04-.28.21-.25.38.04.17.21.28.38.25 1.1-.24 2.38.29 3.12 1.27ZM222.19 228.56c.02.28 9.54-.2 9.55-.54.14-2.93-3.14-37.86-3.09-39.56l-11.68 1.07c.32 2.91 5.05 37.02 5.22 39.03Z"/><path class="cls-14" d="M215.6 189.68c.16 1.48 1.43 10.76 2.67 19.89 1.25 9.18 2.46 18.15 2.54 19.11l2.73-.23c-.09-1.05-1.32-10.14-2.56-19.25-1.25-9.16-2.51-18.39-2.66-19.82l-2.72.3Zm12.92-2.58-11.68 1.07.25 2.73 11.68-1.07-.25-2.73Zm4.59 40.99c.02-.46-.02-1.41-.1-2.62-.08-1.25-.19-2.87-.34-4.73-.29-3.72-.68-8.42-1.08-13.07-.4-4.66-.8-9.27-1.1-12.83-.15-1.78-.27-3.29-.36-4.41-.04-.56-.07-1.02-.1-1.36-.01-.17-.02-.31-.02-.41v-.16l-2.74-.08c0 .3.05 1.13.13 2.21.09 1.13.21 2.65.36 4.43.3 3.56.7 8.18 1.1 12.83.4 4.66.79 9.34 1.08 13.05.14 1.85.26 3.46.34 4.69.08 1.27.11 2.05.09 2.32l2.74.13Zm-12.29.59c.04.52.36.84.51.96.16.13.32.19.39.22.15.06.29.08.35.09.15.02.32.04.46.04.3.01.71.02 1.17.01.92-.01 2.13-.06 3.33-.12 1.2-.06 2.42-.15 3.34-.24.46-.04.87-.09 1.18-.15.15-.03.32-.06.48-.11.07-.02.21-.07.36-.16.08-.04.21-.13.35-.28.14-.15.34-.44.36-.87l-2.74-.13c.02-.41.22-.7.34-.84.12-.14.25-.22.3-.25.07-.04.12-.06.14-.07.03-.01.05-.02.06-.02.02 0-.01 0-.13.02-.21.04-.55.08-.98.12-.87.09-2.04.17-3.22.23-1.18.06-2.35.11-3.22.12h-1a.51.51 0 0 1-.1 0c.02 0 .07.02.14.04a1.361 1.361 0 0 1 .84 1.14l-2.73.23Zm-3.85-39.15-.13-1.36-1.39.13.15 1.39 1.36-.15Zm11.67-1.07 1.37.04.04-1.54-1.54.14.13 1.36Zm3.1 39.56 1.37.07-1.37-.07Zm-9.55.54-1.36.11 1.36-.11Z" style="clip-path:url(#clippath-3)"/><path class="cls-18" d="M221.53 229.75c.02.17 11.83-.18 11.85-.38.19-1.8.02-5.78.09-6.82l-12.61.37c.26 1.93.5 5.61.67 6.84Z"/><path class="cls-14" d="M221.53 228.84v1.83-1.83Zm-1.57-5.8c.12.94.25 2.32.36 3.64.11 1.3.22 2.55.3 3.2l1.81-.24c-.08-.58-.18-1.78-.29-3.11-.11-1.31-.24-2.73-.37-3.73l-1.81.24Zm13.49-1.4-12.61.37.05 1.83 12.61-.37-.05-1.83Zm.84 7.83c.1-.96.11-2.46.1-3.8-.01-1.39-.03-2.58 0-3.05l-1.82-.13c-.04.57-.02 1.89 0 3.2.01 1.36 0 2.75-.09 3.59l1.82.2Zm-13.67.41c.05.34.25.53.34.6.1.08.19.12.23.13.09.04.17.05.2.06.07.01.15.02.2.02.11 0 .26.01.43.02h1.37c1.12-.01 2.6-.05 4.09-.09 1.48-.05 2.97-.1 4.09-.16.56-.03 1.03-.06 1.38-.09.17-.01.32-.03.44-.05.05 0 .13-.02.21-.05.03-.01.12-.04.21-.09.05-.03.13-.08.22-.17.09-.09.23-.27.26-.55l-1.82-.2c.03-.27.17-.45.25-.54.08-.09.17-.13.21-.16.08-.04.15-.06.16-.07.03 0 .05-.01.01 0-.06 0-.16.02-.32.04-.31.03-.76.06-1.31.09-1.1.06-2.57.12-4.05.16-1.48.05-2.95.08-4.05.09h-1.32c-.16 0-.27 0-.33-.01-.04 0-.03 0 0 0 0 0 .07.01.14.04.04.01.12.05.22.13.09.07.29.26.34.59l-1.81.25Zm.91-.13v.91h1.04l-.14-1.03-.9.12Zm-.67-6.83-.03-.91-1.01.03.13 1 .91-.12Zm12.62-.37.91.07.07-1.01-1.01.03.03.91Zm-.1 6.82-.91-.1.91.1Zm-11.85.38v-.91h-1.05l.14 1.04.9-.12Z" style="clip-path:url(#clippath-4)"/><path class="cls-14" d="M235.14 226.2c-.19-.6-.56-1.36-.85-2.06-.22-.52-5.35-.26-5.32 1 0 .32.03.61.07.86-.88.04-1.83.06-2.84.06-2.19 0-4.16-.12-5.54-.29-.02 1.99.27 5.43.27 7.64 0 0 23.05 3.5 26.55.06.99-.97-4.91-4.92-12.33-7.28Z"/><path class="cls-18" d="M220.9 232.03c.02.49.03.97.03 1.39 0 0 23.05 3.5 26.55.06.14-.14.14-.33.02-.58-6.27 1.58-20.87-.11-26.6-.87Z"/><path class="cls-14" d="M220.44 232.03h.91-.91Zm26.94.43c-3.06.77-8.21.75-13.36.43-5.13-.32-10.2-.93-13.06-1.31l-.12.91c2.87.38 7.96 1 13.12 1.32 5.14.32 10.43.36 13.64-.45l-.22-.89Zm.41 1.34c.16-.15.24-.35.24-.56 0-.2-.06-.38-.13-.54l-.82.4s.03.07.04.09v.03-.03c0-.02.02-.03.02-.03l.64.65Zm-26.86-.39-.07.45H220.92c.04 0 .11.02.19.03.17.02.42.06.74.11.64.09 1.56.21 2.67.35 2.22.27 5.22.61 8.33.83 3.11.22 6.34.34 9.02.18 1.34-.08 2.56-.23 3.56-.47.99-.24 1.83-.58 2.36-1.1l-.64-.65c-.35.34-.99.64-1.93.87-.93.22-2.09.37-3.4.44-2.62.15-5.81.04-8.9-.18a168.068 168.068 0 0 1-10.93-1.17c-.32-.04-.57-.08-.73-.1-.08-.01-.15-.02-.19-.03H221.01l-.07.45Zm-.49-1.37c.02.49.03.96.03 1.37h.91c0-.43-.01-.91-.03-1.4l-.91.03Zm.46-.01.06-.45-.52-.07v.52h.46Zm26.59.87.41-.2-.16-.33-.36.09.11.44Zm-.02.58.32.33-.32-.33Zm-26.54-.07h-.46v.39l.39.06.07-.45Zm-.03-1.38h-.46v.02l.46-.02Z" style="clip-path:url(#clippath-5)"/><path class="cls-18" d="M240.5 227.72c-1.27-.18-2.88.46-3.91 1.54-.12.13-.12.33.01.45.06.06.14.09.22.09.08 0 .17-.03.23-.1.9-.94 2.29-1.51 3.36-1.35.18.03.34-.1.36-.27.02-.17-.1-.34-.27-.36Zm-1.94-.18c.18.03.33-.12.35-.29s-.12-.33-.29-.34c-1.41-.12-2.77.45-3.75 1.56-.12.13-.1.33.03.45.06.05.14.08.21.08.09 0 .18-.04.24-.11 1.15-1.3 2.51-1.4 3.22-1.34Zm-1.79-.75c.18.03.34-.08.37-.26a.317.317 0 0 0-.26-.37c-1.34-.24-2.87.42-3.72 1.63a.324.324 0 0 0 .26.51c.1 0 .2-.05.26-.14.71-1.01 1.98-1.58 3.08-1.37ZM222.37 110.68l1.76 17.48c.38 3.76-4.19 7.28-10.19 7.86s-11.19-1.99-11.57-5.75l-1.76-17.48 21.76-2.11Z"/><path class="cls-14" d="M222.37 112.51v-3.65 3.65Zm-21.58 2.1 21.76-2.11-.35-3.64-21.76 2.11.35 3.64Zm3.4 15.48-1.76-17.48-3.63.37 1.76 17.48 3.63-.37Zm9.57 4.12c-2.72.26-5.16-.2-6.9-1.07-1.77-.88-2.56-2.02-2.67-3.05l-3.63.37c.28 2.73 2.26 4.75 4.68 5.96 2.44 1.22 5.59 1.75 8.88 1.43l-.35-3.64Zm8.55-5.86c.1 1.03-.45 2.29-2 3.49-1.53 1.18-3.84 2.1-6.55 2.37l.35 3.64c3.29-.32 6.27-1.45 8.43-3.11 2.13-1.65 3.68-4.02 3.4-6.75l-3.63.37Zm-1.76-17.49 1.76 17.48 3.63-.37-1.76-17.48-3.63.37Zm1.82-.18v-1.83h-.18l.18 1.83Zm-21.76 2.11-.18-1.82-1.82.18.18 1.82 1.82-.18Zm1.76 17.48-1.82.18 1.82-.18Zm21.76-2.11 1.82-.18-1.82.18Zm-1.76-17.48 1.82-.18-.17-1.64h-1.65v1.83Z" style="clip-path:url(#clippath-6)"/><path class="cls-14" d="M183.87 163.6s-8.33 24.21-3.33 42.36c.62 2.24 15.87 1.15 18.58.66 2.71-.5 2.02-10.18 3.12-11.78 1.1-1.6.24 7.6 5.7 11.62 5.47 4.01 28.44-2.79 31.24-6.33s-1.23-21.5-2.14-29.96c-.91-8.45-53.18-6.56-53.18-6.56Z"/><path class="cls-18" d="M199.57 125.61c-.87-2.27-10.58-2.87-11.73-1.89-1.15.98-7.27 9.25-5.17 17.24 2.1 7.99-5.04 28.83-2.03 32.54 3.01 3.71 24.89-6.12 57.37 2.15 2.24.57.58-16.62 2.01-22.14 1.43-5.53 3.4-3.59 2.86-6.85s-.36-22.86-1.76-24.87c-1.4-2.01-8.84.62-10.31 1.33-1.47.71-7.32 11.66-19.59 11.32-12.27-.34-10.53-5.89-11.66-8.82Z"/><path class="cls-14" d="M211.28 132.61c-5.94-.17-7.82-1.58-8.56-2.65-.41-.59-.62-1.28-.79-2.14-.14-.71-.3-1.94-.66-2.87l-3.41 1.31c.21.54.25 1.11.49 2.27.2 1.02.54 2.29 1.37 3.5 1.74 2.52 5.13 4.05 11.46 4.23l.1-3.65Zm18.75-11.15c-.35.17-.63.41-.79.56-.19.18-.37.38-.55.58-.34.39-.78.92-1.22 1.44-.93 1.1-2.11 2.44-3.6 3.74-2.96 2.6-7.06 4.97-12.59 4.82l-.1 3.65c6.74.19 11.7-2.74 15.1-5.72 1.69-1.48 3.01-2.99 3.98-4.13.5-.59.86-1.03 1.17-1.38.15-.17.25-.27.32-.34.09-.09.03-.01-.13.07l-1.58-3.29Zm12.6-.72c-.89-1.28-2.44-1.5-3.44-1.52-1.14-.03-2.41.17-3.58.43-2.34.52-4.7 1.4-5.58 1.82l1.58 3.29c.6-.29 2.7-1.08 4.79-1.55 1.05-.23 1.99-.36 2.69-.34.83.02.73.23.54-.04l3-2.09Zm2.07 25.62c-.11-.67-.2-2.36-.28-4.74-.08-2.23-.16-5.22-.25-7.93-.1-2.78-.23-5.56-.42-7.78-.1-1.11-.21-2.11-.36-2.92-.07-.41-.16-.79-.26-1.14-.09-.31-.24-.73-.5-1.1l-3 2.09c-.08-.12-.07-.15 0 .05.05.16.1.41.16.74.12.66.22 1.54.31 2.6.18 2.12.31 4.82.41 7.6.1 2.85.17 5.5.25 7.92.08 2.27.17 4.25.33 5.21l3.6-.6Zm-2.9 7.6c.33-1.26.66-2.01.94-2.48.26-.45.5-.7.77-.97.24-.24.8-.76 1.09-1.57.29-.81.25-1.67.1-2.59l-3.6.6c.12.71.04.83.07.75.03-.08.11-.12-.26.25-.34.34-.83.85-1.32 1.69-.48.82-.93 1.9-1.32 3.41l3.54.92Zm-4.23 23.46c.77.19 1.49-.03 2.02-.48.43-.37.67-.84.8-1.17.27-.67.42-1.52.51-2.36.19-1.73.24-4.09.26-6.53.02-2.49.02-5.09.1-7.44.08-2.39.24-4.31.55-5.47l-3.54-.92c-.41 1.6-.58 3.9-.66 6.27-.08 2.41-.08 5.1-.1 7.53-.02 2.47-.07 4.65-.24 6.15-.09.78-.19 1.22-.27 1.4-.04.1 0-.05.21-.23.3-.26.78-.41 1.26-.29l-.9 3.54Zm-58.34-2.77c.85 1.04 2.14 1.36 3.22 1.48 1.14.12 2.52.06 4.03-.08 1.53-.14 3.32-.37 5.31-.61 2-.25 4.22-.52 6.67-.76 9.78-.95 23.14-1.33 39.11 2.73l.9-3.54c-16.52-4.2-30.33-3.8-40.36-2.83-2.5.24-4.77.52-6.77.77-2.01.25-3.73.47-5.18.6-1.47.13-2.55.17-3.31.08-.82-.09-.87-.27-.78-.15l-2.83 2.3Zm1.68-33.22c.43 1.65.42 4.16.1 7.28-.32 3.06-.91 6.47-1.49 9.82-.57 3.31-1.13 6.6-1.35 9.3-.11 1.35-.14 2.63-.03 3.73.11 1.05.37 2.22 1.09 3.1l2.83-2.3s-.21-.34-.29-1.17c-.08-.78-.07-1.8.04-3.05.21-2.5.73-5.62 1.31-8.98.57-3.32 1.18-6.85 1.52-10.06.33-3.16.42-6.24-.2-8.59l-3.53.93Zm5.74-19.1c-.48.41-1.19 1.28-1.91 2.35-.76 1.12-1.62 2.59-2.37 4.29-1.49 3.37-2.66 7.89-1.46 12.45l3.53-.93c-.9-3.43-.06-7.04 1.27-10.04a24.67 24.67 0 0 1 2.06-3.72c.32-.48.62-.87.85-1.16.12-.14.22-.26.29-.34.08-.09.12-.12.12-.12l-2.38-2.77Zm14.63 2.62c-.3-.79-.9-1.31-1.41-1.64-.53-.35-1.14-.61-1.75-.82-1.22-.42-2.69-.7-4.1-.86-1.42-.17-2.87-.23-4.06-.17-.59.03-1.17.08-1.67.18-.39.08-1.1.24-1.64.7l2.38 2.77c-.25.22-.4.18-.04.11.26-.05.64-.09 1.13-.11.98-.04 2.23 0 3.49.15 1.27.15 2.46.38 3.34.69.44.15.74.3.92.41.2.13.09.12 0-.1l3.41-1.31Zm39.86-3.17-1.5 1.04 1.5-1.04Zm1.75 24.87-1.8.3 1.8-.3Zm-2.86 6.85-1.77-.46 1.77.46Zm-2.01 22.15.45-1.77-.45 1.77Zm-55.35-34.69-1.77.46 1.77-.46Zm16.9-15.35 1.7-.65-1.7.65Z" style="clip-path:url(#clippath-7)"/><path class="cls-14" d="M187.84 123c-1.15.08-5.66 5.17-6.57 10.17-.9 5-.3 8.97.75 10.28s.74 1.49 1.78.49-1.46-6.84.13-11.27c1.58-4.43 5.67-7.18 6.2-8.6.53-1.42-1.04-1.16-2.3-1.07Z"/><path d="M239.8 120.44c-1.49.73.27 20.59 1.08 23.67.81 3.08.62 4.59 2.08 4.18 1.46-.4 2.15-1.2 1.83-3.57-.32-2.37-1.18-20.82-1.61-22.74-.43-1.91-1.94-2.25-3.38-1.55Z" style="fill:#fff200;stroke-width:0"/><path class="cls-18" d="M239.22 169.59c-3.65 1.69-5.55.04-19.84-1.62-15.69-1.83-28.06-.13-34.17 1.72-3.13.95-4.61.46-5.3-.24-.08 1.92.09 3.41.72 4.15 3.01 3.54 24.86-5.85 57.32 2.05.93.23 1.18-2.47 1.27-6.06Z"/><path class="cls-14" d="m240.16 168.59-1.88 1.99 1.88-1.99Zm-2.54 8.39c.47.11.95.04 1.36-.21.37-.23.59-.54.74-.79.27-.49.43-1.11.53-1.69.21-1.21.3-2.87.34-4.66l-2.74-.07c-.04 1.8-.13 3.27-.3 4.26-.09.51-.18.75-.22.82-.01.03.04-.09.22-.2.22-.14.49-.17.72-.12l-.65 2.66Zm-58.03-2.5c.73.86 1.86 1.15 2.9 1.26 1.08.11 2.42.06 3.92-.08 1.52-.13 3.3-.35 5.28-.59 2-.24 4.23-.5 6.68-.73 9.81-.91 23.22-1.27 39.25 2.63l.65-2.66c-16.42-4-30.16-3.62-40.15-2.69-2.49.23-4.75.5-6.75.73-2.01.24-3.73.45-5.2.58-1.47.13-2.59.16-3.41.08-.86-.09-1.07-.28-1.09-.31l-2.09 1.77Zm-1.05-5.09c-.04 1-.02 1.95.11 2.79.13.81.38 1.66.94 2.31l2.09-1.77c-.08-.09-.22-.36-.32-.96-.09-.58-.12-1.33-.08-2.24l-2.74-.12Zm6.28-1.01c-2.97.9-3.78.26-3.93.11l-1.94 1.93c1.24 1.25 3.37 1.58 6.67.59l-.79-2.62Zm34.72-1.77c-15.84-1.84-28.41-.14-34.72 1.77l.79 2.62c5.9-1.79 18.08-3.48 33.61-1.67l.32-2.72Zm19.1 1.73c-1.46.68-2.53.73-5.15.34-2.64-.4-6.78-1.24-13.96-2.07l-.32 2.72c7.12.83 11.07 1.64 13.86 2.06 2.81.42 4.52.45 6.71-.56l-1.15-2.49Zm.58 1.25 1.37.03v-.61l-.43-.42-.94 1Zm-1.27 6.06-.32 1.33.32-1.33Zm-57.32-2.05 1.04-.89-1.04.89Zm-.72-4.15.97-.97-2.21-2.22-.13 3.13 1.37.06Zm5.3.24.4 1.31-.4-1.31Zm34.17-1.72-.16 1.36.16-1.36Zm19.84 1.62.94-1-.67-.64-.84.39.58 1.24Z" style="clip-path:url(#clippath-8)"/><path class="cls-14" d="M204.28 130.91c.55-2.24 1.57-4.07 2.92-5.57-2.75-.77-5.09-1.94-7.06-3.36-4.4 3.01-6.29 7.22-7.29 14.43-1.82 13.09.23 22.32 1.6 23.57 2.06 1.87 9.8-.93 11.93-3.72 2.13-2.79-4.38-16.07-2.11-25.35ZM223.05 124.44c1.12 9.45-3.46 28.48-5.15 31.97-2.27 4.68 7.05 12.63 13.25 4.37 4.3-5.72 9.03-28.73.44-39.73a46.772 46.772 0 0 1-8.54 3.4Z"/><path class="cls-15" d="M206.53 150.23c-1.72 3.15-4.57 6.04-9.2 6.62-2.33.29-4.02-.7-5.2-1.91.51 2.77 1.21 4.56 1.8 5.05 2.21 1.85 10.51-.92 12.8-3.69.8-.96.46-3.2-.2-6.07ZM224.81 160.6c-3-.4-5.09-2.53-6.47-4.71-.15.39-.3.72-.43.96-2.33 4.43 7.25 11.93 13.63 4.13.36-.44.72-1 1.08-1.64-1.85 1.02-4.26 1.74-7.82 1.27Z"/><path class="cls-18" d="M239.75 195.25c-1.35-.21-3.11.27-4.12 1.21-.71.66-1.21 1.37-1.81 2.12-1.44 1.79-3.94-.3-5.55-.22-1.57.08-2.79.71-4.01 1.69-.85.69-1.67 1.4-2.57 2.01-1.74 1.17-3.29.38-5.03-.33-1.81-.74-3.19-.88-4.82.32-.91.67-2.17 2.55-3.61 1.37-.77-.63-1.09-1.32-2.03-1.75-.58-.26-1.17-.3-1.73-.19.16.43.35.85.55 1.28 1.35.25 2.29 1.83 3.77 2.28 1.17.35 2.48-.8 3.26-1.48 2.88-2.52 4.68.66 7.55.48 1.54-.1 2.66-.7 3.87-1.62 2.07-1.56 3.47-3.21 6.32-2.33 1.63.5 2.84.94 4.39.03.47-.28.85-.81 1.17-1.24 1.22-1.63 2.6-2.49 4.74-2.16.12.02.24.05.35.08.03-.44.04-.91.05-1.41-.24-.06-.49-.11-.74-.15ZM201.32 202.37c-.13.04-.27.1-.43.18-1.7.9-2.25-.35-3.64-.65-1.54-.34-2.62.25-3.92 1.05-1.54.95-2.77 1.06-4.24-.18-.55-.46-1.14-1.07-1.83-1.3-.86-.28-1.39-.24-2.25.04-.3.11-.57.28-.82.49-1.74 1.13-3.34 1.02-4.48-.04.12.71.25 1.41.4 2.11.44.23.92.36 1.45.34 1.39-.03 2.2-.41 3.31-1.24 1.87-1.39 3.51 1.02 4.94 1.78 1.63.88 3.42-.33 4.78-1.15 1.95-1.2 3.02.32 4.72.72.58.14 1.14-.15 1.69-.43.13-.54.23-1.12.31-1.73Z"/><path class="cls-14" transform="rotate(-19.25 217.197 50.119)" d="M204.9 49.39h24.68v1.45H204.9z"/><path d="m215.31 31.57-7.84 2.74c-4.33 1.51-6.61 6.25-5.1 10.58l43.72 125.18 23.53-8.21L225.9 36.67c-1.51-4.33-6.25-6.61-10.58-5.1Z" style="fill:#b4cc77;stroke-width:0"/><path class="cls-18" d="m268.92 163.15-1.99 28.83-19.5-21.33 21.49-7.5z"/><path class="cls-14" d="m267.53 193.71 2.18-31.62-23.57 8.23 21.39 23.38Zm-1.21-3.48-17.62-19.26 19.41-6.78-1.8 26.04Z"/><path class="cls-14" d="m268.61 178.24-11.54 4.03 10.47 11.45 1.07-15.48zM204.73 51.66l23.53-8.21-2.36-6.76c-1.51-4.33-6.25-6.61-10.58-5.1l-7.84 2.74c-4.33 1.51-6.61 6.25-5.1 10.58l2.36 6.76Z"/><path class="cls-18" d="M176.73 106.97c1.65 4.01 6.32 6.18 9.57 5.46 3.25-.72 3.49-4.16 2.46-8.08-1.04-3.92-4.51-6.52-7.76-5.79-4.44 1-5.82 4.64-4.27 8.41Z"/><path class="cls-14" d="M176.73 108.8v-3.65 3.65Zm3.88-12.02c-2.66.6-4.64 2.06-5.63 4.17-.97 2.07-.85 4.47.07 6.71l3.38-1.39c-.63-1.53-.58-2.84-.14-3.77.42-.9 1.35-1.76 3.13-2.16l-.8-3.56Zm9.92 7.1c-1.2-4.54-5.42-8.11-9.92-7.1l.8 3.56c1.99-.45 4.72 1.18 5.59 4.47l3.53-.93Zm-3.83 10.33c1.12-.25 2.08-.76 2.83-1.54.73-.77 1.17-1.7 1.39-2.67.44-1.87.16-4.06-.39-6.12l-3.53.93c.49 1.85.6 3.35.37 4.35-.11.48-.29.78-.48.98-.18.19-.47.38-.97.49l.79 3.57Zm-11.65-6.55c1.01 2.46 2.92 4.3 5.01 5.42 2.07 1.11 4.5 1.6 6.64 1.13l-.79-3.57c-1.1.24-2.64.02-4.13-.78-1.47-.79-2.72-2.04-3.36-3.59l-3.38 1.39Zm1.68-.69-1.69.69.46 1.13h1.22v-1.83Zm4.28-8.41.4 1.78-.4-1.78Zm7.75 5.79 1.77-.47-1.77.47Zm-2.45 8.08.39 1.78-.39-1.78Zm-9.58-5.46 1.69-.69-.46-1.13h-1.22v1.83Z" style="clip-path:url(#clippath-9)"/><path class="cls-18" d="M242.86 102.9c-.73 4.65-4.77 7.91-8.04 7.78-3.27-.13-4.23-3.8-4.06-8.23.17-4.43 2.96-7.92 6.23-7.77 4.47.2 6.56 3.85 5.87 8.22Z"/><path class="cls-14" d="M236.91 96.5c1.7.08 2.79.78 3.43 1.74.68 1.01 1 2.53.71 4.37l3.61.57c.4-2.52.02-5.02-1.29-6.98-1.34-2.01-3.54-3.23-6.3-3.35l-.16 3.65Zm-4.32 6.02c.07-1.86.69-3.46 1.55-4.53.86-1.07 1.86-1.53 2.77-1.49l.16-3.65c-2.35-.1-4.39 1.11-5.78 2.86-1.4 1.74-2.25 4.11-2.35 6.67l3.65.14Zm2.3 6.33c-.46-.02-.75-.15-.98-.33-.24-.19-.5-.52-.73-1.06-.47-1.12-.68-2.83-.6-4.94l-3.65-.14c-.09 2.31.1 4.65.88 6.5.4.95.98 1.84 1.83 2.51.87.68 1.92 1.06 3.09 1.11l.15-3.65Zm6.16-6.24c-.3 1.88-1.27 3.49-2.5 4.62-1.26 1.15-2.63 1.66-3.66 1.62l-.15 3.65c2.24.09 4.52-.96 6.28-2.57 1.79-1.63 3.2-3.98 3.64-6.75l-3.61-.57Zm-4.06-7.93-.08 1.82.08-1.82Zm-6.23 7.77-1.82-.07 1.82.07Zm4.06 8.23-.07 1.82.07-1.82Zm8.04-7.78-1.8-.29 1.8.29Z" style="clip-path:url(#clippath-10)"/><path class="cls-14" d="M240.89 81.88c1.98 20.1-10.3 30.46-28.76 32.3-18.46 1.84-32.88-5.85-34.87-25.95-1.98-20.1 11.09-26.12 29.55-27.96 18.46-1.84 32.1 1.51 34.08 21.62Z"/><path class="cls-18" d="M237.01 90.12c2.29 23.25-7.87 34.83-23.54 36.4-15.67 1.57-28.18-7.74-30.47-30.99-2.29-23.25 9.14-25.02 24.81-26.59 15.67-1.57 26.91-2.07 29.2 21.18Z"/><path class="cls-14" d="M208 70.76c3.93-.39 7.46-.71 10.61-.61 3.15.09 5.8.58 7.99 1.7 4.22 2.16 7.47 7.04 8.6 18.45l3.63-.36c-1.16-11.85-4.68-18.33-10.57-21.34-2.86-1.46-6.11-2-9.55-2.1-3.43-.1-7.18.24-11.08.63l.36 3.63Zm-23.17 24.59c-1.12-11.39 1.18-16.84 4.98-19.81 1.97-1.54 4.51-2.56 7.62-3.27 3.11-.72 6.65-1.11 10.58-1.51l-.36-3.63c-3.91.39-7.67.8-11.04 1.58-3.37.78-6.49 1.96-9.04 3.96-5.26 4.12-7.53 11.18-6.36 23.04l3.63-.36Zm28.47 29.36c-7.41.74-13.9-1.09-18.82-5.7-4.95-4.64-8.53-12.3-9.65-23.65l-3.63.36c1.17 11.91 4.99 20.52 10.79 25.96 5.83 5.46 13.43 7.5 21.68 6.67l-.36-3.63Zm21.9-34.41c1.12 11.36-.83 19.58-4.71 25.1-3.85 5.48-9.78 8.56-17.19 9.3l.36 3.63c8.26-.83 15.24-4.32 19.81-10.84 4.55-6.47 6.53-15.67 5.36-27.56l-3.63.36Zm-27.38-21.35-.18-1.82.18 1.82Zm-24.81 26.58 1.82-.18-1.82.18Zm30.47 30.99.18 1.82-.18-1.82Zm23.53-36.4-1.82.18 1.82-.18Z" style="clip-path:url(#clippath-11)"/><path class="cls-14" d="M225.56 53.89c.74 2.59-.25 4.92-2.18 7.01 1.1-3.37.75-7.54-3.03-12.37-2.04 2.14-4.2 4.4-6.37 6.64.08-1.38-.1-2.86-.61-4.43-3.24 5.64-7.19 5.83-19.79 10.29-8.62 3.05-8.81 9.47-7.35 12.92 5.85-2.03 13.94.53 20.45-.1 8.16-.79 14.21-2.92 17.19-5.69 3.62-3.37 6.1-9.57 1.7-14.27Z"/><ellipse class="cls-14" cx="219.91" cy="96.09" rx="2.35" ry="3.3"/><ellipse class="cls-14" cx="201.08" cy="96.09" rx="2.35" ry="3.3"/><path class="cls-14" d="M205.82 114.31c1.54.85 5.69 1.84 11.08.07l-.57-1.73c-4.97 1.64-8.59.64-9.63.07l-.88 1.6Zm11.08.07c.48-.16.74-.67.58-1.15a.907.907 0 0 0-1.15-.58l.57 1.73Zm-10.2-1.67c-.44-.24-1-.08-1.24.36s-.08 1 .36 1.24l.88-1.6ZM215.34 91.59c1.37-1.23 5.17-3.01 9.2.05l1.1-1.45c-4.95-3.76-9.73-1.56-11.52.05l1.22 1.36Zm9.2.05c.4.31.97.23 1.28-.17a.91.91 0 0 0-.17-1.28l-1.1 1.45Zm-10.42-1.41c-.38.34-.41.91-.07 1.29.34.38.91.41 1.29.07l-1.22-1.36ZM197.53 92.45c.85-.97 2.32-2.1 3.93-2.42.79-.16 1.61-.12 2.43.21.82.33 1.71.99 2.58 2.16l1.46-1.09c-1.04-1.39-2.17-2.28-3.36-2.76a6 6 0 0 0-3.47-.31c-2.14.43-3.94 1.86-4.95 3.01l1.38 1.2Zm8.94-.05c.3.4.87.49 1.28.18.4-.3.49-.87.18-1.28l-1.46 1.09Zm-10.32-1.15c-.33.38-.29.96.09 1.29.38.33.96.29 1.29-.09l-1.38-1.2Z"/><path class="cls-18" d="M252.07 121.73c3.01-3.77 5.02-3.77 5.65-3.3-.38 2.26-3.3 4.39-4.71 5.18-2.26.75-1.57-.94-.94-1.88ZM253.49 124.55c2.26-3.39 5.65-3.04 6.12-1.88 0 1.51-2.2 2.51-3.3 2.83-2.64.75-2.98-.31-2.83-.94ZM254.43 128.32c1.88-2.26 5.51-3.04 6.12-1.88 0 1.13-.94 1.73-1.41 1.88-3.77 1.51-4.71.63-4.71 0ZM260.55 129.73c-.94-1.41-5.09.85-4.71 2.35.24.95 5.09 1.04 4.71-2.35Z"/><path class="cls-14" d="M255.18 132.25c.1.39.39.62.62.74.24.14.53.22.81.28.58.11 1.29.1 1.98-.07.69-.16 1.41-.49 1.93-1.08.54-.61.83-1.44.71-2.46l-1.36.15c.07.67-.11 1.1-.37 1.4-.28.32-.72.54-1.23.66s-1.03.12-1.41.05a1.51 1.51 0 0 1-.39-.12c-.08-.05 0-.03.04.12l-1.33.33Zm5.94-2.9c-.44-.65-1.18-.79-1.8-.74-.64.05-1.32.28-1.93.6-.61.32-1.2.75-1.62 1.23-.39.45-.77 1.11-.59 1.82l1.33-.33s0-.24.3-.59c.28-.32.72-.65 1.22-.91s1-.42 1.39-.45c.41-.03.53.08.57.14l1.14-.76Zm-1.77-.38c.33-.11.78-.36 1.16-.75.39-.41.72-1 .72-1.78h-1.37c0 .36-.14.63-.34.84-.21.22-.46.35-.6.4l.43 1.3Zm-5.61-.65c0 .33.13.68.41.96.28.28.66.45 1.11.52.89.14 2.21-.07 4.13-.84l-.51-1.27c-1.85.74-2.88.84-3.41.76-.25-.04-.34-.11-.36-.13-.01-.01 0-.01 0 0h-1.37Zm7.41-2.21c-.31-.58-.93-.8-1.47-.87-.57-.07-1.23 0-1.9.19-1.33.36-2.84 1.19-3.88 2.44l1.05.88c.84-1 2.08-1.7 3.19-2 .55-.15 1.03-.19 1.37-.15.17.02.28.06.35.09.06.03.08.06.08.06l1.21-.64Zm-4.65.04c.6-.17 1.5-.53 2.26-1.06.74-.51 1.53-1.32 1.53-2.42h-1.37c0 .4-.3.85-.94 1.3-.61.42-1.36.73-1.86.87l.38 1.32Zm-3.68-1.76c-.12.49-.07 1.27.66 1.73.66.42 1.66.42 3.01.03l-.38-1.32c-1.28.37-1.77.21-1.91.13-.06-.04-.1-.1-.07-.24l-1.33-.33Zm7.42-1.98c-.22-.54-.73-.88-1.25-1.06-.54-.18-1.19-.23-1.88-.12-1.39.22-2.96 1.1-4.19 2.94l1.14.76c1.03-1.55 2.28-2.19 3.27-2.35.5-.08.92-.04 1.22.07.32.11.41.24.42.28l1.27-.52Zm-6.89 1.8c.75-.42 1.88-1.18 2.88-2.14.98-.94 1.94-2.17 2.17-3.52l-1.35-.23c-.15.91-.84 1.88-1.76 2.76-.9.87-1.94 1.56-2.6 1.93l.66 1.2Zm-1.85-2.86c-.17.26-.36.58-.5.91-.13.31-.26.71-.23 1.09.01.2.07.44.23.65.16.22.39.35.63.42.45.12 1 .03 1.59-.17l-.43-1.3c-.25.08-.44.13-.58.14-.14.02-.2 0-.21 0 0 0 .01 0 .03.02.02.01.05.04.06.06.04.05.04.09.04.07 0-.06.02-.22.12-.47.1-.23.24-.47.37-.68l-1.14-.76Zm6.64-3.47c-.58-.44-1.53-.49-2.61-.02-1.1.47-2.44 1.51-3.98 3.44l1.07.86c1.47-1.83 2.64-2.68 3.46-3.04.83-.36 1.21-.17 1.25-.14l.82-1.1Zm-2.3 14.2-.66.17.66-.17Zm4.71-2.35.68-.08-.02-.17-.09-.14-.57.38Zm-1.41-1.41-.22-.65h-.02l-.02.01.25.64Zm-4.71 0-.53-.44-.16.19v.25h.68Zm6.12-1.89h.68v-.17l-.08-.15-.6.32Zm-4.24-.94.19.66-.19-.66Zm-2.82-.94-.57-.38-.07.1-.03.12.66.17Zm6.12-1.88h.68v-.13l-.05-.12-.63.26Zm-6.59.94.22.65.06-.02.06-.03-.33-.6Zm-.95-1.88-.53-.43-.02.02-.02.02.57.38Zm5.65-3.3.68.11.07-.41-.33-.25-.41.55ZM184.34 139.78c-.23-1.59-.34-4.23.06-6.92.4-2.71 1.31-5.36 3.04-7.09l-.97-.97c-2.04 2.04-3.01 5.03-3.43 7.86-.42 2.84-.3 5.61-.06 7.32l1.36-.19Zm-12.89-13.5c2.9 2.39 5.81 5.87 8 8.78 1.09 1.45 2 2.75 2.64 3.68.32.47.57.84.74 1.1.08.13.15.23.19.3a.922.922 0 0 1 .06.1l.58-.37.58-.37s0-.01-.01-.02a.922.922 0 0 0-.05-.08c-.05-.07-.11-.17-.2-.31-.17-.27-.43-.65-.75-1.12-.64-.95-1.57-2.27-2.68-3.74-2.21-2.93-5.19-6.52-8.22-9.01l-.87 1.06Zm-9.06-5.97c1.94.22 3.44 1.06 4.84 2.18.7.56 1.37 1.19 2.06 1.84.69.65 1.4 1.32 2.16 1.95l.87-1.06c-.72-.59-1.39-1.23-2.09-1.88-.69-.65-1.39-1.31-2.15-1.92-1.51-1.22-3.25-2.22-5.54-2.47l-.15 1.36Zm-4.21-5.13c-.35.02-.69.11-.97.31-.3.21-.48.53-.52.88-.07.63.31 1.25.75 1.72.93 1 2.7 1.96 4.96 2.21l.15-1.36c-1.98-.22-3.43-1.06-4.11-1.79a1.93 1.93 0 0 1-.33-.46c-.06-.13-.05-.18-.06-.17 0 0 0 .03-.02.05 0 0-.01.02-.02.02 0 0 .07-.05.27-.06l-.1-1.37Zm5.53-.88c-.99-.48-2.16-.99-3.26-1.41-1.09-.41-2.17-.76-2.99-.86-.39-.05-.84-.06-1.2.09-.2.09-.41.23-.55.48-.13.24-.15.5-.12.73.06.42.31.86.64 1.31.35.47.85 1.04 1.52 1.71l.97-.97c-.65-.65-1.09-1.16-1.38-1.55-.31-.42-.38-.63-.39-.7 0-.02 0 .05-.04.13-.05.09-.11.12-.12.12 0 0 .03-.01.13-.02.09 0 .22 0 .37.02.65.08 1.6.38 2.68.78 1.06.4 2.19.9 3.15 1.37l.59-1.23Zm-5.96-5.51c-.38.38-.28.9-.17 1.2.12.35.38.77.76 1.24.77.96 2.19 2.34 4.66 4.23l.84-1.09c-2.43-1.87-3.75-3.16-4.43-4-.34-.42-.48-.7-.54-.84-.07-.2.07 0-.15.23l-.97-.97Zm8.62 4.86c-.88-1.59-2.33-3.79-3.86-5.13-.75-.65-1.62-1.2-2.53-1.23-1.01-.03-1.81.58-2.36 1.67l1.22.61c.39-.79.79-.93 1.1-.92.41.01.98.29 1.67.89 1.34 1.18 2.71 3.21 3.56 4.76l1.2-.66Zm-2.16-9.39c-.73 1.47-1.41 5.33.94 10.03l1.22-.61c-2.17-4.35-1.46-7.76-.94-8.8l-1.22-.61Zm5.05 7.2c-.32-1.28-.9-3.18-1.59-4.73-.35-.77-.74-1.49-1.18-2.01-.4-.48-1.03-1.02-1.83-.82l.33 1.33s.03 0 .07.03c.09.05.21.15.37.34.31.38.65.97.98 1.7.65 1.45 1.21 3.27 1.51 4.5l1.33-.33Zm3.77-1.85c-.12-.66-.31-1.38-.57-1.97-.13-.3-.28-.59-.47-.83-.19-.23-.46-.48-.83-.57-.41-.1-.79.03-1.09.26-.29.22-.54.55-.76.95-.45.81-.91 2.09-1.38 3.99l1.33.33c.47-1.87.89-3.01 1.25-3.66.18-.32.32-.47.4-.53.06-.04.02 0-.06-.02-.05-.01-.01-.02.08.09s.19.28.29.51c.2.47.37 1.08.48 1.68l1.35-.25Zm.8 5.82c-.51-.63-1.51-2.74-.81-5.53l-1.33-.33c-.81 3.24.32 5.78 1.07 6.71l1.07-.86Zm13.28 9.18c-3.81-.91-10.06-4.13-13.24-9.12l-1.16.74c3.42 5.37 10.03 8.75 14.07 9.72l.32-1.33Zm-3.45 15.26-.58.37 1.26-.46-.68.1Zm-11.77-14.12.43-.53-.43.53Zm-13.66-9.89.05.68 1.5-.11-1.06-1.06-.48.48Zm5.18-.94-.3.62.71-1.16-.42.54Zm-5.18-5.65.48.48.08-.08.05-.1-.61-.31Zm7.54 4.71-.6.33 1.21-.64-.61.31Zm-.95-9.42-.17-.66-.31.08-.14.28.61.31Zm3.77 7.06-.66.17h1.33l-.66-.17Zm3.77-1.88.66.17.04-.15-.03-.15-.67.13Zm.94 6.12.58-.37-.02-.03-.02-.03-.53.43Zm13.65 9.42.48.48.86-.86-1.19-.29-.16.67Z"/></svg>