<svg width="101" height="101" viewBox="0 0 101 101" fill="none" xmlns="http://www.w3.org/2000/svg">
<mask id="mask0_451_16094" style="mask-type:alpha" maskUnits="userSpaceOnUse" x="0" y="0" width="101" height="101">
<rect x="0.00195312" y="0.0273438" width="100" height="100" fill="#D9D9D9"/>
</mask>
<g mask="url(#mask0_451_16094)">
<path d="M74.6369 36.8259C74.4855 36.6952 74.2884 36.6289 74.0894 36.6372C64.8646 37.0913 61.1916 36.9648 53.1448 36.6849C52.2136 36.6517 51.2244 36.6185 50.1605 36.5832C50.1107 36.5832 50.063 36.5874 50.0174 36.5957C49.7167 36.2867 49.4097 35.9797 49.0924 35.6728C49.0426 34.107 48.9618 32.7423 48.8809 31.4233C48.8228 30.4506 48.7668 29.5174 48.7295 28.5779C51.185 28.7853 53.6571 28.8911 56.1292 28.8911C57.8381 28.8911 59.547 28.8413 61.2477 28.7417C61.4799 28.7272 61.6956 28.6111 61.8325 28.4224C61.9694 28.2336 62.015 27.9931 61.9548 27.767C61.1502 24.6914 61.0921 22.9845 61.1543 19.8218C61.1626 19.3904 60.8204 19.0358 60.389 19.0275C60.1796 19.0233 59.9909 19.1042 59.8478 19.2349C59.8146 19.2307 59.7793 19.2224 59.7441 19.2224C57.9211 19.1913 55.8949 19.4132 53.935 19.6269C52.0229 19.8363 50.0422 20.0499 48.3209 20.023C48.3167 20.023 48.3126 20.023 48.3064 20.023C47.9165 20.023 47.5867 20.3113 47.5328 20.697C46.9314 25.0937 47.1118 28.0719 47.3213 31.5187C47.3897 32.6407 47.4582 33.7959 47.5079 35.0755C47.4519 35.117 47.4001 35.1647 47.3586 35.2186C46.9978 35.6894 46.6493 36.1456 46.3134 36.5915C43.3601 36.5895 40.7573 36.5625 38.2396 36.5376C33.0112 36.4837 28.4984 36.4381 22.9444 36.6351C22.7349 36.6434 22.5358 36.7346 22.3948 36.8902C18.6949 40.9654 11.4425 51.7249 11.1355 52.1791C10.9821 52.4072 10.9592 52.6976 11.0754 52.9444C11.1915 53.1933 11.43 53.3612 11.7017 53.3903C12.5064 53.4732 13.3131 53.5458 14.122 53.6101C14.1012 61.7461 14.0846 70.1538 14.3107 78.9244C14.3211 79.3288 14.6384 79.6565 15.0407 79.6834C21.9821 80.1273 29.0148 80.3533 35.9811 80.3533C36.2299 80.3533 36.4768 80.3533 36.7256 80.3512C36.8418 80.6374 37.1197 80.8386 37.4473 80.8386L60.2148 80.8179C60.6441 80.8179 60.9926 80.4695 60.9946 80.0402L85.3051 81.0273C85.3155 81.0273 85.3259 81.0273 85.3383 81.0273C85.7551 81.0273 86.0994 80.6997 86.116 80.2787C86.1264 80.0236 86.0103 79.7934 85.8278 79.644C85.9439 70.9854 86.2612 62.221 86.7735 53.5811C87.3479 53.5209 87.9328 53.4566 88.5321 53.3903C88.8183 53.3571 89.0651 53.1684 89.1709 52.9008C89.2767 52.6312 89.2248 52.3264 89.0361 52.1065C88.6441 51.6503 79.3633 40.8949 74.6348 36.8238L74.6369 36.8259ZM48.9949 21.5826C50.6292 21.5577 52.3941 21.3648 54.1071 21.1782C55.9695 20.9749 57.892 20.7696 59.5823 20.782C59.5595 23.1525 59.6611 24.8469 60.219 27.2361C56.3843 27.4186 52.5144 27.3418 48.6921 27.0079C48.6755 25.3592 48.7481 23.6233 48.997 21.5805L48.9949 21.5826ZM23.3343 38.1843C28.7016 38.0018 33.1232 38.0453 38.2251 38.0993C40.4131 38.1221 42.6653 38.1449 45.1561 38.1511C41.8606 42.6515 39.6478 46.3161 36.3772 52.5317C35.4605 52.5317 34.5438 52.5317 33.6293 52.5358C26.5033 52.5483 19.7464 52.5586 13.1679 51.9696C15.0967 49.147 20.3416 41.5689 23.3322 38.1864L23.3343 38.1843ZM15.8558 78.1736C15.6504 69.7203 15.665 61.5968 15.6836 53.7263C20.5449 54.0498 25.4953 54.0975 30.6283 54.0975C31.6217 54.0975 32.6255 54.0975 33.6334 54.0933C34.5376 54.0933 35.4439 54.0913 36.3502 54.0892C36.0993 62.2998 36.2839 70.5997 36.8998 78.7896C29.9066 78.8103 22.8366 78.6029 15.8558 78.1716V78.1736ZM44.3929 69.3553C46.7323 69.5316 49.2085 69.5088 52.0643 69.2869L52.4667 79.2666L44.2477 79.2728C44.3079 79.1608 44.3431 79.0364 44.3411 78.8995C44.3058 75.7865 44.2705 72.5782 44.3887 69.3553H44.3929ZM59.912 79.2583L54.0283 79.2624L53.5907 68.4075C53.5824 68.1939 53.487 67.9948 53.3273 67.8538C53.1676 67.7128 52.9561 67.6423 52.7446 67.663C49.2915 67.9679 46.4253 67.9907 43.723 67.7314C43.5094 67.7107 43.2979 67.7791 43.1382 67.9181C42.9764 68.057 42.8789 68.2582 42.8707 68.4718C42.7089 72.012 42.7483 75.5211 42.7877 78.9161C42.7877 79.0447 42.825 79.165 42.8831 79.2728L38.7145 79.277C38.6647 79.1525 38.5839 79.0467 38.4822 78.9638C37.8352 70.5209 37.6485 61.9556 37.9326 53.494C37.9368 53.353 37.9015 53.2223 37.8414 53.1062C41.2986 46.5463 43.5654 42.8734 47.2694 37.923C47.3171 37.8753 47.3545 37.8214 47.3897 37.7633C47.6137 37.4646 47.8418 37.1619 48.0783 36.8528C51.0232 39.6962 53.122 42.637 55.3349 45.7396C57.0894 48.1993 58.9 50.7357 61.1917 53.2617C61.1274 53.3633 61.0817 53.4795 61.0693 53.606C60.192 62.7768 59.8042 71.4064 59.9203 79.2562L59.912 79.2583ZM84.2744 79.4242L61.4633 78.4972C61.3824 71.0414 61.7558 62.8868 62.5687 54.2406C62.6849 54.2219 62.7969 54.1742 62.8964 54.1016C66.4573 54.2945 69.5475 54.3941 72.4862 54.3941C76.7232 54.3941 80.6471 54.1846 85.2056 53.7408C84.7058 62.2563 84.3926 70.89 84.2744 79.4242ZM62.7181 52.5296C62.689 52.5296 62.66 52.5317 62.6309 52.5337C60.2625 49.9683 58.4002 47.3614 56.5979 44.8354C55.03 42.637 53.4248 40.3889 51.4898 38.1884C52.0415 38.2071 52.5766 38.2258 53.0888 38.2444C61.09 38.5223 64.7899 38.6489 73.8509 38.2113C77.6586 41.5606 84.376 49.1429 86.8792 52.0049C78.231 52.9257 72.144 53.0481 62.716 52.5317L62.7181 52.5296Z" fill="#20380E"/>
<path d="M53.6719 47.0398C52.1974 45.7809 50.308 45.4532 48.9911 45.5673C46.4526 45.2479 43.8499 47.1746 43.1572 49.9142C42.4894 52.5564 43.6051 55.5615 45.8138 57.063C46.8363 57.7578 48.035 58.1042 49.2441 58.1042C50.559 58.1042 51.8904 57.6956 53.0249 56.8847C54.5948 55.7627 55.6214 53.9957 55.7707 52.1603C55.9284 50.2419 55.1237 48.2779 53.6719 47.0398ZM54.2174 52.0338C54.1054 53.4171 53.3194 54.7568 52.1186 55.6155C50.4947 56.7768 48.2631 56.8411 46.6911 55.7731C45.0341 54.6469 44.1651 52.291 44.669 50.2958C45.1315 48.4687 46.7948 47.0916 48.4374 47.0916C48.5784 47.0916 48.7194 47.102 48.8605 47.1228C48.9268 47.1331 48.9932 47.1331 49.0575 47.1269C50.0073 47.0274 51.5213 47.2534 52.6578 48.224C53.7196 49.1303 54.3294 50.6256 54.2153 52.0317L54.2174 52.0338Z" fill="#20380E"/>
<path d="M27.307 56.7393C27.3112 56.5257 27.2282 56.3204 27.0789 56.169C26.9275 56.0176 26.7201 55.9367 26.5086 55.9408C23.9991 56.0051 21.4046 56.0715 18.7023 56.3826C18.2792 56.4323 17.9723 56.8119 18.0158 57.2349C18.2481 59.5411 18.2792 61.8847 18.105 64.1971C18.0884 64.4066 18.159 64.6119 18.2958 64.7695C18.4348 64.9271 18.6297 65.0225 18.8371 65.035C19.7683 65.0889 20.7037 65.1138 21.639 65.1138C23.3686 65.1138 25.1004 65.0246 26.8155 64.8442C27.2365 64.8006 27.5455 64.4273 27.5123 64.0063C27.3195 61.5985 27.251 59.1533 27.307 56.7393ZM19.7123 63.5169C19.816 61.6317 19.7911 59.734 19.6377 57.853C21.7178 57.6477 23.7523 57.5751 25.7329 57.5232C25.7101 59.4686 25.7661 61.4284 25.9009 63.3675C23.8477 63.55 21.7717 63.5998 19.7123 63.5169Z" fill="#20380E"/>
<path d="M70.7106 57.7578C70.7334 59.7861 70.6215 61.8352 70.3788 63.8469C70.3518 64.0667 70.4203 64.2886 70.5675 64.4545C70.7148 64.6205 70.9242 64.7179 71.1462 64.72L79.7674 64.805H79.7757C80.203 64.805 80.5493 64.4628 80.5555 64.0335L80.6447 56.4969C80.6489 56.1029 80.3585 55.7669 79.9686 55.715C77.4156 55.3749 74.369 55.2671 71.115 57.0672C70.8641 57.2062 70.7106 57.4716 70.7127 57.7578H70.7106ZM72.2723 58.2183C74.705 57.0009 77.0382 56.9615 79.0747 57.1772L79.0022 63.2371L72.0234 63.1687C72.1914 61.5282 72.2743 59.8691 72.2723 58.2183Z" fill="#20380E"/>
</g>
</svg>
