<svg version="1.1" id="Layer_1" xmlns="http://www.w3.org/2000/svg" xmlns:xlink="http://www.w3.org/1999/xlink" x="0" y="0" viewBox="0 0 470 250" style="enable-background:new 0 0 470 250" xml:space="preserve"><style>.st0{clip-path:url(#SVGID_00000088109886571656310240000010389048878160164759_)}.st1{clip-path:url(#SVGID_00000050625948594317090900000006339405488057978765_);fill:#ed9d42}.st2{fill:#fff}.st2,.st3{clip-path:url(#SVGID_00000050625948594317090900000006339405488057978765_)}.st4,.st5,.st6{clip-path:url(#SVGID_00000021078368737821155030000014594399065732069285_);fill:#20380e}.st5,.st6{clip-path:url(#SVGID_00000077297789378010063160000012430598682018242475_)}.st6{clip-path:url(#SVGID_00000011019361888700297400000000260194298444528774_)}.st7,.st8{clip-path:url(#SVGID_00000050625948594317090900000006339405488057978765_);fill:#a9c563}.st8{fill:#94b73d}.st10,.st9{clip-path:url(#SVGID_00000082338751012020495190000005380101968874257814_);fill:#20380e}.st10{clip-path:url(#SVGID_00000050625948594317090900000006339405488057978765_)}.st11,.st12,.st13{clip-path:url(#SVGID_00000160175595380425782690000007457291436653973128_);fill:#20380e}.st12,.st13{clip-path:url(#SVGID_00000105391628990752609480000001749759021032452998_)}.st13{clip-path:url(#SVGID_00000183932128525126047510000015669559369752987281_)}.st14{clip-path:url(#SVGID_00000050625948594317090900000006339405488057978765_);fill:#eeeff5}.st15{clip-path:url(#SVGID_00000157267907983230143330000011006371898088043911_);fill:#20380e}.st16,.st17,.st18{clip-path:url(#SVGID_00000078764222758381020330000004534427538035116208_);fill:#20380e}.st17,.st18{clip-path:url(#SVGID_00000027573018093694398800000013967547017626549661_)}.st18{clip-path:url(#SVGID_00000115476192493143990090000016457317993755555492_)}.st19{clip-path:url(#SVGID_00000050625948594317090900000006339405488057978765_);fill:#f4f7eb}.st20{clip-path:url(#SVGID_00000057843161438297055710000008075783376294952381_);fill:#20380e}.st21,.st22,.st23{clip-path:url(#SVGID_00000163053484938588614370000007269476107201444761_);fill:#20380e}.st22,.st23{clip-path:url(#SVGID_00000145040793287211734900000013361301989345420946_)}.st23{clip-path:url(#SVGID_00000062176837437800627690000010995952722290043011_)}.st24{clip-path:url(#SVGID_00000050625948594317090900000006339405488057978765_);fill:#4b702f}</style><switch><g><defs><path id="SVGID_1_" d="M0 0h470v250H0z"/></defs><clipPath id="SVGID_00000011015170258768762430000008973041420861292706_"><use xlink:href="#SVGID_1_" style="overflow:visible"/></clipPath><g style="clip-path:url(#SVGID_00000011015170258768762430000008973041420861292706_)"><defs><path id="SVGID_00000050639469768934031640000013018089281264937127_" d="M0 0h470v250H0z"/></defs><clipPath id="SVGID_00000165229444813872697220000001101652370041622949_"><use xlink:href="#SVGID_00000050639469768934031640000013018089281264937127_" style="overflow:visible"/></clipPath><path style="clip-path:url(#SVGID_00000165229444813872697220000001101652370041622949_);fill:#ed9d42" d="M241.6 214.2v60h-51.8v-60c0-4.7 3.8-8.5 8.5-8.5h34.8c4.7 0 8.5 3.8 8.5 8.5z"/><path style="clip-path:url(#SVGID_00000165229444813872697220000001101652370041622949_);fill:#fff" d="M241.6 214.2v51.1c-3.8.7-7.8 1.1-11.8 1.1-15.9 0-30.2-3.1-40-11.9v-40.2c0-4.7 3.8-8.5 8.5-8.5h34.8c4.7-.1 8.5 3.7 8.5 8.4z"/><g style="clip-path:url(#SVGID_00000165229444813872697220000001101652370041622949_)"><defs><path id="SVGID_00000168836365095336588340000006900852045615454607_" d="M241.6 214.2v51.1c-3.8.7-7.8 1.1-11.8 1.1-15.9 0-30.2-3.1-40-11.9v-40.2c0-4.7 3.8-8.5 8.5-8.5h34.8c4.7-.1 8.5 3.7 8.5 8.4z"/></defs><clipPath id="SVGID_00000075157112205060725000000008075502521126465206_"><use xlink:href="#SVGID_00000168836365095336588340000006900852045615454607_" style="overflow:visible"/></clipPath><path style="clip-path:url(#SVGID_00000075157112205060725000000008075502521126465206_);fill:#20380e" d="M241.6 212.2v4-4zm-8.5-4.5c3.6 0 6.5 2.9 6.5 6.5h4c0-5.8-4.7-10.5-10.5-10.5v4zm-34.8 0h34.8v-4h-34.8v4zm-6.5 6.5c0-3.6 2.9-6.5 6.5-6.5v-4c-5.8 0-10.5 4.7-10.5 10.5h4zm0 40.2v-40.2h-4v40.2h4zm37.9 9.9c-15.7 0-29.4-3.1-38.6-11.4l-2.7 3c10.3 9.3 25.2 12.4 41.3 12.4v-4zm11.5-1c-3.7.7-7.5 1-11.5 1v4c4.2 0 8.3-.4 12.2-1.1l-.7-3.9zm-1.6-49.1v51.1h4v-51.1h-4zm2 0v2h2v-2h-2zm-51.8 40.2h-2v.9l.7.6 1.3-1.5zm51.8 10.9.4 2 1.6-.3v-1.7h-2zm0-51.1v-2h-2v2h2z"/></g><path style="clip-path:url(#SVGID_00000165229444813872697220000001101652370041622949_);fill:#fff" d="M189.8 219.8h51.7v3h-51.7z"/><g style="clip-path:url(#SVGID_00000165229444813872697220000001101652370041622949_)"><defs><path id="SVGID_00000104691800672981956010000007896661101478487212_" d="M189.8 219.8h51.7v3h-51.7z"/></defs><clipPath id="SVGID_00000029011331598965160730000016913155496230766011_"><use xlink:href="#SVGID_00000104691800672981956010000007896661101478487212_" style="overflow:visible"/></clipPath><path style="clip-path:url(#SVGID_00000029011331598965160730000016913155496230766011_);fill:#20380e" d="M191.8 222.8v-3h-4v3h4zm49.8-2h-51.7v4h51.7v-4zm-2-1v3h4v-3h-4zm-49.8 2h51.7v-4h-51.7v4zm0 1h-2v2h2v-2zm51.8 0v2h2v-2h-2zm0-3h2v-2h-2v2zm-51.8 0v-2h-2v2h2z"/></g><path style="clip-path:url(#SVGID_00000165229444813872697220000001101652370041622949_);fill:#fff" d="M241.5 205.7h-51.7c-2.7 0-5 2.2-5 5v4.2c0 2.7 2.2 5 5 5h51.7c2.7 0 5-2.2 5-5v-4.2c0-2.8-2.3-5-5-5z"/><g style="clip-path:url(#SVGID_00000165229444813872697220000001101652370041622949_)"><defs><path id="SVGID_00000036232799747663540310000000438026018909679521_" d="M241.5 205.7h-51.7c-2.7 0-5 2.2-5 5v4.2c0 2.7 2.2 5 5 5h51.7c2.7 0 5-2.2 5-5v-4.2c0-2.8-2.3-5-5-5z"/></defs><clipPath id="SVGID_00000116948034348699716600000016806988664785234879_"><use xlink:href="#SVGID_00000036232799747663540310000000438026018909679521_" style="overflow:visible"/></clipPath><path style="clip-path:url(#SVGID_00000116948034348699716600000016806988664785234879_);fill:#20380e" d="M186.9 210.7c0-1.6 1.3-3 3-3v-4c-3.8 0-7 3.1-7 7h4zm0 4.2v-4.2h-4v4.2h4zm2.9 2.9c-1.6 0-3-1.3-3-3h-4c0 3.8 3.1 7 7 7v-4zm51.7 0h-51.7v4h51.7v-4zm3-2.9c0 1.6-1.3 3-3 3v4c3.8 0 7-3.1 7-7h-4zm0-4.2v4.2h4v-4.2h-4zm-3-3c1.6 0 3 1.3 3 3h4c0-3.8-3.1-7-7-7v4zm-51.7 0h51.7v-4h-51.7v4z"/></g><path style="clip-path:url(#SVGID_00000165229444813872697220000001101652370041622949_);fill:#a9c563" d="m263.8 133.7 2.9 1.2c2.7 1.2 4.8 3.5 5.6 6.4l9.2 33.5c1.6 5.9-2.1 12-8.2 13.1-1.8.3-3.8.3-6-.3l-3.5-53.9z"/><path style="clip-path:url(#SVGID_00000165229444813872697220000001101652370041622949_);fill:#94b73d" d="M269.7 189.7s-34.6 9.8-64.2 0l1.1-12.6L211 132l13.5-4.7 27.9.9 11.4 5.4 5 46.8.9 9.3z"/><path style="clip-path:url(#SVGID_00000165229444813872697220000001101652370041622949_);fill:#94b73d" d="M268.7 180.5c-9 4.4-20.2 6.7-32 6-3.8-.2-7.5-.8-11-1.6-11.1-2.5-18.7-12.8-17.7-24.1l3-28.8 13.5-4.7 27.9.9 11.4 5.4 4.9 46.9z"/><path style="clip-path:url(#SVGID_00000165229444813872697220000001101652370041622949_);fill:#fff" d="M224.5 127.3c2.3 3.7 6.7 6.2 10.1 7.5 5.4 2 11.6.7 15.6-3.5 1.6-1.7 2.1-3 2.1-3l-2.8-1.8V118l-21.9-4.9v13.1l-3.1 1.1z"/><g style="clip-path:url(#SVGID_00000165229444813872697220000001101652370041622949_)"><defs><path id="SVGID_00000171712204468378441940000009787623210045306252_" d="M224.5 127.3c2.3 3.7 6.7 6.2 10.1 7.5 5.4 2 11.6.7 15.6-3.5 1.6-1.7 2.1-3 2.1-3l-2.8-1.8V118l-21.9-4.9v13.1l-3.1 1.1z"/></defs><clipPath id="SVGID_00000000930323688517125960000007339652001931788185_"><use xlink:href="#SVGID_00000171712204468378441940000009787623210045306252_" style="overflow:visible"/></clipPath><path style="clip-path:url(#SVGID_00000000930323688517125960000007339652001931788185_);fill:#20380e" d="M221.5 127.3h6-6zm5.2-3.9-3.3 1.1 2 5.7 3.3-1.1-2-5.7zm-2-10.3v13.1h6v-13.1h-6zm25.6 2-21.9-4.9-1.3 5.9L249 121l1.3-5.9zm2.3 11.3V118h-6v8.4h6zm1.4-.6-2.8-1.8-3.3 5 2.8 1.8 3.3-5zm-1.6 7.6c1-1 1.6-2 2.1-2.7.2-.4.4-.7.5-.9.1-.1.1-.2.1-.3v-.1l-2.8-1.1-2.8-1.1v.1c0 .1-.1.2-.2.4-.2.4-.6 1-1.3 1.6l4.4 4.1zm-18.8 4.2c6.5 2.4 14 .9 18.8-4.2l-4.3-4.1c-3.1 3.3-8 4.3-12.4 2.7l-2.1 5.6zm-11.7-8.7c2.8 4.6 8 7.4 11.7 8.7l2.1-5.6c-3.2-1.2-6.9-3.3-8.6-6.2l-5.2 3.1zm2.6-1.6-1-2.8-2 .7v2.1h3zm3.2-1.1 1 2.8 2-.7v-2.1h-3zm0-13.1.7-2.9-3.7-.8v3.8h3zm21.9 4.9h3v-2.4l-2.3-.5-.7 2.9zm0 8.4h-3v1.6l1.3.9 1.7-2.5zm2.8 1.9 2.8 1.1.8-2.2-2-1.3-1.6 2.4zm-2.2 3-2.2-2.1 2.2 2.1zm-15.6 3.5 1-2.8-1 2.8zm-10.1-7.5h-3v.8l.4.7 2.6-1.5z"/></g><path style="clip-path:url(#SVGID_00000165229444813872697220000001101652370041622949_);fill:#20380e" d="M215.4 56.1s-1-9.8-10.4-11.8c-4.2-.9-8.6.1-12.2 2.5-3.8 2.6-8.2 7.5-8.4 16.4 0 2.4-.3 4.8-1 7.1-1 3.9-3.2 8.7-7.5 10.6-1 .4-1.2 1.7-.3 2.4 2.7 2.2 8.4 5.5 15.6 2.3 0 0-1.1 1.7-3.4 3.1-1 .6-.6 2.2.6 2.3 3.4.2 8.5-.4 13.6-4.8 1.5-1.3 2.3-3.3 2.4-5.4.4-5.2 2.1-19.8 11-24.7z"/><path style="clip-path:url(#SVGID_00000165229444813872697220000001101652370041622949_);fill:#20380e" d="M276.8 93.9V79.6s.1-.4.3-1c4.5-15.5-8.9-30.6-24.7-27.6-2.4.5-4.8 1.3-7.1 2.8 0 0-.7-.7-2.1-1.6-16.9-11.2-39.8-2.1-44.8 17.5-1.7 6.7-1.7 15 3.4 23.7l39.1 17.1 35.9-16.6z"/><path style="clip-path:url(#SVGID_00000165229444813872697220000001101652370041622949_);fill:#fff" d="M215.6 94.7s-7.7-8.9-14.4-4c-3 2.2-4.4 6-3.5 9.6 1 4 4.9 8.3 17.9 6.2V94.7z"/><g style="clip-path:url(#SVGID_00000165229444813872697220000001101652370041622949_)"><defs><path id="SVGID_00000031907064071659578270000011040881048925678992_" d="M215.6 94.7s-7.7-8.9-14.4-4c-3 2.2-4.4 6-3.5 9.6 1 4 4.9 8.3 17.9 6.2V94.7z"/></defs><clipPath id="SVGID_00000132797042639803028200000012463489916951252364_"><use xlink:href="#SVGID_00000031907064071659578270000011040881048925678992_" style="overflow:visible"/></clipPath><path style="clip-path:url(#SVGID_00000132797042639803028200000012463489916951252364_);fill:#20380e" d="M218.6 106.5V94.7h-6v11.8h6zm-23.8-5.5c.7 2.7 2.4 5.6 6 7.4 3.5 1.7 8.4 2.2 15.3 1.1l-.9-5.9c-6.2 1-9.8.3-11.7-.6-1.8-.9-2.5-2.1-2.8-3.4l-5.9 1.4zm4.7-12.7c-3.9 2.9-5.9 7.9-4.7 12.7l5.8-1.4c-.6-2.4.4-4.9 2.4-6.4l-3.5-4.9zm16.1 6.4 2.3-2-.1-.1-.3-.3-1.1-1.1c-.9-.8-2.3-1.9-3.9-2.9-3.2-1.8-8.2-3.5-13 0l3.5 4.8c1.9-1.4 4.1-1.1 6.4.3 1.1.7 2.1 1.5 2.9 2.1.4.3.6.6.8.8l.2.2c.1.1.1.1 2.3-1.8zm0 11.8.5 3 2.5-.4v-2.6h-3zm-17.9-6.2 2.9-.7-2.9.7zm3.6-9.6-1.8-2.4 1.8 2.4zm14.3 4h3v-1.1l-.7-.8-2.3 1.9z"/></g><path style="clip-path:url(#SVGID_00000165229444813872697220000001101652370041622949_);fill:#fff" d="M262.5 95.7s7.3-8.4 13.7-3.8c2.8 2.1 4.2 5.7 3.4 9.1-.9 3.8-4.6 7.9-17 5.9V95.7z"/><g style="clip-path:url(#SVGID_00000165229444813872697220000001101652370041622949_)"><defs><path id="SVGID_00000018927802669568271550000005523473507565817995_" d="M262.5 95.7s7.3-8.4 13.7-3.8c2.8 2.1 4.2 5.7 3.4 9.1-.9 3.8-4.6 7.9-17 5.9V95.7z"/></defs><clipPath id="SVGID_00000161591716656753232400000006217262432084074655_"><use xlink:href="#SVGID_00000018927802669568271550000005523473507565817995_" style="overflow:visible"/></clipPath><path style="clip-path:url(#SVGID_00000161591716656753232400000006217262432084074655_);fill:#20380e" d="M265.5 106.9V95.7h-6v11.2h6zm11.2-6.6c-.3 1.2-.9 2.3-2.6 3.1-1.8.9-5.1 1.5-11.1.6l-.9 5.9c6.5 1 11.2.6 14.6-1.1 3.5-1.7 5.2-4.5 5.8-7.1l-5.8-1.4zm-2.2-6c1.9 1.4 2.8 3.8 2.2 5.9l5.8 1.4c1.1-4.6-.7-9.5-4.5-12.2l-3.5 4.9zm-12 1.4 2.3 2 .2-.2.8-.8c.7-.6 1.6-1.4 2.7-2 2.2-1.3 4.2-1.6 5.9-.3l3.5-4.8c-4.6-3.4-9.5-1.8-12.5 0-1.6.9-2.8 2-3.7 2.8-.4.4-.8.8-1.1 1l-.3.3-.1.1c.1-.1.1-.1 2.3 1.9zm0 11.2h-3v2.6l2.5.4.5-3zm17.1-5.9-2.9-.7 2.9.7zm-3.4-9.1-1.8 2.4 1.8-2.4zm-13.7 3.8-2.3-2-.7.8v1.1h3z"/></g><path style="clip-path:url(#SVGID_00000165229444813872697220000001101652370041622949_);fill:#fff" d="M268.6 82.2v21.6c0 5.3-3 10.1-7.8 12.6-2 1-4.4 2-7.3 2.8-9.6 2.7-19.9 2.3-29.2-1.2-1.9-.8-3.9-1.7-5.8-2.8-3.6-2.2-5.8-6-5.8-10.1v-26s11.8-1.4 16.4-8.8c0 0 5.5 2.6 1.2 9.7 0 0 18.2 2.3 14.8-15.7 0 0 14.9-.2 21.2 9.7 1.6 2.5 2.3 5.4 2.3 8.2z"/><g style="clip-path:url(#SVGID_00000165229444813872697220000001101652370041622949_)"><defs><path id="SVGID_00000020379942667632421980000007434454091168320138_" d="M268.6 82.2v21.6c0 5.3-3 10.1-7.8 12.6-2 1-4.4 2-7.3 2.8-9.6 2.7-19.9 2.3-29.2-1.2-1.9-.8-3.9-1.7-5.8-2.8-3.6-2.2-5.8-6-5.8-10.1v-26s11.8-1.4 16.4-8.8c0 0 5.5 2.6 1.2 9.7 0 0 18.2 2.3 14.8-15.7 0 0 14.9-.2 21.2 9.7 1.6 2.5 2.3 5.4 2.3 8.2z"/></defs><clipPath id="SVGID_00000001627493396042543510000016604305681004618654_"><use xlink:href="#SVGID_00000020379942667632421980000007434454091168320138_" style="overflow:visible"/></clipPath><path style="clip-path:url(#SVGID_00000001627493396042543510000016604305681004618654_);fill:#20380e" d="M268.6 79.2v6-6zm-4.8-3.5c1.2 1.9 1.8 4.2 1.8 6.5h6c0-3.4-.9-6.8-2.8-9.8l-5 3.3zm-18.7-11.3v3h.5c.4 0 .9 0 1.6.1 1.4.1 3.3.4 5.3.9 4.2 1.1 8.6 3.2 11.2 7.2l5.1-3.2c-3.7-5.8-9.9-8.5-14.7-9.8-2.5-.6-4.7-1-6.3-1.1-.8-.1-1.5-.1-1.9-.1h-.8v3zm-14.8 15.7-.4 3H230.2c.2 0 .4 0 .7.1.6 0 1.4.1 2.3 0 1.8-.1 4.4-.4 6.9-1.4 2.5-1 5.1-2.8 6.8-5.9 1.6-3.1 2.1-7.1 1.2-12l-5.9 1.1c.8 4.1.2 6.6-.6 8.1s-2.1 2.5-3.7 3.2c-1.6.7-3.4.9-4.9 1H230.7c0-.1 0-.1-.4 2.8zm-1.2-9.7-1.3 2.7.2.2c.2.2.5.4.7.8.2.4.8 1.7-1 4.5l5.1 3.1c2.6-4.3 2.5-7.9 1.1-10.5-.7-1.2-1.5-2.1-2.2-2.6-.3-.3-.6-.5-.9-.6-.1-.1-.2-.1-.3-.2 0 0-.1 0-.1-.1l-1.3 2.7zm-16.4 8.8.3 3h.1c.1 0 .3 0 .4-.1.4-.1.9-.1 1.5-.3 1.3-.3 3-.7 5-1.4 3.7-1.3 8.6-3.8 11.5-8.4l-5.1-3.2c-1.8 2.9-5.1 4.8-8.4 5.9-1.6.6-3.1.9-4.1 1.2-.5.1-1 .2-1.3.2h-.4c.2.1.2.1.5 3.1zm3 26v-26h-6v26h6zm4.3 7.4c-2.7-1.6-4.3-4.5-4.3-7.5h-6c0 5.2 2.8 9.9 7.3 12.6l3-5.1zm5.4 2.6c-1.8-.7-3.6-1.6-5.3-2.6l-3.1 5.2c2 1.2 4.2 2.2 6.3 3l2.1-5.6zm27.3 1.2c-9 2.6-18.7 2.2-27.3-1.2l-2.2 5.6c9.9 3.8 20.9 4.2 31.1 1.3l-1.6-5.7zm6.8-2.7c-1.8.9-4.1 1.9-6.8 2.6l1.6 5.8c3.1-.9 5.7-1.9 7.9-3.1l-2.7-5.3zm6.1-9.9c0 4.1-2.3 8-6.2 10l2.7 5.3c5.8-3 9.4-8.9 9.4-15.3h-5.9zm0-21.6v21.6h6V82.2h-6zm3 0v3h3v-3h-3zm-2.3-8.1-2.5 1.6 2.5-1.6zm-21.2-9.7v-3h-3.6l.7 3.5 2.9-.5zm-14.8 15.7-2.6-1.6-2.4 3.9 4.6.6.4-2.9zm-1.2-9.7 1.3-2.7-2.4-1.1-1.4 2.2 2.5 1.6zm-16.4 8.8-.3-3-2.7.3v2.7h3zm5.8 36-1.5 2.6 1.5-2.6zm5.8 2.8-1.1 2.8 1.1-2.8zm29.2 1.3-.8-2.9.8 2.9zm7.3-2.9-1.4-2.7 1.4 2.7zm7.8-34.2v-3h-3v3h3z"/></g><path style="clip-path:url(#SVGID_00000165229444813872697220000001101652370041622949_);fill:#20380e" d="M256.6 92.5c0 1.9-.9 3.4-2.1 3.4-1.2 0-2.2-1.5-2.2-3.4s.9-3.4 2.1-3.4c1.1 0 2.2 1.5 2.2 3.4zM233.7 92.5c0 1.9-.9 3.4-2.1 3.4-1.2 0-2.2-1.5-2.2-3.4s.9-3.4 2.1-3.4c1.2 0 2.2 1.5 2.2 3.4zM249.6 108.9c-3.9 2.3-9.9 2.4-15.6-2.3l1.9-2.3c4.8 4 9.5 3.6 12.2 2l1.5 2.6zm-15.6-2.3c-.6-.5-.7-1.5-.2-2.1.5-.6 1.5-.7 2.1-.2l-1.9 2.3zm14.1-.2c.7-.4 1.6-.2 2.1.5.4.7.2 1.6-.5 2.1l-1.6-2.6zM223 86c1.2-.8 3.2-1.7 5.4-2 2.3-.3 4.9.1 7 2.2l-2.1 2.1c-1.3-1.3-2.8-1.6-4.5-1.4-1.7.2-3.2.9-4.1 1.5L223 86zm12.4.2c.6.6.6 1.5 0 2.1-.6.6-1.5.6-2.1 0l2.1-2.1zm-10.7 2.3c-.7.5-1.6.3-2.1-.4s-.3-1.6.4-2.1l1.7 2.5zM248.2 86.1c1-.9 2.7-1.9 4.8-2.1 2.1-.3 4.6.1 7.1 2.1l-1.9 2.3c-1.7-1.4-3.4-1.7-4.7-1.5-1.4.2-2.6.9-3.2 1.4l-2.1-2.2zm11.8 0c.6.5.7 1.5.2 2.1-.5.6-1.5.7-2.1.2l1.9-2.3zm-9.8 2.3c-.6.5-1.6.5-2.1-.1s-.5-1.6.1-2.1l2 2.2zM262.8 264.9l-1.6 12.8c-.2 1.4.9 2.6 2.3 2.6h27.1c3.6 0 5.8-4.1 3.7-7.1l-.1-.1c-.4-.5-.8-.9-1.4-1.2l-13.1-7.4c.1 0-8.5 2.1-16.9.4z"/><path style="clip-path:url(#SVGID_00000165229444813872697220000001101652370041622949_);fill:#eeeff5" d="M290.6 280.3h-27.1c-1.4 0-2.5-1.2-2.3-2.6l.2-1.8h24.9c.1-4 4.3-5.3 4.3-5.3l2.2 1.2c.5.3 1 .7 1.4 1.2l.1.1c2.1 3.1-.1 7.2-3.7 7.2z"/><g style="clip-path:url(#SVGID_00000165229444813872697220000001101652370041622949_)"><defs><path id="SVGID_00000058556788376559636220000011725967060847903657_" d="M290.6 280.3h-27.1c-1.4 0-2.5-1.2-2.3-2.6l.2-1.8h24.9c.1-4 4.3-5.3 4.3-5.3l2.2 1.2c.5.3 1 .7 1.4 1.2l.1.1c2.1 3.1-.1 7.2-3.7 7.2z"/></defs><clipPath id="SVGID_00000123412566583743214510000011729808091184130716_"><use xlink:href="#SVGID_00000058556788376559636220000011725967060847903657_" style="overflow:visible"/></clipPath><path style="clip-path:url(#SVGID_00000123412566583743214510000011729808091184130716_);fill:#20380e" d="M292.7 274.4c1.1 1.6 0 3.9-2.1 3.9v4c5.2 0 8.4-5.9 5.4-10.2l-3.3 2.3zm0 0c-.1-.1-.1-.1-.1-.2l3.5-2c-.1-.2-.2-.3-.3-.4l-3.1 2.6zm-.8-.7c.3.2.6.4.7.6l3.2-2.4c-.6-.8-1.3-1.4-2-1.8l-1.9 3.6zm-2.2-1.3 2.2 1.2 2-3.5-2.2-1.2-2 3.5zm-1.4 3.6c0-1.2.7-2.1 1.4-2.6.4-.3.8-.5 1.1-.6.1-.1.3-.1.3-.1h.1l-.6-1.9-.6-1.9h-.1c-.1 0-.1 0-.2.1-.2.1-.4.1-.6.3-.5.2-1.2.6-1.9 1.1-1.4 1-2.9 2.9-3 5.7l4.1-.1zm-26.9 1.9h24.9v-4h-24.9v4zm1.8 0 .2-1.8-4-.5-.2 1.8 4 .5zm.3.4c-.2 0-.3-.2-.3-.4l-4-.5c-.3 2.6 1.7 4.8 4.3 4.8v-3.9zm27.1 0h-27.1v4h27.1v-4zm3.7-5.1-1.7 1v.1l.1.1 1.6-1.2zm0-.1-1.6 1.2v.2l1.6-1.4zm-1.4-1.2-1 1.7 1-1.7zm-2.2-1.2 1-1.7-.7-.4-.8.2.5 1.9zm-4.4 5.2v2h1.9l.1-1.9-2-.1zm-24.9 0v-2h-1.8l-.2 1.7 2 .3zm-.2 1.8-2-.3 2 .3z"/></g><path style="clip-path:url(#SVGID_00000165229444813872697220000001101652370041622949_);fill:#fff" d="M262.8 264.9c7.4 2.3 17-.4 17-.4l.5-5.9 1.1-13.6h-17.9l-.5 12.6-.2 7.3z"/><g style="clip-path:url(#SVGID_00000165229444813872697220000001101652370041622949_)"><defs><path id="SVGID_00000047027444427158345290000007836465065368351877_" d="M262.8 264.9c7.4 2.3 17-.4 17-.4l.5-5.9 1.1-13.6h-17.9l-.5 12.6-.2 7.3z"/></defs><clipPath id="SVGID_00000173858096128635461520000006342010065022464955_"><use xlink:href="#SVGID_00000047027444427158345290000007836465065368351877_" style="overflow:visible"/></clipPath><path style="clip-path:url(#SVGID_00000173858096128635461520000006342010065022464955_);fill:#20380e" d="m261 257.6-.3 7.2 4 .1.3-7.2-4-.1zm.5-12.6-.5 12.6 4 .1.5-12.6-4-.1zm19.9-1.9h-17.9v4h17.9v-4zm.9 15.7 1.1-13.6-4-.3-1.1 13.6 4 .3zm-.5 5.9.5-5.9-4-.3-.5 5.9 4 .3zm-19.6 2.1c4.1 1.3 8.7 1.1 12.1.7 1.7-.2 3.2-.5 4.3-.7.5-.1 1-.2 1.3-.3.1 0 .3-.1.3-.1h.1l-.5-1.9-.5-1.9h-.1c-.1 0-.2 0-.3.1-.3.1-.6.2-1.1.3-1 .2-2.4.5-3.9.6-3.2.4-7.2.4-10.5-.6l-1.2 3.8zm.8-9.1-2-.1 2 .1zm.5-12.6v-2h-1.9l-.1 1.9 2 .1zm17.9 0 2 .2.2-2.2h-2.2v2zm-1.1 13.6-2-.2 2 .2zm-.5 5.8.5 1.9 1.3-.4.1-1.4-1.9-.1zm-17 .4-2-.1-.1 1.5 1.5.5.6-1.9z"/></g><path style="clip-path:url(#SVGID_00000165229444813872697220000001101652370041622949_);fill:#20380e" d="M269.7 189.7s1.8.2 4.2 1.3c7 3.2 11.4 10.2 11.4 17.9v46.9s-12.6 4.4-24.5-1l1.3-46.5-12.7-19 20.3.4z"/><path style="clip-path:url(#SVGID_00000165229444813872697220000001101652370041622949_);fill:#fff" d="m258.1 240.3-4.7 20-.8 3.2s-8.7 2.9-18.1.4l1.3-6.2 3.8-17.5h18.5z"/><g style="clip-path:url(#SVGID_00000165229444813872697220000001101652370041622949_)"><defs><path id="SVGID_00000103978278223040311320000015496118430783599007_" d="m258.1 240.3-4.7 20-.8 3.2s-8.7 2.9-18.1.4l1.3-6.2 3.8-17.5h18.5z"/></defs><clipPath id="SVGID_00000036941637172048297250000003272289235951029396_"><use xlink:href="#SVGID_00000103978278223040311320000015496118430783599007_" style="overflow:visible"/></clipPath><path style="clip-path:url(#SVGID_00000036941637172048297250000003272289235951029396_);fill:#20380e" d="M239.7 242.3h18.4v-4h-18.4v4zm-1.9 15.9 3.8-17.5-3.9-.9-3.8 17.5 3.9.9zm-1.3 6.2 1.3-6.2-3.9-.9-1.3 6.2 3.9.9zm16.2-.9-.6-1.9h-.1c-.1 0-.1 0-.3.1-.2.1-.6.2-1 .3-.9.2-2.2.5-3.8.7-3.2.4-7.4.5-11.8-.7l-1 3.9c5 1.3 9.8 1.2 13.3.8 1.8-.2 3.2-.5 4.2-.8.5-.1.9-.2 1.2-.3.1 0 .3-.1.3-.1h.1c.1-.1.1-.1-.5-2zm-1.2-3.6-.8 3.2 3.9.9.8-3.2-3.9-.9zm4.7-20-4.7 20 3.9.9 4.7-20-3.9-.9zm-16.5.4v-2h-1.6l-.3 1.6 1.9.4zm-3.8 17.5 2 .4-2-.4zm-1.4 6.2-2-.4-.4 1.9 1.9.5.5-2zm18.2-.5.6 1.9 1.1-.4.3-1.1-2-.4zm.7-3.2 1.9.5-1.9-.5zm4.7-20 1.9.5.6-2.5h-2.5v2z"/></g><path style="clip-path:url(#SVGID_00000165229444813872697220000001101652370041622949_);fill:#20380e" d="m234.5 264-3 13.6c-.2 1.5 1 2.8 2.4 2.8h30.2c3.9 0 6.2-4.4 4-7.5l-.1-.1c-.4-.5-.9-1-1.5-1.3l-13.9-7.8c.1-.2-9 2.1-18.1.3z"/><path style="clip-path:url(#SVGID_00000165229444813872697220000001101652370041622949_);fill:#fff" d="M264.1 280.3H234c-1.5 0-2.6-1.3-2.4-2.8l.4-1.9h26.3c.9-5.6 5.3-6 5.3-6l3 1.7c.6.3 1.1.8 1.5 1.3l.1.1c2.1 3.2-.2 7.6-4.1 7.6z"/><g style="clip-path:url(#SVGID_00000165229444813872697220000001101652370041622949_)"><defs><path id="SVGID_00000094581507385621329060000005198180629666273925_" d="M264.1 280.3H234c-1.5 0-2.6-1.3-2.4-2.8l.4-1.9h26.3c.9-5.6 5.3-6 5.3-6l3 1.7c.6.3 1.1.8 1.5 1.3l.1.1c2.1 3.2-.2 7.6-4.1 7.6z"/></defs><clipPath id="SVGID_00000026155390177260562350000001003178848737745313_"><use xlink:href="#SVGID_00000094581507385621329060000005198180629666273925_" style="overflow:visible"/></clipPath><path style="clip-path:url(#SVGID_00000026155390177260562350000001003178848737745313_);fill:#20380e" d="M262.1 280.3h4-4zm4.4-6.3c1.2 1.8 0 4.3-2.3 4.3v4c5.4 0 8.8-6.1 5.6-10.6l-3.3 2.3zm0-.1c0 .1 0 .1 0 0l3.3-2.3c0-.1-.1-.2-.2-.2l-3.1 2.5zm-.9-.8c.4.2.6.5.8.7l3.2-2.4c-.6-.8-1.3-1.4-2.1-1.8l-1.9 3.5zm-3.1-1.7 3 1.7 2-3.5-3-1.7-2 3.5zm-2.3 4.6c.4-2.3 1.4-3.3 2.1-3.7.4-.3.8-.4 1-.5.1 0 .2-.1.3-.1l-.2-2-.2-2H262.9c-.2 0-.4.1-.7.2-.6.2-1.3.5-2.1 1-1.7 1.1-3.3 3.1-3.9 6.4l4 .7zm-28.2 1.6h26.3v-4H232v4zm1.5.4.4-1.9-3.9-.9-.4 1.9 3.9.9zm.5.3c-.3 0-.5-.2-.5-.5l-4-.5c-.3 2.7 1.7 5 4.4 5v-4zm30.1 0H234v4h30.2v-4zm0 2v-2h-2v2h2zm4-7.5 1.6-1.2-1.6 1.2zm-.1-.1-1.6 1.2v.1l1.6-1.3zm-1.5-1.3-1 1.7 1-1.7zm-3-1.7 1-1.7-.5-.3h-.6l.1 2zm-5.2 5.9v2h1.7l.3-1.7-2-.3zm-26.3 0v-2h-1.6l-.3 1.6 1.9.4zm-.5 1.9-2-.4v.2l2 .2zm32.6 2.8v2h2v-2h-2z"/></g><path style="clip-path:url(#SVGID_00000165229444813872697220000001101652370041622949_);fill:#f4f7eb" d="M206.5 190.4s-9.5 31.9 34.9 30.7l-8.3 34.1s14.3 7.3 28.6 3.1l8.7-35.5c.5-1.8.8-3.7.9-5.6.3-3.7 0-7.4-.9-11.1 0-.1-.1-.2-.1-.4-2.4-9.1-10.7-15.5-20.2-15.5h-43.6z"/><path style="clip-path:url(#SVGID_00000165229444813872697220000001101652370041622949_);fill:#20380e" d="M205.5 189.4s-9.5 31.9 34.9 30.7l-8.3 34.1s14.3 7.3 28.6 3.1l8.7-35.5c.5-1.8.8-3.7.9-5.6.3-3.7 0-7.4-.9-11.1 0-.1-.1-.2-.1-.4-2.4-9.1-10.7-15.5-20.2-15.5h-43.6z"/><path style="clip-path:url(#SVGID_00000165229444813872697220000001101652370041622949_);fill:#20380e" d="M240.4 220.1s4.2-.1 7.1-.4c.4 0 .8.2.8.6.1.5-.2.9-.7 1-1.4.1-4.3.3-7.4.3l.2-1.5z"/><path style="clip-path:url(#SVGID_00000165229444813872697220000001101652370041622949_);fill:#fff" d="m274.8 132-4.8 12.7 19 6.3z"/><g style="clip-path:url(#SVGID_00000165229444813872697220000001101652370041622949_)"><defs><path id="SVGID_00000103240473099720914500000015418175875569751716_" d="m274.8 132-4.8 12.7 19 6.3z"/></defs><clipPath id="SVGID_00000115473441091706867520000016733788722533843122_"><use xlink:href="#SVGID_00000103240473099720914500000015418175875569751716_" style="overflow:visible"/></clipPath><path style="clip-path:url(#SVGID_00000115473441091706867520000016733788722533843122_);fill:#20380e" d="m289.8 150.4-14.2-19-1.6 1.2 14.2 19 1.6-1.2zm-20.1-4.8 19 6.3.6-1.9-19-6.3-.6 1.9zm4.1-14-4.8 12.7 1.9.7 4.8-12.7-1.9-.7zM289 151l-.3.9 3 1-1.9-2.6-.8.7zm-19-6.3-.9-.4-.4 1 1 .3.3-.9zm4.8-12.7.8-.6-1.1-1.5-.6 1.7.9.4z"/></g><path style="clip-path:url(#SVGID_00000165229444813872697220000001101652370041622949_);fill:#fff" d="m290.3 150.3-5 1.9c-.3-.1-.6-.1-.9-.2l-22.2-6.8c-.9-.3-1.8.3-2.1 1.1l-8 30.6c-.2.9.3 1.8 1.3 2l23.5 4.6c1.7.3 3.6-.2 4.9-1.6.6-.7 1.1-1.5 1.3-2.4l6.8-25.2c.5-1.2.6-2.6.4-4z"/><g style="clip-path:url(#SVGID_00000165229444813872697220000001101652370041622949_)"><defs><path id="SVGID_00000078755550320585144750000000338923816143594159_" d="m290.3 150.3-5 1.9c-.3-.1-.6-.1-.9-.2l-22.2-6.8c-.9-.3-1.8.3-2.1 1.1l-8 30.6c-.2.9.3 1.8 1.3 2l23.5 4.6c1.7.3 3.6-.2 4.9-1.6.6-.7 1.1-1.5 1.3-2.4l6.8-25.2c.5-1.2.6-2.6.4-4z"/></defs><clipPath id="SVGID_00000065054821700766555140000005100497491722056121_"><use xlink:href="#SVGID_00000078755550320585144750000000338923816143594159_" style="overflow:visible"/></clipPath><path style="clip-path:url(#SVGID_00000065054821700766555140000005100497491722056121_);fill:#20380e" d="m291 151.1-1.4-1.4 1.4 1.4zm0 3.6c.4-1.5.5-3 .3-4.5l-2 .3c.2 1.2.1 2.5-.3 3.7l2 .5zm-6.9 25.2 6.8-25.2-1.9-.5-6.8 25.2 1.9.5zm-1.5 2.8c.8-.8 1.3-1.8 1.5-2.8l-1.9-.5c-.2.8-.6 1.4-1.1 2l1.5 1.3zm-5.9 1.9c2.1.4 4.3-.2 5.8-1.9l-1.4-1.4c-1.1 1.1-2.6 1.6-4 1.3l-.4 2zm-23.5-4.6 23.5 4.6.4-2-23.5-4.6-.4 2zm-2-3.3c-.4 1.5.6 3 2 3.3l.4-2c-.4-.1-.6-.4-.5-.8l-1.9-.5zm7.9-30.6-8 30.6 1.9.5 8-30.6-1.9-.5zm3.4-1.8c-1.4-.4-2.9.4-3.3 1.9l1.9.5c.1-.3.5-.6.8-.4l.6-2zm22.2 6.7-22.2-6.8-.6 1.9 22.2 6.8.6-1.9zm.8.2c-.3-.1-.5-.1-.8-.2l-.6 1.9c.3.1.6.2.9.2l.5-1.9zm4.4-1.8-5 1.9.7 1.9 5-1.9-.7-1.9zm.4 1-.7-.7-.3.3.1.5.9-.1zm-.3 4.1-1-.3 1 .3zm-6.8 25.1-1-.3 1 .3zm-1.3 2.4.7.7-.7-.7zm-5 1.6-.2 1 .2-1zm-23.5-4.6-.2 1 .2-1zm-1.3-2 1 .3-1-.3zm8-30.6-1-.3 1 .3zm2.1-1.2-.3 1 .3-1zm22.2 6.8.3-1-.3 1zm.9.2-.2 1 .3.1.3-.1-.4-1zm5-1.9.7.7-1.1-1.6.4.9z"/></g><path style="clip-path:url(#SVGID_00000165229444813872697220000001101652370041622949_);fill:#fff" d="M290.3 150.3c.1 1.1-.7 2.1-1.8 2.1h-1.2c-1 0-1.9-.1-2.9-.4l-22.2-6.8c-.4-.1-.9-.1-1.2.1l1-1.1c.6-.7 1.6-.9 2.5-.7l23 7-13.1-17.7c-.5-.7-.3-1.7.5-2 .6-.3 1.3-.1 1.7.4l13.5 18.2c0 .3.1.6.2.9z"/><g style="clip-path:url(#SVGID_00000165229444813872697220000001101652370041622949_)"><defs><path id="SVGID_00000149383128855020383940000014439933239902714753_" d="M290.3 150.3c.1 1.1-.7 2.1-1.8 2.1h-1.2c-1 0-1.9-.1-2.9-.4l-22.2-6.8c-.4-.1-.9-.1-1.2.1l1-1.1c.6-.7 1.6-.9 2.5-.7l23 7-13.1-17.7c-.5-.7-.3-1.7.5-2 .6-.3 1.3-.1 1.7.4l13.5 18.2c0 .3.1.6.2.9z"/></defs><clipPath id="SVGID_00000168078738233689462840000002852401592290226847_"><use xlink:href="#SVGID_00000149383128855020383940000014439933239902714753_" style="overflow:visible"/></clipPath><path style="clip-path:url(#SVGID_00000168078738233689462840000002852401592290226847_);fill:#20380e" d="M290.3 149.3v2-2zm-1.2.8c.1.1.1.3.2.4l2-.3c-.1-.5-.2-.9-.5-1.3l-1.7 1.2zm-13.5-18.2 13.5 18.2 1.6-1.2-13.5-18.2-1.6 1.2zm-.4-.1c.2-.1.3 0 .5.1l1.6-1.2c-.7-.9-1.9-1.2-3-.7l.9 1.8zm-.1.5c-.1-.2-.1-.4.1-.5l-.9-1.8c-1.3.7-1.7 2.3-.8 3.5l1.6-1.2zm13.1 17.7-13.1-17.7-1.6 1.2 13.1 17.7 1.6-1.2zm-24.1-5.4 23 7 .6-1.9-23-7-.6 1.9zm-1.4.4c.4-.4.9-.5 1.5-.4l.6-1.9c-1.2-.4-2.6 0-3.5.9l1.4 1.4zm-1 1.1 1-1.1-1.5-1.4-1 1.1 1.5 1.4zm.7-1.8c-.7-.2-1.4-.1-2 .2l1 1.8c.1-.1.3-.1.5 0l.5-2zm22.3 6.7-22.2-6.8-.6 1.9 22.2 6.8.6-1.9zm2.6.4c-.9 0-1.8-.1-2.6-.4l-.6 1.9c1 .3 2.1.5 3.2.5v-2zm1.2 0h-1.2v2h1.2v-2zm.8-.9c.1.5-.3.9-.8.9v2c1.7 0 3-1.5 2.8-3.2l-2 .3zm1-.2v1h1.1l-.2-1.1-.9.1zm-.4-.8.8-.6-.8.6zm-13.4-18.2.8-.6-.8.6zm-1.8-.4.4.9-.4-.9zm-.4 2 .8-.6-.8.6zm13.1 17.7-.3 1 2.9.9-1.8-2.4-.8.5zm-23-7 .3-1-.3 1zm-2.4.7-.7-.7.7.7zm-1.1 1.1-.7-.7 1.2 1.6-.5-.9zm1.3-.2.3-1-.3 1zm22.2 6.8-.3 1 .3-1zm5.9-1.7v-1h-1.1l.1 1.1 1-.1z"/></g><path style="clip-path:url(#SVGID_00000165229444813872697220000001101652370041622949_);fill:#fff" d="m263.4 143.5 1.9-1.3c.7-.4 1.5-.5 2.2-.3l20 7 .5 2.5-24.6-7.9z"/><g style="clip-path:url(#SVGID_00000165229444813872697220000001101652370041622949_)"><defs><path id="SVGID_00000088115006597544337150000006756588483477121440_" d="m263.4 143.5 1.9-1.3c.7-.4 1.5-.5 2.2-.3l20 7 .5 2.5-24.6-7.9z"/></defs><clipPath id="SVGID_00000077295223399609770730000007184370226271551624_"><use xlink:href="#SVGID_00000088115006597544337150000006756588483477121440_" style="overflow:visible"/></clipPath><path style="clip-path:url(#SVGID_00000077295223399609770730000007184370226271551624_);fill:#20380e" d="M263.3 144.5v-2 2zm25 6-24.7-7.9-.6 1.9 24.7 7.9.6-1.9zm-1.8-1.3.5 2.5 2-.4-.5-2.5-2 .4zm-19.4-6.3 20 7 .7-1.9-20-7-.7 1.9zm-1.3.2c.4-.3.9-.3 1.3-.2l.7-1.9c-1-.4-2.2-.2-3.1.4l1.1 1.7zm-1.9 1.3 1.9-1.3-1.1-1.7-1.9 1.3 1.1 1.7zm-.6-.9v-1l-.3 2 .3-1zm24.7 8-.3 1 1.6.5-.3-1.7-1 .2zm-.5-2.5 1-.2-.1-.6-.5-.2-.4 1zm-20-7 .3-.9-.3.9zm-2.3.3-.6-.8.6.8zm-1.8 1.2v1h.3l.3-.2-.6-.8z"/></g><path style="clip-path:url(#SVGID_00000165229444813872697220000001101652370041622949_);fill:#fff" d="M256.9 158s5.6 1.2 10.8 1.2 2 4-.9 4.9c4.9-.2 4.9 2.4 4.3 3.7-1 1.5-4.5 2.1-6.2 2.2-.7 4.5-7.7 3.1-11.1 1.9l-6.8 2.5c-.2-6.9-3.8-12-5.6-13.6l9.3-4c2.2-2 5.7-3.1 7.1-3.4l-.9 4.6z"/><path style="clip-path:url(#SVGID_00000165229444813872697220000001101652370041622949_);fill:#20380e" d="M267.1 165.2c.9-.3 1.7-.8 2.4-1.3.7-.6 1.3-1.3 1.7-2 .4-.8.5-1.8-.3-2.6-.7-.7-1.8-.9-3.2-.9v2c1.3 0 1.7.3 1.8.3 0 0 0 .1-.1.3-.2.4-.6.9-1.1 1.3-.6.4-1.2.8-1.8 1l.6 1.9zm4.9 3.1c.4-.8.7-2.2-.2-3.4-.8-1.2-2.5-1.8-5.1-1.7l.1 2c2.4-.1 3.1.5 3.4.8.3.4.2 1 0 1.5l1.8.8zm-7 2.8c.9-.1 2.2-.2 3.5-.6.6-.2 1.3-.4 1.9-.7.6-.3 1.1-.7 1.5-1.3l-1.7-1.1c-.1.2-.4.4-.8.6-.4.2-.9.4-1.5.6-1.1.3-2.4.5-3.1.5l.2 2zm-11.5 1.8c1.8.6 4.5 1.3 6.9 1.3 1.2 0 2.5-.3 3.5-.9 1.1-.6 1.8-1.6 2.1-3l-2-.3c-.1.8-.5 1.3-1.1 1.6-.6.4-1.5.6-2.5.6-2.1.1-4.6-.6-6.2-1.1l-.7 1.8zm-6.1 2.4 6.8-2.5-.7-1.9-6.8 2.5.7 1.9zm-6.6-13.8c1.6 1.5 5 6.3 5.2 12.9l2-.1c-.3-7.2-4-12.5-5.9-14.3l-1.3 1.5zm9.5-5.6-9.3 4 .8 1.8 9.3-4-.8-1.8zm7.3-3.5c-1.5.3-5.2 1.5-7.6 3.6l1.3 1.5c2-1.8 5.3-2.9 6.7-3.2l-.4-1.9zm.3 5.8.9-4.6-2-.4-.9 4.6 2 .4zm9.8.1c-2.6 0-5.2-.3-7.2-.6-1-.2-1.9-.3-2.4-.4-.3-.1-.5-.1-.7-.1h-.2l-.2 1-.2 1H257.1c.2 0 .4.1.7.1.6.1 1.5.3 2.5.4 2.1.3 4.8.6 7.5.6v-2zm-.9 5.9-.3-1 .4 2-.1-1zm4.3 3.7.8.6v-.2l-.8-.4zm-6.2 2.2-.1-1h-.8l-.1.8 1 .2zm-11.1 1.8.3-.9-.3-.1-.3.1.3.9zm-6.8 2.5h-1v1.4l1.3-.5-.3-.9zm-5.6-13.6-.4-.9-1.4.6 1.1 1 .7-.7zm9.3-4 .4.9.1-.1.1-.1-.6-.7zm7.1-3.4 1 .2.3-1.5-1.5.3.2 1zm-.9 4.6-1-.2-.2 1 1 .2.2-1z"/><path style="clip-path:url(#SVGID_00000165229444813872697220000001101652370041622949_);fill:#20380e" d="M255.4 169.5c1.8.4 6.2 1.3 9.8 1.3v-2c-3.3 0-7.6-.8-9.4-1.2l-.4 1.9zm9.8 1.3c.6 0 1-.4 1-1s-.4-1-1-1v2zm-9.3-3.2c-.5-.1-1.1.2-1.2.7s.2 1.1.7 1.2l.5-1.9zM256.4 163.8c.6.3 1.8.7 3.6 1 1.8.3 4.3.5 7.4.3l-.1-2c-3 .1-5.4-.1-7-.3-1.7-.3-2.6-.6-3-.8l-.9 1.8zm11 1.4c.6 0 1-.5 1-1 0-.6-.5-1-1-1v2zm-10-3.1c-.5-.3-1.1-.1-1.4.4-.3.5-.1 1.1.4 1.4l1-1.8z"/><path style="clip-path:url(#SVGID_00000165229444813872697220000001101652370041622949_);fill:#94b73d" d="m211 132-1.4.5c-3.6 1.3-6.4 4.3-7.4 8.1l-8.7 29.7c-.9 3.1-.9 6.5.1 9.5.4 1.3 1 2.6 1.8 3.9 2.8 4.6 7.9 7.4 13.3 7.8h.1c2.7.2 5.4-.3 7.9-1.4l31-13.6s-.4-12.7-9.3-18.6l-24 10.3 2.4-21.9c.6-5.1-.9-10.8-5-13.8-.4-.2-.6-.3-.8-.5z"/><path style="clip-path:url(#SVGID_00000165229444813872697220000001101652370041622949_);fill:#4b702f" d="m237.4 158.3-23.1 9.9 3.5-13.9c.1-.4.5-.6.9-.5.4.1.6.5.5.9l-2.9 11.2 20.7-8.7c.2-.1.5 0 .6.1.3.2.2.8-.2 1zM247.9 176.9c-.1-.2-.4-.3-.7-.2l-28.9 12.7h2.5l26.8-11.7c.3-.2.4-.5.3-.8z"/><path style="clip-path:url(#SVGID_00000165229444813872697220000001101652370041622949_);fill:#20380e" d="M205.7 94.5c-.5.8-1 2.2-.8 3.6.2 1.5 1 3.1 3 4.2l1-1.7c-1.5-.8-1.9-1.9-2-2.7-.1-.9.2-1.8.5-2.4l-1.7-1zm2.2 7.8c.5.3 1.1.1 1.4-.4.3-.5.1-1.1-.4-1.4l-1 1.8zm-.5-6.8c.3-.5.1-1.1-.3-1.4-.5-.3-1.1-.1-1.4.3l1.7 1.1zM272.3 96.7c.1.6.2 1.6.1 2.5-.2.9-.5 1.4-1 1.6l.7 1.9c1.5-.6 2.1-2 2.3-3.1.2-1.2.1-2.5-.1-3.3l-2 .4zm-.9 4.1c-.5.2-.8.8-.6 1.3.2.5.8.8 1.3.6l-.7-1.9zm2.9-4.5c-.1-.5-.6-.9-1.2-.8-.5.1-.9.6-.8 1.2l2-.4z"/></g></g></switch></svg>